<svg preserveAspectRatio="none" width="100%" height="100%" overflow="visible" style="display: block;" viewBox="0 0 20 20" fill="none" xmlns="http://www.w3.org/2000/svg">
<g id="Frame">
<rect width="20" height="20" rx="10" fill="var(--fill-0, #0061FE)"/>
<g id="Vector">
<mask id="path-2-inside-1_0_410" fill="white">
<path d="M15 5L8.125 15L5 10.4545"/>
</mask>
<path d="M16.6481 6.13306C17.2739 5.22285 17.0433 3.97769 16.1331 3.35192C15.2228 2.72615 13.9777 2.95673 13.3519 3.86694L15 5L16.6481 6.13306ZM8.125 15L6.47692 16.1331L8.125 18.5303L9.77308 16.1331L8.125 15ZM6.64808 9.32149C6.02231 8.41128 4.77715 8.18069 3.86694 8.80646C2.95673 9.43223 2.72615 10.6774 3.35192 11.5876L5 10.4545L6.64808 9.32149ZM15 5L13.3519 3.86694L6.47692 13.8669L8.125 15L9.77308 16.1331L16.6481 6.13306L15 5ZM8.125 15L9.77308 13.8669L6.64808 9.32149L5 10.4545L3.35192 11.5876L6.47692 16.1331L8.125 15Z" fill="var(--stroke-0, white)" mask="url(#path-2-inside-1_0_410)"/>
</g>
</g>
</svg>
