<svg width="407" height="404" viewBox="0 0 407 404" fill="none" xmlns="http://www.w3.org/2000/svg">
<path d="M147.678 80.1511C144.503 80.4258 141.726 81.918 139.27 83.9687C142.175 82.9651 144.906 81.5626 147.678 80.1511ZM147.678 80.1511C147.731 80.1465 147.785 80.1414 147.839 80.1374C147.839 80.1374 147.78 80.117 147.759 80.1261C147.757 80.1218 147.755 80.1175 147.753 80.1132C147.728 80.1259 147.703 80.1384 147.678 80.1511ZM147.801 80.1078C147.817 80.085 147.836 80.0628 147.852 80.0404C147.816 80.0562 147.779 80.072 147.742 80.0879C147.762 80.0945 147.781 80.1011 147.801 80.1078ZM10.6066 270.429C14.1902 272.767 15.7705 280.145 18.2929 285.414C22.4067 294.182 27.0967 302.605 32.5955 310.651C38.2268 318.897 44.3772 327.068 50.8866 334.761C52.0317 336.127 52.8195 337.174 52.4999 335.501C52.4933 335.486 52.4871 335.471 52.4804 335.456C52.4847 335.457 52.4892 335.459 52.4935 335.461C52.4903 335.444 52.4886 335.428 52.4851 335.411C52.4794 335.417 52.4736 335.422 52.4678 335.427C52.458 335.405 52.4482 335.383 52.4384 335.361C52.4325 335.367 52.4266 335.372 52.4207 335.378C52.949 332.306 48.2361 329.65 46.2932 326.972C41.9758 321.105 36.314 315.162 33.2397 308.966C29.9463 302.375 24.567 296.194 22.9709 287.844C35.1841 311.01 50.9555 330.191 68.8991 346.958C68.4106 347.616 67.1358 345.604 66.1383 345.889C86.4936 362.889 109.92 374.153 133.662 384.938C124.64 382.835 116.853 377.628 108.056 374.383C111.674 376.673 115.274 379.132 119.205 380.865C131.116 386.106 143.517 390.673 156.318 392.978C160.78 393.776 164.214 395.878 168.788 396.203C170.171 396.304 172.277 396.9 172.964 396.683C179.523 394.692 187.062 397.048 194.359 397.021C196.865 397.014 199.369 397.009 201.877 396.991C211.815 396.917 221.706 396.644 231.565 395.153C246.784 392.868 261.937 389.138 276.161 383.225C284.513 379.763 292.791 375.15 300.379 371.129C309.134 366.516 317.318 360.926 324.992 354.907C335.364 346.78 346.279 338.148 352.92 326.885C360.648 320.55 365.858 311.557 371.232 303.14C383.927 283.285 392.035 260.8 396.465 237.768C398.914 225.093 400.073 212.18 399.936 199.331C399.774 183.518 397.637 167.701 393.527 152.469C388.608 134.163 381.237 116.492 371.344 100.42C370.963 99.7847 370.423 99.2458 369.869 98.5613C369.65 100.072 371.697 101.657 371.691 103.102C370.224 101.355 368.319 98.9752 368.273 97.5388C368.206 95.1627 366.532 93.1833 365.225 91.3136C359.323 82.9278 352.798 75.0006 345.631 67.7225C334.366 56.2825 322.049 45.6887 308.434 37.1263C296.696 29.7318 284.105 23.8536 271.157 19.1215C257.263 14.0321 242.845 10.341 228.19 8.16666C247.034 10.3571 265.618 15.2964 283.174 22.8397C283.235 22.6212 283.303 22.39 283.334 22.1576C263.045 12.5238 240.641 8.57017 218.819 4.86387C218.839 4.62153 218.86 4.37922 218.88 4.13691C228.629 4.7577 238.361 6.11902 247.982 8.11454C250.918 8.72965 253.86 9.89274 256.779 10.0053C255.802 8.3776 252.708 8.40586 250.816 7.52732C251.493 7.20099 253.296 8.44632 253.889 7.80738C253.678 7.66465 253.484 7.4545 253.218 7.3852C244.694 4.82975 235.821 3.02964 226.996 2.63593C224.943 2.53898 223.431 2.1515 221.872 1.56135C217.32 -0.213921 209.694 -0.549309 205.857 0.937629C203.895 1.67725 204.677 2.85276 206.042 3.60856C208.141 4.82331 208.055 5.77396 205.746 6.70539C204.373 7.27082 204.309 7.74885 205.45 8.44093C208.563 10.3787 208.345 10.4324 201.951 10.6968C208.632 11.846 206.463 13.1907 205.197 15.4277C203.34 18.6244 198.738 22.2873 205.288 25.8873C206.125 26.3525 206.805 28.3784 205.737 30.0801C204.57 31.9378 203.315 34.6259 205.73 36.8893C206.09 37.2197 207.035 37.5956 207.678 37.6184C214.132 37.8195 212.976 40.3354 212.192 41.8833C210.159 45.9968 211.597 49.9913 213.23 54.1798C214.101 56.4279 213.979 58.8266 214.749 61.1336C215.583 63.69 219.82 64.1688 222.79 64.8964C228.68 66.2824 234.627 67.1003 240.658 68.1137C243.336 68.567 246.166 69.4931 248.644 70.6612C252.938 72.7067 257.483 72.9525 261.674 75.1444C263.236 75.9649 264.405 76.8053 265.325 77.9296C268.041 76.9999 270.189 79.8484 272.528 80.9142C274.9 81.9884 277.449 83.2973 278.924 85.5569C279.962 87.1632 281.409 86.3312 282.775 87.2627C290.071 92.2625 297.34 97.6501 303.196 104.255C306.279 107.725 309.343 111.023 312.352 114.223C322.709 125.275 329.446 139.179 334.992 153.103C337.426 159.174 340.154 165.809 340.099 172.717C340.077 175.408 341.035 178.32 341.631 181.104C342.613 185.705 343.305 190.342 342.889 195.175C342.771 196.553 342.79 197.934 342.855 199.331C343.009 202.642 343.428 205.964 342.928 209.327C342.003 215.523 341.476 221.766 340.347 227.944C339.817 230.852 339.227 233.834 337.083 235.767C335.666 237.017 337.797 237.282 337.094 238.946C335.734 242.128 334.479 245.419 333.097 248.617C330.256 255.167 327.661 261.69 324.768 268.248C323.367 271.439 321.228 274.596 318.973 277.307C317.438 279.16 316.809 281.892 314.487 282.879C314.537 284.337 314.139 286.556 312.612 287.127C310.175 288.033 309.186 290.019 307.521 291.71C304.238 295.035 300.572 297.782 297.81 301.629C297.169 302.509 296.369 301.758 295.442 302.665C293.69 304.349 291.579 306.037 289.784 307.25C285.206 310.342 281.486 315.122 275.827 316.277C273.926 316.652 272.329 318.482 270.405 319.476C265.698 321.931 260.582 323.696 256.209 326.664C251.418 329.933 245.608 331.03 240.239 332.225C237.193 332.92 233.552 334.391 230.469 333.481C229.226 335.323 225.301 334.589 223.843 336.545C222.928 337.783 220.364 337.383 219.137 337.086C214.715 336.001 211.821 336.324 207.21 336.691C205.477 336.824 203.697 337.057 201.877 337.17C198.872 337.356 195.831 337.216 192.89 335.78C191.056 334.887 187.052 335.85 183.907 335.514C181.882 335.305 179.42 334.892 177.482 335.625C176.853 335.873 176.198 335.814 175.714 335.254C173.412 332.634 170.084 333.295 167.184 333.192C164.614 333.115 162.182 333.645 160.716 331.021C160.246 330.194 158.265 329.723 156.976 329.586C153.503 329.194 153.504 329.25 150.777 327.333C150.354 327.035 149.749 326.813 149.218 326.661C143.47 324.937 138.514 321.49 132.561 319.553C128.299 318.184 123.052 315.137 120.412 311.945C117.29 308.197 113.403 306.468 110.284 303.382C106.63 299.745 102.829 296.054 99.0697 292.546C90.7611 284.775 85.0053 274.896 78.7223 265.607C78.0991 264.697 77.2072 263.546 77.7313 262.462C78.0508 261.81 77.3721 260.622 77.0178 260.323C72.5952 256.681 71.8632 250.617 70.025 245.623C64.8723 231.776 62.6654 216.966 62.4066 202.244C62.3893 201.275 62.3888 200.304 62.4033 199.331C62.5178 191.757 63.5445 184.329 64.6926 176.951C66.0992 167.882 68.9846 159.175 72.3705 150.753C74.7439 144.84 77.4886 138.839 81.3881 133.727C82.8253 131.831 85.5848 129.889 84.6782 127.025C84.6322 126.949 89.4501 122.258 89.5663 122.186C90.0145 121.704 90.5111 121.258 90.8499 120.727C96.1562 112.789 103.424 106.611 110.649 100.731C120.922 92.3677 132.186 85.123 144.377 80.1757C148.111 78.67 151.597 76.3556 156.01 75.4943C153.42 77.5184 149.632 77.6459 147.852 80.0404C153.602 77.5584 159.643 75.6377 165.228 73.1711C170.402 70.8773 176.867 70.5294 181.057 66.9122C181.683 66.3778 182.668 66.649 183.402 66.6937C185.789 66.819 186.831 65.7772 186.257 64.8623C184.997 62.8614 186.765 62.5676 189.438 62.4481C190.372 62.4082 191.699 62.4949 191.985 61.7169C192.235 61.1094 191.277 60.9469 190.394 60.8481C188.802 60.672 186.371 60.7539 187.156 59.3202C187.712 58.3075 189.169 57.0121 191.878 57.5879C192.004 57.6071 192.312 57.3901 192.627 57.2443C191.936 56.1606 190.143 56.4362 188.544 56.4396C190.574 54.5707 192.118 52.8419 189.813 50.8413C189.314 50.4309 189.663 49.9202 188.209 50.016C185.209 50.2334 185.158 49.7354 186.357 48.1718C187.863 46.2152 190.747 44.0162 187.187 42.0743C186.928 41.9425 186.866 41.5676 187.068 41.3661C189.012 39.3676 189.141 37.8218 186.582 35.942C184.897 34.7574 188.917 32.9246 191.741 32.0156C199.996 29.3789 204.286 23.6032 200.471 19.3482C198.236 16.8756 193.769 14.3416 199.011 11.2089C160.673 8.41038 120.694 18.0022 87.3613 40.0176C54.1832 61.7986 28.8019 95.0389 14.1888 132.361C15.5978 126.549 18.6158 121.311 20.5232 115.743C20.6785 115.286 20.5938 114.868 20.7125 113.435C16.6846 121.707 13.2326 130.276 10.4032 139.048C10.1373 139.871 9.82625 140.819 10.5413 140.323C12.6176 138.93 10.7198 141.851 10.5412 141.975C8.63399 143.252 8.02196 146.186 7.65633 148.945C7.1661 152.549 5.87069 155.657 5.08489 159.067C2.03777 172.243 0.445396 185.791 0.254875 199.331C0.22091 201.724 0.230279 204.111 0.281975 206.49C0.420861 212.703 1.28545 218.956 1.50106 225.401C1.64932 229.155 -0.297858 226.418 0.0395448 229.575C0.470758 233.199 2.177 230.622 2.71429 234.299C3.29717 238.107 4.4858 241.83 5.17282 245.98C4.49725 245.215 3.98031 244.624 2.9584 243.42C6.93905 253.02 8.32251 261.416 10.6066 270.429ZM147.722 328.51C142.914 327.531 138.87 324.768 134.564 322.653C139.186 324.126 143.282 326.697 147.722 328.51ZM117.973 312.711C122.665 314.587 126.548 317.841 130.843 320.487C126.328 318.33 122.374 315.121 117.973 312.711ZM160.9 333.273C168.777 335.595 176.852 337.235 185.022 338.18C184.977 338.358 184.932 338.537 184.887 338.715C176.71 337.765 168.629 336.122 160.745 333.797C160.797 333.623 160.848 333.448 160.9 333.273ZM201.343 339.82C197.245 339.805 193.201 339.37 189.167 338.923C193.262 339.066 197.332 338.852 201.343 339.82ZM129.616 47.5213C141.262 39.6139 153.62 37.4098 165.202 36.4179C153.911 40.8777 142.317 43.2035 129.616 47.5213ZM324.502 56.452C329.034 59.3004 332.339 61.662 334.073 65.9192C330.64 62.7739 327.566 60.3976 324.502 56.452ZM369 110.088C374.623 116.838 377.367 124.081 378.974 131.357C375.734 124.466 372.686 117.662 369 110.088ZM343.502 67.5783C344.29 68.3416 345.104 69.1305 345.087 69.6898C345.076 70.1523 344.511 70.2244 344.089 70.3477C343.791 70.3987 343.175 69.9854 343.009 69.4629C341.772 65.4329 337.438 63.9243 334.901 60.9745C335.885 62.8567 338.403 64.0526 339.714 66.6987C333.304 60.953 329.558 54.3862 322.61 50.3902C322.598 50.387 322.587 50.3839 322.575 50.3807C325.477 50.7592 326.991 53.0772 328.925 54.6231C333.999 58.6712 338.833 63.0339 343.502 67.5783ZM300.618 35.4537C306.191 38.0205 310.443 41.0505 314.489 44.2913C310.407 41.0461 305.212 39.8083 300.618 35.4537ZM342.747 332.798C342.749 332.939 341.845 334.062 341.24 334.072C340.592 334.086 340.697 333.485 341.144 332.67C342.689 329.833 345.472 327.375 348.184 323.39C348.188 323.393 348.191 323.397 348.195 323.4C347.977 324.609 348.032 324.926 347.821 325.27C346.288 327.823 342.462 330.206 342.747 332.798ZM362.901 91.9175C359.662 87.4619 355.724 83.6087 352.999 78.7292C356.485 82.9799 359.788 87.3789 362.901 91.9175ZM367.523 98.4821C370.399 102.599 373.296 106.759 374.769 111.585C372.403 107.142 369.124 103.233 367.523 98.4821ZM396.131 213.502C395.617 216.466 397.12 219.107 396.493 220.445C394.391 224.907 395.06 229.553 394.126 234.025C394.223 227.223 394.145 220.577 396.131 213.502ZM381.777 125.736C383.265 129.57 386.21 130.835 387.351 135.577C384.152 134.329 383.316 129.548 381.777 125.736ZM392.379 248.297C392.314 248.489 392.235 248.679 392.178 248.839C390.166 254.103 388.819 259.512 387.184 264.843C386.498 267.1 385.397 268.136 384.698 268.042C383.867 267.937 384.856 265.947 385.237 264.774C387.636 257.249 390.531 249.766 391.888 241.89C392.312 239.424 393.375 236.901 394.078 234.384C395.296 234.447 394.214 236.471 394.17 237.647C394.07 240.652 392.692 242.396 391.906 244.679C390.823 247.783 391.016 248.599 392.379 248.297ZM356.489 321.606C356.835 322.849 355.955 322.658 355.707 322.408C355.414 322.126 354.156 323.622 354.369 322.442C354.863 321.89 355.429 321.31 355.916 320.664C356.35 320.106 357.015 319.428 356.905 318.912C356.898 318.921 356.891 318.929 356.884 318.938C351.024 324.215 347.483 331.884 340.941 336.472C352.148 324.679 361.719 311.608 370.622 297.998C371.262 297.015 372.134 296.2 372.466 295.033C374.362 288.557 378.557 282.674 380.999 276.259C381.759 274.25 382.632 273.579 384.057 272.6C380.676 279.706 377.469 285.95 375.093 292.493C374.718 293.521 374.02 294.644 373.429 295.667C368.77 303.627 363.455 311.156 358.061 318.579C357.251 319.704 356.198 320.629 356.489 321.606ZM198.326 5.45039C194.051 4.52168 168.766 3.59797 144.428 9.58985C119.998 15.0166 97.949 26.9798 96.0454 28.7677C116.38 18.2432 138.643 10.0413 161.131 7.82444C172.793 6.67201 184.528 7.06083 196.796 5.81962C197.296 5.77909 197.726 5.60139 198.326 5.45039ZM330.666 347.883C321.857 355.261 312.436 361.901 302.503 367.667C299.939 369.167 297.297 370.787 294.841 370.868C294.85 370.864 294.859 370.859 294.868 370.855C295.595 369.725 297.224 369.067 298.57 368.313C309.551 362.115 319.947 354.881 329.494 346.706C330.751 345.647 332.096 344.134 332.856 344.642C333.755 345.253 332.199 346.608 330.666 347.883ZM319.358 42.8341C310.527 35.9243 300.786 30.0078 290.424 25.714C300.228 31.178 309.924 36.6726 319.358 42.8341ZM201.149 394.069C196.648 394.74 192.226 393.653 187.69 393.756C192.33 392.66 196.653 393.645 201.149 394.069ZM255.106 387.763C257.283 386.101 259.857 385.104 263.266 384.447C267.031 383.719 270.897 382.27 274.362 380.403C275.111 380.005 275.653 379.199 276.445 379.636C277.238 380.072 276.273 380.648 274.982 381.154C268.469 383.709 261.831 385.915 255.106 387.763ZM279.235 379.688C284.059 376.499 289.131 373.597 294.627 370.972C291.162 375.456 284.234 376.753 279.235 379.688ZM294.686 370.872C294.696 370.866 294.706 370.861 294.715 370.856C294.712 370.861 294.708 370.866 294.704 370.872C294.698 370.872 294.692 370.872 294.686 370.872ZM347.609 66.652C347.452 66.7988 347.295 66.9457 347.138 67.0926C357.946 79.4503 368.501 92.1294 376.524 106.674C368.614 92.162 358.861 78.693 347.609 66.652ZM397.806 236.262C400.52 224.138 401.682 211.695 401.574 199.331C401.447 184.225 399.432 169.152 396.023 154.415C396.019 154.416 396.014 154.417 396.01 154.418C395.731 154.519 395.43 154.59 395.143 154.658C398.779 169.261 400.692 184.302 400.87 199.331C401.02 211.667 400.006 224.06 397.806 236.262ZM380.904 113.536C380.78 113.635 380.629 113.71 380.478 113.784C386.38 125.775 391.042 138.389 394.346 151.354C394.488 151.283 394.634 151.175 394.797 151.133C391.483 138.159 386.812 125.536 380.904 113.536ZM3.93807 224.665C3.05071 217.091 1.63079 209.522 3.10384 201.863C3.20144 209.443 3.73489 217.008 4.71801 224.563C4.45803 224.597 4.19805 224.631 3.93807 224.665ZM285.874 19.382C284.357 18.8303 285.611 17.9668 284.115 17.7272C276.755 16.6017 270.474 12.331 263.474 10.1987C259.688 9.06412 258.201 9.11637 256.854 10.0154C264.934 12.3131 272.77 15.5818 280.741 17.9319C282.328 18.3938 282.93 19.3175 284.257 19.849C286.332 20.6819 286.356 20.2227 285.874 19.382ZM256.78 10.0525C256.778 10.057 256.777 10.0616 256.776 10.0661C256.785 10.0597 256.796 10.0543 256.805 10.0479C256.803 10.0442 256.8 10.0404 256.798 10.0367C256.792 10.0419 256.786 10.0472 256.78 10.0525ZM256.805 10.0479C256.808 10.0526 256.81 10.0572 256.813 10.0618C256.815 10.0537 256.817 10.0455 256.82 10.0374C256.815 10.0408 256.81 10.0445 256.805 10.0479ZM256.779 10.0053C256.785 10.0157 256.792 10.0262 256.798 10.0367C256.808 10.0271 256.818 10.0176 256.828 10.008C256.811 10.0071 256.795 10.0062 256.779 10.0053ZM256.82 10.0374C256.831 10.0298 256.843 10.0229 256.854 10.0154C256.845 10.013 256.836 10.0105 256.828 10.008C256.825 10.0178 256.822 10.0276 256.82 10.0374ZM138.542 387.222C137.519 386.933 135.776 386.323 136.02 385.723C136.263 385.124 137.653 385.779 138.846 386.185C145.209 388.321 151.691 390.066 158.225 391.508C151.715 391.601 145.075 389.11 138.542 387.222ZM311.791 32.5266C304.055 27.478 296.212 22.4087 287.477 19.2968C286.966 19.1202 286.451 19.3444 285.946 19.4083C288.344 21.4875 291.257 23.107 294.657 24.7007C299.908 27.157 304.997 30.0191 310.011 33.0209C311.007 33.6186 312.212 34.4553 312.669 33.8828C312.906 33.5848 312.542 33.0104 311.791 32.5266ZM43.0746 79.401C39.508 81.85 32.7984 90.952 30.1391 97.5305C34.9518 91.0136 38.3307 84.6118 43.0746 79.401ZM21.7775 286.405C19.0628 283.42 17.4603 280.502 16.5654 276.306C19.3337 279.245 20.3561 282.427 21.7775 286.405ZM4.07821 237.599C3.81579 236.491 3.64968 235.361 4.12798 235.168C4.70986 234.922 5.43261 236.426 5.3933 237.375C5.17748 242.204 7.67187 247.014 8.3876 253.218C8.38442 253.207 8.38125 253.196 8.37808 253.185C6.43173 247.088 5.19564 242.349 4.07821 237.599ZM366.32 83.2977C361.288 76.9733 356.49 70.4951 350.833 64.8206C345.48 59.4376 340.347 53.1609 333.687 50.4799C346.315 59.1768 355.88 72.2544 366.32 83.2977ZM389.263 271.172C389.098 271.107 388.932 271.041 388.767 270.976C383.814 283.569 377.553 295.63 370.141 306.912C370.29 307.009 370.439 307.107 370.587 307.205C378.018 295.892 384.297 283.799 389.263 271.172ZM285.835 19.3115C285.812 19.2912 285.786 19.2711 285.763 19.2507C285.763 19.2507 285.826 19.3167 285.862 19.3606C285.866 19.3678 285.87 19.3748 285.874 19.382C285.876 19.3829 285.879 19.3839 285.881 19.3849C285.889 19.3956 285.891 19.4014 285.884 19.3986C285.895 19.4034 285.905 19.4081 285.916 19.4129C285.926 19.4117 285.936 19.4097 285.946 19.4083C285.926 19.3908 285.906 19.3734 285.886 19.3558C285.857 19.3212 285.828 19.2867 285.8 19.2521C285.812 19.2721 285.823 19.2918 285.835 19.3115ZM334.377 48.9435C330.362 46.2441 327.09 42.0251 322.469 40.5595C326.354 43.7524 329.881 47.3694 334.377 48.9435ZM188.708 398.425C189.703 398.517 190.846 398.479 190.705 397.882C190.598 397.314 189.573 397.23 188.511 397.216C185.765 397.192 183.078 397.118 180.331 396.985C180.342 396.986 180.353 396.987 180.364 396.988C180.415 397.163 180.434 397.32 180.451 397.491C183.177 397.861 185.925 398.191 188.708 398.425ZM336.899 347.004C343.008 342.661 347.471 336.788 352.444 331.388C346.923 336.348 342.311 342.042 336.899 347.004ZM382.035 108.614C382.5 108.414 382.455 107.377 381.933 106.63C378.708 102.092 376.172 97.1274 373.182 92.3608C372.856 91.8282 372.217 91.4547 371.19 90.5596C373.634 96.7861 377.714 101.624 380.138 107.112C380.649 108.282 381.507 108.847 382.035 108.614ZM395.369 137.671C392.414 129.206 388.821 120.944 384.86 112.906C384.043 111.256 383.399 110.331 382.843 110.535C381.908 110.89 383.253 112.573 383.756 113.557C387.56 120.991 390.959 128.649 393.85 136.522C393.846 136.511 393.843 136.5 393.839 136.489C394.337 136.871 394.848 137.253 395.369 137.671ZM79.0977 361.442C84.1422 365.322 89.5943 368.413 96.2357 371.762C93.1786 369.271 91.229 367.564 89.2239 365.772C90.958 365.644 92.82 367.847 94.9976 368.133C88.4448 364.204 82.9235 360.041 77.0536 355.98C70.1901 351.233 63.6185 345.503 57.9435 339.328C57.9338 339.305 57.9242 339.282 57.9145 339.259C55.4001 336.529 54.2092 336.059 52.4935 335.461C52.4962 335.475 52.4974 335.487 52.4999 335.501C53.844 338.535 55.3063 341.582 59.3609 342.971C60.6587 343.426 60.8867 344.59 61.6267 345.38C65.715 349.747 69.5104 354.421 75.2156 357.323C76.9534 358.201 77.488 360.197 79.0977 361.442ZM400.913 162.432C400.698 153.299 398.056 144.561 393.884 136.588C396.348 145.167 398.989 153.692 400.913 162.432ZM393.85 136.522C393.861 136.544 393.873 136.566 393.884 136.588C393.877 136.564 393.87 136.541 393.864 136.518C393.859 136.519 393.855 136.521 393.85 136.522ZM401.898 235.701C402.834 234.244 403.993 233.868 403.985 231.118C403.913 222.345 406.185 213.862 406.324 205.165C406.327 204.57 406.314 203.975 406.313 203.275C405.392 203.885 406.234 206.004 405.344 207.155C405.305 204.483 405.201 201.905 405.185 199.331C405.173 197.581 405.202 195.841 405.315 194.077C405.357 193.519 405.743 192.845 405.694 192.637C405.142 190.369 405.651 185.962 404.473 185.725C403.322 185.454 403.936 189.666 404.031 191.345C404.032 191.357 404.032 191.368 404.033 191.38C404.193 194.015 404.29 196.665 404.328 199.331C404.5 211.325 403.511 223.397 401.898 235.701ZM89.7342 32.4357C82.5498 36.7075 75.1372 40.2493 68.8988 46.3992C68.1294 47.1597 66.595 48.1032 66.9013 48.7694C67.1705 49.3914 68.417 48.5047 69.3655 47.6976C69.3685 47.7012 69.3716 47.7048 69.3747 47.7084C75.836 42.1965 82.6352 37.0964 89.7342 32.4357ZM38.616 77.7146C35.8612 82.8721 31.066 86.0523 28.5725 91.32C28.5622 91.3274 28.5519 91.3348 28.5416 91.3421C27.5344 93.4859 26.1335 95.7991 25.9842 98.1812C30.9077 91.4832 34.4234 84.8543 39.0801 79.0745C39.6683 78.3437 40.1364 77.2574 39.6627 77.0215C39.5192 76.954 38.731 77.4939 38.616 77.7146ZM20.2141 108.102C18.2606 111.738 13.8764 114.117 15.0896 119.159C17.6704 115.878 18.3965 111.781 20.2141 108.102ZM13.6386 122.866C10.238 128.086 9.46874 133.097 7.81899 137.552C9.89977 133.328 11.7103 129.016 13.6386 122.866ZM52.4113 335.431C52.4238 335.435 52.4368 335.44 52.4492 335.445C52.4338 335.459 52.4185 335.474 52.403 335.488C52.4069 335.47 52.4077 335.449 52.4113 335.431ZM53.0847 60.918C50.0948 64.3623 46.1928 67.3903 43.4554 72.6447C48.1221 68.9339 50.3586 64.488 53.8694 61.3767C53.9993 61.2598 54.2058 60.6399 54.0973 60.6316C53.859 60.5956 53.2878 60.7254 53.1192 60.9024C53.1077 60.9076 53.0962 60.9129 53.0847 60.918ZM131.772 390.315C135.858 392.017 138.288 391.239 141.744 393.075C141.753 393.083 141.763 393.09 141.773 393.098C141.829 392.793 141.851 392.477 141.907 392.171C140.995 391.836 140.123 391.447 139.198 391.138C125.967 386.688 113.206 380.894 101.212 373.842C99.7748 373.001 98.4322 372.279 97.8808 372.737C97.0309 373.426 98.8274 374.368 100.314 375.221C107.009 379.082 113.843 382.833 121.021 385.571C124.88 387.04 128.394 388.896 131.772 390.315ZM400.03 248.933C401.482 244.545 402.779 240.89 403.248 236.952C401.274 238.154 399.677 243.831 400.03 248.933ZM388.718 283.01C390.73 280.717 391.251 277.881 391.923 275.43C391.919 275.441 391.914 275.451 391.91 275.462C393.263 270.538 394.697 265.871 396.859 261.175C392.953 267.721 390.812 275.405 387.417 282.412C386.865 283.581 386.422 284.838 387.042 285.135C387.756 285.436 388.235 283.562 388.718 283.01ZM360.689 327.001C362.606 325.726 363.74 326.759 364.603 324.293C365.778 320.874 368.158 318.481 370.267 316.173C373.268 312.887 373.825 309.326 376.489 305.828C379.881 301.339 381.627 295.588 385.062 290.854C385.8 289.849 386.349 288.427 385.673 288.21C384.997 287.994 384.362 289.396 383.785 290.514C380.848 296.316 377.372 301.927 374.239 307.512C374.236 307.524 374.234 307.537 374.231 307.549C370.525 314.112 365.718 319.966 360.689 327.001ZM187.225 403.404C188.392 403.906 188.88 403.512 189.099 403.385C191.195 402.262 194.082 402.298 196.802 402.951C199.35 403.554 199.333 402.587 199.58 402.311C200.25 401.575 198.088 401.592 197.393 401.574C188.375 401.247 179.195 399.969 170.338 399.091C164.574 398.516 159.653 396.678 154.269 395.687C154.257 395.689 154.244 395.691 154.232 395.693C149.983 394.918 145.298 392.73 142.078 393.659C142.567 394.987 146.68 393.356 145.089 395.5C144.788 395.912 146.821 396.512 148.05 396.849C155.76 399.025 163.511 400.435 171.43 400.759C176.532 400.979 182.613 401.408 187.225 403.404ZM338.155 350.936C342.913 348.953 345.915 344.62 348.246 341.717C351.558 337.608 355.234 335.426 358.203 331.698C358.887 330.849 360.366 329.887 360.02 329.227C359.695 328.589 358.392 329.64 357.315 330.88C357.303 330.885 357.292 330.891 357.281 330.897C351.402 337.678 344.575 343.577 338.155 350.936ZM231.508 401.033C232.005 400.807 232.965 402.042 233.669 400.785C233.892 400.366 233.439 400.028 232.012 400.124C222.456 400.747 212.93 401.411 203.324 401.87C203.01 401.886 202.769 402.225 201.997 402.759C210.155 402.816 217.491 403.203 225.195 402.087C227.286 401.784 229.509 401.927 231.508 401.033ZM246.793 399.235C250.476 398.833 250.419 397.202 252.808 396.38C247.384 396.325 243.014 397.165 239.884 400.523C242.584 399.269 244.735 399.453 246.793 399.235ZM292.624 383.972C294.159 383.409 297.294 382.765 296.018 381.086C295.696 380.683 296.548 380.267 297.352 380.136C297.791 380.067 298.12 380.165 298.524 380.175C302.375 376.6 307.734 374.771 312.114 371.698C312.869 371.178 314.046 370.408 313.469 370.028C313.117 369.803 312.505 370.079 311.644 370.617C298.829 378.579 285.151 385.101 270.923 390.066C270.926 390.075 270.929 390.084 270.932 390.093C270.471 390.255 270.071 390.59 269.202 391.08C271.982 391.113 275.333 390.449 277.249 389.25C281.488 386.613 286.352 385.881 290.381 383.353C291.249 382.809 292.947 381.549 293.542 382.443C293.937 383.025 293.263 383.589 292.624 383.972ZM291.907 384.354C292.079 384.268 292.348 384.137 292.624 383.972C292.287 384.097 292.027 384.219 291.907 384.354Z" fill="#C6EDD1"/>
</svg>
