<svg preserveAspectRatio="none" width="100%" height="100%" overflow="visible" style="display: block;" viewBox="0 0 28 28" fill="none" xmlns="http://www.w3.org/2000/svg">
<g id="Frame">
<path id="Vector" d="M14.9689 2.54245C14.6649 2.40379 14.3346 2.33203 14.0005 2.33203C13.6664 2.33203 13.3362 2.40379 13.0322 2.54245L3.03386 7.09245C2.82684 7.18373 2.65082 7.33325 2.52725 7.52278C2.40368 7.71231 2.33789 7.93369 2.33789 8.15995C2.33789 8.38621 2.40368 8.60758 2.52725 8.79712C2.65082 8.98665 2.82684 9.13616 3.03386 9.22745L13.0439 13.7891C13.3479 13.9278 13.6781 13.9995 14.0122 13.9995C14.3463 13.9995 14.6765 13.9278 14.9805 13.7891L24.9905 9.23912C25.1976 9.14783 25.3736 8.99832 25.4971 8.80878C25.6207 8.61925 25.6865 8.39787 25.6865 8.17162C25.6865 7.94536 25.6207 7.72398 25.4971 7.53445C25.3736 7.34491 25.1976 7.1954 24.9905 7.10412L14.9689 2.54245Z" stroke="var(--stroke-0, black)" stroke-width="2" stroke-linecap="round"/>
<path id="Vector_2" d="M2.33203 14C2.33148 14.2232 2.39494 14.4419 2.51489 14.6301C2.63483 14.8183 2.80623 14.9682 3.00875 15.0619L13.0429 19.6246C13.3453 19.7616 13.6735 19.8324 14.0054 19.8324C14.3374 19.8324 14.6656 19.7616 14.968 19.6246L24.9788 15.0736C25.1853 14.9807 25.3604 14.8298 25.4826 14.6392C25.6049 14.4485 25.669 14.2265 25.6672 14" stroke="var(--stroke-0, black)" stroke-width="2" stroke-linecap="round"/>
<path id="Vector_3" d="M2.33203 19.832C2.33148 20.0552 2.39494 20.2739 2.51489 20.4621C2.63483 20.6503 2.80623 20.8002 3.00875 20.8939L13.0429 25.4566C13.3453 25.5936 13.6735 25.6644 14.0054 25.6644C14.3374 25.6644 14.6656 25.5936 14.968 25.4566L24.9788 20.9056C25.1853 20.8128 25.3604 20.6618 25.4826 20.4712C25.6049 20.2806 25.669 20.0585 25.6672 19.832" stroke="var(--stroke-0, black)" stroke-width="2" stroke-linecap="round"/>
</g>
</svg>
