<svg preserveAspectRatio="none" width="100%" height="100%" overflow="visible" style="display: block;" viewBox="0 0 200 181.821" fill="none" xmlns="http://www.w3.org/2000/svg">
<g id="Group">
<path id="Vector" d="M55.0916 89.275C55.0916 80.9106 57.1521 73.7589 61.2732 67.8197C65.3944 61.8805 71.0308 57.3964 78.1826 54.3658C84.7272 51.5777 92.7888 49.5789 102.366 48.3647C105.637 48.0018 110.971 47.5167 118.365 46.9096V43.8188C118.365 36.0616 117.517 30.8499 115.82 28.1822C113.274 24.5445 109.275 22.7281 103.819 22.7281H102.366C98.365 23.091 94.9096 24.3638 92.001 26.5449C89.0925 28.7275 87.2126 31.7565 86.3646 35.6367C85.8796 38.0603 84.6686 39.4535 82.7285 39.8181L61.8185 37.2725C59.7579 36.7875 58.7277 35.697 58.7277 33.9994C58.7277 33.6364 58.7879 33.2116 58.9083 32.7282C60.9689 21.9403 66.0291 13.9406 74.0907 8.7273C82.1507 3.51729 91.5762 0.607102 102.366 0H106.912C120.727 0 131.516 3.57588 139.277 10.7276C140.491 11.9451 141.617 13.2505 142.639 14.6356C143.666 16.0288 144.487 17.2723 145.091 18.3628C145.698 19.4533 146.245 21.0305 146.728 23.0894C147.215 25.1516 147.576 26.5758 147.822 27.3619C148.063 28.1497 148.245 29.8473 148.365 32.4547C148.486 35.0606 148.546 36.6052 148.546 37.0902V81.0913C148.546 84.2424 149 87.1216 149.91 89.7274C150.82 92.3349 151.7 94.2132 152.545 95.3639C153.393 96.5146 154.79 98.3652 156.728 100.908C157.456 102.001 157.819 102.971 157.819 103.819C157.819 104.789 157.335 105.634 156.362 106.363C146.303 115.092 140.849 119.821 139.999 120.548C138.546 121.639 136.788 121.759 134.726 120.911C133.032 119.454 131.547 118.063 130.273 116.728C129.002 115.397 128.092 114.427 127.545 113.819C127.001 113.216 126.121 112.032 124.91 110.275C123.699 108.517 122.846 107.333 122.364 106.73C115.577 114.124 108.91 118.73 102.366 120.548C98.243 121.759 93.1518 122.366 87.0921 122.366C77.7578 122.366 70.0917 119.485 64.0923 113.728C58.0912 107.97 55.0916 99.8187 55.0916 89.275ZM86.3646 85.6372C86.3646 90.3655 87.5479 94.1529 89.9095 97.0013C92.2745 99.8496 95.4548 101.274 99.4555 101.274C99.8201 101.274 100.334 101.214 101.002 101.093C101.666 100.969 102.122 100.909 102.366 100.909C107.455 99.5778 111.394 96.3063 114.182 91.093C115.517 88.7899 116.516 86.2753 117.184 83.5474C117.851 80.8211 118.214 78.6075 118.274 76.9099C118.334 75.214 118.367 72.4258 118.367 68.5472V64.0013C111.336 64.0013 106.003 64.4863 102.367 65.4564C91.6967 68.4854 86.3646 75.2123 86.3646 85.6372Z" fill="var(--fill-0, white)"/>
<path id="Vector_2" d="M162.728 144.184C162.972 143.697 163.335 143.214 163.821 142.727C166.85 140.667 169.759 139.275 172.547 138.548C177.153 137.337 181.639 136.669 186.001 136.547C187.215 136.424 188.366 136.487 189.456 136.728C194.912 137.211 198.182 138.123 199.276 139.456C199.759 140.183 200 141.274 200 142.727V144.002C200 148.242 198.849 153.243 196.548 159C194.243 164.757 191.032 169.396 186.909 172.912C186.305 173.395 185.758 173.636 185.275 173.636C185.031 173.636 184.788 173.576 184.547 173.455C183.82 173.092 183.638 172.425 184.001 171.455C188.486 160.909 190.727 153.577 190.727 149.453C190.727 148.121 190.487 147.151 190.003 146.544C188.789 145.091 185.397 144.363 179.821 144.363C177.757 144.363 175.335 144.484 172.547 144.726C169.518 145.092 166.73 145.454 164.183 145.82C163.455 145.82 162.972 145.696 162.726 145.454C162.485 145.213 162.423 144.97 162.545 144.726C162.545 144.607 162.605 144.425 162.728 144.184ZM0.362959 141.095C0.97006 140.125 1.93849 140.065 3.27314 140.911C33.5761 158.488 66.5468 167.277 102.182 167.277C125.942 167.277 149.396 162.851 172.547 154.002C173.151 153.761 174.031 153.398 175.182 152.911C176.336 152.428 177.153 152.063 177.637 151.821C179.455 151.093 180.879 151.458 181.909 152.911C182.943 154.368 182.609 155.699 180.911 156.91C178.727 158.488 175.939 160.306 172.547 162.366C162.124 168.55 150.485 173.336 137.636 176.732C124.789 180.127 112.242 181.821 100.001 181.821C81.0912 181.821 63.2118 178.519 46.3643 171.912C29.5152 165.306 14.4239 156.001 1.0905 144.003C0.362959 143.396 0 142.789 0 142.184C0 141.819 0.120444 141.456 0.362959 141.095Z" fill="var(--fill-0, #FF9900)"/>
</g>
</svg>
