<svg preserveAspectRatio="none" width="100%" height="100%" overflow="visible" style="display: block;" viewBox="0 0 26.41 26.8441" fill="none" xmlns="http://www.w3.org/2000/svg">
<g id="Ellipse 27">
<path d="M5.43265 4.47142C6.66704 5.70581 12.8291 12.1928 22.5655 3.88587C23.2206 3.22452 23.8466 2.66386 24.3637 2.21919C23.7515 2.83136 23.152 3.38546 22.5655 3.88587C19.0743 7.41036 14.7558 13.7946 21.6854 20.7241C19.1891 18.266 10.2897 17.558 3.44767 23.2489C2.97518 23.7407 2.52964 24.1424 2.14554 24.4373C2.56941 24.0135 3.00422 23.6177 3.44767 23.2489C6.84395 19.7137 11.6328 11.5238 5.00655 4.89753L5.43265 4.47142Z" fill="var(--fill-0, #0061FE)"/>
<path d="M8.44626 3.8713C10.3859 5.32883 10.6661 7.30665 11.0803 9.45505C12.1587 14.4769 9.8424 20.3304 7.10106 23.6991C6.21674 24.8071 5.30877 25.8249 3.99331 26.8441L0 22.2918C1.40536 20.9109 2.99877 19.7239 4.69741 18.78C4.84603 18.6973 4.96894 18.7063 5.03749 18.6696C5.67532 18.3196 6.76114 17.741 7.43825 17.4888C8.85283 16.9046 11.4248 16.2476 12.8338 16.1732C13.4227 16.1255 14.0332 16.0951 14.2753 16.243C14.4919 16.2396 14.6036 16.0916 14.6601 16.0817C14.6608 16.0818 14.6614 16.0819 14.6621 16.082C14.8414 16.0498 15.3136 16.1454 15.4125 16.1408C15.4278 16.1401 15.3343 16.0343 15.5814 16.0682C15.6038 16.0713 15.5828 16.1413 15.7939 16.1468C15.8483 16.1453 16.5564 16.0659 16.7632 16.0788C17.4433 16.0906 19.056 16.4229 19.8998 16.6898C20.0291 16.7274 20.1154 16.7101 20.2506 16.7524C20.3205 16.7742 20.4098 16.8516 20.4332 16.8594C20.5309 16.8882 21.0208 16.8526 20.7283 17.1753C21.1623 17.3159 21.0956 17.1504 21.1358 17.0714C21.624 17.2617 21.776 17.5624 21.9958 17.449C22.55 17.7529 23.1178 18.1225 23.6898 18.6887L19.6654 22.7441C18.5092 21.5598 17.423 20.1896 16.601 18.5759C16.5715 18.5905 16.542 18.6051 16.5125 18.6197C16.32 17.9571 16.017 17.7995 16.0441 17.3609C15.9159 17.1533 15.7852 16.9185 15.6667 16.6934C13.5378 9.915 17.943 3.97586 21.7473 0.593653C21.9227 0.436077 22.0005 0.459413 22.2863 0.210219C22.3501 0.154799 22.4154 0.0937722 22.4812 0.0301254L26.4052 4.26074C26.1476 4.54815 25.8542 4.90418 25.5429 5.19297C25.1997 5.51378 24.6073 5.95191 24.1986 6.27765C24.1008 6.35648 24.0594 6.44788 24.0484 6.45666C23.9834 6.50773 23.9357 6.45594 23.8728 6.50457C23.7977 6.56276 23.7413 6.675 23.6541 6.74011C23.3326 6.9817 22.9856 7.26266 22.9393 7.29501C22.7301 7.44115 22.6451 7.41647 22.6278 7.42822C22.3963 7.58384 22.5172 7.57307 22.4586 7.61034C22.1587 7.7975 21.8527 7.82082 21.5113 8.21527C21.492 8.15947 21.4726 8.10372 21.4531 8.048C21.1154 8.22342 21.4082 8.21876 21.3572 8.28361C21.3441 8.30855 20.6103 8.72515 20.5503 8.75085C20.3491 8.85268 20.3075 8.78727 20.2901 8.79591C20.2529 8.81525 19.7869 9.16253 19.4885 9.23095C19.1422 9.31039 19.4414 8.99375 19.3511 9.00486C19.3359 9.00768 19.0204 9.1746 18.9574 9.14885C18.8882 9.12344 19.1653 8.99622 19.1517 8.9777C19.1423 8.96746 18.6373 9.07902 18.6947 8.97273C18.7419 8.8757 19.3913 8.67141 19.5104 8.56831C19.5295 8.55223 19.4479 8.49297 19.4656 8.48028C19.5528 8.4404 20.9037 7.66701 20.9522 7.63706C20.9067 7.71375 20.8609 7.79008 20.8149 7.86607C20.9066 7.81501 20.9985 7.76288 21.0907 7.70966C20.9795 7.81847 20.872 7.9232 20.7565 8.03085C21.126 8.20572 21.5248 7.54396 21.4534 7.38683C21.4194 7.31665 20.9647 7.37483 21.222 7.06711C21.1623 7.08266 21.1027 7.09779 21.0434 7.11252C20.9612 7.20489 20.8789 7.2962 20.7964 7.38646C20.8739 7.36239 20.9517 7.3376 21.0298 7.31209C21.0178 7.34757 21.0057 7.38302 20.9935 7.41844C20.8229 7.5711 20.6652 7.71204 20.4783 7.86597C20.367 7.91141 20.3536 7.83919 20.2768 7.86829C19.3225 8.21052 20.0102 8.07579 19.4022 8.36089C19.3 8.37133 19.1985 8.38054 19.0978 8.38854C19.1936 8.51193 18.8942 8.55382 18.5974 8.75808C18.6172 8.69497 18.6371 8.6316 18.6533 8.56975C18.1864 8.82242 17.1254 8.93935 17.4809 9.10056C17.3588 9.11955 17.2376 9.13663 17.1174 9.15183C17.0362 9.22589 16.9545 9.29904 16.8721 9.37127C16.7407 9.40646 16.5944 9.4439 16.4569 9.47638C16.4498 9.45319 16.4427 9.43 16.4357 9.4068C16.5449 9.37663 16.6545 9.34488 16.7646 9.31153C16.6606 9.26577 16.5582 9.21871 16.4573 9.17039C16.3812 9.20457 16.3051 9.23796 16.229 9.27056C16.5806 9.24865 16.1702 9.47788 16.0847 9.59737C15.8143 9.70048 15.5858 9.61706 15.4906 9.63017C15.4449 9.63946 14.9418 9.95153 15.113 9.67373C14.8422 9.74922 14.5518 9.8176 14.2742 9.87394C14.1636 9.86563 14.047 9.85633 13.9324 9.84515C14.1667 9.71535 13.4589 9.62255 13.9692 9.5425C14.3462 9.47771 14.4422 9.57051 14.6236 9.54789C14.7843 9.52648 14.8659 9.44198 15.0336 9.41162C16.1917 9.19513 17.0941 8.92367 18.1076 8.54006C18.307 8.46375 18.483 8.34638 18.6068 8.29481C18.7529 8.23342 18.6104 8.39936 18.7851 8.2934C18.9689 8.18063 18.9784 8.09276 19.0288 8.06647C19.0601 8.0501 19.1908 8.05905 19.2845 8.0109C19.6674 7.8175 20.1593 7.45896 20.215 7.42497C20.2888 7.39197 21.2961 6.82282 21.3565 6.78574C21.3838 6.77409 21.4752 7.00901 21.5348 6.65108C21.5969 6.60217 21.6591 6.55272 21.7214 6.50271C21.7391 6.55008 21.7567 6.59748 21.7743 6.64491C22.0544 6.21708 21.9803 6.3994 22.3476 6.10715C23.193 5.43577 24.4433 4.39814 25.2578 3.56321C25.3492 3.47072 25.4037 3.39559 25.4612 3.31668L23.3517 1.0424C23.2907 1.11612 23.2254 1.19425 23.1042 1.30321C22.8924 1.4901 22.2137 1.87456 22.4996 1.94147C21.8838 2.22711 22.0595 2.5656 21.6725 2.62954C21.6675 2.68062 21.6625 2.73178 21.6576 2.78303C21.3094 2.93345 21.3202 3.09907 21.0686 3.39022C20.9612 3.5162 20.9817 3.27333 20.8756 3.63413C20.823 3.67318 20.7693 3.71383 20.7175 3.75276C20.7005 3.71751 20.6834 3.68243 20.6669 3.6467C20.4398 3.94327 20.4103 3.95199 20.5402 4.00854C20.4021 4.12837 20.2646 4.25075 20.1299 4.37328C20.1496 4.41911 20.1693 4.46489 20.1891 4.5106C20.2572 4.44138 22.9564 1.51909 23.4379 1.14269L25.3677 3.22315C25.3633 3.2281 25.3592 3.23279 25.3554 3.23721C24.8116 3.6476 23.9347 4.6271 23.5086 4.95096C23.3435 5.07884 23.207 5.06324 22.9537 5.25541C22.7019 5.44642 22.4531 5.75613 22.326 5.85668C21.9022 6.24051 19.6582 7.65715 21.1094 6.56557C21.0381 6.55441 20.9672 6.54278 20.8966 6.53068C20.3846 7.06222 20.5579 6.83007 20.0368 7.12442C19.8136 7.251 19.3482 7.62882 19.2731 7.41472C19.647 7.16986 20.1312 6.96766 20.453 6.76082C20.4862 6.74075 20.8282 6.40089 21.05 6.28152C21.2405 6.18097 21.2405 6.44231 21.4873 5.97537C21.9097 5.95917 21.9537 5.6599 22.0153 5.58529C22.1172 5.45886 22.1993 5.5407 22.3325 5.45416C22.4775 5.35986 22.524 5.22478 22.5422 5.20965C22.74 5.05925 23.665 4.25379 23.7382 4.24261C23.7142 4.29137 23.6902 4.33999 23.6661 4.38848C23.931 4.19717 23.8019 4.15365 23.8563 4.08597C23.9042 4.04326 23.9521 4.00022 24.0001 3.95685C23.9977 3.99214 23.9952 4.02743 23.9926 4.0627C24.2733 3.79775 23.999 3.93795 24.388 3.57584C24.6338 3.34569 24.955 3.15945 24.9744 3.1304C24.9801 3.12199 24.8581 3.15444 24.9531 3.0486C24.9868 3.01113 25.0265 2.96846 25.0691 2.9246L23.7132 1.46281C23.5596 1.59886 23.3464 1.76587 23.2815 1.73383C23.2068 1.81598 23.269 1.87267 23.2592 1.88382C23.2089 1.93339 22.4055 2.71187 22.2638 2.86465C21.8698 3.26651 21.4241 3.70015 21.025 4.16817C20.9845 4.21573 20.971 4.15025 20.9305 4.19841C20.8642 4.2748 20.5876 4.72604 20.5446 4.78948C20.4297 4.94726 20.0864 5.32607 20.0571 5.40652C20.0529 5.41756 20.213 5.32867 20.1107 5.49818C19.9977 5.68722 19.9916 5.53484 19.9836 5.54359C19.6895 5.87763 19.5812 6.15137 19.4226 6.40939C19.3711 6.49309 19.2085 6.60653 19.1517 6.7363C19.1451 6.75116 19.2194 6.76077 19.2137 6.77583C19.1311 6.97137 18.9215 7.07533 18.8672 7.15099C18.7353 7.33557 18.8782 7.27624 18.8725 7.28685C18.8 7.4168 18.6712 7.57525 18.5674 7.77944C18.1112 8.68986 17.7872 9.46803 17.5001 10.5329C17.4649 10.6661 17.3644 10.8124 17.3598 10.8335C17.3462 10.8982 17.4242 10.896 17.3844 11.0818C17.3024 11.4726 17.2534 11.8453 17.2196 12.2403C17.2129 12.3201 17.1395 12.3494 17.134 12.4112C17.1088 12.6242 17.2969 13.3171 17.0707 13.3387C17.2912 13.7366 17.1427 14.0228 17.1898 14.3504C17.2895 15.1364 17.6801 16.3023 17.9775 17.0066C18.0382 17.1581 18.0176 17.2536 18.0544 17.3388C18.1055 17.4837 18.5861 18.2943 18.6039 18.3261C18.6374 18.4142 18.3786 18.5056 18.8369 18.7973C19.0102 19.0311 18.902 19.0593 18.9299 19.1113C19.1485 19.5094 19.6214 19.7237 19.3945 19.7902C19.7647 20.1719 20.0786 20.3455 20.0708 20.6489C20.1478 20.5843 20.3484 20.7226 20.522 20.9641C20.1933 20.8538 20.1386 20.9705 19.6686 20.3685C19.6614 20.3591 19.7316 20.33 19.7244 20.3206C19.6597 20.2355 19.4915 20.0873 19.3853 19.9445C19.2743 19.7951 19.3768 19.8462 19.3306 19.7876C19.2884 19.7339 19.2342 19.7777 19.1741 19.6992C18.9794 19.4436 18.8098 19.2311 18.7072 19.0797C18.6412 18.9825 18.6218 18.8403 18.5742 18.7651C18.3892 18.4832 17.9798 17.8589 17.804 17.4615C17.7651 17.3752 17.8426 17.3818 17.7634 17.1936C17.7545 17.1717 17.6527 17.1214 17.5701 16.9631C17.4873 16.8036 17.473 16.6684 17.4241 16.5592C17.3846 16.4699 17.338 16.5301 17.2677 16.3426C17.1698 16.205 16.7852 14.3434 16.8267 14.239C16.8231 14.0906 16.9048 14.0102 16.8855 13.9225C16.8817 13.9071 16.7935 13.8882 16.7828 13.8337C16.5545 12.9291 16.8885 10.9124 17.2257 9.96527C17.8481 7.94035 18.8276 6.27817 20.0902 4.6858C20.1016 4.64809 20.1132 4.61044 20.1248 4.57284C19.9923 4.73261 19.864 4.89176 19.7366 5.0548C19.7038 5.031 19.671 5.00722 19.6382 4.98343C19.4607 5.20285 19.5605 5.23213 19.6112 5.26041C19.5286 5.32874 19.4479 5.39597 19.3665 5.4655C19.4254 5.61956 18.9492 6.12887 18.7564 6.43756C18.6299 6.63418 18.5311 6.90198 18.4649 7.00717C18.3257 7.22875 18.2545 7.18128 18.2428 7.1984C18.2233 7.22776 18.1109 7.58805 17.9894 7.82395C17.8111 8.17433 17.6662 8.15775 17.5544 8.70488C17.2181 9.3233 17.0001 10.0904 16.8524 10.848C16.7603 10.6775 16.7341 11.3834 16.6987 11.6963C16.3907 13.6023 16.8064 16.0641 17.6656 17.79C17.7694 18.0109 17.7958 18.2111 17.8664 18.3326C17.9042 18.3975 17.9974 18.3881 18.037 18.4792C18.0443 18.4956 17.9797 18.5464 18.067 18.7156C18.2802 19.1546 19.0749 20.0284 19.144 20.3449C19.5848 20.8805 20.0463 21.3754 20.5473 21.8622L22.8147 19.5774C21.9263 18.7452 20.9914 18.3504 20.0796 18.0406C20.0497 17.9956 20.0168 17.95 19.9884 17.9061C19.6339 17.9487 18.4593 17.5527 17.8711 17.4869C16.8347 17.3351 15.5311 17.3409 14.6456 17.3866C14.4541 17.3951 14.2931 17.356 14.1086 17.3691C14.0311 17.3747 13.939 17.4431 13.8582 17.4499C12.9469 17.5208 11.7144 17.6522 10.8187 17.872C8.78799 18.3617 6.93615 19.0929 5.11284 20.1692C3.62376 21.0528 2.26468 22.122 1.05381 23.3456L3.08576 25.662C7.23376 22.0108 10.1361 17.0853 9.76315 11.2956C9.75354 11.196 9.82439 11.1934 9.81614 11.1155C9.77807 10.6519 9.51816 9.64378 9.36084 9.14962C9.24749 8.7438 9.11229 8.09479 8.95062 8.00049C9.37367 9.42116 9.69134 10.9466 9.64417 12.4513C9.64098 12.5581 9.57313 12.5706 9.57186 12.5836C9.54444 12.8239 9.6425 12.6737 9.63351 13.0238C9.6414 13.1479 9.32045 14.1866 9.54118 14.086C9.45235 14.341 9.03572 16.0736 8.93602 16.398C8.91389 16.4998 8.99603 16.4482 8.99305 16.4688C8.97987 16.559 8.88423 16.5713 8.8577 16.6465C8.79005 16.8472 8.67403 17.3803 8.63503 17.4754C8.55352 17.6974 8.21589 18.3201 8.09788 18.6052C7.99144 18.8683 8.09635 18.8599 7.996 19.0837C7.91531 19.2585 7.94256 19.0384 7.72462 19.4107C7.62014 19.5947 7.30258 20.2727 7.20818 20.424C7.1151 20.5799 6.96303 20.7241 6.83425 20.9339C6.6498 21.2408 6.23155 21.9017 6.02871 22.1987C6.01653 22.2168 6.04121 22.3027 6.00735 22.3453C5.93729 22.4334 5.88763 22.3535 5.82963 22.415C5.784 22.48 4.86589 23.6149 4.68627 23.7884C4.56906 23.9161 4.52703 24.0367 4.46255 24.1039C4.4119 24.1563 4.35127 24.114 4.29718 24.1687C4.28057 24.186 4.18332 24.3773 4.04215 24.5133C3.90249 24.6558 3.31461 25.1053 3.24784 25.1536C3.20214 25.1914 3.28507 25.1909 3.14991 25.3002C3.05884 25.3731 2.96948 25.3955 2.902 25.4226L1.26719 23.559C1.28893 23.5469 1.30809 23.5345 1.32351 23.5195C1.46142 23.3855 1.5755 23.1954 1.72313 23.0568C2.14781 22.6623 2.18914 22.746 2.21523 22.7246C2.29292 22.6661 2.27192 22.5831 2.29498 22.5609C2.39248 22.4667 2.63248 22.2457 2.72536 22.1665C2.83975 22.0682 2.93488 22.0849 3.05923 21.9867C3.1524 21.9129 3.2939 21.7123 3.51141 21.547C3.997 21.1752 4.59259 20.7613 5.10926 20.4552C5.26356 20.3636 5.3209 20.4076 5.36869 20.3815C5.61975 20.2457 5.72333 20.1047 5.79672 20.0652C6.31235 19.7823 7.29857 19.4398 7.80266 19.2471C8.00109 19.1633 8.88307 18.7652 9.40581 18.6152C9.46501 18.5973 9.4257 18.6644 9.48864 18.636C9.63887 18.5683 9.59408 18.4716 9.67595 18.45C9.71567 18.4399 9.82192 18.4702 9.93686 18.4431C10.5288 18.3044 10.9323 18.1648 11.2037 18.1078C13.8321 17.5641 16.6161 17.5162 19.1352 18.1681C19.412 18.2414 19.7802 18.2803 20.1879 18.4968C20.1893 18.5324 20.1906 18.5681 20.1917 18.6037C20.2176 18.5789 20.2436 18.5541 20.2697 18.5295C20.7542 18.7028 20.957 18.7458 21.4171 19.0499C21.4592 19.0778 21.5049 19.2801 21.6806 19.1711C22.0768 19.6014 21.8952 19.3063 22.2489 19.566C22.3585 19.6515 22.4598 19.7443 22.5538 19.8422L20.8102 21.5994C20.6373 21.4142 20.4835 21.2225 20.3251 21.042C20.2439 20.8591 20.9023 21.3314 20.9439 21.368C20.9598 21.3843 20.9713 21.4054 20.9807 21.4288L22.3846 20.0141C22.351 19.9428 22.3299 19.8537 22.2781 19.8028C22.0613 19.5898 21.807 19.5041 21.7997 19.398C21.452 19.2696 21.8481 19.4828 21.7651 19.5235C21.5863 19.3582 21.4115 19.2133 21.2232 19.073C21.0071 19.2317 20.032 18.4412 20.0338 18.6762C19.9592 18.6055 19.8794 18.5347 19.8026 18.4662C19.3343 18.5847 19.1626 18.3459 18.6423 18.1507C18.6735 18.1911 18.7021 18.231 18.7345 18.272C18.72 18.2807 18.2486 18.2367 18.4416 18.1338C17.9224 18.221 18.0039 17.9262 17.5345 18.0817C17.2774 18.0775 17.4501 17.9658 16.9881 17.9192C16.7161 17.8933 16.3735 17.9362 16.0733 17.9286C16.0043 17.9266 15.9769 17.8511 15.9148 17.849C15.8526 17.8471 15.8203 17.9191 15.745 17.9192C15.588 17.9193 15.3902 17.867 15.2935 17.8724C15.2069 17.877 15.0841 17.9417 14.8742 17.9573C14.1555 18.0183 14.3661 17.9235 14.2497 17.8971C14.1215 17.872 14.045 17.9977 13.7997 18.004C13.775 18.0046 13.8322 17.9239 13.7525 17.9338C13.688 17.9419 13.6632 18.0256 13.4507 18.0626C13.3681 18.0664 12.0665 18.2679 11.8714 18.3184C11.5724 18.3739 10.8885 18.4545 10.5793 18.5378C10.4589 18.5689 10.351 18.6659 10.2262 18.7002C9.81061 18.8123 9.14998 19.0152 8.63883 19.2037C8.17584 19.3666 7.31884 19.5786 7.13304 19.8149C6.51503 20.1261 6.32002 20.1126 6.27171 20.1339C6.1445 20.1962 6.12168 20.2924 5.9667 20.3812C4.4907 21.2157 2.78726 22.4479 1.4732 23.765L2.72458 25.1915C3.28336 24.7639 3.74817 24.3159 4.15005 23.8961C7.5124 20.2444 10.1358 15.1734 8.94353 9.85871C8.90816 9.85264 8.87275 9.84649 8.83744 9.84088C8.96937 10.4522 9.01935 11.1753 9.0412 11.7799C9.08838 12.5803 9.13348 13.797 8.80918 14.3385C8.82777 14.1041 8.95725 13.7302 8.84058 13.725C8.78753 14.1427 8.7133 14.5551 8.6201 14.9632C8.67497 14.9619 8.72986 14.9604 8.78477 14.9587C8.71154 15.3944 8.58794 15.8293 8.46694 16.2531C8.44573 16.3268 8.50807 16.2891 8.48854 16.3531C8.46641 16.4247 8.43439 16.3614 8.42984 16.3747C8.37274 16.5544 8.40146 16.6236 8.39366 16.6454C8.37298 16.7007 8.34293 16.6426 8.27538 16.7985C8.14901 17.0878 8.18493 17.3419 8.01464 17.1985C7.97899 17.2928 7.94253 17.3865 7.90529 17.4798C7.94889 17.5251 7.99219 17.5711 8.0354 17.617C7.5864 18.1032 7.82918 18.53 7.38934 18.7C7.38419 18.8223 7.37742 18.9455 7.36913 19.0694C7.28885 19.1004 7.20861 19.1305 7.1284 19.1599C7.16619 19.1937 7.20392 19.2276 7.2416 19.2616C6.92626 19.7823 6.64459 20.3723 6.32213 20.8552C6.09372 21.1952 6.02673 21.2574 5.81979 21.5567C5.35878 22.2043 5.74997 21.5086 5.2681 21.9771C5.33685 21.9864 5.40578 21.9953 5.47487 22.0038C5.42585 22.1055 5.37648 22.2062 5.32684 22.3058C5.24121 22.3356 5.15686 22.3632 5.06943 22.3939C5.05292 22.8234 4.75619 22.8531 4.72399 22.8914C4.69996 22.9194 4.73162 23.1243 4.36884 23.3344C4.63964 23.348 4.15869 23.5681 4.13348 23.5908C4.11314 23.6133 3.81786 23.9892 3.68565 24.1135C3.57262 24.2233 3.32207 24.3996 3.14706 24.5572C2.99893 24.6906 3.06134 24.7292 3.05079 24.7396C2.87168 24.8995 2.94896 24.762 2.80788 24.875C2.72411 24.9412 2.66639 25.012 2.62599 25.0631L1.58767 23.8794C1.61134 23.8399 1.6278 23.8109 1.64039 23.8016C1.65582 23.7904 1.65782 23.8818 1.72356 23.8258C1.90018 23.6748 2.15926 23.3494 2.3572 23.1746C2.42751 23.1119 2.55316 23.0756 2.6324 23.0088C2.75379 22.9063 2.76169 22.8016 2.83358 22.7436C2.85891 22.7236 3.08838 22.6805 3.27686 22.5066C3.31166 22.4741 3.27399 22.1908 3.63509 22.3498C3.61675 22.3024 3.59849 22.2549 3.58033 22.2074C4.19562 21.5897 4.61751 21.7955 4.7411 21.2902C5.28574 20.9862 4.99948 21.3333 5.06845 21.3136C5.11239 21.3011 5.26141 21.1636 5.28234 21.1535C5.31819 21.1363 5.33541 21.1773 5.37208 21.1546C6.04439 20.7429 5.7029 20.853 5.89301 20.6821C6.35806 20.2814 6.89768 20.3099 5.94802 20.7307C5.96003 20.752 5.97205 20.7734 5.98406 20.7948C6.19411 20.6462 6.77035 20.3608 6.63696 20.5701C6.5257 20.7222 5.18838 21.4229 5.99585 21.114C6.17709 21.0469 6.22345 20.9139 6.59939 20.9092C6.79866 20.8152 6.72226 20.6021 7.03397 20.5474C6.95499 20.4994 6.87549 20.4519 6.79547 20.4048C7.12466 20.1244 7.64526 20.0372 7.92228 19.8732C8.01424 19.8167 8.23747 19.3255 8.29173 19.7046C8.45398 19.6092 9.2798 19.3816 9.42313 19.3043C9.45781 19.2858 9.43929 19.0767 9.99744 18.9815C10.0418 18.9943 10.0859 19.0072 10.1299 19.0204C9.66257 19.2314 10.5426 19.0532 10.3597 19.3014C10.2594 19.2407 9.85995 19.3053 9.78615 19.2849C9.65971 19.2481 9.9442 19.0595 9.55336 19.2101C9.40012 19.5879 10.0696 19.2253 10.0474 19.5458C10.5281 19.2585 10.6141 19.3792 10.7347 19.352C11.2461 19.2436 11.5607 19.1421 12.048 19.0851C12.1573 18.9986 11.258 19.0901 11.1599 19.1462C11.5091 18.8431 10.8181 18.9899 10.5608 19.1958C10.5199 19.1388 10.4787 19.082 10.4373 19.0253C10.8266 18.9565 11.1951 18.8868 11.5676 18.754C11.5974 18.7729 11.6271 18.7918 11.6567 18.8108C11.5791 18.8643 11.5018 18.9184 11.4249 18.973C11.7507 18.9656 11.526 18.8153 11.9744 18.8987C11.9736 18.8237 11.9729 18.7487 11.9723 18.6737C12.385 18.6218 12.7921 18.5843 13.2052 18.5595C13.396 18.3824 14.2021 18.3713 14.0679 18.5757C14.3839 18.5676 13.9851 18.4919 14.2824 18.426C14.4128 18.3973 14.668 18.3804 14.732 18.4302C14.7116 18.6126 14.3357 18.6525 14.2289 18.7862C14.3007 18.8002 16.0414 18.6556 15.881 18.8821C16.0179 18.9129 15.9579 18.7994 16.2084 18.7836C16.9216 18.734 17.9651 19.099 18.5743 18.9685C17.9494 18.6768 17.7139 18.8087 17.2079 18.7501C16.8802 18.6796 14.8864 18.6578 15.3318 18.4796C15.2582 18.5042 15.1846 18.5292 15.1109 18.5548C15.0354 18.4983 14.9587 18.4424 14.8811 18.387C15.0954 18.373 15.3076 18.363 15.5175 18.3569C15.5669 18.4147 15.6182 18.4727 15.6675 18.531C15.6917 18.4905 15.716 18.4501 15.7404 18.4097C15.8303 18.4037 15.9199 18.3984 16.009 18.3938C15.9821 18.4419 15.9554 18.4902 15.9289 18.5384C16.065 18.5516 16.1977 18.5663 16.3362 18.5831C16.3032 18.5152 16.2696 18.4475 16.2355 18.3799C16.8916 18.4048 16.66 18.4326 17.0111 18.5887C17.2764 18.631 16.8404 18.452 17.4075 18.4884C18.0783 18.5501 17.6067 18.6678 18.461 18.7914C18.4798 18.7619 18.4988 18.7325 18.5178 18.7031C18.6944 18.7751 18.8777 18.8533 19.0481 18.9334C19.0349 18.8876 19.0214 18.8418 19.0075 18.796C19.3848 18.9071 19.9354 19.016 19.9991 19.2149C19.6492 19.0026 19.5583 19.2736 19.6407 19.3545C19.7376 19.463 20.9846 19.8421 21.7931 20.6148L21.5769 20.8327C21.1143 20.3887 20.7587 20.0034 20.6062 19.8281C20.1106 19.2558 19.8454 18.7482 19.3527 18.2294C19.494 18.7173 20.5871 19.9631 20.7625 20.2427C20.7771 20.2701 20.5812 20.4364 20.9277 20.3884C21.0746 20.5749 21.2534 20.7626 21.4548 20.9547L21.9142 20.4918C21.5523 20.1518 21.1031 19.8945 20.6412 19.6569C20.6971 19.6025 20.7535 19.5485 20.8105 19.495C21.1967 19.8628 21.7938 19.8934 21.5671 20.0807C21.6497 20.143 21.7355 20.2122 21.8172 20.284C21.8497 20.247 21.8823 20.21 21.9149 20.1729C21.9713 20.2225 22.0259 20.2732 22.0784 20.325L21.2893 21.1203C21.2281 21.0591 21.1678 20.998 21.1083 20.9368C21.1436 20.9024 21.1789 20.868 21.2143 20.8336C21.1264 20.7434 21.0404 20.6532 20.9561 20.5631C20.9114 20.5873 20.8667 20.6114 20.8218 20.6354C20.6466 20.3184 19.6143 19.4842 20.1993 19.7362C20.0885 19.6005 19.9866 19.4717 19.8752 19.3254C19.8468 19.3477 19.8185 19.37 19.7901 19.3923C19.7393 19.3336 19.6893 19.2748 19.6399 19.216C19.6812 19.2169 19.7224 19.2178 19.7636 19.2185C19.5051 18.9694 19.4715 18.6141 19.2481 18.4765C19.3106 18.6185 19.376 18.76 19.4395 18.8942C19.3156 18.6405 18.9413 18.2249 18.9205 18.1865C18.845 18.0612 18.8724 17.9636 18.7952 17.8188C18.7274 17.6902 18.6884 17.7345 18.6771 17.7098C18.3672 16.9931 18.787 17.1367 18.3035 16.9536C18.3322 16.8978 18.3614 16.8426 18.391 16.7878C18.333 16.7574 18.2753 16.7265 18.2177 16.6951C18.1336 16.4845 18.0545 16.2671 17.983 16.0463C17.9499 16.139 17.9183 16.2331 17.8882 16.3286C17.7401 16.0027 17.8138 15.811 17.806 15.7788C17.7851 15.6865 17.6997 15.6682 17.6908 15.6382C17.3491 14.2483 17.6193 15.0654 17.777 14.3323C17.6298 14.1053 17.5513 14.3666 17.4432 14.4216C17.4486 14.0819 17.4041 13.977 17.3844 13.6204C17.38 13.5274 17.4377 13.4258 17.4363 13.368C17.4349 13.3173 17.3639 13.1595 17.3637 13.037C17.3624 12.8331 17.4091 12.5654 17.4299 12.2884C17.4415 12.0599 17.4817 11.3519 17.5963 10.8715C17.6433 10.6671 17.687 10.728 17.6997 10.6757C17.7048 10.6542 17.6801 10.48 17.7165 10.35C18.0097 9.29183 18.5099 8.28946 19.054 7.36126C19.4371 6.70638 19.8321 6.04157 20.3018 5.44822C20.4018 5.32248 20.3877 5.41964 20.4323 5.36585C20.4481 5.34711 20.397 5.27253 20.5815 5.09962C20.6481 5.03767 20.6287 5.15544 20.6869 5.08904C20.7154 5.05709 20.6689 4.99427 20.8168 4.79245C21.0894 4.42338 21.3284 4.3117 21.3522 4.2801C21.3999 4.21898 21.339 4.19403 21.4064 4.1171C21.7334 3.74477 22.0113 3.44502 22.3262 3.12784C22.4632 2.97667 23.5038 2.00242 23.5672 1.97116C23.7165 1.87299 23.679 2.07702 23.8445 1.92695C23.8698 1.8617 23.8945 1.79723 23.9184 1.73354C23.8304 1.77661 23.7401 1.82203 23.6477 1.86979C23.7377 1.81207 23.82 1.74254 23.8941 1.67309L24.873 2.72849C24.7516 2.85992 24.6461 2.99438 24.5544 3.08169C24.5268 3.10837 24.238 3.30569 24.1169 3.42772C24.1538 3.35974 24.1906 3.29144 24.2274 3.22283C24.1942 3.22594 24.161 3.22897 24.1279 3.23191C23.9012 3.49045 23.628 3.74095 23.3522 3.97931C23.2538 4.0642 23.2535 3.99762 23.1542 4.0822C22.5822 4.55999 22.8469 4.61147 22.0322 4.76394C22.25 4.64262 22.9108 4.02317 23.0105 3.94879C23.0836 3.898 23.5705 3.9081 23.2466 3.74127C23.7926 3.2502 23.4596 3.80806 23.9202 3.32617C23.882 3.30504 23.844 3.28386 23.8059 3.26262C23.9578 3.0848 24.069 2.94914 24.2239 2.90126C24.1669 2.80398 24.3365 2.6195 24.555 2.41051L24.1873 2.01405C24.0054 2.16262 23.7775 2.33472 23.6343 2.47134C23.1718 2.90995 22.685 3.44094 22.2523 3.89908C22.1033 4.05657 21.9595 4.09465 21.942 4.11337C21.9153 4.14242 21.8895 4.27068 21.8359 4.32938C21.6298 4.54722 20.9504 5.15345 20.9592 5.45463C21.9502 4.23513 23.0879 3.1261 24.2706 2.11092L24.4647 2.32017C24.3273 2.45753 24.1906 2.59199 24.0545 2.7236C24.2851 2.64433 22.9873 3.86488 22.9062 3.91137C22.8408 3.96256 22.8502 3.8668 22.8289 3.87989C22.6721 3.97818 22.6169 4.1503 22.573 4.18719C22.5418 4.21336 22.4382 4.24185 22.3141 4.3453C22.2911 4.36432 22.3149 4.40638 22.2903 4.42676C22.1265 4.5607 21.9653 4.68837 21.8031 4.81487C21.7929 4.82222 21.7094 4.79904 21.6686 4.8303C21.6277 4.86177 21.6295 4.94781 21.6193 4.95587C21.4862 5.0573 21.2215 5.1972 21.0933 5.28847C21.0486 5.32069 21.1093 5.33977 21.0588 5.37536C20.904 5.48394 20.8971 5.36722 20.7231 5.51946C20.6636 5.57092 20.7163 5.62759 20.5813 5.70693C20.4862 5.76242 20.4207 5.64252 20.4036 5.64805C20.3807 5.65706 20.128 5.95077 19.9799 5.93781C20.0735 5.60117 19.7344 6.07754 19.8074 6.14716C19.6768 6.19789 19.5285 6.25736 19.3901 6.30865C19.3592 6.35555 19.3282 6.40226 19.2971 6.44878C18.739 6.63336 18.4332 6.8659 17.9054 7.06763C17.8772 7.08075 17.403 7.22214 17.4119 7.17839C17.6566 7.01325 17.9241 6.88903 18.1337 6.91403C18.313 6.59037 18.3976 6.74296 18.8223 6.48701C18.9599 6.40216 18.9423 6.34491 18.9582 6.33545C19.5107 6.00678 20.3557 5.42862 20.7968 5.31953C20.8678 5.21401 20.507 5.44321 20.6239 5.32077C20.698 5.27876 22.4162 3.87233 21.9791 4.46134C22.0334 4.41085 22.0879 4.35987 22.1424 4.3084C22.0831 4.11953 22.3992 3.91098 22.482 4.08102C22.4836 4.03046 22.4852 3.97988 22.4867 3.92928C22.5171 3.86173 22.5663 3.79743 22.6446 3.71646C22.8424 3.51834 23.7007 2.77068 24.3103 2.16575L24.413 2.27649C24.0555 2.5769 23.7777 2.82579 23.7453 2.86791C23.7723 2.90229 23.7994 2.93666 23.8264 2.97103C24.0618 2.77548 24.289 2.57856 24.5085 2.38754L24.2067 2.06218C23.6065 2.66869 23.0181 3.26487 22.272 3.77482C22.325 3.78358 22.3782 3.79212 22.4316 3.80044C22.0188 4.07634 21.5898 4.34754 21.1705 4.59144C21.5319 4.23044 22.1484 3.64691 22.585 3.34145C22.6651 3.28562 22.6493 3.3754 22.6706 3.36586C22.7265 3.34047 22.708 3.22552 22.8596 3.07635C23.0186 2.92201 23.4391 2.62536 23.4739 2.5885C23.5382 2.52221 23.6409 2.26689 23.7566 2.15548C23.9089 2.00887 23.8569 2.15805 23.8883 2.12936C23.9592 2.06483 24.0178 1.9946 24.073 1.92846L24.6318 2.53092C24.5851 2.57964 24.54 2.62656 24.4917 2.66535C24.3297 2.79497 23.938 2.97885 23.9558 3.20813C24.0633 3.12155 24.1836 3.02479 24.2931 2.93902C23.7585 3.50049 23.1539 3.75338 22.7476 4.42588C22.7854 4.7012 23.1983 4.23495 22.8985 4.67709C22.9629 4.6058 23.0271 4.53549 23.0912 4.46616C23.074 4.41818 23.057 4.37017 23.04 4.32212C23.1821 4.22552 23.3234 4.13209 23.4625 4.0428C23.4008 4.04565 23.3389 4.04891 23.2766 4.05261C23.6772 3.61563 24.0854 3.19137 24.3922 3.213C24.3659 3.16525 24.3396 3.11748 24.3133 3.06971C24.4584 2.96949 24.6243 2.81025 24.7583 2.67808L23.9357 1.79122C23.6655 2.09797 23.4507 2.34909 23.388 2.13651C23.3802 2.16579 23.3724 2.19504 23.3645 2.22426C23.0848 2.40742 23.2708 2.39884 23.1908 2.49344C23.1709 2.5196 22.6546 2.90745 22.8074 2.64838C22.29 3.02691 22.6202 3.09807 22.4977 3.22346C22.1134 3.38229 21.6833 3.99968 21.7819 3.63843C21.7299 3.67079 21.678 3.70274 21.6263 3.7343C21.5801 3.99127 21.3085 3.96094 21.1068 4.03541C21.0491 4.07518 20.9926 4.11352 20.9341 4.15312C20.9296 4.22847 20.9248 4.30378 20.9199 4.37906C20.212 4.56207 20.8172 5.03991 20.2094 4.70218C20.2262 4.64486 20.2429 4.58745 20.2595 4.52993C20.3397 4.45167 20.4201 4.37218 20.5007 4.29144C20.1279 4.54245 19.7448 4.78329 19.3584 5.00654C18.7975 5.14842 18.6046 5.48191 17.9894 5.64171C17.9446 5.68311 17.8998 5.72412 17.855 5.76473C17.846 5.61054 18.0536 5.53251 17.654 5.65704C17.5794 5.58193 17.8213 5.45026 17.9722 5.45845C18.0089 5.4608 17.8057 5.65102 18.0747 5.51627C18.2553 5.4228 17.8821 5.48822 18.4224 5.24585C18.3912 5.23513 18.3601 5.22429 18.3291 5.21334C18.3856 5.18312 18.4424 5.15233 18.4993 5.12095C18.5776 5.14189 18.6566 5.16206 18.7363 5.18146C18.8257 5.03422 18.8473 4.89035 19.1419 4.73594C19.0831 4.81432 19.2484 4.84653 19.3916 4.7525C19.3694 4.71793 19.3473 4.68337 19.3251 4.64881C19.6559 4.40246 19.6105 4.57624 19.8398 4.30673C19.8859 4.31462 19.9322 4.32227 19.9787 4.3297C20.0525 4.11874 20.5604 3.62923 20.5792 3.86531C20.6237 3.58799 20.9841 3.41871 21.2056 3.44088C21.1893 3.40168 21.1729 3.3625 21.1565 3.32335C21.215 3.26559 21.2737 3.20718 21.3325 3.14811C21.3839 3.13777 21.4355 3.12711 21.4872 3.11614C21.5173 3.05904 21.547 3.00196 21.5733 2.94754C21.6256 2.95694 21.6781 2.96612 21.7307 2.97508C21.7685 2.87859 21.8061 2.78159 21.8436 2.68409C21.9076 2.67173 21.9719 2.65892 22.0364 2.64567C21.9822 2.58136 22.4039 2.17818 22.5514 2.1155C22.5683 2.06604 22.5852 2.01646 22.602 1.96675C22.6463 1.981 22.6906 1.99513 22.735 2.00915C22.7381 1.96172 22.741 1.91425 22.744 1.86674C22.8245 1.83532 22.9054 1.80314 22.9866 1.7702C23.0875 1.39619 23.2173 1.51179 23.2717 1.45691C23.3053 1.42266 23.3569 1.35127 23.4131 1.26861L25.2402 3.23845C25.1283 3.38337 24.9793 3.5857 24.9423 3.61287C24.8798 3.65951 24.8037 3.63151 24.751 3.66949C23.8888 4.29991 24.3447 4.15029 24.2109 4.31444C24.1403 4.404 24.0355 4.41195 23.9667 4.48864C23.8511 4.61167 23.3081 5.28888 23.2703 5.32168C23.2123 5.36494 23.0995 5.02595 22.9985 5.25161C23.1165 5.37081 22.6509 5.62736 22.9837 5.61217C22.8286 5.7514 22.6806 5.88702 22.5296 6.03071C22.6954 6.14506 22.4359 6.24764 22.2711 6.46742C22.0322 6.77424 21.6355 7.54137 21.4887 7.4C21.4742 7.50249 21.4621 7.60303 21.4504 7.70427C21.0492 8.18071 20.8008 8.734 20.5415 9.2666C19.7544 10.8491 19.3586 12.6598 19.6361 14.2955C19.6487 14.3746 19.5808 14.376 19.5908 14.4338C19.6327 14.7313 19.9022 15.487 20.0643 15.8875C20.1131 16.0168 20.082 16.1064 20.0977 16.1489C20.1517 16.2934 20.2153 16.224 20.2432 16.2893C20.2785 16.3839 20.4858 16.9512 20.5861 17.1262C20.6338 17.2146 20.7546 17.2806 20.8014 17.3931C20.8055 17.4028 20.7357 17.4246 20.7394 17.4327C20.8523 17.6237 20.8312 17.4783 20.8696 17.543C21.1381 17.9927 21.4844 18.4516 21.8609 18.9083C21.9581 19.0267 22.0658 19.2209 22.1484 19.3168C22.1798 19.3531 22.1602 19.2537 22.2702 19.378C22.3082 19.4206 22.271 19.4827 22.3129 19.5332C22.4271 19.6699 22.5614 19.6858 22.6561 19.7534L20.7222 21.7023C20.686 21.6827 20.6638 21.6462 20.66 21.5549C20.4195 21.3454 19.7846 21.068 19.4243 20.9378C19.3429 20.906 19.3164 20.8521 19.2341 20.8231C19.1761 20.8027 19.0482 20.8259 18.9591 20.7983C18.8695 20.7703 18.7334 20.665 18.5505 20.6189C18.3578 20.5692 18.0973 20.5488 18.0551 20.5401C18.0014 20.5287 17.9914 20.4484 17.9361 20.4384C17.7659 20.4048 17.3069 20.4059 17.0868 20.3889C16.8536 20.3686 16.7104 20.3187 16.6299 20.3121C16.5556 20.3064 16.4632 20.3641 16.429 20.3621C16.3758 20.3592 16.3685 20.2828 16.2998 20.2789C16.1873 20.2729 16.0686 20.3138 15.903 20.3087C12.8731 20.2292 9.84597 20.9527 7.18859 22.3215C6.88935 22.4778 6.75628 22.6111 6.3218 22.8483C6.14813 22.9446 6.17772 22.8341 6.0547 22.9296C6.00003 22.9725 6.0479 23.0146 5.97628 23.0646C5.65721 23.2857 5.26111 23.4983 5.12522 23.6003C5.07184 23.64 5.05039 23.7423 4.94403 23.8242C4.35467 24.2778 3.7094 24.8217 3.12007 25.4118L1.30627 23.3442C1.50744 23.1901 1.72632 22.9997 1.92604 22.8092C2.33079 22.4294 2.89823 21.7665 3.31034 21.248C4.46491 19.8205 5.48962 18.1066 6.06709 16.5731C6.95735 14.258 7.11983 11.8135 6.40981 9.61044C6.62762 10.6797 6.82552 12.1164 6.67948 13.3339C6.31865 16.8028 4.12072 20.6757 1.34895 23.076C1.29585 23.1192 1.24408 23.1602 1.19433 23.1983L3.25006 25.5418C4.16606 24.6166 5.40571 23.6293 6.61051 22.9558C6.66813 22.9231 6.75897 22.8066 6.88573 22.7404C6.91206 22.7257 7.2887 22.6266 7.40109 22.569C7.2134 22.4715 7.72365 22.3767 7.86022 22.3067C8.03214 22.2152 8.35742 21.9618 8.7981 21.8296C9.19419 21.713 9.11406 21.8205 9.13667 21.8152C9.28191 21.7865 9.29 21.668 9.39062 21.618C9.78926 21.3764 12.0698 20.8011 12.7207 20.7436C12.8871 20.7175 12.9019 20.7852 12.9391 20.7796C13.0364 20.7653 13.1697 20.6776 13.3298 20.6577C13.6167 20.6215 13.9559 20.6546 14.1129 20.6429C14.4884 20.6106 15.2067 20.5068 15.6967 20.5207C15.8351 20.5238 15.8239 20.5951 15.8857 20.597C16.1549 20.601 16.8743 20.5736 17.2011 20.6229C17.7404 20.6954 18.2721 20.8522 18.7764 20.9814C18.7988 21.0215 18.8204 21.0615 18.8414 21.1015C18.9002 21.0852 18.9562 21.0685 19.0178 21.0542C19.6472 21.2853 20.257 21.5672 20.5692 21.8576L22.8102 19.5993C22.6497 19.4452 22.4978 19.2912 22.3561 19.1364C22.2826 19.0601 21.9675 18.6097 21.913 18.5399C21.8653 18.4829 21.7579 18.4765 21.6986 18.3844C21.6162 18.2553 21.8228 18.2758 21.6364 18.1069C21.5855 18.0596 21.5747 18.1516 21.4754 18.054C21.4331 18.0213 20.9261 17.3383 20.9096 17.2891C20.8745 17.22 20.9564 17.0905 20.949 17.0727C20.9103 16.9795 20.8223 17.0376 20.7798 16.9849C20.6551 16.8328 20.5892 16.5598 20.575 16.5348C20.3759 16.2131 20.0106 15.5726 19.946 15.1771C19.9364 15.1232 20.0136 15.1063 20.0132 15.0966C20.011 15.0339 19.915 15.0247 19.8963 14.967C19.7951 14.6615 19.7564 14.1686 19.7375 13.8619C19.7348 13.8267 19.6831 13.7548 19.6811 13.6901C19.6741 13.3255 19.756 13.4405 19.7564 13.4193C19.761 13.3711 19.68 13.2913 19.6724 13.1597C19.6459 12.8249 19.7023 12.1808 19.7751 11.8211C19.8263 11.5528 19.915 11.5739 19.9194 11.5569C19.9302 11.5204 19.8828 11.4015 19.9186 11.2229C19.9908 10.8792 20.0505 10.9365 20.0881 10.7976C20.0919 10.7859 20.0204 10.7867 20.0633 10.6302C20.1412 10.3249 20.4705 9.68713 20.6239 9.37762C20.6809 9.25792 20.6371 9.201 20.6988 9.07836C20.7948 8.88174 21.1024 8.48776 21.1242 8.45456C21.1299 8.44517 21.0786 8.38566 21.1124 8.33C21.1496 8.2688 21.2192 8.22922 21.2473 8.18408C21.4045 7.92636 21.6016 7.41724 21.7358 7.6899C21.7374 7.57267 21.7415 7.45362 21.7465 7.33491C22.1376 6.81736 22.5193 6.3094 22.9499 5.80996C23.046 5.69864 23.1688 5.63939 23.2515 5.54713C23.3305 5.45599 23.6592 4.99638 23.724 4.93161C23.8389 4.80578 24.5141 4.1501 24.6128 4.07336C24.785 3.93094 25.0363 3.85451 25.0883 3.78008C25.1331 3.7176 25.0368 3.71974 25.1382 3.60753C25.2017 3.53722 25.2911 3.46433 25.3794 3.40023L23.2622 1.11773C23.1079 1.25029 22.9485 1.36139 22.9139 1.39607C22.8907 1.41899 22.9682 1.41245 22.7499 1.62684C22.6325 1.74174 22.5328 1.76222 22.4903 1.80247C22.477 1.8149 22.5567 1.8601 22.3143 2.06767C22.1382 2.21801 22.0221 2.23185 22.0042 2.24772C21.9774 2.27109 21.9603 2.38169 21.8523 2.47327C21.6038 2.68537 21.0878 3.01103 20.8397 3.19785C20.7922 3.23364 20.8608 3.28975 20.6699 3.42831C20.5336 3.52631 20.5156 3.4538 20.4646 3.48933C20.3806 3.54786 20.3055 3.70932 20.1223 3.83894C19.9151 4.0231 18.1041 5.04835 18.0067 5.03856C17.9412 5.05639 17.8638 5.09561 17.8162 5.07848C17.8268 5.03306 17.8373 4.98761 17.8477 4.94212C18.1728 4.91083 17.9975 4.84195 18.0635 4.79613C18.1576 4.73182 18.5561 4.5235 18.6364 4.43619C18.6625 4.40689 18.5503 4.38701 18.7013 4.24888C18.8632 4.09995 19.02 4.15865 18.9942 3.9559C19.3731 3.95387 19.5102 3.59468 19.1685 3.75655C18.9833 3.87563 17.2603 4.78536 16.9082 4.88965C16.6129 5.015 16.1027 5.27454 15.7431 5.37115C15.5384 5.4325 15.0143 5.55763 15.0183 5.45319C14.8368 5.48293 15.048 5.53388 15.0138 5.55578C14.9367 5.60808 14.3523 5.65186 14.2434 5.66451C13.7203 5.75683 13.0353 5.88706 12.5384 5.71672C12.5642 5.69256 12.5898 5.66827 12.6152 5.64385C12.7322 5.60963 13.2535 5.68819 13.3108 5.5564C12.5526 5.57386 11.801 5.47017 11.0783 5.24753C11.0632 5.36983 10.1538 5.02684 10.1405 4.95076C10.1779 4.91082 10.2145 4.87044 10.2506 4.82981C10.6668 5.22345 10.7169 4.95599 11.0093 5.20123C11.1456 5.24612 11.1294 5.1509 11.2012 5.15538C11.9159 5.17798 11.1657 5.33709 11.7089 5.38527C11.5783 5.23083 12.011 5.27657 12.2043 5.28334C12.2478 5.29216 12.8219 5.37544 12.8889 5.36953C13.2834 5.37954 13.9354 5.26849 14.3459 5.26433C14.6523 5.22138 14.8175 5.0944 15.0858 5.00496C15.2954 4.93335 15.2512 5.00885 15.354 4.98054C15.5722 4.91808 15.5733 4.71729 15.7953 4.92169C15.9288 4.84165 16.0716 4.75426 16.1971 4.66991C16.212 4.70816 16.2269 4.74641 16.2418 4.78466C16.3317 4.74961 16.4226 4.7128 16.5144 4.67418C16.5256 4.6251 16.5365 4.57598 16.5473 4.52683C16.8619 4.45052 16.7813 4.59273 16.8829 4.67493C16.9478 4.65423 17.0132 4.63267 17.0792 4.61023C17.0894 4.50665 17.0988 4.40306 17.1074 4.29946C17.392 4.16813 17.6634 4.03117 17.9425 3.8788C17.9808 3.90396 18.0193 3.92897 18.0579 3.95383C18.0379 3.91812 18.0179 3.88242 17.9979 3.84673C18.4557 3.57085 18.9183 3.25755 19.3513 2.93606C19.4306 2.80238 18.6911 3.25757 18.6271 3.28811C18.3154 3.47664 17.5179 4.00726 17.4525 3.8698C17.3118 4.07401 16.7159 4.33333 16.4791 4.28845C16.7631 4.17382 17.0247 4.05716 17.3116 3.91602C17.2799 3.87745 17.2482 3.83881 17.2167 3.80009C17.642 3.79805 17.6892 3.75964 17.9454 3.39204C17.9794 3.44811 18.0134 3.50418 18.0474 3.56024C18.1645 3.2272 18.7965 3.27576 18.6561 3.02957C18.8013 2.96007 18.9337 2.89678 19.0721 2.82717C19.3189 2.60213 18.787 2.74881 19.8744 2.01914C19.9492 1.96724 19.9789 2.0355 20.0838 1.94468C20.1099 1.92125 20.2407 1.684 20.5663 1.419C20.6186 1.37631 20.6631 1.42006 20.7218 1.37961C20.8575 1.28735 21.0249 0.9721 21.0453 1.22285C21.5864 0.812833 21.2621 0.88221 21.3677 0.69634C21.4357 0.573299 21.4973 0.678195 21.564 0.578104C21.6473 0.451659 21.4843 0.447677 21.9499 0.0683498C21.9075 0.121692 21.8651 0.174623 21.8229 0.227147C21.8697 0.226918 21.9166 0.226501 21.9636 0.225896C22.0482 0.0941839 22.1068 0.040103 22.1445 0L26.41 4.59872C26.3621 4.64276 26.3466 4.66921 26.3462 4.80398C26.1015 4.90898 25.9407 5.04199 25.7072 5.27529C25.2543 5.73578 25.6285 5.64938 24.9271 5.96392C24.8689 6.07419 24.8143 6.18216 24.7607 6.29033C24.5723 6.37229 24.6087 6.19263 24.3961 6.38681C24.6874 6.35985 24.2296 6.74216 24.2908 6.93486C24.2532 6.91517 24.216 6.89512 24.1786 6.87534C24.1373 6.92113 24.0961 6.96726 24.055 7.01371C24.0796 7.03566 24.1041 7.05762 24.1287 7.07957C24.0558 7.12477 23.9829 7.17078 23.9101 7.21757C23.8936 7.28675 23.8799 7.35326 23.8654 7.42107C23.7482 7.45321 23.6309 7.48697 23.5133 7.5224C23.4691 7.56926 23.4262 7.61512 23.3834 7.66138C23.4342 7.67632 23.4849 7.69143 23.5355 7.7067C23.4727 7.7589 23.4101 7.81171 23.3479 7.86511C23.4691 7.84109 23.5057 7.94472 23.3546 8.13994C23.233 8.30026 23.2309 8.01627 23.0328 8.40971C23.0204 8.43754 23.0815 8.54985 22.8768 8.89093C22.6385 9.30082 22.6913 9.0613 22.6431 9.13088C22.6338 9.14474 22.6096 9.29843 22.5503 9.4171C22.5166 9.48418 22.439 9.52232 22.4342 9.53106C22.4134 9.57229 22.4668 9.61765 22.4385 9.674C22.3658 9.81707 22.2384 9.98953 22.1751 10.1286C22.1461 10.1918 22.1556 10.2677 22.1433 10.2955C22.1239 10.3385 22.0425 10.3673 22.0234 10.4111C21.9511 10.5753 22.0507 10.8877 21.7552 10.8616C21.9446 11.1041 21.544 11.3193 21.721 11.3492C21.5046 11.7505 21.6043 12.7934 21.3266 12.7454C21.5717 12.9743 21.3908 12.9449 21.394 13.038C21.3992 13.1397 21.4478 13.0862 21.4475 13.1665C21.4478 13.3515 21.4415 13.5322 21.4656 13.7167C21.4213 13.6934 21.3771 13.6698 21.3331 13.6449C21.3459 13.8438 21.4294 13.7624 21.4817 13.9587C21.5874 14.318 21.4849 14.179 21.3919 14.2582C21.4848 14.2196 21.5888 14.6623 21.5949 14.7098C21.5968 14.7397 21.4273 14.6608 21.5639 14.9227C21.5969 14.8937 21.6301 14.865 21.6635 14.8367C21.6526 14.9828 21.8539 15.2848 21.8701 15.3488C21.8745 15.375 21.6441 15.6645 21.9426 15.6756C21.9139 15.7095 21.8853 15.7436 21.857 15.778C21.9739 15.8984 22.1025 16.0287 22.2257 16.1399C22.1756 16.1999 22.126 16.2605 22.0769 16.3218C22.1047 16.3677 22.1333 16.4139 22.1626 16.4604C22.1985 16.3946 22.2352 16.3297 22.2726 16.2655C22.4201 16.5665 22.7442 16.8397 22.6111 17.0296C22.6887 17.0658 22.767 17.1018 22.8461 17.1376C22.8188 17.2224 22.7908 17.3059 22.7633 17.3895C22.9964 17.6511 23.0419 17.6257 23.2638 17.7635C23.2142 17.7938 23.1645 17.8239 23.1147 17.854C23.302 17.9477 23.5699 18.1312 23.7707 18.3226C23.816 18.3659 23.8634 18.4387 23.9047 18.5048L19.4832 22.9605C19.4953 22.9457 19.5 22.9238 19.4957 22.925C19.4867 22.9264 19.2465 23.1318 19.3877 22.9036C19.1819 22.9061 19.1165 22.7401 19.0094 22.6925C18.9396 22.6625 18.8809 22.7069 18.7913 22.6772C18.665 22.6358 18.537 22.5579 18.4527 22.535C18.4058 22.5225 18.3778 22.5796 18.345 22.5714C18.1866 22.5332 18.2976 22.4986 18.1244 22.4542C18.1083 22.4506 17.9661 22.4909 17.8188 22.4466C17.7374 22.4212 17.538 22.2922 17.5158 22.2888C17.4262 22.274 17.4678 22.4538 17.198 22.2075C17.2018 22.2413 17.2055 22.2751 17.2092 22.3089C16.8148 22.3322 16.7732 22.186 16.6937 22.1659C16.6836 22.1638 16.5815 22.2098 16.5238 22.1967C16.4272 22.1742 16.3955 22.0943 16.3737 22.0891C16.2999 22.0706 16.0312 22.0865 15.8652 22.0059C15.8912 22.2246 15.2956 22.2897 15.1552 22.0463C15.0467 22.097 14.9385 22.149 14.8338 22.2022C14.7838 22.163 14.733 22.124 14.6817 22.0854C14.6536 22.1277 14.6257 22.1701 14.598 22.2126C14.4331 22.1313 14.2702 22.0525 14.1007 21.9769C14.0983 22.0676 14.0961 22.1584 14.094 22.2492C14.0487 22.243 14.0031 22.2369 13.9574 22.2311C13.9155 22.1632 13.8724 22.0955 13.8301 22.0279C13.7758 22.0474 13.7215 22.0672 13.6671 22.0874C13.6593 22.1405 13.6516 22.1937 13.6441 22.2468C13.3562 22.3446 13.4321 21.8291 12.9302 22.3497C12.8352 22.3242 12.7375 22.3 12.6421 22.2762C12.5796 22.4902 12.3718 22.4082 12.2247 22.4631C12.1216 22.5018 12.1444 22.5775 12.003 22.612C11.8613 22.647 11.8483 22.5729 11.8371 22.575C11.7191 22.5989 11.6475 22.6862 11.5586 22.6959C11.545 22.6975 11.4902 22.6187 11.3804 22.6429C11.2704 22.6674 11.2315 22.7773 11.0657 22.8077C10.9809 22.8236 10.9338 22.7589 10.8595 22.775C10.4992 22.8528 10.2888 23.3344 9.87418 23.0067C9.83387 23.0823 9.49768 23.4338 9.32107 23.5C9.0428 23.6021 9.1104 23.4755 8.99675 23.5088C8.98038 23.5139 8.9112 23.5771 8.68469 23.6805C8.64413 23.6991 8.67553 23.7399 8.67008 23.7433C8.40889 23.8671 7.89323 24.0971 7.61802 24.2526C7.59264 24.2669 7.53755 24.4604 7.22358 24.4333C6.98419 24.7427 6.22588 24.897 5.96125 25.3711C5.91011 25.4161 5.8138 25.4279 5.79098 25.4482C5.596 25.6256 5.76448 25.6763 5.17163 25.8906C5.25884 25.918 5.20026 26.0605 5.0507 26.1876C4.82838 26.3784 4.88383 26.1306 4.71857 26.3006C4.74659 26.3304 4.77461 26.3602 4.80264 26.39C4.61596 26.5057 4.51039 26.6116 4.42735 26.7191L0.180432 21.8777C0.270331 21.7743 0.33308 21.6433 0.548582 21.4465C0.669165 21.3373 0.932715 21.205 0.961332 21.1758C0.972789 21.1646 1.04637 20.9481 1.06008 20.9321C1.1338 20.8508 1.20835 20.8376 1.27478 20.766C1.49676 20.5281 1.64764 20.148 1.78123 20.351C1.80187 20.2503 1.82038 20.151 1.83951 20.0498C2.2543 19.9348 2.13311 19.524 2.37086 19.6101C2.3687 19.5299 2.36543 19.4505 2.3609 19.3724C3.25186 18.1998 3.99419 16.9087 4.48324 15.6116C4.43295 15.5329 4.64102 14.9768 4.65723 14.9505C4.74769 14.8323 4.87262 15.0203 4.90979 14.7336C4.84599 14.6842 4.78187 14.6354 4.71744 14.5873C4.77685 14.2422 4.80831 14.4229 4.88831 14.2993C4.89158 14.2411 4.83146 14.2471 4.84312 14.1708C4.91527 13.7547 5.00688 12.9322 4.99373 12.5114C4.99296 12.4259 5.04657 12.4385 5.04658 12.4118C5.04556 12.3374 4.9748 12.1971 4.96616 12.0539C4.93379 11.1611 4.63145 9.97994 4.21781 9.15619C4.19118 9.10024 4.24311 9.06177 4.22474 9.02319C4.19916 8.9697 4.08632 8.88189 4.05727 8.82528C4.02948 8.7712 4.05159 8.71488 4.02199 8.65861C3.88707 8.39906 3.58559 8.12669 3.48585 7.78306C3.47975 7.7541 3.4437 7.31721 3.44919 7.30007C3.48915 7.1954 3.83367 7.33572 3.57354 6.83493C3.99353 7.10623 4.08722 6.85237 3.69249 6.28593C3.95705 6.51248 4.19138 6.72664 4.43219 6.97067C4.45321 6.9538 4.47423 6.93694 4.49525 6.92008C4.39516 6.59515 4.24075 6.34984 3.90763 5.99644L2.82263 4.72323L3.90763 3.79861C3.91144 3.79499 3.91525 3.79135 3.91908 3.7877C3.9209 3.79698 3.92273 3.80625 3.92455 3.81553L2.85625 4.72592L3.92455 5.97952C3.94408 5.97488 3.96362 5.97026 3.98318 5.96567C4.38221 6.18785 4.72851 6.54621 5.06881 6.70074C4.8785 6.28199 4.67752 5.88806 4.42781 5.47627L3.85639 4.80574L4.42781 4.31879C4.47072 4.29235 4.51363 4.26592 4.55654 4.23949C4.55174 4.27211 4.54694 4.30473 4.54214 4.33735C4.53045 4.35492 4.51725 4.37381 4.5028 4.39378L4.00544 4.81763L4.5028 5.40127C4.72577 5.55903 5.05768 5.87676 5.20686 5.98454C5.85356 6.457 4.86457 5.38871 5.09917 5.496C5.65598 6.09941 6.1644 6.76703 6.57975 7.47202C6.69903 7.43313 5.45955 5.41898 5.0706 4.83348V4.96157C5.16951 4.90977 5.236 4.89144 5.25704 4.91915C5.22125 4.95965 5.18547 5.00016 5.14968 5.04066L5.14968 4.75439C5.31602 4.90206 5.47653 5.05109 5.63138 5.20147C5.59662 5.07039 5.55885 4.93836 5.51803 4.80548C5.55601 4.81643 5.59394 4.8275 5.63183 4.83871C5.98567 5.14166 6.33372 5.47262 6.65719 5.81577C6.11986 5.16486 5.7286 4.76463 5.50824 4.39583L5.50824 5.39922C5.75473 5.25668 5.97857 5.21098 6.22068 5.25946C6.20327 5.29462 6.18585 5.32977 6.16843 5.36493C6.04487 5.36263 5.88025 5.44948 5.69694 5.58792L5.69694 4.20714C6.0775 4.68976 6.72365 5.34187 7.09217 5.77909C7.07185 5.5905 6.57491 5.08067 6.51022 4.93008C6.49352 4.88677 6.64038 4.9615 6.59868 4.86371C6.52558 4.67929 6.14382 4.15443 5.99748 3.90659L5.99748 5.88846C6.07882 5.84564 6.12816 5.83506 6.11971 5.88177C6.11731 5.89499 6.1004 5.92318 6.07204 5.96302L6.07204 3.83203C6.42219 4.06678 7.42924 5.13521 7.59699 5.4073C7.24874 4.76249 6.78858 4.17169 6.33169 3.57239L6.33169 6.22267C6.41615 6.16093 6.50153 6.10049 6.58809 6.04179C6.54572 6.14638 6.50674 6.25066 6.46529 6.35627L6.46529 3.43878C6.88728 3.63752 7.30898 3.8502 7.83261 4.48229C8.06846 4.62381 7.23544 3.44344 6.88288 3.0212L6.88288 6.77386C6.95923 6.71796 7.01074 6.68413 7.02289 6.68595C6.9923 6.73133 6.9617 6.77671 6.93111 6.82209L6.93111 2.97297C7.19336 3.16311 7.44801 3.35837 7.69503 3.55888C7.47406 3.33514 7.2441 3.11514 7.00515 2.89893L7.00514 6.89613C7.00849 6.89234 7.01184 6.88855 7.01519 6.88477C7.03026 6.89873 7.04533 6.91269 7.0604 6.92665C7.05684 6.93135 7.05329 6.93604 7.04975 6.94073L7.04975 2.85432C7.70707 3.38027 8.3516 3.84683 8.92619 4.66188C8.99423 4.56654 8.63128 4.09494 8.44626 3.8713ZM14.0758 5.05252C14.052 4.96525 14.2643 4.95087 14.3768 4.93215C14.3567 4.919 14.3368 4.90576 14.3171 4.89243C14.5611 4.87344 15.0406 4.79276 15.0106 4.61754C15.1806 4.54961 15.1436 4.71656 15.2061 4.71726C15.233 4.71724 15.4376 4.56622 15.6572 4.605C15.7017 4.58957 15.7464 4.57369 15.7915 4.55735C15.7812 4.50022 15.7707 4.44313 15.7601 4.38607C15.8452 4.42967 15.9342 4.47108 16.0208 4.51269C15.3651 4.77386 14.7164 4.95582 14.0768 5.05239C14.0764 5.05243 14.0761 5.05247 14.0758 5.05252ZM20.4607 1.72798C20.6965 1.57392 21.0698 1.31207 20.8974 1.25473C20.7637 1.3839 20.6312 1.50934 20.5 1.63116C20.4869 1.6635 20.4738 1.69578 20.4607 1.72798ZM14.1199 21.828C13.875 21.6943 13.6783 21.8476 13.319 21.8684C13.324 21.9006 13.3289 21.9329 13.3338 21.9652C13.4699 21.8664 13.8552 21.8723 14.1199 21.828ZM8.3084 3.92563C8.27734 3.88578 8.24927 3.84791 8.21778 3.80683C8.47855 3.79095 8.43337 3.913 8.61931 4.03007C8.63055 4.03702 8.65066 4.00194 8.65449 4.00445C8.69898 4.03375 8.71124 4.1022 8.75203 4.13025C8.83294 4.18552 8.9182 4.18585 9.0556 4.27857C9.16235 4.35005 9.1224 4.41514 9.16055 4.43704C9.19412 4.45737 9.6195 4.46867 9.78387 4.65606C10.1004 5.05352 8.39386 4.08137 8.3084 3.92563ZM7.3257 2.84727C7.36286 2.88347 7.39784 2.91732 7.43615 2.95415C7.24232 2.92841 7.47681 3.13798 7.63635 3.28276C7.55476 3.36437 7.26295 3.01535 7.05385 2.85022C7.14364 2.84829 7.2337 2.84696 7.3257 2.84727ZM12.2317 5.74598C12.0552 5.73445 12.1061 5.59715 12.1188 5.5567C12.1724 5.56451 12.2273 5.57187 12.2807 5.5784C12.2647 5.63432 12.2485 5.6902 12.2317 5.74598ZM10.9397 5.51251C11.0193 5.43889 11.3944 5.50285 11.5659 5.53047C11.5735 5.53205 11.5138 5.57334 11.6382 5.59541C11.6792 5.60511 12.0699 5.47971 11.955 5.68043C11.618 5.64942 11.2761 5.59283 10.9402 5.51266C10.94 5.51261 10.9398 5.51256 10.9397 5.51251ZM10.5927 5.33311C10.6702 5.32972 10.7477 5.32526 10.8251 5.31968C10.8454 5.37433 10.8671 5.42915 10.8885 5.48359C10.8064 5.46898 10.7237 5.45276 10.6423 5.43554C10.6254 5.40142 10.6089 5.36727 10.5927 5.33311ZM5.80825 15.1701C5.75676 15.1747 5.7053 15.1791 5.65385 15.1833C5.60806 15.241 5.7064 15.6346 5.77769 15.542C5.78996 15.4174 5.80025 15.2931 5.80825 15.1701ZM6.20711 13.7761C6.24113 13.7096 6.27446 13.6426 6.30709 13.575C6.23539 13.4843 6.16236 13.3961 6.08816 13.3098C6.00243 13.646 5.87751 13.9973 6.12578 13.9782C6.11283 14.0577 6.09893 14.1372 6.08401 14.2171C5.99784 14.1316 5.9651 14.1364 5.86232 14.3289C5.98955 14.4016 5.87701 14.6004 5.84496 14.8523C5.89769 14.6757 5.94565 14.5 5.98913 14.3229C6.01318 14.3277 6.03723 14.3325 6.06128 14.3373C5.96848 14.7372 6.23044 14.2671 6.17457 13.9872C6.21014 13.9719 6.24568 13.9563 6.28119 13.9406C6.25695 13.8853 6.23225 13.8305 6.20711 13.7761ZM22.2422 18.2703C22.257 18.3264 22.2724 18.3828 22.2886 18.4395C22.6683 18.3878 22.1551 18.2629 22.1799 17.8825C22.0882 18.0794 21.8208 17.7231 21.7965 17.7087C21.7749 17.7886 21.7544 17.8693 21.7349 17.9508C21.9065 18.0672 22.0687 18.1647 22.2422 18.2703ZM20.324 21.9836C20.3055 22.17 19.8997 21.8558 19.6688 21.7143C19.6239 21.681 19.561 21.553 19.5184 21.5459C19.4809 21.5644 19.4435 21.5832 19.4062 21.6022C19.4286 21.4839 18.8979 21.4102 18.6808 21.4128C18.6742 21.368 18.6671 21.323 18.6596 21.2781C18.5811 21.2714 18.4968 21.2643 18.4197 21.2603C18.4397 21.2235 18.4598 21.1867 18.48 21.15C18.4102 21.1817 18.3403 21.214 18.2705 21.247C18.0287 21.244 18.2203 21.0614 18.0293 21.0889C17.8204 21.1221 18.1068 21.3203 18.0811 21.4038C18.2413 21.4167 18.5936 21.4621 18.7374 21.5078C18.8189 21.5346 18.6818 21.6446 19.0854 21.604C19.1427 21.6701 19.2025 21.7388 19.255 21.8064C19.4059 21.7997 19.5586 21.7998 19.7023 21.8026C19.6964 21.8643 19.6882 21.925 19.6802 21.9861C19.6933 22.0006 19.9798 22.0269 19.9929 21.9869C20.0122 22.101 20.0983 22.2052 20.1543 22.279L23.2284 19.1812C23.1738 19.1213 23.117 19.0607 23.06 19.0001C23.0138 18.9971 22.9676 18.994 22.9215 18.9908C23.2105 19.1928 22.9745 19.0929 23.0047 19.2091C23.0129 19.2397 23.0346 19.2938 23.0577 19.3519L20.3237 22.107C20.3245 22.0662 20.3203 22.0178 20.324 21.9836ZM5.09682 17.3945C5.21122 16.8153 5.17221 17.189 5.41296 16.6217C5.32835 16.6334 5.24382 16.6444 5.15937 16.6548C5.17066 16.9824 4.87406 17.3964 5.09656 17.3951C5.09665 17.3949 5.09673 17.3947 5.09682 17.3945ZM6.05215 11.8055C6.11678 12.0925 6.22574 11.9385 6.27401 12.3143C6.27402 12.3144 6.27402 12.3146 6.27402 12.3148C6.27865 12.1195 6.27659 11.924 6.26746 11.7283C6.19581 11.7546 6.12403 11.7803 6.05215 11.8055ZM8.71678 22.4843C9.01882 22.3866 8.94035 22.358 9.24619 22.3558C9.58857 22.0688 9.26176 22.2204 9.21413 22.1035C9.13758 22.1743 9.06164 22.2457 8.98633 22.3178C8.72191 22.3022 8.90531 22.1591 8.90133 22.1486C8.90115 22.1486 8.90096 22.1487 8.90078 22.1488C8.88596 22.1139 8.89008 22.1033 8.79633 22.1185C8.76858 22.2404 8.74207 22.3624 8.71678 22.4843ZM9.91683 21.8389C9.84253 21.9545 9.83242 22.0712 10.1188 22.0285C10.119 22.0285 10.1192 22.0284 10.1193 22.0283C10.0801 21.843 10.3877 21.8994 10.5005 21.8513C10.5252 21.8221 10.5499 21.793 10.5748 21.764C10.3575 21.784 10.1381 21.8089 9.91683 21.8389ZM14.5844 20.7367C14.5946 20.9437 14.3617 20.9749 14.7017 21.1495C14.7653 21.143 14.8287 21.1369 14.8919 21.1313C14.9316 21.0846 14.9731 21.038 15.0148 20.9915C15.824 21.3653 16.078 20.7098 14.6942 20.9773C14.694 20.9775 14.6938 20.9776 14.6936 20.9778C14.6578 20.8973 14.6214 20.8169 14.5844 20.7367ZM13.1178 20.8956C13.1225 21.0048 13.1272 21.114 13.1326 21.2231C12.9158 20.9895 12.7193 21.2722 12.334 21.1576C12.3083 21.1962 12.2828 21.2349 12.2575 21.2736C12.109 21.2148 10.8159 21.519 11.1399 21.6118C11.2763 21.6497 11.5167 21.4865 11.5397 21.4836C11.6187 21.4727 11.7399 21.5397 11.8667 21.5055C11.9402 21.4855 12.0772 21.343 12.2316 21.3124C12.578 21.2412 13.2487 21.43 13.6689 21.1058C13.7053 21.1348 13.7408 21.164 13.7773 21.1932C14.1148 21.1402 13.9948 21.0466 14.3164 21.1467C14.4992 20.6035 13.0502 21.2969 13.3127 20.8513C13.3125 20.8514 13.3123 20.8514 13.3121 20.8514C13.2475 20.8657 13.1827 20.8804 13.1178 20.8956ZM4.57753 24.9094C4.50083 24.8513 4.29159 25.2246 4.21577 24.9957C4.16749 25.1418 4.12075 25.2886 4.07869 25.433C4.09346 25.4475 4.10823 25.462 4.123 25.4765C4.2057 25.3778 4.29209 25.2776 4.37887 25.1792C4.40096 25.2034 4.42306 25.2277 4.44515 25.2519C4.50762 25.0308 5.16602 24.5589 5.21987 24.6693C5.22307 24.6044 5.22661 24.5394 5.2305 24.4744C5.61307 24.3475 5.8002 24.0359 6.21919 23.9107C6.22346 23.8589 6.22795 23.8071 6.23266 23.7552C6.26848 23.7708 6.30421 23.7865 6.33984 23.8023C6.46929 23.722 6.59912 23.6441 6.72929 23.5683C7.08543 23.1937 6.16992 23.5576 6.08228 23.6478C6.07066 23.6589 6.11979 23.7279 6.04572 23.7941C5.91346 23.9036 5.07678 24.4119 4.88129 24.6531C4.84378 24.611 4.80625 24.5689 4.76869 24.5269C4.70169 24.6552 4.63906 24.7818 4.57753 24.9094ZM16.4139 20.9794C16.4305 21.0382 16.4469 21.097 16.4629 21.1558C16.8285 21.1287 17.0459 21.2108 16.9779 21.0106C16.9777 21.0105 16.9775 21.0105 16.9773 21.0105C16.7928 20.9962 16.5992 20.9854 16.4139 20.9794ZM19.886 3.33803C19.9598 3.42508 20.1427 3.34442 20.2817 3.13511C20.2526 3.11568 20.2237 3.0962 20.1947 3.07668C20.1566 3.22719 19.9225 3.19482 19.6297 3.43208C19.6629 3.47874 19.6962 3.5254 19.7295 3.57206C19.7817 3.49476 19.8338 3.41675 19.886 3.33803ZM16.0972 20.934C15.9879 20.8596 15.6666 21.0544 15.8725 21.0715C16.0278 21.0849 16.1557 20.9736 16.0972 20.934ZM5.98691 10.6648C5.99226 10.7409 5.9964 10.8168 5.99937 10.8924C6.05483 10.9209 6.11014 10.9502 6.16528 10.9801C6.16525 10.98 6.16522 10.9798 6.16519 10.9796C6.10802 10.873 6.04858 10.7681 5.98691 10.6648ZM7.75346 22.9612C8.00253 22.8225 8.26133 22.6871 8.51825 22.561C8.50755 22.5309 8.49686 22.5009 8.48619 22.4708C8.27337 22.6969 8.11545 22.637 8.05044 22.6602C8.05071 22.66 8.05098 22.6599 8.05125 22.6598C7.84361 22.7344 7.65397 22.812 7.45304 22.8776C7.55396 22.9045 7.6541 22.9324 7.75346 22.9612ZM6.79088 23.2731C6.94984 23.4407 7.0129 23.4278 7.31964 23.0735C7.2906 23.0581 7.26202 23.0424 7.2331 23.0269C7.04077 23.1542 6.9514 23.2686 6.9269 23.1468C6.88138 23.1886 6.83604 23.2307 6.79088 23.2731ZM10.9841 21.5403C10.9135 21.4843 10.5237 21.6756 10.5575 21.704C10.571 21.7125 11.1219 21.6458 10.9841 21.5403ZM17.1753 5.02673C17.2664 5.00236 17.3586 4.97644 17.4517 4.9489C17.3482 5.02697 17.2453 5.10278 17.1429 5.17638C17.1539 5.12653 17.1647 5.07665 17.1753 5.02673ZM16.3376 5.72077C16.2647 5.71606 16.3988 5.45592 16.0062 5.53793C16.2811 5.43984 16.542 5.33479 16.8111 5.21544C16.6969 5.29967 16.5832 5.38112 16.47 5.45989C16.5128 5.50557 16.5559 5.55103 16.5993 5.59627C16.513 5.63868 16.4296 5.67881 16.3376 5.72077ZM15.9901 5.6855C16.1902 5.78568 15.4009 6.04313 15.3213 6.03512C15.3035 6.03514 15.1981 5.94156 15.1645 5.92386C15.2809 5.89553 15.3988 5.86453 15.5183 5.83072C15.4683 5.80673 15.419 5.78229 15.3703 5.75744C15.5028 5.70895 15.6445 5.65442 15.7705 5.60157C15.7241 5.65471 15.6795 5.70678 15.6285 5.76021C15.7527 5.73645 15.8678 5.7132 15.9901 5.6855ZM19.0126 4.16132C18.9181 4.21732 18.8243 4.27166 18.7312 4.32438C18.7794 4.36201 18.8278 4.39947 18.8765 4.43674C18.9317 4.4025 18.9872 4.36769 19.0428 4.3323C19.0329 4.27526 19.0228 4.21827 19.0126 4.16132ZM17.1201 5.28112C17.1393 4.97062 17.7794 5.334 17.2378 5.34175C17.1836 5.34164 17.118 5.31129 17.1201 5.28112ZM15.0187 6.07365C14.7423 6.33781 14.7258 5.88921 15.0475 5.9514C15.0639 5.95475 15.0396 6.05381 15.0187 6.07365ZM12.6848 6.2785C12.659 6.27484 12.6253 6.13174 12.3773 6.24564C12.3399 6.22547 12.303 6.20503 12.2665 6.18436C12.3632 6.13885 13.1383 6.13529 13.0302 6.2694C12.9087 6.26968 12.809 6.29013 12.6848 6.2785ZM13.4699 6.81804C13.5961 6.80931 13.7237 6.79775 13.853 6.7832C13.8066 6.74179 13.7611 6.69999 13.7163 6.65784C13.7772 6.64149 13.841 6.62421 13.8995 6.60671C14.0091 6.67499 14.1226 6.7411 14.24 6.8048C13.9663 6.8514 13.6842 6.88594 13.408 6.90657C13.4288 6.87713 13.4494 6.84762 13.4699 6.81804ZM16.8584 6.18046C16.6112 6.21752 16.3182 6.39117 15.9325 6.49819C15.9323 6.49811 15.932 6.49803 15.9318 6.49795C15.913 6.50295 15.8583 6.45493 15.7936 6.47118C15.7384 6.50046 14.6811 6.80952 14.7453 6.67883C15.1402 6.51 15.3273 6.60492 15.3665 6.35588C15.398 6.39865 15.4299 6.44128 15.462 6.48376C15.8812 6.46095 15.9459 6.25804 16.1389 6.12954C16.1497 6.16498 16.1606 6.20043 16.1715 6.23587C16.3173 6.19118 16.4675 6.14172 16.615 6.08988C16.5869 6.07443 16.5572 6.05957 16.5279 6.04444C16.5817 6.02442 16.6282 6.00673 16.6787 5.98719C16.8394 6.04281 17.0085 6.00156 16.8584 6.18046ZM12.8958 6.75915C12.7717 7.05301 11.6297 6.75471 11.1169 6.66147C11.422 6.56521 11.807 6.75765 12.1117 6.79554C12.6815 6.86035 12.2969 6.71465 12.3977 6.67976C12.4444 6.66302 12.7625 6.86571 12.8958 6.75915ZM17.6989 5.75834C17.4204 5.86606 17.2854 5.9966 17.0034 6.00259C17.0157 5.97527 17.028 5.94791 17.0402 5.92052C17.1344 5.90706 17.8168 5.65516 17.6989 5.75834ZM10.3999 6.37051C10.9023 6.64297 10.7099 6.31139 10.9371 6.57675C10.7468 6.53698 10.5655 6.49323 10.3757 6.43997C10.3838 6.41682 10.3919 6.39366 10.3999 6.37051ZM15.4685 19.8571C15.2204 19.8482 14.9272 19.8034 14.7836 19.9149C14.952 19.9254 15.1298 19.9383 15.299 19.9542C15.3554 19.9216 15.4119 19.8892 15.4685 19.8571ZM20.9145 20.0116C20.9347 20.0733 21.1509 20.1995 21.1684 20.2179C21.2003 20.2525 21.1646 20.2682 21.1579 20.2752C21.3748 20.4972 21.2622 20.21 21.4381 20.3596C21.4559 20.3748 21.5799 20.5322 21.7183 20.6912L21.6527 20.7573C21.5651 20.6561 21.4601 20.556 21.3879 20.5013C21.1254 20.2993 20.8374 20.1241 20.7236 20.0638C20.5407 19.9639 20.1496 19.8692 19.8252 19.751C19.6938 19.7026 19.6704 19.6208 19.5311 19.5746C18.6588 19.2523 16.8286 19.0789 16.017 19.028C15.8172 19.0087 15.6221 18.915 15.5135 18.9214C15.4292 18.9534 15.3449 18.9862 15.2607 19.0195C14.9974 18.7253 14.9078 18.9909 14.6332 19.0293C14.4567 19.0544 14.3676 18.9722 14.3434 18.9737C14.1817 18.9851 14.1096 19.0324 13.9858 19.049C13.8476 19.0673 13.6422 19.0472 13.5923 19.0597C13.5622 19.0689 13.6706 19.1692 13.1352 19.2322C12.5866 19.3004 12.0513 19.3809 11.4994 19.4969C11.758 19.8009 11.862 19.5329 12.0835 19.4778C12.1425 19.4633 12.115 19.5253 12.1663 19.5133C12.3131 19.4789 12.5888 19.3771 12.713 19.3722C12.8478 19.3666 12.8188 19.5016 12.9818 19.4304C12.99 19.4268 12.9555 19.3774 12.9942 19.3631C13.3836 19.2226 13.524 19.2984 14.0304 19.2591C14.3657 19.2008 16.4046 19.1602 16.4754 19.2313C16.8227 19.4205 14.6954 19.3536 14.4486 19.3897C14.3607 19.3893 14.4495 19.3251 14.3686 19.3184C14.3319 19.3158 14.0405 19.4461 13.7426 19.4845C13.3839 19.5263 12.6538 19.5491 12.3112 19.6162C9.38876 20.1593 6.6021 21.3138 4.23697 23.137C4.18685 23.1759 4.16235 23.2795 4.001 23.4087C3.47243 23.8328 2.96677 24.2835 2.47729 24.7691L1.85984 24.0652C4.28845 22.0809 6.26285 19.2083 7.24938 16.1784C7.50517 15.3704 7.63103 14.5446 7.77858 13.7133C7.74167 13.6037 7.70314 13.4953 7.66303 13.3881C7.68204 13.6559 7.50255 14.1227 7.49238 14.1641C7.4893 14.1796 7.52904 14.2871 7.49683 14.4464C7.45126 14.6702 7.38174 14.7576 7.37816 14.7758C7.36586 14.8323 7.42402 14.8061 7.41195 14.8601C7.32009 15.2632 7.24987 15.5767 7.13746 15.9423C7.00792 16.3548 6.84266 16.5266 6.82862 16.8578C6.7776 16.8764 6.72658 16.8946 6.67555 16.9125C6.76857 17.1994 6.16334 18.4832 5.86173 18.9706C5.7704 19.1279 5.72324 19.0642 5.69329 19.117C5.67316 19.1503 5.76704 19.1854 5.50696 19.5825C5.37406 19.7825 5.28244 19.7977 5.22091 19.8989C5.18726 19.954 5.25079 19.981 5.19971 20.06C4.90296 20.5158 4.63294 20.8597 4.30105 21.2747C4.20799 21.3904 4.16221 21.3561 4.14265 21.3826C4.07287 21.4761 4.01093 21.711 3.81451 21.9458C3.4891 22.3462 2.79273 23.0858 2.45359 23.3276C2.40523 23.3634 2.3239 23.3458 2.29308 23.3753C2.243 23.4233 2.27069 23.4936 2.26194 23.502C2.09426 23.6521 2.15162 23.5136 2.05224 23.6207C2.00374 23.6732 1.98033 23.8002 1.84634 23.9175C1.82253 23.9383 1.80181 23.9539 1.7835 23.9658L2.56593 24.8577C2.68587 24.7542 2.71767 24.823 2.77757 24.7525C2.78456 24.7437 2.74016 24.6933 2.81385 24.619C3.09049 24.3389 3.51082 23.9421 3.79708 23.7059C3.87856 23.6381 3.9707 23.6204 4.08775 23.5272C4.30822 23.3234 5.70009 22.3137 5.84171 22.2791C5.85558 22.2737 5.77987 22.4369 5.98241 22.3075C6.02098 22.2354 6.06005 22.1635 6.09962 22.0918C6.23502 22.0871 6.36956 22.0842 6.50319 22.0832C6.38185 21.8875 6.97995 21.5183 7.08171 21.7306C7.15266 21.7039 7.22356 21.6777 7.29443 21.6521C7.35992 21.4391 7.48289 21.4423 7.71758 21.2267C7.78163 21.2508 7.84535 21.2753 7.90874 21.3002C7.90574 21.2655 7.90281 21.2307 7.89993 21.196C8.11863 21.2903 8.29253 21.0198 8.32225 21.0063C8.43555 20.9534 8.53919 20.9594 8.59232 20.9359C8.78873 20.8483 9.2129 20.6187 9.4614 20.5633C9.47326 20.5607 9.48738 20.6362 9.55913 20.6211C9.68821 20.5944 9.66542 20.4844 9.87148 20.5538C9.8945 20.5117 9.91769 20.4697 9.94105 20.4277C9.98171 20.4324 10.0223 20.4373 10.0627 20.4423C10.2683 20.3683 10.4805 20.2965 10.689 20.2299C10.5322 20.4074 10.7697 20.414 10.9531 20.2616C11.0159 20.2098 10.9328 20.1505 10.9537 20.1328C10.9826 20.102 11.9563 19.9197 12.0305 19.9636C12.0713 19.9305 12.1123 19.8974 12.1535 19.8646C12.1857 19.9087 12.2178 19.9529 12.2496 19.9972C12.2712 19.9756 12.2939 19.954 12.3163 19.9324C12.5838 19.9688 13.2101 19.6781 13.3353 19.6819C13.4005 19.683 13.3675 19.8966 13.6686 19.8433C13.6735 19.7848 13.6784 19.7262 13.6835 19.6677C13.7538 19.6524 13.824 19.6375 13.894 19.6231C14.0278 19.6163 14.2261 19.7026 14.2363 19.7707C14.2736 19.727 14.3136 19.6833 14.3527 19.6398C14.4744 19.764 15.0558 19.6936 15.2957 19.6113C15.3653 19.6514 15.434 19.692 15.5018 19.733C15.5951 19.6849 15.6911 19.6376 15.786 19.5912C16.0032 19.5832 15.7718 19.6575 15.8178 19.6657C15.913 19.6803 16.4176 19.5702 16.3737 19.7408C16.441 19.7458 16.5078 19.7512 16.5741 19.757C16.6123 19.711 16.6506 19.665 16.6892 19.6192C16.7899 19.7987 16.9965 19.7548 17.3906 19.8726C17.4301 19.839 17.4699 19.8055 17.5098 19.7722C17.6277 19.8461 17.7378 19.9206 17.8522 19.9978C17.8893 19.9391 17.9268 19.8806 17.9645 19.8222C18.0207 19.8235 18.0766 19.8251 18.1321 19.827C18.2104 19.99 18.4373 19.8813 18.5238 19.9642C18.6457 20.0848 18.5106 20.1543 18.2422 20.1146C18.2428 20.2154 19.0237 20.3678 19.1872 20.4249C19.1823 20.4016 19.178 20.3785 19.1732 20.3553C18.9976 20.3144 18.8044 20.2746 18.6249 20.2444C18.5366 19.9474 19.0246 20.1487 19.251 20.1928C19.2711 20.1965 19.4269 20.1405 19.6432 20.2336C19.7293 20.2681 19.9986 20.5439 20.0483 20.5795C20.486 20.878 20.2552 20.5115 20.5907 20.9261C20.5778 20.753 20.7669 21.0008 20.9908 21.1581C21.0076 21.1698 21.0862 21.2084 21.1655 21.2521L22.2093 20.2002C22.0754 20.1134 21.9294 20.017 21.915 20.0043C21.7589 19.8672 22.0024 19.9442 21.7764 19.7509C21.7284 19.7472 21.6804 19.7435 21.6325 19.7396C21.5862 19.6892 21.5405 19.6389 21.4955 19.5887C21.4335 19.0814 21.213 19.1454 21.0966 19.0487C21.0505 19.0097 21.1569 19.0207 21.0484 18.9121C21.0074 18.8705 20.9202 18.8635 20.8196 18.7409C20.4993 18.343 20.6446 18.0789 20.1571 17.8477C20.1536 17.767 20.1514 17.687 20.1504 17.6077C20.0847 17.5944 20.019 17.5806 19.9534 17.5664C19.8985 17.1949 19.8372 17.3746 19.7743 17.2608C19.6037 16.9605 19.3422 16.3257 19.4313 16.2237C19.0708 16.0658 19.2359 15.6233 19.1942 15.5263C19.1424 15.4737 19.0913 15.4206 19.0409 15.3669C19.0499 15.284 19.0591 15.1979 19.07 15.1135C18.8234 15.2195 18.9733 14.7567 18.9725 14.7223C18.9629 14.6845 18.7719 14.0828 18.7561 13.8514C18.7298 13.6177 18.7854 13.2181 18.7866 13.1816C18.7845 13.1405 18.7088 12.7522 18.7342 12.4406C18.7127 12.1637 19.1432 10.619 19.03 10.6898C18.9697 10.7831 18.9037 10.9226 18.8586 11.0464C18.6341 11.4171 18.4315 13.8165 18.6205 14.4252C18.7962 15.6574 19.3189 16.862 19.9842 17.9417C20.0236 18.0058 19.9726 18.0528 20.0074 18.1085C20.0626 18.1969 20.2539 18.3551 20.3087 18.4338C20.509 18.729 20.7759 19.0845 20.8946 19.2299C21.1672 19.5655 21.3378 19.8156 21.5542 20.0567C21.5981 20.1054 21.7846 20.2534 21.9815 20.428L21.3916 21.0225C21.2983 20.9425 21.1884 20.8522 21.1051 20.7718C21.071 20.7211 21.0342 20.67 20.995 20.6189C21.1007 20.6731 21.3211 20.8013 21.4809 20.9318L21.8915 20.5181C21.8078 20.448 21.7333 20.3823 21.6815 20.3319C21.4384 20.0945 21.366 19.9304 21.2843 19.8418C21.2211 19.776 20.8125 19.4021 20.668 19.2205C20.6216 19.1635 20.6685 19.1072 20.6299 19.0587C20.4111 18.7862 20.1468 18.4228 19.9246 18.2128C20.0071 18.3029 19.6334 17.6333 19.6216 17.6013C19.5888 17.5449 19.492 17.5124 19.4232 17.3878C19.2937 17.1484 19.4337 17.1162 19.1621 16.8832C19.1643 16.794 19.1638 16.6967 19.1672 16.605C18.9816 16.6761 18.8312 15.6201 18.55 15.4042C18.4992 15.4041 18.9064 16.7178 18.9782 16.8213C19.2353 17.4468 19.8196 18.309 20.1864 18.8459C20.2987 19.0211 20.5998 19.5772 20.6367 19.6136C20.6891 19.6711 20.6938 19.5755 20.7171 19.5997C21.2036 20.092 20.8839 19.9176 20.9145 20.0116ZM16.2711 6.52589C16.4522 6.47371 16.6484 6.41093 16.8233 6.35129C16.8253 6.39453 16.8273 6.43779 16.8291 6.48107C16.744 6.49664 16.6504 6.51443 16.5608 6.52961C16.504 6.57607 16.4471 6.62193 16.3901 6.6672C16.3501 6.62029 16.3104 6.57318 16.2711 6.52589ZM15.8713 6.83026C15.713 6.89696 15.6828 6.81438 15.6445 6.8205C15.5304 6.83769 15.4438 6.89547 15.3373 6.91937C15.4116 6.69142 15.6902 6.71618 15.8713 6.83026ZM19.1106 5.47458C19.0701 5.48721 18.7345 5.4291 18.5809 5.74735C18.3636 5.79152 18.131 5.83879 17.9081 5.87542C18.2935 5.79932 18.6812 5.46531 18.8433 5.3745C18.9044 5.34082 18.9503 5.39264 18.9995 5.36494C19.285 5.20313 19.4504 4.91371 19.6024 5.0837C19.3123 5.19227 19.1655 5.45614 19.1106 5.47458ZM17.3606 6.28491C17.2947 6.26225 17.2294 6.23899 17.1648 6.21514C17.3321 6.14481 17.5041 6.06806 17.6626 5.99377C17.639 6.0574 17.6151 6.1209 17.5909 6.18428C17.5195 6.21621 17.4369 6.25241 17.3606 6.28491ZM20.475 7.49305C20.5378 7.39653 20.6017 7.30087 20.6664 7.2061C20.6344 7.19201 20.5612 7.30142 20.5152 7.32941C20.5154 7.32923 20.5155 7.32906 20.5156 7.32887C20.464 7.35984 20.4397 7.31602 20.3693 7.38862C20.4045 7.4235 20.4397 7.45831 20.475 7.49305ZM7.82086 13.2623C7.87847 13.0703 7.81645 11.297 7.67673 11.466C7.62657 11.5442 7.7214 12.1362 7.71798 12.3122C7.72648 12.5539 7.56269 13.1809 7.82086 13.2623ZM7.5956 10.1475C7.48221 10.1498 7.66764 11.2193 7.68536 11.3263C7.70036 11.3018 7.73538 11.2622 7.74041 11.2308C7.77047 11.0754 7.62785 10.3881 7.5956 10.1475ZM18.3118 13.4269C18.3703 13.3354 18.4302 13.2426 18.4917 13.1534C18.4102 13.178 18.3287 13.2034 18.2474 13.2295C18.2681 13.2963 18.2896 13.3625 18.3118 13.4269ZM20.9156 20.6104C19.718 19.8168 18.1785 19.4751 16.6826 19.3344C16.8163 19.3118 16.9572 19.2918 17.0932 19.2732C18.3939 19.4362 19.7618 19.8117 20.8326 20.4131C20.863 20.4793 20.8874 20.5428 20.9156 20.6104ZM19.6629 5.57027C19.9883 5.3678 20.2435 5.12572 20.6341 4.96692C20.3637 5.27072 20.1053 5.27166 19.8485 5.59836C19.8483 5.59848 19.8481 5.5986 19.8479 5.59871C19.7859 5.58965 19.7242 5.58017 19.6629 5.57027ZM22.3831 4.57682C22.421 4.45308 22.4661 4.32297 22.5082 4.19726C22.4074 4.30117 22.3054 4.4081 22.2083 4.51183C22.2667 4.53331 22.325 4.55497 22.3831 4.57682ZM8.0627 20.5053C7.72971 20.7764 6.68169 21.0432 6.45799 21.3473C6.44432 21.3664 6.64799 21.3255 6.42717 21.5892C6.62602 21.4485 6.76595 21.3458 6.73645 21.2519C6.81573 21.2468 6.89473 21.2424 6.97346 21.2386C7.06761 21.162 7.16242 21.0863 7.25999 21.0106C7.291 21.1028 7.29671 21.0934 7.43381 20.954C7.52003 20.9396 7.60601 20.9259 7.69174 20.9129C7.70653 20.8611 7.72155 20.8093 7.73678 20.7575C7.82613 20.7793 7.91561 20.8015 8.00521 20.8242C8.23901 20.6539 8.03756 20.6218 8.0627 20.5053ZM9.42431 20.0034C9.3427 19.9854 7.5952 20.7707 8.47168 20.6188C8.67382 20.529 8.88497 20.44 9.09189 20.3571C8.80664 20.1225 9.48114 20.1798 9.53139 20.1724C9.77011 20.1234 10.0351 19.9608 10.2071 19.914C10.3531 19.8742 10.4544 19.9048 10.5552 19.8751C10.898 19.772 11.451 19.6408 11.4994 19.4969C11.2254 19.5546 10.9467 19.6212 10.6643 19.7007C10.3711 19.7846 10.0641 19.7396 9.5684 20.0845C9.42638 20.1133 9.44253 20.003 9.42431 20.0034ZM22.7708 3.94938C22.8548 4.04905 23.3519 3.51987 23.3227 3.4787C23.3032 3.45471 23.1287 3.62272 23.0964 3.63824C23.0963 3.63839 23.0961 3.63854 23.096 3.63869C23.0824 3.6448 23.0981 3.55907 23.0092 3.62578C22.9303 3.73169 22.8508 3.83958 22.7708 3.94938ZM7.57275 16.0677C7.71772 16.0074 8.16482 13.7902 8.08708 13.7146C8.07929 13.6957 8.04417 13.7169 8.02631 13.7077C8.07542 14.2417 7.8115 14.9548 7.67568 15.4282C7.63851 15.5611 7.69948 15.5348 7.69852 15.5426C7.69843 15.5429 7.69834 15.5433 7.69826 15.5436C7.67884 15.6209 7.45831 15.923 7.57275 16.0677ZM5.86254 21.7609C5.9556 21.7288 6.04854 21.6977 6.14134 21.6676C6.14164 21.62 6.1421 21.5725 6.1427 21.5249C6.1425 21.525 6.14231 21.5251 6.14212 21.5252C6.04837 21.6027 5.95517 21.6813 5.86254 21.7609ZM3.09857 23.6181C3.13527 23.6242 3.17189 23.6304 3.20845 23.6368C3.39401 23.4805 3.57884 23.3307 3.77188 23.1803C3.76303 23.2083 3.75424 23.2363 3.74552 23.2643C4.05725 23.0682 4.11448 22.8989 4.27797 22.7934C4.2778 22.7936 4.27762 22.7937 4.27744 22.7938C4.29538 22.7825 4.35175 22.8151 4.41567 22.7702C4.56217 22.6649 4.98972 22.392 5.00775 22.3087C5.04179 22.1238 4.23034 22.7712 4.08108 22.8889C4.01084 22.9394 3.89606 22.9627 3.85356 22.9947C3.80714 23.03 3.78925 23.1345 3.67781 23.2224C3.64311 23.2482 3.24014 23.4753 3.09857 23.6181ZM4.19223 22.2046C4.0965 22.2185 4.04224 22.3797 3.99633 22.4166C3.98551 22.4254 4.01387 22.3089 3.91712 22.3966C3.92135 22.4485 3.92547 22.5003 3.92947 22.5521C4.01702 22.439 4.1098 22.3169 4.19223 22.2046ZM23.619 3.05068C23.5938 3.05402 23.3064 3.32859 23.3007 3.34696C23.2101 3.59384 23.7964 3.02884 23.619 3.05068ZM17.1386 7.27294C17.3781 7.4034 15.2574 7.89162 15.037 7.88794C15.026 7.78257 15.5545 7.78159 15.2583 7.6929C15.5279 7.72577 16.2016 7.49731 16.3614 7.46632C16.4602 7.45013 16.5135 7.53073 16.5289 7.52887C16.5871 7.52403 17.0653 7.2392 17.1386 7.27294ZM13.2625 7.99264C13.4643 8.01077 13.6678 8.02272 13.8776 8.02781C13.6313 8.05818 13.3984 8.07923 13.1506 8.09168C13.1881 8.05888 13.2254 8.02587 13.2625 7.99264ZM13.0021 8.0414C13.0069 8.15163 12.3088 8.04035 12.1265 8.03752C12.3471 7.88244 12.6784 8.07636 13.0021 8.0414ZM23.3647 3.37128C23.6536 3.20083 23.53 2.87863 23.342 3.24146C23.3361 3.25311 23.3521 3.37785 23.3647 3.37128ZM7.79127 20.1328C7.73675 20.1511 7.0648 20.3484 7.05046 20.416C7.00792 20.6185 7.38936 20.3604 7.55277 20.3554C7.8162 20.347 7.52134 20.5659 8.04297 20.2722C8.0335 20.3119 8.02414 20.3517 8.01491 20.3914C8.33711 20.2655 8.14593 20.1012 8.19234 20.0498C8.20691 20.0339 8.41479 19.97 8.44756 19.9418C8.84199 19.5878 7.83632 20.1063 7.79127 20.1328ZM19.8922 6.85968C19.4601 7.35144 19.7248 7.18994 19.3821 7.75567C19.4277 7.80716 19.8906 6.96244 19.8922 6.85968ZM13.9275 18.7087C13.2604 18.7926 12.7041 18.7736 12.1078 19.0097C12.1806 19.1689 14.095 18.7244 13.9275 18.7087ZM7.98271 8.48971C8.73229 11.0843 8.70373 14.1938 7.73134 16.815C7.62822 17.1001 7.54388 17.0983 7.51262 17.2028C7.49161 17.2711 7.55428 17.2822 7.51907 17.3709C6.34238 20.2253 4.63685 22.7582 2.3118 24.6539L1.9525 24.2443C2.19444 24.0045 2.43831 23.7765 2.69027 23.5543C2.84573 23.408 3.69975 22.8671 3.75159 22.5809C3.78728 22.3574 3.28422 22.9058 3.19323 22.985C3.12298 23.0424 3.07371 22.9901 3.02704 23.0292C2.9776 23.0709 3.05007 23.0737 2.99353 23.1229C2.75434 23.3316 2.48049 23.553 2.27587 23.7522C2.13853 23.8855 2.00241 24.0212 1.86752 24.1593L2.38498 24.7492C4.43546 23.0373 5.96286 20.9471 7.15062 18.6069C7.29997 18.3017 7.32042 18.388 7.32836 18.3729C7.32833 18.3727 7.32829 18.3724 7.32826 18.3721C8.12341 16.7163 8.60912 14.6358 8.68345 12.6826C8.75097 11.305 8.55081 9.90132 8.06816 8.58693C8.03987 8.55435 8.01138 8.52194 7.98271 8.48971ZM9.19649 19.7965C8.96531 19.6496 9.00515 19.8603 8.40824 20.0003C8.37643 20.0529 8.34533 20.1055 8.31428 20.1583C8.60461 20.0306 8.90212 19.9088 9.19745 19.7962C9.19713 19.7963 9.19681 19.7964 9.19649 19.7965ZM5.56844 21.4301C5.3224 21.2251 4.29067 22.1447 3.78169 22.4841C3.7794 22.6674 4.45302 22.0813 4.63577 21.9814C4.72581 21.9271 5.27215 21.7412 5.58897 21.4526C5.58213 21.4451 5.57529 21.4376 5.56844 21.4301ZM19.387 6.68002C19.4695 6.62354 19.5522 6.566 19.6351 6.50737C19.4003 6.6076 19.1687 6.69992 18.9404 6.78464C19.286 6.62477 19.6601 6.43292 19.9963 6.2488C19.9669 6.33867 19.937 6.42832 19.9067 6.51776C19.7326 6.5753 19.5582 6.63002 19.387 6.68002ZM20.4686 5.98151C19.8974 6.37809 20.4168 5.85153 20.6034 5.8107C20.7155 5.78763 20.5271 5.94057 20.4686 5.98151ZM21.9929 5.01452C21.8197 5.28879 21.2704 5.69858 21.3388 5.38406C21.686 5.2528 21.8107 5.05616 22.2397 4.78788C22.2076 4.86605 22.1752 4.94394 22.1428 5.02156C22.1425 5.02177 22.1422 5.02198 22.1419 5.02219C22.0921 5.01986 22.0424 5.0173 21.9929 5.01452ZM20.2711 6.26313C19.8217 6.40756 20.9559 5.71989 20.651 6.01561C20.6361 6.03121 20.2884 6.25897 20.2711 6.26313ZM8.92398 11.337C8.8496 11.2877 8.88548 11.6475 8.88666 11.7685C8.90175 12.2886 8.92334 12.9562 8.86393 13.4941C8.89035 13.4557 8.91658 13.417 8.94262 13.378C8.99659 12.7011 8.99302 12.0178 8.92398 11.337ZM8.60478 15.1544C8.52487 15.5137 8.43058 15.8693 8.32355 16.2204C8.3138 16.253 8.32286 16.4245 8.37246 16.3145C8.46566 15.9305 8.54357 15.5439 8.60478 15.1544ZM11.2608 18.7685C10.9779 18.7907 11.7278 18.4218 11.7345 18.6428C11.577 18.6825 11.4183 18.7246 11.2608 18.7685ZM13.8174 18.2862C13.6444 18.3213 13.4678 18.3594 13.2989 18.3992C13.2959 18.3747 13.2929 18.3502 13.2898 18.3257C13.4625 18.3104 13.6421 18.2968 13.8174 18.2862ZM8.71812 9.86967C8.68511 10.0787 8.79101 10.5186 8.83057 10.8006C8.87423 10.5942 8.75116 10.143 8.71812 9.86967ZM7.28115 20.0323C7.32366 20.0682 6.32221 20.5519 6.62012 20.2894C6.83822 20.2 7.06103 20.1132 7.28115 20.0323ZM5.24468 21.0295C5.44403 20.8923 5.61455 20.8164 5.61772 20.9191C5.5067 20.9799 5.39585 21.042 5.2852 21.1055C5.27169 21.0802 5.25818 21.0549 5.24468 21.0295ZM23.0561 4.36663C23.3453 4.10831 23.6511 3.8241 23.9313 3.5526C23.9376 3.58044 23.9438 3.60828 23.9501 3.63613C23.6757 3.90119 23.383 4.17305 23.1029 4.42336C23.0873 4.40445 23.0717 4.38554 23.0561 4.36663ZM8.87322 9.5853C8.78193 9.30985 8.67656 9.02998 8.56437 8.76674C8.64594 9.04129 8.71976 9.32998 8.77889 9.61164C8.81053 9.60306 8.84218 9.59448 8.87382 9.5859C8.87362 9.5857 8.87342 9.5855 8.87322 9.5853ZM18.6381 7.70885C19.8287 7.24086 18.435 8.08773 18.0429 8.05338C18.0426 8.05365 18.0424 8.05393 18.0421 8.0542C18.0089 8.05216 18.0381 7.96107 17.9814 7.95365C18.1125 7.93322 18.2527 7.90688 18.3788 7.88511C18.4666 7.80032 18.5541 7.71433 18.6411 7.62714C18.6826 7.62485 18.7242 7.62234 18.7659 7.61961C18.7233 7.64963 18.6807 7.67937 18.6381 7.70885ZM13.6603 9.10298C12.4753 9.11118 13.6788 8.93527 14.2707 9.00574C14.2737 9.04111 13.7703 9.10236 13.6603 9.10298ZM16.6865 8.51219C16.8537 8.44242 17.0216 8.36862 17.1902 8.29069C17.2194 8.30216 17.2488 8.31353 17.2782 8.32479C17.1508 8.39312 17.0235 8.45908 16.8963 8.52271C16.8259 8.51987 16.7559 8.51636 16.6865 8.51219ZM22.0802 5.99878C22.3317 5.83678 22.4902 5.43495 21.7733 6.04272C21.7881 6.06238 21.803 6.08203 21.8179 6.10169C21.8457 6.07672 21.9202 5.99328 21.9261 5.99113C21.9436 5.9858 21.976 6.06451 22.0802 5.99878ZM11.3501 9.6207C11.3142 9.62328 11.2472 9.88108 10.9261 9.54408C10.8099 9.53737 10.6946 9.52901 10.58 9.51906C10.5644 9.45657 10.5493 9.39407 10.5348 9.33159C10.9477 9.4744 11.0222 9.36366 11.0524 9.3685C11.1942 9.38438 11.0796 9.4235 11.1701 9.441C11.4015 9.48906 11.9596 9.51868 11.687 9.6553C11.5874 9.70436 11.3867 9.61758 11.3501 9.6207ZM12.1926 9.8729C12.1405 9.84689 12.3204 9.78505 12.2812 9.7603C12.244 9.74178 11.7301 9.60958 11.8863 9.49665C11.9698 9.51166 12.0539 9.52577 12.1388 9.53894C12.1645 9.57664 12.1906 9.61425 12.217 9.65178C12.3035 9.62636 12.3899 9.59996 12.4761 9.57259C12.6099 9.66811 12.9051 9.79228 12.546 9.84725C12.677 9.84672 12.809 9.84399 12.942 9.83896C13.0116 9.79858 13.0807 9.75757 13.1494 9.71593C13.1134 9.77937 13.0769 9.84264 13.0399 9.90574C12.7554 9.90512 12.48 9.89469 12.1926 9.8729ZM8.23385 8.77624C8.26246 8.75349 8.29098 8.73066 8.31943 8.70775C7.85534 8.56452 7.19633 8.21236 7.66308 8.23856C8.23275 8.53182 8.83026 8.78304 9.44222 8.98086C9.47451 9.01842 9.5073 9.05589 9.54057 9.09327C9.11451 8.84194 9.12004 9.27475 8.75926 9.0049C8.70133 8.95835 8.9438 8.91115 8.49978 8.81639C8.50076 8.85289 8.5019 8.88942 8.5032 8.92598C8.41465 8.87804 8.3235 8.82753 8.23385 8.77624ZM4.89974 6.45005C5.4627 7.01743 4.72066 6.51886 4.68932 6.34677C4.68949 6.34693 4.68967 6.34709 4.68984 6.34726C4.58271 5.87237 5.12423 6.56171 5.1638 6.58687C5.22107 6.63317 5.46038 6.58884 5.58229 7.05455C5.34323 6.85569 5.11982 6.65705 4.89974 6.45005ZM6.96467 8.08454C6.90349 8.05405 6.96168 8.03196 6.9365 8.01709C6.93628 8.01695 6.93607 8.01682 6.93585 8.01668C6.55197 7.8027 5.69399 7.21771 5.71782 7.02202C5.962 7.22731 7.15708 7.99567 7.18737 8.11908C7.1127 8.10796 7.03847 8.09644 6.96467 8.08454ZM9.82915 9.26871C10.0595 9.44784 9.46687 9.28019 9.33012 9.17568C9.30449 9.15527 9.59764 9.08568 9.82915 9.26871ZM21.5621 2.08143C21.2199 2.50264 21.7696 2.05234 21.6625 2.29279C21.7285 2.21693 21.7999 2.13651 21.8692 2.05889C21.7677 2.0652 21.663 2.07492 21.5621 2.08143ZM19.17 17.136C19.0336 17.0916 19.0859 17.1652 19.0736 17.1631C18.9819 17.1399 18.9087 17.0742 18.8735 17.0718C18.2183 17.0361 18.6324 17.1725 18.6357 17.1844C18.6369 17.2446 18.4599 17.2787 18.6732 17.3907C18.8138 17.3988 18.9555 17.4091 19.1016 17.423C19.1633 17.4715 19.2241 17.5203 19.2838 17.5695C19.5731 17.5735 19.2233 17.4608 19.2029 17.3611C19.195 17.3215 19.4711 17.3451 19.17 17.136ZM20.7291 2.63873C20.7402 2.77581 20.6833 3.02494 20.9073 2.93986C20.9075 2.93968 20.9076 2.93951 20.9078 2.93933C20.9492 2.92325 21.0688 2.81414 21.1221 2.79778C21.2671 2.45389 21.0758 2.4435 20.7291 2.63873ZM21.8414 17.938C22.0756 18.0938 22.2976 18.257 22.5332 18.4524C22.4934 18.5 22.4536 18.5477 22.414 18.5954C22.2923 18.4897 22.1805 18.3972 22.0617 18.3052C22.0025 18.3021 21.9435 18.2998 21.8847 18.2982C22.0092 18.4525 22.1152 18.6026 22.2319 18.7688C22.4324 18.8777 22.6222 18.9916 22.8263 19.1377C22.765 19.0403 22.6934 18.9389 22.6321 18.8496C22.9629 19.0824 22.9731 19.1901 23.0458 19.3426L20.3144 22.0952C20.2957 22.037 20.2666 21.9691 20.2006 21.8756C20.074 21.828 19.9482 21.7797 19.823 21.7305C19.7441 21.5628 19.6693 21.396 19.5986 21.2302C19.3811 21.0254 19.3283 21.0295 19.4145 21.2282C19.2573 21.1632 19.2388 20.9608 19.1009 20.843C19.0895 20.8332 19.0531 20.8999 19.044 20.8903C18.4277 20.2106 18.6044 20.1044 18.5226 19.9871C18.463 19.8993 18.1208 19.6283 18.0827 19.6459C18.0274 19.6607 18.3485 20.5575 17.5515 19.365C17.8233 20.0961 18.4528 20.6434 18.3194 20.0816C18.4343 20.2929 19.0945 21.0223 19.1364 21.0723C19.1886 21.1495 19.1009 21.1817 19.176 21.2718C19.2238 21.3271 19.4833 21.329 19.7153 21.8319C19.7858 21.8589 19.8564 21.8855 19.9273 21.9119C19.9522 21.9767 19.9776 22.0415 20.0036 22.1065C19.8418 22.0787 19.6804 22.0495 19.5194 22.0187C19.7013 22.1483 19.8386 22.3014 19.9642 22.4453L23.3933 18.9898C23.1272 18.7025 22.8784 18.4762 22.6195 18.4093C22.3171 18.1723 22.1915 18.0825 22.3639 18.0888C22.2728 18.0309 22.1806 17.9749 22.0871 17.9208C22.0033 17.9244 21.9195 17.9292 21.8414 17.938ZM19.7446 3.95038C19.5003 4.09189 19.5994 4.29981 19.6348 4.27451C19.8321 4.13502 19.8711 3.87825 19.7446 3.95038ZM19.6504 17.3759C19.9482 17.5163 20.238 17.6675 20.5255 17.8343C20.5489 17.7732 20.5722 17.712 20.5955 17.6509C20.2788 17.543 19.9661 17.4534 19.6504 17.3759ZM21.5174 1.92002C21.5708 1.93656 21.6242 1.95329 21.6774 1.97021C21.7814 1.6219 22.1853 1.59893 22.2619 1.45727C22.2784 1.42649 22.171 1.40725 22.1112 1.43694C22.0712 1.45564 21.5489 1.86412 21.5174 1.92002ZM16.2671 9.75765C16.3828 9.69413 16.4982 9.62885 16.6133 9.56181C16.6215 9.61683 16.6297 9.67185 16.6378 9.7269C16.5786 9.75434 16.5194 9.78132 16.4603 9.80785C16.3954 9.79163 16.331 9.77489 16.2671 9.75765ZM17.6252 9.24431C17.8449 9.16862 18.0408 9.09672 18.2507 9.01462C17.484 9.37493 18.1461 9.14166 17.6803 9.39494C17.6619 9.34473 17.6436 9.29452 17.6252 9.24431ZM19.7237 8.42992C19.7144 8.47199 19.705 8.5141 19.6955 8.55618C19.4945 8.66092 19.2943 8.76047 19.0952 8.85494C19.2701 8.89849 19.4479 8.93884 19.6285 8.9759C19.7034 8.93846 19.7785 8.90033 19.8537 8.86149C19.8109 8.7174 19.7676 8.57352 19.7237 8.42992ZM13.1716 16.5815C13.04 16.5924 12.5931 16.7512 12.618 16.7858C12.8149 16.8043 13.0095 16.8257 13.2019 16.8501C13.1956 16.7848 13.1893 16.7195 13.183 16.6543C13.2133 16.6838 13.2435 16.7134 13.2735 16.743C13.3792 16.7072 13.4867 16.6721 13.5933 16.6379C13.6533 16.6901 13.7128 16.7426 13.7716 16.7953C13.8209 16.7256 13.8705 16.6562 13.9206 16.5869C13.3865 16.5121 13.4119 16.6314 13.3025 16.6402C13.247 16.6454 13.2085 16.6088 13.1866 16.5906C13.1816 16.5876 13.1766 16.5845 13.1716 16.5815ZM19.9878 17.0403C19.3181 16.8233 18.9148 16.9172 18.4651 16.6845C18.6979 17.0068 20.759 17.215 21.3785 17.8532C21.4748 17.8447 21.5717 17.8378 21.6691 17.8326C21.2482 17.6667 21.0368 17.473 20.8431 17.3792C20.6999 17.3105 20.6964 17.3654 20.6855 17.3603C20.685 17.3601 20.6844 17.3598 20.6839 17.3596C20.3434 17.2099 20.2464 17.1277 19.9878 17.0403ZM21.675 1.43737C21.5066 1.48781 21.3031 1.69385 21.3797 1.77833C21.5186 1.69007 21.6554 1.60558 21.7899 1.52488C21.747 1.52517 21.7038 1.42862 21.675 1.43737ZM20.0952 8.59148C20.2285 8.56196 20.487 8.37827 20.3205 8.35954C20.2907 8.35698 20.0534 8.56703 20.1262 8.32417C19.8656 8.47058 20.0191 8.60821 20.0952 8.59148ZM16.0365 15.5618C16.0048 15.4432 15.9752 15.3251 15.9476 15.2063C15.8967 15.1869 15.8459 15.1672 15.7952 15.1471C15.8739 15.2921 15.9533 15.4252 16.0365 15.5618ZM22.6322 0.469975C22.7194 0.497574 22.7798 0.477805 22.8337 0.440099L26.0229 3.87839C25.9196 3.9643 25.8381 4.11721 25.63 4.15161C25.559 4.21885 25.488 4.28542 25.4172 4.35134C25.417 4.3515 25.4169 4.35167 25.4167 4.35183C25.4572 4.3979 25.4977 4.44397 25.5382 4.49006C25.7243 4.31594 25.9111 4.1373 26.0986 3.95406L22.764 0.358963C22.7208 0.395145 22.6769 0.432154 22.6322 0.469975ZM19.5254 21.8995C19.4995 21.8301 19.4744 21.7609 19.4498 21.6919C19.3433 21.6247 19.2423 21.5621 19.1331 21.4885C19.1619 21.5571 19.1855 21.6193 19.2117 21.6841C19.3152 21.7565 19.4197 21.8283 19.5254 21.8995ZM25.0058 5.03067C25.2737 4.82216 25.2292 4.59649 24.9178 4.88397C24.7786 5.01154 24.7138 5.25683 25.0058 5.03067ZM6.64711 18.4682C6.76396 18.4328 6.8826 18.3977 7.00141 18.3638C7.02304 18.3095 7.04489 18.2552 7.06697 18.2009C6.92589 18.2884 6.78378 18.3785 6.64711 18.4682ZM18.5194 9.32909C18.5172 9.28542 18.5149 9.24178 18.5125 9.19816C18.6202 9.1612 18.7287 9.12258 18.8368 9.0829C18.8276 9.13176 18.8174 9.18102 18.8075 9.23007C18.7111 9.26422 18.615 9.29722 18.5194 9.32909ZM7.40963 18.1628C7.50261 18.1328 7.594 18.1042 7.68829 18.0751C7.7421 18.0322 7.79608 17.9896 7.85022 17.9472C7.75772 17.9618 7.66443 17.9773 7.57201 17.9931C7.51758 18.0494 7.46345 18.1059 7.40963 18.1628ZM22.4471 7.10405C22.5865 7.06551 22.934 6.61475 22.5156 6.87627C22.2502 7.03926 22.4261 7.10963 22.4471 7.10405ZM21.8822 7.55982C22.3532 7.3485 21.7852 7.1706 21.4251 7.77376C21.9301 7.3923 21.8533 7.57095 21.8822 7.55982ZM17.793 9.9568C17.7794 9.96133 17.7451 9.90111 17.6372 9.93624C17.2525 10.0633 16.7279 10.1899 16.4399 10.2581C15.7798 10.4755 13.5544 10.8443 13.2907 10.6016C13.2354 10.5606 13.3595 10.4344 13.3367 10.4282C13.2725 10.4129 12.8994 10.4708 12.9698 10.3792C13.338 10.3851 13.6838 10.3753 14.0475 10.3494C13.9635 10.4205 13.8785 10.4907 13.7925 10.56C14.7003 10.463 14.3903 10.4802 14.632 10.3152C14.7876 10.3514 14.9468 10.3845 15.1074 10.4146C15.4161 10.3107 15.729 10.1939 16.0334 10.0668C15.9746 10.1225 15.9071 10.1795 15.8432 10.2351C16.3419 10.2011 16.1921 10.1822 16.4248 10.0212C16.4357 10.0607 16.4466 10.1001 16.4575 10.1395C16.8859 9.92186 17.0102 10.0058 17.1047 9.97928C17.3022 9.9172 17.403 9.38986 18.2915 9.55553C18.5066 9.21778 18.6839 9.65263 18.7698 9.35426C19.3974 9.35954 18.3675 9.72327 17.8898 9.87932C17.8895 9.87941 17.8892 9.87951 17.889 9.8796C17.8516 9.89243 17.9257 9.91246 17.793 9.9568ZM20.2859 8.55249C20.1007 8.90497 21.2506 8.26436 20.7173 8.21899C20.6567 8.24331 20.5962 8.26718 20.5358 8.29062C20.4526 8.37901 20.369 8.46642 20.2852 8.55286C20.2854 8.55273 20.2856 8.55261 20.2859 8.55249ZM19.5951 3.18132C18.8962 4.13159 19.4224 3.7013 19.5912 3.3228C19.6255 3.24731 19.6298 3.19338 19.5951 3.18132ZM19.0717 16.6295C19.0482 16.6504 19.0246 16.6713 19.0012 16.6922C19.4301 16.754 20.218 17.0949 20.2588 16.9326C19.8618 16.8106 19.4695 16.7121 19.0717 16.6295ZM22.5726 17.9104C22.4841 17.8355 22.0889 17.5768 22.1061 17.6628C22.2607 17.8019 22.4085 17.9455 22.5499 18.0946C22.6481 18.1258 22.7462 18.1594 22.8444 18.1956C22.7376 18.1046 22.5945 17.9273 22.5726 17.9104Z" fill="var(--stroke-0, #0061FE)"/>
</g>
</svg>
