<svg preserveAspectRatio="none" width="100%" height="100%" overflow="visible" style="display: block;" viewBox="0 0 29.2557 29.3309" fill="none" xmlns="http://www.w3.org/2000/svg">
<g id="Ellipse 28">
<path d="M8.24087 4.4866C9.47526 5.72098 15.6373 12.208 25.3737 3.90104C26.0288 3.23969 26.6548 2.67903 27.1719 2.23436C26.5597 2.84653 25.9603 3.40063 25.3737 3.90104C21.8825 7.42553 17.5641 13.8098 24.4936 20.7393C21.8355 18.1218 11.013 18.0939 2.27547 27.1309C6.76392 22.4886 15.3629 12.4608 7.81477 4.9127L8.24087 4.4866Z" fill="var(--fill-0, #0061FE)"/>
<path d="M11.3929 4.07545C13.4525 5.79208 13.6746 8.06025 13.8352 10.4393C14.2259 16.0168 11.0187 21.476 8.31412 24.9C7.10163 26.4356 5.78073 27.8774 4.44491 29.2284L0.106032 25.0333C1.11981 24.0058 2.20038 23.0468 3.33405 22.1718C3.47373 22.0639 3.59763 22.0532 3.66091 22.0055C4.25683 21.5495 5.25989 20.7736 5.89993 20.3865C7.22812 19.5317 9.70263 18.2958 11.1067 17.8739C11.6902 17.6834 12.3058 17.4974 12.5809 17.5807C12.8005 17.5217 12.8779 17.3491 12.9328 17.3249C12.9335 17.3248 12.9342 17.3248 12.9348 17.3247C13.1101 17.247 13.6023 17.2186 13.705 17.1869C13.7202 17.1821 13.599 17.1045 13.858 17.0718C13.8809 17.0691 13.8779 17.1423 14.088 17.0926C14.1361 17.0786 14.8361 16.8101 15.0369 16.7673C15.7202 16.596 17.397 16.4593 18.2563 16.4365C18.387 16.4308 18.4551 16.3866 18.5983 16.3817C18.6713 16.3792 18.7808 16.4223 18.803 16.4217C18.9003 16.4171 19.3227 16.2127 19.1702 16.6172C19.6091 16.5951 19.4867 16.4622 19.497 16.3747C19.9878 16.3735 20.2077 16.5827 20.353 16.3897C22.2413 16.626 24.1789 16.7157 26.4699 18.7323L22.5019 22.731C22.1227 22.3433 21.7931 21.9816 21.4391 21.5598C21.4136 21.5806 21.3881 21.6015 21.3626 21.6223C21.0108 21.0025 20.6948 20.9464 20.6013 20.4992C20.4174 20.3183 20.2476 20.1483 20.0658 19.9494C18.2484 17.2268 17.3705 13.2997 18.3196 9.94968C19.2031 6.59924 21.1398 4.02411 23.1889 1.91648C23.3592 1.74401 23.4614 1.73903 23.7483 1.46004C24.0751 1.14281 24.4785 0.657368 24.9159 0.275343C25.0187 0.185298 25.1335 0.0915284 25.2504 0L29.2557 4.31816C28.9126 4.63407 28.5065 4.97052 28.1971 5.24543C28.1055 5.32711 28.0595 5.42902 28.0493 5.43804C27.9828 5.49618 27.9323 5.44708 27.8679 5.50253C27.791 5.56889 27.7346 5.68912 27.6453 5.76356C27.3122 6.04309 26.9733 6.34849 26.9217 6.38922C26.7076 6.55743 26.6186 6.53974 26.6009 6.55331C26.3637 6.73319 26.4894 6.71133 26.4293 6.75468C26.1184 6.97553 25.8142 7.01623 25.4662 7.45223C25.4444 7.39715 25.4224 7.34211 25.4004 7.2871C25.0533 7.49672 25.3588 7.46515 25.3076 7.53586C25.2911 7.56487 24.5524 8.04651 24.4871 8.08054C24.2805 8.20247 24.2346 8.13993 24.2168 8.15031C24.1753 8.17539 23.7135 8.56301 23.4006 8.66198C23.0411 8.77461 23.3415 8.42644 23.2474 8.44608C23.2316 8.4504 22.9076 8.64872 22.8405 8.62855C22.7669 8.60937 23.0522 8.45481 23.0372 8.43732C23.0257 8.42854 22.5048 8.5863 22.5614 8.47302C22.5979 8.37539 23.2777 8.10411 23.3974 7.98894C23.4169 7.97082 23.329 7.91851 23.3471 7.90397C23.4285 7.86046 24.8135 6.9508 24.8649 6.91445C24.8196 6.99687 24.774 7.07891 24.7282 7.16057C24.8225 7.10005 24.9171 7.03839 25.0119 6.97559C24.8996 7.09632 24.7872 7.21518 24.6745 7.3322C25.0613 7.47948 25.4611 6.76624 25.382 6.61248C25.3447 6.54385 24.8704 6.64593 25.1316 6.30739C25.0694 6.32889 25.0075 6.34996 24.9457 6.3706C24.8621 6.47269 24.7785 6.57365 24.6946 6.67348C24.7751 6.64164 24.8558 6.60904 24.9369 6.57567C24.9253 6.61302 24.9136 6.65033 24.9019 6.68761C24.7287 6.85865 24.5629 7.02029 24.3821 7.1877C24.2669 7.24447 24.2505 7.17225 24.171 7.20913C23.1831 7.64648 23.8922 7.44903 23.276 7.78897C23.169 7.80933 23.0627 7.82838 22.957 7.84612C23.064 7.96117 22.7446 8.03556 22.4501 8.26534C22.4659 8.2009 22.4815 8.13643 22.4968 8.07192C22.0238 8.36801 20.9109 8.58615 21.2934 8.71488C21.1653 8.74562 21.0381 8.77427 20.9119 8.80086C20.8298 8.88299 20.7471 8.96416 20.664 9.04436C20.5282 9.09147 20.3781 9.14172 20.2334 9.18732C20.2247 9.1647 20.2159 9.14208 20.2072 9.11946C20.3201 9.07948 20.4392 9.03561 20.5473 8.99432C20.4415 8.95556 20.3259 8.91966 20.2175 8.88017C20.1386 8.92159 20.0597 8.96216 19.9809 9.00188C20.3523 8.94737 19.9297 9.21539 19.8462 9.34274C19.5651 9.47081 19.3216 9.40655 19.2203 9.42844C19.1722 9.44207 18.6575 9.79781 18.8222 9.50516C18.5416 9.60364 18.2349 9.69703 17.944 9.77572C17.8262 9.77638 17.7008 9.77655 17.5781 9.77444C17.8195 9.62638 17.0587 9.58951 17.5977 9.4694C17.9959 9.37445 18.1031 9.45892 18.295 9.42111C18.4643 9.38623 18.5479 9.29432 18.722 9.24994C19.9366 8.93332 20.8794 8.57288 21.925 8.09183C22.1348 7.99416 22.3056 7.86371 22.4365 7.79831C22.588 7.72215 22.4445 7.90376 22.6243 7.77975C22.8134 7.64794 22.8201 7.55791 22.8722 7.52639C22.9045 7.50676 23.0425 7.50322 23.1394 7.4453C23.5234 7.21948 24.0365 6.80267 24.0923 6.76365C24.1545 6.73291 25.2096 6.0458 25.261 6.01021C25.289 5.99597 25.3874 6.23005 25.442 5.85753C25.5058 5.80167 25.5697 5.74522 25.6336 5.68818C25.6532 5.73508 25.6727 5.78201 25.6922 5.82897C25.9742 5.36548 25.9059 5.55497 26.2762 5.22722C26.8446 4.71971 27.5973 4.04862 28.2939 3.35634L26.1373 1.03132C25.7712 1.34287 25.4138 1.66109 25.1009 1.96054C24.8991 2.15456 24.8558 2.27583 24.6196 2.51163C24.3963 2.7296 23.6986 3.20266 23.9978 3.24157C23.3643 3.60662 23.5594 3.93911 23.1576 4.05503C23.1542 4.10907 23.1508 4.16314 23.1476 4.21724C22.7945 4.41512 22.8082 4.59185 22.5632 4.92834C22.4577 5.07576 22.467 4.81792 22.3751 5.21153C22.3224 5.26041 22.2708 5.30843 22.2191 5.35722C22.1997 5.32256 22.1804 5.28786 22.1612 5.2531C21.9413 5.59933 21.9126 5.61319 22.0497 5.65319C21.9139 5.80038 21.7817 5.94789 21.6503 6.09997C21.6736 6.14527 21.6969 6.19046 21.7204 6.23555C21.759 6.12273 24.501 2.6658 24.9841 2.29408C25.3319 2.04523 25.8202 1.57273 26.257 1.17052L28.1641 3.22652C27.8821 3.52898 27.6281 3.79242 27.4568 3.94083C27.2826 4.09132 27.1556 4.07326 26.8903 4.29825C26.6305 4.51818 26.3762 4.85974 26.2454 4.97473C25.8208 5.39927 23.5086 7.05832 25.0011 5.80497C24.9261 5.80033 24.8515 5.7952 24.7772 5.78957C24.2551 6.3809 24.4228 6.1326 23.8961 6.47454C23.6648 6.62549 23.1875 7.05464 23.1011 6.84433C23.4903 6.55687 23.9817 6.31175 24.3173 6.0675C24.3497 6.04534 24.7084 5.65855 24.9266 5.52405C25.1225 5.40408 25.129 5.67142 25.3775 5.16922C25.8184 5.11359 25.8629 4.79824 25.9168 4.72356C26.0191 4.58566 26.1077 4.66112 26.2451 4.55999C26.395 4.44951 26.4415 4.306 26.4602 4.28872C26.6684 4.1118 27.6073 3.20969 27.6874 3.18782C27.6629 3.24045 27.6384 3.29293 27.6139 3.34525C27.8874 3.12366 27.7527 3.09001 27.8086 3.01506C27.8328 2.99133 27.857 2.96751 27.8812 2.94361L26.5179 1.47387C26.4929 1.49508 26.4676 1.51657 26.4421 1.53833C26.4459 1.50287 26.4495 1.46754 26.453 1.43236C26.1578 1.69538 26.4341 1.5646 26.0078 1.93897C25.7303 2.18398 25.3885 2.37625 25.3686 2.4046C25.3624 2.41311 25.4883 2.38108 25.3865 2.48805C25.2159 2.66609 24.9055 2.96689 24.8119 2.94024C24.7331 3.03534 24.7994 3.08745 24.7891 3.10029C24.7398 3.15155 23.9165 4.05447 23.7808 4.22739C23.3851 4.6927 22.9417 5.20357 22.5588 5.74953C22.5196 5.80544 22.502 5.73858 22.463 5.79513C22.3978 5.88539 22.1444 6.39834 22.1047 6.47321C21.9973 6.65641 21.677 7.11094 21.6545 7.20144C21.6513 7.21372 21.8068 7.09318 21.7172 7.28887C21.6197 7.50584 21.5994 7.34721 21.5921 7.35772C21.3218 7.76223 21.2422 8.0699 21.1106 8.37458C21.0679 8.47347 20.9178 8.62406 20.8768 8.77361C20.8721 8.79071 20.9481 8.78576 20.9443 8.8029C20.8855 9.02694 20.6897 9.18133 20.6461 9.2729C20.5404 9.49643 20.675 9.40319 20.6709 9.41548C20.617 9.56911 20.5116 9.7669 20.4419 10.0065C20.1386 11.0778 19.9849 11.9946 19.9903 13.1959C19.9918 13.3477 19.9356 13.5291 19.937 13.5523C19.9419 13.6236 20.0158 13.5984 20.0301 13.8036C20.0629 14.2417 20.1264 14.634 20.2166 15.0558C20.2346 15.1391 20.1735 15.1909 20.1873 15.2556C20.2282 15.4811 20.6277 16.1363 20.4178 16.2223C20.76 16.5769 20.6996 16.8876 20.8523 17.2171C21.1932 17.9764 21.9144 19.0445 22.4014 19.6988C22.5024 19.8385 22.5023 19.933 22.5594 20.0089C22.6533 20.1472 23.3256 20.8613 23.3526 20.8948C23.4076 20.9785 23.1711 21.117 23.6985 21.3308C23.7427 21.3712 23.7748 21.4055 23.7978 21.4351L25.184 20.0382C25.064 19.896 25.1203 19.8559 25.0761 19.8099C24.6265 19.3614 24.0272 19.342 24.224 19.1933C23.6165 18.9338 23.2172 18.9368 23.0382 18.6568C23.0091 18.7532 22.7287 18.7208 22.4083 18.599C22.7901 18.5342 22.7772 18.385 23.5973 18.7321C23.6098 18.7377 23.5582 18.795 23.5706 18.8006C23.6902 18.8542 23.948 18.9275 24.1461 19.0361C24.3478 19.1479 24.2109 19.1313 24.2913 19.1744C24.3638 19.2146 24.3966 19.1527 24.5007 19.2142C24.8493 19.4215 25.1592 19.6506 25.3409 19.8267C25.3496 19.8351 25.3581 19.8439 25.3665 19.8529L23.614 21.619C23.5373 21.5318 23.4882 21.4075 23.4279 21.3452C23.1742 21.0886 22.6278 20.5541 22.3444 20.1866C22.2862 20.1116 22.3634 20.0997 22.241 19.9349C22.2283 19.9173 22.1125 19.8863 21.9874 19.7447C21.8623 19.6026 21.807 19.4647 21.7328 19.3722C21.6711 19.2948 21.6418 19.3651 21.5245 19.2003C21.387 19.0691 20.4726 17.3373 20.4673 17.2039C20.4171 17.0543 20.4712 16.9521 20.4254 16.8698C20.417 16.8554 20.3267 16.862 20.2996 16.8109C19.795 15.9746 19.4751 13.7813 19.5781 12.6765C19.6691 10.3456 20.4547 8.31204 21.6312 6.43617C21.6402 6.39458 21.6493 6.35303 21.6586 6.3115C21.5342 6.50061 21.4148 6.68994 21.2975 6.88477C21.262 6.86523 21.2265 6.84569 21.191 6.82616C21.0274 7.08962 21.1333 7.10207 21.1871 7.12345C21.1093 7.20929 21.0322 7.29651 20.9557 7.38513C21.029 7.53724 20.5959 8.16809 20.4412 8.53691C20.3367 8.7735 20.2735 9.0808 20.2224 9.20696C20.1142 9.47464 20.0367 9.44067 20.0273 9.46155C20.0116 9.49823 19.9546 9.90717 19.8746 10.1904C19.759 10.6092 19.6104 10.6274 19.6104 11.243C19.4059 11.9952 19.382 12.8742 19.4534 13.7151C19.3163 13.5613 19.4917 14.3169 19.5529 14.6464C19.8384 16.7226 21.0483 19.0255 22.2931 20.5474C22.4517 20.7473 22.5311 20.9476 22.6266 21.051C22.6777 21.1064 22.7633 21.0733 22.8254 21.1583C22.8365 21.1734 22.7848 21.237 22.9111 21.3901C23.0123 21.5127 23.1812 21.6792 23.374 21.8589L25.6046 19.6111C25.0279 19.0664 24.3362 18.7548 24.1547 18.5512C22.323 17.7351 20.572 17.6227 18.8677 17.653C18.8242 17.6208 18.7804 17.5888 18.7362 17.5569C18.4151 17.721 17.1387 17.7083 16.5337 17.8104C15.4583 17.9642 14.1301 18.3195 13.2359 18.5943C13.0419 18.6526 12.8622 18.6582 12.6823 18.7165C12.6041 18.742 12.5257 18.8323 12.4443 18.8596C11.5274 19.1625 10.285 19.5983 9.41476 20.0231C7.4298 20.983 5.66791 22.0982 3.93693 23.4945C2.9574 24.2876 2.03194 25.1433 1.16013 26.0525L3.39081 28.2092C7.41095 23.8639 11.7373 18.9931 12.2927 12.2191C12.2971 12.1114 12.3676 12.1188 12.3702 12.0345C12.398 11.537 12.2667 10.422 12.1553 9.86218C12.0868 9.41963 11.9977 8.68594 11.8425 8.5715C12.1721 10.1543 12.2788 11.8474 12.0079 13.4276C11.989 13.5395 11.9199 13.5432 11.9167 13.5567C11.8538 13.8062 11.9735 13.661 11.912 14.0296C11.9011 14.1628 11.4274 15.2115 11.6615 15.1343C11.5343 15.3882 10.8706 17.1548 10.7309 17.4842C10.6952 17.5885 10.7842 17.5424 10.7785 17.5637C10.7533 17.6568 10.6563 17.66 10.6199 17.7359C10.526 17.9383 10.3427 18.4849 10.2929 18.5799C10.1837 18.8043 9.77289 19.4275 9.62478 19.7164C9.49011 19.9831 9.59682 19.9805 9.47299 20.2076C9.3741 20.3855 9.42294 20.1575 9.16807 20.5321C9.04366 20.7187 8.66678 21.4064 8.55902 21.563C8.45323 21.7212 8.28959 21.865 8.14438 22.0806C7.93569 22.3942 7.4791 23.0702 7.26059 23.3821C7.24766 23.4007 7.2706 23.4877 7.23543 23.5311C7.16272 23.6208 7.11431 23.5398 7.05344 23.6039C6.99532 23.675 6.05903 24.8548 5.88555 25.0483C5.77099 25.1833 5.73214 25.3092 5.6689 25.3823C5.6191 25.4396 5.55894 25.3974 5.5065 25.457C5.49056 25.4755 5.40247 25.6747 5.26655 25.8271C5.14248 25.9684 4.59988 26.4826 4.54572 26.5395C4.50756 26.581 4.58741 26.5707 4.47446 26.6924C4.3716 26.8029 4.25592 26.8287 4.19805 26.8898C4.0669 27.0283 3.9522 27.2353 3.81066 27.3856C3.40208 27.8182 3.35663 27.742 3.33147 27.7649C3.25738 27.8312 3.28548 27.9123 3.26432 27.9365C3.24537 27.9581 3.22061 27.9862 3.19275 28.0177L1.35819 26.244C1.46923 26.1188 1.62972 25.943 1.69854 25.871C1.80737 25.757 1.90577 25.7619 2.02443 25.6461C2.11258 25.5599 2.242 25.3355 2.44995 25.1363C2.91083 24.6922 3.48118 24.1758 3.96764 23.7836C4.11568 23.6639 4.17998 23.698 4.22608 23.6632C4.46845 23.481 4.55613 23.3203 4.6248 23.2685C5.11428 22.8937 6.08112 22.3537 6.56387 22.0582C6.75812 21.9322 7.59252 21.351 8.10621 21.0816C8.16401 21.0505 8.13569 21.1258 8.19542 21.0834C8.33824 20.9822 8.27341 20.8972 8.35255 20.8577C8.3907 20.8392 8.50483 20.8453 8.6193 20.7915C9.20887 20.5149 9.58867 20.2848 9.86022 20.162C12.4492 18.9915 15.3024 18.2394 17.9949 18.0811C18.2964 18.0632 18.6686 17.9829 19.1262 18.0442C19.1401 18.0771 19.1539 18.1101 19.1676 18.1431C19.1834 18.1108 19.1993 18.0785 19.2153 18.0462C19.7394 18.0351 19.9338 18.0009 20.4684 18.085C20.5155 18.0925 20.6334 18.2544 20.7443 18.0786C21.2653 18.276 20.9839 18.1034 21.3826 18.1484C21.7858 18.1987 22.1665 18.3199 22.5435 18.4307C22.7324 18.5451 21.8217 18.4799 21.7702 18.4792C21.681 18.4613 21.603 18.3528 21.5145 18.3328C21.2465 18.2721 20.9953 18.3152 20.9444 18.2255C20.5942 18.2726 21.0226 18.2786 20.9697 18.3524C20.7483 18.2916 20.5276 18.2369 20.3069 18.1873C20.1705 18.4328 18.9577 18.0527 19.0427 18.2659C18.9459 18.2254 18.8477 18.1858 18.7482 18.147C18.3275 18.4145 18.0726 18.2443 17.503 18.2166C17.5467 18.2456 17.59 18.2747 17.633 18.3041C17.6236 18.317 17.1314 18.4178 17.2954 18.2613C16.802 18.4994 16.795 18.193 16.3666 18.4774C16.1016 18.5473 16.2465 18.3914 15.7665 18.4763C15.4771 18.5288 15.1486 18.6628 14.8336 18.7384C14.7612 18.7555 14.7129 18.6902 14.6478 18.7053C14.5842 18.7201 14.5703 18.7984 14.4942 18.8185C14.3371 18.8601 14.1179 18.8631 14.0188 18.8945C13.9302 18.9222 13.8179 19.0184 13.6109 19.0874C12.8818 19.3371 13.0763 19.1889 12.9503 19.1937C12.8164 19.2014 12.7647 19.3443 12.5132 19.4137C12.4879 19.4207 12.5282 19.3274 12.4482 19.3576C12.3835 19.3821 12.3773 19.4701 12.1662 19.5606C12.0823 19.5866 10.7834 20.1104 10.5915 20.2068C10.2906 20.3366 9.60147 20.5809 9.30084 20.7344C9.18483 20.7923 9.09089 20.9139 8.96777 20.9773C8.55504 21.1878 7.91377 21.5374 7.4191 21.8356C6.96752 22.1009 6.12486 22.4854 5.96114 22.7632C5.37645 23.1937 5.16664 23.2198 5.12054 23.2504C4.99607 23.3385 4.98752 23.4379 4.84105 23.5548C3.80736 24.3773 2.64676 25.3979 1.59786 26.4757L2.95308 27.786C3.82096 26.8989 4.66807 25.9855 5.34509 25.1922C8.64603 21.2066 12.134 16.4308 11.664 10.5675C11.6296 10.556 11.5951 10.5447 11.5606 10.5336C11.6227 11.2022 11.575 11.9855 11.5093 12.6301C11.4408 13.4905 11.2991 14.7781 10.8968 15.3088C10.9501 15.0644 11.1352 14.6855 11.0202 14.6648C10.904 15.1012 10.7686 15.5265 10.6161 15.9461C10.671 15.9508 10.7259 15.9555 10.7808 15.96C10.6444 16.4101 10.4597 16.8536 10.2809 17.2879C10.2496 17.3634 10.3172 17.3296 10.2889 17.3951C10.2571 17.4683 10.2335 17.3989 10.2272 17.4124C10.1462 17.595 10.166 17.6705 10.1553 17.6925C10.1273 17.7488 10.1048 17.6849 10.0166 17.843C9.85219 18.1359 9.85707 18.405 9.7037 18.2415C9.6561 18.3375 9.60777 18.4332 9.55876 18.5287C9.59704 18.5796 9.63518 18.6306 9.67318 18.6818C9.16246 19.1601 9.36203 19.6208 8.89935 19.7753C8.88098 19.9035 8.8616 20.0319 8.84125 20.1603C8.75707 20.1887 8.67291 20.2165 8.58876 20.2438C8.62375 20.2808 8.65869 20.3178 8.69359 20.3549C8.32279 20.8868 7.99004 21.4913 7.62894 21.9915C7.37583 22.3408 7.30132 22.4092 7.07679 22.7181C6.5751 23.3969 7.00307 22.6721 6.49541 23.1616C6.56544 23.1696 6.63576 23.1772 6.7055 23.1854C6.65234 23.2907 6.59765 23.3972 6.54337 23.5023C6.45468 23.5357 6.3661 23.5687 6.27767 23.601C6.25728 24.0372 5.94538 24.0926 5.91586 24.1289C5.89069 24.1599 5.92673 24.3608 5.55371 24.6038C5.82822 24.6035 5.34559 24.8531 5.31944 24.8808C5.29595 24.9079 5.01345 25.3084 4.88224 25.4539C4.78094 25.5675 4.52641 25.7867 4.37426 25.9586C4.24051 26.1098 4.30731 26.1419 4.29795 26.1534C4.13645 26.3399 4.19889 26.189 4.07421 26.3215C3.94891 26.4544 3.89937 26.5972 3.86916 26.6218C3.85388 26.634 3.84915 26.5415 3.78424 26.6021C3.60856 26.7662 3.35356 27.1221 3.15977 27.3222C3.09084 27.3936 2.96495 27.4435 2.88966 27.5192C2.84779 27.5613 2.82151 27.6019 2.80177 27.6397L1.74917 26.622C1.78679 26.5526 1.80404 26.4921 1.84922 26.448C1.87419 26.4239 2.10997 26.3479 2.28918 26.1462C2.32266 26.1081 2.26068 25.8257 2.64429 25.9375C2.6215 25.8918 2.59877 25.846 2.5761 25.8002C3.161 25.078 3.60827 25.2225 3.68649 24.6872C4.21572 24.2873 3.95806 24.6871 4.02708 24.6556C4.07109 24.6354 4.2105 24.4697 4.22998 24.4566C4.26454 24.4334 4.28707 24.4718 4.32181 24.4428C4.96858 23.9063 4.62881 24.0778 4.80469 23.8705C5.22729 23.3851 5.78906 23.3101 4.8677 23.9092C4.88279 23.9285 4.89788 23.9479 4.91298 23.9672C5.1078 23.7821 5.66859 23.3803 5.5578 23.6175C5.46203 23.7968 4.16207 24.7507 4.96379 24.2878C5.1458 24.1843 5.17346 24.0448 5.56205 23.9676C5.75821 23.8325 5.65365 23.6311 5.96698 23.5154C5.87865 23.4828 5.78998 23.4507 5.70096 23.4191C5.9969 23.0768 6.52921 22.8775 6.7873 22.6569C6.87266 22.582 7.02646 22.0431 7.14347 22.4094C7.29726 22.2796 8.11091 21.8715 8.2477 21.7602C8.27948 21.7342 8.22773 21.5298 8.78222 21.3093C8.83077 21.3115 8.87919 21.3139 8.92751 21.3164C8.47882 21.6362 9.36429 21.2506 9.21976 21.5394C9.1025 21.5041 8.70049 21.6611 8.62151 21.6571C8.48351 21.6499 8.7447 21.3975 8.36621 21.6369C8.27489 22.0466 8.90411 21.533 8.93877 21.8554C9.38701 21.4576 9.50226 21.5538 9.62024 21.4994C10.1293 21.2706 10.4362 21.0934 10.9357 20.9143C11.0275 20.8045 10.1188 21.1131 10.0221 21.1941C10.3293 20.8087 9.63115 21.1261 9.41015 21.3866C9.3566 21.3403 9.30286 21.2941 9.24894 21.248C9.63459 21.0903 10.0137 20.9278 10.3664 20.7091C10.4009 20.7204 10.4354 20.7318 10.4698 20.7432C10.401 20.8145 10.3325 20.8863 10.2643 20.9584C10.6003 20.8717 10.3311 20.7818 10.8197 20.7502C10.8033 20.6768 10.7871 20.6033 10.771 20.5299C11.1866 20.3773 11.6036 20.2369 12.0248 20.1078C12.1814 19.8873 13.0161 19.6665 12.9247 19.9001C13.2504 19.8096 12.8218 19.8395 13.1098 19.699C13.2383 19.637 13.5003 19.5527 13.579 19.5838C13.603 19.7661 13.2166 19.9061 13.1414 20.0627C13.2184 20.0602 14.9955 19.4502 14.8816 19.7122C15.0338 19.7037 14.9421 19.6108 15.2004 19.5257C15.9266 19.282 17.1015 19.3317 17.691 19.0163C16.9558 18.9303 16.7641 19.1224 16.2221 19.2127C15.866 19.2441 13.7966 19.7657 14.2114 19.4718C14.1406 19.5156 14.0697 19.5599 13.999 19.6045C13.9076 19.5699 13.8161 19.5357 13.7235 19.5022C13.9352 19.4336 14.1573 19.3655 14.3746 19.3024C14.4411 19.3448 14.507 19.3875 14.5725 19.4305C14.5868 19.3849 14.6011 19.3394 14.6156 19.2938C14.7054 19.2639 14.7955 19.2345 14.8885 19.2052C14.8729 19.2591 14.8575 19.3131 14.8422 19.367C14.9884 19.342 15.1336 19.3188 15.2779 19.2972C15.2261 19.2409 15.1739 19.1848 15.1212 19.1289C15.7931 18.9732 15.5766 19.0612 15.9751 19.1135C16.2584 19.0789 15.7624 19.0313 16.3523 18.9043C17.057 18.7681 16.6106 19.0214 17.5193 18.8824C17.5294 18.8486 17.5395 18.8147 17.5497 18.7809C17.7521 18.7956 17.9548 18.8135 18.1595 18.8347C18.1306 18.7955 18.1014 18.7564 18.072 18.7173C18.4868 18.705 19.0696 18.6205 19.2029 18.783C18.7837 18.7058 18.7903 18.9891 18.9002 19.0378C19.1241 19.0553 22.4121 19.2745 23.0097 19.6457C23.6681 19.8915 24.1324 20.2139 24.6279 20.603L24.3583 20.8746C24.2691 20.8019 24.1769 20.7307 24.0798 20.6608C24.1248 20.7343 24.1991 20.8292 24.2949 20.938L24.6907 20.5391C24.1823 19.9175 22.8879 19.4812 22.6332 19.3533C22.6035 19.3366 22.6853 19.0916 22.3902 19.3074C21.7176 19.0686 20.8682 19.0137 20.0016 18.9558C20.0329 18.8838 20.0646 18.8119 20.0967 18.7401C20.6213 18.9288 21.1677 18.6628 21.0575 18.936C21.1615 18.9505 21.271 18.9671 21.379 18.9852C21.3872 18.9365 21.3953 18.8879 21.4034 18.8393C21.5697 18.8672 21.7236 18.8962 21.891 18.932C21.8807 18.9803 21.8704 19.0285 21.86 19.0767C21.9953 19.1057 22.1275 19.1369 22.2567 19.1702C22.2825 19.1261 22.3084 19.082 22.3345 19.038C22.7102 19.2008 24.1482 19.5383 23.4443 19.5489C23.6255 19.6287 23.801 19.7156 23.977 19.8163C23.9944 19.7847 24.0117 19.753 24.0291 19.7214C24.1086 19.7614 24.1804 19.7991 24.263 19.8466C24.2201 19.8577 24.1761 19.8686 24.1353 19.8816C24.4295 20.0101 24.6144 20.2741 24.79 20.4383L24.1949 21.038C24.1454 20.9916 24.0935 20.9546 24.0352 20.9321C24.0721 20.9832 24.1095 21.0343 24.1474 21.0855L24.8371 20.3905C24.7693 20.3022 24.6952 20.2158 24.6154 20.1314C24.6839 20.2035 24.7724 20.2832 24.8616 20.3656L24.1228 21.1102C23.9077 20.9105 23.66 20.7209 23.6349 20.694C23.5289 20.581 23.5281 20.4722 23.4216 20.3477C23.3244 20.2338 23.294 20.2833 23.2769 20.2609C22.7773 19.5892 23.2269 19.6445 22.7081 19.5728C22.723 19.5122 22.7344 19.447 22.7483 19.3846C22.6821 19.3656 22.616 19.3462 22.55 19.3266C22.4045 19.1264 22.268 18.928 22.1377 18.7275C22.1321 18.8289 22.1262 18.9287 22.1226 19.0306C21.8949 18.7516 21.8977 18.522 21.8826 18.4941C21.8341 18.4044 21.7444 18.4058 21.7277 18.3791C20.9775 17.0651 21.4863 17.82 21.412 17.0361C21.1959 16.8402 21.2058 17.1342 21.1195 17.2209C21.0131 16.8647 20.9398 16.7762 20.8091 16.4226C20.7745 16.3271 20.7966 16.2044 20.7768 16.1452C20.7593 16.0939 20.6417 15.9544 20.6032 15.8306C20.5397 15.6299 20.4961 15.3278 20.4322 15.0424C20.3722 14.8049 20.1957 14.0572 20.1748 13.5234C20.164 13.2985 20.2229 13.3471 20.2209 13.2889C20.22 13.2647 20.1494 13.0882 20.1509 12.9421C20.158 11.7492 20.4519 10.5516 20.8633 9.45528C21.1517 8.68115 21.4793 7.90549 21.9078 7.20423C21.9994 7.05531 21.9931 7.15992 22.0343 7.09596C22.0485 7.07435 21.9915 7.00122 22.1654 6.79307C22.2287 6.71772 22.2178 6.84421 22.2723 6.76555C22.2991 6.72764 22.2462 6.66906 22.3844 6.43411C22.6373 6.00823 22.8802 5.85626 22.9025 5.81994C22.9473 5.75062 22.883 5.73319 22.9481 5.6436C23.2659 5.20864 23.5417 4.85959 23.8538 4.49497C23.9879 4.31825 25.0372 3.20265 25.1152 3.15651C25.2656 3.04371 25.2321 3.25638 25.3986 3.08858C25.4253 3.01741 25.4518 2.94669 25.4782 2.87645C25.3838 2.93214 25.2859 2.99201 25.1945 3.04653C25.4363 2.86842 25.6333 2.60282 25.8007 2.45207C25.8306 2.42464 26.1432 2.2191 26.2803 2.08972C26.2373 2.16035 26.1933 2.23208 26.1487 2.30489C26.184 2.30087 26.2192 2.29703 26.2543 2.29339C26.4179 2.11993 26.6079 1.94433 26.788 1.78796L27.5882 2.65069C27.4866 2.75323 27.3841 2.85295 27.2826 2.94969C27.181 3.04654 27.18 2.9776 27.0773 3.07422C26.4817 3.62479 26.7745 3.63909 25.9205 3.87648C26.1506 3.72722 26.8189 3.03895 26.9261 2.94913C27.002 2.88973 27.5095 2.85613 27.1704 2.71249C27.2935 2.59221 27.3733 2.52517 27.4276 2.49007L26.9361 1.96017C26.7404 2.06489 26.8912 1.78873 26.478 2.1935C26.5161 2.21515 26.5542 2.23688 26.5922 2.25868C26.425 2.44081 26.29 2.59116 26.1315 2.63678C26.2271 2.81924 25.5163 3.31949 25.1902 3.6726C24.7202 4.17178 24.2335 4.77666 23.8091 5.30629C23.6616 5.48977 23.5187 5.54427 23.5004 5.56747C23.4741 5.60147 23.4538 5.73895 23.4018 5.80727C23.2025 6.05635 22.5433 6.79209 22.5791 7.10561C23.608 5.50321 24.8967 4.09862 26.2957 2.81925C26.1515 2.87388 26.6041 2.42281 27.0179 2.05526L27.3389 2.40139C27.0793 2.6711 26.846 2.89465 26.8169 2.91991C26.7491 2.97896 26.758 2.87887 26.7359 2.8944C26.5732 3.01071 26.5173 3.19401 26.4718 3.23624C26.4357 3.26978 26.3425 3.29525 26.21 3.41749C26.1862 3.43931 26.2116 3.48057 26.1861 3.50395C26.0164 3.65777 25.8495 3.80481 25.6814 3.95068C25.6708 3.95922 25.583 3.94325 25.5406 3.97938C25.4983 4.01573 25.5015 4.10425 25.4909 4.11353C25.3627 4.2225 25.0834 4.39545 24.9512 4.50108C24.9047 4.53856 24.9689 4.55229 24.9165 4.59378C24.7559 4.7204 24.7464 4.60115 24.5664 4.7745C24.5062 4.8321 24.5569 4.88965 24.4253 4.9776C24.3308 5.04046 24.2562 4.92629 24.239 4.93311C24.215 4.9447 23.9553 5.27076 23.7988 5.27212C23.8898 4.91809 23.543 5.43967 23.622 5.50341C23.4824 5.57035 23.3393 5.63774 23.1912 5.70621C23.1598 5.7572 23.1283 5.80798 23.0968 5.85855C22.5094 6.10421 22.2017 6.36625 21.6479 6.62427C21.6261 6.63644 21.1217 6.83025 21.1306 6.78438C21.387 6.59146 21.6582 6.44304 21.8838 6.44605C22.0613 6.10045 22.1642 6.24213 22.5955 5.94528C22.7386 5.84499 22.7183 5.78838 22.7349 5.77713C23.3127 5.38496 24.1857 4.71125 24.6401 4.56189C24.7129 4.44647 24.3376 4.71737 24.4583 4.5801C24.539 4.52711 26.3078 2.9218 25.8608 3.56903C25.9171 3.51171 25.9735 3.45386 26.03 3.39549C25.9695 3.20224 26.2834 2.96992 26.3756 3.1348C26.3767 3.08231 26.3779 3.02979 26.3789 2.97725C26.41 2.90446 26.4608 2.83325 26.5419 2.74205C26.6261 2.64726 26.8386 2.43996 27.1086 2.17104L27.2303 2.30226C26.4726 2.93498 25.3744 3.97272 25.3189 4.0677C25.3478 4.10059 25.3766 4.13347 25.4055 4.16634C26.0307 3.57672 26.631 2.96271 27.3121 2.39739L27.0199 2.08232C26.7442 2.34901 26.458 2.60287 26.1528 2.83734C26.2084 2.84142 26.2642 2.84528 26.3201 2.84892C25.9072 3.1586 25.4441 3.49509 25.0192 3.77708C25.3877 3.37442 26.0202 2.71853 26.4764 2.35857C26.5596 2.29313 26.5439 2.38781 26.5661 2.37592C26.6242 2.34438 26.604 2.22676 26.7613 2.05768C26.7914 2.02527 26.8327 1.9858 26.8801 1.94254L27.441 2.54727C27.2401 2.70283 26.9202 2.92534 26.8914 2.95372C26.8158 3.02638 26.6959 3.28751 26.5685 3.40382C26.4 3.55752 26.4642 3.40227 26.4296 3.4324C26.292 3.55133 26.195 3.69168 26.0844 3.79132C25.9277 3.93052 25.5173 4.16679 25.545 4.39941C25.6578 4.29527 25.7702 4.19354 25.887 4.08933C25.3449 4.72114 24.7298 5.04678 24.3442 5.79271C24.3965 6.07351 24.7987 5.54035 24.5119 6.03474C24.5743 5.95327 24.6371 5.87263 24.7002 5.79281C24.6804 5.74502 24.6607 5.69715 24.6412 5.6492C24.7795 5.53673 24.9232 5.42158 25.064 5.31294C25.0002 5.3231 24.9361 5.33369 24.8719 5.34475C25.2628 4.85149 25.6848 4.36227 25.9947 4.36414C25.9664 4.31727 25.9381 4.27035 25.9098 4.2234C26.3651 3.85481 26.8731 3.09017 26.9481 3.42244C26.9577 3.39249 26.9673 3.36265 26.9768 3.3329C27.2873 3.13498 27.0898 3.14848 27.1805 3.04916C27.2019 3.02289 27.77 2.61454 27.5969 2.88043C27.6264 2.85975 27.653 2.84027 27.6771 2.82182L26.624 1.68649C26.2022 2.06297 26.5044 2.11078 26.3842 2.24421C25.9796 2.4488 25.549 3.11663 25.645 2.73634C25.5908 2.77489 25.5367 2.81301 25.4828 2.85071C25.437 3.12128 25.1516 3.11611 24.9403 3.21299C24.8803 3.25959 24.8205 3.30561 24.7608 3.35107C24.7589 3.42774 24.76 3.50165 24.7545 3.58098C24.0112 3.84058 24.657 4.27191 24.0104 3.98515C24.0272 3.92445 24.044 3.86363 24.0606 3.8027C24.144 3.71396 24.2277 3.62388 24.3116 3.53244C23.9187 3.83147 23.5301 4.10894 23.1214 4.38065C22.5362 4.57956 22.3314 4.94583 21.6895 5.16733C21.6428 5.21429 21.5961 5.2608 21.5494 5.30688C21.5352 5.15085 21.7552 5.04926 21.3311 5.21857C21.2489 5.15013 21.5043 4.99018 21.666 4.98232C21.7053 4.98082 21.4933 5.19643 21.7772 5.03035C21.9619 4.9192 21.5662 5.02512 22.1365 4.72034C22.1029 4.71269 22.0695 4.70491 22.0361 4.69701C22.0957 4.66012 22.1555 4.6226 22.2156 4.58443C22.2996 4.59753 22.3842 4.60981 22.4695 4.62126C22.5643 4.45902 22.5731 4.31691 22.8863 4.12544C22.8253 4.21207 23.0016 4.22785 23.1517 4.11634C23.1276 4.08313 23.1034 4.04993 23.0793 4.01672C23.4253 3.72941 23.3839 3.90991 23.6135 3.61552C23.6625 3.6189 23.7116 3.62203 23.7609 3.62492C23.8357 3.40014 24.3667 2.84199 24.3891 3.08433C24.4196 2.80423 24.8071 2.58488 25.038 2.58781C25.0205 2.54879 25.003 2.50979 24.9854 2.4708C25.0464 2.40512 25.1076 2.33872 25.169 2.2716C25.2224 2.25629 25.2789 2.23799 25.3297 2.22469C25.3578 2.16532 25.3858 2.10571 25.4138 2.04586C25.4688 2.05053 25.5239 2.05499 25.5792 2.05921C25.6182 1.95531 25.657 1.85084 25.6958 1.7458C25.7629 1.72677 25.8302 1.70727 25.8977 1.6873C25.8616 1.64398 26.0361 1.43655 26.2077 1.2701L28.0611 3.26829C27.9726 3.34164 27.8825 3.40628 27.8251 3.43111C27.8029 3.48346 27.7767 3.53943 27.7572 3.58966C27.7122 3.57515 27.6671 3.56081 27.6218 3.54665C27.6153 3.59576 27.6088 3.64507 27.6021 3.69456C27.516 3.72776 27.4246 3.7662 27.3401 3.79895C27.2159 4.18137 27.0847 4.06694 27.0272 4.12183C26.9214 4.222 26.6378 4.66883 26.576 4.72272C26.5111 4.77778 26.4313 4.75643 26.3774 4.80102C25.5081 5.53171 25.9782 5.33168 25.8442 5.51538C25.7747 5.61512 25.6655 5.63616 25.6012 5.71885C25.4841 5.85914 24.9629 6.61815 24.9297 6.65452C24.8727 6.70646 24.7381 6.3693 24.6472 6.61557C24.7737 6.72492 24.3172 7.04499 24.6546 6.98935C24.5079 7.14898 24.364 7.31181 24.2234 7.47773C24.4016 7.57235 24.1445 7.71379 23.9978 7.96253C23.7808 8.31044 23.4704 9.15812 23.3083 9.03663C23.3066 9.14315 23.3066 9.24908 23.3082 9.35429C22.9696 9.90727 22.8109 10.5179 22.6589 11.1097C22.1814 12.8687 22.3673 14.8193 23.1923 16.4886C23.2305 16.5682 23.1653 16.5877 23.1939 16.6457C23.3416 16.9628 23.8505 17.6909 24.1402 18.0883C24.2314 18.218 24.2307 18.3227 24.2581 18.3628C24.353 18.5005 24.3964 18.4159 24.4428 18.4776C24.5092 18.5727 24.89 19.1393 25.0378 19.3045C25.1119 19.3904 25.2545 19.4415 25.334 19.5536C25.3409 19.5632 25.2752 19.5969 25.2813 19.6049C25.4501 19.7897 25.3883 19.6393 25.4456 19.702C25.4592 19.7167 25.4729 19.7315 25.4867 19.7463L23.5082 21.74C23.308 21.5074 22.8679 21.251 22.3641 21.0613C22.2289 21.0087 22.0449 20.9005 21.919 20.8619C21.8733 20.8481 21.9391 20.9203 21.7844 20.8756C21.7309 20.8605 21.7288 20.7883 21.6667 20.7689C21.3902 20.6863 21.2651 20.8914 21.0513 20.6727C20.5836 20.6012 19.7365 20.5959 19.2859 20.5979C19.1803 20.597 19.1309 20.5557 19.0298 20.557C18.9582 20.5578 18.8325 20.6232 18.7189 20.6271C18.6038 20.631 18.4311 20.5761 18.2116 20.5914C17.9777 20.6071 17.7041 20.6678 17.651 20.6728C17.5888 20.6787 17.5521 20.6053 17.4892 20.6128C17.2953 20.6335 16.8074 20.7718 16.5647 20.8201C16.3096 20.8692 16.146 20.8618 16.0566 20.8789C15.9735 20.8953 15.8899 20.9775 15.8537 20.9852C15.7965 20.9975 15.768 20.9261 15.6946 20.9417C15.5746 20.9677 15.4604 21.0404 15.2786 21.083C12.0337 21.8523 9.01493 23.3241 6.35512 25.2777C6.06271 25.4941 5.92715 25.6653 5.49524 25.9903C5.32122 26.1224 5.34167 26.0036 5.22047 26.1253C5.16653 26.1799 5.22103 26.214 5.14957 26.2791C4.82978 26.5693 4.43027 26.857 4.29366 26.9862C4.23984 27.0368 4.22588 27.145 4.11658 27.2503C3.84513 27.5122 3.5617 27.7917 3.26951 28.092L1.28143 26.1698C1.86249 25.573 2.46398 24.9376 2.99909 24.3242C3.4282 23.8351 4.04204 23.0619 4.50247 22.4771C5.77992 20.8713 7.02075 19.0617 7.82233 17.4372C9.04242 14.9957 9.66556 12.3548 9.16471 9.95953C9.28585 11.1024 9.27421 12.6661 8.93527 13.9707C7.99351 17.7467 5.30642 21.5416 2.3705 24.7523C2.0015 25.1551 1.58269 25.6003 1.15148 26.0441L3.39946 28.2176C4.15134 27.4417 4.99525 26.6762 5.80977 26.0449C5.86823 25.9993 5.95381 25.8609 6.08212 25.7665C6.10963 25.7454 6.49785 25.5666 6.60872 25.4852C6.39592 25.4276 6.93409 25.2167 7.06859 25.1168C7.2366 24.9886 7.55538 24.6559 8.00119 24.4236C8.4029 24.2162 8.33812 24.3396 8.36029 24.3298C8.51102 24.2666 8.50156 24.1458 8.60084 24.0718C8.98933 23.7403 11.3116 22.5996 11.9901 22.369C12.1609 22.3002 12.191 22.3626 12.2293 22.3474C12.3324 22.3067 12.4556 22.1858 12.6213 22.124C12.9177 22.013 13.2881 21.9537 13.4531 21.8998C13.8427 21.7682 14.5884 21.4695 15.1143 21.3455C15.2608 21.3101 15.2679 21.382 15.3356 21.3661C15.6318 21.293 16.3878 21.0615 16.757 21.0105C17.36 20.9199 17.982 20.906 18.5863 20.8607C18.6253 20.8911 18.664 20.9216 18.7041 20.9523C18.7644 20.9172 18.8246 20.8824 18.8849 20.8481C19.9023 20.8564 20.9459 20.8787 21.8386 21.125C21.9509 21.1502 22.412 21.3683 22.4753 21.4009C22.5343 21.4247 22.6304 21.3796 22.7117 21.43C22.823 21.5015 22.6479 21.5802 22.8493 21.6366C22.9013 21.6521 22.8885 21.5706 22.9899 21.6059C23.0121 21.6098 23.2904 21.7729 23.3839 21.8662L25.6119 19.621C25.505 19.5186 25.4269 19.4401 25.4162 19.427C25.3607 19.3589 25.4077 19.2087 25.3948 19.1907C25.3279 19.0972 25.2544 19.1728 25.1954 19.1235C25.0232 18.9808 24.8811 18.7093 24.8561 18.6818C24.5492 18.3631 23.9894 17.765 23.7915 17.3544C23.7633 17.2978 23.8338 17.2619 23.8301 17.2514C23.8063 17.1836 23.7075 17.1943 23.671 17.1388C23.4768 16.8474 23.2673 16.3252 23.1435 15.9986C23.1287 15.9612 23.0555 15.9006 23.0322 15.8334C22.9067 15.4569 23.0211 15.5484 23.015 15.5275C23.0031 15.4743 22.8981 15.4107 22.8486 15.2768C22.7148 14.9388 22.5659 14.2478 22.5344 13.8688C22.5059 13.5781 22.5983 13.5771 22.5975 13.5581C22.5978 13.5178 22.5189 13.4137 22.5053 13.223C22.4835 12.856 22.5574 12.8997 22.5582 12.7512C22.559 12.7385 22.4896 12.7581 22.4923 12.5893C22.4901 12.2633 22.6693 11.5454 22.7615 11.2036C22.7941 11.0716 22.7402 11.0231 22.7783 10.8865C22.8351 10.6688 23.075 10.2102 23.0918 10.1739C23.0959 10.1634 23.0356 10.1127 23.0605 10.0501C23.0881 9.98113 23.1514 9.92833 23.1726 9.87743C23.2892 9.58829 23.4233 9.03577 23.5918 9.29249C23.5786 9.17269 23.5675 9.05192 23.5588 8.92936C23.8901 8.3399 24.2323 7.76257 24.6345 7.19619C24.7242 7.07006 24.8446 6.99514 24.9236 6.88975C24.9991 6.78445 25.3082 6.27556 25.372 6.20184C25.4805 6.06015 26.1498 5.31381 26.2488 5.22797C26.4281 5.0581 26.674 4.96802 26.731 4.88152C26.7761 4.81287 26.6798 4.82054 26.7767 4.70118C26.9463 4.49174 27.3312 4.24088 27.3935 4.18288C27.4189 4.15922 27.3383 4.16603 27.5764 3.94561C27.7105 3.82215 27.8154 3.80056 27.8624 3.75861C27.877 3.74575 27.7963 3.7002 28.0723 3.47571C28.1098 3.44543 28.1441 3.42104 28.1753 3.40119L26.0837 1.14616C25.9579 1.24195 25.877 1.26149 25.8621 1.27602C25.8341 1.30295 25.8166 1.41982 25.7038 1.52558C25.4408 1.77366 24.9144 2.15008 24.6507 2.37226C24.601 2.41415 24.6738 2.46545 24.4738 2.62823C24.3311 2.74348 24.3113 2.67022 24.2579 2.71218C24.1763 2.77573 24.0984 2.95086 23.9062 3.1037C23.6845 3.31959 21.7988 4.54872 21.6873 4.55286C21.6151 4.57966 21.543 4.62212 21.4889 4.61139C21.4995 4.56362 21.5083 4.51683 21.5165 4.47035C21.8601 4.40565 21.6734 4.35252 21.7423 4.29888C21.84 4.22415 22.2694 3.96217 22.3425 3.87128C22.3698 3.83843 22.2496 3.83012 22.4083 3.6719C22.5786 3.50128 22.7465 3.54489 22.716 3.3388C23.1245 3.29221 23.2453 2.92233 22.8989 3.11445C22.7001 3.26057 20.8884 4.37224 20.508 4.51748C20.1948 4.67654 19.6542 4.99402 19.266 5.12978C19.0513 5.21173 18.4824 5.39251 18.4825 5.28657C18.2863 5.33453 18.5189 5.36463 18.4827 5.39004C18.4046 5.44977 17.7671 5.5507 17.6511 5.57223C17.0864 5.71273 16.3524 5.89588 15.8041 5.75572C15.8301 5.73002 15.856 5.70419 15.8817 5.67822C16.0068 5.63746 16.5744 5.67916 16.6299 5.54253C15.8052 5.61805 14.9903 5.55485 14.2078 5.3533C14.1918 5.47667 13.2169 5.15415 13.1914 5.07207C13.2282 5.03119 13.2647 4.99011 13.3009 4.94885C13.7659 5.34067 13.8044 5.06972 14.1297 5.30841C14.2811 5.35046 14.2548 5.2545 14.3317 5.25683C15.0968 5.25428 14.3073 5.4419 14.8888 5.46798C14.7378 5.31906 15.2066 5.34652 15.4133 5.34214C15.4615 5.34959 16.0844 5.39799 16.1594 5.38659C16.5855 5.37077 17.2917 5.20582 17.7395 5.16242C18.0726 5.09034 18.2448 4.94698 18.535 4.82913C18.7613 4.73515 18.7163 4.8157 18.8276 4.77629C19.0589 4.69185 19.0555 4.4876 19.3051 4.67026C19.4494 4.57407 19.5961 4.47243 19.7314 4.37226C19.7489 4.4094 19.7664 4.44654 19.7839 4.48368C19.8805 4.43819 19.9781 4.3907 20.0768 4.34115C20.0875 4.29 20.098 4.23882 20.1083 4.18759C20.4472 4.07474 20.3594 4.23082 20.4729 4.3026C20.5425 4.2743 20.6127 4.24505 20.6833 4.21481C20.6916 4.10805 20.6992 4.00126 20.7062 3.89444C21.0137 3.72637 21.2942 3.5612 21.5943 3.3717C21.6359 3.39325 21.6777 3.41463 21.7196 3.43585C21.6975 3.4014 21.6755 3.36695 21.6534 3.3325C22.1333 3.00246 22.6198 2.63157 23.0792 2.25067C23.1597 2.10582 22.387 2.64886 22.3154 2.69003C21.9817 2.92142 21.1423 3.54983 21.0661 3.41795C20.9284 3.63739 20.2778 3.97641 20.0274 3.95271C20.3253 3.80802 20.6152 3.65409 20.9164 3.48033C20.8819 3.4441 20.8475 3.40779 20.8131 3.37141C21.2656 3.32522 21.3223 3.27632 21.5882 2.87181C21.6255 2.92571 21.6629 2.97961 21.7002 3.03351C21.8158 2.68133 22.4977 2.65768 22.3438 2.41952C22.4938 2.33497 22.6334 2.2558 22.7808 2.16818C23.04 1.90957 22.4841 2.11252 23.6238 1.24685C23.7029 1.18484 23.7346 1.25281 23.8454 1.14712C23.8764 1.11684 24.0013 0.867621 24.3483 0.554106C24.4035 0.504134 24.4505 0.545289 24.5123 0.497029C24.6553 0.386805 24.8316 0.0400829 24.8531 0.300359C24.9396 0.227871 25.0054 0.167565 25.055 0.117475L29.1239 4.5042C28.8434 4.74927 29.0648 4.72508 28.9558 4.89391C28.8758 5.02223 28.8194 4.91376 28.7415 5.01918C28.6448 5.15219 28.8094 5.1582 28.3113 5.54535C28.3544 5.49385 28.4038 5.4368 28.4499 5.3832C28.4016 5.38352 28.3531 5.38412 28.3045 5.38501C28.0991 5.68387 28.0455 5.57954 28.0495 5.82879C27.8124 5.9451 27.645 6.10088 27.4164 6.35896C26.9768 6.86687 27.3515 6.74578 26.6545 7.13451C26.6015 7.25278 26.5539 7.36665 26.5054 7.48344C26.3196 7.58637 26.3434 7.40099 26.143 7.61882C26.4366 7.5595 25.9969 8.00132 26.0773 8.18705C26.0381 8.17102 25.9988 8.15507 25.9594 8.13919C25.9212 8.19063 25.8833 8.24229 25.8458 8.29415C25.8724 8.3136 25.899 8.33306 25.9255 8.35251C25.856 8.40656 25.7865 8.46187 25.7183 8.51678C25.709 8.5872 25.7005 8.65744 25.6926 8.72745C25.5781 8.77394 25.4637 8.82242 25.35 8.87223C25.3112 8.924 25.2729 8.97599 25.2351 9.02817C25.2875 9.03669 25.3398 9.04543 25.3921 9.05439C25.3348 9.11499 25.2781 9.17608 25.2222 9.23765C25.3407 9.19767 25.3875 9.29838 25.2622 9.51067C25.1617 9.68652 25.1219 9.40438 24.9775 9.82248C24.9697 9.85144 25.0433 9.95474 24.8936 10.3189C24.7247 10.7538 24.7385 10.513 24.7023 10.5881C24.6954 10.6031 24.6974 10.7565 24.6608 10.8799C24.6398 10.95 24.5708 10.9997 24.5677 11.0089C24.5549 11.0522 24.6157 11.0869 24.5986 11.1457C24.5549 11.2943 24.4649 11.4815 24.4327 11.6249C24.4177 11.69 24.4434 11.7597 24.4374 11.7882C24.4279 11.8324 24.3549 11.8756 24.346 11.9209C24.3117 12.0911 24.4825 12.3595 24.1896 12.402C24.4314 12.5837 24.0987 12.8843 24.2777 12.8686C24.165 13.2904 24.571 14.3116 24.2953 14.3527C24.6028 14.5217 24.4215 14.5465 24.4546 14.6433C24.4932 14.7501 24.5219 14.6787 24.5486 14.7653C24.6136 14.9712 24.6686 15.1661 24.7613 15.3722C24.7096 15.3569 24.6579 15.3413 24.6063 15.3252C24.6923 15.5481 24.7448 15.4368 24.8667 15.6423C25.1055 16.0266 24.9545 15.8958 24.8926 16.0077C24.9727 15.9474 25.2369 16.419 25.2659 16.48C25.2786 16.5129 25.0813 16.4611 25.3152 16.7294C25.338 16.6904 25.361 16.6517 25.3843 16.6132C25.4216 16.7724 25.7483 17.093 25.7877 17.1621C25.8022 17.1913 25.6617 17.5461 25.9776 17.5162C25.9599 17.5588 25.9425 17.6016 25.9253 17.6446C26.093 17.7667 26.2626 17.8835 26.4322 17.9942C26.3997 18.0676 26.3677 18.1414 26.3363 18.2155C26.3805 18.2627 26.4256 18.3101 26.4714 18.3576C26.4881 18.2806 26.5055 18.2042 26.5237 18.1282C26.6062 18.2295 26.7093 18.3288 26.8086 18.4243L22.1964 23.0721C22.2379 23.1172 22.1942 23.0763 22.2602 22.9445C22.2165 22.9651 22.1724 22.9863 22.123 23.0059C22.1396 22.9312 22.1493 22.8533 22.1571 22.7752C21.9553 22.7 21.9191 22.7418 21.7227 22.7543C21.7483 22.7025 21.7742 22.6508 21.8003 22.5993C21.6417 22.6277 21.3593 22.6229 21.123 22.5835C21.0102 22.5631 20.8313 22.4509 20.7992 22.4533C20.7662 22.4542 20.4493 22.7215 20.4517 22.4522C20.0134 22.5192 19.8261 22.3919 19.6456 22.3854C19.5283 22.3824 19.4722 22.445 19.3362 22.4489C19.1409 22.4549 18.9492 22.4259 18.8331 22.433C18.7674 22.4372 18.7567 22.5005 18.7113 22.5039C18.5025 22.5211 18.6238 22.4515 18.3993 22.4668C18.3797 22.4686 18.2141 22.5543 18.0309 22.5594C17.9288 22.5614 17.6475 22.5025 17.6223 22.5059C17.5133 22.52 17.622 22.6785 17.2334 22.5272C17.2483 22.5583 17.2632 22.5894 17.278 22.6206C16.8359 22.7642 16.7457 22.6361 16.6515 22.6406C16.6396 22.6417 16.5389 22.7164 16.4711 22.7208C16.3565 22.7281 16.296 22.6612 16.2702 22.6626C16.1813 22.6671 15.8968 22.7594 15.685 22.7313C15.7675 22.9359 15.132 23.1696 14.9126 22.9748C14.8082 23.0542 14.7042 23.1347 14.6003 23.2164C14.5356 23.1926 14.4703 23.1692 14.4046 23.1462C14.3837 23.1953 14.363 23.2444 14.3424 23.2936C14.1429 23.2609 13.9477 23.2293 13.7452 23.2028C13.7632 23.292 13.7812 23.3811 13.7995 23.4702C13.7484 23.4768 13.6971 23.4836 13.6457 23.4907C13.5846 23.4361 13.5228 23.3818 13.4611 23.3277C13.4064 23.3617 13.3517 23.396 13.297 23.4306C13.3002 23.4847 13.3034 23.5388 13.3068 23.5928C13.014 23.7676 12.9866 23.2423 12.5491 23.8895C12.4404 23.8902 12.331 23.8921 12.2207 23.8951C12.1929 24.1238 11.9501 24.0992 11.8023 24.192C11.6982 24.2574 11.7377 24.326 11.5881 24.3988C11.4382 24.4723 11.4104 24.4023 11.3984 24.4074C11.273 24.4632 11.2136 24.5673 11.1188 24.6003C11.1046 24.6053 11.0306 24.5417 10.9145 24.595C10.7983 24.6487 10.774 24.7688 10.5973 24.8432C10.5084 24.8807 10.4477 24.8276 10.369 24.8632C9.9893 25.0346 9.83106 25.5737 9.33076 25.3486C9.29915 25.4343 8.97844 25.876 8.79503 25.9861C8.50475 26.1584 8.56242 26.0128 8.44141 26.0755C8.42426 26.0846 8.35365 26.1681 8.12133 26.3264C8.07954 26.355 8.11838 26.3892 8.11286 26.3939C7.84235 26.5837 7.30526 26.9395 7.01546 27.1653C6.98956 27.1853 6.94218 27.4021 6.60187 27.44C6.3621 27.8184 5.55406 28.1339 5.28418 28.6889C5.23095 28.7462 5.12759 28.7767 5.10381 28.8024C4.91175 29.0127 5.06601 29.0459 4.55094 29.3309L0 24.9308C0.0332217 24.9119 0.0692976 24.8917 0.108549 24.87C0.0124247 24.8577 0.0773089 24.6898 0.250911 24.5165C0.509687 24.2573 0.43499 24.5466 0.625695 24.3276C0.595924 24.2996 0.566153 24.2715 0.536381 24.2434C1.07656 23.8284 1.03833 23.6118 1.47785 23.1218C1.64064 22.9399 1.93453 22.742 1.97328 22.6976C1.98737 22.6813 2.08484 22.418 2.09949 22.3995C2.18675 22.2934 2.272 22.2634 2.34969 22.1721C2.61027 21.8669 2.80311 21.4262 2.93098 21.638C2.96149 21.5228 2.9922 21.4066 3.02139 21.2916C3.46929 21.1309 3.3871 20.6746 3.62882 20.7566C3.63322 20.669 3.63732 20.5813 3.64109 20.4937C4.70644 19.1293 5.65003 17.7153 6.36148 16.2831C6.323 16.1917 6.62703 15.5788 6.64798 15.5505C6.75937 15.424 6.85377 15.6447 6.93919 15.3266C6.88327 15.2658 6.82694 15.2058 6.77035 15.146C6.8895 14.761 6.89004 14.968 6.99146 14.836C7.00465 14.7708 6.94338 14.7718 6.96808 14.687C7.11229 14.2234 7.34214 13.3112 7.3935 12.8459C7.40593 12.752 7.45709 12.773 7.46121 12.7436C7.47158 12.6622 7.42304 12.4964 7.43533 12.34C7.53572 11.3543 7.37199 10.1264 7.01061 9.27387C6.98708 9.21459 7.04217 9.18125 7.02633 9.14148C7.00452 9.08679 6.89778 8.99325 6.87223 8.93561C6.84823 8.88126 6.8721 8.82385 6.84446 8.76439C6.72263 8.49643 6.42636 8.2052 6.33216 7.8568C6.32891 7.82962 6.28888 7.37754 6.29536 7.36198C6.33507 7.25628 6.68763 7.41149 6.41882 6.89111C6.84761 7.18219 6.94728 6.92736 6.53091 6.33174C6.80718 6.57248 7.05101 6.80329 7.29685 7.06626C7.31827 7.0499 7.33968 7.03355 7.3611 7.0172C7.25901 6.67636 7.09238 6.40938 6.7345 6.02977C6.76366 6.0237 6.79285 6.01771 6.82206 6.0118C7.23749 6.25229 7.60169 6.6444 7.9456 6.81957C7.74874 6.36649 7.52283 5.93069 7.24318 5.48429L6.67785 4.82837L7.24318 4.34111C7.27555 4.32045 7.30791 4.2998 7.34028 4.27914C7.33406 4.31318 7.32784 4.34722 7.32162 4.38126C7.31662 4.38857 7.31136 4.39609 7.30588 4.40381L6.80257 4.83762L7.30588 5.42158C7.53989 5.58303 7.91491 5.95217 8.08268 6.08528C8.75524 6.61254 7.71764 5.44475 7.9606 5.57065C8.55514 6.22926 9.07072 6.95138 9.47235 7.73782C9.6204 7.69682 8.28026 5.39741 7.88889 4.83858V4.98682C7.9699 4.94647 8.02374 4.93402 8.04157 4.95801C8.01306 4.99 7.98455 5.02198 7.95604 5.05397V4.77143C8.14669 4.94217 8.32894 5.11502 8.50301 5.28997C8.46419 5.15194 8.42165 5.01282 8.37532 4.87273C8.41502 4.88587 8.45464 4.89917 8.4942 4.91263C8.86702 5.24179 9.23974 5.6171 9.5705 5.99716C8.99726 5.25277 8.56053 4.80467 8.32494 4.40252L8.32494 5.42288C8.56993 5.28386 8.79251 5.23567 9.02891 5.27463C9.00949 5.31179 8.99007 5.34894 8.97066 5.3861C8.8506 5.38826 8.69016 5.47299 8.50961 5.60755V4.21785C8.92072 4.74136 9.62703 5.4812 10.0216 5.99744C9.99409 5.78428 9.48097 5.22148 9.40911 5.05969C9.39099 5.01331 9.54426 5.1005 9.49923 4.99552C9.40828 4.77368 8.9494 4.15044 8.81605 3.91142L8.81605 5.91398C8.87586 5.88585 8.90911 5.88436 8.90045 5.92442C8.89845 5.93364 8.8895 5.95002 8.87457 5.9725V3.8529C9.19513 4.0429 10.3578 5.30856 10.54 5.64481C10.1628 4.90539 9.65807 4.24595 9.14465 3.58282L9.14465 6.24258C9.22253 6.18485 9.3011 6.12814 9.38054 6.07273C9.33916 6.16782 9.3004 6.26258 9.26031 6.35825V3.46715C9.72284 3.69851 10.1952 3.94604 10.7685 4.67684C11.0302 4.8488 10.055 3.44428 9.69594 3.03153L9.69594 6.79387C9.75665 6.74953 9.79687 6.72364 9.80739 6.72484C9.78275 6.76036 9.75811 6.79588 9.73347 6.8314V2.994C10.0327 3.21719 10.3211 3.44808 10.5987 3.68701C10.3572 3.43273 10.1039 3.18402 9.83879 2.9409C9.85259 2.92567 9.8664 2.91044 9.8802 2.89521C10.5971 3.48625 11.2922 4.02021 11.9064 4.96547C11.9806 4.87455 11.587 4.32051 11.3929 4.07545ZM17.4324 4.97538C17.4014 4.89027 17.6326 4.85653 17.7551 4.82684C17.7324 4.81559 17.7098 4.80423 17.6875 4.79277C17.9548 4.75074 18.4749 4.62085 18.435 4.44716C18.6191 4.36065 18.5855 4.53273 18.6542 4.52677C18.6849 4.52345 18.899 4.3508 19.1423 4.36521C19.1904 4.3447 19.2389 4.32366 19.2877 4.30208C19.2744 4.24539 19.2609 4.18874 19.2474 4.13213C19.3424 4.16662 19.4407 4.19877 19.5341 4.23244C18.8305 4.56889 18.1282 4.82043 17.4334 4.97516C17.4331 4.97523 17.4327 4.9753 17.4324 4.97538ZM24.2372 0.887577C24.486 0.70252 24.8788 0.391197 24.6973 0.348637C24.5565 0.497241 24.4169 0.641826 24.2785 0.78249C24.2647 0.817599 24.251 0.852628 24.2372 0.887577ZM13.7323 23.0523C13.4355 22.9898 13.2566 23.1934 12.872 23.3112C12.8843 23.3415 12.8965 23.3717 12.9088 23.402C13.035 23.2684 13.4536 23.1692 13.7323 23.0523ZM11.211 4.01409C11.1761 3.97203 11.1421 3.93018 11.1092 3.8886C11.3838 3.88085 11.3382 4.00211 11.541 4.12749C11.5533 4.13502 11.5726 4.09938 11.5768 4.1021C11.626 4.1338 11.6434 4.20482 11.6855 4.23281C11.7678 4.28708 11.865 4.29409 12.0121 4.38901C12.1249 4.46125 12.087 4.52754 12.1292 4.55078C12.1688 4.57404 12.6161 4.58796 12.798 4.7761C13.1531 5.18318 11.3068 4.18647 11.211 4.01409ZM10.1435 2.87201C10.1815 2.90902 10.2209 2.94727 10.2623 2.98702C10.0591 2.95225 10.3124 3.18017 10.4811 3.33196C10.3987 3.41325 10.083 3.04304 9.86207 2.8654C9.95486 2.86647 10.0497 2.86999 10.1435 2.87201ZM15.4749 5.80278C15.2848 5.80092 15.33 5.66084 15.3408 5.6198C15.3988 5.62479 15.4573 5.62911 15.5164 5.63272C15.5028 5.68944 15.4889 5.74613 15.4749 5.80278ZM14.0771 5.62325C14.158 5.54767 14.5614 5.59939 14.7465 5.61948C14.7548 5.62072 14.6939 5.66466 14.8278 5.68138C14.8706 5.68949 15.2843 5.54585 15.1742 5.75189C14.8079 5.73733 14.4397 5.69406 14.0776 5.62339C14.0774 5.62334 14.0772 5.62329 14.0771 5.62325ZM13.6973 5.45173C13.779 5.44656 13.8602 5.44003 13.9415 5.43231C13.9665 5.48668 13.9924 5.54099 14.0192 5.59522C13.9308 5.58276 13.843 5.56884 13.756 5.55355C13.7361 5.51966 13.7167 5.48578 13.6973 5.45173ZM7.77186 15.8869C7.71936 15.8876 7.66687 15.8881 7.61442 15.8885C7.55875 15.949 7.59612 16.3899 7.68254 16.2935C7.7144 16.1574 7.74423 16.0217 7.77186 15.8869ZM8.39507 14.3958C8.43955 14.3273 8.48349 14.2579 8.52682 14.1877C8.47013 14.0796 8.41184 13.9735 8.35198 13.8696C8.21256 14.229 8.03096 14.6007 8.28151 14.6078C8.25571 14.6938 8.22886 14.7799 8.20099 14.8662C8.12893 14.7626 8.09531 14.7648 7.96144 14.9657C8.07693 15.0586 7.93214 15.2658 7.85922 15.541C7.94057 15.3512 8.0173 15.1616 8.08911 14.9724C8.11236 14.9802 8.13562 14.988 8.15887 14.9957C8.00211 15.4239 8.33882 14.9373 8.32867 14.6232C8.36662 14.6104 8.40454 14.5974 8.44245 14.5842C8.42719 14.5209 8.4114 14.4581 8.39507 14.3958ZM22.3129 21.7942C22.2823 21.7553 22.2496 21.7162 22.2148 21.6771C21.9341 21.9177 22.3996 21.7566 22.4811 22.0838C22.5032 21.8767 22.7914 22.0371 22.7999 22.0331C22.807 21.961 22.8096 21.887 22.8079 21.8115C22.6485 21.7973 22.4882 21.7943 22.3129 21.7942ZM21.0069 21.2167C21.1644 21.4 20.2594 21.2746 19.939 21.231C19.8606 21.217 19.7278 21.1221 19.6712 21.131C19.6359 21.1621 19.6007 21.1932 19.5655 21.2246C19.528 21.1077 18.8948 21.2261 18.6427 21.2995C18.6182 21.2594 18.5934 21.2193 18.5684 21.1793C18.4782 21.1991 18.3874 21.2196 18.296 21.2411C18.3053 21.1997 18.3147 21.1584 18.3241 21.117C18.2566 21.1698 18.1891 21.2231 18.1219 21.2768C17.852 21.3512 18.0047 21.1167 17.8044 21.203C17.5828 21.3002 17.9684 21.3986 17.9664 21.486C18.147 21.4479 18.5618 21.3758 18.7461 21.3699C18.8529 21.3671 18.738 21.519 19.1878 21.3408C19.2842 21.3826 19.3877 21.4257 19.484 21.4698C19.6662 21.4092 19.8455 21.3522 20.033 21.3C20.0624 21.3595 20.0912 21.419 20.1192 21.4787C20.1359 21.4871 20.5544 21.3999 20.5388 21.3565C20.6885 21.4842 21.0166 21.5491 21.3393 21.6257C21.3777 21.6022 21.4162 21.579 21.4546 21.556C21.1189 21.5508 21.3588 21.5011 21.274 21.4223C21.2272 21.3772 21.0658 21.2786 21.0069 21.2167ZM6.72273 18.2825C6.91724 17.6559 6.82691 18.0602 7.15183 17.4524C7.06416 17.4607 6.97656 17.4686 6.88903 17.4759C6.8529 17.8358 6.49464 18.2768 6.7224 18.2831C6.72251 18.2829 6.72262 18.2827 6.72273 18.2825ZM8.54624 12.2288C8.5689 12.5467 8.69963 12.395 8.6913 12.8097C8.69128 12.8099 8.69126 12.8101 8.69123 12.8103C8.72534 12.598 8.75174 12.3883 8.77037 12.1772C8.69571 12.195 8.621 12.2121 8.54624 12.2288ZM8.00713 25.102C8.31705 24.9331 8.22858 24.9229 8.55553 24.8484C8.88446 24.4752 8.55379 24.7075 8.48541 24.6014C8.41122 24.6925 8.34285 24.7808 8.27218 24.8714C7.98756 24.9172 8.16315 24.7302 8.15723 24.7207C8.15705 24.7208 8.15686 24.7209 8.15668 24.721C8.13587 24.6894 8.13873 24.6778 8.04109 24.7147C8.02894 24.8439 8.01762 24.973 8.00713 25.102ZM9.19671 24.1666C9.13679 24.2997 9.14348 24.4197 9.44405 24.3063C9.44424 24.3062 9.44444 24.3061 9.44463 24.306C9.37266 24.1304 9.71273 24.11 9.82609 24.0335C9.8477 23.9982 9.86939 23.963 9.89115 23.9278C9.66119 24.0023 9.42894 24.0823 9.19671 24.1666ZM13.9781 21.863C14.0388 22.0612 13.7937 22.1563 14.2033 22.2314C14.2708 22.2074 14.338 22.1838 14.4051 22.1607C14.4373 22.1041 14.4697 22.0477 14.5023 21.9913C15.473 22.1251 15.5761 21.4224 14.154 22.0663C14.1538 22.0665 14.1536 22.0667 14.1535 22.0669C14.0955 21.9987 14.037 21.9307 13.9781 21.863ZM12.4472 22.4127C12.4756 22.5184 12.5042 22.624 12.533 22.7295C12.2448 22.561 12.1038 22.8863 11.662 22.877C11.6418 22.9219 11.6217 22.9669 11.6019 23.0118C11.437 22.9916 10.1077 23.6242 10.4708 23.6334C10.6268 23.6349 10.8478 23.415 10.8734 23.4054C10.9568 23.3739 11.1008 23.4081 11.2318 23.3408C11.3073 23.3017 11.4244 23.1265 11.5822 23.0566C11.945 22.8936 12.7023 22.9018 13.0821 22.4713C13.1276 22.4898 13.172 22.5088 13.2182 22.5272C13.5698 22.3836 13.4187 22.3253 13.7884 22.3347C13.8583 21.7571 12.462 22.8243 12.6454 22.3178C12.6452 22.3179 12.645 22.318 12.6448 22.3181C12.579 22.3492 12.5131 22.3808 12.4472 22.4127ZM3.78378 28.4456C3.76004 28.432 3.72543 28.4571 3.68619 28.4948L0.864746 25.7669C0.962097 25.6735 1.09251 25.4977 1.15249 25.6644C1.20158 25.5015 1.2587 25.3294 1.30275 25.1703C1.28695 25.1569 1.27116 25.1436 1.25536 25.1302C1.16769 25.2464 1.06705 25.3755 0.974904 25.495C0.950846 25.4727 0.926789 25.4504 0.902733 25.4281C0.885223 25.4887 0.830042 25.5734 0.757384 25.6631L3.79356 28.5986C4.01432 28.3242 4.41124 28.0068 4.45722 28.0847C4.45725 28.0162 4.45748 27.9477 4.45792 27.8791C4.86263 27.675 5.03936 27.3183 5.47731 27.1068C5.47805 27.0521 5.47892 26.9974 5.47994 26.9426C5.51949 26.9517 5.55899 26.9608 5.59842 26.9701C5.73091 26.8609 5.86359 26.7537 5.99641 26.6486C6.33862 26.1934 5.39947 26.7504 5.31082 26.8609C5.29927 26.8747 5.35716 26.9366 5.2829 27.0198C5.15354 27.1578 4.29079 27.8443 4.09733 28.1245C4.05556 28.0867 4.01377 28.0488 3.97198 28.011C3.90836 28.1551 3.84563 28.3 3.78378 28.4456ZM16.0066 21.5837C16.0407 21.6354 16.0742 21.6873 16.1087 21.739C16.5038 21.6056 16.7594 21.6202 16.6282 21.4483C16.6279 21.4483 16.6277 21.4484 16.6275 21.4484C16.423 21.4893 16.2135 21.5348 16.0066 21.5837ZM23.6505 2.61015C23.7292 2.69296 23.9246 2.58809 24.0614 2.36391C24.0305 2.34675 23.9997 2.32954 23.969 2.31228C23.9339 2.4688 23.689 2.45722 23.3796 2.73448C23.4154 2.77922 23.4512 2.82396 23.487 2.86871C23.5415 2.78331 23.596 2.69713 23.6505 2.61015ZM15.6556 21.6303C15.5177 21.5899 15.2156 21.8707 15.4462 21.8278C15.6214 21.7956 15.7289 21.6518 15.6556 21.6303ZM8.63103 11.0074C8.62724 11.0874 8.62216 11.1678 8.61577 11.248C8.6673 11.2859 8.71853 11.3248 8.76946 11.3646C8.76945 11.3644 8.76944 11.3642 8.76943 11.364C8.72616 11.2426 8.67995 11.1232 8.63103 11.0074ZM7.03092 25.8077C7.28764 25.6069 7.54112 25.416 7.80279 25.2269C7.78742 25.1989 7.77205 25.1709 7.75669 25.1429C7.55559 25.4228 7.38224 25.395 7.3154 25.4334C7.31567 25.4332 7.31594 25.433 7.31621 25.4328C7.10579 25.5533 6.90395 25.6802 6.70014 25.788C6.80995 25.7944 6.92005 25.8011 7.03092 25.8077ZM6.03263 26.3339C6.21819 26.4734 6.28749 26.4456 6.58084 26.0154C6.54837 26.0056 6.51585 25.9959 6.48328 25.9863C6.29004 26.1584 6.20459 26.2952 6.16671 26.175C6.12191 26.2277 6.07721 26.2807 6.03263 26.3339ZM10.2901 23.6026C10.203 23.5659 9.82085 23.8529 9.86229 23.8724C9.87575 23.8792 10.457 23.6723 10.2901 23.6026ZM20.7984 4.62859C20.896 4.59381 20.9945 4.55729 21.094 4.51899C20.9847 4.60998 20.876 4.69843 20.7679 4.78442C20.7782 4.73251 20.7884 4.68057 20.7984 4.62859ZM19.9247 5.41979C19.8454 5.42279 19.981 5.14548 19.5586 5.27026C19.8548 5.14105 20.1263 5.00974 20.415 4.85829C20.2943 4.95634 20.1742 5.05125 20.0548 5.14314C20.1026 5.18482 20.1508 5.22625 20.1993 5.26743C20.1072 5.31984 20.0204 5.36849 19.9247 5.41979ZM19.5471 5.42095C19.7664 5.50201 18.9284 5.84115 18.8403 5.84085C18.8211 5.84265 18.7022 5.75914 18.6648 5.74469C18.7897 5.70471 18.9162 5.66165 19.0443 5.61537C18.989 5.59634 18.9343 5.5768 18.8802 5.55676C19.0232 5.49404 19.17 5.42616 19.3056 5.35929C19.2575 5.41771 19.2111 5.47493 19.1608 5.533C19.2895 5.49811 19.4165 5.4615 19.5471 5.42095ZM22.7388 3.54838C22.639 3.61615 22.5399 3.6821 22.4416 3.74628C22.4936 3.77977 22.5459 3.81307 22.5984 3.84619C22.6566 3.80512 22.715 3.76342 22.7737 3.72109C22.7622 3.66348 22.7505 3.60591 22.7388 3.54838ZM20.7466 4.8934C20.7583 4.57539 21.4567 4.87602 20.875 4.94236C20.8168 4.94808 20.7453 4.92429 20.7466 4.8934ZM18.5159 5.90888C18.2293 6.20068 18.1895 5.75206 18.5394 5.78384C18.5565 5.78587 18.5385 5.88665 18.5159 5.90888ZM16.0006 6.30714C15.9726 6.30508 15.926 6.16485 15.6678 6.29345C15.6263 6.27553 15.5853 6.25729 15.5448 6.23874C15.6435 6.1892 16.4813 6.13404 16.3733 6.27459C16.2418 6.28346 16.1383 6.31063 16.0006 6.30714ZM16.885 6.78932C17.0203 6.77087 17.1574 6.74912 17.2961 6.7239C17.2434 6.68639 17.1915 6.64839 17.1405 6.60993C17.2052 6.58867 17.273 6.56616 17.3353 6.54378C17.4579 6.60285 17.5845 6.65923 17.7151 6.71268C17.4228 6.78304 17.12 6.8408 16.8242 6.88242C16.8446 6.85146 16.8649 6.82043 16.885 6.78932ZM20.4998 5.83157C20.2342 5.89549 19.9324 6.09882 19.5206 6.246C19.5204 6.24595 19.5201 6.24589 19.5199 6.24583C19.4989 6.25309 19.4424 6.20851 19.3722 6.23188C19.3126 6.26854 18.1914 6.67906 18.2527 6.54142C18.6709 6.33527 18.8746 6.41267 18.9052 6.1586C18.9414 6.19845 18.978 6.23813 19.0148 6.27764C19.4676 6.21262 19.5223 6.0035 19.7265 5.85351C19.7398 5.88814 19.753 5.92277 19.7663 5.9574C19.9204 5.89784 20.0852 5.82993 20.2348 5.76529C20.2036 5.7528 20.1725 5.74017 20.1416 5.7274C20.194 5.7037 20.2466 5.67949 20.2994 5.65477C20.4743 5.69421 20.6542 5.63478 20.4998 5.83157ZM16.262 6.77261C16.1464 7.07664 14.8974 6.84778 14.3448 6.77013C14.6628 6.66227 15.0915 6.83729 15.4193 6.85772C16.0388 6.88953 15.6136 6.76627 15.7199 6.72559C15.7678 6.70627 16.127 6.88835 16.262 6.77261ZM21.3823 5.31689C21.0853 5.4571 20.9538 5.5992 20.6489 5.63624C20.6612 5.60725 20.6733 5.57823 20.6855 5.54916C20.7889 5.52437 21.5031 5.20072 21.3823 5.31689ZM13.5589 6.49958C14.1153 6.76119 13.8861 6.43232 14.1454 6.69132C13.9431 6.65875 13.7395 6.61809 13.5377 6.57002C13.5448 6.54654 13.5519 6.52306 13.5589 6.49958ZM14.704 20.767C14.4332 20.8285 14.1221 20.8623 13.9938 21.0104C14.1787 20.9737 14.359 20.9407 14.5473 20.9081C14.5994 20.8608 14.6517 20.8138 14.704 20.767ZM22.6281 19.6318C22.5745 19.5867 22.2995 19.5847 22.2718 19.5782C22.2212 19.5645 22.2445 19.5326 22.2463 19.523C21.923 19.4467 22.1916 19.6327 21.9487 19.599C21.9063 19.5895 21.3572 19.4178 21.1147 19.391C20.763 19.3447 20.3945 19.3041 20.2629 19.2961C20.0304 19.2801 19.61 19.3433 19.2312 19.346C19.0796 19.3468 19.0257 19.2782 18.8696 19.2821C17.8599 19.2829 15.9317 19.6416 15.0636 19.8149C14.8433 19.8532 14.6264 19.8136 14.514 19.8494C14.4333 19.9037 14.3527 19.9585 14.2723 20.0138C13.9195 19.8014 13.9033 20.0796 13.6208 20.1917C13.4413 20.2634 13.3283 20.2073 13.3033 20.2152C13.1412 20.2679 13.0748 20.3335 12.9495 20.3821C12.8092 20.4364 12.5898 20.4705 12.5406 20.4956C12.5114 20.5122 12.6465 20.5828 12.1021 20.7822C11.5405 20.9914 10.995 21.2073 10.4477 21.4551C10.7788 21.6902 10.8282 21.403 11.054 21.2909C11.1136 21.2614 11.0971 21.3294 11.1491 21.3044C11.2959 21.2335 11.5607 21.0647 11.6889 21.0283C11.8295 20.988 11.8312 21.1265 11.9854 21.0153C11.9932 21.0096 11.9464 20.9703 11.9837 20.9463C12.3594 20.709 12.5228 20.7468 13.0452 20.5748C13.3797 20.4343 15.51 19.8371 15.595 19.8833C16.0121 19.9706 13.7685 20.493 13.5129 20.5912C13.4201 20.6145 13.4984 20.5283 13.4116 20.5434C13.3742 20.5502 13.0999 20.7543 12.7949 20.8702C12.4283 21.0055 11.6633 21.218 11.3222 21.3687C8.36547 22.6456 5.66147 24.4138 3.3278 26.6549C3.27864 26.7024 3.2609 26.8127 3.10189 26.9694C2.93959 27.1295 2.77748 27.293 2.61569 27.4598L1.93525 26.8019C4.70548 23.9392 7.44067 20.7467 9.07012 17.1001C9.44057 16.2593 9.69243 15.3898 9.96737 14.5186C9.94774 14.3962 9.9263 14.275 9.90302 14.155C9.88043 14.4449 9.62982 14.9231 9.61329 14.9666C9.60785 14.9829 9.63069 15.1032 9.57403 15.2707C9.49405 15.5062 9.41189 15.5911 9.40543 15.6106C9.38457 15.6698 9.44662 15.6479 9.42636 15.7046C9.27303 16.1285 9.15694 16.4558 8.99104 16.8386C8.80258 17.2676 8.61141 17.4414 8.55307 17.7937C8.49908 17.81 8.4451 17.8261 8.3911 17.842C8.44447 18.1543 7.67472 19.4879 7.31887 20.0018C7.21007 20.166 7.16818 20.0977 7.13233 20.1531C7.10863 20.1883 7.20024 20.2265 6.89658 20.6455C6.74291 20.8554 6.64744 20.8719 6.57528 20.9797C6.53594 21.0383 6.59854 21.0675 6.53967 21.1512C6.19959 21.6328 5.8943 22.0064 5.53195 22.4542C5.4291 22.581 5.38324 22.5471 5.36142 22.5762C5.28011 22.684 5.21524 22.9222 4.99777 23.1899C4.64974 23.6239 3.91525 24.4808 3.57618 24.7873C3.5255 24.8339 3.4372 24.8306 3.40469 24.8684C3.35566 24.9258 3.38882 24.9951 3.38026 25.0051C3.21353 25.192 3.26528 25.0361 3.16551 25.1701C3.11353 25.2402 3.10528 25.3698 2.96909 25.5314C2.78918 25.7443 2.7563 25.6378 2.68535 25.7284C2.67832 25.7381 2.72484 25.7864 2.6466 25.8733C2.42124 26.1236 2.11416 26.4618 1.86076 26.7299L2.69017 27.5318C2.7678 27.4496 2.84143 27.3733 2.90766 27.3063C2.99043 27.2226 3.08382 27.1925 3.19994 27.0787C3.41688 26.8429 4.7918 25.5639 4.93326 25.4994C4.94721 25.4914 4.8845 25.672 5.08353 25.5022C5.1159 25.422 5.14749 25.3428 5.18155 25.262C5.32371 25.2308 5.46529 25.2013 5.60625 25.1734C5.46083 24.9959 6.03413 24.5097 6.17102 24.7002C6.243 24.6581 6.31495 24.6164 6.38686 24.5752C6.4305 24.3446 6.55758 24.3242 6.77251 24.0582C6.84241 24.0693 6.91346 24.0798 6.98423 24.0906C6.97636 24.0562 6.96854 24.0218 6.96075 23.9873C7.20798 24.0322 7.34828 23.7243 7.37767 23.704C7.48834 23.6261 7.59768 23.6092 7.64969 23.574C7.84576 23.4406 8.25359 23.1151 8.50431 23.0025C8.51635 22.9972 8.54309 23.0695 8.61657 23.0373C8.74854 22.98 8.70568 22.8761 8.93505 22.8959C8.95213 22.8486 8.96933 22.8013 8.98665 22.754C9.03034 22.749 9.07394 22.7441 9.11747 22.7394C9.32041 22.617 9.5286 22.4956 9.73803 22.3777C9.60405 22.5924 9.85887 22.5394 10.0224 22.3441C10.0779 22.2778 9.97987 22.2394 9.99826 22.2169C10.0176 22.1828 11.0129 21.7569 11.0962 21.7822C11.1331 21.7389 11.1702 21.6958 11.2073 21.6528C11.2507 21.6877 11.2939 21.7228 11.337 21.758C11.3559 21.7311 11.3749 21.7042 11.3939 21.6774C11.6803 21.6464 12.2811 21.1978 12.4114 21.1694C12.4802 21.1535 12.4924 21.3711 12.7985 21.2395C12.7904 21.1811 12.7823 21.1228 12.7744 21.0644C12.845 21.0309 12.9155 20.9979 12.986 20.9652C13.1253 20.9232 13.3545 20.9543 13.3814 21.0177C13.4111 20.965 13.4411 20.9124 13.4712 20.8599C13.6304 20.9478 14.2238 20.7232 14.4577 20.577C14.5418 20.5966 14.6253 20.6168 14.7081 20.6376C14.7942 20.5654 14.8806 20.4938 14.9673 20.423C15.1924 20.3553 14.9691 20.491 15.0196 20.4862C15.1257 20.4737 15.6286 20.2257 15.627 20.4025C15.6987 20.3884 15.769 20.375 15.8414 20.3616C15.8698 20.3062 15.8984 20.2509 15.9272 20.1957C16.085 20.3391 16.2844 20.2394 16.7373 20.2359C16.7691 20.1921 16.801 20.1483 16.8331 20.1046C16.9783 20.1406 17.1211 20.1784 17.2614 20.2181C17.2816 20.151 17.3037 20.0837 17.3252 20.0165C17.385 20.0007 17.4445 19.9851 17.5039 19.97C17.6403 20.1012 17.8428 19.9274 17.9574 19.9791C18.1287 20.0547 18.0052 20.1646 17.714 20.2098C17.7439 20.3075 18.6205 20.2032 18.8273 20.1986C18.8134 20.1783 18.7994 20.1581 18.7853 20.1378C18.5703 20.1589 18.3727 20.1836 18.1615 20.2127C17.9698 19.9594 18.5417 19.995 18.8078 19.9585C18.8314 19.9551 18.9693 19.8507 19.2317 19.8618C19.3369 19.8647 19.7349 20.0229 19.8056 20.0361C20.4115 20.1409 19.9831 19.8977 20.5554 20.1358C20.4464 19.9836 20.7767 20.1316 21.1256 20.1614C21.1884 20.1634 21.7028 20.1476 21.7406 20.1566C21.9522 20.1877 21.7017 20.2537 22.0006 20.2959C22.0436 20.2734 22.0897 20.252 22.1344 20.2306C22.2046 20.2501 22.2734 20.2703 22.3408 20.2911C22.6586 20.6977 22.7993 20.534 22.9563 20.5687C23.0158 20.5828 22.9164 20.6208 23.0617 20.6693C23.1167 20.6888 23.1962 20.6547 23.3392 20.726C23.6979 20.9127 23.7167 21.1706 23.9761 21.2649L25.0151 20.2178C24.9543 20.1856 24.8831 20.1568 24.7973 20.1316C24.7727 20.048 24.7492 19.9649 24.7268 19.8822C24.6564 19.8791 24.5859 19.8757 24.5156 19.872C24.3584 19.493 24.3472 19.6937 24.2559 19.5901C23.9976 19.3021 23.5632 18.7094 23.614 18.5762C23.2012 18.4774 23.2444 18.0029 23.1655 17.9007C23.0972 17.8564 23.0295 17.8118 22.9623 17.7668C22.9436 17.6758 22.9265 17.5856 22.911 17.4962C22.7048 17.6688 22.7049 17.153 22.69 17.1124C22.6646 17.0674 22.2898 16.5033 22.1967 16.2627C22.0979 16.0344 22.018 15.5939 22.0087 15.5593C21.9943 15.5198 21.7959 15.1354 21.7248 14.8103C21.6083 14.5267 21.5898 12.822 21.5076 12.9271C21.4734 13.0389 21.4466 13.2008 21.437 13.3425C21.3017 13.7861 21.8691 16.3178 22.2534 16.8975C22.8163 18.1151 23.7019 19.2555 24.6459 20.2574C24.7026 20.3176 24.6628 20.3746 24.7123 20.4267C24.7247 20.4398 24.7418 20.4547 24.7621 20.4709L24.2272 21.0098C24.1428 20.9448 23.9681 20.862 23.9086 20.8177C23.6315 20.5981 23.2383 20.3941 23.0522 20.3148C22.6469 20.1397 22.3574 20.0117 22.0223 19.9181C21.9197 19.8869 21.369 19.8507 20.9971 19.7654C20.9333 19.7367 20.8684 19.7086 20.8025 19.6809C20.9957 19.6796 21.5165 19.7057 21.7514 19.7537C22.1025 19.8215 22.2634 19.9285 22.3884 19.9644C22.4908 19.9899 23.0334 20.1104 23.2664 20.2245C23.3369 20.2569 23.3195 20.3283 23.3766 20.3564C23.6967 20.5108 24.0637 20.7569 24.3159 20.9198L24.6727 20.5602C24.6666 20.5561 24.6605 20.5521 24.6544 20.5481C24.7618 20.6278 24.2106 19.9962 24.1893 19.9659C24.1398 19.9119 24.0379 19.9001 23.9384 19.7879C23.7416 19.5627 23.8724 19.5016 23.5339 19.3122C23.5092 19.2173 23.4861 19.123 23.4645 19.0293C23.3021 19.1401 22.845 18.0888 22.4933 17.9243C22.4488 17.9394 23.2461 19.204 23.3352 19.2882C23.6475 19.7064 24.1211 20.2114 24.5728 20.6602L24.4151 20.8191C24.2425 20.6494 24.0531 20.5059 23.8813 20.3852C23.7229 20.2558 23.1491 19.8625 23.094 19.852C23.017 19.8247 23.0615 19.9124 23.028 19.9016C22.3218 19.6951 22.7091 19.7022 22.6281 19.6318ZM19.8861 6.23967C20.0796 6.16814 20.284 6.08615 20.4687 6.00802C20.4726 6.05154 20.4764 6.09508 20.4801 6.13864C20.3877 6.16394 20.2952 6.18831 20.1977 6.21374C20.1386 6.2665 20.0794 6.3186 20.0202 6.37004C19.9752 6.3268 19.9305 6.28334 19.8861 6.23967ZM19.4729 6.58535C19.3057 6.66817 19.2692 6.58805 19.2283 6.59799C19.1063 6.62647 19.0161 6.69288 18.9028 6.72704C18.9706 6.49134 19.2726 6.48869 19.4729 6.58535ZM22.8742 4.88213C22.8316 4.89916 22.4731 4.87508 22.3181 5.21597C22.0856 5.28516 21.8492 5.35155 21.6094 5.41396C22.0216 5.29422 22.4145 4.91936 22.5878 4.80757C22.652 4.76671 22.702 4.81495 22.7536 4.78147C23.0415 4.59408 23.2189 4.2746 23.3814 4.43469C23.0756 4.57652 22.928 4.86029 22.8742 4.88213ZM21.042 5.88494C20.9706 5.86885 20.8998 5.8521 20.8297 5.83469C21.0088 5.74467 21.1817 5.65332 21.3509 5.56008C21.3277 5.62721 21.3043 5.69419 21.2806 5.76104C21.2032 5.80203 21.1249 5.84277 21.042 5.88494ZM22.3046 9.30872C22.3543 9.19776 22.4058 9.08735 22.4592 8.97739C22.4253 8.96846 22.3654 9.09524 22.323 9.1325C22.3231 9.13229 22.3232 9.13208 22.3233 9.13188C22.2757 9.17323 22.2455 9.13232 22.1847 9.22031C22.2246 9.24989 22.2645 9.27937 22.3046 9.30872ZM10.0789 14.0412C10.1684 13.8417 10.3682 11.9405 10.2027 12.0996C10.1426 12.1781 10.1517 12.8202 10.1213 13.0106C10.0943 13.2686 9.83526 13.9214 10.0789 14.0412ZM10.2905 10.6855C10.18 10.6687 10.2306 11.8351 10.2306 11.9514C10.2488 11.9274 10.2889 11.8902 10.2981 11.8575C10.3502 11.6981 10.2962 10.9407 10.2905 10.6855ZM21.6338 15.9522C21.6594 15.8383 21.6875 15.7265 21.7179 15.6169C21.6478 15.6661 21.578 15.7159 21.5085 15.7665C21.5495 15.8287 21.5912 15.8906 21.6338 15.9522ZM20.7201 19.7091C19.1099 19.5171 17.4545 19.6277 15.8408 19.9238C15.9781 19.8635 16.1151 19.8048 16.2518 19.7477C17.6536 19.5266 19.1783 19.4792 20.5307 19.5673C20.5951 19.6142 20.6583 19.6614 20.7201 19.7091ZM23.4557 4.9275C23.7985 4.68466 24.0507 4.4198 24.4627 4.21521C24.1799 4.55696 23.9202 4.57411 23.6524 4.93757C23.6522 4.93771 23.652 4.93784 23.6518 4.93798C23.5862 4.93494 23.5208 4.93144 23.4557 4.9275ZM23.9783 5.99316C24.0122 5.8578 24.0484 5.72156 24.0867 5.58468C23.9871 5.70586 23.8906 5.82612 23.7949 5.94825C23.8562 5.96298 23.9173 5.97795 23.9783 5.99316ZM7.03094 23.2586C6.72452 23.6036 5.66383 24.0902 5.47262 24.4357C5.46052 24.4578 5.66763 24.3773 5.4704 24.686C5.66064 24.5055 5.79058 24.376 5.74845 24.2865C5.83124 24.2652 5.91383 24.2443 5.99623 24.2241C6.08579 24.1269 6.17573 24.0305 6.26603 23.935C6.31097 24.0215 6.31589 24.0109 6.43856 23.8429C6.52638 23.8106 6.61214 23.7803 6.70152 23.748C6.71007 23.6925 6.71877 23.6369 6.72762 23.5814C6.82514 23.5836 6.92227 23.5865 7.01899 23.5901C7.23757 23.3693 7.02237 23.3805 7.03094 23.2586ZM8.37046 22.4541C8.28598 22.4569 6.58391 23.6276 7.47429 23.2836C7.67482 23.1472 7.88006 23.0118 8.08316 22.8818C7.74698 22.7127 8.4584 22.6177 8.51165 22.5972C8.75361 22.4928 9.00543 22.2672 9.17201 22.1824C9.3181 22.1079 9.43078 22.1133 9.53143 22.0594C9.8721 21.8747 10.4252 21.6091 10.4477 21.4551C10.171 21.5805 9.89135 21.7149 9.61376 21.8603C9.31879 22.016 8.99655 22.0417 8.53543 22.5011C8.39135 22.563 8.38948 22.4494 8.37046 22.4541ZM24.346 5.29592C24.4357 5.38939 24.9272 4.78613 24.8972 4.74646C24.8754 4.72445 24.7027 4.91584 24.6708 4.93463C24.6707 4.93481 24.6705 4.93498 24.6704 4.93516C24.6565 4.94315 24.6701 4.85182 24.5797 4.93207C24.5014 5.0518 24.4228 5.17378 24.346 5.29592ZM9.41019 17.0104C9.56069 16.9568 10.3375 14.6479 10.2736 14.5586C10.2688 14.5373 10.2306 14.5556 10.2143 14.5436C10.1813 15.1183 9.8104 15.847 9.6051 16.3393C9.54868 16.4768 9.61351 16.4549 9.61141 16.4631C9.61128 16.4634 9.61115 16.4638 9.61101 16.4641C9.5805 16.5439 9.31574 16.846 9.41019 17.0104ZM4.8975 24.97C4.99155 24.9198 5.08564 24.8703 5.17956 24.8216C5.17457 24.7732 5.16968 24.7248 5.16488 24.6763C5.16469 24.6765 5.1645 24.6766 5.16432 24.6768C5.07502 24.7736 4.98602 24.8714 4.8975 24.97ZM2.3748 26.9502C2.33667 26.9483 2.29862 26.9463 2.26064 26.9442C2.23133 26.9737 2.20219 27.0029 2.17321 27.032L2.37773 27.2297C2.53415 27.0728 2.69117 26.9187 2.84873 26.7675C2.8415 26.7975 2.83431 26.8275 2.82717 26.8575C3.13738 26.611 3.18097 26.4308 3.34676 26.2936C3.34659 26.2937 3.34641 26.2939 3.34624 26.2941C3.36399 26.2796 3.42518 26.3043 3.48811 26.2481C3.63235 26.1174 4.05354 25.7671 4.06329 25.6795C4.08216 25.4859 3.29984 26.2772 3.14737 26.4238C3.07859 26.486 2.96158 26.5265 2.92 26.5654C2.87459 26.6082 2.86365 26.718 2.75424 26.8239C2.73021 26.8469 2.49469 27.0163 2.31856 27.1725L2.23238 27.0892C2.28917 27.0393 2.34011 26.9907 2.3748 26.9502ZM5.38202 23.4399C5.28058 23.4621 5.22273 23.6322 5.17532 23.673C5.16406 23.6828 5.19469 23.5599 5.09406 23.6567C5.09778 23.7105 5.10144 23.7643 5.10504 23.8181C5.1974 23.6933 5.28978 23.5672 5.38202 23.4399ZM25.1902 4.27244C25.1618 4.28052 24.8777 4.58963 24.8704 4.61198C24.7849 4.87646 25.3716 4.2322 25.1902 4.27244ZM20.8434 6.90732C21.1113 7.01367 18.8693 7.7133 18.6353 7.72523C18.6173 7.62099 19.1841 7.57083 18.8615 7.50955C19.1476 7.51941 19.8634 7.22259 20.0261 7.17789C20.1308 7.1519 20.1915 7.22779 20.2079 7.22441C20.2705 7.21368 20.7652 6.88007 20.8434 6.90732ZM16.7392 7.97711C16.9588 7.98015 17.1761 7.97649 17.4019 7.9646C17.1391 8.01483 16.8931 8.05354 16.6258 8.0841C16.6639 8.04867 16.7017 8.013 16.7392 7.97711ZM16.4633 8.04454C16.4768 8.15483 15.7176 8.0904 15.5237 8.09722C15.7477 7.92959 16.1201 8.10233 16.4633 8.04454ZM27.0613 2.14111C26.7589 2.31077 26.8532 2.65366 27.0796 2.27221C27.0861 2.26047 27.0743 2.13477 27.0613 2.14111ZM6.69236 22.9435C6.64084 22.9725 5.96757 23.3125 5.96518 23.3804C5.95145 23.5911 6.30318 23.2599 6.4773 23.2169C6.75175 23.1518 6.47791 23.4338 6.97458 23.0298C6.97092 23.0714 6.96734 23.1131 6.96384 23.1548C7.27898 22.9602 7.05432 22.8371 7.09431 22.776C7.1057 22.7577 7.31478 22.6467 7.34349 22.6119C7.69619 22.1727 6.73425 22.9097 6.69236 22.9435ZM21.6378 8.7589C21.2667 9.35725 21.5083 9.13732 21.2499 9.80078C21.3002 9.84318 21.6456 8.8644 21.6378 8.7589ZM12.8096 20.0663C12.1342 20.3222 11.5484 20.4469 10.983 20.8251C11.0894 20.9672 12.9899 20.0393 12.8096 20.0663ZM10.8341 8.97208C11.3969 11.8485 10.7734 15.137 9.46806 17.8153C9.32698 18.1086 9.2429 18.0999 9.19791 18.2084C9.16806 18.2791 9.22969 18.2955 9.18317 18.3865C7.48024 21.6654 5.24415 24.4477 2.79953 26.9681C2.74359 27.0254 2.60009 27.1501 2.44345 27.2933L2.10749 26.9685C2.40434 26.6941 2.76643 26.3522 2.78296 26.1566C2.80169 25.9242 2.3286 26.5523 2.23696 26.6471C2.16723 26.7164 2.11297 26.6692 2.06671 26.7161C2.01768 26.7661 2.09318 26.7589 2.03711 26.8176C2.02352 26.8319 2.0098 26.8463 1.99599 26.8606L2.55495 27.4011C2.76972 27.1777 3.02942 26.93 3.21915 26.7225C5.2419 24.5097 7.12657 22.2511 8.6676 19.6657C8.85212 19.352 8.86343 19.4443 8.87308 19.4288C8.87308 19.4285 8.87308 19.4283 8.87308 19.428C9.85484 17.7339 10.6506 15.6041 11.022 13.5387C11.2959 12.0888 11.2962 10.5509 10.9121 9.0852C10.8864 9.04727 10.8604 9.00957 10.8341 8.97208ZM8.09726 22.3007C7.83269 22.2062 7.91051 22.4077 7.31199 22.6788C7.28708 22.7385 7.2612 22.799 7.23785 22.858C7.52311 22.6652 7.81116 22.4785 8.09819 22.3002C8.09788 22.3004 8.09757 22.3005 8.09726 22.3007ZM4.55594 24.6871C4.28213 24.523 3.312 25.6305 2.80609 26.0537C2.8187 26.2422 3.47003 25.5381 3.64699 25.407C3.73239 25.3397 4.28735 25.0533 4.57968 24.7064C4.57177 24.6999 4.56386 24.6935 4.55594 24.6871ZM23.1983 6.08537C23.2838 6.01959 23.3695 5.95266 23.4554 5.88456C23.2104 6.01025 22.9684 6.12743 22.7296 6.23639C23.0901 6.03932 23.4803 5.8056 23.8237 5.58866C23.7949 5.68345 23.7658 5.77798 23.7362 5.87228C23.5668 5.93966 23.3757 6.01874 23.1983 6.08537ZM24.3147 5.26862C23.7225 5.73089 24.2572 5.14063 24.4527 5.08031C24.567 5.04807 24.3763 5.22015 24.3147 5.26862ZM25.8831 4.13865C25.7023 4.44073 25.1483 4.90253 25.2105 4.57572C25.5761 4.40418 25.6892 4.20198 26.138 3.88171C26.1054 3.96541 26.0727 4.04879 26.0399 4.13186C26.0397 4.1321 26.0394 4.13234 26.0391 4.13258C25.987 4.13484 25.9349 4.13686 25.8831 4.13865ZM24.1134 5.57634C23.6438 5.76834 24.8214 4.95287 24.5072 5.28574C24.492 5.30322 24.1314 5.57043 24.1134 5.57634ZM11.4559 12.142C11.3892 12.0788 11.3743 12.4682 11.3579 12.596C11.2983 13.1514 11.2183 13.8639 11.0783 14.4234C11.1103 14.3862 11.1422 14.3488 11.1739 14.3112C11.3298 13.6018 11.4296 12.8768 11.4559 12.142ZM10.5731 16.1458C10.4408 16.5171 10.2971 16.8798 10.1417 17.2402C10.1274 17.2737 10.1133 17.455 10.1779 17.3438C10.3235 16.9478 10.455 16.5509 10.5731 16.1458ZM10.0533 20.7971C9.76545 20.8874 10.463 20.3447 10.5148 20.5597C10.3611 20.6369 10.2073 20.716 10.0533 20.7971ZM12.597 19.6838C12.4262 19.7628 12.2507 19.8458 12.0856 19.9275C12.0769 19.9044 12.0683 19.8813 12.0596 19.8582C12.234 19.7994 12.4181 19.7395 12.597 19.6838ZM11.4386 10.5475C11.3822 10.7631 11.4343 11.2508 11.4359 11.5573C11.5068 11.3447 11.4406 10.8402 11.4386 10.5475ZM6.1468 22.9503C6.19629 22.9791 5.23161 23.6603 5.50305 23.338C5.71772 23.2046 5.93043 23.0767 6.1468 22.9503ZM4.17655 24.3382C4.3616 24.1687 4.5334 24.057 4.54783 24.1611C4.43973 24.2431 4.33165 24.3264 4.22712 24.4079C4.21026 24.3847 4.19341 24.3614 4.17655 24.3382ZM26.9781 3.37756C27.1984 3.16098 27.4201 2.93706 27.6431 2.70558L26.7374 1.7291C26.6559 1.8021 26.5715 1.87812 26.4846 1.95708C26.4805 1.92787 26.4764 1.8987 26.4723 1.86956C26.5467 1.80202 26.6193 1.73668 26.6897 1.6736L27.6949 2.75733C27.4711 2.98972 27.2487 3.21454 27.0276 3.43199C27.0111 3.41385 26.9946 3.3957 26.9781 3.37756ZM11.6241 10.2629C11.562 9.95037 11.4863 9.64638 11.3949 9.3422C11.4546 9.65443 11.498 9.96341 11.5274 10.2779C11.5598 10.2731 11.5922 10.2684 11.6247 10.2636C11.6245 10.2634 11.6243 10.2631 11.6241 10.2629ZM22.4468 7.20191C23.6881 6.60953 22.2417 7.60882 21.8361 7.60639C21.8358 7.60669 21.8355 7.60699 21.8352 7.6073C21.8 7.60849 21.8272 7.51353 21.7668 7.51161C21.9066 7.4771 22.0472 7.44018 22.1797 7.40578C22.2691 7.3114 22.3582 7.21574 22.447 7.11877C22.4907 7.11238 22.5345 7.10575 22.5785 7.09888C22.5346 7.13352 22.4907 7.16786 22.4468 7.20191ZM17.2394 9.05493C15.9712 9.15123 17.2491 8.8889 17.8849 8.90898C17.8906 8.94425 17.3567 9.04618 17.2394 9.05493ZM20.4235 8.19847C20.5974 8.11243 20.772 8.022 20.9473 7.92708C20.9788 7.9358 21.0105 7.9444 21.0423 7.95288C20.9102 8.03416 20.7783 8.11287 20.6466 8.18905C20.5717 8.19292 20.4974 8.19606 20.4235 8.19847ZM25.9982 5.13766C26.2453 4.95848 26.405 4.52934 25.6781 5.21144C25.6941 5.23023 25.7101 5.24902 25.7261 5.26781C25.7546 5.23959 25.8308 5.14693 25.837 5.14417C25.8552 5.13706 25.8907 5.21488 25.9982 5.13766ZM14.8012 9.72086C14.7617 9.72491 14.7138 9.98757 14.3395 9.6641C14.215 9.66262 14.0914 9.65918 13.9686 9.65388C13.9477 9.59192 13.9274 9.52994 13.9076 9.46793C14.3574 9.59425 14.4297 9.47904 14.4622 9.4827C14.619 9.49253 14.4968 9.5367 14.5966 9.55015C14.8466 9.58758 15.4451 9.58602 15.1633 9.73758C15.0603 9.79214 14.8399 9.71594 14.8012 9.72086ZM15.7211 9.92544C15.6637 9.9027 15.8515 9.82983 15.808 9.80755C15.7669 9.79181 15.2094 9.69005 15.3683 9.5681C15.4583 9.57827 15.5491 9.58738 15.6406 9.59538C15.6707 9.63145 15.7012 9.6674 15.732 9.70323C15.8226 9.67251 15.913 9.64072 16.0033 9.60784C16.1573 9.69452 16.4782 9.79853 16.0982 9.87735C16.2395 9.86819 16.379 9.85653 16.5208 9.84222C16.5922 9.79707 16.6632 9.75125 16.7338 9.70477C16.6996 9.77065 16.6649 9.83639 16.6297 9.90196C16.3274 9.92146 16.0284 9.9295 15.7211 9.92544ZM11.4077 8.95661C11.4366 8.93334 11.4653 8.90999 11.4939 8.88656C10.9905 8.74521 10.2702 8.38139 10.7697 8.41222C11.3914 8.71237 12.0397 8.96046 12.7119 9.14797C12.7487 9.18498 12.7859 9.22185 12.8237 9.25858C12.3588 9.01716 12.3788 9.44805 11.9836 9.18364C11.918 9.13688 12.1776 9.08868 11.6933 8.99535C11.697 9.0324 11.701 9.06948 11.7051 9.10659C11.6042 9.05754 11.5051 9.0075 11.4077 8.95661ZM7.77032 6.52205C8.37987 7.1237 7.59058 6.5921 7.54245 6.40409C7.54264 6.40427 7.54283 6.40445 7.54303 6.40463C7.42287 5.91968 7.99739 6.63529 8.0504 6.67073C8.11609 6.72349 8.3591 6.68165 8.5077 7.16364C8.25329 6.95696 8.002 6.73756 7.77032 6.52205ZM10.0191 8.24873C9.95128 8.21602 10.0123 8.19464 9.98423 8.17878C9.98399 8.17863 9.98375 8.17849 9.9835 8.17835C9.56723 7.95825 8.64087 7.34281 8.64754 7.13334C8.91007 7.35328 10.2129 8.16157 10.2571 8.28658C10.1792 8.27555 10.0997 8.26283 10.0191 8.24873ZM13.1473 9.42833C13.4074 9.6021 12.7541 9.44844 12.6056 9.34658C12.579 9.32711 12.8774 9.24846 13.1473 9.42833ZM23.027 3.49387C22.68 3.9805 23.2431 3.43681 23.1373 3.70325C23.2061 3.61311 23.2727 3.52662 23.3443 3.43567C23.2374 3.45563 23.1328 3.47383 23.027 3.49387ZM17.702 17.0893C17.5603 17.0886 17.6317 17.1427 17.6196 17.1445C17.5271 17.1502 17.4352 17.1097 17.3998 17.1181C16.7453 17.2803 17.1929 17.2864 17.2001 17.2969C17.2196 17.3541 17.0547 17.4396 17.2997 17.4826C17.442 17.448 17.5837 17.4149 17.7248 17.3835C17.7979 17.4107 17.875 17.4381 17.9492 17.4661C18.2348 17.3786 17.8546 17.3821 17.8035 17.2933C17.7839 17.258 18.0584 17.1949 17.702 17.0893ZM22.1782 4.18675C22.1944 4.33015 22.15 4.59467 22.3758 4.47839C22.376 4.47819 22.3761 4.47798 22.3763 4.47778C22.418 4.45591 22.5379 4.32519 22.5927 4.30093C22.7319 3.9199 22.5313 3.93451 22.1782 4.18675ZM20.4035 16.8985C20.6486 16.9414 20.8955 16.9901 21.1444 17.0459C21.1324 17.1068 21.1205 17.1676 21.1086 17.2285C20.9792 17.1954 20.8443 17.1636 20.7148 17.1342C20.6668 17.1579 20.6188 17.1817 20.5709 17.2058C20.7225 17.2901 20.8827 17.3778 21.0353 17.4676C21.2336 17.4671 21.4252 17.4696 21.6319 17.4791C21.547 17.4318 21.4552 17.3844 21.3728 17.3394C21.867 17.3799 21.7356 17.5112 22.1195 17.6462C22.2709 17.6195 22.4223 17.5954 22.5739 17.5741C22.7527 17.6779 22.9543 17.7939 23.1324 17.9106C23.4729 17.9924 23.5307 17.9699 23.3127 17.8255C23.513 17.8129 23.6639 17.9929 23.8761 18.0468C23.8938 18.0513 23.889 17.973 23.9041 17.9783C25.0266 18.4216 24.8759 18.637 25.049 18.7392C25.1682 18.8119 25.74 19.1059 25.7793 19.0953C25.8349 19.0702 25.0569 18.1638 26.1504 19.0569L22.824 22.409C22.7454 22.3373 22.6533 22.2483 22.5472 22.139C22.6168 22.2488 22.6966 22.3549 22.7805 22.4525L26.1935 19.013C25.4722 18.2594 24.7851 18.1055 25.223 18.5911C24.9582 18.3419 23.7489 17.8501 23.6946 17.8459C23.5916 17.7965 23.6595 17.7279 23.5238 17.6774C23.4365 17.6487 23.1806 17.7566 22.6097 17.4305C22.5244 17.4431 22.4393 17.4565 22.3541 17.4708C22.2871 17.4279 22.2191 17.3856 22.1501 17.3437C22.323 17.2815 22.4974 17.2226 22.6734 17.1674C22.0379 17.1171 21.5692 16.849 21.1927 16.9663C20.8845 16.9077 20.7292 16.8758 20.8752 16.8054C20.7774 16.795 20.6892 16.7865 20.5961 16.7783C20.5316 16.818 20.4674 16.8581 20.4035 16.8985ZM21.2263 5.71422C20.9828 5.90445 21.0998 6.10856 21.1344 6.07585C21.3274 5.8958 21.3528 5.61714 21.2263 5.71422ZM18.2412 17.1663C18.5583 17.2045 18.8945 17.2503 19.2101 17.3054C19.2105 17.24 19.2108 17.1746 19.2112 17.1092C18.8916 17.1194 18.5551 17.1391 18.2412 17.1663ZM22.9752 3.33121C23.0308 3.34261 23.0861 3.35461 23.1419 3.36601C23.2435 2.98634 23.6601 2.92175 23.7406 2.76229C23.7576 2.72796 23.6441 2.72069 23.5818 2.75886C23.5398 2.78238 23.0031 3.27143 22.9752 3.33121ZM20.0481 9.48684C20.1669 9.41262 20.2854 9.33653 20.4035 9.25857C20.4152 9.31302 20.4268 9.36749 20.4383 9.42199C20.3772 9.45499 20.3162 9.48751 20.2551 9.51954C20.1856 9.50921 20.1166 9.49831 20.0481 9.48684ZM21.4527 8.84592C21.6721 8.75283 21.8807 8.65937 22.0967 8.55718C21.3074 8.99232 21.9878 8.69735 21.518 8.99238C21.4963 8.94356 21.4745 8.89474 21.4527 8.84592ZM23.6104 7.83186C23.6037 7.87453 23.5969 7.91719 23.59 7.95984C23.3856 8.08349 23.1776 8.20439 22.9728 8.31848C23.1583 8.34603 23.3464 8.37014 23.537 8.39074C23.6137 8.34606 23.6927 8.29927 23.7673 8.25446C23.7155 8.11335 23.6632 7.97249 23.6104 7.83186ZM11.5417 18.1883C11.4109 18.2318 10.9929 18.4966 11.0258 18.5243C11.23 18.4939 11.4327 18.4666 11.6339 18.4424C11.6125 18.3803 11.5912 18.3183 11.5699 18.2563C11.6074 18.2775 11.6448 18.2988 11.6821 18.3202C11.7823 18.2585 11.8832 18.1974 11.984 18.1372C12.0572 18.1728 12.13 18.2088 12.2024 18.2451C12.2363 18.1648 12.2706 18.0847 12.3052 18.0046C11.7443 18.0675 11.7978 18.1764 11.6885 18.2127C11.6323 18.232 11.5855 18.2056 11.559 18.1934C11.5532 18.1917 11.5475 18.19 11.5417 18.1883ZM18.4469 16.74C17.7595 16.7508 17.3927 16.9592 16.8841 16.8698C17.2265 17.1164 19.239 16.6814 19.979 17.0075C20.0544 16.9619 20.1378 16.9173 20.2183 16.8731C19.8103 16.8912 19.5447 16.7849 19.3435 16.7674C19.1882 16.7541 19.206 16.8063 19.1939 16.8054C19.1934 16.8054 19.1928 16.8054 19.1923 16.8054C18.8367 16.7838 18.7183 16.7376 18.4469 16.74ZM23.128 2.80725C22.951 2.88185 22.7433 3.12294 22.8277 3.19975C22.9668 3.09415 23.1103 2.98641 23.2503 2.88496C23.2051 2.89067 23.1583 2.7944 23.128 2.80725ZM24.0054 7.96099C24.1439 7.91866 24.408 7.70798 24.2331 7.70447C24.2018 7.70468 23.9607 7.94014 24.0284 7.68674C23.7605 7.85986 23.9264 7.98502 24.0054 7.96099ZM20.1085 18.7449C20.0421 18.6341 19.9776 18.523 19.915 18.4118C19.8606 18.4069 19.8061 18.4018 19.7515 18.3965C19.8683 18.5144 19.9873 18.6305 20.1085 18.7449ZM24.1145 1.69434C24.3846 1.74598 24.4127 1.41719 24.7541 1.3538C24.8326 1.28336 24.91 1.21467 24.986 1.14776C24.9862 1.1476 24.9864 1.14743 24.9866 1.14726C24.9475 1.09996 24.9084 1.05265 24.8694 1.00534C24.6209 1.225 24.3662 1.45691 24.1145 1.69434ZM22.7472 17.2748C22.8157 17.322 22.8943 17.3727 22.9664 17.4227C23.1192 17.4315 23.2714 17.4432 23.4228 17.4583C23.354 17.4105 23.284 17.3633 23.2129 17.3168C23.0586 17.2996 22.8967 17.284 22.7472 17.2748ZM25.4674 0.436262C25.175 0.653049 25.1975 0.893389 25.551 0.585692C25.5926 0.549602 25.6275 0.50452 25.6492 0.463658L28.8233 3.88575C28.7806 3.97636 28.791 4.04562 28.9095 3.9719L25.5697 0.371275C25.5423 0.38497 25.5087 0.405931 25.4674 0.436262ZM5.25932 21.5144C5.37428 21.4554 5.48914 21.3976 5.60389 21.3408C5.61697 21.2827 5.6302 21.2245 5.6436 21.1664C5.51502 21.2809 5.38692 21.3969 5.25932 21.5144ZM22.3934 8.84911C22.3891 8.80525 22.3848 8.76142 22.3804 8.7176C22.4908 8.67071 22.6083 8.61873 22.7111 8.57321C22.7046 8.6229 22.6979 8.67259 22.6911 8.72228C22.5927 8.76515 22.4923 8.80805 22.3934 8.84911ZM5.98395 21.0611C6.07203 21.0135 6.16307 20.9647 6.25376 20.9167C6.30122 20.8631 6.34882 20.8098 6.39655 20.7566C6.30495 20.7902 6.2132 20.8244 6.12131 20.8593C6.07415 20.9271 6.02868 20.9942 5.98395 21.0611ZM26.4049 6.23773C26.5491 6.18581 26.9012 5.69231 26.471 5.9982C26.1981 6.18925 26.3832 6.24532 26.4049 6.23773ZM25.8299 6.75312C26.3069 6.50106 25.7266 6.35791 25.3631 7.01006C25.8822 6.57245 25.7978 6.7688 25.8299 6.75312ZM21.6643 9.54733C21.6503 9.55315 21.6111 9.49577 21.4993 9.54114C21.0994 9.70532 20.5606 9.87779 20.2587 9.97288C19.58 10.2528 17.2444 10.8055 16.9439 10.5782C16.882 10.5413 17.0067 10.4063 16.9822 10.4018C16.9109 10.3916 16.5184 10.4757 16.587 10.3793C16.9796 10.3594 17.3487 10.3233 17.7335 10.2686C17.6487 10.3463 17.5628 10.423 17.476 10.4988C18.4352 10.3304 18.1057 10.3714 18.3521 10.187C18.5191 10.2104 18.6917 10.2296 18.8617 10.2464C19.1809 10.1165 19.5086 9.97101 19.8187 9.81772C19.7596 9.87877 19.6947 9.94101 19.6295 10.0026C20.1502 9.92536 19.9933 9.91893 20.2295 9.73674C20.2431 9.7753 20.2568 9.81386 20.2705 9.85241C20.7126 9.5944 20.8414 9.66939 20.9412 9.63356C21.1435 9.55403 21.2316 9.011 22.1644 9.09885C22.3749 8.73811 22.5807 9.16016 22.6576 8.85092C23.3064 8.80277 22.2508 9.26161 21.7622 9.46034C21.762 9.46046 21.7617 9.46058 21.7614 9.4607C21.7228 9.47709 21.8016 9.49036 21.6643 9.54733ZM24.2036 7.90366C24.0225 8.27875 25.2024 7.52139 24.6437 7.52452C24.581 7.55492 24.5185 7.58485 24.4561 7.61431C24.372 7.71195 24.2876 7.80854 24.2029 7.9041C24.2031 7.90395 24.2034 7.9038 24.2036 7.90366ZM21.0271 4.92378C20.3588 6.04475 20.879 5.50016 21.0307 5.07437C21.0621 4.98902 21.0638 4.93114 21.0271 4.92378ZM17.458 16.6364C17.4415 16.6635 17.425 16.6905 17.4086 16.7176C17.8332 16.6508 18.6764 16.7178 18.6658 16.549C18.2605 16.5657 17.8517 16.5958 17.458 16.6364ZM20.9727 16.5514C20.8689 16.528 20.4797 16.4688 20.521 16.5376C20.6888 16.5971 20.8539 16.659 21.0254 16.7248C21.1099 16.7059 21.1943 16.6876 21.2788 16.67C21.1678 16.6452 20.9998 16.5569 20.9727 16.5514Z" fill="var(--stroke-0, #0061FE)"/>
</g>
</svg>
