<svg preserveAspectRatio="none" width="100%" height="100%" overflow="visible" style="display: block;" viewBox="0 0 29.3566 29.4472" fill="none" xmlns="http://www.w3.org/2000/svg">
<g id="Ellipse 29">
<path d="M5.7026 6.59693C6.92839 7.82272 15.3364 12.3859 25.2499 4.10691C26.0386 3.33224 26.7519 2.70004 27.2816 2.24455C26.5986 2.9275 25.9208 3.54661 25.2499 4.10691C21.1652 8.1188 15.0574 15.9517 21.9553 22.8497C19.2973 20.2322 11.1227 18.104 2.38515 27.1411C6.87361 22.4988 12.8246 14.5711 5.27649 7.02303L5.7026 6.59693Z" fill="var(--fill-0, #0061FE)"/>
<path d="M8.8011 6.08008C10.806 7.59202 11.1921 9.63364 11.6535 11.9595C12.904 17.5058 9.60947 23.6017 6.75118 26.8703C6.05111 27.7053 5.31735 28.4994 4.57288 29.2563L0.197429 25.0258C1.83837 23.357 3.67628 21.8278 5.72965 20.5842C5.8873 20.4888 6.01521 20.4905 6.08629 20.449C6.74225 20.0565 7.89228 19.3945 8.6243 19.1009C10.1215 18.4186 13.0262 17.6903 14.6319 17.7317C15.3013 17.7204 16.0035 17.7547 16.2551 17.9305C16.4964 17.9521 16.6441 17.8204 16.7105 17.8179C16.7112 17.8182 16.7119 17.8184 16.7127 17.8186C16.9263 17.8096 17.4373 17.9737 17.555 17.9869C17.5723 17.9888 17.4813 17.8682 17.7575 17.9431C17.7823 17.9501 17.747 18.0149 17.9824 18.0569C18.046 18.063 18.8572 18.1205 19.0869 18.1812C19.8518 18.3271 21.5874 19.0984 22.4325 19.6799C22.5616 19.7623 22.6575 19.7756 22.798 19.8716C22.87 19.9208 22.9484 20.0332 22.9696 20.0486C23.0579 20.1057 23.6079 20.2846 23.2033 20.4785C23.6307 20.8017 23.6041 20.6135 23.6694 20.5519C23.7818 20.6484 23.8701 20.7436 23.9426 20.8316L19.9526 24.8523C19.7701 24.6151 19.7155 24.4466 19.5351 24.4801C17.9076 22.7304 16.5166 20.3257 16.1625 17.6728C16.1298 17.6769 16.0971 17.681 16.0644 17.6851C16.0854 16.8883 15.8619 16.6372 16.0384 16.1844C15.9909 15.9128 15.9529 15.64 15.9241 15.3648C16.7081 8.26973 21.1268 3.86227 25.231 0.118688C25.2829 0.0737994 25.326 0.044709 25.3683 0.0196548L29.3566 4.31952C29.2497 4.39702 29.1432 4.45439 28.9389 4.65263C28.6185 4.96363 28.2313 5.43864 27.779 5.83496C27.3964 6.17309 26.7599 6.61836 26.2994 6.96166C26.1961 7.03936 26.1493 7.13098 26.1376 7.13964C26.0688 7.19008 26.0236 7.13622 25.9535 7.18683C25.8701 7.24711 25.8021 7.363 25.7053 7.43041C25.3435 7.68398 24.971 7.96198 24.9221 7.99363C24.6925 8.14239 24.6048 8.11683 24.5859 8.1288C24.3312 8.28725 24.4589 8.27665 24.3946 8.31459C24.0594 8.50877 23.7564 8.51828 23.3682 8.91948C23.3517 8.86257 23.3351 8.80569 23.3185 8.74884C22.9526 8.92465 23.2599 8.92219 23.2022 8.98775C23.1813 9.01605 22.4039 9.42284 22.3372 9.44984C22.1216 9.55074 22.0817 9.48427 22.0631 9.49282C22.0194 9.51385 21.5265 9.85449 21.2128 9.92144C20.8497 9.99847 21.1745 9.68185 21.0803 9.69225C21.0645 9.69486 20.7286 9.86099 20.6639 9.83487C20.5929 9.80888 20.8874 9.68206 20.8741 9.66337C20.8637 9.65321 20.3358 9.76182 20.4012 9.65455C20.4461 9.56013 21.1398 9.355 21.2666 9.25335C21.2872 9.23731 21.2053 9.17669 21.2243 9.16406C21.3073 9.12833 22.7617 8.36057 22.8207 8.32701C22.7676 8.40479 22.7142 8.48223 22.6605 8.55931C22.7606 8.50785 22.8609 8.45536 22.9613 8.40181C22.8379 8.51138 22.7142 8.61922 22.5901 8.72536C22.9628 8.90797 23.4283 8.23611 23.3635 8.07589C23.3329 8.00405 22.8523 8.05997 23.1431 7.74844C23.0794 7.76382 23.0159 7.7788 22.9526 7.7934C22.8601 7.88694 22.7672 7.97944 22.6741 8.07091C22.7573 8.04682 22.8408 8.02205 22.9246 7.99659C22.9095 8.03264 22.8944 8.06867 22.8792 8.10466C22.6912 8.25804 22.507 8.40517 22.3142 8.55292C22.1953 8.59778 22.1856 8.52447 22.1037 8.55321C21.0858 8.89133 21.8034 8.7652 21.1643 9.04295C21.0574 9.05254 20.9511 9.06105 20.8455 9.06849C20.941 9.19311 20.6202 9.23581 20.3087 9.43784C20.3299 9.37517 20.3508 9.31245 20.3715 9.24968C19.8822 9.49699 18.7759 9.61994 19.142 9.78033C19.0153 9.79983 18.8894 9.81776 18.7643 9.83414C18.6788 9.90927 18.5928 9.98363 18.5065 10.0572C18.3684 10.0946 18.2263 10.1315 18.0823 10.1671C18.0751 10.1439 18.0678 10.1208 18.0605 10.0977C18.1727 10.0657 18.288 10.0316 18.3952 9.99877C18.2926 9.95281 18.1878 9.90691 18.0833 9.86026C18.0044 9.89584 17.9255 9.93078 17.8467 9.9651C18.2107 9.93615 17.7859 10.1739 17.6988 10.2959C17.4158 10.4068 17.1953 10.3269 17.0936 10.3442C17.0464 10.3543 16.538 10.6868 16.7058 10.4019C16.4332 10.4878 16.1444 10.5695 15.8613 10.6425C15.7459 10.641 15.6314 10.6383 15.5178 10.6343C15.7445 10.4894 15.0244 10.4439 15.5348 10.33C15.9085 10.2422 16.0212 10.3294 16.2049 10.2973C16.3727 10.2671 16.441 10.1812 16.6158 10.1431C17.7966 9.88077 18.7421 9.60118 19.8081 9.21631C20.0215 9.13851 20.1991 9.02544 20.3354 8.97199C20.4919 8.91023 20.3343 9.07752 20.5228 8.97094C20.721 8.85769 20.7353 8.7691 20.7894 8.74279C20.823 8.72642 20.9592 8.7363 21.0594 8.68847C21.4608 8.50021 22.0083 8.13584 22.0661 8.10315C22.1284 8.08 23.2483 7.49401 23.2973 7.46644C23.3267 7.45476 23.4024 7.69731 23.4937 7.33029C23.563 7.28028 23.6323 7.22973 23.7017 7.17862C23.7168 7.22717 23.7318 7.27576 23.7467 7.32437C24.0711 6.88858 23.991 7.06723 24.3809 6.78049C25.3344 6.08243 26.6791 5.03745 27.5922 4.14811C27.7932 3.95383 27.8303 3.83801 28.0681 3.6006C28.1379 3.53071 28.2563 3.43753 28.3765 3.33948L26.272 1.07051C26.0187 1.24315 25.735 1.45441 25.9359 1.49798C25.2807 1.79741 25.4483 2.13791 25.0469 2.20078C25.0393 2.2525 25.0316 2.30442 25.0237 2.35654C24.65 2.51354 24.6623 2.672 24.3767 2.97257C24.2558 3.10121 24.2954 2.85213 24.1634 3.21615C24.1071 3.25447 24.0504 3.29333 23.9935 3.33274C23.9791 3.29594 23.9647 3.25914 23.9503 3.22233C23.6876 3.52743 23.6644 3.52654 23.7903 3.59124C23.642 3.70701 23.492 3.82651 23.3406 3.94967C23.3559 3.99806 23.3729 4.04482 23.3891 4.09237C23.4763 4.07169 25.3315 2.12272 26.3776 1.19334L28.262 3.22492C27.9945 3.51149 27.7921 3.7223 27.7064 3.81597C27.1466 4.22254 26.1541 5.25492 25.6762 5.59531C25.4906 5.73065 25.3493 5.71462 25.0829 5.90298C24.8047 6.10048 24.5172 6.42102 24.3746 6.52511C23.9179 6.90954 21.4613 8.33865 23.0573 7.23803C22.9864 7.22428 22.9122 7.21235 22.8391 7.19949C22.2664 7.73689 22.4534 7.50751 21.8984 7.79665C21.657 7.92293 21.1428 8.3044 21.0762 8.08717C21.4917 7.83691 21.9955 7.64487 22.3562 7.43173C22.3906 7.41276 22.7846 7.06177 23.0104 6.9508C23.2181 6.84889 23.1995 7.11594 23.4951 6.63788C23.9432 6.62061 24.0036 6.31898 24.069 6.24604C24.185 6.11676 24.2666 6.19973 24.4138 6.1102C24.5744 6.01238 24.6338 5.87294 24.6541 5.85727C24.8741 5.70281 25.8923 4.87432 25.9722 4.85865C25.946 4.90721 25.9151 4.95955 25.8865 5.00978C26.1765 4.81057 26.0399 4.77043 26.1002 4.70112C26.1511 4.65838 26.202 4.61533 26.253 4.57196C26.2488 4.60773 26.2446 4.6435 26.2404 4.67926C26.5434 4.40977 26.2533 4.55303 26.6892 4.16879C26.9721 3.91749 27.2993 3.73696 27.3224 3.7057C27.3285 3.69715 27.2025 3.72975 27.3043 3.62223C27.4728 3.44517 27.782 3.14544 27.8767 3.17121C27.9558 3.07603 27.8895 3.02398 27.8997 3.01114C27.9065 3.00262 27.9319 2.97504 27.9706 2.93353L26.6463 1.50579C26.428 1.70504 25.7729 2.3156 25.6416 2.44459C25.2154 2.85211 24.7171 3.30224 24.2733 3.76929C24.2266 3.81832 24.2189 3.74993 24.1723 3.79947C24.1018 3.87303 23.7776 4.32872 23.7259 4.39345C23.5995 4.54586 23.2022 4.92781 23.1679 5.00366C23.1625 5.01473 23.3338 4.93352 23.213 5.1005C23.0788 5.28688 23.0884 5.1306 23.0794 5.13907C22.7402 5.46863 22.602 5.73538 22.4051 5.99098C22.3406 6.07461 22.1634 6.17409 22.0879 6.30194C22.0792 6.31658 22.1529 6.33327 22.1451 6.34822C22.0341 6.54157 21.806 6.62848 21.7406 6.69936C21.5813 6.87224 21.733 6.82822 21.7259 6.83825C21.6331 6.96329 21.4788 7.11068 21.3401 7.30668C20.7292 8.1773 20.254 8.9091 19.7037 9.91255C19.6351 10.0386 19.4987 10.1606 19.4885 10.1805C19.458 10.2417 19.5347 10.2589 19.4455 10.4344C19.2582 10.8049 19.1022 11.1597 18.9459 11.5427C18.9146 11.6198 18.8354 11.6265 18.8106 11.6859C18.7221 11.8856 18.6662 12.6341 18.4446 12.5787C18.5146 13.0487 18.2744 13.2728 18.1992 13.6166C18.0097 14.4215 17.9317 15.7305 17.9756 16.5682C17.9813 16.7441 17.9301 16.8311 17.9365 16.9299C17.9337 17.1103 18.1425 18.101 18.1583 18.1531C18.1665 18.2556 17.8894 18.2711 18.2567 18.7236C18.364 19.0191 18.2541 19.0174 18.2688 19.082C18.3924 19.5885 18.8187 19.9373 18.5795 19.943C18.8795 20.4678 19.1689 20.7213 19.1159 21.0403C19.204 20.9917 19.3861 21.1873 19.5362 21.4837C19.2138 21.2879 19.1318 21.4009 18.7516 20.6381C18.7459 20.6262 18.8218 20.6147 18.8161 20.6028C18.764 20.4937 18.6238 20.297 18.5397 20.1025C18.4578 19.9118 18.5507 19.9966 18.5163 19.9216C18.4855 19.853 18.4224 19.8827 18.3792 19.7823C18.2412 19.4588 18.1205 19.1672 18.0573 18.9724C18.0175 18.8503 18.0359 18.6966 18.0099 18.6026C17.9002 18.2387 17.6936 17.4503 17.6594 16.961C17.6514 16.86 17.722 16.8955 17.7108 16.6768C17.7099 16.6518 17.6307 16.5621 17.6077 16.3681C17.585 16.174 17.6194 16.0233 17.6125 15.8996C17.6074 15.7959 17.5422 15.8393 17.5439 15.6246C17.4999 15.4347 17.8269 13.4643 17.9 13.3766C17.9497 13.23 18.0543 13.1814 18.0671 13.0893C18.069 13.073 17.9928 13.0242 18.0017 12.9676C18.1184 12.0113 19.0405 10.1623 19.5742 9.28483C20.6505 7.40884 21.8387 5.83495 23.2742 4.26524C23.2891 4.22748 23.304 4.18981 23.3189 4.15223C23.1728 4.30619 23.0234 4.46649 22.8777 4.62593C22.8468 4.59971 22.816 4.57348 22.7851 4.54725C22.5858 4.75769 22.6829 4.79426 22.7314 4.82637C22.6414 4.89013 22.5511 4.95495 22.4606 5.02083C22.5026 5.18441 21.9626 5.66825 21.7298 5.95933C21.5774 6.14652 21.438 6.41104 21.3581 6.50785C21.1866 6.71607 21.1219 6.65913 21.1078 6.67506C21.0842 6.70226 20.9161 7.05381 20.7558 7.2737C20.5185 7.6012 20.3793 7.56266 20.1658 8.09087C19.7144 8.65253 19.3348 9.36219 18.9924 10.0694C18.9484 9.87931 18.7376 10.5637 18.6107 10.858C17.7908 12.6161 17.1621 15.1162 17.4222 17.2522C17.4509 17.5252 17.4153 17.7407 17.4463 17.8908C17.4633 17.9723 17.5543 17.9906 17.5671 18.1052C17.5697 18.1254 17.4922 18.1558 17.5307 18.3701C17.6057 18.9118 18.199 20.099 18.2249 20.4618C18.894 21.8119 19.8153 22.9739 20.8371 23.9679L23.0649 21.7229C22.8158 21.4833 22.5507 21.2665 22.2809 21.0715C22.2623 21.017 22.2429 20.9623 22.2226 20.9075C21.8365 20.8057 20.6802 20.0427 20.0479 19.8319C18.9627 19.4079 17.5166 19.1725 16.5322 19.1111C16.3159 19.0952 16.1489 19.0382 15.9434 19.0314C15.8556 19.0286 15.7426 19.0873 15.6548 19.0863C14.6429 19.0646 13.2705 19.1475 12.2836 19.3733C10.0404 19.8713 8.07634 20.756 6.17796 21.9681C4.35261 23.1422 2.74364 24.5419 1.27874 26.0713L3.49157 28.2108C6.94847 24.5115 10.6833 19.9076 10.3436 13.92C10.3349 13.8123 10.4058 13.8111 10.3981 13.7269C10.3649 13.2219 10.0939 12.1399 9.91805 11.604C9.79769 11.1805 9.63126 10.4737 9.46797 10.3823C9.94745 11.8774 10.3005 13.5417 10.1996 15.1661C10.1928 15.2812 10.1245 15.2925 10.1228 15.3065C10.0862 15.5649 10.1907 15.4052 10.1665 15.7841C10.1716 15.919 9.79014 17.0252 10.0157 16.9251C9.91641 17.1983 9.3578 19.0311 9.2227 19.3685C9.19105 19.4753 9.27836 19.4246 9.27346 19.4464C9.25184 19.5413 9.15452 19.5496 9.12071 19.628C9.03348 19.8387 8.86507 20.3951 8.81599 20.4939C8.71156 20.7255 8.30855 21.3635 8.16091 21.6561C8.02721 21.9265 8.13405 21.9228 8.00998 22.1529C7.91057 22.3329 7.9602 22.1034 7.70353 22.4817C7.57862 22.6707 7.19424 23.361 7.08322 23.5173C6.97501 23.6753 6.80933 23.8173 6.65894 24.0328C6.44494 24.3444 5.97206 25.0124 5.74291 25.3206C5.7294 25.339 5.74978 25.4269 5.71321 25.4696C5.63756 25.5578 5.5916 25.4753 5.52942 25.5372C5.47023 25.6076 4.49326 26.7606 4.31352 26.9453C4.19568 27.0745 4.15073 27.2005 4.08375 27.2723C4.03116 27.3285 3.97198 27.2848 3.91835 27.3413C3.90106 27.3599 3.8115 27.5493 3.6663 27.7002C3.6044 27.7645 3.45565 27.9019 3.30858 28.0339L1.46173 26.2482C1.64541 26.0819 1.82911 25.923 1.86252 25.8901C1.90248 25.8506 1.82211 25.8571 1.94076 25.741C2.04904 25.6355 2.16659 25.6151 2.22823 25.5566C2.36778 25.4241 2.49862 25.2201 2.65399 25.0752C3.10396 24.6585 3.13608 24.7486 3.16488 24.7251C3.24343 24.6651 3.22632 24.5782 3.25033 24.5549C3.35404 24.4541 3.60929 24.2155 3.7035 24.1329C3.82092 24.0292 3.9181 24.0429 4.04491 23.9391C4.14293 23.8586 4.29739 23.6418 4.51991 23.4645C5.01717 23.0655 5.6365 22.6053 6.17772 22.2584C6.33698 22.156 6.39682 22.1973 6.44603 22.168C6.70617 22.0144 6.82048 21.8601 6.89506 21.8165C7.42141 21.5011 8.48089 21.0786 9.00671 20.8614C9.22523 20.7607 10.1645 20.3142 10.7295 20.1475C10.7945 20.1272 10.7502 20.1964 10.8195 20.1653C10.9851 20.0916 10.9376 19.996 11.026 19.9719C11.0688 19.9608 11.182 19.9886 11.3051 19.9592C11.9569 19.8037 12.3941 19.6668 12.6948 19.611C15.5767 19.0729 18.7481 19.4146 21.2509 20.8672C21.5309 21.0311 21.9092 21.1932 22.2694 21.5587C22.261 21.5942 22.2523 21.6295 22.2435 21.6648C22.2774 21.6506 22.3115 21.6367 22.3456 21.6229C22.5272 21.7634 22.6751 21.8846 22.7978 21.9942L21.1063 23.6987C20.9414 23.5492 20.7969 23.4075 20.6041 23.1594C20.5754 23.1228 20.5963 22.9208 20.4001 22.9796C20.1592 22.4896 20.2403 22.7976 19.9791 22.4952C19.723 22.1924 19.5296 21.8532 19.3239 21.5194C19.2593 21.3055 19.8928 21.9684 19.9236 21.9966C19.9764 22.0691 19.9593 22.2003 20.0096 22.2733C20.1579 22.4899 20.381 22.6408 20.3567 22.7401C20.6425 22.9396 20.3368 22.6497 20.4238 22.6293C20.5465 22.8257 20.6618 23.0054 20.7916 23.1938C20.9091 23.1519 21.0816 23.3351 21.2621 23.5429L22.6433 22.1511C22.3828 21.8542 22.0881 21.5498 22.0587 21.6746C21.998 21.5753 21.9412 21.4821 21.8787 21.3871C21.351 21.3316 21.2423 21.0472 20.7348 20.6989C20.7586 20.7477 20.7798 20.7954 20.8044 20.8452C20.7879 20.8482 20.2965 20.6684 20.5248 20.6235C19.9618 20.5668 20.0928 20.2931 19.5705 20.3324C19.2941 20.2659 19.4966 20.1933 19.0128 20.0446C18.7193 19.9572 18.3448 19.9307 18.0208 19.8686C17.9461 19.854 17.928 19.7745 17.8604 19.7614C17.7927 19.7485 17.7464 19.814 17.664 19.8012C17.4969 19.7752 17.2882 19.6921 17.1803 19.6828C17.0831 19.6741 16.9419 19.72 16.7149 19.7075C15.916 19.6758 16.1652 19.6125 16.0395 19.5716C15.9056 19.5329 15.7985 19.649 15.5351 19.6324C15.5082 19.6308 15.5784 19.5557 15.4907 19.5582C15.4197 19.5606 15.3848 19.6411 15.1496 19.6608C15.0579 19.6505 13.6193 19.7814 13.4112 19.8337C13.0793 19.88 12.3334 19.9561 11.9996 20.0434C11.8708 20.0751 11.7496 20.1745 11.6124 20.2117C11.1612 20.3309 10.4534 20.555 9.89878 20.7734C9.40916 20.9562 8.49964 21.2217 8.29825 21.4769C7.65633 21.8266 7.43781 21.8346 7.39197 21.8565C7.2602 21.9272 7.23761 22.0261 7.07616 22.1263C5.26576 23.2307 3.20188 24.9109 1.6989 26.4775L3.0714 27.8046C3.31263 27.5565 3.5501 27.306 3.76655 27.0711C7.21222 23.2933 10.8474 18.1798 9.51564 12.3587C9.48006 12.3518 9.44448 12.3451 9.4089 12.3385C9.5529 12.9917 9.60491 13.7727 9.61456 14.4242C9.65035 15.2876 9.63111 16.6008 9.26632 17.1654C9.30161 16.9153 9.45372 16.5198 9.33721 16.5092C9.25958 16.955 9.15594 17.3942 9.03041 17.825C9.08551 17.8261 9.14063 17.827 9.19577 17.8278C9.08795 18.2904 8.92596 18.7471 8.76473 19.1915C8.7366 19.2686 8.80275 19.2317 8.77716 19.2986C8.74823 19.3734 8.72195 19.3048 8.71614 19.3186C8.64186 19.5063 8.66389 19.5813 8.65397 19.604C8.62778 19.6618 8.60327 19.5985 8.51994 19.7609C8.36509 20.0599 8.37554 20.3306 8.21827 20.1706C8.17293 20.2685 8.12655 20.3663 8.07957 20.463C8.11893 20.5131 8.15812 20.5634 8.19712 20.6139C7.69514 21.1046 7.89716 21.5638 7.43459 21.7228C7.41668 21.8515 7.39746 21.9804 7.37701 22.1093C7.29271 22.138 7.20843 22.1661 7.12417 22.1935C7.15911 22.2305 7.194 22.2676 7.22883 22.3048C6.8561 22.8386 6.51658 23.4394 6.14473 23.9355C5.88654 24.2782 5.80659 24.35 5.57707 24.6507C5.05721 25.3181 5.50414 24.6043 4.98397 25.0794C5.05348 25.0897 5.12308 25.0998 5.1928 25.1097C5.13727 25.2129 5.0797 25.3176 5.02222 25.4212C4.93252 25.4521 4.84298 25.4824 4.7536 25.5121C4.71915 25.9483 4.4061 25.9925 4.37552 26.0277C4.34969 26.0573 4.37846 26.2603 3.99709 26.4899C4.27024 26.5008 3.78275 26.7288 3.75457 26.7566C3.7272 26.7861 3.43487 27.1705 3.29681 27.3123C3.21754 27.3945 3.05693 27.5274 2.9166 27.6549L1.8537 26.6272C1.90735 26.5782 1.95844 26.5297 2.002 26.4844C2.14535 26.3355 2.08006 26.3009 2.09012 26.2895C2.26448 26.106 2.19181 26.2572 2.32257 26.1308C2.45319 26.0051 2.51074 25.8649 2.54239 25.8417C2.55838 25.8303 2.55788 25.9232 2.62626 25.8659C2.81094 25.7108 3.09864 25.3611 3.30349 25.179C3.37701 25.1131 3.50316 25.0757 3.58857 25.0025C3.71864 24.8909 3.72958 24.7825 3.80587 24.7195C3.83269 24.6978 4.07339 24.6424 4.26679 24.459C4.30259 24.4247 4.26451 24.1385 4.64153 24.2799C4.62314 24.2322 4.60482 24.1843 4.58657 24.1365C5.22483 23.4764 5.67449 23.6516 5.79628 23.1332C6.36268 22.7895 6.06603 23.1609 6.13721 23.137C6.1839 23.1208 6.34301 22.9684 6.36403 22.9573C6.4014 22.9375 6.41964 22.9782 6.4578 22.9527C7.15367 22.4928 6.79955 22.6256 7.00022 22.4376C7.48665 21.9985 8.04988 21.9943 7.05875 22.483C7.07153 22.5039 7.0843 22.5249 7.09708 22.5458C7.31836 22.3793 7.9176 22.0544 7.77949 22.2753C7.66833 22.4333 6.26337 23.2401 7.10903 22.8714C7.30346 22.7881 7.35068 22.65 7.74385 22.6215C7.94789 22.5156 7.87522 22.2989 8.20172 22.2242C8.11815 22.1806 8.03397 22.1375 7.94919 22.095C8.29058 21.7906 8.84803 21.6665 9.13667 21.4873C9.22847 21.4271 9.47646 20.9137 9.53144 21.2954C9.69998 21.1903 10.5883 20.9211 10.7374 20.8419C10.7714 20.8237 10.7631 20.6077 11.3597 20.4993C11.4066 20.5113 11.4532 20.5236 11.4996 20.5361C10.9986 20.7569 11.9416 20.561 11.7406 20.8142C11.6292 20.7558 11.2108 20.8269 11.1295 20.8097C10.9931 20.7768 11.3057 20.5766 10.8783 20.7424C10.7059 21.1286 11.436 20.7406 11.4038 21.0657C11.9147 20.7684 12.0184 20.8874 12.1428 20.8601C12.6897 20.7491 13.03 20.6505 13.5597 20.6064C13.6802 20.5212 12.7149 20.5932 12.604 20.653C12.9955 20.3499 12.2352 20.4948 11.9615 20.7045C11.9189 20.6479 11.876 20.5913 11.8327 20.535C12.2486 20.4615 12.658 20.3894 13.0567 20.2642C13.0883 20.2835 13.1197 20.303 13.151 20.3225C13.0629 20.375 12.979 20.4278 12.8955 20.4813C13.2398 20.48 13.0114 20.3232 13.4906 20.4177C13.4938 20.3426 13.4972 20.2675 13.5009 20.1923C13.9448 20.1528 14.3909 20.1342 14.8391 20.1381C15.0602 19.9712 15.9315 20.0357 15.767 20.2273C16.1137 20.2522 15.6882 20.1349 16.0163 20.101C16.1592 20.0863 16.4337 20.1 16.4998 20.1581C16.4518 20.3357 16.0481 20.331 15.92 20.4535C15.9899 20.4598 17.8698 20.5672 17.6646 20.7764C17.805 20.8305 17.7606 20.7076 18.0271 20.7373C18.8009 20.8174 19.8121 21.4232 20.4725 21.478C19.8855 21.0125 19.6137 21.0873 19.0879 20.91C18.7614 20.7433 16.6413 20.3898 17.1383 20.29C17.0556 20.3033 16.9698 20.317 16.8897 20.3322C16.8175 20.2658 16.7435 20.1999 16.6679 20.1348C16.8957 20.1488 17.1283 20.1699 17.357 20.1974C17.4024 20.2625 17.4466 20.3279 17.4898 20.3934C17.5209 20.3572 17.5531 20.3213 17.5856 20.2855C17.6838 20.2947 17.7812 20.305 17.8778 20.3164C17.8413 20.3591 17.805 20.402 17.7691 20.4451C17.9138 20.4821 18.0508 20.5204 18.1963 20.5636C18.1725 20.4904 18.1478 20.4172 18.1222 20.344C18.8183 20.4957 18.5726 20.4809 18.9128 20.708C19.1852 20.8092 18.7533 20.5316 19.354 20.7009C20.0405 20.924 19.5367 20.9199 20.3961 21.2725C20.4226 21.2491 20.4492 21.2257 20.476 21.2025C20.6452 21.3245 20.8128 21.4538 20.9717 21.587C20.9691 21.538 20.9646 21.488 20.9624 21.4395C21.3307 21.6653 21.8613 21.9653 21.8705 22.1862C21.5686 21.8463 21.4102 22.0899 21.4661 22.1918C21.4982 22.2545 21.748 22.4496 22.0512 22.7523L21.8588 22.9462C21.0734 22.2019 19.9869 20.7395 19.789 20.3183C19.3933 19.608 19.2428 18.9948 18.9095 18.3129C18.8911 18.8607 19.7294 20.4688 19.8786 20.7828C19.8893 20.8144 19.6661 20.9433 20.0259 20.9728C20.3683 21.6013 20.9456 22.2099 21.537 22.8368C21.4652 22.8684 21.3932 22.8997 21.321 22.9306C21.0649 22.4355 20.49 22.2679 20.7534 22.1386C20.6842 22.0542 20.6168 21.9696 20.551 21.8849C20.512 21.9152 20.4731 21.9455 20.4341 21.9757C20.3333 21.8459 20.2388 21.719 20.1431 21.5851C20.1833 21.5564 20.2234 21.5278 20.2636 21.4991C20.1834 21.3868 20.1061 21.2742 20.0316 21.1613C19.9828 21.1767 19.9339 21.1919 19.885 21.2069C19.7333 20.8385 18.859 19.7025 19.3976 20.1195C19.3135 19.9529 19.2308 19.7768 19.1543 19.6C19.1215 19.6149 19.0886 19.6298 19.0558 19.6447C19.0181 19.5698 18.9816 19.4948 18.9461 19.4197C18.9866 19.4328 19.0271 19.4457 19.0676 19.4584C18.8694 19.1327 18.9174 18.7317 18.7411 18.5294C18.7633 18.6931 18.7906 18.858 18.8229 19.0241C18.7552 18.7072 18.5143 18.1787 18.5035 18.1206C18.4657 17.9633 18.5189 17.8653 18.4898 17.6962C18.4643 17.5435 18.4137 17.5741 18.4105 17.5453C18.3404 16.6985 18.6962 16.9956 18.3005 16.6368C18.3464 16.5919 18.3925 16.5468 18.4391 16.5027C18.395 16.4501 18.3513 16.3968 18.3082 16.3429C18.3018 16.0941 18.3052 15.8481 18.318 15.6004C18.2537 15.6807 18.1905 15.7628 18.1283 15.8458C18.1062 15.4662 18.2458 15.2983 18.2501 15.2631C18.2645 15.1618 18.1918 15.1088 18.1944 15.077C18.3875 13.5658 18.3387 14.4836 18.7545 13.8101C18.7 13.529 18.531 13.7634 18.4101 13.7786C18.5393 13.4399 18.5347 13.3244 18.642 12.9636C18.6706 12.8698 18.7606 12.7871 18.7795 12.7288C18.7956 12.6784 18.7828 12.4988 18.8236 12.3777C18.891 12.1755 19.0246 11.922 19.1317 11.6526C19.2169 11.4278 19.4701 10.7314 19.7083 10.2758C19.8088 10.0811 19.835 10.1525 19.8612 10.1026C19.872 10.082 19.8935 9.90031 19.9614 9.77734C20.5139 8.77419 21.2039 7.83201 21.8971 6.93431C22.3865 6.30033 22.8709 5.64633 23.4119 5.0607C23.5285 4.93482 23.5033 5.03475 23.5552 4.98073C23.5729 4.96246 23.5317 4.88028 23.7358 4.71206C23.8094 4.65172 23.7786 4.77145 23.8441 4.7061C23.8771 4.67339 23.8308 4.6125 24.0058 4.40494C24.3197 4.03354 24.5728 3.92417 24.6022 3.89014C24.6558 3.82859 24.5955 3.80142 24.6701 3.72437C25.0328 3.35037 25.3513 3.03382 25.6867 2.71776C25.8117 2.59745 26.4582 2.00575 26.8158 1.70296L27.7867 2.74965C27.6718 2.86409 27.5904 2.94204 27.5733 2.95495C27.4214 3.06915 27.4563 2.85504 27.2875 3.02524C27.2621 3.09529 27.2365 3.16517 27.2108 3.23489C27.3046 3.17954 27.3986 3.12326 27.4928 3.06604C27.2523 3.24293 27.0535 3.51138 26.8956 3.65433C26.8696 3.67826 26.553 3.8893 26.4153 4.01962C26.4594 3.94786 26.5034 3.87577 26.5473 3.80335C26.5121 3.80729 26.477 3.81113 26.442 3.81488C26.1795 4.09334 25.8852 4.34743 25.5879 4.58901C25.478 4.67823 25.4828 4.60917 25.3717 4.69806C24.7224 5.20664 25.0282 5.23332 24.1519 5.3999C24.3986 5.26876 25.1115 4.64725 25.2309 4.56133C25.3126 4.50731 25.8207 4.51415 25.4951 4.34334C26.08 3.84802 25.6938 4.42801 26.216 3.91751C26.1775 3.8962 26.139 3.87484 26.1006 3.85341C26.2741 3.66519 26.403 3.51936 26.5662 3.46888C26.4682 3.29135 27.1495 2.80818 27.4878 2.45077L27.0914 2.02343C27.0874 2.02704 27.0835 2.03064 27.0796 2.03424C26.581 2.4877 26.0407 3.03992 25.5576 3.51188C25.3948 3.67067 25.2431 3.70839 25.222 3.72902C25.1911 3.75977 25.1518 3.89444 25.0937 3.95225C24.8706 4.16901 24.1024 4.79095 24.0868 5.0937C25.0603 4.05221 26.1133 3.0597 27.1885 2.13628L27.3826 2.34553C27.0543 2.67378 26.7272 2.98742 26.4014 3.28697C26.6433 3.20752 25.2233 4.4696 25.1241 4.5237C25.0511 4.57754 25.0686 4.4781 25.0452 4.49193C24.8723 4.59564 24.7998 4.77477 24.7504 4.81353C24.7128 4.84295 24.6094 4.8671 24.4771 4.96979C24.4528 4.98856 24.4749 5.03158 24.4487 5.05171C24.268 5.18938 24.0874 5.32242 23.9062 5.45343C23.8948 5.46106 23.8084 5.43755 23.7628 5.46998C23.717 5.50263 23.7119 5.59135 23.7004 5.59971C23.5573 5.70062 23.2769 5.83813 23.1324 5.93321C23.0827 5.96622 23.1453 5.98583 23.0894 6.02229C22.9176 6.13359 22.9194 6.01387 22.7232 6.17013C22.6575 6.22205 22.7027 6.28407 22.5624 6.35984C22.4631 6.41307 22.4021 6.2908 22.3838 6.29632C22.3592 6.30535 22.0719 6.60407 21.9158 6.59062C22.0398 6.24703 21.6454 6.73294 21.7176 6.80413C21.5711 6.85809 21.424 6.91052 21.2713 6.96391C21.2356 7.01147 21.1997 7.05884 21.1638 7.10604C20.5559 7.29479 20.2305 7.52395 19.6547 7.73229C19.6304 7.74276 19.1171 7.88988 19.1289 7.84563C19.3988 7.67569 19.6809 7.55261 19.9059 7.57578C20.1143 7.24763 20.1996 7.3999 20.6573 7.14454C20.8096 7.05805 20.7945 6.9999 20.8121 6.99026C21.4215 6.65582 22.3452 6.07528 22.8169 5.965C22.9005 5.85669 22.5004 6.0921 22.6338 5.96639C22.7231 5.92162 24.62 4.48441 24.1196 5.08813C24.1808 5.03584 24.242 4.98306 24.3032 4.92978C24.2549 4.73565 24.5832 4.53383 24.663 4.70441C24.6689 4.65194 24.6746 4.59946 24.6803 4.54697C24.7179 4.47657 24.775 4.40934 24.8639 4.32449C25.1783 4.05203 26.7478 2.71047 27.231 2.19397L27.3282 2.29879C27.2482 2.36845 27.193 2.41888 27.1798 2.43536C27.2058 2.4705 27.2319 2.50564 27.2579 2.54078C27.3149 2.49528 27.3697 2.4511 27.4224 2.40828L27.1289 2.09185C26.2836 2.89212 25.5316 3.69692 24.4661 4.38913C24.5215 4.39763 24.577 4.4059 24.6326 4.41394C24.1904 4.69232 23.7162 4.97495 23.26 5.22275C23.6723 4.84898 24.3385 4.26567 24.8305 3.93625C24.9189 3.87746 24.8955 3.97073 24.9186 3.9606C24.9779 3.93478 24.9734 3.8107 25.1327 3.66339C25.294 3.51639 25.7649 3.19477 25.8031 3.15624C25.8759 3.08575 26.0031 2.81676 26.1231 2.70666C26.2848 2.5583 26.2252 2.70985 26.2585 2.68082C26.3968 2.56053 26.4928 2.42068 26.6012 2.32295C26.6985 2.23544 26.8871 2.11628 27.0176 1.98055L27.525 2.52763C27.4411 2.60286 27.3759 2.69122 27.3768 2.78536C27.4537 2.72522 27.5278 2.66792 27.5989 2.61353L26.9375 1.90044C26.8927 1.94075 26.848 1.9808 26.8033 2.02058C26.8431 1.97462 26.8834 1.93016 26.924 1.88692L27.6114 2.62801C27.0641 3.13141 26.4714 3.41162 26.0304 4.05898C26.0492 4.34348 26.5101 3.86496 26.1676 4.31941C26.2403 4.24555 26.3082 4.17689 26.3856 4.09969C26.3723 4.04922 26.3589 3.99879 26.3456 3.94838C26.5029 3.84593 26.6439 3.76023 26.8067 3.6561C26.7409 3.66072 26.6733 3.66711 26.6078 3.67176C27.0216 3.25174 27.4538 2.82582 27.7513 2.79069L26.7723 1.73521C26.7465 1.74116 26.7214 1.74437 26.697 1.74461C26.7251 1.79165 26.7532 1.83872 26.7812 1.88583C26.3099 2.26798 25.8305 3.01122 25.7465 2.68639C25.7362 2.71708 25.7258 2.74774 25.7154 2.77837C25.4081 2.97478 25.6039 2.96228 25.5127 3.06248C25.4858 3.09409 24.9281 3.49281 25.0994 3.22879C24.5572 3.60349 24.8826 3.68629 24.7478 3.81487C24.3235 3.99067 23.8502 4.60896 23.9705 4.24431C23.9156 4.27619 23.8626 4.30645 23.8048 4.34002C23.7366 4.60515 23.4528 4.57509 23.2334 4.65299C23.1693 4.69414 23.1053 4.73476 23.0415 4.77486C23.0332 4.85073 23.0245 4.92658 23.0157 5.00242C22.2632 5.18525 22.8593 5.67875 22.2436 5.33214C22.2661 5.27325 22.2884 5.21426 22.3106 5.15517C22.4018 5.07467 22.493 4.99298 22.5843 4.91009C22.1666 5.17103 21.7575 5.40801 21.3264 5.63868C20.7213 5.78291 20.4914 6.12268 19.8283 6.28519C19.7777 6.32747 19.7271 6.3694 19.6765 6.41098C19.6764 6.25444 19.9052 6.17323 19.467 6.30317C19.3913 6.22751 19.6611 6.09115 19.8218 6.09898C19.8609 6.10123 19.6313 6.29541 19.9276 6.15739C20.1227 6.06367 19.7179 6.13221 20.3163 5.88161C20.2836 5.87082 20.251 5.85993 20.2185 5.84893C20.2815 5.81778 20.3445 5.78611 20.4077 5.75391C20.4899 5.77501 20.5727 5.79544 20.6561 5.81518C20.7647 5.6634 20.7862 5.52328 21.1167 5.36221C21.0478 5.44262 21.2219 5.47502 21.3812 5.37877C21.3603 5.34342 21.3394 5.30807 21.3185 5.27272C21.6893 5.02004 21.6241 5.2001 21.883 4.92701C21.9315 4.93495 21.9801 4.94266 22.0289 4.95016C22.1266 4.73214 22.6954 4.23215 22.695 4.47588C22.7518 4.19915 23.1561 4.01579 23.3849 4.03929C23.3708 3.99894 23.3567 3.95861 23.3425 3.9183C23.4082 3.85876 23.476 3.79693 23.5374 3.73947C23.5902 3.73004 23.6432 3.72031 23.6964 3.7103C23.7296 3.65334 23.7627 3.59615 23.7958 3.53875C23.8502 3.54794 23.9049 3.5569 23.9597 3.56563C24.0073 3.46518 24.0546 3.36422 24.1016 3.26276C24.1699 3.24928 24.2384 3.23532 24.3072 3.2209C24.2638 3.1479 24.7049 2.75172 24.8691 2.68C24.8907 2.62813 24.9123 2.57614 24.9338 2.52404C24.9793 2.53809 25.0248 2.55203 25.0704 2.56585C25.0772 2.51634 25.0839 2.4668 25.0905 2.41723C25.1774 2.38302 25.2646 2.34798 25.3522 2.31213C25.4775 1.92709 25.6004 2.04921 25.6591 1.99293C25.7659 1.89108 26.0483 1.44461 26.1145 1.38691C26.1807 1.33063 26.2609 1.35163 26.3157 1.30645C26.3208 1.30224 26.3259 1.29805 26.3309 1.29389L28.1582 3.26389C27.2451 3.9143 27.7194 3.75705 27.5646 3.93319C27.4871 4.02484 27.3782 4.03329 27.3013 4.11319C27.1619 4.25234 26.5448 4.95546 26.4993 4.99133C26.4328 5.03844 26.3507 4.67969 26.2181 4.92163C26.3306 5.04649 25.8228 5.30981 26.1703 5.29684C25.9948 5.44184 25.8213 5.5878 25.6507 5.73406C25.8137 5.85358 25.5216 5.96908 25.328 6.19207C25.0397 6.51551 24.5126 7.31794 24.3823 7.15851C24.3521 7.26617 24.3224 7.37416 24.2932 7.48239C23.7988 7.97132 23.4347 8.5504 23.0473 9.10321C21.8903 10.7434 20.8676 12.6491 20.5018 14.4558C20.484 14.5422 20.4203 14.5182 20.408 14.581C20.3341 14.9128 20.3058 15.7752 20.3203 16.2277C20.3212 16.3736 20.2616 16.4499 20.2618 16.4962C20.2634 16.6542 20.3469 16.6094 20.3511 16.6812C20.3521 16.7943 20.3637 17.402 20.4106 17.6092C20.4303 17.7124 20.5268 17.814 20.5388 17.9339C20.54 17.9443 20.4668 17.9451 20.4681 17.9539C20.5216 18.1688 20.5429 18.0235 20.5613 18.096C20.6976 18.618 20.9216 19.1444 21.2039 19.6705C21.276 19.8061 21.3476 20.0186 21.4146 20.1302C21.44 20.1722 21.4364 20.0696 21.5259 20.2135C21.557 20.2628 21.5104 20.3184 21.5447 20.3763C21.6991 20.6314 21.9265 20.5603 21.9353 20.8658C22.1753 21.1607 22.5763 21.5617 22.923 21.882L20.9952 23.8247C20.9194 23.7568 20.8416 23.6911 20.7775 23.637C20.7117 23.5815 20.7036 23.5221 20.6336 23.4685C20.5815 23.4287 20.4612 23.4185 20.3796 23.363C20.2965 23.3062 20.2064 23.1725 20.0329 23.0728C19.8599 22.972 19.6081 22.8846 19.5684 22.8655C19.518 22.8407 19.5273 22.7601 19.4745 22.7363C19.3159 22.6607 18.8581 22.5541 18.6403 22.4914C18.4083 22.421 18.2798 22.3461 18.1974 22.3231C18.1205 22.3021 18.0199 22.3422 17.9854 22.3339C17.9325 22.3212 17.9386 22.2446 17.87 22.2283C17.7568 22.202 17.6318 22.2217 17.4641 22.1892C14.3948 21.5994 11.1663 22.4311 8.37562 24.0163C8.06326 24.1944 7.91541 24.3446 7.46043 24.6159C7.27433 24.7285 7.30674 24.6128 7.17356 24.7214C7.11452 24.7701 7.16616 24.8089 7.0909 24.8649C6.7603 25.1092 6.32448 25.3666 6.1862 25.4757C6.12938 25.52 6.10723 25.6252 5.99116 25.7186C5.15212 26.3909 4.19422 27.2393 3.37822 28.1012L1.39209 26.1809C1.41453 26.1573 1.43693 26.1336 1.45928 26.11C1.90749 25.6378 2.5423 24.896 3.01477 24.3328C4.32815 22.7875 5.57816 21.0175 6.31721 19.4142C7.46195 16.9973 7.76213 14.4107 6.96081 12.0585C7.22005 13.1994 7.41353 14.7245 7.19836 16.0062C6.66919 19.5417 4.12088 23.0993 1.2622 26.0553L3.50811 28.2268C3.65533 28.0741 3.80213 27.9254 3.94846 27.7805C4.99555 26.7344 6.41161 25.5294 7.76515 24.7052C7.82613 24.6675 7.92001 24.5432 8.05372 24.4666C8.08361 24.4483 8.48473 24.3185 8.60105 24.2535C8.40183 24.1675 8.94118 24.0354 9.08649 23.9549C9.26442 23.8523 9.61305 23.5708 10.0709 23.4165C10.489 23.2775 10.4064 23.3903 10.4298 23.3838C10.5821 23.348 10.5897 23.2285 10.6942 23.1741C11.1165 22.8973 13.4982 22.2966 14.1753 22.2912C14.349 22.273 14.3597 22.3418 14.3983 22.3382C14.4993 22.3291 14.6401 22.2494 14.8067 22.2403C15.1024 22.2232 15.4479 22.2856 15.6061 22.2891C15.9942 22.2908 16.731 22.2733 17.2218 22.3653C17.3616 22.3902 17.3389 22.4591 17.4008 22.4709C17.6705 22.5162 18.3893 22.622 18.7072 22.7456C19.226 22.9331 19.7082 23.219 20.1502 23.4843C20.1595 23.5286 20.1699 23.574 20.1782 23.6184C20.2391 23.6198 20.2995 23.6218 20.3594 23.6244C20.5235 23.7525 20.6795 23.8845 20.8118 24.0109L23.1078 21.6972C22.5485 21.1496 22.0477 20.6082 21.6503 19.9883C21.5873 19.8984 21.366 19.4002 21.3294 19.3205C21.2951 19.2555 21.1915 19.2267 21.1541 19.124C21.1031 18.9803 21.2987 19.0465 21.1558 18.8372C21.1181 18.7807 21.0852 18.8665 21.0132 18.7502C20.9781 18.7166 20.6679 17.9132 20.6725 17.8657C20.6591 17.7899 20.7758 17.6911 20.7738 17.6711C20.7642 17.5689 20.6629 17.5978 20.6379 17.5328C20.563 17.34 20.5906 17.0701 20.5846 17.0377C20.496 16.6528 20.3778 15.9046 20.463 15.4774C20.4736 15.4189 20.5517 15.4315 20.5549 15.4214C20.5758 15.3568 20.49 15.3085 20.4937 15.2447C20.5114 14.9012 20.6608 14.3734 20.7602 14.0351C20.7711 13.9961 20.7498 13.902 20.7722 13.8323C20.9028 13.4394 20.9367 13.5889 20.945 13.5668C20.9675 13.5158 20.922 13.3999 20.9636 13.2553C21.0641 12.884 21.3523 12.1868 21.5438 11.8044C21.685 11.5175 21.7638 11.5615 21.774 11.5433C21.7968 11.5049 21.7898 11.3616 21.882 11.1701C22.0618 10.802 22.1021 10.8771 22.1821 10.7289C22.1893 10.7166 22.1179 10.7048 22.2069 10.5384C22.3756 10.2149 22.8774 9.55757 23.1058 9.23337C23.1923 9.10815 23.1604 9.04154 23.2509 8.9141C23.3933 8.71043 23.7917 8.30524 23.819 8.2722C23.8267 8.26236 23.7854 8.19423 23.8311 8.13616C23.8815 8.07232 23.9612 8.03388 23.9987 7.98677C24.2088 7.72021 24.4985 7.18048 24.5931 7.47928C24.6144 7.35311 24.636 7.22748 24.6589 7.10143C25.1461 6.56232 25.6125 6.02704 26.1141 5.50511C26.2287 5.38605 26.3603 5.32682 26.4547 5.231C26.5545 5.12799 26.9304 4.65427 27.0103 4.57916C27.1318 4.45671 27.9092 3.74458 28.0043 3.67378C28.1179 3.5827 28.2425 3.52205 28.3396 3.47481L26.1342 1.09719C26.052 1.14712 25.9859 1.18825 25.9596 1.22792C25.913 1.29796 26.0107 1.28889 25.9108 1.41118C25.7374 1.62418 25.3549 1.87455 25.2974 1.92857C25.2709 1.95337 25.3582 1.9401 25.1144 2.1671C24.9829 2.28898 24.8766 2.31209 24.8289 2.35479C24.8142 2.36763 24.8934 2.41483 24.6244 2.63325C24.4387 2.78278 24.3196 2.79523 24.3007 2.81105C24.2732 2.83352 24.2475 2.948 24.1269 3.04417C23.8418 3.27322 23.3017 3.59139 23.0186 3.79035C22.9656 3.82752 23.0339 3.88498 22.8207 4.02901C22.6685 4.13092 22.6553 4.05622 22.5983 4.09321C22.508 4.15147 22.4265 4.31063 22.2202 4.44574C21.9792 4.64198 20.0012 5.67532 19.8839 5.673C19.8092 5.69309 19.7319 5.72936 19.6798 5.71325C19.6945 5.66682 19.7079 5.62095 19.7207 5.57526C20.0715 5.54181 19.8894 5.47203 19.9636 5.42486C20.0693 5.35885 20.5179 5.14097 20.5992 5.05757C20.6296 5.02743 20.5107 5.00774 20.6842 4.86517C20.87 4.71153 21.032 4.77141 21.0206 4.56375C21.4291 4.55766 21.5782 4.20445 21.2209 4.35959C21.0163 4.48227 19.1091 5.41428 18.7056 5.53293C18.3776 5.66413 17.7983 5.94113 17.3872 6.05402C17.1562 6.12291 16.5563 6.27543 16.5606 6.17077C16.3493 6.21141 16.5936 6.25045 16.5533 6.27458C16.474 6.32849 15.7838 6.41252 15.6658 6.4323C15.0461 6.56397 14.2609 6.75659 13.6501 6.64638C13.6772 6.61939 13.7041 6.59232 13.7309 6.56516C13.8603 6.51705 14.4984 6.54036 14.5538 6.40438C13.6431 6.49582 12.7292 6.48786 11.833 6.37812C11.8312 6.49805 10.7182 6.30934 10.6804 6.23751C10.7112 6.19124 10.7419 6.14487 10.7723 6.09841C11.3463 6.41744 11.3403 6.14541 11.739 6.34253C11.9138 6.36671 11.8695 6.27442 11.955 6.26803C12.8068 6.18622 11.9534 6.45206 12.6048 6.42289C12.417 6.28766 12.9522 6.27375 13.1835 6.25669C13.2356 6.25889 13.9441 6.27422 14.0289 6.26182C14.5034 6.22838 15.2998 6.05553 15.7779 6.02352C16.1463 5.95678 16.3303 5.82105 16.651 5.71389C16.8974 5.62965 16.8429 5.70875 16.9625 5.67485C17.2077 5.60338 17.2266 5.39723 17.4676 5.59595C17.6254 5.50853 17.7826 5.41776 17.9325 5.32652C17.9468 5.36497 17.9612 5.40342 17.9756 5.44188C18.079 5.40321 18.1829 5.36303 18.2875 5.32131C18.3031 5.27103 18.3185 5.22072 18.3337 5.17037C18.6858 5.08569 18.5837 5.234 18.6912 5.31516C18.7646 5.29252 18.8383 5.26913 18.9124 5.24499C18.9311 5.13908 18.9491 5.03313 18.9663 4.92717C19.2884 4.78789 19.5894 4.64695 19.9041 4.48789C19.9433 4.51335 19.9827 4.53867 20.0223 4.56386C20.0036 4.52747 19.9849 4.49107 19.9662 4.45468C20.4763 4.17125 20.9856 3.85502 21.4762 3.51955C21.5688 3.38365 20.7561 3.84746 20.6827 3.88024C20.3324 4.07667 19.4384 4.62145 19.3728 4.48442C19.2121 4.691 18.528 4.9713 18.2741 4.92911C18.5905 4.80805 18.8997 4.67829 19.216 4.5334C19.1849 4.49416 19.1539 4.45487 19.1229 4.41552C19.5829 4.40947 19.644 4.36611 19.9435 3.99081C19.9755 4.04803 20.0076 4.10525 20.0396 4.16247C20.1908 3.82154 20.8659 3.8662 20.7344 3.61499C20.8855 3.54883 21.0357 3.4808 21.1884 3.40873C21.4661 3.17751 20.904 3.32403 22.0942 2.57925C22.1773 2.52529 22.2033 2.59555 22.3208 2.50137C22.3578 2.47097 22.4838 2.24934 22.8563 1.96473C22.9147 1.92001 22.9581 1.9649 23.0229 1.92244C23.1746 1.82402 23.3653 1.50226 23.3726 1.75811C23.9387 1.35357 23.6128 1.41262 23.7332 1.22165C23.8137 1.09257 23.8705 1.20073 23.9477 1.09553C24.0401 0.965913 23.8867 0.949939 24.3716 0.572414C24.3265 0.626077 24.2815 0.679355 24.2364 0.73225C24.284 0.732456 24.3316 0.732472 24.3794 0.732299C24.5844 0.432518 24.6392 0.53591 24.6346 0.286971C24.7852 0.210842 24.9073 0.121345 25.037 0L29.3513 4.65128C29.269 4.71718 29.1797 4.79774 29.0709 4.90048C28.5584 5.39241 28.9622 5.29213 28.1851 5.64502C28.1161 5.75982 28.0409 5.88131 27.9731 5.99687C27.7664 6.08574 27.8241 5.89449 27.578 6.10417C27.8929 6.06793 27.3582 6.48853 27.4016 6.69118C27.3641 6.67057 27.3266 6.65001 27.2891 6.62949C27.2387 6.67986 27.1859 6.73309 27.1373 6.78229C27.1606 6.80558 27.1839 6.82886 27.2072 6.85213C27.1247 6.90062 27.0418 6.95015 26.9584 7.0007C26.9325 7.07435 26.9065 7.14833 26.8806 7.22263C26.7478 7.26183 26.6222 7.29441 26.492 7.33288C26.4388 7.38286 26.3855 7.43331 26.3321 7.48422C26.384 7.50034 26.4357 7.51658 26.4874 7.53295C26.412 7.59024 26.3344 7.65058 26.2607 7.70729C26.3923 7.68272 26.4165 7.79438 26.2232 8.00637C26.0646 8.18262 26.1133 7.8708 25.8305 8.30202C25.8118 8.33258 25.8592 8.45542 25.5679 8.83561C25.2272 9.28841 25.3339 9.02167 25.2678 9.09829C25.2553 9.11313 25.1925 9.28866 25.1022 9.41984C25.0504 9.49477 24.9586 9.53514 24.9514 9.54486C24.9191 9.59108 24.9641 9.64564 24.9195 9.70929C24.805 9.8715 24.6245 10.063 24.5177 10.2216C24.4691 10.2936 24.4565 10.3838 24.4351 10.4158C24.4017 10.4653 24.3081 10.4924 24.2747 10.5426C24.1506 10.7286 24.1481 11.1183 23.8517 11.053C23.965 11.3684 23.4749 11.5804 23.6447 11.6417C23.2854 12.0942 22.9415 13.4428 22.6959 13.2973C22.8343 13.6548 22.6733 13.565 22.638 13.6792C22.6007 13.805 22.6687 13.7559 22.6352 13.8537C22.5579 14.0818 22.4787 14.2926 22.427 14.5165C22.3952 14.4724 22.3637 14.4277 22.3327 14.3824C22.2649 14.6182 22.3747 14.5575 22.3465 14.798C22.3057 15.2362 22.2647 15.0415 22.148 15.0913C22.2479 15.0908 22.1801 15.5904 22.1693 15.639C22.1604 15.6688 22.0303 15.529 22.0637 15.838C22.1049 15.8221 22.1462 15.8064 22.1876 15.7911C22.1244 15.9282 22.2076 16.2926 22.2011 16.3525C22.1962 16.3773 21.8802 16.5662 22.1582 16.6739C22.1198 16.6958 22.0815 16.718 22.0434 16.7407C22.1143 16.8906 22.1901 17.0294 22.2724 17.1677C22.206 17.208 22.1401 17.2493 22.0745 17.2915C22.0867 17.341 22.0992 17.3895 22.1124 17.4374C22.1667 17.3881 22.2219 17.3408 22.2772 17.2928C22.3192 17.5902 22.5488 17.9042 22.369 18.044C22.4321 18.0911 22.496 18.1372 22.5607 18.1823C22.5114 18.2522 22.4633 18.3237 22.4165 18.3969C22.5726 18.6776 22.6227 18.66 22.8014 18.8182C22.7473 18.8391 22.6931 18.8599 22.6389 18.8805C22.7944 18.992 23.0134 19.202 23.1719 19.4057C23.2437 19.4999 23.303 19.7083 23.3277 19.7277C23.3514 19.7478 23.7715 19.774 23.5878 19.971C23.9514 20.2154 23.9999 20.4345 24.1325 20.5666C24.1523 20.586 24.1722 20.6007 24.1922 20.6128L19.7358 25.1036C19.6985 25.0934 19.6527 25.1042 19.6078 25.0712C19.5263 25.0118 19.4446 24.9106 19.3824 24.8721C19.346 24.8497 19.3034 24.8968 19.2776 24.8815C19.1533 24.8107 19.2618 24.8037 19.1242 24.7233C19.1094 24.7152 18.9741 24.7226 18.8559 24.649C18.7914 24.6072 18.6442 24.4406 18.6241 24.4325C18.5439 24.3989 18.5471 24.5841 18.3537 24.2891C18.3495 24.3227 18.3452 24.3563 18.3407 24.3899C17.9811 24.3375 17.9652 24.1867 17.8987 24.1531C17.8898 24.1493 17.7869 24.1763 17.7364 24.1535C17.6509 24.1146 17.635 24.0305 17.6162 24.0217C17.5508 23.9908 17.2987 23.9628 17.1544 23.8583C17.1409 24.0763 16.5799 24.0569 16.4755 23.7994C16.3675 23.8361 16.2596 23.8748 16.1517 23.9154C16.1078 23.8707 16.0635 23.8263 16.0196 23.7823C15.9884 23.8213 15.9575 23.8604 15.9268 23.8997C15.7816 23.8015 15.6263 23.7068 15.4714 23.6162C15.4611 23.7064 15.4511 23.7966 15.4413 23.8869C15.3985 23.8766 15.3553 23.8666 15.3117 23.8569C15.2768 23.7857 15.241 23.7147 15.2042 23.6439C15.1483 23.6589 15.0954 23.6744 15.0409 23.6904C15.0295 23.7428 15.0183 23.7952 15.0073 23.8477C14.7219 23.9252 14.8265 23.4133 14.3042 23.9058C14.21 23.8758 14.1186 23.8466 14.0245 23.8189C13.9553 24.0298 13.7477 23.941 13.6026 23.9914C13.5005 24.027 13.5219 24.1031 13.3789 24.1346C13.2354 24.1671 13.2233 24.0931 13.2119 24.095C13.0915 24.1175 13.0222 24.2032 12.9329 24.2121C12.9194 24.2136 12.8651 24.1343 12.7524 24.1585C12.6391 24.1834 12.5983 24.2936 12.4323 24.3245C12.3465 24.3409 12.2998 24.2761 12.2228 24.2935C11.8491 24.378 11.6374 24.8672 11.207 24.5524C11.169 24.6282 10.8144 25.0001 10.6346 25.0746C10.3449 25.1923 10.4139 25.0611 10.2932 25.1021C10.2754 25.1086 10.202 25.1769 9.96623 25.2949C9.92376 25.3162 9.95714 25.3556 9.95144 25.3593C9.67361 25.5032 9.13172 25.772 8.83128 25.9569C8.80419 25.9735 8.74724 26.1744 8.40972 26.1732C8.14518 26.5146 7.33291 26.7348 7.02742 27.2543C6.9696 27.3064 6.86363 27.3281 6.83795 27.3514C6.62242 27.5513 6.80782 27.5869 6.14866 27.8658C6.24139 27.8878 6.16798 28.045 6.00226 28.1873C5.75042 28.4053 5.82733 28.1379 5.6362 28.3312C5.66412 28.3611 5.69204 28.391 5.71995 28.4209C5.1817 28.7777 5.23013 28.9757 4.78174 29.4355C4.778 29.4394 4.77419 29.4433 4.77031 29.4472L0 24.8349C0.163331 24.672 0.458511 24.4859 0.494905 24.4472C0.509436 24.4317 0.611291 24.178 0.627272 24.1594C0.718303 24.0567 0.806017 24.0283 0.884394 23.9427C1.1483 23.6556 1.35401 23.2233 1.47467 23.4394C1.50759 23.3269 1.54002 23.2141 1.57189 23.1012C2.02015 22.9599 1.94519 22.508 2.18343 22.598C2.18927 22.5116 2.19469 22.4254 2.19968 22.3392C3.27179 21.0388 4.19131 19.681 4.81785 18.3165C4.77556 18.2306 5.03904 17.6477 5.05677 17.6214C5.15832 17.5001 5.26727 17.7056 5.32961 17.4036C5.26985 17.3481 5.20967 17.2934 5.14908 17.2393C5.23693 16.8781 5.25364 17.0702 5.34362 16.9436C5.35138 16.8824 5.29074 16.8858 5.30815 16.8061C5.41355 16.3705 5.55064 15.5186 5.5495 15.083C5.55155 14.9946 5.60467 15.0093 5.60553 14.9817C5.60684 14.9052 5.54011 14.7566 5.53449 14.6091C5.52439 13.6874 5.19815 12.4456 4.71388 11.5295C4.68197 11.4663 4.73407 11.4284 4.71288 11.3863C4.68382 11.3286 4.56301 11.2316 4.52967 11.17C4.49835 11.1119 4.51592 11.0495 4.4805 10.986C4.32501 10.7024 3.98738 10.3896 3.86286 10.0201C3.85619 9.99056 3.78521 9.51625 3.792 9.5007C3.82821 9.3921 4.19612 9.55679 3.89666 9.01497C4.35114 9.32215 4.43399 9.05727 3.99401 8.44329C4.28146 8.69403 4.53835 8.93149 4.80266 9.20005C4.82359 9.18308 4.84453 9.16612 4.86548 9.14916C4.74432 8.8002 4.56534 8.52985 4.19535 8.13921C4.22485 8.13347 4.25437 8.12779 4.28391 8.12216C4.70855 8.37143 5.09147 8.76796 5.44781 8.93823C5.22749 8.48293 4.98849 8.04533 4.70456 7.59496L4.13894 6.93835L4.70456 6.4511C4.73746 6.43014 4.77036 6.40918 4.80327 6.38821C4.79712 6.42218 4.79097 6.45615 4.78482 6.49012C4.77945 6.49797 4.77379 6.50607 4.76787 6.51441L4.26486 6.94773L4.76787 7.53165C5.00357 7.69622 5.38589 8.06366 5.55787 8.19333C6.2477 8.70955 5.17567 7.55657 5.42469 7.67851C6.02957 8.3327 6.57637 9.03333 7.039 9.79107C7.16677 9.7469 5.71929 7.51851 5.3501 6.94943L5.3501 7.09664C5.43204 7.05569 5.48652 7.04294 5.50452 7.06712C5.47563 7.09955 5.44674 7.13197 5.41786 7.1644V6.88167C5.60645 7.05041 5.78809 7.21989 5.96294 7.39011C5.92271 7.25348 5.87949 7.11584 5.83325 6.97726C5.87273 6.98979 5.91215 7.00241 5.9515 7.01514C6.32286 7.33602 6.69965 7.6962 7.04 8.05391C6.44881 7.3491 6.01716 6.90874 5.78624 6.51328L5.78624 7.53278C6.03131 7.3936 6.25396 7.34554 6.49063 7.38496C6.47132 7.42202 6.45201 7.45907 6.43269 7.49612C6.31246 7.49807 6.15181 7.5829 5.97111 7.71765L5.97111 6.32841C6.37095 6.84323 7.07794 7.54915 7.4877 8.02993C7.45082 7.82252 6.93179 7.2952 6.85952 7.13649C6.84107 7.09149 6.99366 7.17167 6.94792 7.07C6.85495 6.85726 6.40569 6.25846 6.27722 6.0223L6.27722 8.02376C6.33819 7.99484 6.37226 7.9929 6.36359 8.03334C6.36155 8.04279 6.35221 8.05977 6.3366 8.08314L6.3366 5.96292C6.6478 6.15548 7.79331 7.34469 7.98862 7.65292C7.59539 6.95781 7.098 6.33475 6.60615 5.69338L6.60615 8.35269C6.68436 8.29474 6.76328 8.23783 6.84308 8.18225C6.80163 8.27782 6.76284 8.37306 6.72268 8.46922L6.72268 5.57685C7.17213 5.79392 7.62624 6.02268 8.19417 6.69823C8.44851 6.85193 7.49324 5.54447 7.15742 5.14211L7.15742 8.90396C7.21894 8.85902 7.25973 8.83273 7.27033 8.83396C7.24538 8.86998 7.22043 8.906 7.19548 8.94202L7.19548 5.10405C7.48137 5.31411 7.75848 5.52836 8.02693 5.74713C7.7932 5.51131 7.55004 5.27833 7.29738 5.04807C7.31121 5.03287 7.32504 5.01767 7.33887 5.00247C8.02482 5.55997 8.69354 6.04093 9.31402 6.899C9.38365 6.80633 8.99002 6.30493 8.8011 6.08008ZM15.4561 5.83103C15.4287 5.74476 15.6755 5.71487 15.815 5.68684C15.7908 5.67515 15.7666 5.66337 15.7426 5.65152C16.0433 5.61159 16.6023 5.50217 16.5758 5.32613C16.7792 5.247 16.7284 5.41863 16.8016 5.4158C16.8341 5.41389 17.074 5.25123 17.3266 5.28009C17.3785 5.26241 17.4306 5.24434 17.4829 5.22587C17.4744 5.1682 17.4658 5.11055 17.457 5.05292C17.5523 5.09349 17.6485 5.13307 17.7427 5.17278C16.9888 5.46075 16.2266 5.6815 15.4572 5.83082C15.4568 5.83089 15.4564 5.83096 15.4561 5.83103ZM22.7203 2.28599C22.9824 2.12381 23.3931 1.8492 23.2165 1.79147C23.0669 1.92644 22.9179 2.05766 22.7696 2.18523C22.7532 2.21889 22.7368 2.25247 22.7203 2.28599ZM15.5032 23.4697C15.2768 23.3145 15.0698 23.4503 14.7134 23.4477C14.7163 23.4802 14.7191 23.5127 14.722 23.5452C14.8631 23.4549 15.2429 23.489 15.5032 23.4697ZM8.44268 5.57609C8.40157 5.54335 8.36184 5.51078 8.32353 5.47843C8.57688 5.40628 8.56922 5.5394 8.78599 5.61491C8.79944 5.6195 8.8107 5.58062 8.81532 5.58233C8.86909 5.60231 8.90063 5.66778 8.95098 5.68745C9.05121 5.72625 9.13709 5.70819 9.30951 5.77347C9.44367 5.82369 9.41874 5.89583 9.46561 5.91013C9.50534 5.9232 9.9673 5.85269 10.2024 6.009C10.6511 6.34111 8.54013 5.70561 8.44268 5.57609ZM7.45197 4.82822C7.46172 4.83549 7.47904 4.84861 7.5026 4.86561C7.36489 4.90803 7.50028 4.99565 7.66939 5.09958C7.6142 5.20757 7.26302 4.88965 7.3238 4.97573C7.35358 4.9139 7.39808 4.86775 7.45197 4.82822ZM13.2854 6.71231C13.0788 6.72287 13.1164 6.58049 13.1251 6.53868C13.1893 6.53961 13.254 6.54005 13.319 6.53997C13.308 6.59743 13.2968 6.65488 13.2854 6.71231ZM11.7318 6.66199C11.8106 6.57674 12.2519 6.5826 12.4654 6.58683C12.4746 6.58733 12.4134 6.63662 12.5616 6.64098C12.606 6.64421 13.0559 6.46836 12.9521 6.68257C12.5424 6.69568 12.1364 6.6888 11.7324 6.66207C11.7322 6.66204 11.732 6.66202 11.7318 6.66199ZM11.2935 6.54018C11.3799 6.52388 11.4666 6.50677 11.5536 6.48882C11.5899 6.53973 11.6269 6.5905 11.6646 6.64114C11.5669 6.63958 11.47 6.63697 11.3741 6.63338C11.3469 6.60238 11.32 6.57132 11.2935 6.54018ZM6.19297 17.9108C6.14085 17.9133 6.08875 17.9154 6.03669 17.9174C5.98543 17.9771 6.04777 18.3988 6.12802 18.3043C6.15207 18.1727 6.17373 18.0416 6.19297 17.9108ZM6.7002 16.4539C6.73844 16.3852 6.77587 16.3159 6.81246 16.2461C6.74609 16.1473 6.67808 16.0509 6.6085 15.957C6.5051 16.3082 6.35591 16.6722 6.6056 16.6637C6.58724 16.7472 6.5677 16.8308 6.54699 16.9145C6.46683 16.82 6.43399 16.8237 6.31679 17.0222C6.43882 17.1048 6.31087 17.3105 6.25747 17.5756C6.32512 17.3916 6.38757 17.2066 6.44421 17.0219C6.46794 17.0281 6.49166 17.0343 6.51538 17.0405C6.39175 17.459 6.69109 16.9744 6.6538 16.6755C6.69044 16.6609 6.72705 16.646 6.76363 16.6309C6.74306 16.5714 6.72192 16.5124 6.7002 16.4539ZM21.7075 19.1252C21.7095 19.1817 21.7124 19.2387 21.7161 19.2962C22.0959 19.3155 21.6213 19.1016 21.7363 18.7442C21.6006 18.913 21.4273 18.5132 21.4098 18.496C21.3684 18.5662 21.3282 18.6377 21.2891 18.7106C21.4256 18.859 21.5634 18.9929 21.7075 19.1252ZM22.337 20.4963C22.3445 20.253 22.9279 20.9642 23.1304 21.2116C23.177 21.2737 23.2126 21.4364 23.2618 21.47C23.2852 21.471 23.3087 21.472 23.3321 21.4729L20.5892 24.237C20.5691 24.2405 20.5491 24.2441 20.529 24.2477C20.5969 24.1477 20.1439 23.9274 19.9345 23.8699C19.9409 23.8249 19.9482 23.7806 19.9545 23.7358C19.8833 23.7086 19.8099 23.6818 19.7345 23.6556C19.7638 23.6256 19.7933 23.5958 19.823 23.5661C19.7455 23.5765 19.6709 23.5898 19.5962 23.6039C19.3681 23.5404 19.5978 23.4121 19.4074 23.3909C19.1984 23.3717 19.4234 23.6337 19.3758 23.7077C19.5238 23.7587 19.8394 23.8921 19.9599 23.9764C20.0285 24.0258 19.8663 24.0879 20.2455 24.1615C20.2748 24.2391 20.3029 24.3185 20.3225 24.3933C20.3531 24.4011 20.3831 24.4088 20.4125 24.4164L23.5102 21.2948C23.3739 21.2299 23.2401 21.1642 23.1089 21.0975C23.1278 21.034 23.1474 20.9709 23.1675 20.9082C23.159 20.8884 22.8007 20.677 22.7807 20.7174C22.7523 20.5159 22.557 20.2468 22.3663 19.9671C22.3213 19.9575 22.2765 19.9476 22.2317 19.9375C22.4837 20.1782 22.2676 20.0455 22.2779 20.1622C22.2829 20.2282 22.336 20.4113 22.337 20.4963ZM5.24745 20.2458C5.42613 19.6345 5.34732 20.0292 5.65138 19.4359C5.56465 19.4445 5.47799 19.4525 5.39142 19.4598C5.36751 19.8102 5.0211 20.2389 5.24714 20.2464C5.24724 20.2462 5.24735 20.246 5.24745 20.2458ZM6.62503 14.376C6.68431 14.6791 6.79709 14.5189 6.83535 14.9168C6.83535 14.917 6.83535 14.9172 6.83535 14.9174C6.84566 14.7105 6.84787 14.5064 6.84154 14.2999C6.76949 14.3259 6.69732 14.3513 6.62503 14.376ZM9.99193 24.0815C10.3091 23.966 10.221 23.9438 10.5464 23.9244C10.9059 23.6182 10.5635 23.7863 10.5123 23.671C10.4309 23.7466 10.3486 23.8238 10.2723 23.8995C9.99635 23.8968 10.1862 23.7434 10.1819 23.733C10.1817 23.7331 10.1815 23.7332 10.1813 23.7333C10.1655 23.6989 10.1698 23.6879 10.072 23.7079C10.0442 23.8324 10.0175 23.9569 9.99193 24.0815ZM11.248 23.3758C11.1687 23.4953 11.1618 23.6113 11.4579 23.5604C11.4581 23.5604 11.4583 23.5603 11.4585 23.5602C11.4183 23.3748 11.733 23.425 11.8547 23.3732C11.8809 23.3433 11.9071 23.3135 11.9335 23.2838C11.7029 23.3093 11.4783 23.3387 11.248 23.3758ZM16.074 22.4312C16.0605 22.6381 15.8286 22.6434 16.1436 22.8546C16.2079 22.8554 16.273 22.857 16.337 22.8591C16.383 22.8177 16.4294 22.7766 16.4762 22.7357C17.2248 23.2178 17.5764 22.5951 16.1558 22.6826C16.1556 22.6828 16.1554 22.6829 16.1552 22.683C16.1291 22.599 16.102 22.515 16.074 22.4312ZM14.5732 22.4642C14.5711 22.5735 14.5694 22.6827 14.5679 22.792C14.3637 22.546 14.1435 22.8179 13.759 22.6893C13.7309 22.7271 13.703 22.765 13.6753 22.803C13.5253 22.7331 12.1875 23.03 12.5192 23.1257C12.663 23.1622 12.9052 23.0023 12.931 22.9993C13.0137 22.9888 13.1377 23.057 13.2692 23.025C13.3455 23.0063 13.4842 22.8676 13.647 22.841C14.0083 22.7786 14.6706 23.0008 15.1166 22.7119C15.1501 22.7437 15.1853 22.7756 15.2194 22.8076C15.5623 22.7835 15.448 22.6795 15.7628 22.8105C15.996 22.2811 14.4783 22.8532 14.7753 22.4323C14.775 22.4324 14.7748 22.4324 14.7746 22.4324C14.7078 22.4423 14.6395 22.453 14.5732 22.4642ZM5.56625 26.8723C5.48684 26.817 5.24463 27.2229 5.17622 26.9866C5.1204 27.1403 5.06527 27.2949 5.01081 27.4506C5.02565 27.465 5.04049 27.4794 5.05533 27.4939C5.15037 27.384 5.24535 27.2758 5.34025 27.1692C5.3625 27.1933 5.38474 27.2174 5.40699 27.2415C5.48869 27.0032 6.20382 26.4687 6.25638 26.5801C6.2627 26.5116 6.26922 26.4431 6.27594 26.3747C6.69442 26.2095 6.88994 25.8805 7.34316 25.715C7.3482 25.6614 7.35339 25.6078 7.35871 25.5543C7.39645 25.5677 7.4341 25.5812 7.47164 25.5949C7.60737 25.5044 7.7484 25.4126 7.88982 25.3231C8.27159 24.9109 7.28945 25.3591 7.2006 25.4547C7.18821 25.467 7.23973 25.5342 7.16058 25.6078C7.01439 25.7341 6.11389 26.3227 5.89942 26.5844C5.8611 26.5431 5.82277 26.5017 5.78442 26.4604C5.71124 26.5964 5.63852 26.7337 5.56625 26.8723ZM17.8592 22.9383C17.8649 22.9991 17.87 23.0599 17.8747 23.1205C18.2387 23.1613 18.4296 23.2874 18.4051 23.0772C18.4049 23.0771 18.4047 23.077 18.4045 23.077C18.2272 23.0254 18.0413 22.978 17.8592 22.9383ZM22.0099 3.93148C22.0835 4.01916 22.2741 3.94207 22.4338 3.72873C22.4047 3.70886 22.3756 3.68894 22.3465 3.66897C22.2943 3.8239 22.0641 3.78161 21.7312 4.02869C21.7627 4.07656 21.7942 4.12442 21.8257 4.17229C21.8873 4.09269 21.9487 4.01243 22.0099 3.93148ZM17.5556 22.8383C17.4615 22.7463 17.1106 22.8876 17.3121 22.9373C17.4633 22.9753 17.6061 22.8872 17.5556 22.8383ZM6.56076 13.1718C6.5672 13.2526 6.57227 13.3333 6.57587 13.4134C6.6317 13.4444 6.68732 13.4762 6.74273 13.5089C6.74269 13.5087 6.74266 13.5085 6.74263 13.5083C6.6848 13.3946 6.62412 13.2822 6.56076 13.1718ZM8.97464 24.6285C9.24114 24.468 9.51141 24.3149 9.78091 24.172C9.76945 24.1422 9.75801 24.1123 9.74659 24.0825C9.52301 24.3247 9.35879 24.273 9.28978 24.301C9.29007 24.3008 9.29035 24.3007 9.29063 24.3005C9.07144 24.39 8.86761 24.4842 8.65804 24.5636C8.76461 24.584 8.87015 24.6057 8.97464 24.6285ZM7.95588 25.0163C8.12596 25.1749 8.18391 25.1623 8.51779 24.7726C8.48703 24.7589 8.4562 24.7453 8.42527 24.7317C8.21489 24.8799 8.12634 24.9997 8.0989 24.8779C8.05123 24.9236 8.00355 24.9698 7.95588 25.0163ZM12.3574 23.0552C12.2807 23.0002 11.883 23.195 11.9159 23.2239C11.9309 23.2311 12.4965 23.1602 12.3574 23.0552ZM18.9884 5.66803C19.09 5.64158 19.1923 5.61378 19.2953 5.58459C19.1776 5.66541 19.06 5.74423 18.9426 5.82112C18.9581 5.77012 18.9733 5.71909 18.9884 5.66803ZM18.0343 6.3886C17.9536 6.38602 18.1159 6.1177 17.6757 6.21317C17.987 6.10441 18.2772 5.99247 18.5809 5.86525C18.4507 5.95309 18.3206 6.03852 18.1907 6.12163C18.2355 6.16686 18.2807 6.2119 18.3262 6.25676C18.2285 6.30195 18.1336 6.34507 18.0343 6.3886ZM17.6513 6.36319C17.8676 6.458 16.9872 6.7445 16.8948 6.74223C16.8749 6.74305 16.7574 6.65381 16.7194 6.63774C16.8523 6.60317 16.9862 6.56634 17.1212 6.52715C17.0658 6.50502 17.0109 6.48254 16.9565 6.4597C17.11 6.40385 17.2613 6.34577 17.4086 6.28631C17.3545 6.34186 17.3002 6.397 17.2457 6.45173C17.3796 6.42455 17.5149 6.39507 17.6513 6.36319ZM21.024 4.77414C20.919 4.83174 20.8143 4.88781 20.7102 4.94238C20.7588 4.98067 20.8077 5.0188 20.8568 5.05677C20.9186 5.02144 20.9806 4.98558 21.0428 4.94919C21.0367 4.8908 21.0304 4.83245 21.024 4.77414ZM18.9106 5.92824C18.9539 5.61098 19.6259 5.9721 19.0355 5.98787C18.9763 5.98866 18.9063 5.95901 18.9106 5.92824ZM16.554 6.79579C16.2441 7.07576 16.229 6.6245 16.5856 6.6717C16.6037 6.67434 16.5766 6.77501 16.554 6.79579ZM13.8843 7.18827C13.8538 7.18761 13.8038 7.04825 13.5287 7.19065C13.4822 7.17505 13.436 7.1592 13.3902 7.14312C13.5025 7.08397 14.3974 6.99667 14.2869 7.14246C14.1451 7.1552 14.0289 7.18622 13.8843 7.18827ZM14.8285 7.64826C14.9712 7.62842 15.116 7.60602 15.2542 7.58238C15.2015 7.54435 15.1494 7.506 15.0979 7.46736C15.1644 7.44623 15.231 7.42458 15.2976 7.40241C15.426 7.4621 15.5571 7.51988 15.691 7.57561C15.3803 7.6417 15.0798 7.69617 14.7644 7.7421C14.7858 7.71087 14.8072 7.67959 14.8285 7.64826ZM18.5794 6.84363C18.3037 6.88753 17.9898 7.06482 17.5581 7.18691C17.5579 7.18683 17.5576 7.18676 17.5574 7.18669C17.5355 7.19266 17.4807 7.14474 17.4104 7.16303C17.348 7.19218 16.1823 7.55046 16.2494 7.41867C16.693 7.22615 16.8895 7.31717 16.9398 7.06355C16.9744 7.10524 17.0092 7.14682 17.0442 7.18828C17.5099 7.14797 17.5777 6.94467 17.7984 6.80778C17.8091 6.84329 17.8197 6.8788 17.8304 6.91432C17.9915 6.86524 18.1614 6.81016 18.3177 6.75708C18.2871 6.74227 18.2567 6.72735 18.2264 6.71234C18.2817 6.69245 18.3372 6.67217 18.3928 6.65149C18.5663 6.7042 18.7517 6.65965 18.5794 6.84363ZM14.1782 7.64386C14.063 7.94554 12.7552 7.7813 12.1705 7.77213C12.4911 7.63088 12.9631 7.76837 13.2977 7.76864C13.9553 7.76462 13.4985 7.66608 13.609 7.61936C13.6625 7.59679 14.033 7.76342 14.1782 7.64386ZM19.509 6.40573C19.1988 6.51919 19.0536 6.64973 18.7462 6.66081C18.761 6.63291 18.7758 6.60498 18.7904 6.57702C18.8943 6.56106 19.6413 6.30013 19.509 6.40573ZM11.3215 7.59884C11.9336 7.7853 11.6533 7.48962 11.955 7.71572C11.743 7.70658 11.5246 7.69151 11.3105 7.67159C11.3142 7.64734 11.3178 7.62309 11.3215 7.59884ZM17.0895 21.6746C16.8292 21.6275 16.5419 21.5457 16.3739 21.6384C16.5534 21.6701 16.7216 21.705 16.8997 21.7457C16.9628 21.7214 17.0261 21.6977 17.0895 21.6746ZM20.0675 20.5784C20.0781 20.6474 20.2787 20.8268 20.2942 20.8493C20.3217 20.8919 20.2833 20.9004 20.2756 20.9063C20.4663 21.1826 20.3899 20.8615 20.5491 21.0525C20.5769 21.0912 20.8618 21.5824 21.0183 21.7632C21.2564 22.0493 21.4836 22.3115 21.5779 22.4107C21.6717 22.5099 21.838 22.64 22.02 22.785L21.8912 22.9148C21.7786 22.828 21.6474 22.7299 21.5369 22.6407C21.4213 22.5476 21.4163 22.4565 21.2941 22.3678C20.5094 21.738 18.6396 21.1212 17.7859 20.9441C17.5775 20.8896 17.3849 20.7656 17.2714 20.7554C17.1768 20.7739 17.0821 20.7935 16.9873 20.8142C16.7454 20.4847 16.6228 20.7366 16.3199 20.7406C16.1313 20.7445 16.0469 20.6534 16.021 20.6522C15.8511 20.6461 15.761 20.6857 15.6305 20.6903C15.4829 20.6951 15.2664 20.6576 15.212 20.6661C15.1799 20.6736 15.2828 20.7788 14.7102 20.8048C14.1227 20.8372 13.5447 20.8985 12.9542 21.0074C13.2116 21.3167 13.3377 21.0494 13.5768 21.0007C13.6405 20.9879 13.6079 21.0491 13.6631 21.0387C13.8152 21.0095 14.1202 20.9185 14.2516 20.9203C14.3951 20.9216 14.3556 21.0548 14.5318 20.9932C14.5408 20.99 14.5077 20.9387 14.55 20.9267C14.9744 20.811 15.1206 20.8956 15.6565 20.9038C16.0187 20.8554 18.1766 21.1261 18.2323 21.2293C18.5612 21.4673 16.3584 21.0454 16.0854 21.0773C15.9937 21.0672 16.0935 21.0132 16.0097 20.9976C15.9736 20.9911 15.6464 21.0889 15.3326 21.102C14.949 21.1107 14.179 21.0899 13.8092 21.147C10.6776 21.5847 7.75778 23.0471 5.25877 25.0551C5.206 25.0977 5.17188 25.2114 5.00541 25.3493C4.21098 26.0084 3.45934 26.7068 2.71981 27.4646L2.0505 26.8175C4.27374 24.533 6.3778 21.9741 7.54761 19.0522C7.88226 18.2072 8.07836 17.3343 8.27577 16.4542C8.24546 16.3355 8.21313 16.2182 8.17877 16.1024C8.18397 16.3895 7.97387 16.8783 7.96044 16.922C7.95629 16.9383 7.98867 17.0549 7.94472 17.223C7.8825 17.4592 7.80572 17.5484 7.80073 17.5677C7.78392 17.6272 7.8443 17.6021 7.82786 17.6591C7.70308 18.0842 7.6045 18.4139 7.45746 18.796C7.28802 19.2281 7.10448 19.4014 7.05654 19.7525C7.00316 19.7698 6.94972 19.7869 6.89638 19.8034C6.96253 20.1113 6.21458 21.4412 5.85598 21.9461C5.74729 22.1081 5.7056 22.0396 5.66974 22.0942C5.64606 22.1284 5.73723 22.1692 5.43191 22.58C5.27728 22.7855 5.18131 22.8006 5.10794 22.9066C5.06795 22.9641 5.12972 22.9948 5.07024 23.0764C4.72553 23.5466 4.41255 23.9114 4.04102 24.3449C3.93529 24.4679 3.89041 24.4326 3.86792 24.4609C3.78427 24.5653 3.71249 24.8013 3.4883 25.0596C3.12634 25.4826 2.37228 26.2988 2.01715 26.596C1.97757 26.6295 1.91649 26.6324 1.8756 26.6484L2.89471 27.6337C2.90692 27.6288 2.91739 27.6227 2.9251 27.6145C2.97641 27.559 2.94621 27.4884 2.95521 27.4786C3.13046 27.2981 3.07155 27.4523 3.17784 27.322C3.23506 27.2523 3.24405 27.1282 3.3853 26.9766C3.57183 26.7774 3.59965 26.8853 3.67485 26.7994C3.68273 26.7898 3.63913 26.7388 3.72081 26.658C4.03129 26.3503 4.47282 25.9315 4.78731 25.6649C4.87581 25.5894 4.97053 25.5681 5.09375 25.4666C5.33715 25.241 6.80038 24.1176 6.953 24.0688C6.96771 24.0623 6.88611 24.2356 7.10248 24.0871C7.143 24.0108 7.1838 23.9349 7.22487 23.8592C7.36702 23.8452 7.50657 23.8343 7.64744 23.8238C7.52254 23.6302 8.15061 23.2136 8.25774 23.4236C8.33118 23.3924 8.40621 23.3608 8.48272 23.329C8.55414 23.1063 8.68227 23.1022 8.92618 22.8701C8.99383 22.8907 9.05913 22.9126 9.12816 22.933C9.12501 22.8979 9.12192 22.8627 9.11889 22.8276C9.35588 22.9069 9.53375 22.6256 9.56539 22.6102C9.68434 22.5506 9.7905 22.5526 9.8493 22.5248C10.0653 22.4219 10.4987 22.1764 10.7715 22.108C10.784 22.1049 10.7987 22.1803 10.8742 22.1626C11.0098 22.1315 10.9866 22.0214 11.2015 22.0856C11.2252 22.0429 11.2511 21.9996 11.2768 21.9565C11.3204 21.9599 11.3638 21.9635 11.407 21.9674C11.6305 21.886 11.8423 21.8138 12.0717 21.7425C11.8993 21.9237 12.1553 21.9253 12.3511 21.7721C12.4178 21.72 12.3323 21.6607 12.3545 21.6429C12.3807 21.61 13.417 21.4364 13.4961 21.4856C13.5411 21.4534 13.5861 21.4215 13.6313 21.3899C13.6632 21.4351 13.6948 21.4803 13.7261 21.5257C13.7502 21.5048 13.7743 21.4841 13.7986 21.4634C14.076 21.5075 14.7545 21.2526 14.8866 21.267C14.9554 21.273 14.9017 21.4826 15.223 21.4533C15.2332 21.3954 15.2435 21.3375 15.254 21.2796C15.3291 21.2701 15.4039 21.2614 15.4784 21.2534C15.6178 21.2585 15.8186 21.3645 15.8227 21.4334C15.8675 21.3938 15.9127 21.3545 15.9581 21.3154C16.069 21.4503 16.6834 21.4506 16.9434 21.4055C17.0111 21.4553 17.0773 21.5058 17.1421 21.5568C17.2451 21.5233 17.3477 21.491 17.4553 21.461C17.683 21.4893 17.4303 21.524 17.477 21.5399C17.5745 21.5687 18.1132 21.551 18.0385 21.7118C18.1067 21.7293 18.1742 21.7474 18.2409 21.766C18.2881 21.7281 18.3361 21.6905 18.3855 21.6536C18.4582 21.8514 18.6736 21.8467 19.0533 22.0534C19.1 22.0293 19.1468 22.0056 19.1939 21.9821C19.2987 22.0824 19.3996 22.1843 19.4935 22.2866C19.5438 22.2384 19.5934 22.19 19.6458 22.1431C19.703 22.159 19.7595 22.1752 19.8155 22.1919C19.8568 22.3713 20.1114 22.3273 20.177 22.4323C20.2674 22.5836 20.1164 22.6118 19.858 22.5012C19.8385 22.5979 20.5623 22.9597 20.7106 23.0755C20.7128 23.0517 20.7149 23.028 20.7168 23.0041C20.5493 22.9047 20.3834 22.8175 20.2048 22.7319C20.1958 22.4198 20.6234 22.7507 20.8403 22.8727C20.8588 22.8828 21.0254 22.8749 21.2104 23.04C21.257 23.0809 21.3653 23.2694 21.4218 23.3915L22.493 22.312C22.459 22.2488 22.4317 22.1984 22.4168 22.1796C22.0429 21.6899 22.1897 22.1569 21.9375 21.5998C21.913 21.7843 21.7731 21.4533 21.534 21.1913C21.4901 21.1477 21.1034 20.8161 21.0789 20.7809C20.9405 20.6116 21.1743 20.7366 20.9753 20.4965C20.9277 20.4834 20.8801 20.47 20.8326 20.4562C20.7938 20.3956 20.756 20.3349 20.7191 20.2743C20.7453 19.7522 20.5199 19.7687 20.423 19.6434C20.3854 19.5934 20.488 19.6298 20.4034 19.495C20.3723 19.4445 20.2854 19.4119 20.2128 19.2616C19.9928 18.789 20.1951 18.5498 19.7912 18.1847C19.8105 18.1044 19.8311 18.0252 19.853 17.9471C19.7935 17.9127 19.7342 17.8769 19.6752 17.8404C19.7302 17.4445 19.6203 17.608 19.5947 17.4748C19.5226 17.1264 19.4896 16.3939 19.61 16.3263C19.3257 16.0287 19.639 15.6564 19.6354 15.5413C19.6062 15.4686 19.578 15.3951 19.5507 15.3209C19.5896 15.2388 19.6296 15.1578 19.6707 15.0777C19.402 15.0913 19.7124 14.6821 19.7249 14.6446C19.7307 14.598 19.7759 13.9195 19.8464 13.6723C19.9072 13.4259 20.1057 13.0233 20.1191 12.987C20.1316 12.9447 20.2 12.5111 20.3289 12.1928C20.412 11.9031 21.3027 10.3592 21.1625 10.4085C21.077 10.4952 20.9724 10.629 20.892 10.7502C20.5877 11.1024 19.5712 13.5382 19.5073 14.2114C19.2137 15.5168 19.2493 16.9391 19.5985 18.2248C19.6187 18.3002 19.5567 18.3312 19.575 18.3967C19.6023 18.496 19.7524 18.7258 19.7865 18.8191C19.9062 19.1688 20.0977 19.6035 20.1871 19.7777C20.3923 20.1832 20.5219 20.4716 20.7074 20.7643C20.767 20.8618 21.1462 21.2553 21.3598 21.5694C21.3884 21.6352 21.4179 21.7012 21.4485 21.7674C21.2986 21.6284 20.9409 21.2646 20.8001 21.0722C20.5828 20.7805 20.5355 20.5955 20.4668 20.4871C20.4113 20.4057 20.0699 19.9358 19.9643 19.7117C19.9295 19.6414 19.9884 19.5982 19.9587 19.5357C19.797 19.1989 19.6287 18.7636 19.4668 18.4752C19.5206 18.5919 19.346 17.8068 19.346 17.7621C19.3306 17.6915 19.248 17.628 19.2211 17.482C19.173 17.2016 19.3151 17.2174 19.1336 16.8806C19.1647 16.7881 19.1973 16.697 19.2314 16.6073C19.0294 16.612 19.2587 15.5007 19.0801 15.1696C19.0287 15.1543 18.941 16.6295 18.9805 16.7516C19.0122 17.4909 19.3192 18.5343 19.5682 19.1991C19.6321 19.4027 19.8266 20.0626 19.8578 20.1054C19.8996 20.1772 19.9217 20.0804 19.9406 20.1109C20.3418 20.7299 20.0526 20.4735 20.0675 20.5784ZM17.9291 7.20463C18.1306 7.14641 18.338 7.0817 18.5328 7.01737C18.5329 7.06112 18.533 7.10489 18.5329 7.14867C18.4372 7.16697 18.3433 7.18379 18.2439 7.20164C18.1807 7.24972 18.1174 7.29729 18.0539 7.34435C18.0121 7.29792 17.9705 7.25135 17.9291 7.20463ZM17.4875 7.52242C17.3139 7.59466 17.2821 7.51279 17.24 7.52032C17.1146 7.54184 17.0187 7.60354 16.9009 7.63224C16.9849 7.39943 17.2934 7.41287 17.4875 7.52242ZM21.0326 6.11428C20.989 6.12691 20.6372 6.06722 20.4501 6.39222C20.2112 6.43961 19.9699 6.48342 19.7264 6.52311C20.1435 6.44377 20.5763 6.10503 20.7562 6.01189C20.8234 5.9776 20.8685 6.03046 20.9225 6.00235C21.2256 5.8441 21.4338 5.54226 21.5796 5.71751C21.2634 5.82858 21.086 6.09886 21.0326 6.11428ZM19.1167 6.94231C19.0471 6.91999 18.9781 6.89717 18.9097 6.87386C19.0956 6.79962 19.2767 6.72361 19.455 6.64534C19.4257 6.71023 19.396 6.775 19.366 6.83963C19.2845 6.87392 19.2023 6.9078 19.1167 6.94231ZM23.3214 7.19807C23.4005 7.10183 23.4804 7.00607 23.5622 6.9092C23.5316 6.8922 23.4384 7.00428 23.3874 7.02982C23.3876 7.02963 23.3877 7.02946 23.3879 7.02928C23.3305 7.05782 23.3123 7.01025 23.2295 7.08068C23.2601 7.11984 23.2908 7.15897 23.3214 7.19807ZM8.34311 15.9744C8.41988 15.7716 8.40309 13.8769 8.25442 14.0535C8.20452 14.1372 8.28862 14.7679 8.27876 14.9578C8.28141 15.2151 8.09007 15.8785 8.34311 15.9744ZM8.16751 12.6469C8.0551 12.6421 8.25102 13.7911 8.26424 13.9047C8.27943 13.8789 8.31472 13.8374 8.31991 13.804C8.35231 13.6392 8.20473 12.8995 8.16751 12.6469ZM19.5835 13.0824C19.6718 13.0069 19.7609 12.9331 19.8506 12.861C19.7648 12.8597 19.6789 12.859 19.593 12.8588C19.5891 12.9335 19.5859 13.0081 19.5835 13.0824ZM21.5293 21.8039C21.7475 22.0612 21.9812 22.3154 22.2348 22.5702L21.6781 23.1312C20.8133 22.287 19.6341 21.7158 18.4296 21.3719C18.5769 21.3779 18.7227 21.3867 18.8669 21.3981C19.9186 21.7532 20.9663 22.3244 21.7449 23.0633L22.1674 22.6376C21.9543 22.4308 21.7546 22.2279 21.5668 22.0308C21.5533 21.9548 21.5418 21.8804 21.5293 21.8039ZM21.6071 6.21486C21.9724 6.00517 22.2403 5.77057 22.6725 5.6033C22.357 5.91867 22.1022 5.90772 21.8018 6.24372C21.8016 6.24384 21.8014 6.24396 21.8012 6.24408C21.7362 6.23474 21.6715 6.22499 21.6071 6.21486ZM25.6397 4.21399C25.6941 4.0813 25.7476 3.95033 25.8002 3.82117C25.6894 3.9266 25.5767 4.03521 25.4622 4.14691C25.5215 4.1691 25.5807 4.19146 25.6397 4.21399ZM9.28882 22.1182C8.93589 22.4106 7.82793 22.7531 7.59993 23.0752C7.58535 23.0958 7.80068 23.0396 7.56827 23.3239C7.77873 23.1659 7.92277 23.0537 7.89113 22.9601C7.97423 22.9499 8.05576 22.9411 8.13911 22.9317C8.24051 22.8461 8.34201 22.7619 8.44361 22.6792C8.47696 22.7708 8.48323 22.7606 8.62584 22.6111C8.71624 22.5913 8.80583 22.5726 8.89558 22.5545C8.91165 22.5007 8.92791 22.447 8.94438 22.3932C9.04053 22.4091 9.13587 22.4259 9.23039 22.4437C9.47565 22.2583 9.26313 22.2373 9.28882 22.1182ZM10.7345 21.5455C10.6422 21.5253 8.79333 22.411 9.7208 22.2108C9.94083 22.1066 10.1594 22.0087 10.3766 21.9168C10.0723 21.6933 10.7972 21.7188 10.8466 21.7121C11.093 21.6564 11.3891 21.4814 11.5672 21.4327C11.7211 21.3901 11.8267 21.4197 11.9369 21.3879C12.3065 21.2777 12.8966 21.1503 12.9542 21.0074C12.6599 21.0618 12.3589 21.1288 12.0588 21.2109C11.737 21.3007 11.4201 21.2569 10.8859 21.6224C10.7363 21.6559 10.7536 21.5445 10.7345 21.5455ZM26.0938 3.56259C26.1703 3.66953 26.731 3.11305 26.697 3.0758C26.6785 3.05108 26.491 3.2214 26.4548 3.23903C26.4546 3.23919 26.4544 3.23936 26.4543 3.23952C26.4393 3.24631 26.4637 3.15551 26.3633 3.22817C26.2651 3.34634 26.1858 3.4481 26.0938 3.56259ZM7.88329 18.9506C8.04226 18.8961 8.66782 16.5535 8.58422 16.4681C8.57757 16.4475 8.54118 16.4688 8.52386 16.4583C8.54214 17.0302 8.22284 17.7798 8.04469 18.276C7.99579 18.4154 8.05923 18.3905 8.05759 18.3987C8.05747 18.3991 8.05736 18.3994 8.05724 18.3997C8.03113 18.481 7.78174 18.7921 7.88329 18.9506ZM6.97459 23.5379C7.0718 23.4992 7.16859 23.4616 7.26497 23.4252C7.26477 23.3769 7.26469 23.3286 7.26473 23.2803C7.26454 23.2804 7.26434 23.2806 7.26414 23.2807C7.16757 23.3651 7.07105 23.4508 6.97459 23.5379ZM4.05531 25.6117C4.09367 25.6162 4.13195 25.6207 4.17018 25.6254C4.37109 25.4533 4.57141 25.2868 4.77109 25.1259C4.76162 25.1549 4.75218 25.184 4.74277 25.213C5.06348 25.002 5.13771 24.8145 5.30921 24.6975C5.30902 24.6976 5.30884 24.6978 5.30865 24.6979C5.32741 24.6853 5.38587 24.7156 5.45266 24.6661C5.60261 24.553 6.05793 24.2417 6.07747 24.1549C6.11205 23.9652 5.26239 24.6765 5.09992 24.8086C5.02472 24.8654 4.9026 24.8971 4.85709 24.9328C4.80899 24.9708 4.78977 25.0782 4.67329 25.173C4.63955 25.1991 4.21036 25.4557 4.05531 25.6117ZM3.86395 25.3222C3.76224 25.3408 3.69958 25.5078 3.6511 25.5467C3.63959 25.556 3.67378 25.4349 3.57063 25.5275C3.57263 25.5812 3.57497 25.6346 3.57642 25.6888C3.67277 25.5675 3.76826 25.4457 3.86395 25.3222ZM27.0303 2.63203C27.0082 2.63218 26.6941 2.91709 26.681 2.94136C26.5696 3.19872 27.2205 2.60395 27.0303 2.63203ZM18.8326 7.94431C19.0897 8.06543 16.8092 8.60291 16.5846 8.61684C16.5724 8.51085 17.1368 8.48901 16.8205 8.41146C17.1002 8.43466 17.8321 8.18357 17.9995 8.15104C18.1062 8.13239 18.1612 8.21257 18.1778 8.21037C18.2421 8.20319 18.7539 7.91132 18.8326 7.94431ZM14.6861 8.83801C14.9036 8.83848 15.1315 8.83297 15.3495 8.82386C15.0958 8.87095 14.8316 8.91256 14.5776 8.94641C14.6139 8.91041 14.6501 8.87428 14.6861 8.83801ZM14.4172 8.90988C14.4272 9.0181 13.6824 8.97855 13.4805 8.99968C13.7067 8.81892 14.065 8.97569 14.4172 8.90988ZM25.6333 3.96946C25.9389 3.79748 25.8392 3.459 25.6162 3.83751C25.6097 3.84924 25.6201 3.97595 25.6333 3.96946ZM9.00033 21.7568C8.94436 21.777 8.22937 22.0216 8.21792 22.0899C8.17655 22.297 8.56905 22.015 8.74739 21.9973C9.02906 21.9715 8.71806 22.2101 9.2664 21.8838C9.25673 21.9244 9.24717 21.965 9.23773 22.0057C9.57559 21.8614 9.37232 21.7063 9.42242 21.6513C9.43815 21.6341 9.6636 21.5564 9.69696 21.5269C10.1166 21.1484 9.04308 21.7275 9.00033 21.7568ZM22.8202 6.49374C22.3122 6.96421 22.6024 6.82549 22.1649 7.37624C22.2036 7.43692 22.8091 6.5984 22.8202 6.49374ZM15.6026 20.346C14.8781 20.3671 14.2809 20.3164 13.6279 20.5328C13.6917 20.6793 15.7803 20.3637 15.6026 20.346ZM8.50806 10.8877C9.39544 13.644 9.22995 17.0332 7.97076 19.7509C7.83891 20.0473 7.75363 20.0416 7.71148 20.151C7.68335 20.2223 7.74537 20.2372 7.70094 20.3291C6.3821 23.0157 4.55052 25.286 2.58272 27.3321L2.18759 26.95C2.66152 26.4598 3.13611 26.0028 3.63716 25.5582C3.79445 25.4114 4.70282 24.8081 4.75941 24.5112C4.79769 24.2817 4.27159 24.8661 4.17486 24.9512C4.10004 25.0139 4.04996 24.9623 4.00015 25.005C3.94732 25.0504 4.02299 25.0497 3.96242 25.1034C3.69983 25.3366 3.42605 25.5591 3.20071 25.7758C2.81706 26.1447 2.47312 26.4917 2.10891 26.874L2.66139 27.4081C4.35076 25.628 5.93644 23.7646 7.20225 21.6144C7.3851 21.2994 7.39666 21.3916 7.4063 21.376C7.40629 21.3757 7.40629 21.3754 7.40629 21.3751C8.37933 19.6724 9.08479 17.4832 9.23113 15.3841C9.35333 13.9076 9.13552 12.3889 8.59723 10.9898C8.56772 10.9556 8.538 10.9216 8.50806 10.8877ZM10.4944 21.3455C10.2482 21.2076 10.2845 21.4182 9.65531 21.588C9.62111 21.643 9.58716 21.6983 9.55344 21.7536C9.86837 21.606 10.1708 21.4742 10.4954 21.3451C10.4951 21.3452 10.4947 21.3453 10.4944 21.3455ZM6.66483 23.2203C6.40265 23.03 5.32484 24.0373 4.79298 24.4095C4.79417 24.5938 5.48616 23.9668 5.68809 23.8444C5.78659 23.7805 6.34724 23.5631 6.68644 23.242C6.67924 23.2348 6.67204 23.2275 6.66483 23.2203ZM21.2435 7.34137C21.3343 7.28428 21.4252 7.22621 21.5162 7.16715C21.2628 7.26756 21.0119 7.36075 20.7635 7.44701C21.1433 7.28331 21.5435 7.09375 21.9104 6.9081C21.8727 6.99976 21.8344 7.0912 21.7957 7.18242C21.6196 7.23387 21.4262 7.29202 21.2435 7.34137ZM22.4283 6.63693C21.7968 7.03982 22.3864 6.50218 22.5797 6.46484C22.6953 6.4443 22.4949 6.59411 22.4283 6.63693ZM24.0905 5.65844C23.877 5.94839 23.2948 6.34908 23.3836 6.03151C23.7563 5.89885 23.8921 5.70475 24.3686 5.4237C24.3286 5.50443 24.2885 5.58487 24.2481 5.66503C24.2478 5.66525 24.2475 5.66547 24.2472 5.66568C24.1948 5.66349 24.1426 5.66108 24.0905 5.65844ZM22.2 6.92345C21.7168 7.06845 22.957 6.37405 22.6175 6.67272C22.6011 6.68844 22.2187 6.91916 22.2 6.92345ZM9.50356 13.9444C9.42978 13.8893 9.46177 14.2781 9.46023 14.4078C9.4664 14.9668 9.463 15.6884 9.37373 16.262C9.40224 16.2217 9.43053 16.1812 9.4586 16.1404C9.5481 15.4148 9.56639 14.6786 9.50356 13.9444ZM8.99967 18.0285C8.88996 18.409 8.764 18.7822 8.62367 19.1498C8.61089 19.1839 8.60395 19.3661 8.66409 19.2519C8.79356 18.8495 8.90631 18.4418 8.99967 18.0285ZM12.7288 20.2743C12.423 20.2935 13.2443 19.9327 13.2443 20.1556C13.0691 20.1925 12.8987 20.2319 12.7288 20.2743ZM15.5262 19.915C15.3369 19.9341 15.1393 19.9576 14.9537 19.9849C14.9525 19.9602 14.9513 19.9356 14.9502 19.911C15.1379 19.9083 15.3369 19.9094 15.5262 19.915ZM9.28961 12.3674C9.25931 12.5839 9.37294 13.065 9.41201 13.3657C9.45641 13.1478 9.32714 12.6543 9.28961 12.3674ZM8.45585 21.6881C8.50442 21.7189 7.44672 22.2776 7.7618 21.9903C7.99482 21.8831 8.22596 21.7826 8.45585 21.6881ZM6.3239 22.8336C6.53112 22.6811 6.70686 22.5941 6.7115 22.698C6.59684 22.7665 6.48191 22.8366 6.36673 22.9083C6.35245 22.8834 6.33817 22.8585 6.3239 22.8336ZM25.2459 4.99425C25.578 4.71764 25.8969 4.43891 26.2099 4.15375C26.2143 4.1827 26.2187 4.21166 26.223 4.24062C25.9211 4.51501 25.6112 4.78553 25.2907 5.05258C25.2758 5.03314 25.2608 5.01369 25.2459 4.99425ZM9.43919 12.0645C9.33935 11.763 9.22907 11.4755 9.10462 11.1873C9.19857 11.4871 9.27735 11.7836 9.34498 12.0913C9.37659 12.0826 9.4082 12.0739 9.43981 12.0652C9.43961 12.065 9.4394 12.0647 9.43919 12.0645ZM20.3974 8.37983C21.674 7.91141 20.1584 8.7633 19.759 8.7259C19.7587 8.72618 19.7584 8.72646 19.7581 8.72673C19.7234 8.72468 19.7577 8.63283 19.6985 8.62538C19.8387 8.60391 19.9795 8.58055 20.1149 8.55801C20.2119 8.47216 20.3086 8.38523 20.4049 8.2972C20.4487 8.29496 20.4926 8.29252 20.5367 8.2899C20.4903 8.32012 20.4439 8.35009 20.3974 8.37983ZM15.19 9.91281C13.9618 10.0192 15.2027 9.73573 15.8139 9.77532C15.8132 9.81057 15.3093 9.90232 15.19 9.91281ZM18.3243 9.19704C18.5017 9.12409 18.6796 9.04778 18.8582 8.96804C18.8885 8.97934 18.9189 8.99056 18.9494 9.00169C18.8144 9.07125 18.6795 9.13884 18.5448 9.20448C18.4709 9.20255 18.3974 9.20006 18.3243 9.19704ZM24.1146 6.66439C24.3746 6.5099 24.5696 6.09939 23.7909 6.70743C23.8051 6.7276 23.8193 6.74778 23.8335 6.76796C23.8645 6.74243 23.949 6.65712 23.9553 6.65493C23.9735 6.64992 24.0043 6.7289 24.1146 6.66439ZM12.892 10.6686C12.8562 10.6763 12.8214 10.9392 12.4503 10.652C12.3345 10.6624 12.2192 10.6716 12.1046 10.6797C12.0788 10.6203 12.0526 10.5609 12.0272 10.5014C12.4653 10.5785 12.518 10.4599 12.55 10.46C12.6976 10.4556 12.5861 10.5105 12.6815 10.5152C12.9346 10.5294 13.4796 10.4894 13.2293 10.659C13.1372 10.72 12.9284 10.6604 12.892 10.6686ZM13.768 10.8153C13.7139 10.7951 13.8841 10.7139 13.8429 10.6936C13.8109 10.6782 13.2644 10.6077 13.4112 10.4771C13.4989 10.4819 13.5871 10.4861 13.6759 10.4895C13.7069 10.524 13.7377 10.5584 13.7677 10.5928C13.8504 10.558 13.9331 10.5225 14.0156 10.4864C14.1598 10.5674 14.4757 10.6618 14.1139 10.7524C14.2476 10.7385 14.3821 10.723 14.5174 10.7057C14.5858 10.659 14.6492 10.6122 14.7137 10.565C14.6835 10.6312 14.653 10.6973 14.6222 10.7634C14.3349 10.7881 14.0483 10.8053 13.768 10.8153ZM9.60518 10.3746C9.6288 10.3465 9.65236 10.3183 9.67584 10.2901C9.18298 10.2444 8.42722 10.0388 8.9057 9.96574C9.55569 10.1343 10.205 10.2577 10.8636 10.3414C10.903 10.3724 10.9428 10.4033 10.983 10.434C10.5126 10.2658 10.5932 10.6886 10.182 10.4942C10.1145 10.4601 10.3472 10.3652 9.88357 10.3609C9.89323 10.3967 9.90152 10.4321 9.91068 10.4677C9.81052 10.4381 9.70558 10.4064 9.60518 10.3746ZM5.58195 8.72786C6.34251 9.2257 5.41686 8.83459 5.31801 8.64136C5.31826 8.64152 5.3185 8.64168 5.31874 8.64184C5.07201 8.15642 5.85298 8.81776 5.90254 8.82971C5.98 8.86963 6.21394 8.78356 6.47303 9.22932C6.16738 9.07421 5.87527 8.9114 5.58195 8.72786ZM8.16069 9.9628C8.09111 9.94595 8.14446 9.9118 8.11523 9.90258C8.11497 9.9025 8.11472 9.90241 8.11446 9.90232C7.67247 9.77554 6.63769 9.37525 6.60275 9.16984C6.91994 9.33444 8.33739 9.8351 8.395 9.94923C8.31651 9.95418 8.2384 9.9587 8.16069 9.9628ZM11.3086 10.5561C11.5747 10.693 10.9412 10.6293 10.7893 10.5537C10.7615 10.5386 11.0323 10.4144 11.3086 10.5561ZM24.9673 1.63733C24.5833 2.0738 25.1847 1.6065 25.0559 1.85646C25.133 1.77469 25.2084 1.69502 25.282 1.6175C25.1784 1.62262 25.0735 1.62923 24.9673 1.63733ZM21.5343 19.8682C21.3972 19.781 21.4366 19.87 21.4239 19.8641C21.3302 19.8121 21.2653 19.7249 21.2276 19.7117C20.5196 19.4776 20.9426 19.7374 20.9436 19.7496C20.9315 19.809 20.7319 19.7896 20.939 19.9634C21.0897 20.0136 21.2403 20.0677 21.3937 20.1277C21.4485 20.1948 21.5018 20.2622 21.5534 20.3297C21.864 20.4307 21.5144 20.2025 21.5169 20.0994C21.5174 20.0579 21.8088 20.1707 21.5343 19.8682ZM24.0819 2.19547C24.0862 2.33411 24.0112 2.58766 24.2453 2.50578C24.2455 2.50561 24.2457 2.50543 24.2459 2.50526C24.289 2.48989 24.4166 2.38226 24.4713 2.36718C24.645 2.01408 24.4394 2.0112 24.0819 2.19547ZM19.8444 24.073C19.6918 23.8726 19.5551 23.6817 19.4083 23.4697C19.4585 23.4332 19.5086 23.3967 19.5588 23.3602C19.6359 23.4778 19.7027 23.5803 19.7772 23.6895C19.8285 23.7047 19.8798 23.7197 19.9311 23.7345C19.8749 23.5669 19.8276 23.4057 19.7754 23.2349C19.6277 23.0987 19.4841 22.9608 19.3444 22.821C19.3738 22.9122 19.4047 23.0037 19.4369 23.0955C19.1068 22.7376 19.2907 22.7277 19.107 22.3799C18.9786 22.2995 18.8515 22.217 18.7259 22.1326C18.6607 21.932 18.6022 21.7326 18.5502 21.5348C18.3555 21.2602 18.3007 21.2475 18.3616 21.4846C18.2086 21.3723 18.219 21.1496 18.0971 20.9832C18.0871 20.9693 18.0393 21.0305 18.0316 21.0175C17.5095 20.0852 17.7316 20.0352 17.6697 19.8824C17.6288 19.7734 17.348 19.3581 17.3064 19.3608C17.2531 19.3632 17.3518 20.4439 16.8559 18.8757C16.926 19.7514 17.4701 20.5705 17.4471 19.9172C17.5068 20.178 18.059 21.1815 18.0982 21.2401C18.1404 21.338 18.0457 21.348 18.1101 21.4661C18.1533 21.5394 18.4123 21.6115 18.603 22.215C18.6739 22.262 18.7454 22.3083 18.8172 22.354C18.8369 22.4294 18.8592 22.5073 18.8791 22.5809C18.7132 22.5153 18.5448 22.4418 18.3791 22.3672C18.815 22.8279 18.9493 23.3094 19.3184 23.4949C19.5095 23.7525 19.5871 23.8648 19.4387 23.8247C19.4989 23.8936 19.56 23.9624 19.622 24.0308C19.6961 24.0454 19.7702 24.0594 19.8444 24.073ZM22.9861 3.49981C22.7252 3.63408 22.8116 3.84576 22.8486 3.82321C23.0564 3.69586 23.1227 3.42952 22.9861 3.49981ZM21.9962 20.2657C22.2728 20.502 22.5474 20.761 22.808 21.0442C22.8496 20.9936 22.8911 20.9431 22.9327 20.8925C22.6232 20.6539 22.3075 20.4466 21.9962 20.2657ZM24.931 1.47146C24.9846 1.48901 25.038 1.50676 25.0913 1.52471C25.2049 1.18 25.6319 1.14636 25.7154 1.00317C25.7363 0.969597 25.6199 0.95623 25.5598 0.984265C25.5273 0.995538 24.9603 1.42055 24.931 1.47146ZM17.8878 10.4525C18.0064 10.3865 18.1249 10.3191 18.2432 10.2502C18.2516 10.3053 18.2599 10.3603 18.2682 10.4153C18.2075 10.4436 18.1469 10.4716 18.0863 10.4992C18.0197 10.484 17.9536 10.4684 17.8878 10.4525ZM19.2881 9.92432C19.5071 9.85131 19.7218 9.77567 19.9405 9.69422C19.1339 10.0561 19.8212 9.82376 19.3417 10.0755C19.3238 10.0251 19.3059 9.97471 19.2881 9.92432ZM21.4906 9.11811C21.48 9.15994 21.4693 9.20176 21.4584 9.24357C21.2467 9.34595 21.0325 9.44524 20.8207 9.53919C21.0012 9.58418 21.1842 9.62639 21.3696 9.66573C21.4488 9.62894 21.5296 9.59075 21.6074 9.55348C21.569 9.40817 21.53 9.26305 21.4906 9.11811ZM14.975 18.1626C14.8271 18.1625 14.3119 18.2941 14.3371 18.3308C14.5569 18.36 14.7726 18.394 14.9842 18.4327C14.9831 18.3671 14.9821 18.3015 14.981 18.236C15.012 18.2677 15.0433 18.2995 15.075 18.3313C15.1982 18.3038 15.3211 18.2778 15.4439 18.2533C15.5057 18.3106 15.5667 18.3683 15.6267 18.4264C15.689 18.3618 15.7495 18.2975 15.8157 18.2337C15.2249 18.107 15.2414 18.2319 15.1179 18.2311C15.0545 18.2319 15.0131 18.1925 14.9909 18.1728C14.9856 18.1694 14.9803 18.166 14.975 18.1626ZM22.4382 20.0543C21.7688 19.5989 21.3089 19.5699 20.8652 19.2089C21.0466 19.5641 22.9013 20.2796 23.5591 21.221L20.3391 24.4659C20.2941 24.4013 20.2573 24.3396 20.23 24.2819C20.1406 24.2609 20.0513 24.2392 19.9622 24.2169C20.0897 24.3252 20.1877 24.4343 20.2687 24.5363L23.629 21.1501C23.4851 20.9785 23.3742 20.8282 23.2712 20.7287C23.1369 20.5998 23.1178 20.6531 23.1076 20.6433C23.1071 20.6429 23.1066 20.6425 23.1061 20.6421C22.7749 20.3493 22.7052 20.2431 22.4382 20.0543ZM25.1166 0.980253C24.9275 1.04385 24.7273 1.2357 24.7976 1.32573C24.9437 1.23745 25.079 1.16019 25.2309 1.06924C25.1858 1.07033 25.1475 0.970616 25.1166 0.980253ZM21.871 9.28421C22.0123 9.25534 22.2928 9.07195 22.1201 9.05133C22.0891 9.0484 21.8286 9.25911 21.919 9.01377C21.6374 9.16003 21.7903 9.30055 21.871 9.28421ZM16.6818 14.3834C16.6957 14.2551 16.7116 14.1274 16.7294 14.0002C16.689 13.9632 16.6487 13.9259 16.6086 13.8883C16.6299 14.0541 16.6542 14.2192 16.6818 14.3834ZM28.5736 4.41755C28.3094 4.36052 28.2745 4.69635 27.9451 4.74981C27.8691 4.81839 27.7941 4.88537 27.7131 4.95719C27.7129 4.95737 27.7127 4.95754 27.7125 4.95772C27.7517 5.005 27.7908 5.05228 27.8299 5.09958C28.0859 4.87161 28.3255 4.65191 28.5736 4.41755ZM18.3973 22.2394C18.3773 22.1574 18.3584 22.0756 18.3405 21.9942C18.2374 21.8935 18.1378 21.7944 18.0367 21.6881C18.0563 21.7684 18.0734 21.8431 18.0932 21.9209C18.1926 22.0284 18.2939 22.1346 18.3973 22.2394ZM27.227 5.67458C27.5226 5.45508 27.4963 5.21782 27.1442 5.52456C26.9963 5.65238 26.9181 5.9008 27.227 5.67458ZM7.77753 20.1422C7.90415 20.0975 8.0303 20.0545 8.15596 20.0132C8.17865 19.9569 8.20158 19.9007 8.22472 19.8445C8.07544 19.9413 7.92637 20.0405 7.77753 20.1422ZM20.2083 10.0116C20.2075 9.96765 20.2066 9.92375 20.2056 9.87986C20.3174 9.8436 20.4342 9.80412 20.5408 9.76789C20.5302 9.81669 20.5194 9.86549 20.5084 9.91428C20.409 9.94731 20.3081 9.98011 20.2083 10.0116ZM8.58765 19.7867C8.68877 19.7501 8.78961 19.7146 8.89017 19.6802C8.94782 19.6339 9.0056 19.5879 9.06352 19.5423C8.96464 19.5618 8.86535 19.5823 8.76564 19.6039C8.70604 19.6644 8.64671 19.7254 8.58765 19.7867ZM24.42 7.79634C24.5718 7.75571 24.9589 7.30197 24.5087 7.56335C24.2182 7.72937 24.3975 7.80199 24.42 7.79634ZM23.7937 8.25963C24.2999 8.04861 23.7209 7.86126 23.3076 8.46955C23.8649 8.08356 23.7595 8.2727 23.7937 8.25963ZM19.447 10.6391C19.4331 10.6437 19.3989 10.5832 19.2879 10.6186C18.8885 10.7472 18.3623 10.8763 18.0679 10.9505C17.3923 11.1641 15.2101 11.6417 14.9249 11.4362C14.868 11.3996 14.9785 11.2641 14.9562 11.2597C14.8912 11.249 14.5356 11.3382 14.5943 11.2412C14.9469 11.2156 15.3085 11.1781 15.6629 11.1304C15.5866 11.2062 15.5062 11.2818 15.4243 11.3569C16.3101 11.2045 16.0151 11.2419 16.2476 11.0638C16.4074 11.092 16.5675 11.1182 16.7242 11.1431C17.0323 11.027 17.3547 10.8985 17.6505 10.7674C17.5893 10.825 17.5289 10.8819 17.4659 10.939C17.9593 10.896 17.8165 10.8787 18.051 10.7135C18.0623 10.7528 18.0736 10.7921 18.085 10.8314C18.5238 10.6059 18.6406 10.6932 18.741 10.6646C18.9436 10.6014 19.0572 10.068 19.9658 10.2383C20.1988 9.89933 20.3675 10.3378 20.4658 10.0386C21.1045 10.053 20.0369 10.4051 19.5472 10.5616C19.5469 10.5617 19.5467 10.5618 19.5464 10.5619C19.508 10.5747 19.5833 10.5948 19.447 10.6391ZM22.0726 9.24638C21.8605 9.60048 23.0924 8.96674 22.5421 8.9133C22.4775 8.93719 22.4131 8.96067 22.3488 8.98375C22.2568 9.07235 22.1645 9.16002 22.0719 9.24675C22.0722 9.24663 22.0724 9.24651 22.0726 9.24638ZM22.8927 2.71259C22.1135 3.6446 22.6824 3.22943 22.8798 2.85472C22.9193 2.78043 22.9269 2.72646 22.8927 2.71259ZM21.5429 19.3396C21.5124 19.3526 21.482 19.3657 21.4516 19.3789C21.9093 19.5694 22.6723 20.1894 22.7625 20.053C22.3581 19.7767 21.9596 19.5477 21.5429 19.3396ZM19.1967 23.9472C19.2499 24.0267 19.4972 24.3373 19.5131 24.2581C19.4308 24.1007 19.3525 23.9435 19.278 23.7867C19.2049 23.7453 19.128 23.6984 19.0536 23.6534C19.1201 23.7491 19.183 23.9274 19.1967 23.9472Z" fill="var(--stroke-0, #0061FE)"/>
</g>
</svg>
