<svg preserveAspectRatio="none" width="100%" height="100%" overflow="visible" style="display: block;" viewBox="0 0 71.9938 239.164" fill="none" xmlns="http://www.w3.org/2000/svg">
<path id="Ellipse 41" d="M71.59 106.892C72.0037 111.374 72.047 115.231 71.951 118.951C71.8292 123.542 71.5008 127.891 71.2478 133.004C70.3123 153.383 67.5976 180.29 61.9494 200.646C59.8888 208.137 57.4133 215.624 53.7791 222.824C50.0405 229.51 45.6248 238.423 35.1083 239.164C34.6334 239.161 34.1604 239.131 33.6915 239.074C32.6642 238.942 32.1131 238.719 31.6726 238.594C27.3082 237.512 22.7577 232.696 20.8056 229.732C16.2452 223.536 11.848 211.544 10.1335 205.187C9.35009 202.45 8.65614 199.712 8.5123 198.582C8.27265 197.6 8.02564 197.09 7.95635 196.832C7.95575 196.829 7.95516 196.826 7.95456 196.823C7.73205 196.003 7.31681 193.82 7.21577 193.379C7.19976 193.309 7.2086 193.758 6.98539 192.624C6.96575 192.522 7.04297 192.605 6.83709 191.647C6.77691 191.392 6.02522 188.207 5.8486 187.293C5.20661 184.226 4.04912 176.907 3.55377 173.231C3.4747 172.67 3.39657 172.35 3.31457 171.754C3.27216 171.445 3.24582 170.976 3.23297 170.881C3.1728 170.452 2.78122 168.689 3.18418 169.288C2.92518 167.414 2.89134 167.978 2.8167 167.945C2.55456 165.899 2.59196 164.862 2.37385 164.36C1.25909 154.281 0.587878 144.115 0.286262 133.988C0.261623 133.986 0.236985 133.984 0.212347 133.982C0.218917 130.979 0.0375881 129.965 0.146341 128.257C0.0967228 127.206 0.0511706 126.151 0.00973582 125.092C-0.00340438 123.056 -0.00331759 121.01 0.010447 118.951C0.231042 93.9639 2.16045 68.9977 7.66523 44.7771C7.91769 43.6969 8.02661 43.402 8.47422 41.5869C8.96281 39.6112 9.66008 36.7705 10.4338 34.1516C11.1033 31.8561 12.2065 28.5378 13.1417 25.992C13.3483 25.4247 13.4748 25.0131 13.4983 24.9502C13.6371 24.5815 13.6822 24.5774 13.8177 24.2236C13.988 23.779 14.1659 23.2367 14.3666 22.7371C15.0951 20.9035 15.9997 18.8537 16.1009 18.6403C16.6004 17.5539 16.7728 17.2991 16.8137 17.2109C17.4197 15.9658 17.1635 16.4224 17.3159 16.1156C18.1028 14.5794 18.7684 13.4691 19.9681 11.3381C19.9602 11.412 19.9525 11.4861 19.9448 11.5602C20.9513 9.97728 20.2247 10.9843 20.4146 10.6519C20.445 10.5116 22.7828 7.22465 23.0611 6.97567C23.7707 6.12368 23.8253 6.14926 23.8866 6.07545C24.0051 5.90754 25.9096 3.81532 27.1389 2.97748C28.5409 1.9943 26.9685 3.25675 27.3222 3.01732C27.3428 2.9762 28.8838 1.9163 29.1098 1.85032C29.3518 1.72836 28.0156 2.55276 28.0467 2.56733C28.0492 2.51307 30.3377 1.28613 29.932 1.57348C29.5161 1.71358 26.6323 3.63559 26.133 4.23132C26.0425 4.31723 26.2498 4.19592 26.1692 4.27116C25.662 4.36513 20.7921 10.5145 20.7758 10.8764C20.9728 10.5254 21.157 10.2027 21.372 9.84377C21.0648 10.2945 20.7889 10.7151 20.501 11.17C20.8889 10.5171 21.275 9.89716 21.714 9.23817C20.8616 10.0649 19.271 13.0878 19.3176 13.2419C19.326 13.3075 20.4302 11.6227 19.5508 13.2791C19.7025 13.0341 19.8531 12.7951 20.0073 12.5545C20.3057 12.0097 20.6075 11.4806 20.9128 10.9675C20.6894 11.2966 20.4673 11.6332 20.2463 11.9772C20.3128 11.8417 20.3795 11.707 20.4465 11.5732C21.0187 10.6038 21.624 9.65205 22.2801 8.71641C22.6297 8.25654 22.5894 8.37685 22.8314 8.06989C26.1091 4.27096 23.8934 6.62376 26.2274 4.31776C26.6079 4.00158 26.9909 3.70578 27.3764 3.4309C27.1898 3.48677 28.3709 2.53322 29.9961 1.6833C29.8092 1.80607 29.6149 1.93956 29.4478 2.06369C30.876 1.16921 33.6068 0.462575 35.1083 0.553287C35.9924 0.564982 36.4108 0.624271 35.8623 0.513819C36.4853 0.572906 37.0955 0.687078 37.6939 0.851757C38.1977 0.954828 38.718 1.10223 39.198 1.27055C39.8668 1.54296 40.4932 1.86382 41.1083 2.23577C41.1047 2.24833 41.101 2.26089 41.0973 2.27345C40.6021 1.97663 40.1232 1.72412 39.5896 1.48671C39.9723 1.6992 40.3219 1.91971 40.6721 2.16044C41.0417 2.36084 41.388 2.56859 41.7319 2.79267C40.3074 1.83568 42.2648 2.99512 42.7083 3.31828C43.8795 4.20901 44.4643 4.91493 44.7973 5.24957C44.9754 5.38556 46.7986 7.30603 46.0252 6.60612C46.9345 7.64314 47.7393 8.69957 48.5053 9.80644C48.8016 10.2627 49.0643 10.6862 49.3372 11.1407C48.6851 10.2015 50.3727 13.0557 49.0662 10.9937C48.0777 9.48673 47.851 9.11078 47.3326 8.40302C46.8605 7.77614 46.5887 7.48753 46.0328 6.82948C43.1068 3.42774 39.5922 0.709687 35.1083 0.650548C34.0024 0.645442 32.8932 0.819724 31.7977 1.17163C30.739 1.50843 29.8059 2.01575 29.1966 2.37612C28.4863 2.80971 29.3469 2.20736 28.4526 2.79893C27.5109 3.46101 27.4049 3.63374 27.1667 3.81999C27.0295 3.93075 26.5471 4.28797 26.1629 4.64645C24.5458 6.08611 22.6647 8.64681 22.5179 8.87278C22.2148 9.11546 19.0626 14.1917 18.9859 14.489C18.9141 14.6204 18.9261 14.2854 18.4491 15.5236C18.268 15.8819 18.0881 16.2459 17.9094 16.6155C17.9139 16.5436 17.9184 16.4719 17.923 16.4002C16.947 18.6587 17.2582 17.8576 16.3139 19.9989C14.0343 25.1786 11.4844 32.9595 9.96842 38.8974C9.61806 40.2501 9.53685 40.709 9.15322 42.2863C8.78263 43.7753 7.83924 47.5154 8.16776 46.7315C7.32442 49.9957 7.46402 50.5085 6.99594 52.14C6.97683 52.3435 6.95793 52.5474 6.93923 52.7518C6.51323 54.5065 6.48991 55.0506 6.15241 57.012C6.01027 57.8534 6.08085 56.8855 5.89662 58.5793C5.83443 58.898 5.77262 59.2177 5.71122 59.5384C5.70105 59.4599 5.69091 59.3813 5.68082 59.3028C5.38763 61.1789 5.36024 61.3078 5.47917 61.1037C5.3171 62.0125 5.15717 62.9366 5.00635 63.828C5.01755 63.9444 5.02882 64.0608 5.04017 64.1773C4.98236 63.7152 8.73645 43.1648 9.68407 40.3919C10.5514 37.0723 12.4334 30.4574 13.376 27.8868C13.7506 26.8234 13.9687 26.3708 14.5271 24.8877C15.103 23.3555 15.8032 21.4987 16.1503 20.6873C16.9702 17.9045 23.9607 6.17108 19.3404 14.2131C19.4927 13.9913 19.6452 13.7726 19.798 13.5571C21.5914 10.3227 20.8961 11.5438 22.6766 8.98333C23.3819 7.93885 25.4078 5.57447 25.4071 5.79772C23.7578 7.5374 22.2212 9.62311 21.1355 11.3582C21.0131 11.5303 19.8053 13.6539 19.208 14.7778C18.655 15.811 18.9062 15.0101 17.9356 17.2951C17.0054 18.9328 16.7282 19.902 16.5381 20.37C16.2255 21.157 16.1242 21.2292 15.807 21.9806C15.4598 22.8082 15.2718 23.4163 15.2265 23.5327C14.7187 24.7023 12.6369 30.8066 12.547 31.1182C12.6153 30.8621 12.684 30.6073 12.7531 30.3539C12.217 31.9679 12.3911 31.6655 12.2698 32.0801C12.1741 32.3895 12.0788 32.7009 11.9841 33.0142C12.0077 32.8858 12.0314 32.7578 12.0552 32.63C11.4905 34.5283 11.9647 33.0713 11.1765 35.8159C10.6974 37.5052 10.171 39.3121 10.1309 39.4856C10.119 39.5365 10.2993 38.9903 10.1182 39.7112C9.82675 40.8635 9.33239 42.8973 9.22785 43.1201C9.09638 43.7045 9.15812 43.6675 9.14087 43.7452C9.05105 44.0633 7.7947 49.8616 7.61325 50.888C7.0358 53.8007 6.44122 57.0053 5.94056 60.1201C5.88874 60.4426 5.88871 60.2314 5.83716 60.555C5.75119 61.0729 5.38669 63.7684 5.3363 64.1537C5.19539 65.1364 4.80131 67.7815 4.764 68.193C4.75834 68.2513 4.92081 67.404 4.79963 68.404C4.66652 69.517 4.68431 68.911 4.67549 68.9711C4.35404 71.2265 4.21717 72.7273 4.04631 74.2587C3.99028 74.761 3.83604 75.6862 3.77148 76.4039C3.76401 76.4865 3.82642 76.328 3.81969 76.4092C3.72405 77.4901 3.53383 78.5148 3.48183 78.9681C3.35287 80.1017 3.47739 79.49 3.47168 79.5491C3.39716 80.3061 3.27424 81.3264 3.16922 82.4915C2.70919 87.6558 2.40269 91.8885 2.09982 97.3945C2.06239 98.0846 1.97622 98.9055 1.971 99.0117C1.95541 99.34 2.01253 99.2478 1.96696 100.199C1.87199 102.201 1.80342 104.029 1.73857 106.019C1.72565 106.419 1.67027 106.588 1.65999 106.894C1.6221 107.901 1.67677 111.374 1.51336 111.431C1.62194 113.474 1.48083 114.785 1.46935 116.419C1.46439 117.186 1.46199 118.041 1.46297 118.951C1.46306 122.611 1.54069 127.088 1.60575 130.155C1.62191 130.957 1.58885 131.342 1.59947 131.794C1.61178 132.616 1.80638 137.198 1.81633 137.449C1.82467 137.924 1.60975 137.655 1.89889 140.081C1.98262 141.505 1.89425 141.339 1.90502 141.634C1.99258 143.926 2.32343 146.169 2.12843 145.757C2.34395 148.413 2.5736 150.157 2.50002 151.258C2.57622 151.237 2.71994 152.491 2.81961 153.994C2.56126 152.463 2.48292 152.678 2.22821 148.902C2.22431 148.842 2.28808 148.952 2.28418 148.892C2.24818 148.343 2.14383 147.248 2.08761 146.333C2.03175 145.42 2.10226 145.924 2.07823 145.558C2.05641 145.223 2.00413 145.238 1.97363 144.752C1.87498 143.17 1.78621 141.781 1.73989 140.89C1.7106 140.328 1.72591 139.694 1.70532 139.256C1.62093 137.546 1.44646 133.988 1.39293 131.815C1.38147 131.365 1.43663 131.545 1.41513 130.568C1.41278 130.454 1.34871 130.04 1.31852 129.182C1.2885 128.324 1.30213 127.656 1.28702 127.102C1.27473 126.639 1.23068 126.834 1.21363 125.882C1.20282 125.374 1.17224 121.777 1.19272 118.951C1.20262 117.23 1.22333 115.831 1.22774 115.647C1.24508 114.948 1.31308 114.618 1.31067 114.193C1.30997 114.118 1.24999 113.991 1.24924 113.732C1.21162 109.432 1.62495 99.9434 1.94346 95.0674C2.56593 84.8114 3.43747 75.4408 4.91564 65.1713C4.93282 64.9876 4.95015 64.8042 4.96762 64.621C4.81435 65.6514 4.66525 66.6906 4.52037 67.7385C4.49353 67.7416 4.46669 67.7448 4.43984 67.7479C4.24483 69.1392 4.33361 68.9618 4.37541 68.9278C4.29068 69.4403 4.20691 69.9549 4.1241 70.4716C4.15341 70.9314 3.66307 74.3902 3.46968 76.1718C3.33926 77.3343 3.22745 78.7417 3.16381 79.3409C3.02726 80.6283 2.9745 80.5917 2.96321 80.6927C2.94431 80.8639 2.81937 82.6806 2.70112 83.9995C2.53059 85.9166 2.41963 86.1135 2.28935 88.7793C1.98365 92.156 1.76931 95.9287 1.60055 99.5895C1.54752 98.8881 1.47167 102.178 1.41784 103.652C1.22981 108.395 1.10267 113.646 1.07629 118.951C1.05058 123.795 1.10831 128.592 1.22771 132.971C1.25988 134.151 1.23767 135.039 1.26391 135.692C1.2782 136.046 1.34828 136.197 1.35937 136.688C1.36137 136.774 1.30277 136.836 1.33282 137.761C1.39597 140.06 1.81991 145.744 1.80827 147.185C2.34753 154.996 3.11966 162.772 4.18368 170.545C4.18417 170.745 4.1848 170.946 4.18555 171.146C4.50852 172.615 5.2951 178.435 5.80714 181.263C6.66142 186.224 8.01409 192.548 9.09122 196.861C9.3195 197.788 9.47207 198.557 9.70605 199.455C9.80601 199.839 9.98123 200.299 10.0868 200.692C11.2603 205.129 13.0742 211.091 14.8041 215.415C18.889 224.372 22.5731 236.141 35.1083 237.871C35.3124 237.871 35.5164 237.866 35.7202 237.855C46.464 236.21 50.5349 226.14 54.3182 218.36C57.9079 210.082 60.3494 201.43 62.3321 192.754C66.2394 175.339 68.2193 157.66 69.1953 139.992C69.2207 139.518 69.2956 139.546 69.315 139.178C69.4374 136.986 69.5662 132.157 69.6302 129.702C69.6897 127.762 69.8643 124.631 69.7514 123.973C69.474 130.917 69.21 138.247 68.6793 145.456C68.6416 145.968 68.5653 146.027 68.5598 146.09C68.4543 147.252 68.6058 146.526 68.4883 148.207C68.4566 148.784 67.7987 153.983 68.072 153.375C67.8996 154.627 66.9493 163.431 66.7445 165.102C66.6901 165.622 66.8003 165.262 66.791 165.366C66.7506 165.815 66.6355 166.006 66.5833 166.404C66.4467 167.474 66.1653 170.127 66.0885 170.655C65.9253 171.856 65.3406 175.303 65.0985 176.882C64.8843 178.302 65.0192 178.052 64.8235 179.268C64.6651 180.228 64.7754 179.149 64.3713 181.318C64.1763 182.396 63.5324 186.096 63.3404 187.013C63.1575 187.923 62.9055 188.878 62.6396 190.137C62.2668 191.943 61.3946 195.822 60.9483 197.612C60.9223 197.718 60.9245 197.994 60.8561 198.254C60.7094 198.811 60.6685 198.623 60.5505 199.04C60.4617 199.49 58.4517 206.573 58.0021 207.803C57.7326 208.634 57.5918 209.212 57.4395 209.66C57.32 210.01 57.2397 210.026 57.1104 210.398C57.0708 210.513 56.7902 211.511 56.4421 212.454C56.1435 213.318 54.7242 216.741 54.5521 217.104C54.4421 217.363 54.6091 217.102 54.282 217.86C53.9829 218.548 53.7258 218.962 53.5527 219.341C53.1609 220.2 52.7061 221.282 52.2463 222.188C50.8599 224.873 50.8188 224.668 50.7395 224.828C50.4884 225.254 50.4566 225.449 50.3681 225.602C50.0063 226.243 49.1276 227.657 48.7621 228.186C48.3148 228.846 48.0671 229.077 47.5809 229.726C47.2181 230.208 46.4842 231.266 45.5139 232.304C43.358 234.671 40.0143 237.151 36.5477 237.553C35.5821 237.668 35.3918 237.584 35.1083 237.585C35.0949 237.585 35.0812 237.584 35.0672 237.584C33.4382 237.551 32.5525 237.328 32.1071 237.212C28.7286 236.443 24.6746 232.409 23.058 230.129C22.3133 229.281 19.5272 225.096 18.3163 222.549C18.1754 222.27 18.3488 222.511 18.185 222.202C17.7944 221.46 17.7462 221.567 17.5597 221.177C17.4702 220.987 17.3102 220.534 17.0538 219.965C15.7819 217.13 14.9765 215.126 14.4619 213.764C9.70479 200.919 6.96706 187.164 5.07714 174.593C4.87176 173.209 4.56865 171.452 4.33861 169.324C4.35619 169.256 4.37378 169.188 4.39137 169.119C4.3561 169.049 4.32086 168.978 4.28565 168.908C3.96531 166.526 3.81585 165.564 3.57344 163.133C3.55245 162.922 3.59868 162.263 3.40917 161.878C3.25513 159.42 3.28821 160.763 3.09496 158.955C2.90656 157.161 2.77597 155.381 2.63392 153.616C2.60016 152.641 3.07485 156.699 3.10483 156.956C3.14436 157.38 3.11438 157.826 3.15024 158.233C3.25496 159.428 3.43721 160.612 3.40106 160.889C3.63652 162.45 3.39431 160.501 3.47717 160.69C3.5619 161.742 3.65059 162.787 3.74319 163.825C3.99936 164.314 4.4491 170.133 4.56588 169.692C4.59295 170.145 4.62435 170.622 4.65473 171.084C5.14008 173.084 5.15466 174.22 5.5164 176.938C5.51224 176.741 5.5082 176.543 5.5043 176.346C5.52201 176.403 5.94082 178.747 5.69402 177.925C6.23274 180.292 5.97286 180.246 6.53158 182.377C6.78583 183.651 6.53615 182.898 6.96551 185.179C7.22744 186.557 7.61261 188.212 7.93219 189.712C8.00703 190.065 7.97899 190.231 8.04557 190.543C8.11226 190.854 8.20423 190.993 8.28733 191.368C8.45895 192.143 8.64034 193.144 8.75328 193.617C8.85317 194.037 9.05305 194.668 9.31042 195.705C10.2202 199.301 9.89075 198.231 10.0076 198.814C10.1411 199.441 10.3548 199.864 10.671 201.077C10.7027 201.199 10.5557 200.902 10.6654 201.295C10.7563 201.618 10.8565 201.731 11.174 202.809C11.2714 203.265 13.282 209.731 13.671 210.709C14.1828 212.221 15.3833 215.567 16.0289 217.066C16.28 217.665 16.6039 218.271 16.8758 218.881C17.7785 220.933 19.364 224.15 20.897 226.587C22.1821 228.807 25.0088 232.46 26.2092 233.283C28.9791 235.739 29.98 236.024 30.2037 236.199C30.9177 236.538 31.2499 236.616 32.2138 236.903C33.1262 237.16 34.106 237.309 35.1083 237.307C48.6492 235.564 53.3873 219.035 56.9946 209.855C65.1585 184.955 67.8697 158.57 68.9044 132.463C68.871 132.392 68.8375 132.32 68.804 132.249C68.681 135.343 68.4563 138.979 68.268 142.011C68.0288 146.094 67.7088 152.124 67.19 155.079C67.2831 153.848 67.5365 151.919 67.4114 151.938C67.2263 154.07 67.0163 156.27 66.7924 158.404C66.8546 158.345 66.9168 158.287 66.979 158.229C66.7708 160.465 66.5013 162.799 66.2397 165.03C66.1931 165.426 66.2771 165.152 66.2354 165.496C66.1885 165.881 66.1695 165.614 66.1603 165.686C66.0403 166.657 66.0537 166.953 66.0382 167.071C65.9975 167.373 65.9793 167.133 65.8533 167.999C65.6194 169.599 65.5857 170.77 65.4237 170.362C65.3513 170.888 65.278 171.412 65.2035 171.933C65.2426 172.076 65.2815 172.219 65.3203 172.362C64.6248 175.498 64.7847 177.073 64.1719 178.765C64.1244 179.352 64.0783 179.921 64.024 180.525C63.9091 180.846 63.794 181.165 63.6785 181.484C63.7162 181.556 63.7539 181.629 63.7916 181.702C63.2013 184.808 62.6055 188.129 61.9439 191.113C61.4812 193.184 61.355 193.639 60.9157 195.491C59.9247 199.531 60.8377 195.492 59.8807 198.825C59.9843 198.663 60.0878 198.501 60.1913 198.338C60.0668 198.909 59.9405 199.475 59.8127 200.036C59.6623 200.41 59.5113 200.782 59.3597 201.15C59.1416 202.887 58.6009 203.992 58.5373 204.209C58.4774 204.405 58.4535 205.055 57.6927 207.045C58.1551 206.269 57.2014 208.584 57.1363 208.759C57.0865 208.921 56.3427 211.244 56.0024 212.152C55.748 212.854 55.1169 214.405 54.6917 215.461C54.318 216.391 54.4181 216.318 54.3914 216.386C53.9167 217.538 54.1683 216.803 53.8087 217.639C53.4459 218.475 53.2136 219.123 53.1296 219.295C53.0871 219.381 53.1629 219.063 52.9746 219.46C52.4479 220.581 51.5652 222.5 50.8696 223.757C50.6333 224.191 50.2873 224.697 50.0191 225.153C49.5832 225.893 49.4334 226.266 49.1735 226.676C49.0807 226.819 48.4289 227.664 47.6433 228.784C47.4917 228.999 47.2616 229.716 46.3503 230.327C46.3364 230.417 46.3223 230.506 46.3079 230.595C43.4132 234.14 41.9725 234.491 40.3862 235.797C38.8267 236.567 38.5484 236.514 38.6431 236.462C38.7398 236.39 39.1711 236.182 38.9976 236.239C38.7918 236.324 37.72 236.698 37.6019 236.71C37.3913 236.757 37.4183 236.71 37.189 236.76C36.2312 236.958 35.56 236.98 35.1083 236.99C33.5562 236.951 34.4693 237.063 33.3943 236.96C31.7463 236.742 30.4337 236.035 30.152 235.85C29.9003 235.602 30.4799 236.206 33.2725 236.874C33.2765 236.852 33.2806 236.83 33.2846 236.808C31.8419 236.716 28.7386 234.979 29.8292 235.437C30.3361 235.798 33.7783 237.001 35.1083 236.796C35.6346 236.779 35.7571 236.76 35.1083 236.747C34.8804 236.738 34.5579 236.722 34.1283 236.667C33.0921 236.502 32.4812 236.52 30.8817 235.675C29.7923 235.141 29.5611 235.273 28.2432 234.249C28.4172 234.464 28.6072 234.683 28.7952 234.892C26.8542 233.756 24.9896 231.602 23.9402 230.343C23.5323 229.89 22.0709 228.437 22.6198 228.626C21.9549 227.835 19.7042 223.972 19.3142 223.202C19.2177 223.013 18.902 222.899 17.6861 220.213C17.6179 220.017 17.548 219.815 17.4824 219.621C18.6826 222.052 16.7484 217.716 17.4378 218.817C17.5268 219.215 18.416 221.203 18.5339 221.505C18.7341 222.047 17.8908 220.56 18.8918 222.489C19.7684 223.604 17.8747 220.134 18.3868 220.551C17.0293 217.965 17.0734 217.668 16.8057 217.05C15.7448 214.475 15.0997 212.83 14.2542 210.321C13.9836 209.751 15.5213 214.245 15.795 214.801C14.8321 212.843 16.1505 216.302 16.921 217.752C16.9216 217.898 16.9223 218.043 16.9233 218.188C16.1055 216.242 15.3948 214.403 14.6437 212.491C14.6184 212.36 14.5933 212.229 14.5682 212.098C14.7541 212.517 14.9367 212.919 15.129 213.339C14.5939 211.743 14.7842 212.767 14.162 210.573C14.0785 210.527 13.995 210.481 13.9115 210.434C13.2264 208.389 12.5761 206.267 11.9944 204.218C11.5338 203.155 10.4952 199.133 10.8524 199.823C10.4323 198.181 10.88 200.231 10.4397 198.698C10.2427 198.009 9.9239 196.75 9.88623 196.41C10.0679 196.517 10.5674 198.43 10.8322 199.013C10.7136 198.643 8.5019 189.612 8.88571 190.362C8.75065 189.628 8.72597 189.961 8.4325 188.667C7.59236 185.002 6.75186 179.219 6.07709 176.263C6.51422 179.8 6.83016 180.825 7.32248 183.501C7.57781 185.233 9.86083 195.608 9.20538 193.317C9.31027 193.684 9.42048 194.068 9.5309 194.449C9.57548 194.849 9.62072 195.247 9.66662 195.644C9.3979 194.558 9.13608 193.459 8.89005 192.392C8.87898 192.123 8.86819 191.854 8.85767 191.585C8.79802 191.472 8.73844 191.36 8.67894 191.247C8.57208 190.789 8.46616 190.329 8.3612 189.866C8.42878 189.988 8.49646 190.109 8.56422 190.231C8.41717 189.51 8.27842 188.811 8.14221 188.108C8.12748 188.308 8.11287 188.508 8.09839 188.707C7.41316 185.396 7.67516 186.503 7.41527 184.618C7.17015 183.247 7.49588 185.588 6.93575 182.681C6.30444 179.267 6.83829 181.467 6.0821 177.065C6.04565 177.005 6.00923 176.946 5.97284 176.886C5.84432 175.905 5.71804 174.906 5.60217 173.943C5.58864 174.076 5.57515 174.209 5.56171 174.342C5.274 172.355 4.82953 169.53 4.87411 168.87C5.08075 170.901 5.30899 170.88 5.27415 170.331C5.11452 169.266 3.25591 152.97 3.11794 149.826C2.80738 145.786 2.69059 142.714 2.40717 139.033C2.41346 141.532 3.06741 150.344 3.1703 152.014C3.17815 152.179 2.97575 152.151 3.28683 153.187C3.53916 156.618 4.00216 160.705 4.50045 164.937C4.42679 164.813 4.35325 164.688 4.28026 164.567C4.09738 161.965 3.57957 159.537 3.83833 159.859C3.78323 159.327 3.73173 158.818 3.68015 158.298C3.64174 158.302 3.60333 158.306 3.56493 158.309C3.48761 157.527 3.41255 156.741 3.33978 155.952C3.37804 155.948 3.41629 155.945 3.45455 155.941C3.39415 155.287 3.33532 154.631 3.27808 153.972C3.23403 153.906 3.19031 153.843 3.14648 153.779C3.04204 151.846 2.36307 145.169 2.79451 148.083C2.72988 147.172 2.66825 146.256 2.60964 145.337C2.58237 145.342 2.5551 145.346 2.52783 145.351C2.499 144.956 2.47073 144.56 2.44303 144.164C2.47574 144.293 2.50853 144.422 2.5414 144.551C2.38423 142.726 2.42365 141.021 2.27933 139.834C2.29969 140.619 2.32216 141.402 2.34671 142.182C2.29642 140.69 2.09308 137.912 2.08372 137.66C2.04998 136.896 2.08812 136.5 2.05859 135.684C2.0323 134.946 1.99475 135.049 1.99098 134.912C1.89417 130.919 2.17389 132.424 1.85309 130.569C1.88414 130.37 1.91528 130.172 1.94651 129.973C1.90955 129.711 1.87287 129.449 1.83649 129.186C1.8118 128.009 1.79195 126.828 1.77702 125.642C1.73799 126.038 1.69941 126.434 1.66127 126.83C1.61074 125.052 1.69416 124.23 1.69378 124.06C1.69369 123.577 1.63548 123.357 1.63401 123.207C1.61341 120.519 1.62765 119.432 1.64715 118.951C1.68292 118.145 1.7465 119.02 1.88732 116.76C1.81368 115.474 1.7231 116.774 1.6389 116.956C1.68906 115.247 1.67111 114.714 1.70137 112.922C1.70972 112.45 1.76291 111.944 1.76889 111.647C1.77391 111.389 1.74211 110.585 1.75577 109.97C1.77815 108.94 1.84022 107.596 1.88374 106.182C1.91719 104.996 2.01295 101.464 2.1402 98.9453C2.19308 97.8808 2.21966 98.1304 2.23368 97.8559C2.23947 97.7417 2.23687 96.9123 2.27485 96.2347C2.58565 90.6583 3.05016 85.0045 3.61406 79.4223C4.01055 75.493 4.44775 71.4994 4.98659 67.6096C5.10357 66.7687 5.07325 67.2183 5.12539 66.8519C5.14363 66.727 5.10878 66.5643 5.31669 65.2804C5.39216 64.8174 5.35214 65.3565 5.42064 64.9008C5.45442 64.68 5.41911 64.5752 5.60317 63.2873C5.94596 60.9113 6.2244 59.6566 6.25573 59.4489C6.31775 59.0544 6.25982 59.1627 6.34619 58.6421C6.77834 56.0529 7.15666 53.9613 7.60959 51.6434C7.78836 50.5624 9.37656 43.2924 9.51819 42.8655C9.74953 41.97 9.62304 42.8219 9.90024 41.6755C9.9597 41.3509 10.0197 41.0276 10.0803 40.7058C9.93909 41.2058 9.79902 41.7097 9.66008 42.2176C10.0248 40.8192 10.3939 39.2389 10.6762 38.1882C10.7282 37.9877 11.2304 36.2684 11.4857 35.3676C11.3878 35.7643 11.2993 36.1334 11.2088 36.5143C11.2575 36.3848 11.3063 36.2555 11.3552 36.1266C11.8458 34.302 12.387 32.4834 12.9836 30.6271C13.1958 29.9703 13.1522 30.2002 13.3687 29.5424C14.673 25.715 14.2037 26.6546 15.8213 23.07C15.28 24.3026 13.7068 28.8364 13.5119 29.4738C13.3545 29.9226 12.5922 31.6799 12.9947 31.0742C11.8483 34.7912 12.7231 31.5076 11.7166 35.0126C11.7606 34.9488 11.8046 34.8852 11.8486 34.8216C11.5034 36.0773 11.2823 36.9358 11.0375 37.6743C11.0755 37.9623 9.93244 42.0791 9.41566 44.4153C8.66467 47.7045 7.91462 51.5195 7.31628 54.8246C7.10943 55.9635 6.94663 56.6106 6.92112 56.7549C6.88414 56.9663 6.82312 57.5695 6.75078 57.9954C6.47884 59.5242 5.65431 64.3276 5.6178 65.5194C6.96646 56.1814 8.72202 46.8803 11.1774 37.7212C10.7625 38.8512 13.4268 29.6514 13.6565 29.2172C13.7991 28.7968 13.7179 29.1635 13.7618 29.0391C14.0811 28.1328 14.3231 27.2717 14.4265 26.9796C14.5073 26.7515 14.6944 26.2974 14.9851 25.5044C15.0385 25.3591 15.0275 25.3093 15.0851 25.1539C15.4702 24.117 15.8849 23.0515 16.299 22.0382C16.3247 21.976 16.4666 21.735 16.573 21.4797C16.6849 21.2105 16.7596 20.9321 16.788 20.865C17.1483 20.0106 17.7719 18.6791 18.1534 17.8784C18.2821 17.6065 18.1665 17.782 18.3115 17.4792C18.7586 16.5589 18.6606 16.8782 19.206 15.7715C19.3898 15.4059 19.346 15.3898 19.7359 14.673C20.0142 14.1671 20.0519 14.2613 20.0979 14.1826C20.1534 14.0733 21.0774 12.3375 21.4774 11.8093C20.8449 13.0761 22.2977 10.514 22.1826 10.6226C22.6434 9.95464 23.1089 9.32145 23.5786 8.72402C23.7177 8.51732 23.8865 8.27686 24.0431 8.05819C26.092 5.67305 27.4432 4.22121 30.1748 2.69697C30.2964 2.55157 32.7465 1.6567 32.6567 1.76998C31.133 2.19447 29.7823 2.96751 28.9184 3.48032C27.6564 4.53696 27.5083 4.45515 25.6673 6.34261C25.0381 7.02706 25.0613 7.06895 24.9867 7.15088C22.6665 9.72081 19.9256 14.5801 18.8434 16.643C18.5772 17.2289 19.6276 15.171 19.2394 15.979C18.8339 16.3266 14.339 27.4718 15.6774 23.8664C15.5365 24.2397 15.3895 24.6361 15.2576 24.9985C15.2196 25.3923 14.5308 27.2432 14.5058 26.9998C14.4637 27.1853 14.4218 27.3714 14.3802 27.5583C14.2748 27.9187 14.137 28.3502 13.953 28.9187C13.0578 31.1268 9.46106 44.6257 9.42294 45.3965C9.44529 45.4187 9.46764 45.4409 9.49 45.4631C10.89 39.4325 12.3442 33.6504 14.6408 27.2656C14.553 27.4442 14.4653 27.6238 14.3778 27.8043C15.2951 25.2502 16.2698 22.7815 17.3776 20.3064C16.2651 22.9271 14.7258 27.1988 13.7902 30.0158C13.6206 30.5184 13.7085 30.1382 13.6671 30.2529C13.5593 30.5547 13.508 30.894 13.1679 32.0111C12.8386 33.0697 11.9926 35.8557 11.9283 36.1112C11.7957 36.5907 11.5032 37.9205 11.2822 38.7662C10.9915 39.8775 11.1447 39.1219 11.0858 39.3449C10.8376 40.2884 10.6643 41.0704 10.484 41.7945C10.2161 42.8561 9.62222 45.0843 9.56984 45.8418C9.74573 45.0771 9.91889 44.3422 10.1083 43.5575C9.18608 47.6874 8.37343 50.9461 7.72975 55.0796C7.69504 56.036 8.29445 52.6452 7.8304 55.5209C7.9223 54.9981 8.01533 54.4782 8.1095 53.9612C8.10383 53.8348 8.09826 53.7085 8.09278 53.5824C8.28171 52.6867 8.47911 51.7733 8.67723 50.883C8.60137 51.134 8.52573 51.3857 8.45031 51.6383C9.04588 48.4744 9.74959 45.2275 10.1313 44.1856C10.115 44.1121 10.0988 44.0386 10.0826 43.9651C10.7929 41.0107 11.8366 36.6222 11.7911 37.4839C11.819 37.3445 11.847 37.2055 11.8751 37.0667C12.386 35.3468 12.1144 36.0623 12.2928 35.3963C12.3401 35.1872 13.3789 31.8279 12.9839 33.3346C14.0183 30.0677 13.5744 31.0081 13.8513 30.1058C14.5749 28.07 15.8551 24.256 15.3973 25.8721C15.513 25.5683 15.6293 25.2671 15.746 24.9684C16.0415 23.898 16.5356 22.9406 17.0039 21.8992C17.152 21.5451 17.3169 21.1573 17.4747 20.7935C17.5499 20.534 17.6257 20.2763 17.7021 20.0205C19.3588 16.7223 18.5338 17.5662 19.5847 16.2281C19.4864 16.4686 19.3887 16.7115 19.2916 16.9568C19.0252 17.5203 18.7614 18.0977 18.5003 18.6888C19.5939 16.3438 20.7341 14.1682 22.0944 11.9995C23.909 9.37172 24.8413 7.81398 27.4581 5.45588C27.7019 5.22501 27.9467 5.00473 28.1926 4.79515C27.9845 5.07526 27.0081 5.82212 28.8385 4.42438C29.026 4.34192 27.8019 5.28634 27.2399 5.78189C27.0973 5.89863 28.1682 4.8533 26.9493 5.98354C26.1637 6.79428 27.5909 5.30343 25.2849 7.82667C25.3764 7.73946 25.4678 7.65355 25.5593 7.56894C25.3211 7.84216 25.0838 8.12544 24.8474 8.41868C24.6163 8.6558 24.3683 8.92405 24.1545 9.15569C23.7053 9.84036 23.4204 10.3003 22.3773 11.9097C22.6417 11.4594 22.205 12.0092 21.698 12.8602C21.7177 12.872 21.7374 12.8838 21.7571 12.8956C20.5866 14.9435 20.9478 14.1711 20.0569 15.9686C19.9523 16.1316 19.8499 16.292 19.7466 16.456C19.3141 17.4144 17.754 21.0419 17.9467 20.3396C17.5901 21.4224 16.6946 23.5137 16.298 24.3149C16.2959 24.3863 16.2939 24.4579 16.292 24.5295C16.1277 24.9759 15.9758 25.3984 15.8248 25.8262C15.7244 26.0593 15.6244 26.294 15.5246 26.5303C15.4285 26.8415 15.333 27.1552 15.2382 27.4712C15.1502 27.6512 15.0624 27.8322 14.9747 28.0142C14.8249 28.5392 14.6926 29.0238 14.5566 29.5288C14.4391 29.8247 14.3219 30.1229 14.2052 30.4233C14.2344 30.4708 13.3006 33.5181 13.0315 34.3608C12.9714 34.6202 12.9117 34.8808 12.8525 35.1426C12.7933 35.2618 12.7342 35.3814 12.6751 35.5014C12.6392 35.6995 12.6035 35.8983 12.5681 36.0976C12.4298 36.5218 12.2923 36.9495 12.1557 37.3806C11.7923 39.1971 11.6801 39.2425 11.5729 39.6561C11.3707 40.4293 10.8204 43.0113 10.7146 43.4646C10.608 43.9026 10.5155 44.1094 10.4304 44.4619C9.07905 50.2131 9.72966 47.906 9.49747 49.0615C9.37915 49.6852 9.24905 50.12 9.14241 50.6773C8.94449 51.6376 8.11209 56.4679 8.06779 56.7553C7.98932 57.1627 7.96071 56.1648 7.78139 57.5044C7.87247 57.5834 7.30453 60.3569 7.66729 59.0742C7.46431 60.2245 7.26658 61.3877 7.07422 62.5635C7.21961 62.4579 6.92004 63.8688 6.70537 65.4335C6.3836 67.6784 5.85416 72.6693 5.74711 72.4866C5.71338 73.0299 5.68161 73.5692 5.65224 74.0999C5.19491 77.7372 4.8889 81.3348 4.58966 84.9813C3.69626 95.7695 3.22311 107.524 3.2107 118.322C3.20998 118.729 3.18028 118.772 3.16712 118.951C3.16347 119.001 3.16112 119.062 3.1611 119.143C3.15369 121.122 3.25067 126.205 3.31952 128.957C3.33905 129.835 3.30358 130.262 3.30947 130.539C3.33006 131.482 3.38773 131.263 3.39987 131.699C3.41581 132.398 3.49442 136.026 3.55056 137.278C3.57622 137.902 3.66343 138.637 3.68498 139.364C3.6869 139.426 3.62779 139.313 3.62958 139.366C3.6921 140.69 3.69664 139.892 3.71795 140.339C3.87148 143.512 4.09375 146.925 4.3608 150.395C4.4264 151.256 4.49852 152.567 4.55954 153.297C4.58309 153.577 4.57917 153.068 4.66258 154.039C4.69168 154.375 4.64818 154.494 4.67943 154.872C4.81573 156.498 5.04346 157.019 5.04346 158.412C5.32025 161.099 5.91183 165.74 6.2429 168.175C6.31903 168.747 6.32391 169.03 6.39856 169.572C6.45156 169.957 6.59895 170.648 6.68636 171.256C6.77386 171.865 6.86409 172.832 7.04115 173.986C7.22465 175.19 7.50424 176.745 7.54837 177.013C7.60273 177.347 7.56676 177.512 7.62248 177.844C7.78499 178.834 8.31836 181.541 8.56671 182.823C8.8288 184.196 8.96326 185.038 9.05784 185.518C9.14547 185.96 9.30046 186.462 9.34136 186.662C9.40502 186.973 9.35859 187.059 9.43961 187.452C9.57387 188.101 9.74293 188.721 9.95736 189.713C14.1384 206.355 17.8681 226.289 32.112 234.68C33.198 235.063 33.9821 235.191 35.1083 235.196C35.6855 235.19 36.3624 235.132 37.1805 234.932C38.1608 234.659 37.7888 234.848 38.5211 234.551C38.8484 234.403 38.742 234.392 39.1553 234.188C40.9679 233.307 42.836 231.605 43.4507 230.945C43.7051 230.679 43.9631 230.311 44.4361 229.756C48.1171 225.421 51.1267 219.182 53.3484 213.313C54.536 210.228 56.0627 205.417 57.0776 201.704C59.9111 191.528 61.9603 180.288 63.2553 170.693C65.2144 156.203 66.1243 141.664 66.4628 127.079C66.1758 133.899 65.7963 143.19 65.1799 150.761C63.3358 172.551 60.2443 196.06 51.786 216.731C48.8279 223.5 43.8298 233.588 36.2022 234.899C35.9733 234.931 35.5757 234.999 35.1083 235.012C34.9056 235.018 34.6911 235.015 34.4747 234.996C34.3147 235.032 32.4688 234.584 31.8854 234.282C32.3898 234.693 30.1028 233.513 29.4444 232.948C28.6194 232.394 26.8182 230.964 25.2812 228.948C23.8836 227.086 24.3542 227.548 24.2714 227.447C23.8163 226.767 23.5498 226.539 23.2106 226.04C21.447 224.115 15.9719 211.56 15.0104 207.858C14.7034 206.925 14.7519 206.875 14.6832 206.663C14.5015 206.096 14.1897 205.301 13.9215 204.415C13.4292 202.796 12.9442 200.866 12.7039 199.978C12.0995 197.799 11.0063 193.666 10.3892 190.839C10.211 190.033 10.2803 190.069 10.2004 189.702C9.845 188.111 8.93637 183.918 8.58476 181.936C7.98628 178.656 7.47833 175.298 6.97864 171.994C6.9732 171.779 6.96791 171.564 6.96278 171.349C6.88832 171.018 6.81432 170.687 6.7408 170.354C5.97348 164.731 5.27218 158.981 4.77633 153.329C4.71632 152.69 4.49836 149.469 4.46038 148.923C4.42588 148.472 4.33241 148.037 4.29368 147.38C4.24005 146.456 4.41527 147.318 4.27748 145.809C4.24098 145.402 4.21844 145.801 4.14857 144.983C4.11635 144.706 3.78907 139.463 3.7865 139.178C3.76797 138.706 3.85071 138.28 3.84695 138.158C3.82777 137.523 3.75003 137.553 3.72295 137.127C3.64278 135.878 3.63137 134.251 3.62266 134.046C3.50657 131.575 3.32051 126.999 3.32335 124.403C3.32306 124.048 3.38123 124.09 3.38217 124.027C3.38823 123.624 3.31959 123.374 3.31345 122.991C3.29585 121.87 3.29478 120.401 3.30406 118.951C3.31162 117.728 3.32624 116.529 3.3365 115.576C3.33893 115.337 3.31121 114.831 3.31778 114.404C3.35791 111.996 3.40185 112.773 3.40468 112.637C3.41398 112.31 3.36686 111.732 3.37794 110.862C3.40091 108.63 3.52442 104.331 3.62512 101.949C3.69813 100.166 3.76136 100.18 3.76678 100.066C3.77993 99.813 3.76118 99.1075 3.81261 97.9272C3.91428 95.6576 3.95106 95.9307 3.99982 94.9916C4.00445 94.9128 3.94975 95.0463 4.00525 94.0049C4.10681 91.9974 4.46237 87.5084 4.63999 85.3777C4.70622 84.5573 4.67778 84.3756 4.75039 83.5218C4.86196 82.171 5.19503 79.1798 5.2204 78.9488C5.22706 78.8821 5.19212 78.7335 5.23228 78.3368C5.27625 77.9027 5.34546 77.4798 5.379 77.158C5.56608 75.3214 5.84729 72.2013 5.91887 73.0865C5.94522 72.4917 5.9731 71.8991 6.00248 71.3089C6.47678 67.5157 6.97827 63.8218 7.57893 60.0402C7.71357 59.1941 7.85789 58.519 7.97927 57.7939C8.09613 57.0636 8.6048 53.9269 8.70435 53.4187C8.86814 52.4471 9.93235 47.1886 10.0988 46.5215C10.3848 45.2447 10.7314 44.0414 10.8444 43.5028C10.9329 43.0807 10.8045 43.4586 10.9837 42.6585C11.2892 41.2812 11.9281 38.9763 12.0423 38.5505C12.0897 38.3743 11.9705 38.6899 12.4147 37.0371C12.6531 36.1581 12.8234 35.6744 12.9161 35.3464C12.9458 35.2477 12.8488 35.371 13.3721 33.6131C13.7339 32.4112 13.9343 31.9093 13.9752 31.7758C14.0357 31.5823 14.1409 31.1002 14.388 30.337C14.9483 28.5748 16.126 25.371 16.8002 23.6844C16.9267 23.3667 16.8355 23.4447 17.3458 22.1978C17.7168 21.3038 17.6974 21.4598 17.8409 21.1221C18.075 20.5775 18.3665 19.7722 18.9013 18.6192C19.2898 16.9993 25.6877 6.88351 26.478 6.80975C26.7677 6.51682 27.0985 6.19428 27.2536 6.07563C27.1459 6.20482 27.0387 6.33634 26.932 6.47022C25.6389 7.70968 26.1921 7.26885 25.8852 7.60794C25.4311 8.08643 23.8323 10.1623 23.5055 10.7172C23.3851 10.9092 23.6988 10.5043 23.0472 11.5306C22.3773 12.6098 22.0115 13.0986 21.8303 13.612C20.829 15.114 20.0969 16.8282 21.1472 14.9103C21.4343 14.4117 22.9903 11.5196 25.07 8.91401C27.1074 6.23614 29.8716 4.22685 30.8639 3.79238C31.8626 3.25785 33.4702 2.65499 35.1083 2.6605C36.0909 2.64967 37.0516 2.83613 37.8275 3.09522C39.0943 3.37551 41.7909 5.2899 41.6158 5.28536C42.5463 6.05718 41.5894 5.20288 41.7899 5.35955C42.2583 5.60344 44.8702 8.36355 45.2756 8.99156C47.5378 11.7922 49.8237 15.8241 51.2504 19.081C51.1688 18.9358 51.087 18.7916 51.0051 18.6485C50.6695 17.9279 48.9842 14.62 48.7037 14.3136C51.3652 19.0114 53.4068 24.0701 55.1706 29.2445C55.2199 29.1129 57.246 35.5849 57.2794 35.9188C57.223 35.8097 57.1666 35.7009 57.11 35.5924C56.1146 31.8946 56.0869 32.2766 55.3443 29.7952C55.0128 28.807 55.0763 29.1262 54.9007 28.6379C53.1039 23.8408 54.9807 28.5269 53.5738 24.8542C53.9403 25.9753 52.7732 22.9832 52.1932 21.679C52.0832 21.3565 50.3226 17.4848 50.0583 17.0357C48.8085 14.4794 46.2515 10.3514 44.4323 8.27358C43.0135 6.64814 42.1207 5.86647 40.5832 4.79384C39.4066 4.04173 39.7372 4.23661 39.1686 3.92757C37.93 3.33228 37.4841 3.34018 36.6874 3.02289C36.1625 2.93261 35.6357 2.89336 35.1083 2.9063C34.7463 2.91517 34.3874 2.94849 34.0299 3.00584C34.027 2.98416 34.0241 2.96247 34.0211 2.94078C33.46 3.01983 32.9232 3.15156 32.3727 3.34197C32.2154 3.4198 32.0731 3.49718 31.9266 3.58034C30.2513 4.30868 30.9151 3.98181 30.5825 4.07258C30.2363 4.26401 29.8891 4.47825 29.5412 4.71551C29.2942 4.94672 29.0809 5.16752 28.863 5.40257C27.3862 6.57925 26.1482 7.9375 24.945 9.50658C24.8544 9.58844 24.7638 9.67151 24.673 9.75574C24.6887 9.77246 24.7045 9.7892 24.7202 9.80591C22.781 12.4324 21.1629 15.3826 19.7556 18.3794C19.3833 19.1787 21.7973 14.3992 22.0341 14.112C23.0555 12.0677 26.5892 7.42747 26.7267 7.57887C27.5275 6.45542 30.6577 4.01456 31.8097 3.77221C30.1886 4.46269 28.7065 5.59383 27.3728 6.92395C27.4344 6.89999 27.4959 6.87652 27.5572 6.85358C25.8268 8.4873 25.6008 8.80498 24.2587 10.8466C24.2277 10.8276 24.1966 10.8087 24.1655 10.7897C23.2489 12.2811 21.5395 14.8794 21.6475 15.0366C21.1862 15.8561 20.7364 16.705 20.3201 17.5298C19.5034 19.4053 20.758 16.4882 17.6696 23.8745C17.4661 24.3919 17.4686 24.2654 17.1725 25.0597C17.0796 25.3201 16.6664 26.5462 15.8075 29.0925C15.6793 29.4755 15.6351 29.4929 15.4994 29.8934C15.1842 30.8119 14.6655 32.7495 14.8201 31.8462C13.6564 35.5741 14.2273 34.0523 13.9227 35.2342C13.7258 36.027 13.6998 35.8584 13.5286 36.5387C13.3256 37.3783 13.5462 36.744 12.6429 40.1371C12.7351 39.7512 12.828 39.3676 12.9216 38.9865C12.8532 39.1726 12.785 39.3594 12.7169 39.5468C12.2692 41.5081 12.2619 41.2763 12.1473 42.2169C11.7643 43.6073 11.4728 44.845 11.0672 46.7596C10.2863 50.5584 10.8032 48.5976 9.80486 52.8965C9.69317 53.616 9.59153 54.3001 9.48964 55.0015C9.23826 56.1391 9.34015 55.1952 9.02913 56.9174C9.37981 55.5833 8.71301 59.2343 8.73269 59.8469C8.69679 59.9067 8.66089 59.9666 8.62499 60.0265C8.56395 60.4097 8.5035 60.7942 8.44365 61.1801C8.46413 61.1846 8.48461 61.1891 8.50509 61.1936C8.41 61.705 8.3159 62.2189 8.2228 62.7354C8.18466 63.1313 8.14889 63.5176 8.11416 63.9023C7.97935 64.5247 7.84585 65.1508 7.7137 65.7805C7.65524 66.1794 7.5974 66.5797 7.54017 66.9812C7.58863 66.8584 7.63712 66.7357 7.68564 66.6132C7.60512 67.1271 7.52559 67.6434 7.44706 68.1618C7.57916 67.5614 7.58386 67.9642 7.38204 69.5442C7.21784 70.8608 7.28834 69.3538 6.99176 72.2094C6.97397 72.4046 6.99836 72.7889 6.72089 75.4549C6.39589 78.6835 6.50554 77.1128 6.44342 77.6884C6.4317 77.8 6.3705 78.8072 6.29036 79.7174C6.24419 80.2383 6.16573 80.739 6.15948 80.8081C6.13139 81.1312 6.16839 81.2297 6.12993 81.6783C6.03195 82.8152 5.87937 84.3657 5.7958 85.4657C5.75706 85.9706 5.74826 86.4495 5.73159 86.6758C5.70547 87.0268 5.63062 87.4697 5.60505 87.8263C5.50859 89.1502 5.52078 91.1441 5.28888 91.7387C5.38845 93.006 5.02701 95.6592 5.15987 95.4704C4.90759 98.8177 4.79586 107.865 4.60992 107.59C4.74962 109.501 4.62536 109.329 4.61422 110.131C4.60351 111.029 4.64545 110.564 4.63416 111.279C4.60875 112.958 4.58258 114.53 4.57949 116.19C4.55052 115.93 4.52183 115.67 4.49344 115.409C4.48029 117.149 4.54838 116.549 4.56595 118.331C4.56847 118.559 4.5707 118.766 4.57259 118.951C4.60113 121.427 4.54204 120.262 4.47301 120.712C4.54287 120.586 4.58209 124.431 4.58409 124.816C4.58329 125.051 4.46288 124.022 4.54452 126.39C4.57166 126.26 4.59883 126.13 4.62604 126C4.60541 127.082 4.74044 129.991 4.74876 130.48C4.75126 130.699 4.54667 131.936 4.78418 133.042C4.75894 133.178 4.73374 133.313 4.70858 133.448C4.79415 134.685 4.88494 135.904 4.98227 137.139C4.93668 137.339 4.89117 137.54 4.84574 137.74C4.86544 138.134 4.88569 138.527 4.9065 138.919C4.94194 138.657 4.97755 138.394 5.01333 138.131C5.11282 140.56 5.3791 143.482 5.24656 144.002C5.31198 144.52 5.37846 145.036 5.44599 145.55C5.41371 145.89 5.38174 146.23 5.35008 146.569C5.53989 148.939 5.58575 149.003 5.78025 150.631C5.73082 150.571 5.68143 150.51 5.63207 150.45C5.79351 151.658 6.04353 153.825 6.22408 155.582C6.30784 156.411 6.39157 157.829 6.41777 158.021C6.44198 158.212 6.89357 160.124 6.70894 160.36C7.12353 163.212 7.18565 164.433 7.33578 165.609C7.43361 166.361 7.52892 166.697 7.64661 167.539C7.81509 168.743 7.9601 169.949 8.06586 170.658C8.12588 171.059 8.18682 171.126 8.22872 171.401C8.42868 172.699 8.26368 171.948 8.47365 173.309C8.49411 173.439 8.70396 174.402 8.88094 175.548C8.97772 176.185 9.17989 177.819 9.20498 177.959C9.3161 178.595 9.35841 178.045 9.58442 180.254C9.59944 180.186 9.61448 180.118 9.62953 180.05C10.1826 182.741 10.1525 183.16 10.2455 183.699C10.2574 183.766 10.4289 184.405 10.5012 184.803C10.6219 185.469 10.6133 185.746 10.64 185.893C10.7347 186.417 11.1123 188.104 11.2999 189.25C11.4241 188.996 12.3642 192.876 12.3834 193.801C12.592 194.492 12.803 195.175 13.0161 195.851C13.0608 196.169 13.106 196.486 13.1516 196.801C13.2333 196.981 13.314 197.154 13.3974 197.337C13.5902 198.376 13.7877 199.4 13.99 200.406C14.0814 200.449 14.1727 200.491 14.2642 200.534C14.3335 200.812 14.4015 201.083 14.4733 201.365C14.4782 201.603 14.4833 201.841 14.4887 202.077C14.6023 202.426 14.7166 202.772 14.8315 203.116C14.8996 203.19 14.9677 203.263 15.0359 203.336C15.6528 205.161 14.9283 204.354 16.4415 207.75C16.5895 208.299 16.7378 208.839 16.9006 209.408C17.2807 209.973 17.5954 211.148 17.953 212.03C18.2138 212.673 18.266 212.622 18.613 213.495C18.9619 214.362 18.8895 214.35 18.9161 214.418C19.1949 215.108 19.4756 215.62 19.6903 216.143C19.7227 216.221 19.7346 216.451 20.0183 217.097C20.3055 217.745 20.5424 218.068 20.9969 219.049C21.2268 219.541 21.2359 219.709 21.4427 220.133C22.4331 222.172 23.8792 223.964 24.4409 225.529C24.6866 225.844 26.3914 227.915 27.1338 228.73C28.2596 230.005 27.781 229.579 28.2373 230.069C28.3094 230.131 28.6658 230.505 29.7359 231.365C29.9237 231.512 29.9076 231.441 29.9349 231.461C31.1716 232.502 33.6793 233.607 35.1083 233.486C35.1153 233.486 35.1223 233.486 35.1292 233.485C35.264 233.474 35.8977 233.392 37.0599 233.226C38.695 232.753 41.9572 230.571 43.5928 228.066C43.8446 227.746 44.1887 227.369 44.2865 227.233C45.1617 225.962 44.7858 226.42 46.8294 223.423C46.6213 223.632 46.9816 222.901 47.5558 221.839C48.4162 220.216 47.9468 221.424 48.5846 220.132C48.5498 220.114 48.515 220.097 48.4803 220.079C50.0504 217.055 50.1588 216.347 51.398 213.197C51.8573 212.012 52.534 210.367 52.6345 210.074C52.6727 209.97 53.0288 208.633 53.0671 208.509C53.2903 207.83 53.4585 207.455 53.6507 206.855C54.302 204.833 54.85 202.443 54.9481 202.929C55.0615 202.362 55.1732 201.788 55.2829 201.208C56.0869 199.214 56.1628 197.509 56.506 197.121C56.5511 196.737 56.5953 196.352 56.6387 195.964C58.8708 186.86 60.473 177.59 61.6835 168.256C61.6554 167.893 62.1719 163.776 62.199 163.588C62.3608 162.639 62.4272 163.673 62.5978 161.709C62.5439 161.483 62.4897 161.257 62.4352 161.031C62.6631 158.55 62.6183 159.743 62.7672 158.775C62.7967 158.37 62.7242 158.495 62.7719 157.947C63.0428 154.968 63.5205 148.788 63.6997 145.53C63.7384 144.868 63.7896 144.971 63.8019 144.765C63.8346 144.202 63.8263 143.066 63.8837 141.938C64.2427 135.262 64.4941 125.942 64.5008 118.951C64.502 118.589 64.5028 118.234 64.5033 117.885C64.504 117.404 64.5747 117.344 64.5753 117.02C64.5761 116.57 64.5066 115.567 64.5057 115.094C64.5049 114.649 64.5549 114.363 64.5533 113.886C64.5481 111.705 64.3813 108.778 64.4609 106.441C64.4694 106.245 64.6685 103.792 64.6839 103.736C64.7835 103.407 65.0548 105.574 65.0701 101.998C65.3477 105.183 65.576 104.179 65.5087 100.022C65.6424 102.102 65.7597 104.184 65.8609 106.266C65.8913 106.268 65.9218 106.27 65.9522 106.272C66.0391 104.371 66.0207 102.485 65.8945 99.6009C65.9272 99.6895 65.9599 99.7782 65.9926 99.8669C66.259 102.408 66.3982 105.484 66.6446 107.422C66.7029 104.568 66.7333 101.711 66.7347 98.8534C66.7641 98.9947 66.7935 99.1363 66.8228 99.2775C66.9502 100.642 67.1066 103.627 67.1971 104.762C67.5491 109.097 67.2156 100.958 67.3834 102.29C67.5642 106.874 67.6677 111.462 67.697 116.05C67.8735 116.211 67.6374 98.5532 67.8402 98.72C67.9288 100.162 68.0096 101.604 68.0826 103.046C68.1292 102.401 68.1743 101.754 68.2182 101.108C68.2481 101.284 68.2779 101.46 68.3076 101.637C68.4618 104.071 68.5936 106.507 68.7035 108.944C68.4694 101.531 68.293 98.0916 68.769 96.2842C68.7939 96.4844 68.8187 96.6847 68.8434 96.8853C68.5903 98.5107 69.0174 106.087 69.1433 110.12C69.2328 109.296 69.0639 105.746 69.0973 104.994C69.1082 104.78 69.202 105.52 69.2229 105.026C69.2873 103.735 69.1781 98.2391 69.325 99.0315C69.4461 99.5401 69.8487 108.379 69.8459 110.106C69.9044 106.058 69.8065 101.889 69.7751 97.8246C70.1211 100.374 70.5016 102.633 70.6305 107.316C70.803 108.742 70.6541 98.8194 70.68 98.5853C70.8265 100.298 70.9617 102.013 71.0856 103.728C71.0209 102.275 70.9485 100.824 70.8681 99.372C70.8913 99.3667 70.9144 99.3613 70.9375 99.356C71.2037 103.114 71.5041 106.553 71.5541 110.866C71.6752 110.724 71.6208 108.144 71.59 106.892ZM45.369 9.63367C45.3862 9.72446 44.4683 8.53502 43.912 7.93082C43.9877 8.02778 44.0633 8.12593 44.1387 8.22527C43.0183 6.80376 40.5159 4.80784 40.3323 4.87248C39.3319 4.25217 39.8014 4.46438 39.4768 4.2636C39.3513 4.1791 37.9654 3.507 36.8211 3.23544C36.5455 3.17704 36.271 3.13332 35.9952 3.1039C35.9382 3.1283 35.8819 3.15334 35.8262 3.17898C35.5894 3.13531 35.3503 3.10239 35.1083 3.08057C34.964 3.06757 34.8194 3.05852 34.6742 3.05345C34.8186 3.04449 34.9633 3.03948 35.1083 3.03847C39.0799 2.98505 42.6824 6.12121 45.3648 9.62816C45.3662 9.63 45.3676 9.63184 45.369 9.63367ZM16.2771 27.4132C15.6606 29.0991 14.8507 31.5787 15.0964 31.1088C15.4287 30.04 15.749 29.0478 16.1157 27.9659C16.1693 27.7809 16.2231 27.5966 16.2771 27.4132ZM13.816 200.245C14.069 201.638 14.5689 202.981 15.1996 205.083C15.2254 205.072 15.2513 205.061 15.2771 205.05C14.9465 204.234 14.2713 201.828 13.816 200.245ZM60.7303 49.809C60.7915 50.1277 60.8539 50.4553 60.9127 50.7686C60.569 49.4894 60.5729 49.2393 60.2512 47.7962C60.2317 47.7093 60.2208 47.7433 60.214 47.713C60.1352 47.3597 60.0815 47.0183 60.009 46.6966C59.8681 46.0737 59.7336 45.5763 59.4782 44.4867C59.2768 43.6321 59.3081 43.6185 59.2355 43.3205C59.1774 43.0712 58.4626 40.5741 58.075 38.9803C57.3978 35.8856 60.6464 48.8427 60.7303 49.809ZM62.4163 59.0309C62.363 58.7214 62.3092 58.4129 62.2551 58.1053C62.4653 59.0172 62.1396 57.1716 61.8818 55.7844C61.9428 55.8268 62.4399 58.712 62.67 60.0295C62.586 59.6954 62.5014 59.3626 62.4163 59.0309ZM52.1495 21.0132C52.6363 22.1317 52.4908 21.979 52.4523 21.9372C52.3001 21.5752 52.147 21.2178 51.9931 20.865C52.0453 20.9142 52.0974 20.9636 52.1495 21.0132ZM55.4247 29.5596C55.269 29.2215 54.3837 26.7295 53.9277 25.5515C53.9082 25.501 54.0543 25.8116 53.7382 24.986C53.6552 24.7455 52.5901 22.3386 52.9031 22.8376C53.8201 25.0549 54.6484 27.2845 55.4235 29.5562C55.4239 29.5573 55.4243 29.5585 55.4247 29.5596ZM56.225 32.1115C56.0617 31.6396 55.9003 31.1821 55.7286 30.7015C55.6684 30.4476 55.6078 30.1949 55.5469 29.9435C55.7298 30.4767 55.9177 31.0379 56.0906 31.563C56.1356 31.7452 56.1803 31.928 56.225 32.1115ZM63.4816 163.041C63.4188 163.15 63.3561 163.259 63.2933 163.368C63.2162 163.799 63.1758 166.015 63.2991 165.327C63.3642 164.552 63.4238 163.8 63.4816 163.041ZM64.488 153.839C64.5522 153.386 64.6148 152.941 64.6771 152.491C64.6329 151.964 64.5874 151.436 64.5407 150.907C64.3118 153.161 64.0289 155.573 64.3167 155.207C64.2706 155.728 64.2235 156.248 64.1754 156.765C64.1109 156.318 64.0726 156.377 63.8785 157.721C63.9956 158.03 63.7886 159.417 63.6501 161.037C63.7818 159.865 63.9076 158.692 64.0259 157.536C64.0515 157.539 64.0771 157.541 64.1027 157.544C63.8424 160.128 64.3218 156.939 64.368 155.219C64.4142 155.088 64.4602 154.956 64.5063 154.825C64.5006 154.497 64.4946 154.168 64.488 153.839ZM4.78863 148.926C4.79495 149.254 4.80161 149.581 4.80863 149.907C5.15773 151.155 4.71127 148.578 4.77904 146.771C4.67318 147.382 4.4859 144.612 4.46795 144.451C4.43952 144.774 4.41137 145.097 4.3835 145.42C4.51329 146.596 4.64663 147.742 4.78863 148.926ZM5.44103 158.115C5.44443 156.972 6.03559 162.506 6.24137 164.319C6.2883 164.765 6.31956 165.584 6.36926 165.906C6.41972 166.1 6.47034 166.293 6.52114 166.486C6.4592 166.739 7.03244 170.287 7.29526 171.712C7.2821 171.85 7.26898 171.988 7.25592 172.126C7.3443 172.638 7.43375 173.149 7.52425 173.657C7.48199 173.598 7.43976 173.539 7.39755 173.479C7.49507 173.86 7.59323 174.239 7.69205 174.617C7.97694 176.149 7.64982 175.23 7.88974 176.374C8.1586 177.641 7.92511 175.531 8.0012 175.557C7.81257 174.501 7.42432 172.202 7.27136 171.134C7.18604 170.532 7.39539 171.18 6.90005 168.61C6.85611 168.039 6.81333 167.465 6.77172 166.889C6.58419 165.852 6.39754 164.775 6.2226 163.75C6.24425 163.55 6.266 163.351 6.28785 163.151C6.27976 163.042 5.90102 160.621 5.88357 160.752C5.85781 159.74 5.65767 157.739 5.45727 155.597C5.4134 155.393 5.36972 155.189 5.32621 154.984C5.57605 157.052 5.36358 155.646 5.37682 156.268C5.3845 156.627 5.44044 157.716 5.44103 158.115ZM61.6865 177.353C62.0803 173.892 61.8804 176.02 62.4165 172.326C62.3048 172.574 62.1929 172.822 62.0809 173.069C61.9656 174.88 61.3904 177.919 61.6859 177.357C61.6861 177.355 61.6863 177.354 61.6865 177.353ZM65.1269 140.75C65.0731 142.732 65.2522 141.735 65.1466 144.271C65.1465 144.272 65.1465 144.273 65.1464 144.275C65.2326 142.963 65.3113 141.666 65.3837 140.368C65.2981 140.495 65.2125 140.623 65.1269 140.75ZM26.8927 230.038C25.7463 228.713 25.909 228.973 25.0035 227.627C23.469 225.707 24.6954 227.393 24.6053 227.457C24.9609 227.889 25.3176 228.302 25.7067 228.729C26.4891 229.839 25.6282 228.889 25.6196 228.891C25.6203 228.892 25.621 228.892 25.6218 228.893C25.5954 228.914 25.5613 228.889 25.8793 229.301C26.2193 229.564 26.5367 229.787 26.8927 230.038ZM22.2321 223.792C22.6251 224.309 22.8222 224.48 22.0555 223.047C22.0549 223.046 22.0544 223.045 22.0538 223.044C21.8482 223.028 21.1667 221.501 20.8443 220.879C20.7423 220.718 20.6405 220.557 20.5388 220.393C21.0501 221.508 21.6531 222.72 22.2321 223.792ZM12.0952 197.267C12.2625 197.216 12.632 198.587 12.2917 196.613C12.193 196.237 12.095 195.859 11.9977 195.479C11.8987 195.238 11.7999 194.995 11.7015 194.752C10.8736 189.823 9.97136 188.5 12.1509 196.649C12.1513 196.65 12.1517 196.651 12.1521 196.652C12.133 196.857 12.114 197.062 12.0952 197.267ZM14.5065 205.708C14.6147 205.742 14.7229 205.776 14.8312 205.809C14.9603 206.958 15.574 208.174 16.1557 210.294C16.2482 210.469 16.3409 210.643 16.4338 210.816C16.5565 211.578 19.5882 218.9 19.0718 217.248C18.8269 216.55 18.1143 215.071 18.072 214.955C17.9023 214.522 17.7489 213.926 17.4521 213.175C17.2758 212.73 16.8474 211.874 16.5278 210.992C15.7854 208.977 14.8313 205.273 13.8338 202.671C13.804 202.469 13.7743 202.267 13.7448 202.064C13.1617 200.076 13.2688 200.786 12.8649 198.895C12.059 197.742 15.0043 206.318 14.1475 204.6C14.1479 204.601 14.1482 204.602 14.1486 204.603C14.2672 204.975 14.3804 205.323 14.5065 205.708ZM47.156 224.96C47.3083 224.906 48.3579 222.81 48.2647 223.391C48.5687 222.7 48.8746 221.973 49.1621 221.248C49.1421 221.244 49.122 221.24 49.102 221.236C48.7644 221.931 48.4114 222.624 48.061 223.28C48.0326 223.267 48.0042 223.254 47.9758 223.241C47.5792 224.325 44.9174 228.183 44.8928 227.932C44.7894 228.146 44.6615 228.386 44.5444 228.608C43.1086 230.199 41.8606 231.705 39.9617 232.828C39.839 232.953 39.7153 233.075 39.5907 233.193C39.4816 233.223 39.3734 233.251 39.2661 233.276C38.5608 233.666 37.8751 233.955 37.1411 234.156C35.9854 234.483 36.5368 234.469 37.4916 234.242C38.4388 234.024 39.7184 233.334 39.9639 233.151C40.0328 233.102 39.9797 233.052 40.4089 232.742C41.2325 232.395 45.0846 228.437 45.9076 226.885C45.9596 226.903 46.0116 226.921 46.0636 226.938C46.463 226.264 46.8045 225.636 47.156 224.96ZM9.80281 186.374C9.82312 186.235 9.84349 186.097 9.86391 185.958C9.36484 183.701 9.16114 182.333 9.11102 182.921C9.11124 182.922 9.11146 182.924 9.11168 182.925C9.33047 184.057 9.56386 185.225 9.80281 186.374ZM18.9338 19.292C18.8513 19.3186 18.3914 20.2624 17.8852 21.5974C17.9291 21.5413 17.9731 21.4855 18.017 21.4298C18.2635 20.7131 18.6646 19.9649 19.6275 17.9004C19.5982 17.8863 19.5689 17.8722 19.5397 17.8581C19.3359 18.3268 19.1183 18.8389 18.9338 19.292ZM10.1767 188.289C10.257 188.954 10.8485 190.862 10.5803 189.593C10.3741 188.612 10.1321 187.929 10.1767 188.289ZM65.5584 132.934C65.5298 133.449 65.5003 133.962 65.4699 134.475C65.5136 134.744 65.557 135.014 65.6001 135.283C65.6002 135.281 65.6002 135.28 65.6002 135.279C65.5886 134.499 65.5747 133.718 65.5584 132.934ZM31.4749 233.593C30.1451 232.963 28.879 232.012 27.7252 230.904C27.6939 230.914 27.6625 230.923 27.6311 230.933C28.8558 231.962 29.3161 232.39 29.5947 232.609C29.5933 232.608 29.592 232.607 29.5906 232.606C30.5476 233.319 31.4898 233.839 32.4543 234.207C32.1142 234.021 31.7971 233.82 31.4749 233.593ZM36.2005 234.561C36.0225 234.444 35.8357 234.438 35.1083 234.47C34.7371 234.48 34.2205 234.493 33.4908 234.392C33.5695 234.434 33.649 234.475 33.7292 234.515C34.3573 234.617 34.8375 234.608 35.1083 234.611C35.3251 234.613 35.4074 234.624 35.3202 234.675C35.6158 234.654 35.9088 234.616 36.2005 234.561ZM19.3011 217.995C19.351 218.285 20.518 220.568 20.4864 220.411C20.4618 220.374 19.1445 217.38 19.3011 217.995ZM29.8646 4.22748C29.3965 4.51634 28.9369 4.841 28.5098 5.17434C29.0544 4.71653 29.6827 4.25808 30.2878 3.89115C30.1459 3.99941 30.0049 4.11153 29.8646 4.22748ZM35.3635 2.38221C35.5535 2.39585 35.3382 2.41946 35.3601 2.45248C35.3802 2.49771 35.6438 2.47761 36.7459 2.68374C36.2044 2.58033 35.6577 2.52889 35.1083 2.53157C34.0253 2.53642 32.9623 2.75283 31.9305 3.1534C32.6542 2.85534 33.3896 2.648 34.1564 2.54094C34.0197 2.52574 33.8816 2.51383 33.7423 2.50529C34.1952 2.42755 34.6501 2.38594 35.1083 2.3811C35.1934 2.3802 35.2785 2.38057 35.3635 2.38221ZM37.1116 2.68908C36.6809 2.56118 37.6321 2.69039 38.6864 3.12787C39.7523 3.54852 40.8606 4.30297 41.0467 4.44558C41.1355 4.50854 41.4825 4.83811 41.6142 4.95936C41.0392 4.51283 40.4217 4.09531 39.7798 3.7401C39.9841 3.87508 40.1906 4.02002 40.3811 4.16267C39.6551 3.71265 38.8899 3.33582 38.113 3.06605C38.4495 3.1656 38.7869 3.2851 39.1268 3.42567C38.4689 3.10513 37.7979 2.85676 37.1116 2.68908ZM22.0348 13.062C22.3723 12.4992 22.7124 11.9574 23.0549 11.4373C22.9602 11.5239 22.8654 11.6117 22.7705 11.7005C22.5667 12.0183 22.3637 12.3438 22.1617 12.6767C22.1191 12.8045 22.0768 12.9329 22.0348 13.062ZM30.586 3.66974C29.9129 4.17705 27.6777 5.36032 30.1494 3.85373C30.3973 3.72012 30.6516 3.61815 30.586 3.66974ZM42.4864 5.60546C44.0027 6.88063 43.5169 6.69607 42.2022 5.4372C42.1349 5.37535 42.3731 5.51524 42.4864 5.60546ZM50.9656 17.8454C51.0377 18.0028 51.0963 18.2574 51.8132 19.67C51.9157 19.9167 52.0089 20.1456 52.1053 20.3844C51.8702 19.8149 49.5765 15.2198 49.9348 15.8235C50.3054 16.5279 50.6031 17.0919 50.9656 17.8454ZM48.8504 13.2987C48.4646 12.6452 48.042 11.9646 47.6243 11.3311C47.7428 11.5536 47.8608 11.7791 47.9781 12.0077C47.7685 11.6872 47.5611 11.3789 47.3467 11.0692C47.0086 10.4925 46.6815 9.95832 46.321 9.40697C47.3174 10.7349 48.2523 12.1838 49.088 13.6207C49.0088 13.5125 48.9296 13.4051 48.8504 13.2987ZM33.5385 2.19467C34.0207 2.11873 34.5388 2.06707 35.1083 2.06555C36.199 2.06272 37.4752 2.25055 38.8832 2.85825C38.8842 2.85877 38.8852 2.85929 38.8862 2.85981C38.9909 2.90566 39.1769 3.01997 39.5043 3.18534C39.6407 3.24026 41.1343 4.03135 42.3285 5.06215C43.5403 6.06794 44.5241 7.2082 44.3383 7.03663C42.5965 5.24504 41.8428 4.68661 41.3181 4.43326C41.2344 4.34107 41.1502 4.25022 41.0654 4.16072C39.1142 2.82971 38.399 2.75372 37.1655 2.44789C37.1749 2.43002 37.1844 2.41216 37.1939 2.39431C36.5051 2.2295 35.8109 2.14533 35.1083 2.14514C34.9513 2.14511 34.7947 2.14928 34.6382 2.15763C34.7596 2.16386 34.8806 2.17259 35.0012 2.1838C34.6989 2.18817 34.3978 2.20819 34.0975 2.24369C33.3526 2.27132 32.441 2.49341 33.5385 2.19467ZM50.5117 16.4052C51.0341 16.9639 53.8235 23.393 54.8735 26.4414C54.2214 24.8639 53.3347 22.4391 52.5948 20.74C51.158 17.5 52.106 19.7604 51.8412 19.2199C51.7118 18.9495 50.932 17.0935 50.5117 16.4052ZM28.8179 4.36501C30.2424 3.36712 31.0728 2.91103 32.4685 2.51416C32.3552 2.56013 32.2425 2.60832 32.1301 2.65871C31.8955 2.72453 30.8261 3.13309 29.9904 3.633C29.1489 4.11865 28.4814 4.63674 28.8179 4.36501ZM56.36 30.9117C55.3326 27.6241 55.753 29.2948 55.2552 27.5639C55.6555 28.688 56.0223 29.7648 56.3931 30.9011C56.3821 30.9046 56.371 30.9081 56.36 30.9117ZM10.1548 192.307C10.4601 193.681 10.8084 195.314 11.0998 196.116C10.8791 195.167 10.6589 194.189 10.4504 193.23C10.3514 192.924 10.2529 192.616 10.1548 192.307ZM3.34456 151.609C3.35105 151.941 3.51773 153.234 3.52997 153.37C3.55176 153.623 3.51728 153.556 3.51013 153.56C3.66183 155.234 3.61411 153.68 3.74439 154.922C3.76467 155.137 3.9939 158.049 4.12033 159.211C4.31279 161.042 4.51157 162.851 4.59098 163.523C4.72111 164.639 5.04978 166.799 5.29878 168.653C5.40186 169.423 5.3813 169.684 5.49089 170.475C6.13862 175.444 7.90442 185.233 8.83767 189.577C9.06054 190.674 9.21445 191.716 9.34764 192.28C9.47468 192.72 9.60264 193.157 9.73152 193.591C9.81493 195.042 10.1413 195.46 10.5282 196.922C10.7738 197.843 10.8181 198.305 10.8513 198.434C11.072 199.281 11.216 199.684 11.3975 200.335C11.6019 201.07 11.854 202.095 11.9403 202.375C11.9927 202.529 11.9302 202.018 12.7653 204.835C13.6296 207.707 14.566 210.552 15.6337 213.379C15.5562 212.311 15.0711 211.598 14.6421 210.406C14.5279 210.087 14.6441 210.274 14.5453 209.995C14.2626 209.201 13.7385 207.766 13.5391 207.098C13.3267 206.388 13.5064 206.592 13.1886 205.707C13.173 205.663 13.1722 205.816 13.1016 205.613C12.4024 203.574 12.2481 202.777 11.5317 200.14C10.9623 198.362 8.44488 187.416 8.46615 187.05C8.17306 185.051 10.6742 196.629 11.0829 197.908C11.2011 198.385 11.0242 197.899 11.1268 198.335C11.1703 198.52 11.6899 200.144 12.138 201.706C12.6833 203.664 13.8073 207.538 14.4265 209.311C18.5349 219.989 22.8982 234.241 35.1083 236.057C39.3848 236.065 42.986 233.021 45.645 229.726C45.8642 229.451 46.1146 229.049 46.7619 228.151C58.3165 210.246 61.9377 187.667 64.8284 166.457C65.3993 161.785 65.8056 157.146 66.2505 152.414C66.2469 151.825 66.2418 151.235 66.2354 150.643C66.1629 152.151 65.8077 154.873 65.7808 155.133C65.772 155.224 65.7794 155.801 65.6898 156.717C65.5636 158.004 65.4559 158.557 65.4457 158.662C65.413 158.986 65.4878 158.779 65.4563 159.089C65.2142 161.444 65.0309 163.225 64.7751 165.367C64.4801 167.805 64.2264 168.967 64.0912 170.758C64.0219 170.952 63.9526 171.146 63.8831 171.339C63.9043 172.679 62.683 180.448 62.0604 183.582C61.8753 184.562 61.8368 184.368 61.773 184.707C61.7307 184.918 61.8475 184.871 61.3152 187.447C61.0441 188.738 60.9081 189.044 60.77 189.711C60.6954 190.068 60.7744 190.025 60.6645 190.535C60.0318 193.455 59.4449 195.849 58.7007 198.678C58.4874 199.483 58.4303 199.475 58.3838 199.655C58.2076 200.325 58.0108 201.434 57.5201 203.136C56.7729 205.833 54.9661 211.283 54.0812 213.388C53.9515 213.71 53.7877 213.952 53.6972 214.187C53.5603 214.543 53.5689 214.705 53.5447 214.767C53.0781 215.935 53.3012 215.211 53.0003 215.988C52.8342 216.41 52.7139 216.908 52.2962 217.882C51.739 219.165 51.7746 218.85 51.5316 219.401C51.506 219.458 51.5563 219.505 51.3075 220.035C50.3965 222 48.8847 224.814 47.7538 226.526C47.4498 226.993 47.1433 227.38 46.6708 228.042C46.2172 228.68 44.546 230.984 42.5659 232.686C40.6101 234.465 38.2667 235.361 37.9073 235.428C37.8328 235.443 38.5718 235.136 37.3493 235.494C37.0027 235.622 36.6529 235.73 36.2867 235.817C35.8904 235.831 35.4977 235.819 35.1083 235.782C34.8839 235.76 34.6617 235.73 34.4417 235.691C34.4494 235.797 33.5328 235.795 32.6585 235.551C31.7592 235.316 30.9747 234.881 31.0315 234.792C30.67 234.613 30.3128 234.412 29.9822 234.205C29.1934 233.886 28.7399 233.56 27.4213 232.525C27.2457 232.309 27.1005 232.114 26.9471 231.906C26.8807 231.883 26.8142 231.86 26.7475 231.836C26.2197 231.114 25.144 230.12 25.0357 229.982C24.5986 229.466 24.2898 228.997 24.1081 228.76C23.3797 227.841 21.8947 225.691 21.2085 224.42C21.1774 224.363 21.2671 224.386 21.0793 224.041C20.7417 223.413 20.6202 223.402 20.2595 222.484C20.1408 222.322 20.0221 222.158 19.9037 221.992C19.8242 221.806 19.7454 221.62 19.6667 221.431C19.1209 220.373 18.5608 219.206 18.0724 218.129C18.6273 219.082 18.1619 217.922 17.5977 216.824C17.4066 216.452 17.4887 216.82 17.4246 216.695C17.2995 216.533 15.3381 211.396 15.2908 211.032C15.1828 210.793 15.0751 210.552 14.9678 210.31C14.9638 210.17 14.96 210.029 14.9563 209.888C14.8943 209.755 14.8324 209.621 14.7706 209.486C14.3761 208.151 13.0874 204.602 12.9251 203.967C12.8303 203.616 13.0908 203.89 12.5892 202.21C12.5253 202.165 12.4613 202.119 12.3974 202.074C12.2801 201.685 12.1716 201.323 12.0597 200.944C11.8676 200.234 11.6697 199.161 11.7169 199.112C11.6235 198.894 11.5303 198.676 11.4374 198.457C11.3768 197.802 10.5443 194.628 10.1737 193.307C10.1195 192.923 10.0658 192.537 10.0128 192.15C9.85747 191.649 9.70339 191.144 9.55055 190.635C9.27776 189.436 9.61938 190.691 9.56939 190.434C9.45498 189.876 8.77832 187.178 8.95656 187.326C8.88102 186.953 8.80607 186.578 8.73173 186.201C8.65362 186.015 8.5757 185.829 8.49796 185.642C8.50674 184.954 8.24125 183.872 7.87822 181.567C7.81231 181.379 7.74657 181.191 7.681 181.003C7.59913 180.279 7.51967 179.553 7.44631 178.847C7.3702 178.711 7.2942 178.575 7.21832 178.438C7.15966 178.132 7.1014 177.825 7.04353 177.517C7.05624 176.871 6.75096 175.755 6.70889 175.164C6.64865 174.306 6.82842 174.952 7.0941 176.516C7.14865 176.371 6.40742 171.767 6.25922 170.674C6.25291 170.748 6.24662 170.821 6.24034 170.895C6.40833 171.998 6.58111 173.091 6.7586 174.173C6.68493 175.114 6.29531 172.16 6.07921 170.778C6.05967 170.655 5.87703 169.94 5.70393 168.576C5.63516 168.048 5.48516 165.945 5.44362 165.54C5.10904 162.308 5.22325 164.708 5.00921 161.542C4.97342 162.216 4.85729 160.375 4.64574 158.499C4.60718 158.185 4.25528 155.47 4.23826 155.282C4.11875 154.128 4.32783 155.376 4.15358 153.708C4.11091 153.512 4.06842 153.316 4.02609 153.12C3.99292 152.736 3.96028 152.351 3.92819 151.965C3.95914 149.603 3.75714 149.058 3.67351 148.219C3.64071 147.885 3.72969 148.313 3.65505 147.444C3.62729 147.117 3.55291 146.757 3.49003 145.872C3.29749 143.092 3.44748 142.135 3.10208 139.599C3.11286 139.205 3.12412 138.811 3.13586 138.416C3.08634 138.152 3.03713 137.887 2.98822 137.623C3.00368 135.585 2.92886 136.331 2.89927 135.6C2.81844 133.681 2.72131 129.702 2.8027 129.366C2.56054 127.709 2.74842 125.7 2.73079 125.038C2.70082 124.649 2.67148 124.262 2.6427 123.872C2.66088 123.414 2.67972 122.956 2.69924 122.497C2.50781 122.723 2.67939 120.34 2.6829 120.109C2.68352 120.022 2.67617 119.57 2.66776 118.951C2.64938 117.68 2.63346 115.723 2.64304 114.81C2.65386 113.459 2.74261 111.078 2.74759 110.87C2.75112 110.627 2.74466 108.317 2.79847 106.51C2.81457 104.909 3.30775 95.5428 3.21633 96.1371C3.16073 96.7453 3.096 97.6145 3.04873 98.3695C2.84202 100.721 2.42781 114.482 2.47242 118.005C2.47077 118.319 2.46952 118.635 2.46868 118.951C2.44912 125.73 2.62648 132.758 2.95017 139.527C2.97013 139.943 2.92186 140.009 2.93929 140.366C2.96558 140.91 3.09311 142.272 3.12409 142.808C3.23617 144.824 3.39379 147.243 3.4708 148.301C3.64502 150.711 3.74879 152.336 3.90204 154.134C3.94933 154.708 4.27905 157.564 4.45589 159.503C4.47808 159.862 4.50072 160.221 4.52381 160.578C4.39347 159.55 4.08651 156.951 3.96879 155.711C3.791 153.87 3.75628 152.924 3.69884 152.251C3.64933 151.697 3.37107 148.784 3.28138 147.479C3.25247 147.073 3.30151 146.986 3.27742 146.638C3.14554 144.75 2.99315 142.223 2.85549 140.595C2.90473 141.269 2.72965 137.061 2.7251 136.833C2.70889 136.458 2.64106 136.053 2.61063 135.285C2.55408 133.805 2.66406 133.991 2.49847 132.134C2.51425 131.673 2.53055 131.206 2.54782 130.749C2.40076 130.74 2.45596 124.907 2.28448 123.278C2.25001 123.223 2.33914 130.782 2.37215 131.394C2.45972 135.146 2.74608 140.648 2.95279 144.274C3.00919 145.377 3.15852 148.768 3.18403 149.045C3.21769 149.464 3.23936 149.082 3.25464 149.263C3.57683 152.952 3.33601 151.115 3.34456 151.609ZM37.2164 2.23337C36.5211 2.06666 35.819 1.98059 35.1083 1.97892C34.7559 1.97811 34.4048 1.99809 34.0547 2.0386C34.1287 2.00772 34.2033 1.97777 34.2786 1.94878C34.5547 1.92776 34.8313 1.91942 35.1083 1.92383C35.321 1.92722 35.5329 1.93814 35.7441 1.95648C36.1201 1.96957 36.4932 2.00588 36.867 2.06536C36.9848 2.11911 37.1012 2.17514 37.2164 2.23337ZM39.7156 3.07767C40.5507 3.51193 40.5581 3.60078 40.7392 3.7115C41.2805 4.06651 41.7451 4.38566 42.2381 4.78687C41.6157 4.39481 40.3803 3.49264 39.7156 3.07767ZM23.3954 9.77693C23.5215 9.61244 24.4649 8.48375 25.4473 7.20612C26.3054 6.29245 27.1736 5.4856 28.1563 4.73878C26.4761 5.97543 24.6923 8.2156 24.0709 9.06419C23.8438 9.36461 23.7705 9.40173 23.5897 9.64972C22.5144 11.1269 21.7282 12.6293 21.5134 12.7411C22.4166 11.2911 23.2247 10.0011 23.3954 9.77693ZM31.2745 2.72617C31.5413 2.63844 31.7949 2.56646 32.0712 2.49765C31.1428 2.81635 30.2235 3.28924 29.3906 3.83742C29.6068 3.66476 29.8246 3.50042 30.0443 3.3445C30.4252 3.12523 30.863 2.90314 31.2745 2.72617ZM4.8138 76.1025C4.8843 75.4604 4.95633 74.821 5.0299 74.1844C5.00341 74.2165 4.9203 74.946 4.87521 75.2142C4.87534 75.213 4.87548 75.2118 4.87561 75.2106C4.825 75.5092 4.81029 75.3769 4.73713 75.9231C4.76266 75.9829 4.78822 76.0427 4.8138 76.1025ZM66.4509 149.874C66.5712 148.782 67.1575 138.825 66.9563 139.666C66.8715 140.094 66.747 143.491 66.6788 144.509C66.5986 145.872 66.1984 149.498 66.4509 149.874ZM67.4135 132.201C67.2931 132.036 67.039 138.25 67.0202 138.876C67.0454 138.747 67.0974 138.549 67.115 138.376C67.2058 137.519 67.34 133.56 67.4135 132.201ZM2.38148 112.182C2.43425 111.677 2.48778 111.172 2.54206 110.669C2.48131 110.8 2.42056 110.932 2.35983 111.064C2.36653 111.436 2.37374 111.809 2.38148 112.182ZM4.59714 160.98C5.50179 169.337 6.69131 177.597 8.30344 185.863C8.13298 185.139 7.96492 184.408 7.80466 183.701C6.4862 176.601 5.42555 168.957 4.61631 162.021C4.60953 161.675 4.60314 161.328 4.59714 160.98ZM21.916 11.6135C20.7638 13.4465 19.9282 15.0482 18.8675 17.084C19.7856 15.1107 20.3942 14.1392 21.4444 12.2433C21.445 12.2422 21.4456 12.2412 21.4463 12.2401C21.6026 12.0277 21.7592 11.8188 21.916 11.6135ZM7.28459 57.011C7.36216 56.3555 7.44167 55.704 7.52311 55.0566C7.38267 55.8275 7.2447 56.6047 7.10924 57.388C7.16766 57.2621 7.22611 57.1364 7.28459 57.011ZM24.7895 230.473C26.1612 232.249 30.6966 235.964 32.6627 236.002C32.7739 236.011 31.7689 235.731 33.4499 235.994C32.1884 235.785 31.3291 235.402 31.21 235.455C30.8668 235.276 30.5267 235.078 30.1924 234.862C29.6364 234.585 29.0761 234.253 28.5274 233.879C28.6334 233.843 28.5907 233.846 27.7847 233.273C27.4546 232.975 27.0946 232.625 26.8036 232.32C26.6425 232.218 26.4811 232.113 26.3193 232.004C26.0779 231.691 25.8397 231.368 25.6043 231.034C24.5651 229.947 25.0984 230.695 24.7895 230.473ZM20.3984 223.966C20.3226 224.449 26.5495 232.8 23.8368 228.904C23.1182 227.963 22.3967 226.906 21.7626 225.894C22.0534 226.919 20.5192 223.898 20.427 223.663C19.8021 222.487 19.0036 221.045 18.5914 220.167C18.2318 219.405 18.0816 218.953 17.8468 218.434C17.0199 216.634 15.8959 213.769 15.6337 213.379C16.1911 214.852 16.7448 216.229 17.401 217.728C18.0786 219.243 18.5702 220.672 20.206 223.392C20.5677 224.083 20.3573 223.881 20.3984 223.966ZM7.8888 53.1368C7.94999 53.2172 8.7047 49.3023 8.68349 49.2851C8.66606 49.2722 8.40899 50.5324 8.36623 50.7139C8.36599 50.7151 8.36575 50.7163 8.36552 50.7175C8.34731 50.7925 8.39331 50.4025 8.26538 50.9978C8.13763 51.7052 8.01209 52.4182 7.8888 53.1368ZM65.2479 165.371C65.4411 164.869 66.6492 152.603 66.5891 152.254C66.5867 152.156 66.5412 152.289 66.5246 152.249C66.4032 155.112 65.8842 159.141 65.5717 161.868C65.4862 162.622 65.5652 162.402 65.5616 162.445C65.5614 162.447 65.5612 162.449 65.561 162.45C65.514 162.884 65.1621 164.766 65.2479 165.371ZM36.5084 236.162C36.0415 236.215 35.5748 236.233 35.1083 236.216C35.0634 236.214 35.0184 236.212 34.9736 236.21C34.8435 236.246 34.7119 236.279 34.579 236.309C34.5802 236.309 34.5814 236.309 34.5826 236.309C34.7578 236.314 34.933 236.313 35.1083 236.308C35.5794 236.295 36.0461 236.245 36.5084 236.162ZM49.5243 224.565C49.4382 224.66 49.356 224.747 49.266 224.848C48.5714 226.026 47.9062 227.066 47.1188 228.171C47.183 228.054 47.2469 227.936 47.3107 227.818C46.1543 229.394 45.6603 230.111 44.9801 230.872C44.9808 230.871 44.9816 230.87 44.9824 230.869C44.9074 230.951 44.7821 231.011 44.4838 231.33C43.8459 232.085 41.7427 233.848 41.477 234.041C41.0506 234.682 45.2624 230.918 45.7595 230.017C46.0604 229.655 46.4651 229.209 46.6248 228.997C46.8097 228.751 47.0067 228.378 47.4499 227.741C47.61 227.537 48.9988 225.539 49.5243 224.565ZM58.0163 203.028C57.8422 203.405 57.6624 204.235 57.5637 204.527C57.5403 204.597 57.6535 204.032 57.4392 204.694C57.4175 204.892 57.3955 205.09 57.3733 205.288C57.5906 204.545 57.8049 203.792 58.0163 203.028ZM9.19502 46.5605C9.16092 46.6636 8.70961 48.7846 8.69825 48.8781C8.50217 50.1511 9.42259 45.7929 9.19502 46.5605ZM34.2081 1.50075C33.9948 1.50762 34.3686 1.43108 35.1083 1.42125C36.4498 1.35185 38.9813 1.93931 40.8952 3.22555C42.8285 4.44972 44.2391 6.00942 44.5399 6.31583C44.4879 6.28884 42.5018 4.35098 43.5131 5.3976C42.6077 4.32084 39.349 2.26932 38.4396 2.09027C37.9219 1.90082 37.8017 1.82702 37.7227 1.80097C37.5182 1.72274 36.0949 1.43052 35.1083 1.4666C34.6652 1.46901 34.3163 1.50072 34.2081 1.50075ZM50.0409 14.2062C49.5096 13.2224 48.9645 12.2766 48.3694 11.3262C49.0859 12.4353 49.75 13.569 50.3681 14.7039C50.2592 14.5363 50.1501 14.3703 50.0409 14.2062ZM50.7215 15.4231C50.7742 15.3639 52.3909 18.739 52.7852 19.668C52.2505 18.6716 51.5436 16.9504 50.7215 15.4231ZM12.5826 32.797C12.0481 34.4344 12.0223 35.2103 12.5397 33.1677C12.5553 33.1058 12.6054 32.7291 12.5826 32.797ZM24.8296 231.137C24.9683 231.407 27.6281 234.076 27.879 234.1C28.5113 234.419 26.5179 232.907 26.0386 232.286C25.2041 231.273 26.504 232.648 24.3822 230.297C24.4884 230.379 24.5944 230.46 24.7004 230.539C23.5186 229.091 23.7461 229.66 23.5176 229.419C23.4498 229.351 22.7796 228.41 22.6476 228.236C20.9702 226.142 24.5652 231.029 24.8296 231.137ZM4.39625 74.8952C3.95402 78.3083 4.19779 76.8872 3.84052 80.3784C3.86724 80.511 4.37719 75.3372 4.39625 74.8952ZM11.1596 200.571C12.1156 203.997 12.9039 206.876 14.0729 209.963C14.0823 209.771 10.8829 199.653 11.1596 200.571ZM68.5566 124.348C68.0075 138.253 67.1583 154.274 65.2 168.947C64.9905 170.521 64.8835 170.693 64.8123 171.27C64.7644 171.651 64.8373 171.594 64.7657 172.098C62.0472 190.183 58.6326 207.784 50.4669 223.497C50.0187 224.475 46.9792 229.023 46.333 229.969C45.9234 230.761 48.1938 227.573 48.502 226.999C48.7626 226.597 48.8306 226.614 49.0033 226.339C49.1861 226.045 48.9962 226.265 49.2069 225.921C50.1022 224.453 51.0038 222.813 51.665 221.471C58.1594 207.89 61.3556 193.462 63.897 178.834C64.1908 177.064 64.1867 177.433 64.2021 177.345C64.2021 177.344 64.2022 177.343 64.2022 177.341C65.7678 167.76 66.8401 156.786 67.5779 146.584C68.1103 139.393 68.4437 132.185 68.5948 124.972C68.5822 124.764 68.5695 124.556 68.5566 124.348ZM20.5729 224.757C20.8837 225.634 21.069 225.747 22.8559 228.469C23.0359 228.664 23.2161 228.855 23.3965 229.041C22.3724 227.681 21.4483 226.257 20.5702 224.752C20.5711 224.754 20.572 224.755 20.5729 224.757ZM36.9997 236.482C37.2786 236.577 39.3222 236.161 41.2631 234.851C43.2219 233.602 45.0793 231.567 46.0912 230.355C46.4082 229.847 43.2941 233.423 42.2678 234.011C41.8391 234.366 39.2561 236.021 36.9639 236.461C36.9758 236.468 36.9877 236.475 36.9997 236.482ZM24.059 7.82217C23.7217 8.24765 23.4055 8.66882 23.1048 9.08703C23.8842 8.05427 24.7408 7.03071 25.6796 6.07686C24.2128 7.59363 22.9439 9.27295 21.7828 11.0439C21.9601 10.7074 22.1507 10.3593 22.352 10.0067C22.9117 9.23385 23.432 8.56526 24.059 7.82217ZM20.2744 13.5059C22.1387 10.3177 20.2313 13.6794 19.7864 14.4633C19.501 14.9379 20.0922 13.8219 20.2744 13.5059ZM16.0984 22.1125C16.6736 20.4825 18.1131 17.3643 17.7147 18.5209C16.9125 20.1445 16.4558 21.2997 15.4534 23.776C15.5746 23.3973 15.6968 23.0223 15.82 22.6511C15.8207 22.6494 15.8214 22.6478 15.8221 22.6461C15.914 22.4671 16.0061 22.2892 16.0984 22.1125ZM21.0688 12.0141C22.3572 9.96862 18.8177 15.9946 19.8754 14.0703C19.9137 13.9753 21 12.1001 21.0688 12.0141ZM68.3044 139.733C68.2447 139.441 68.1502 141.287 68.1095 141.896C67.9381 144.573 67.7433 147.953 67.5089 150.747C67.5498 150.541 67.5905 150.334 67.6311 150.126C67.9029 146.659 68.1269 143.181 68.3044 139.733ZM66.7193 159.379C66.5204 161.297 66.3092 163.182 66.0819 165.067C66.0606 165.245 66.0201 166.087 66.111 165.468C66.3326 163.437 66.5323 161.434 66.7193 159.379ZM15.1589 213.993C15.6473 215.383 13.9967 211.486 14.2522 211.6C14.5489 212.41 14.8342 213.164 15.1589 213.993ZM10.9107 201.045C11.1638 201.909 11.4327 202.803 11.7072 203.686C11.6874 203.693 11.6676 203.7 11.6478 203.707C11.393 202.817 11.1439 201.916 10.9107 201.045ZM68.6707 132.241C68.5485 133.215 68.4771 135.528 68.4104 136.961C68.5338 135.977 68.5883 133.613 68.6707 132.241ZM26.2075 232.961C26.1611 232.884 27.2687 233.924 28.2425 234.614C29.2653 235.353 30.1045 235.805 29.1878 235.336C28.0876 234.645 27.1227 233.849 26.2075 232.961ZM37.4541 236.864C36.1623 237.18 35.1036 237.12 35.3815 237.041C36.0814 237.027 36.7919 236.935 37.464 236.781C37.4608 236.808 37.4575 236.836 37.4541 236.864ZM13.7217 28.2103C13.062 30.1579 12.4199 32.2162 11.8404 34.2148C11.8484 34.1355 11.8563 34.0563 11.8643 33.9772C12.4237 32.0587 13.0479 30.0644 13.6832 28.1897C13.6961 28.1966 13.7089 28.2034 13.7217 28.2103ZM68.9492 131.053C68.9748 129.617 68.993 128.177 69.0038 126.728C68.9572 128.177 68.9034 129.618 68.8424 131.054C68.8781 131.055 68.9138 131.056 68.9496 131.057C68.9494 131.055 68.9493 131.054 68.9492 131.053ZM28.1162 3.42479C23.0684 7.67914 29.2676 1.84092 31.245 1.63852C31.2468 1.63777 31.2485 1.63702 31.2502 1.63627C31.3954 1.58856 31.1089 1.74118 31.351 1.66431C30.7259 1.88289 30.0698 2.18163 29.4904 2.49652C28.9795 2.8156 28.454 3.19196 27.9823 3.57215C27.8199 3.68255 27.6578 3.79689 27.496 3.91508C27.7016 3.74515 27.9083 3.58168 28.1162 3.42479ZM49.5834 12.2762C52.423 17.3927 49.5686 12.149 47.9161 9.72094C47.9582 9.72387 49.3224 11.7999 49.5834 12.2762ZM38.6538 1.55513C37.74 1.23341 36.7941 1.03098 35.8294 0.968723C35.7071 0.948722 35.5843 0.930952 35.4609 0.91545C36.2058 0.93175 36.9455 1.03192 37.6688 1.20837C38.0003 1.30782 38.3286 1.42359 38.6538 1.55513ZM16.7439 19.3728C16.1358 20.7468 15.4847 22.4923 17.3866 18.1614C17.3728 18.1577 17.359 18.1541 17.3452 18.1505C17.2682 18.3203 17.0532 18.8223 17.0398 18.8502C17.0012 18.9278 16.9998 18.8131 16.7439 19.3728ZM54.6145 21.896C54.6784 22.0487 54.8399 22.0799 55.3439 23.7552C55.5357 24.2362 55.726 24.7238 55.9147 25.2181C55.9357 25.356 55.9565 25.4943 55.9773 25.6329C55.2957 23.6999 55.163 23.5544 55.1086 23.4075C54.8566 22.7724 55.0665 23.2326 54.907 22.8234C54.508 21.777 53.484 19.4266 54.015 20.4637C54.2084 20.8405 54.5506 21.747 54.6145 21.896ZM53.112 18.2106C53.2052 18.4393 52.8395 17.733 52.9076 17.9069C52.9755 18.0536 53.9318 20.3176 53.6055 19.7344C53.4507 19.3714 53.2889 18.9991 53.1238 18.6271C53.083 18.4948 53.0421 18.3629 53.001 18.2315C52.8239 17.883 52.6471 17.542 52.467 17.201C52.2183 16.5759 51.6476 15.2967 52.414 16.7809C52.1407 16.2231 51.8703 15.6884 51.5866 15.1461C51.4202 14.8686 51.2532 14.5952 51.0855 14.3259C51.1917 14.4572 51.2977 14.5897 51.4036 14.7236C52.0083 15.874 52.5804 17.0491 53.112 18.2106ZM59.3666 36.0015C59.3326 35.9351 59.2984 35.8689 59.2643 35.8027C59.8903 37.9255 60.7372 41.3003 60.1654 39.4126C59.4112 36.4856 58.5904 33.5892 57.6763 30.7115C57.628 30.5193 57.5764 30.318 57.5262 30.1224C58.1596 32.2842 58.1343 31.5602 58.6434 33.4629C58.7257 33.7827 58.3991 32.8762 59.0118 34.8604C59.0063 34.7847 59.0008 34.7091 58.9953 34.6336C59.1201 35.0859 59.247 35.5529 59.3666 36.0015ZM63.5312 54.6789C62.8653 50.9451 63.6764 55.037 63.7519 55.7492C63.7517 55.7481 63.7515 55.7469 63.7513 55.7457C63.9716 57.6752 63.3028 53.5636 63.2508 53.331C63.1872 52.9991 62.9603 52.231 62.7311 50.4262C63.0074 51.827 63.2792 53.2727 63.5312 54.6789ZM61.0245 42.4882C61.101 42.799 61.0384 42.6318 61.0705 42.7664C61.0707 42.7675 61.071 42.7687 61.0713 42.7699C61.5631 44.7653 62.5769 49.4898 62.6038 50.0377C62.3283 48.5437 60.8316 41.9488 60.7608 41.5565C60.8492 41.8656 60.9371 42.1761 61.0245 42.4882ZM57.0897 28.6622C56.7434 27.462 57.6366 30.1314 57.8313 30.8564C57.8705 30.9991 57.4485 29.9029 57.0897 28.6622ZM7.01798 50.5432C6.51009 53.2639 7.26462 49.7063 7.07555 50.9514C7.17476 50.433 7.27515 49.9177 7.37669 49.4054C7.25663 49.7827 7.13705 50.162 7.01798 50.5432ZM4.42231 175.726C4.51064 176.371 4.51199 176.058 4.52112 176.114C4.58413 176.536 4.60696 176.938 4.63618 177.099C5.18435 180.05 4.91178 178.072 4.91577 178.042C4.95289 177.972 5.13213 178.741 5.01402 177.654C4.89343 177.002 4.77461 176.346 4.65758 175.686C4.63363 175.351 4.61088 175.021 4.58947 174.697C4.3437 173.415 4.57609 175.103 4.53211 175.31C4.51359 175.386 4.29549 174.167 4.42231 175.726ZM5.95827 55.378C5.94081 55.8293 5.82683 56.9286 6.08268 55.8755C6.08289 55.8744 6.08311 55.8732 6.08332 55.872C6.13041 55.677 6.28301 54.8812 6.34498 54.6412C6.58651 52.8954 6.37188 53.5331 5.95827 55.378ZM2.72876 163.95C2.6292 162.893 2.53373 161.828 2.44241 160.756C2.49264 160.769 2.54288 160.782 2.59312 160.795C2.63924 161.369 2.68653 161.94 2.735 162.51C2.7787 162.706 2.82257 162.903 2.86661 163.099C2.84445 162.389 2.82395 161.677 2.80513 160.962C2.6966 160.108 2.59114 159.252 2.49063 158.413C2.50287 158.805 2.51534 159.193 2.52888 159.586C2.29754 157.523 2.45896 157.963 2.34464 156.236C2.24658 155.65 2.14992 155.061 2.05469 154.469C2.02543 153.602 2.00131 152.762 1.97825 151.903C1.84574 150.471 1.80397 150.345 1.82691 151.317C1.71431 150.608 1.74663 149.816 1.66184 148.951C1.6549 148.88 1.61027 149.018 1.60515 148.955C1.26596 144.523 1.44041 144.74 1.40049 144.028C1.37353 143.52 1.17142 141.526 1.13882 141.498C1.09634 141.458 1.12646 145.629 0.804769 139.114C0.833184 142.487 1.19434 146.334 1.22172 143.833C1.25783 144.918 1.61279 149.59 1.63759 149.908C1.66181 150.347 1.58325 150.199 1.62251 150.748C1.64721 151.073 1.85926 151.915 1.94022 154.48C1.99373 154.807 2.04768 155.134 2.10206 155.461C2.10835 155.77 2.11495 156.08 2.12186 156.389C1.99001 155.764 1.85987 155.136 1.73143 154.505C2.02772 157.029 2.07239 159.069 2.35946 160.603C2.48038 161.928 2.53584 162.565 2.40892 162.008C2.45093 162.403 2.49352 162.798 2.53669 163.191C2.60042 163.444 2.66445 163.698 2.72876 163.95ZM4.70436 63.4006C4.44671 64.678 4.51111 65.1677 4.54804 64.9661C4.75675 63.8348 4.83904 62.7378 4.70436 63.4006ZM4.16423 173.36C4.00327 171.932 3.84381 170.44 3.70482 169.028C3.65302 169.035 3.60121 169.042 3.54941 169.049C3.73988 170.455 3.95115 171.94 4.16423 173.36ZM7.00927 50.1306C7.0658 50.0064 7.12236 49.8826 7.17896 49.7589C7.38484 48.2146 7.88969 46.659 8.02816 45.8979C8.05858 45.7306 7.93122 46.0534 7.8493 46.3688C7.79177 46.5659 7.04794 49.8612 7.00927 50.1306ZM42.2243 2.82934C41.6941 2.47263 41.1632 2.15653 40.5891 1.86417C40.6336 1.8555 40.6783 1.84708 40.7232 1.83889C41.0009 1.98604 41.2852 2.14964 41.5438 2.30837C41.773 2.47466 41.9998 2.64838 42.2243 2.82934ZM35.4229 0.392338C35.3181 0.388714 35.2133 0.38665 35.1083 0.386153C34.0416 0.380421 32.9821 0.540808 31.9711 0.84104C34.0058 0.282293 34.3342 0.418948 34.3242 0.373222C34.3273 0.369954 34.0529 0.343265 35.1083 0.306383C35.203 0.305117 35.3084 0.305074 35.4254 0.307272C35.4246 0.335627 35.4237 0.363983 35.4229 0.392338ZM25.2566 5.08508C25.3393 4.97653 25.4226 4.86909 25.5063 4.76279C26.271 4.01949 27.1608 3.26388 28.0818 2.632C27.4376 3.00157 26.8777 3.3622 26.281 3.79685C25.9553 4.07992 25.668 4.34518 25.3779 4.62581C25.3361 4.77844 25.2957 4.93154 25.2566 5.08508ZM10.1122 203.749C10.2858 204.382 11 206.477 11.0042 206.372C10.776 205.489 10.552 204.593 10.3323 203.682C10.2774 203.693 10.2226 203.705 10.1678 203.716C10.1582 203.581 10.1487 203.446 10.1393 203.31C9.97291 202.798 9.81219 202.295 9.6562 201.801C9.6341 201.535 9.61232 201.268 9.59086 201C9.46872 200.758 9.34693 200.514 9.22548 200.269C9.7821 202.751 9.86219 202.62 10.0053 203.146C10.0788 203.409 10.0926 203.583 10.1022 203.681C10.1056 203.704 10.1089 203.727 10.1122 203.749ZM3.69209 172.416C4.09522 175.394 4.50629 177.119 4.73799 179.279C4.72567 177.87 3.17277 168.92 3.04019 165.716C2.96233 165.39 2.88411 165.057 2.80803 164.736C3.04265 166.473 3.1123 167.682 3.20617 168.521C3.28131 169.187 3.31377 169.112 3.3196 169.163C3.31991 169.165 3.32022 169.168 3.32053 169.17C3.50257 170.711 3.53453 171.238 3.69209 172.416ZM7.32425 47.9121C7.10174 48.7098 6.82316 50.0746 6.88856 50.1099C7.06881 49.3354 7.2446 48.6004 7.43654 47.8078C7.38423 47.965 7.36197 47.7763 7.32425 47.9121ZM24.235 5.91001C23.7878 6.35715 22.8093 7.59603 23.2796 7.10314C23.3618 7.00406 24.3313 5.82291 23.82 6.56425C24.7849 5.46007 24.5103 5.6322 24.235 5.91001ZM0.472048 120.917C0.469022 120.383 0.466999 119.848 0.465986 119.313C0.434219 119.192 0.402525 119.072 0.370907 118.951C0.369772 118.947 0.368636 118.943 0.367501 118.938C0.367719 118.943 0.367936 118.947 0.368153 118.951C0.40114 119.608 0.435775 120.263 0.472048 120.917ZM8.83455 41.2013C9.1379 40.5479 9.30424 39.3553 9.76292 38.0748C9.89199 37.5967 10.0222 37.1223 10.1535 36.6516C10.1538 36.6505 10.1541 36.6493 10.1544 36.6481C10.1225 36.6257 10.0907 36.6032 10.0588 36.5808C9.63494 38.0984 9.2154 39.6868 8.83455 41.2013ZM1.76425 154.101C1.75891 153.773 1.75424 153.448 1.74975 153.12C1.67701 152.544 1.60556 151.965 1.53542 151.384C1.54122 151.701 1.54735 152.017 1.55381 152.333C1.62262 152.924 1.69261 153.512 1.76425 154.101ZM11.1249 32.8417C10.6133 34.4867 10.5418 35.1472 11.1719 33.0299C11.4396 32.1458 11.666 31.1379 11.1249 32.8417ZM24.8514 233.762C24.4159 233.313 23.9625 232.808 23.5686 232.336C23.4032 232.204 23.2381 232.069 23.0731 231.93C23.6122 232.537 24.2337 233.185 24.8514 233.762ZM31.2789 0.846525C31.2158 0.892571 31.1531 0.939194 31.091 0.986351C30.5569 1.18444 30.0291 1.42194 29.5082 1.69672C29.6282 1.60731 29.7492 1.51996 29.8714 1.43468C30.3353 1.20875 30.8047 1.0122 31.2789 0.846525ZM22.0712 230.536C21.7863 230.149 21.5045 229.75 21.2257 229.34C21.02 229.078 20.8152 228.809 20.6116 228.536C20.86 228.941 21.1111 229.336 21.3651 229.722C21.5993 230 21.8347 230.272 22.0712 230.536ZM16.9104 17.4956C16.5835 18.1022 15.5945 20.5311 16.5904 18.376C17.2434 17.0022 16.9632 17.3986 16.9104 17.4956ZM18.5192 14.244C17.2784 16.5258 18.3665 14.856 19.7407 12.1663C18.2379 14.8169 18.6006 14.125 18.5192 14.244ZM35.8742 0.0302941C35.9462 0.0384139 36.006 0.0672274 36.5775 0.143205C38.6702 0.381612 41.0909 1.65469 42.2093 2.48257C45.4186 4.16 50.9126 12.4848 51.1888 13.5856C51.2828 13.8009 50.9699 13.3591 51.0127 13.4443C51.1409 13.6826 51.9297 15.1177 51.7478 14.8726C51.0085 13.4457 50.2368 12.0766 49.364 10.6989C49.6016 11.0123 49.8403 11.3371 50.0736 11.6626C47.9297 8.26847 48.589 9.40468 47.8867 8.50028C47.4943 7.91444 47.1203 7.38247 46.6913 6.81681C45.7278 5.69035 44.6428 4.5858 43.4631 3.63077C43.7517 3.84604 44.0092 4.0465 44.2803 4.2693C42.574 2.71118 43.0385 3.17777 41.9605 2.45913C41.9702 2.43996 41.9799 2.42079 41.9896 2.40161C40.0514 1.20698 39.5768 1.08084 39.1211 0.873585C38.3518 0.6134 37.3881 0.314347 35.1083 0.209498C34.4404 0.193315 33.6483 0.220635 32.7417 0.357578C31.1224 0.889182 31.0949 0.703325 30.2338 1.20279C27.6504 2.3972 32.2558 -0.262985 35.1083 0.0214436C35.1666 0.0217844 35.2237 0.0225708 35.2795 0.0237397C35.2809 0.0237664 35.2823 0.0237935 35.2836 0.0238208C35.4833 0.0320712 35.1672 -0.0130522 35.8742 0.0302941ZM23.6114 6.57411C24.0901 5.93316 23.2879 6.78211 22.5781 7.71345C21.9152 8.57731 21.3365 9.48931 22.0149 8.68066C22.2014 8.43269 22.3889 8.18983 22.5772 7.95213C22.9007 7.49616 23.2636 7.01266 23.6138 6.57124C23.613 6.5722 23.6122 6.57316 23.6114 6.57411ZM4.68827 60.9893C3.85757 66.6197 4.43076 63.4547 4.66031 61.5221C4.70682 61.1376 4.72056 60.926 4.68827 60.9893ZM4.1874 176.714C4.22053 176.794 4.25369 176.873 4.28688 176.952C3.96283 175.027 3.54159 171.416 3.41228 171.466C3.65829 173.238 3.90788 174.931 4.1874 176.714ZM2.17293 161.746C2.2067 162.157 2.36843 163.818 2.39746 163.611C2.35394 162.89 2.31222 162.165 2.27233 161.438C2.21482 161.103 2.15777 160.767 2.10118 160.431C2.14137 160.905 2.16334 161.635 2.17293 161.746Z" fill="var(--stroke-0, #0061FE)"/>
</svg>
