<svg preserveAspectRatio="none" width="100%" height="100%" overflow="visible" style="display: block;" viewBox="0 0 176 27.4899" fill="none" xmlns="http://www.w3.org/2000/svg">
<g id="Frame 482236048">
<g id="Vector">
<path d="M45.024 2.04026C46.5045 2.04026 47.7582 2.30275 48.785 2.82773C49.8357 3.32885 50.6237 4.00894 51.1491 4.868C51.6744 5.72705 51.9371 6.64576 51.9371 7.62414C51.9371 9.12749 51.3282 10.4399 50.1103 11.5615C48.9163 12.6592 47.2925 13.3631 45.2389 13.6733C48.0089 13.9835 50.0267 14.7233 51.2924 15.8926C52.558 17.0618 53.1908 18.4578 53.1908 20.0805C53.1908 21.3452 52.8207 22.5145 52.0804 23.5883C51.364 24.6383 50.3014 25.4854 48.8925 26.1297C47.5074 26.774 45.8598 27.0961 43.9494 27.0961H32.0215V25.3422L33.3826 25.2706C34.0751 25.2229 34.6005 25.032 34.9587 24.6979C35.3408 24.3638 35.5318 23.8746 35.5318 23.2304V5.90602C35.5318 5.26173 35.3408 4.77255 34.9587 4.43847C34.6005 4.10439 34.0751 3.91349 33.3826 3.86576L32.0215 3.79417V2.04026H45.024ZM39.9376 13.029H41.6927C42.8629 13.029 43.8419 12.8023 44.63 12.349C45.4419 11.8956 46.0508 11.3109 46.4567 10.595C46.8627 9.87916 47.0657 9.11555 47.0657 8.30422C47.0657 7.0395 46.6358 5.98954 45.7762 5.15435C44.9404 4.29529 43.818 3.86576 42.4091 3.86576H39.9376V13.029ZM39.9376 23.123C39.9376 23.8388 40.1286 24.3758 40.5107 24.7337C40.8928 25.0916 41.4062 25.2706 42.0509 25.2706H43.5554C44.9165 25.2706 46.015 24.8053 46.8508 23.8746C47.6866 22.944 48.1044 21.7628 48.1044 20.331C48.1044 18.7322 47.5313 17.4198 46.3851 16.3937C45.2628 15.3676 43.6628 14.8545 41.5853 14.8545H39.9376V23.123Z" fill="var(--fill-0, #13223B)"/>
<path d="M80.0367 8.94436V12.17C80.777 11.0246 81.7441 10.1416 82.9381 9.52122C84.1321 8.90079 85.3499 8.59057 86.5917 8.59057C88.2633 8.59057 89.5647 9.12748 90.496 10.2013C91.4273 11.2751 91.893 12.8023 91.893 14.7829V23.4093C91.893 23.9582 92.0601 24.4354 92.3944 24.8411C92.7526 25.2229 93.2422 25.4257 93.863 25.4496L94.472 25.4854V27.0961H85.3022V25.4854L85.9469 25.4496C87.117 25.378 87.7021 24.7576 87.7021 23.5883V15.3914C87.7021 14.1506 87.4155 13.208 86.8424 12.5637C86.2932 11.8956 85.4932 11.5615 84.4425 11.5615C83.7261 11.5615 82.9739 11.7047 82.1859 11.991C81.4217 12.2535 80.765 12.683 80.2158 13.2796V23.5883C80.2158 24.7576 80.8008 25.378 81.971 25.4496L82.6157 25.4854V27.0961H73.2668V25.4854L74.0548 25.4496C74.6996 25.4257 75.1891 25.2348 75.5234 24.8769C75.8577 24.4951 76.0249 24.0059 76.0249 23.4093V12.3849C76.0249 11.7884 75.8458 11.335 75.4876 11.0248C75.1533 10.6907 74.6757 10.5236 74.0548 10.5236H73.4101V8.94436H80.0367Z" fill="var(--fill-0, #13223B)"/>
<path d="M102.49 23.5883C102.49 24.161 102.657 24.6025 102.991 24.9127C103.349 25.2229 103.839 25.4019 104.46 25.4496L105.248 25.4854V27.0961H95.5407V25.4854L96.3287 25.4496C96.9018 25.4257 97.3675 25.2587 97.7257 24.9485C98.1077 24.6383 98.2988 24.1849 98.2988 23.5883V4.72482C98.2988 4.12825 98.1197 3.67486 97.7615 3.36464C97.4272 3.03056 96.9496 2.86353 96.3287 2.86353H95.684V1.25279L102.49 0V23.5883ZM112.483 22.4071C113.319 23.4093 113.976 24.161 114.453 24.6621C114.955 25.1632 115.361 25.4377 115.671 25.4854V27.0961H110.871C110.251 26.3564 109.689 25.6643 109.188 25.0201L103.134 17.4317L107.719 12.9217C108.197 12.4444 108.436 12.0268 108.436 11.6689C108.436 11.3109 108.221 11.0365 107.791 10.8456C107.361 10.6308 106.74 10.5235 105.928 10.5235V8.94851H114.955V10.5235C114.071 10.6189 113.343 10.8098 112.77 11.0962C112.221 11.3825 111.6 11.8598 110.907 12.5279L107.146 16.0715L111.982 21.8344L112.483 22.4071Z" fill="var(--fill-0, #13223B)"/>
<path d="M129.052 8.59057C129.482 8.59057 129.983 8.67409 130.556 8.84113V12.9932C129.792 12.7785 129.04 12.6711 128.3 12.6711C127.321 12.6711 126.413 12.862 125.578 13.2438C124.766 13.6256 124.133 14.246 123.679 15.1051V23.5883C123.679 24.161 123.858 24.6144 124.216 24.9485C124.575 25.2587 125.052 25.4257 125.649 25.4496L126.795 25.4854V27.0961H116.73V25.4854L117.518 25.4496C118.139 25.4019 118.617 25.2348 118.951 24.9485C119.309 24.6383 119.488 24.1849 119.488 23.5883V12.3847C119.488 11.7881 119.309 11.3347 118.951 11.0245C118.617 10.6904 118.139 10.5234 117.518 10.5234H116.873V8.94851H123.5V14.1029C124.121 12.17 124.921 10.774 125.9 9.91495C126.879 9.03203 127.93 8.59057 129.052 8.59057Z" fill="var(--fill-0, #13223B)"/>
<path d="M157.241 24.4473C158.005 24.4473 158.912 24.2922 159.963 23.982V25.5928C157.957 26.8575 156.154 27.4898 154.554 27.4898C153.217 27.4898 152.154 27.1319 151.366 26.416C150.602 25.6763 150.22 24.5189 150.22 22.944V10.5592H147.319V8.94851C148.584 8.6383 149.647 8.12525 150.507 7.40937C151.39 6.66963 152.154 5.73898 152.799 4.61743H154.411V8.94851H159.855V10.7024H154.411V21.5838C154.411 22.5145 154.602 23.2303 154.984 23.7315C155.366 24.2087 156.118 24.4473 157.241 24.4473Z" fill="var(--fill-0, #13223B)"/>
<path d="M169.767 23.9462C170.794 23.9462 171.69 23.7195 172.454 23.2661C173.242 22.7889 173.827 22.1088 174.209 21.2259H175.713C175.355 23.1349 174.531 24.6621 173.242 25.8075C171.976 26.9291 170.364 27.4898 168.406 27.4898C166.806 27.4898 165.409 27.108 164.215 26.3444C163.021 25.5808 162.09 24.5428 161.421 23.2304C160.777 21.894 160.454 20.3907 160.454 18.7203C160.454 16.9067 160.824 15.2244 161.565 13.6733C162.329 12.1223 163.392 10.8933 164.753 9.98654C166.138 9.05589 167.714 8.59057 169.481 8.59057C171.726 8.59057 173.373 9.34225 174.424 10.8456C175.475 12.349 176 14.4727 176 17.2169H164.394C164.371 17.3363 164.359 17.4794 164.359 17.6465C164.406 19.5078 164.896 21.023 165.827 22.1923C166.782 23.3616 168.096 23.9462 169.767 23.9462ZM168.442 10.0939C167.367 10.0939 166.484 10.595 165.791 11.5973C165.123 12.5756 164.681 13.8523 164.466 15.4272H171.523C171.523 13.9 171.284 12.6353 170.806 11.6331C170.329 10.607 169.541 10.0939 168.442 10.0939Z" fill="var(--fill-0, #13223B)"/>
<path d="M69.7517 23.4093C69.7517 23.7563 69.8346 24.3927 70.2501 24.8713C70.5516 25.2186 71.0801 25.4854 71.6284 25.4854C72.0344 25.4854 72.6535 25.4854 72.6535 25.4854L72.6532 26.3802C71.5308 27.12 70.4203 27.4898 69.3218 27.4898C68.3427 27.4898 67.5308 27.1916 66.886 26.595C66.2413 25.9984 65.8711 25.1393 65.7756 24.0177C65.0114 25.1393 64.0679 25.9985 62.9455 26.5951C61.847 27.1916 60.7366 27.4899 59.6142 27.4899C58.2531 27.4899 57.1307 27.0604 56.2472 26.2013C55.3636 25.3423 54.9219 24.173 54.9219 22.6935C54.9219 21.5242 55.2084 20.5933 55.7816 19.9012C56.3786 19.1853 57.095 18.6603 57.9308 18.3262C58.7905 17.9683 60.0323 17.5387 61.6562 17.0376C62.6592 16.7274 63.4592 16.441 64.0562 16.1785C64.6771 15.8922 65.1786 15.4984 65.5607 14.9973C65.9666 14.4723 66.1696 13.7922 66.1696 12.9569C66.1696 12.0024 65.9189 11.2865 65.4174 10.8092C64.9159 10.332 64.2234 10.0933 63.3398 10.0933C62.289 10.0933 61.4413 10.499 60.7965 11.3104C60.1756 12.0979 59.7935 13.291 59.6502 14.8899H55.1726C55.4592 12.8138 56.3189 11.2507 57.7517 10.2007C59.2084 9.12684 61.0592 8.58992 63.304 8.58992C65.4054 8.58992 67.0054 9.06718 68.1039 10.0217C69.2024 10.9763 69.7517 12.3365 69.7517 14.1024V23.4093ZM62.0858 24.5548C62.85 24.5548 63.5308 24.3995 64.1278 24.0893C64.7248 23.7552 65.2024 23.3376 65.5607 22.8365V17.0376C65.0592 17.324 64.5935 17.5507 64.1637 17.7177C63.7338 17.8848 63.2562 18.0518 62.7308 18.2189C61.8711 18.5052 61.2025 18.7797 60.7249 19.0422C60.2711 19.2808 59.9249 19.6029 59.6861 20.0086C59.4472 20.4143 59.3278 20.9632 59.3278 21.6552C59.3278 23.5882 60.247 24.5548 62.0858 24.5548Z" fill="var(--fill-0, #13223B)"/>
<path d="M145.945 23.4093C145.945 23.7563 146.007 24.3983 146.423 24.8769C146.724 25.2242 147.273 25.4854 147.822 25.4854C148.228 25.4854 148.847 25.4854 148.847 25.4854L148.847 26.3802C147.724 27.12 146.614 27.4898 145.515 27.4898C144.536 27.4898 143.724 27.1916 143.079 26.595C142.435 25.9984 142.064 25.1393 141.969 24.0177C141.205 25.1393 140.261 25.9985 139.139 26.5951C138.04 27.1916 136.93 27.4899 135.808 27.4899C134.446 27.4899 133.324 27.0604 132.441 26.2013C131.557 25.3423 131.115 24.173 131.115 22.6935C131.115 21.5242 131.402 20.5933 131.975 19.9012C132.572 19.1853 133.288 18.6603 134.124 18.3262C134.984 17.9683 136.226 17.5387 137.85 17.0376C138.853 16.7274 139.652 16.441 140.25 16.1785C140.87 15.8922 141.372 15.4984 141.754 14.9973C142.16 14.4723 142.363 13.7922 142.363 12.9569C142.363 12.0024 142.112 11.2865 141.611 10.8092C141.109 10.332 140.417 10.0933 139.533 10.0933C138.482 10.0933 137.635 10.499 136.99 11.3104C136.369 12.0979 135.987 13.291 135.844 14.8899H131.366C131.653 12.8138 132.512 11.2507 133.945 10.2007C135.402 9.12684 137.253 8.58992 139.497 8.58992C141.599 8.58992 143.199 9.06718 144.297 10.0217C145.396 10.9763 145.945 12.3365 145.945 14.1024V23.4093ZM138.279 24.5548C139.043 24.5548 139.724 24.3995 140.321 24.0893C140.918 23.7552 141.396 23.3376 141.754 22.8365V17.0376C141.253 17.324 140.787 17.5507 140.357 17.7177C139.927 17.8848 139.45 18.0518 138.924 18.2189C138.064 18.5052 137.396 18.7797 136.918 19.0422C136.464 19.2808 136.118 19.6029 135.879 20.0086C135.641 20.4143 135.521 20.9632 135.521 21.6552C135.521 23.5882 136.44 24.5548 138.279 24.5548Z" fill="var(--fill-0, #13223B)"/>
</g>
<g id="Frame 482236047">
<path id="Ellipse 53" d="M0.00132842 7.03728C0.00132866 4.27596 2.23983 2.03746 5.00115 2.03746C7.76248 2.03746 10.001 4.27596 10.001 7.03729C10.001 9.79861 7.76248 12.0371 5.00115 12.0371C2.23983 12.0371 0.00132818 9.79861 0.00132842 7.03728Z" fill="var(--fill-0, #0061FE)"/>
<path id="Ellipse 56" d="M14.93 22.0978C14.93 19.3365 17.1685 17.098 19.9299 17.098C22.6912 17.098 24.9297 19.3365 24.9297 22.0978C24.9297 24.8592 22.6912 27.0977 19.9299 27.0977C17.1685 27.0977 14.93 24.8592 14.93 22.0978Z" fill="var(--fill-0, #0061FE)"/>
<path id="Union" d="M24.9297 10.5976C24.9297 12.7901 23.1523 14.5674 20.9599 14.5674V14.5681C20.9318 14.5681 20.9039 14.5676 20.8759 14.5674L12.4863 14.5705L14.1075 8.52015C15.003 5.17843 16.1146 2.03936 20.6162 2.03906H24.9297V10.5976Z" fill="var(--fill-0, #0061FE)"/>
<path id="Union_2" d="M4.07514 14.5675L12.485 14.5705L10.8639 20.6206L10.8196 20.7762C9.85139 23.9656 8.85838 27.009 4.52372 27.0937L4.31343 27.0955H0V18.5373C0 16.3448 1.77734 14.5675 3.96981 14.5675V14.5664C4.00497 14.5664 4.04008 14.5671 4.07514 14.5675Z" fill="var(--fill-0, #0061FE)"/>
</g>
</g>
</svg>
