<svg preserveAspectRatio="none" width="100%" height="100%" overflow="visible" style="display: block;" viewBox="0 0 642.798 677.368" fill="none" xmlns="http://www.w3.org/2000/svg">
<g id="Group 43896">
<path id="l" d="M20.7534 252.561C19.4298 257.134 17.4694 261.557 15.2581 266.106C16.5348 261.456 18.4987 256.934 20.7534 252.561ZM20.7534 252.561C20.7756 252.484 20.7986 252.406 20.8205 252.33C20.8205 252.33 20.8196 252.406 20.804 252.439C20.8074 252.44 20.8108 252.441 20.8142 252.442C20.7939 252.482 20.7737 252.521 20.7534 252.561ZM20.8354 252.374C20.8622 252.343 20.8894 252.31 20.916 252.279C20.8887 252.336 20.8615 252.393 20.8342 252.45C20.8346 252.424 20.835 252.399 20.8354 252.374ZM85.1323 512.491C84.1877 513.323 83.696 514.44 83.4798 515.725C82.9527 517.721 84.1412 520.259 84.5139 522.328C85.4161 527.239 86.8168 531.913 88.4432 536.52C90.1099 541.248 92.7054 545.761 95.865 549.655C96.4331 550.337 96.9713 550.768 95.4826 550.808C95.4719 550.805 95.461 550.802 95.4504 550.8C95.4489 550.803 95.4477 550.806 95.4463 550.809C95.4316 550.81 95.4167 550.811 95.4016 550.811C95.4111 550.805 95.4207 550.8 95.4302 550.794C95.4145 550.79 95.3988 550.786 95.3831 550.782C95.3928 550.776 95.4026 550.771 95.4123 550.765C91.8752 551.684 92.5746 548.211 91.5181 546.894C89.0931 543.863 88.6551 539.578 86.3375 536.601C83.8239 533.264 84.6523 528.927 80.7418 524.995C82.7689 539.157 88.5202 551.997 97.8982 561.538C98.8206 560.864 97.3018 560.489 98.1099 559.515C105.522 570.931 116.133 582.643 130.531 584.491C126.609 581.471 121.112 581.518 117.721 577.495C119.93 578.222 122.33 578.451 124.294 579.409C130.303 582.362 136.786 583.79 143.114 585.783C145.369 586.483 147.538 584.711 149.737 585.513C150.411 585.756 151.534 585.421 151.836 585.885C153.129 587.823 154.739 588.452 156.448 588.543C159.821 588.66 163.366 588.015 166.768 588.238C168.877 588.379 170.98 588.451 173.08 588.478C181.433 588.583 189.724 587.966 198.069 588.073C207.95 588.184 217.847 588.027 227.722 588.204L186.226 618.665C187.001 616.38 187.777 614.03 188.556 611.671C190.505 605.819 192.891 599.476 193.787 593.444C194.814 586.485 196.117 579.488 197.062 572.443C198.367 562.846 197.329 552.818 200.839 543.237C198.716 535.908 200.343 528.215 199.985 520.628C199.183 502.857 198.498 484.847 195.784 466.798C192.471 444.739 187.497 422.649 181.25 400.82C177.094 386.347 171.901 372.115 166.262 358.023C166.033 357.473 165.974 356.839 165.804 356.137C167.092 356.553 166.966 358.789 168.036 359.375C167.714 357.52 167.094 355.067 166.019 354.483C164.25 353.527 163.728 351.464 163.017 349.774C159.853 342.125 156.444 334.539 152.933 326.978C151.668 324.252 150.341 321.541 148.966 318.84C144.367 309.805 139.296 300.979 134.155 292.191C128.394 282.355 122.458 272.577 116.002 263.123C109.078 252.99 101.631 243.145 93.78 233.606C103.572 246.084 112.679 258.971 121.119 272.235C120.966 272.319 120.806 272.41 120.638 272.472C110.397 257.4 100.183 241.681 87.7315 228.333C87.6287 228.435 87.526 228.537 87.4233 228.638C92.3987 234.944 97.2311 241.372 101.828 247.916C103.236 249.917 104.937 251.804 105.913 253.998C104.579 253.677 103.635 251.356 102.45 250.191C102.481 250.787 103.835 251.786 103.625 252.406C103.469 252.287 103.278 252.2 103.15 252.021C98.827 246.341 94.5095 240.603 90.4324 234.676C89.4824 233.302 88.6096 232.418 87.6179 231.581C84.7037 229.124 80.9672 224.353 79.5596 221.359C78.8426 219.835 79.6928 219.863 80.716 220.439C82.2991 221.308 82.6696 220.895 81.7881 219.048C81.2643 217.949 81.4062 217.72 82.3133 218.184C84.7991 219.457 84.771 219.258 81.2084 215.065C85.4669 218.89 84.8055 217.02 84.9314 215.304C85.1516 212.863 83.4135 208.333 89.1404 211.304C89.8747 211.691 91.1657 211.38 91.1235 209.989C91.0805 208.472 91.1753 206.536 93.868 207.356C94.2664 207.481 95.1205 208.006 95.605 208.46C100.397 213.035 100.694 211.324 100.827 210.159C101.17 207.139 104.006 206.701 107.419 206.494C109.242 206.38 110.32 205.435 112.18 205.266C114.238 205.061 118.382 208.47 121.42 210.885C127.418 215.638 132.919 220.988 138.091 226.594C140.406 229.094 143.078 231.693 145.678 234.007C150.224 238.025 153.122 242.659 157.275 246.909C158.839 248.506 160.183 249.705 161.694 250.673C162.083 253.538 165.722 255.838 167.693 258.424C169.682 261.036 171.811 263.864 174.576 265.753C176.552 267.099 176.087 268.554 177.389 270.183C182.955 277.119 188.103 284.435 193.339 291.633C194.709 293.515 196.083 295.385 197.475 297.234C201.012 301.935 204.139 306.793 206.846 311.613C216.153 328.183 226.514 344.533 234.445 362.053C237.899 369.679 240.672 378.159 245.559 385.586C247.494 388.52 248.457 392.274 249.556 395.786C251.366 401.533 253.073 407.19 255.78 412.832C258.378 418.245 258.817 424.414 261.055 430.161C264.006 437.72 265.763 445.614 267.503 453.535C268.331 457.277 269.012 461.065 271.684 463.821C273.452 465.629 270.651 465.695 271.397 467.931C272.826 472.213 273.884 476.739 274.873 481.2C276.918 490.368 277.643 499.664 277.626 508.959C277.618 513.535 278.243 518.354 279.033 522.97C279.576 526.124 278.276 529.457 280.133 532.312C278.948 533.847 277.601 536.426 278.795 538.233C280.714 541.121 280.047 544.031 280.236 547.141C280.614 553.235 281.479 559.413 279.883 565.49C279.52 566.887 281.049 567.104 280.88 568.837C280.59 572.066 280.442 575.677 280.453 578.614C280.509 586.122 277.163 593.444 278.899 601.197C279.505 603.814 277.939 606.808 277.519 609.766C276.495 616.955 275.817 624.646 272.548 631.345C270.509 635.468 269.245 639.981 268.151 644.397L258.245 674.492L227.722 674.075C224.857 674.283 222.012 674.63 219.213 674.828C215.494 675.086 210.887 674.268 207.511 676.467C205.622 674.244 201.16 676.326 199.1 673.832C197.812 672.27 194.893 673.362 193.491 674C188.456 676.322 184.908 676.211 179.414 675.953C177.341 675.856 175.224 675.568 173.08 675.404C169.542 675.133 165.932 675.198 162.334 677.005C160.996 677.678 158.797 677.291 156.448 676.839C154.195 676.527 151.871 676.133 149.774 675.997C146.441 675.797 142.26 675.521 139.547 673.677C138.662 673.068 137.63 672.862 136.614 673.407C131.735 675.944 126.76 673.089 122.455 671.22C118.57 669.532 115.729 667.027 111.498 668.913C110.136 669.506 106.963 668.288 105.118 667.207C100.156 664.291 100.302 664.253 94.9355 663.307C94.1056 663.151 93.1294 662.701 92.3329 662.254C83.7214 657.547 74.3626 653.884 67.0614 646.652C61.8557 641.564 54.7472 635.264 49.0591 631.892C42.2465 627.883 38.6769 621.772 33.904 616.54C28.2271 610.326 23.2566 603.031 19.5815 595.445C11.4986 578.9 3.90305 561.638 2.44584 543.293C2.30696 541.511 2.32662 539.165 0.910074 538.205C0.0423443 537.627 -0.11526 535.365 0.0678799 534.639C1.67629 528.327 0.898595 522.08 0.604627 515.725C0.48443 513.817 0.378042 511.92 0.465738 510.059C1.32578 492.262 1.4793 474.437 2.3766 456.641C2.8825 446.369 2.82129 436.155 3.55754 425.912C4.35589 414.782 4.52879 403.709 5.17791 392.637C5.63376 384.854 6.28805 376.9 5.9486 369.118C5.81539 366.257 4.72625 362.394 7.30616 360.048C7.34435 360.02 6.57287 351.979 6.58043 351.807C6.55919 351.006 6.48235 350.205 6.58783 349.432C7.96496 337.759 7.76894 326.286 8.45753 314.756C8.6789 310.957 8.93338 307.154 9.20774 303.35C10.1126 287.368 13.8517 271.71 19.7588 257.215C22.1355 251.391 25.5804 246.001 28.6891 239.981C25.4406 243.763 23.7135 249.048 20.916 252.279C25.1749 243.38 30.3993 234.799 36.6315 227.757C42.245 221.284 48.6495 213.759 55.177 210.471C56.1353 209.973 56.9691 208.898 57.7071 208.154C58.4032 207.455 59.0473 206.91 59.6047 206.507C60.7961 205.697 61.5509 205.615 61.5282 206.168C61.4874 207.867 63.1686 206.554 65.6189 204.473C66.4709 203.747 67.6249 202.675 68.2506 202.734C68.7616 202.759 67.9866 203.562 67.2575 204.29C65.9359 205.598 63.7929 207.502 65.2093 207.381C66.2153 207.295 68.0747 206.604 70.1125 204.312C70.2114 204.208 70.5781 204.05 70.9155 203.862C70.8275 204.785 69.1873 206.059 67.8443 207.306C70.4857 206.386 72.508 205.86 71.6195 208.329C71.4201 208.858 71.9419 208.773 70.7521 209.849C68.2851 212.075 68.5352 212.285 70.2336 211.92C72.3922 211.449 75.5338 210.098 73.8747 213.456C73.7517 213.697 73.8912 213.878 74.1352 213.798C76.5133 213.06 77.2756 213.539 76.4366 216.099C75.8782 217.766 79.469 215.449 81.7591 213.773C86.8758 210.032 90.9185 208.81 92.283 210.174C92.2831 210.174 92.2831 210.175 92.2832 210.175C92.7412 210.633 92.9063 211.384 92.7252 212.439C92.2815 214.908 90.8016 218.891 95.0841 216.538C91.3567 221.313 87.6541 226.091 83.9665 230.868C69.1058 250.74 63.0537 274.706 64.5288 296.867C64.6672 299.044 64.8735 301.205 65.1466 303.35C68.276 334.182 70.0665 365.117 72.9416 395.955C73.3828 391.006 72.2301 385.998 72.629 381.106C72.6633 380.705 72.9193 380.419 73.4044 379.303C73.9242 386.952 74.4262 394.601 74.9104 402.25C74.9557 402.965 75.0234 403.795 74.3843 403.222C72.5241 401.592 73.7404 404.396 73.9089 404.539C75.6387 406.027 75.5292 408.487 75.266 410.776C74.9334 413.78 75.7291 416.556 75.9854 419.445C77.1673 432.635 78.1897 445.854 79.1693 459.073C79.5494 464.223 79.3753 469.459 80.4373 474.752C81.0545 477.842 82.881 475.382 83.1786 477.985C83.5138 480.96 80.7447 479.101 81.0205 482.162C81.3028 485.338 80.9344 488.544 81.4941 492.006C82.0738 491.262 82.5164 490.689 83.3974 489.545C81.5728 497.956 83.3959 504.966 85.1323 512.491ZM92.6226 658.792C86.2167 654.441 79.0608 651.806 72.7561 647.455C78.4696 652.649 85.7073 655.656 92.6226 658.792ZM49.257 628.072C53.6061 634.749 60.4423 639.333 67.0453 643.741C60.9413 638.75 54.2789 634.208 49.257 628.072ZM113.615 666.367C126.167 670.026 139.195 672.057 152.191 672.437C152.159 672.171 152.129 671.905 152.098 671.639C139.206 671.253 126.282 669.235 113.831 665.606C113.759 665.86 113.687 666.113 113.615 666.367ZM172.461 671.551C167.712 671.551 162.963 671.912 158.214 672.041C162.992 672.36 167.798 672.938 172.461 671.551ZM46.4851 265.812C52.5904 253.558 57.1208 242.858 63.3346 233.009C55.0268 241.775 49.6882 253.06 46.4851 265.812ZM148.885 306.867C150.378 310.672 151.486 313.606 153.942 315.789C154.264 316.076 154.608 316.349 154.98 316.61C154.789 316.234 154.602 315.864 154.417 315.498C152.856 312.402 151.454 309.654 148.885 306.867ZM175.056 360.33C176.277 367.806 179.047 373.431 182.451 378.716C180.67 372.529 178.222 366.695 175.056 360.33ZM153.551 325.128C153.924 325.953 154.293 326.809 154.767 326.911C155.157 326.998 155.42 326.529 155.672 326.191C155.82 325.947 155.686 325.328 155.302 325.078C152.691 323.424 152.45 320.111 151.118 317.521C150.945 317.183 150.754 316.858 150.539 316.551C150.824 316.791 151.064 317.087 151.282 317.42C152.096 318.663 152.594 320.413 154.037 321.69C153.324 320.068 152.493 318.6 151.616 317.215C148.892 312.934 145.792 309.474 144.026 304.705C144.025 304.695 144.024 304.684 144.022 304.674C143.926 307.23 145.595 308.718 146.525 310.566C147.772 313.062 149.011 315.558 150.227 318.067C151.366 320.415 152.479 322.767 153.551 325.128ZM132.719 285.558C135.006 290.188 137.357 293.798 139.775 297.372C137.384 293.79 136.438 289.265 132.719 285.558ZM205.37 551.853C205.23 551.929 204.979 553.035 205.547 553.387C206.154 553.766 206.665 553.394 207.051 552.7C208.401 550.257 208.07 547.395 208.95 543.577C208.943 543.577 208.937 543.577 208.93 543.577C208.038 544.42 207.683 544.575 207.578 544.888C206.781 547.185 208.248 550.605 205.37 551.853ZM164.804 348.103C163.119 343.937 161.92 339.401 159.114 335.806C161.055 339.863 162.972 343.999 164.804 348.103ZM167.203 354.251C168.6 358.147 169.716 362.102 172.13 365.444C170.636 361.61 169.877 357.385 167.203 354.251ZM196.74 447.136C197.605 449.411 195.851 451.907 196.643 452.831C199.321 455.974 198.363 459.997 199.111 463.49C199.611 457.97 199.715 452.375 196.74 447.136ZM176.472 377.582C177.749 380.686 176.034 383.348 177.851 386.797C179.953 383.963 177.702 380.662 176.472 377.582ZM199.141 475.001C199.182 475.154 199.241 475.304 199.277 475.431C200.67 479.667 200.808 484.048 200.947 488.451C200.995 490.311 201.947 491.229 202.859 491.229C203.939 491.23 203.47 489.536 203.409 488.552C203.107 482.231 201.404 476.107 200.946 469.741C200.803 467.745 199.778 465.733 199.138 463.777C197.613 463.982 198.762 465.485 198.673 466.457C198.426 468.903 199.87 470.201 200.45 472.034C201.239 474.525 200.783 475.198 199.141 475.001ZM201.846 538.444C200.387 539.033 201.485 539.32 201.969 539.287C202.531 539.254 202.527 540.739 203.353 539.935C203.323 539.371 203.235 538.755 203.28 538.136C203.305 537.594 203.176 536.874 203.737 536.602C203.737 536.61 203.737 536.619 203.737 536.628C205.526 542.628 201.89 548.783 203.392 554.79C204.823 542.446 205.627 529.799 204.206 517.19C204.106 516.278 203.608 515.425 203.956 514.471C205.836 509.184 203.984 503.636 203.949 498.242C203.938 496.539 203.139 495.86 201.794 494.908C202.941 500.954 203.549 506.44 202.412 511.894C202.235 512.747 202.364 513.746 202.411 514.657C202.851 521.78 203.272 528.833 202.776 535.875C202.694 536.936 203.012 537.987 201.846 538.444ZM97.0115 219.192C95.9421 220.878 91.939 226.296 86.5847 233.486C71.8612 251.15 68.166 286.447 68.5862 288.507C67.9984 273.577 72.2365 257.881 79.4649 243.323C81.2599 239.703 83.2839 236.08 85.7257 232.628C88.899 228.348 92.2768 224.133 96.0306 220.074C96.3183 219.755 96.6249 219.534 97.0115 219.192ZM200.423 566.183C199.679 574.742 198.529 583.161 197.022 591.387C196.619 593.541 195.966 595.682 197.14 597.546C197.141 597.539 197.143 597.531 197.144 597.524C198.248 596.866 198.232 595.554 198.454 594.434C200.342 585.316 201.717 575.944 202.737 566.45C202.855 565.218 203.341 563.715 202.117 563.461C200.66 563.17 200.546 564.709 200.423 566.183ZM138.134 301.559C133.392 293.807 128.717 285.919 124.28 277.833C129.556 285.318 134.08 293.313 138.134 301.559ZM172.461 592.722C168.656 591.723 164.822 593.073 160.988 592.47C164.85 594.521 168.656 593.314 172.461 592.722ZM218.755 591.69C220.901 593.19 223.277 593.553 226.195 592.973C226.698 592.874 227.208 592.793 227.722 592.731L190.545 620.022C190.907 617.742 191.777 615.472 192.994 613.346C193.295 612.813 194.213 612.463 193.347 611.81C192.481 611.16 192.036 611.858 191.767 612.789C191.088 615.145 190.373 617.471 189.631 619.735L227.722 591.773C224.733 591.743 221.744 591.715 218.755 591.69ZM192.289 609.653C194.854 606.14 196.525 602.152 197.116 597.718C193.062 600.724 194.485 605.936 192.289 609.653ZM197.217 597.664C197.218 597.656 197.22 597.648 197.222 597.64C197.217 597.643 197.212 597.647 197.207 597.65C197.21 597.655 197.214 597.659 197.217 597.664ZM151.333 328.45C151.512 328.345 151.69 328.24 151.869 328.136C158.193 339.781 162.578 352.329 167.359 364.583C162.497 352.389 157.152 340.333 151.333 328.45ZM194.284 465.746C189.825 445.103 186.176 424.009 179.706 403.481C179.711 403.479 179.716 403.477 179.722 403.475C180.048 403.381 180.382 403.256 180.701 403.137C186.695 423.86 191.243 444.815 194.284 465.746ZM168.987 370.898C169.148 370.853 169.313 370.777 169.478 370.701C173.273 380.595 176.736 390.535 179.894 400.593C179.72 400.631 179.523 400.648 179.342 400.717C176.203 390.686 172.761 380.769 168.987 370.898ZM77.2511 474.409C76.8371 468.029 77.6113 461.676 75.3578 455.267C75.6696 461.648 75.97 468.029 76.2589 474.409C76.5896 474.409 76.9203 474.409 77.2511 474.409ZM118.96 274.978C118.342 273.833 117.886 274.988 117.499 273.821C115.574 268.048 111.195 263.91 107.963 259.068C106.205 256.446 105.776 255.31 105.942 254.052C109.88 259.586 114.047 265.037 117.116 271.065C117.715 272.261 118.484 272.597 119.074 273.59C119.991 275.148 119.644 275.241 118.96 274.978ZM105.943 253.986C105.945 253.984 105.948 253.982 105.95 253.979C105.949 253.988 105.949 253.998 105.948 254.006C105.945 254.006 105.942 254.005 105.939 254.004C105.94 253.998 105.941 253.992 105.943 253.986ZM105.948 254.006C105.952 254.007 105.955 254.008 105.959 254.009C105.954 254.012 105.95 254.016 105.945 254.02C105.946 254.015 105.947 254.011 105.948 254.006ZM105.913 253.998C105.921 254 105.93 254.002 105.939 254.004C105.935 254.014 105.932 254.024 105.929 254.034C105.924 254.022 105.918 254.01 105.913 253.998ZM105.945 254.02C105.944 254.031 105.943 254.042 105.942 254.052C105.938 254.046 105.934 254.04 105.929 254.034C105.935 254.029 105.94 254.025 105.945 254.02ZM133.478 584.604C132.969 584.382 132.053 584.098 131.755 584.979C131.458 585.862 132.319 585.896 132.967 586.078C136.406 587.099 139.887 587.972 143.425 588.557C140.499 585.894 136.784 586.027 133.478 584.604ZM130.344 295.205C126.657 288.884 122.474 282.907 119.106 276.295C118.912 275.906 119.01 275.454 118.989 275.033C120.853 276.666 122.419 278.834 123.909 281.469C126.204 285.54 128.569 289.575 130.808 293.684C131.254 294.498 131.87 295.494 131.386 295.899C131.134 296.108 130.695 295.819 130.344 295.205ZM69.9646 345.284C71.4611 348.746 72.3699 358.073 71.6596 363.91C70.451 357.158 70.9589 351.149 69.9646 345.284ZM81.1329 523.946C82.268 521.704 82.3326 520.003 81.0316 517.76C79.3705 519.87 80.1096 521.776 81.1329 523.946ZM80.2286 485.053C80.2376 484.109 80.1384 483.164 79.4902 483.079C78.6979 482.964 78.2036 484.309 78.5254 485.082C80.1786 488.973 78.6238 493.35 80.154 498.472C80.1536 498.462 80.1531 498.452 80.1527 498.443C80.1932 493.15 80.2043 489.087 80.2286 485.053ZM156.183 348.08C154.002 342.112 151.073 336.62 148.63 330.812C147.332 327.73 145.632 324.767 144.277 321.715C143.213 319.32 142.365 316.877 142.056 314.28C142.943 316.649 143.932 318.976 144.977 321.286C148.982 330.17 153.873 338.707 156.183 348.08ZM195.925 493.22C196.158 493.186 196.39 493.153 196.622 493.119C197.645 503.308 198.293 513.452 198.543 523.545C198.302 523.56 198.06 523.575 197.818 523.59C197.577 513.518 196.938 503.392 195.925 493.22ZM118.902 274.957C118.884 274.942 118.866 274.924 118.848 274.908C118.848 274.908 118.905 274.949 118.942 274.972C118.948 274.974 118.954 274.976 118.96 274.978C118.961 274.98 118.962 274.982 118.963 274.984C118.972 274.988 118.976 274.989 118.973 274.984C118.978 274.992 118.983 275 118.988 275.007C118.989 275.016 118.988 275.024 118.989 275.033C118.973 275.019 118.958 275.005 118.942 274.992C118.912 274.974 118.883 274.956 118.854 274.938C118.87 274.945 118.886 274.951 118.902 274.957ZM140.636 314.735C139.325 311.083 136.48 308.113 135.901 304.173C137.99 307.528 140.366 310.776 140.636 314.735ZM162.105 585.8C162.934 585.757 163.879 585.898 163.736 586.754C163.621 587.57 162.763 587.613 161.876 587.533C160.058 587.359 158.258 587.187 156.448 587.015C156.154 586.97 155.861 586.924 155.568 586.876C155.574 586.876 155.579 586.876 155.585 586.876C155.623 586.632 155.644 586.408 155.664 586.163C155.925 586.142 156.186 586.119 156.448 586.094C158.323 585.984 160.214 585.871 162.105 585.8ZM195.978 562.01C195.288 556.588 197.027 551.364 197.114 545.981C198 551.39 196.579 556.734 195.978 562.01ZM164.767 369.535C164.286 369.79 163.61 369.314 163.472 368.613C162.656 364.293 160.782 360.454 159.082 356.454C158.886 356.014 159.003 355.384 158.944 354.268C162.203 358.347 163.013 363.338 165.103 367.486C165.556 368.367 165.315 369.248 164.767 369.535ZM171.791 393.124C169.886 386.555 167.884 379.971 165.551 373.479C165.077 372.15 164.928 371.282 165.483 370.964C166.426 370.437 166.564 372.166 166.833 372.978C168.919 379.137 170.783 385.298 172.549 391.529C172.546 391.52 172.543 391.512 172.54 391.503C172.299 392.032 172.042 392.566 171.791 393.124ZM109.008 563.22C111.368 565.133 113.156 567.526 115.631 570.215C113.601 569.769 112.247 569.408 110.838 569C110.402 570.593 112.274 570.531 112.305 572.134C109.245 569.684 106.289 567.568 104.076 564.593C101.505 561.121 98.7317 557.74 95.8452 554.466C95.8272 554.463 95.8093 554.461 95.7914 554.458C94.5296 552.99 94.8765 552.065 95.4463 550.809C95.4585 550.809 95.4706 550.808 95.4826 550.808C97.6599 551.384 99.7451 551.749 98.7695 554.692C98.4784 555.643 99.5666 555.484 99.9728 555.842C102.264 557.865 105.25 558.954 106.118 562.269C106.395 563.298 108.261 562.616 109.008 563.22ZM178.237 411.285C174.727 405.248 173.197 398.661 172.554 391.586C175.091 397.913 176.67 404.609 178.237 411.285ZM172.549 391.529C172.55 391.548 172.552 391.567 172.554 391.586C172.547 391.569 172.541 391.552 172.534 391.535C172.539 391.533 172.544 391.531 172.549 391.529ZM189.242 465.827C188.23 464.829 186.844 464.718 187.077 462.624C187.813 455.829 184.805 449.911 183.637 443.568C183.563 443.129 183.506 442.686 183.414 442.17C184.595 442.329 183.849 444.158 185.032 444.752C184.638 441.387 184.257 438.151 183.074 435.116C182.915 434.727 182.329 434.385 182.343 434.217C182.53 432.362 180.873 429.44 182.14 428.794C183.387 428.128 183.748 431.388 183.99 432.656C183.992 432.664 183.994 432.673 183.996 432.681C186.18 443.605 188.442 454.439 189.242 465.827ZM68.7062 293.187C68.9288 296.682 69.8074 300.033 70.5026 303.35C70.8718 305.735 71.134 308.151 71.15 310.636C71.1531 311.523 71.5549 312.982 70.926 313.154C70.3482 313.325 70.0977 312.066 70.0084 311.037C70.0041 311.037 69.9998 311.037 69.9955 311.037C69.7731 308.474 69.5486 305.912 69.322 303.35C68.9277 299.999 68.7201 296.605 68.7062 293.187ZM74.6219 346.429C74.0622 351.179 76.5655 355.556 76.1879 360.249C76.1935 360.258 76.1992 360.268 76.2048 360.277C76.0396 362.194 76.2036 364.397 75.2036 366.142C73.8204 359.333 74.2003 353.181 73.4782 347.087C73.3885 346.314 73.6075 345.371 74.1335 345.457C74.2901 345.485 74.6473 346.229 74.6219 346.429ZM76.1859 375.555C76.5044 378.96 79.9537 382.194 76.7711 385.541C75.3988 382.222 76.3665 378.903 76.1859 375.555ZM76.8674 388.802C78.4834 393.809 77.7002 397.844 78.1711 401.735C77.1612 397.93 76.6091 394.067 76.8674 388.802ZM95.4727 550.749C95.4685 550.758 95.4649 550.768 95.4608 550.777C95.4861 550.762 95.5115 550.748 95.5369 550.733C95.5155 550.739 95.4937 550.743 95.4727 550.749ZM72.9905 328.261C73.1095 332.009 74.3094 335.958 73.5034 340.707C71.8785 335.9 72.8394 331.922 72.1294 328.088C72.1044 327.945 72.3311 327.459 72.4162 327.516C72.6138 327.631 72.9569 328.032 72.9745 328.232C72.9798 328.242 72.9851 328.251 72.9905 328.261ZM133.446 576.809C135.449 577.134 135.705 579.455 137.742 578.907C137.749 578.902 137.757 578.897 137.764 578.892C137.622 579.316 137.464 579.735 137.321 580.159C136.854 580.114 136.379 580.147 135.926 580.034C129.462 578.456 123.16 575.905 117.211 572.484C116.5 572.072 115.923 571.582 116.394 570.74C117.106 569.459 117.814 570.11 118.506 570.53C121.636 572.429 125.063 573.697 128.136 575.494C129.801 576.472 131.779 576.528 133.446 576.809ZM189.4 475.86C188.532 472.574 187.509 469.925 187.412 466.963C189.736 467.605 190.988 471.92 189.4 475.86ZM191.191 502.125C189.889 500.164 190.579 498.035 190.822 496.145C190.822 496.153 190.823 496.162 190.824 496.17C191.316 492.419 191.283 488.731 190.083 485.151C192.898 490.214 192.458 496.238 193.084 501.892C193.174 502.834 193.056 503.824 192.144 503.931C191.12 504.027 191.508 502.6 191.191 502.125ZM192.63 539.705C191.737 538.149 189.631 538.273 190.841 536.504C192.522 534.033 191.876 531.646 191.354 529.473C190.598 526.387 192.625 523.912 192.011 520.806C191.246 516.846 192.858 512.468 191.413 508.389C191.1 507.527 191.219 506.411 192.157 506.383C193.094 506.355 193.092 507.492 193.146 508.412C193.37 513.154 193.835 517.948 193.407 522.603C193.401 522.612 193.395 522.621 193.389 522.629C192.898 528.106 193.588 533.513 192.63 539.705ZM161.161 578.442C162.133 577.828 162.505 578.437 162.677 578.641C164.308 580.451 166.711 580.59 168.942 579.732C171.031 578.934 171.003 580.322 171.203 580.729C171.747 581.81 169.973 581.75 169.4 581.75C165.105 581.872 160.762 582.163 156.448 582.262C154.597 582.335 152.781 582.23 151.024 581.814C148.383 581.179 145.781 582.096 143.3 581.253C143.296 581.246 143.292 581.238 143.288 581.23C141.367 580.579 138.677 581.204 138.147 578.324C138.949 576.865 139.481 581.01 139.994 577.415C140.097 576.731 141.01 576.909 141.557 577.007C145.035 577.584 148.331 578.286 151.8 579.701C153.215 580.272 154.863 580.621 156.448 580.167C158.109 579.897 159.715 579.361 161.161 578.442ZM190.58 562.873C188.605 559.346 190.374 555.933 191.089 553.326C192.089 549.614 190.531 546.756 190.948 543.395C191.035 542.62 190.375 541.435 191.33 541.232C192.247 541.024 192.66 542.183 192.62 543.364C192.626 543.373 192.632 543.381 192.638 543.389C192.393 549.761 193.029 556.207 190.58 562.873ZM197.326 579.636C197.755 579.862 198.384 577.892 199.1 579.545C199.328 580.097 199.013 580.685 197.84 580.841C190.029 581.896 182.161 581.955 174.264 581.381C174.007 581.36 173.806 580.871 173.177 580.096C179.844 579.995 185.795 578.827 192.118 579.243C193.835 579.353 195.609 578.751 197.326 579.636ZM209.801 578.364C212.776 577.803 213.034 580.102 215.093 580.447C210.802 582.395 207.11 582.451 204.106 578.46C206.452 579.556 208.141 578.675 209.801 578.364ZM180.927 599.708C180.967 598.647 180.25 596.468 183.099 597.303C183.792 597.519 183.915 596.896 183.672 596.332C183.536 596.024 183.236 595.8 183.011 595.522C185.685 592.675 184.926 588.708 185.942 585.292C186.11 584.697 186.291 583.764 187.148 584.08C187.661 584.274 187.722 584.742 187.602 585.422C185.898 595.512 183.661 605.273 180.809 614.505C180.796 614.501 180.783 614.497 180.77 614.493C180.675 614.791 180.328 615.014 179.885 615.526C179.123 613.555 179.008 611.336 179.996 610.131C182.169 607.497 181.247 604.03 182.784 601.286C183.122 600.686 183.993 599.48 182.519 599.069C181.558 598.796 181.135 599.268 180.927 599.708ZM180.752 600.2C180.787 600.082 180.837 599.898 180.927 599.708C180.919 599.941 180.876 600.119 180.752 600.2Z" fill="var(--stroke-0, #FDEEC2)"/>
<path id="t" d="M190.455 135.414C192.504 139.616 193.828 144.196 194.832 149.018C193.028 144.687 191.678 140.089 190.455 135.414ZM190.455 135.414C190.42 135.343 190.386 135.272 190.351 135.202C190.351 135.202 190.401 135.258 190.411 135.291C190.415 135.29 190.418 135.289 190.421 135.287C190.432 135.329 190.444 135.372 190.455 135.414ZM190.392 135.224C190.392 135.184 190.39 135.142 190.389 135.102C190.406 135.161 190.424 135.22 190.441 135.28C190.425 135.261 190.408 135.242 190.392 135.224ZM420.066 310.725C420.652 315.056 427.19 316.997 431.495 319.444C438.743 323.558 446.005 327.37 453.353 331.246C460.849 335.199 468.893 338.692 476.875 341.561C478.29 342.057 479.402 342.31 477.739 342.97C477.723 342.972 477.708 342.974 477.693 342.975C477.695 342.979 477.697 342.983 477.699 342.987C477.683 342.994 477.667 343.001 477.65 343.008C477.655 342.998 477.659 342.988 477.664 342.978C477.642 342.98 477.619 342.982 477.597 342.984C477.601 342.974 477.606 342.964 477.611 342.954C474.65 345.447 471.664 341.485 468.975 340.571C463.006 338.549 457.381 334.273 451.574 332.586C445.305 330.734 440.283 325.732 432.448 324.829C452.039 336.778 471.347 346.693 491.548 353.503C492.043 352.471 489.852 352.606 489.897 351.29C510.259 360.841 530.996 370.569 553.035 371.348C545.932 368.541 537.787 369.19 530.643 365.55C534.259 365.969 537.955 365.904 541.412 366.689C551.91 369.093 562.498 370.2 572.668 372.046C576.194 372.686 579.386 370.877 582.818 371.655C583.887 371.891 585.581 371.547 586.066 372.009C589.013 374.787 592.71 374.847 596.27 374.528L553.887 417.761C553.746 415.165 553.522 412.54 553.668 409.984C553.809 407.555 553.881 405.132 553.907 402.715C554.013 393.095 553.396 383.546 553.503 373.935C553.648 359.073 553.337 344.179 553.906 329.351C554.241 320.753 555.185 311.736 555.034 303.51C555.032 303.448 555.03 303.386 555.028 303.324C554.793 297.244 554.386 291.185 553.17 285.255C551.491 277.087 546.885 270.199 545.418 261.496C541.149 258.131 538.698 253.514 535.277 249.387C534.141 248.101 532.991 246.832 531.808 245.604C516.042 229.216 501.369 211.873 486.058 195.03C467.289 174.376 448.617 153.576 430.277 132.539C418.113 118.606 405.703 104.872 393.509 90.9705C393.024 90.4306 392.673 89.7555 392.182 89.035C393.68 89.1683 394.575 91.628 395.935 91.9926C394.746 90.0594 393.009 87.5564 391.656 87.186C389.421 86.5774 387.985 84.471 386.506 82.7814C385.059 81.1123 383.611 79.4443 382.163 77.7763C378.24 73.0682 373.84 68.7408 369.034 64.8182C359.33 56.8935 347.504 51.4071 334.988 48.1218C324.184 45.2816 312.693 44.1092 301.216 45.2037C288.913 46.37 276.67 50.0488 265.445 56.0252C280.02 48.6806 296.041 45.1949 311.653 45.5721C311.638 45.7458 311.625 45.9303 311.584 46.1037C293.652 46.1665 274.409 50.3317 259.049 61.2205C259.136 61.3361 259.222 61.4518 259.309 61.5674C266.367 57.3966 273.875 54.1392 281.545 51.9514C283.889 51.2776 286.256 50.3665 288.64 50.3139C287.845 51.4129 285.374 51.422 283.884 52.1342C284.448 52.3104 285.843 51.4051 286.342 51.8301C286.178 51.9309 286.03 52.0772 285.821 52.1309C279.076 54.0905 272.429 56.6299 265.82 59.5316C264.284 60.213 263.264 60.9279 262.274 61.7841C259.368 64.2621 254.252 67.531 251.154 68.8621C249.574 69.5294 249.644 68.6758 250.298 67.6568C251.292 66.0907 250.915 65.6811 248.959 66.5197C247.798 67.0251 247.57 66.8812 248.114 65.9597C249.629 63.4721 249.41 63.3927 244.82 67.0797C249.08 62.6838 247.143 63.3721 245.359 63.2108C242.863 62.9349 237.826 64.9608 241.588 58.7932C242.081 58.014 241.924 56.6367 240.428 56.6978C238.806 56.7608 236.699 56.7404 237.964 53.799C238.158 53.363 238.855 52.431 239.435 51.8971C245.262 46.7267 243.571 46.4471 242.29 46.257C239.039 45.8381 239.105 42.7659 239.778 38.9966C240.132 36.9904 239.357 35.7828 239.709 33.7254C240.078 31.4225 245.397 26.9766 249.432 23.9933C257.339 18.0338 266.364 13.3877 275.789 10.0489C279.997 8.54457 284.595 6.91665 288.921 5.43513C296.464 2.83743 303.696 2.50963 311.445 1.41182C314.367 1.00127 316.707 0.61907 318.95 -4.76837e-07C322.293 1.40925 327.662 0.0714545 332.011 0.420518C336.377 0.753795 341.053 1.32774 345.411 0.952459C348.524 0.687799 349.51 2.14187 352.256 2.63535C367.081 5.31873 381.456 10.9628 394.95 17.9172C402.084 21.5849 408.595 26.0563 414.326 30.985C416.962 33.247 419.492 35.5317 422.008 37.9322C435.078 50.278 449.071 61.8092 462.117 74.1817C468.673 80.3942 475.146 87.5754 483.187 92.6762C486.355 94.68 489.081 97.8739 491.798 100.703C496.279 105.355 500.713 109.914 506.09 113.904C511.253 117.734 514.944 123.178 520.092 127.303C526.85 132.708 532.869 138.853 539.038 144.893C541.937 147.725 544.835 150.699 548.716 151.571C551.277 152.132 548.994 153.764 550.985 155.269C554.81 158.153 558.486 161.374 562.123 164.54C569.606 171.037 576.234 178.157 582.567 185.617C584.998 188.485 587.92 191.24 590.909 193.755C591.955 194.674 592.989 195.587 594.007 196.491C597.343 199.453 599.301 203.902 603.19 205.934C603.544 208.338 604.557 211.983 606.98 213.373C610.895 215.621 612.556 219.369 614.972 222.971C619.735 230.068 624.489 237.312 626.478 245.734C626.927 247.654 628.432 247.266 629.211 249.56C630.683 253.836 632.299 258.577 633.609 262.407C637.037 272.325 636.34 283.095 639.904 292.95C641.003 295.96 640.412 299.837 640.326 303.51C640.316 303.832 640.316 304.154 640.329 304.472C640.617 311.755 641.606 319.235 640.134 326.352C638.505 334.129 639.791 342.005 640.258 349.583C640.516 353.867 639.697 359.173 641.897 363.061C639.673 365.236 641.756 370.376 639.261 372.748C637.7 374.231 638.792 377.592 639.429 379.207C641.751 385.006 641.64 389.093 641.383 395.419C641.285 397.807 640.998 400.245 640.834 402.715C640.563 406.789 640.628 410.946 642.435 415.091C642.744 415.798 642.829 416.714 642.788 417.761L642.661 462.652L598.035 463.411C594.667 463.372 590.124 462.342 586.389 462.161C583.086 462.016 578.907 461.874 576.158 460.16C575.267 459.593 574.241 459.439 573.269 460.039C568.578 462.831 563.644 460.372 559.266 458.944C555.317 457.652 552.323 455.515 548.463 457.959C547.211 458.727 544.062 457.993 542.162 457.233C537.03 455.191 537.097 455.119 531.918 455.252C531.11 455.265 530.12 455.029 529.291 454.761C520.308 451.98 510.947 450.968 502.289 446.506C496.162 443.365 487.692 440.141 481.46 439.444C474.093 438.635 468.667 434.884 462.378 432.705C454.96 430.145 447.541 426.783 440.739 422.874C425.82 414.332 410.184 407.257 396.641 396.948C395.33 395.942 393.706 394.494 392.122 395.003C391.166 395.319 389.469 394.094 389.062 393.524C384.152 386.536 375.864 383.53 369.418 378.628C351.684 365.159 334.495 351.181 318.731 335.65C309.662 326.727 300.522 317.889 292.325 308.236C285.361 300.038 278.426 291.966 271.817 283.564C269.947 281.187 268.123 278.807 266.322 276.382C260.596 268.667 255.125 260.532 249.196 253.002C247.011 250.25 243.344 246.987 243.808 243.145C243.801 243.105 237.574 235.395 237.478 235.199C236.911 234.393 236.3 233.618 235.863 232.769C229.068 220.045 221.601 208.117 215.345 195.382C206.466 177.332 199.127 158.481 192.755 139.484C190.795 133.626 189.639 127.413 187.464 121.043C187.933 125.944 190.329 130.89 190.389 135.102C187.651 125.82 185.091 116.303 183.657 107.029C183.182 103.98 182.541 100.783 181.974 97.6126L178.752 80.7803L188.095 73.2136C192.382 69.8641 196.7 66.6207 200.842 64.767C201.803 64.3299 202.644 63.3064 203.377 62.5939C205.773 60.2838 207.434 59.662 207.339 60.499C207.167 62.3298 209.075 60.7902 211.869 58.3653C212.841 57.5197 214.164 56.2785 214.832 56.2945C215.38 56.2831 214.485 57.2061 213.646 58.0441C212.125 59.5519 209.675 61.7622 211.208 61.525C212.297 61.3556 214.349 60.4716 216.716 57.8516C216.83 57.7323 217.236 57.5339 217.614 57.306C217.449 58.3063 215.588 59.8009 214.048 61.2439C216.96 60.0545 219.175 59.3346 218.032 62.0591C217.777 62.6428 218.345 62.5116 216.984 63.7593C214.161 66.3417 214.414 66.5488 216.269 66.0272C218.627 65.3563 222.109 63.665 220.069 67.4037C219.919 67.6725 220.055 67.856 220.324 67.7518C222.938 66.7781 223.722 67.2355 222.625 70.053C221.898 71.8888 225.937 69.1235 228.528 67.1475C234.316 62.7346 238.758 61.1135 240.123 62.4777C240.123 62.4777 240.123 62.4778 240.123 62.4779C240.581 62.936 240.701 63.7321 240.427 64.88C239.762 67.5705 237.868 71.9674 242.653 69.111C233.886 79.9793 225.227 90.849 216.587 101.706L220.542 85.9434C230.194 108.059 241.686 129.076 254.295 149.382C273.768 180.639 295.509 210.385 321.039 236.225C317.973 231.847 313.698 228.361 310.779 223.943C310.542 223.581 310.554 223.179 310.207 221.933C315.093 227.523 320.094 232.998 325.206 238.355C325.774 238.951 326.343 239.545 326.913 240.137C327.448 240.692 328.081 241.323 327.195 241.273C324.64 241.153 327.532 242.653 327.761 242.657C330.115 242.736 331.76 244.786 333.189 246.786C335.089 249.419 337.687 251.093 339.97 253.181C350.432 262.732 361.195 271.897 372.289 280.545C376.597 283.904 380.707 287.695 385.674 290.455C388.576 292.063 387.744 289.002 390.051 290.518C392.688 292.242 389.42 293.154 392.107 294.972C394.885 296.844 397.327 299.237 400.565 301.015C400.297 300.078 400.088 299.36 399.677 297.926C405.543 304.78 412.613 307.674 420.066 310.725ZM528.911 451.324C521.99 448.443 514.684 447.734 507.729 445.496C514.37 448.71 521.746 449.735 528.911 451.324ZM480.246 435.912C486.55 440.116 494.113 441.767 501.449 443.772C494.4 441.057 486.942 439.35 480.246 435.912ZM550.194 455.152C562.774 457.109 575.633 458.327 588.764 458.567C588.729 458.301 588.695 458.036 588.66 457.77C575.608 457.527 562.823 456.315 550.31 454.37C550.271 454.631 550.233 454.892 550.194 455.152ZM636.981 403.427C636.981 408.205 637.256 412.983 637.412 417.761L637.3 457.366L597.928 458.036C597.114 458.075 596.299 458.107 595.483 458.132C596.3 458.164 597.116 458.196 597.932 458.223L637.486 457.55L637.599 417.761C637.904 412.945 638.193 408.123 636.981 403.427ZM218.594 128.502C214.619 114.166 209.374 102.411 204.874 90.6839L204.801 90.3025L205.012 90.1311C205.508 89.5562 206.003 88.9826 206.498 88.4104C205.911 88.8927 205.329 89.3791 204.751 89.8698L204.398 90.1555L204.52 90.7909C207.255 103.527 212.291 115.667 218.594 128.502ZM355.597 49.8116C359.512 52.3748 362.163 54.4294 366.091 54.7821C362.719 52.5911 359.787 50.7168 355.597 49.8116ZM403.462 91.1777C408.128 98.86 413.662 104.091 419.685 108.646C414.805 102.622 409.568 97.1408 403.462 91.1777ZM368.804 62.9123C369.485 63.4655 370.163 64.0564 370.624 63.9362C371.006 63.84 371.048 63.3088 371.131 62.8973C371.161 62.614 370.781 62.1237 370.33 62.0735C366.932 61.7518 365.188 58.282 362.248 56.9897C363.968 57.255 365.382 59.1295 367.712 59.6735C362.014 55.2439 355.941 54.5181 350.404 50.9564C350.397 50.9489 350.39 50.9414 350.383 50.9338C351.824 53.0071 353.996 53.2113 355.769 54.1918C360.384 56.7595 364.771 59.6429 368.804 62.9123ZM329.238 44.6061C334.22 46.0157 338.376 46.9612 342.535 48.0235C338.425 46.9446 334.533 44.3401 329.238 44.6061ZM553.196 265.627C553.107 265.753 553.363 266.732 554.014 266.741C554.711 266.754 555.004 266.22 555.04 265.483C555.158 262.909 553.535 260.744 552.391 257.342C552.385 257.345 552.38 257.349 552.374 257.352C552.042 258.485 551.813 258.79 551.877 259.088C552.311 261.247 555.179 263.259 553.196 265.627ZM387.606 80.5487C386.344 79.0734 385.144 77.5354 383.924 76.0159C382.204 73.7522 380.308 71.625 377.858 70.1645C379.896 72.1021 381.838 74.1199 383.704 76.236C385.004 77.674 386.305 79.1116 387.606 80.5487ZM392.756 86.644C395.918 90.5191 398.898 94.5295 402.905 97.4657C399.588 93.7465 396.873 89.3772 392.756 86.644ZM473.291 174.571C475.576 176.48 475.695 179.855 477.039 180.422C481.593 182.358 483.47 186.838 486.616 190.003C483.148 184.179 479.459 178.522 473.291 174.571ZM413.19 109.269C416.028 112.21 415.708 115.606 419.311 118.713C419.889 115.012 415.976 112.215 413.19 109.269ZM494.932 201.534C495.08 201.666 495.241 201.785 495.366 201.893C499.646 205.349 503.085 209.646 506.548 213.872C508.01 215.671 509.515 216.03 510.27 215.509C511.164 214.893 509.474 213.508 508.676 212.582C503.624 206.589 497.653 201.468 492.659 195.325C491.097 193.404 488.803 191.945 486.843 190.28C485.646 191.253 487.733 192.202 488.339 193.214C489.862 195.792 492.057 196.348 493.886 197.874C496.378 199.949 496.49 200.862 494.932 201.534ZM543.951 257.518C543.05 258.775 544.085 258.344 544.468 258.045C544.912 257.697 545.64 258.77 545.924 257.721C545.62 257.329 545.241 256.937 544.966 256.468C544.713 256.065 544.244 255.632 544.557 255.108C544.562 255.114 544.566 255.12 544.571 255.126C549.162 258.43 548.942 264.965 552.7 268.847C549.597 260.523 545.029 252.496 538.652 246.012C536.526 243.859 534.367 241.737 532.168 239.652C531.333 238.856 530.239 238.365 529.726 237.247C526.803 231.036 520.909 226.912 516.621 221.693C515.277 220.054 514.106 219.874 512.254 219.722C517.901 224.933 522.785 229.835 526.378 235.748C526.943 236.675 527.88 237.556 528.674 238.393C531.552 241.382 534.458 244.343 537.331 247.334C539.609 249.75 541.686 252.349 543.411 255.165C543.887 255.956 544.675 256.52 543.951 257.518ZM244.526 71.8212C242.467 74.8599 231.554 88.8611 219.392 104.511L224.338 84.7946C235.002 108.995 250.779 134.464 251.767 137.007C241.135 120.702 232.068 102.875 223.576 85.0251L218.829 103.948C219.701 102.785 220.568 101.62 221.431 100.455C228.234 91.2268 235.061 81.7437 243.403 72.8439C243.737 72.4787 244.084 72.2182 244.526 71.8212ZM554.312 279.092C556.547 286.204 557.704 293.619 557.822 301.029C557.831 301.862 557.787 302.703 557.85 303.51C557.933 305.105 558.222 306.601 559.079 307.829C559.078 307.82 559.079 307.809 559.078 307.8C560.017 306.67 559.786 305.002 559.795 303.51C559.795 303.489 559.796 303.468 559.796 303.448C560.033 295.038 558.9 286.581 556.548 278.441C556.23 277.384 556.129 275.969 554.914 276.253C553.472 276.601 553.921 277.859 554.312 279.092ZM343.981 52.2479C335.678 49.4934 326.983 47.5107 317.98 46.2259C327.011 46.4749 335.892 48.6696 343.981 52.2479ZM558.151 403.427C557.153 407.809 558.503 412.225 557.899 416.641C559.95 412.192 558.743 407.809 558.151 403.427ZM557.12 350.111C558.62 347.64 558.983 344.904 558.403 341.543C557.765 337.819 557.904 333.799 558.628 329.977C558.777 329.153 559.573 328.363 558.569 327.803C557.565 327.243 557.311 328.329 557.298 329.68C557.229 336.49 557.169 343.301 557.12 350.111ZM557 325.298C558.612 319.777 559.359 314.032 559.088 308.063C555.68 313.088 558.198 319.679 557 325.298ZM559.176 307.966C559.176 307.955 559.176 307.944 559.177 307.933C559.173 307.938 559.168 307.944 559.164 307.95C559.168 307.955 559.172 307.96 559.176 307.966ZM368.221 66.8277C368.336 66.6556 368.45 66.4835 368.565 66.3114C373.388 69.7854 377.631 74.0003 381.329 78.6104C386.753 85.0274 392.103 91.5205 397.687 97.8187C392.085 91.5651 386.494 85.301 380.913 79.0266C377.098 74.5769 372.855 70.4869 368.221 66.8277ZM483.988 194.723C465.199 175.952 448.242 155.488 430.292 135.925C430.296 135.921 430.3 135.917 430.304 135.913C430.566 135.697 430.819 135.445 431.06 135.204C448.645 155.132 466.269 174.976 483.988 194.723ZM402.382 104.232C402.522 104.139 402.65 104.011 402.779 103.882C411.438 113.537 420.123 123.167 428.832 132.772C428.684 132.873 428.503 132.961 428.366 133.098C419.679 123.501 411.018 113.879 402.382 104.232ZM383.354 292.669C377.872 288.627 373.306 283.61 366.716 280.638C371.982 285.031 377.313 289.291 382.718 293.43C382.93 293.176 383.142 292.922 383.354 292.669ZM312.705 48.897C311.453 48.7659 312.139 49.7887 310.996 49.4645C305.298 47.8844 299.609 49.6674 294.025 50.5088C290.972 50.9823 289.795 50.952 288.701 50.3077C295.248 48.8178 301.973 47.6553 308.55 48.2884C309.845 48.424 310.522 47.965 311.648 48.0253C313.406 48.135 313.285 48.4831 312.705 48.897ZM288.641 50.2814C288.64 50.2783 288.639 50.2752 288.638 50.2721C288.645 50.2765 288.654 50.2804 288.661 50.2848C288.66 50.2874 288.658 50.29 288.656 50.2925C288.651 50.2888 288.646 50.2851 288.641 50.2814ZM288.661 50.2848C288.664 50.2817 288.665 50.2785 288.667 50.2754C288.669 50.281 288.671 50.2866 288.673 50.2923C288.669 50.2898 288.665 50.2872 288.661 50.2848ZM288.64 50.3139C288.645 50.3068 288.651 50.2997 288.656 50.2925C288.664 50.2992 288.672 50.3059 288.68 50.3125C288.666 50.313 288.653 50.3134 288.64 50.3139ZM288.673 50.2923C288.682 50.2976 288.692 50.3024 288.701 50.3077C288.694 50.3093 288.687 50.3109 288.68 50.3125C288.678 50.3058 288.675 50.299 288.673 50.2923ZM557.546 371.262C556.702 371.068 555.202 370.838 555.064 371.758C554.926 372.68 556.228 372.653 557.257 372.795C562.745 373.608 568.218 374.341 573.625 374.829C568.752 372.229 563.006 372.501 557.546 371.262ZM334.411 52.9462C327.748 51.1461 320.871 50.5341 313.831 49.5233C313.418 49.461 313.113 49.1232 312.765 48.9038C315.076 48.2855 317.688 48.2806 320.579 48.728C325.036 49.4237 329.441 50.2966 333.712 51.553C334.561 51.7991 335.64 52.0687 335.573 52.6958C335.537 53.021 335.051 53.1255 334.411 52.9462ZM286.189 193.95C289.474 196.299 295.828 204.116 298.931 209.639C293.709 204.397 290.485 198.73 286.189 193.95ZM431.366 323.544C429.224 320.564 426.973 318.88 423.218 317.86C425.031 321.138 427.845 322.237 431.366 323.544ZM393.993 297.493C393.22 296.867 392.38 296.322 391.904 296.771C391.313 297.313 392.118 298.59 392.958 298.846C397.216 300.113 399.933 304.185 405.2 306.192C405.191 306.186 405.183 306.181 405.174 306.175C400.712 302.805 397.325 300.164 393.993 297.493ZM378.731 82.4474C378.548 82.2173 378.364 81.988 378.18 81.7596C374.897 77.3601 370.806 73.7876 366.767 70.1C362.713 66.4225 357.647 64.0895 354.14 59.7641C363.044 66.3211 372.74 72.3015 378.236 81.7034C378.403 81.9505 378.567 82.1985 378.731 82.4474ZM506.077 221.426C506.243 221.26 506.409 221.094 506.575 220.928C515.429 230.419 524.31 239.883 533.218 249.32C533.047 249.491 532.876 249.662 532.705 249.833C523.802 240.392 514.926 230.923 506.077 221.426ZM312.657 48.9327C312.635 48.9388 312.611 48.9439 312.589 48.9502C312.589 48.9502 312.652 48.9259 312.691 48.9079C312.696 48.9043 312.7 48.9006 312.705 48.897C312.707 48.8972 312.709 48.8974 312.711 48.8976C312.72 48.8928 312.723 48.8894 312.717 48.8891C312.726 48.8894 312.735 48.8896 312.744 48.8899C312.751 48.8944 312.757 48.8992 312.765 48.9038C312.745 48.909 312.726 48.9141 312.706 48.9194C312.676 48.9336 312.646 48.9478 312.616 48.962C312.63 48.9523 312.643 48.9424 312.657 48.9327ZM353.247 60.9509C350.377 58.7866 346.627 58.249 343.909 55.673C347.397 56.8279 351.053 57.9407 353.247 60.9509ZM551.229 415.355C551.187 414.399 551.328 413.312 552.184 413.476C553 413.608 553.043 414.597 552.963 415.618C552.904 416.335 552.844 417.048 552.785 417.761L596.248 373.426C594.747 373.297 593.237 373.149 591.699 372.982C591.708 372.982 591.716 372.982 591.725 372.982C591.779 372.738 591.807 372.514 591.835 372.269C593.306 372.186 594.771 372.075 596.219 371.964L551.323 417.761C551.287 416.959 551.255 416.157 551.229 415.355ZM548.773 277.58C546.261 273.832 545.785 269.291 543.5 265.427C546.624 268.79 547.494 273.413 548.773 277.58ZM397.452 103.898C397.091 104.305 396.172 103.965 395.69 103.235C392.772 98.744 389.026 94.9874 385.461 91.0034C385.059 90.5666 384.892 89.8478 384.33 88.6393C389.489 92.3344 392.686 97.6189 396.794 101.572C397.679 102.412 397.866 103.437 397.452 103.898ZM416.746 127.477C411.258 120.988 405.797 114.425 400.204 107.995C399.057 106.672 398.476 105.762 398.88 105.265C399.572 104.434 400.566 106.281 401.245 107.094C406.406 113.21 411.495 119.352 416.619 125.506C416.611 125.497 416.604 125.489 416.597 125.481C416.647 126.13 416.686 126.791 416.746 127.477ZM507.553 352.044C512.546 353.552 517.167 355.782 522.767 358.216C519.426 358.08 517.273 357.983 514.964 357.844C515.586 359.629 518.164 359.172 519.363 360.862C513.299 358.882 507.626 357.362 502.111 354.808C495.723 351.839 488.892 349.101 482.117 346.753C482.093 346.757 482.069 346.762 482.046 346.766C479.051 345.707 478.455 344.587 477.699 342.987C477.713 342.982 477.725 342.976 477.739 342.97C480.844 342.671 483.86 342.317 485.809 345.871C486.458 347.007 487.613 346.44 488.492 346.687C493.375 348.06 498.481 348.388 502.728 351.748C504.022 352.776 505.96 351.564 507.553 352.044ZM433.408 144.786C426.466 139.644 421.154 133.013 416.656 125.566C422.616 131.596 427.958 138.245 433.408 144.786ZM416.619 125.506C416.631 125.526 416.644 125.546 416.656 125.566C416.64 125.55 416.624 125.533 416.607 125.517C416.611 125.513 416.615 125.509 416.619 125.506ZM479.606 197.335C477.987 196.811 476.672 197.379 475.365 195.099C471.158 187.749 464.338 183.011 458.956 176.835C458.593 176.407 458.241 175.966 457.811 175.464C459.004 175.11 459.549 177.362 461.038 177.457C458.389 174.095 455.937 170.907 452.833 168.186C452.43 167.843 451.66 167.728 451.564 167.545C450.526 165.507 447.106 163.102 447.889 161.9C448.637 160.686 451.04 163.969 452.089 165.203C452.096 165.212 452.104 165.22 452.111 165.228C461.19 175.814 470.657 186.06 479.606 197.335ZM255.253 142.61C259.348 148.987 264.371 154.397 268.082 161.152C268.541 161.997 269.645 163.181 269.183 163.645C268.765 164.085 267.894 163.017 267.284 162.076C267.28 162.079 267.276 162.081 267.272 162.083C263.122 155.696 259.113 149.204 255.253 142.61ZM290.763 192.439C293.094 197.022 297.793 199.493 300.358 203.814C300.369 203.819 300.379 203.824 300.39 203.83C301.429 205.602 302.926 207.422 303.212 209.526C297.817 204.408 294.389 198.729 290.194 193.656C289.662 193.011 289.293 192.042 289.784 191.832C289.932 191.773 290.667 192.245 290.763 192.439ZM309.984 217.049C312.441 219.775 317.264 220.372 316.975 225.136C313.699 223.208 312.282 219.794 309.984 217.049ZM319.224 227.801C323.132 230.475 325.27 233.601 327.698 236.245C328.13 236.715 328.572 237.168 329.034 237.599C328.507 237.222 327.988 236.836 327.474 236.435C324.67 234.248 322.031 231.639 319.224 227.801ZM477.662 342.911C477.667 342.923 477.674 342.934 477.679 342.946C477.692 342.92 477.704 342.893 477.717 342.867C477.699 342.882 477.679 342.896 477.662 342.911ZM279.05 176.755C281.215 180.158 284.444 183.148 286.495 187.882C282.352 184.386 280.93 180.211 278.215 177.036C278.115 176.917 278.042 176.351 278.147 176.36C278.38 176.366 278.895 176.561 279.02 176.737C279.03 176.743 279.04 176.749 279.05 176.755ZM554.582 363.278C558.056 363.524 559.249 365.879 562.399 365.247C562.409 365.241 562.419 365.236 562.429 365.23C562.335 365.668 562.212 366.101 562.117 366.538C561.344 366.51 560.58 366.562 559.828 366.469C548.915 365.145 537.825 363.048 526.702 360.365C525.377 360.043 524.188 359.622 524.278 358.649C524.405 357.166 525.948 357.75 527.285 358.094C533.345 359.652 539.536 360.63 545.359 362.256C548.549 363.149 551.721 363.07 554.582 363.278ZM487.167 207.529C483.929 204.616 481.082 202.43 478.824 199.422C481.357 198.939 485.554 202.665 487.167 207.529ZM509.354 233.013C506.676 231.824 505.516 229.302 504.193 227.27C504.2 227.278 504.208 227.286 504.215 227.294C501.571 223.229 498.681 219.593 494.863 216.608C501.17 220.18 505.578 226.444 510.702 231.665C511.546 232.545 512.267 233.596 511.618 234.245C510.868 234.95 510 233.299 509.354 233.013ZM537.003 263.67C535.576 263.176 533.935 264.5 534.127 262.689C534.374 260.156 532.707 259.044 531.265 258.085C530.227 257.4 529.795 256.375 529.338 255.326C528.368 253.77 527.412 252.198 525.825 250.888C521.778 247.525 519.294 242.227 514.738 239.094C513.766 238.435 512.935 237.262 513.666 236.671C514.398 236.08 515.333 237.195 516.142 238.064C520.28 242.592 524.724 246.956 528.471 251.737C528.474 251.749 528.477 251.762 528.48 251.774C529.127 252.595 529.793 253.397 530.476 254.189C532.728 257.082 535.332 259.79 537.003 263.67ZM543.871 416.442C543.257 415.322 543.867 414.894 544.071 414.696C545.881 412.818 546.02 410.05 545.161 407.48C544.364 405.074 545.751 405.107 546.159 404.876C547.24 404.25 547.179 406.293 547.18 406.952C547.268 410.537 547.445 414.151 547.574 417.761L596.145 368.216C592.334 368.471 588.378 368.496 584.521 367.939C580.258 367.32 576.194 368.27 572.067 367.474C572.059 367.467 572.05 367.459 572.042 367.451C568.759 366.826 564.677 367.556 562.878 364.638C563.761 363.127 565.877 367.331 565.661 363.66C565.626 362.96 567.215 363.121 568.158 363.209C574.197 363.733 579.883 364.417 585.601 365.818C588.916 366.638 592.965 366.98 596.084 365.149L544.507 417.761C544.319 417.31 544.108 416.87 543.871 416.442ZM544.112 280.347C541.158 278.649 541.58 275.618 541.23 273.492C540.728 270.505 538.214 269.345 537.191 266.988C536.943 266.442 535.896 266.058 536.598 265.39C537.266 264.741 538.117 265.265 538.581 266.059C538.59 266.061 538.599 266.063 538.607 266.065C541.082 270.338 544.173 274.634 544.112 280.347ZM545.066 374.791C545.292 374.297 543.321 373.572 544.975 372.748C545.526 372.485 546.115 372.848 546.271 374.198C547.326 383.194 547.384 392.256 546.811 401.351C546.79 401.647 546.301 401.878 545.526 402.602C545.424 394.925 544.257 388.071 544.673 380.789C544.782 378.812 544.18 376.768 545.066 374.791ZM543.794 360.424C543.232 356.998 545.532 356.701 545.876 354.328C547.825 359.271 547.881 363.522 543.889 366.982C544.986 364.28 544.104 362.335 543.794 360.424ZM543.641 315.351C543.448 313.838 542.303 310.975 545.264 311.326C545.986 311.425 545.98 310.536 545.631 309.811C545.437 309.416 545.099 309.185 544.824 308.855C545.578 307.127 545.866 305.333 545.953 303.51C546.105 301.722 545.569 299.92 545.738 298.14C545.776 297.657 545.749 296.919 546.652 296.977C547.194 297.017 547.358 297.362 547.386 297.909C547.5 299.775 547.539 301.643 547.502 303.51C547.381 314.441 547.298 325.363 547.234 336.303C547.221 336.303 547.207 336.303 547.193 336.303C547.188 336.765 546.92 337.226 546.646 338.149C545.338 335.678 544.609 332.547 545.243 330.471C546.636 325.858 544.903 321.41 545.797 316.994C545.993 316.038 546.587 314.094 545.061 313.962C544.064 313.87 543.75 314.663 543.641 315.351ZM543.577 316.104C543.586 315.926 543.594 315.648 543.641 315.351C543.683 315.683 543.681 315.95 543.577 316.104Z" fill="var(--stroke-0, #FDEEC2)"/>
<path id="r" d="M218.507 346.453C213.261 347.826 207.77 348.437 202.079 348.716C207.411 347.566 212.93 346.931 218.507 346.453ZM218.507 346.453C218.595 346.43 218.685 346.407 218.773 346.383C218.773 346.383 218.697 346.424 218.656 346.429C218.657 346.432 218.658 346.436 218.658 346.439C218.608 346.444 218.557 346.448 218.507 346.453ZM218.738 346.42C218.783 346.426 218.831 346.431 218.876 346.436C218.805 346.444 218.734 346.452 218.662 346.46C218.688 346.447 218.713 346.433 218.738 346.42ZM99.1884 558.203C98.0009 562.056 103.015 564.885 106.051 567.416C111.154 571.745 116.75 575.268 122.629 578.217C128.66 581.247 135.392 583.066 142.038 583.594C143.214 583.676 144.105 583.587 142.924 584.694C142.912 584.699 142.901 584.706 142.889 584.711C142.891 584.715 142.893 584.718 142.896 584.721C142.884 584.732 142.873 584.744 142.861 584.755C142.863 584.744 142.865 584.733 142.867 584.722C142.85 584.731 142.833 584.739 142.815 584.747C142.818 584.736 142.82 584.725 142.822 584.714C140.874 587.933 137.834 584.898 135.624 584.618C130.524 583.998 125.819 580.764 121.02 579.66C115.712 578.379 112.167 573.824 105.514 572.432C120.116 585.118 138.312 591.476 156.236 590C156.29 588.86 154.616 589.813 154.26 588.569C154.981 588.622 155.706 588.668 156.435 588.707C184.751 589.649 212.802 592.311 241.066 589.119C230.781 587.672 220.417 590.157 209.939 588.553C214.737 587.993 219.535 587.011 224.332 586.978C238.878 586.901 253.501 586.168 268.009 586.957C273.075 587.233 277.297 585.176 282.363 585.764C283.899 585.94 286.317 585.524 287.047 585.969C294.032 590.16 302.82 587.776 310.995 588.176C313.824 588.317 316.646 588.389 319.462 588.415C330.667 588.521 341.789 587.903 352.984 588.01C370.293 588.156 387.641 587.845 404.912 588.414C415.044 588.753 425.677 589.715 435.349 589.536C446.479 589.316 457.57 589.678 468.546 589.955C472.727 590.067 476.941 590.03 481.16 589.999C488.226 589.91 494.881 588.956 502.146 589.547C508.507 585.571 515.968 584.324 522.451 580.39C537.408 571.391 550.574 557.855 557.33 540.782C560.466 532.885 562.369 524.435 562.935 515.663C563.808 496.682 564.773 477.703 565.87 458.748L576.974 482.643C576.214 481.913 575.446 481.183 574.671 480.454C560.6 467.255 544.546 455.532 527.615 444.915C526.948 444.506 526.368 443.931 525.627 443.349C527.192 443.092 528.904 445.286 530.401 445.316C528.571 443.693 525.961 441.672 524.456 441.664C521.968 441.644 519.815 439.993 517.695 438.756C508.267 433.189 498.528 428.032 488.589 423.149C472.922 415.458 456.389 409.232 439.685 403.585C425.26 398.719 410.572 394.343 395.658 390.882C379.659 387.171 363.32 384.39 346.866 382.471C367.94 385.302 388.676 389.483 408.964 395.001C408.895 395.163 408.824 395.335 408.719 395.488C385.039 389.617 360.586 384.077 336.108 382.597C336.102 382.741 336.097 382.886 336.091 383.03C346.779 384.342 357.423 385.991 367.919 388.035C371.145 388.659 374.537 389.023 377.494 390.101C375.919 390.705 372.859 389.514 370.633 389.383C371.215 389.822 373.45 389.72 373.82 390.335C373.56 390.344 373.294 390.4 373.005 390.344C363.563 388.737 354.068 387.209 344.615 385.501C342.419 385.108 340.753 385.035 339.007 385.079C333.909 385.206 325.837 384.242 321.698 383.033C319.587 382.416 320.442 381.853 321.971 381.571C324.318 381.12 324.295 380.565 321.726 379.823C320.198 379.383 320.124 379.119 321.437 378.834C325.032 378.062 324.833 377.922 317.463 377.328C325.171 377.177 322.777 376.281 321.317 374.943C319.27 373.015 313.372 370.923 321.708 369.145C322.777 368.923 323.747 367.813 322.417 366.828C320.974 365.753 319.276 364.279 322.648 363.029C323.152 362.847 324.468 362.646 325.355 362.646C334.235 362.73 332.945 361.292 331.996 360.339C329.534 357.887 331.881 355.637 335.001 353.178C336.661 351.863 336.832 350.438 338.472 349.06C340.281 347.52 347.443 347.273 352.619 347.081C362.803 346.677 373.098 347.183 383.247 348.227C387.82 348.691 392.749 349.024 397.421 349.219C405.505 349.531 412.555 351.435 420.479 352.34C423.451 352.676 425.834 352.834 428.187 352.711C431.202 354.818 436.79 354.513 441.064 355.49C445.346 356.466 450.004 357.581 454.368 357.551C457.472 357.523 458.384 359.038 461.108 359.662C475.807 363.021 490.316 367.621 504.746 372.015C512.387 374.343 519.627 377.09 526.508 380.167C550.032 390.696 574.059 401.596 596.041 416.548C603.515 421.639 610.923 427.653 618.743 433.134L631.406 445.083L630.646 458.748C630.888 461.155 631.22 463.553 631.678 465.931C632.502 470.191 632.171 475.067 632.091 479.634C631.971 487.156 631.882 494.563 632.863 502.277C633.422 506.698 633.214 511.16 633.101 515.663C633.025 519.657 632.843 523.609 632.821 527.667C632.754 540.831 629.914 553.983 625.583 566.531C623.556 572.454 621.002 578.25 620.605 583.878C620.329 587.602 618.193 585.717 616.697 589.241C613.769 596.026 609.93 602.622 605.696 608.825C596.998 621.602 585.719 632.251 573.03 640.601C566.859 644.671 560.234 649.191 553.834 653.191C549.434 655.955 543.916 656.932 540.248 660.34C537.522 660.135 533.186 660.27 530.752 662.314C526.802 665.627 522.081 666.284 517.218 667.654C507.624 670.358 497.816 672.753 487.831 671.909C485.563 671.71 485.402 673.261 482.587 673.235C482.116 673.232 481.639 673.228 481.16 673.223C477.571 673.178 473.726 673.31 470.582 673.56C461.716 674.287 452.619 671.848 443.984 674.763C441.067 675.764 437.344 674.714 433.89 674.837C425.407 675.125 416.695 676.114 408.405 674.642C399.347 673.013 390.174 674.298 381.347 674.766C376.357 675.024 370.178 674.205 365.649 676.405C363.116 674.181 357.129 676.263 354.366 673.769C352.638 672.208 348.723 673.3 346.843 673.937C340.088 676.259 335.328 676.148 327.959 675.891C325.179 675.793 322.338 675.506 319.462 675.342C314.716 675.071 309.874 675.135 305.047 676.943C302.015 678.08 295.682 676.19 290.654 676.072C287.392 676 283.361 676.046 280.521 674.507C279.6 673.994 278.564 673.908 277.643 674.575C273.229 677.688 268.163 675.706 263.634 674.805C259.604 673.987 256.188 672.282 252.734 675.279C251.621 676.224 248.358 675.995 246.324 675.573C240.836 674.454 240.913 674.376 235.731 675.521C234.925 675.695 233.889 675.664 233.006 675.575C223.449 674.717 213.855 676.034 203.991 674.182C196.968 672.87 187.449 672.427 181.078 673.862C173.517 675.555 166.838 673.992 159.853 674.344C158.719 674.402 157.579 674.45 156.435 674.489C146.651 674.741 136.546 673.659 127.084 671.312C103.082 665.459 79.3275 656.005 61.0105 639.624C59.2272 638.031 57.0853 635.788 55.0803 635.748C53.8624 635.741 51.6674 633.643 51.1543 632.816C44.9033 622.799 35.2231 615.059 28.7257 605.238C11.1187 578.868 1.36289 546.981 2.33656 515.664C2.34564 515.416 2.3548 515.169 2.36404 514.921C2.86994 501.143 2.80873 487.442 3.54498 473.702C3.85555 467.92 4.06926 462.149 4.25439 456.385L5.32574 437.309L17.4646 428.419C25.5473 422.152 33.7927 416.268 42.3046 410.9C52.0725 404.74 62.3406 399.142 72.0877 393.251C75.6516 391.077 80.1285 387.417 84.3552 388.122C84.4067 388.097 94.4579 382.138 94.7215 382.059C95.7635 381.525 96.7654 380.955 97.822 380.565C113.681 374.488 128.919 368.014 144.768 363.14C167.274 356.209 190.336 351.494 213.35 348.103C220.441 347.063 227.748 346.908 235.462 345.804C229.824 345.458 223.641 347.042 218.876 346.436C230.02 345.182 241.38 344.222 252.21 344.387C262.081 344.49 273.501 343.808 281.697 345.814C282.92 346.101 284.521 345.869 285.752 345.808C289.78 345.628 291.778 346.277 291.005 346.839C289.351 348.101 292.316 348.191 296.777 348.274C298.326 348.301 300.514 348.286 301.085 348.753C301.573 349.117 300.025 349.184 298.6 349.235C296.033 349.314 292.045 349.333 293.598 350.179C294.706 350.78 297.218 351.487 301.438 351.176C301.636 351.166 302.154 351.298 302.67 351.389C301.698 352.006 298.849 351.836 296.328 351.872C299.843 352.949 302.342 353.935 299.127 355.161C298.431 355.419 299.028 355.703 296.837 355.709C292.283 355.729 292.336 356.066 294.378 356.912C296.988 357.987 301.317 359.098 296.564 360.482C296.22 360.58 296.19 360.808 296.504 360.911C299.529 361.953 299.816 362.82 296.638 364.163C294.562 365.035 300.193 365.692 303.972 366.035C312.405 366.789 317.379 368.832 317.378 370.753C317.378 370.753 317.378 370.753 317.378 370.753C317.378 371.401 316.825 372.048 315.668 372.669C312.93 374.109 307.896 375.942 314.067 377.244C269.718 381.723 227.363 392.723 187.073 408.176C147.186 423.556 108.895 443.006 77.3832 469.047C82.5029 465.968 86.9608 461.632 92.2464 458.807C92.6791 458.579 93.1103 458.61 94.525 458.309C86.8495 463.634 79.4532 469.23 72.4106 475.091C71.7484 475.642 70.997 476.295 71.16 475.372C71.612 472.705 69.6415 475.708 69.6141 475.946C69.2494 478.396 66.8761 480.099 64.597 481.6C63.8486 482.096 63.1629 482.638 62.5193 483.209L75.19 456.385C75.2856 459.308 75.7816 462.125 75.9728 465.027C77.0987 481.882 78.0801 498.772 79.0171 515.663C79.0637 516.234 79.1164 516.801 79.1749 517.365C79.6514 521.977 79.9967 526.688 81.9729 531.04C83.1452 533.555 84.4642 531.075 85.2569 533.155C86.2022 535.499 83.1128 534.689 84.1078 537.171C85.1607 539.724 85.7504 542.487 87.4407 545.028C87.7234 544.21 87.9415 543.586 88.4067 542.365C89.3422 549.678 94.1255 554.298 99.1884 558.203ZM231.893 672.292C224.293 670.932 216.733 672.005 209.133 671.716C216.694 673.028 224.332 672.245 231.893 672.292ZM178.621 670.942C186.374 672.765 194.396 671.962 202.341 671.796C194.473 671.201 186.489 671.912 178.621 670.942ZM254.039 672.246C266.998 672.334 279.958 672.395 292.918 672.431C292.879 672.166 292.842 671.901 292.803 671.636C279.882 671.601 266.96 671.541 254.039 671.455C254.039 671.718 254.039 671.982 254.039 672.246ZM318.632 671.489C312.262 671.488 305.891 671.849 299.52 671.979C305.929 672.298 312.377 672.875 318.632 671.489ZM219.441 375.511C237.688 373.673 253.066 370.168 268.326 367.715C252.283 367.938 236.456 370.98 219.441 375.511ZM466.964 407.612C472.397 410.394 476.383 412.542 481.42 412.754C476.562 410.603 472.459 408.686 466.964 407.612ZM537.821 442.733C545.084 449.373 552.144 453.595 559.463 457.327C552.982 451.929 546.015 447.331 537.821 442.733ZM487.552 421.145C488.633 421.683 489.734 422.254 490.272 422.088C490.719 421.953 490.559 421.387 490.502 420.945C490.428 420.643 489.758 420.158 489.174 420.143C484.706 420.06 481.295 416.481 477.148 415.173C479.431 415.422 481.846 417.362 484.992 417.797C476.315 413.477 468.269 412.634 460.391 408.506C460.381 408.498 460.371 408.49 460.36 408.481C462.558 410.743 465.494 411.09 468.014 412.173C474.622 415.024 481.152 417.968 487.552 421.145ZM432.281 398.893C438.686 401.38 444.204 403.04 449.743 404.675C444.223 403.018 439.219 399.76 432.281 398.893ZM494.651 595.949C494.547 595.828 493.372 595.789 493.113 596.409C492.828 597.073 493.296 597.513 494.087 597.763C496.862 598.629 499.846 597.681 503.979 597.457C503.977 597.45 503.975 597.444 503.973 597.438C502.872 596.815 502.626 596.51 502.278 596.493C499.774 596.344 496.467 598.548 494.651 595.949ZM517.973 436.258C512.851 433.203 507.902 429.645 502.101 427.825C507.479 430.531 512.764 433.337 517.973 436.258ZM525.381 440.84C529.936 443.835 534.244 447.087 539.208 449.144C534.716 446.156 530.509 442.459 525.381 440.84ZM566.484 522.757C566.541 525.341 563.965 527.151 564.342 528.333C565.586 532.496 562.939 535.912 561.873 539.477C565.027 534.673 567.541 529.067 566.484 522.757ZM552.934 459.002C556.543 461.492 557 464.984 561.269 467.605C561.155 463.789 556.485 461.479 552.934 459.002ZM555.672 549.602C555.615 549.754 555.574 549.914 555.529 550.042C554.164 554.373 551.368 558.062 548.422 561.418C547.164 562.836 547.17 564.169 547.813 564.821C548.574 565.593 549.484 563.988 550.137 563.192C554.444 558.124 557.033 551.973 560.175 546.069C561.167 544.204 561.34 541.876 561.754 539.754C560.324 539.19 560.577 541.131 559.995 541.949C558.525 543.982 559.035 545.882 558.47 547.81C557.686 550.429 556.882 550.727 555.672 549.602ZM507.007 589.115C505.993 587.915 506.066 589.043 506.243 589.495C506.451 590.021 505.012 590.47 506.039 591.012C506.579 590.811 507.147 590.534 507.755 590.378C508.284 590.228 508.93 589.866 509.377 590.304C509.369 590.307 509.361 590.309 509.352 590.312C504.049 594.075 497.042 592.097 491.324 594.522C504.029 593.974 517.037 590.225 527.541 582.357C528.3 581.793 528.785 580.916 529.794 580.696C535.468 579.36 539.096 574.362 543.253 570.638C544.575 569.454 544.557 568.372 544.354 566.718C540.651 571.78 536.434 575.839 531.186 577.959C530.366 578.291 529.579 578.954 528.818 579.483C522.96 583.66 516.596 587.212 509.748 589.151C508.718 589.436 507.808 590.078 507.007 589.115ZM313.418 380.489C302.819 379.364 205.978 403.858 201.644 407.349C224.167 398.436 248.394 392.027 272.472 386.481C284.965 383.593 297.903 380.993 311.701 380.435C312.26 380.407 312.746 380.463 313.418 380.489ZM478.526 592.787C465.477 592.654 452.427 592.489 439.377 592.37C435.995 592.329 432.502 592.076 429.98 593.586C429.991 593.586 430.003 593.586 430.014 593.586C431.357 594.544 433.352 594.284 435.117 594.304C449.548 594.545 463.979 594.776 478.372 595.114C479.296 595.128 480.323 595.23 481.16 595.182C481.763 595.134 482.22 594.919 482.304 594.288C482.415 593.417 481.907 593.064 481.16 592.909C480.394 592.802 479.454 592.794 478.526 592.787ZM451.944 409.195C440.44 405.316 428.794 401.509 417.131 397.611C429.049 400.509 440.651 404.497 451.944 409.195ZM318.632 592.659C313.528 591.66 308.385 593.011 303.242 592.407C308.423 594.458 313.528 593.251 318.632 592.659ZM380.732 591.628C383.611 593.127 386.797 593.491 390.712 592.911C395.049 592.272 399.731 592.411 404.183 593.136C405.143 593.285 406.063 594.081 406.715 593.077C407.368 592.073 406.102 591.819 404.529 591.805C396.597 591.737 388.664 591.677 380.732 591.628ZM409.632 591.508C416.063 593.119 422.755 593.866 429.708 593.596C423.854 590.187 416.177 592.706 409.632 591.508ZM429.821 593.684C429.834 593.684 429.846 593.684 429.859 593.684C429.852 593.68 429.846 593.676 429.839 593.672C429.833 593.676 429.827 593.68 429.821 593.684ZM488.36 425.348C488.438 425.156 488.516 424.964 488.594 424.773C504.726 431.792 519.578 441.207 534.015 450.672C519.546 441.303 504.216 432.854 488.36 425.348ZM556.551 539.125C558.884 531.572 560.432 523.769 560.935 515.663C561.756 496.69 562.942 477.734 563.666 458.748L575.552 484.328C575.388 484.177 575.223 484.026 575.058 483.875C575.062 483.871 575.065 483.867 575.069 483.863C575.313 483.625 575.542 483.352 575.761 483.091C575.916 483.238 576.07 483.384 576.225 483.531L564.708 458.748C563.691 477.731 562.707 496.7 561.767 515.663C561.191 523.855 559.414 531.741 556.551 539.125ZM540.618 456.005C540.734 455.883 540.829 455.728 540.924 455.573C552.37 463.391 563.191 471.785 573.229 480.806C573.091 480.921 572.917 481.024 572.795 481.174C562.801 472.182 552.021 463.807 540.618 456.005ZM78.7894 531.374C77.3871 526.265 77.4596 521.038 75.9351 515.663C75.7658 514.803 75.5705 513.941 75.3452 513.079C75.3766 513.941 75.4079 514.802 75.439 515.663C75.7172 521.091 76.5166 526.413 77.8167 531.569C78.1409 531.504 78.4652 531.439 78.7894 531.374ZM409.409 398.544C407.761 397.997 408.385 399.21 406.935 398.507C399.799 395.042 391.755 394.489 384.167 392.75C380.051 391.813 378.578 391.209 377.573 390.124C386.517 391.904 395.528 393.582 404.04 396.527C405.711 397.117 406.756 396.912 408.242 397.352C410.56 398.047 410.308 398.337 409.409 398.544ZM377.512 390.072C377.513 390.069 377.513 390.065 377.514 390.062C377.52 390.07 377.529 390.077 377.536 390.085C377.533 390.086 377.529 390.088 377.525 390.089C377.521 390.083 377.517 390.078 377.512 390.072ZM377.536 390.085C377.54 390.083 377.544 390.081 377.549 390.079C377.548 390.085 377.547 390.091 377.546 390.097C377.543 390.093 377.54 390.089 377.536 390.085ZM377.494 390.101C377.504 390.097 377.515 390.093 377.525 390.089C377.531 390.099 377.538 390.108 377.544 390.118C377.527 390.112 377.511 390.106 377.494 390.101ZM377.546 390.097C377.555 390.106 377.565 390.115 377.573 390.124C377.563 390.122 377.553 390.12 377.544 390.118C377.545 390.111 377.546 390.104 377.546 390.097ZM247.092 588.239C245.902 588.188 243.83 588.225 243.868 589.156C243.906 590.086 245.633 589.83 247.053 589.799C254.614 589.68 262.176 589.67 269.737 589.63C262.598 587.514 254.729 588.543 247.092 588.239ZM438.774 408.364C429.508 405.222 420.058 402.81 410.758 399.52C410.215 399.324 409.895 398.897 409.488 398.57C412.777 398.746 416.256 399.55 420.107 400.81C426.014 402.753 431.955 404.683 437.838 406.813C439.005 407.233 440.492 407.708 440.395 408.333C440.344 408.657 439.665 408.673 438.774 408.364ZM129.915 435.5C126.584 438.652 116.66 444.525 110.021 447.362C116.784 442.333 123.702 439.477 129.915 435.5ZM104.868 571.155C103.721 568.214 102.281 566.473 99.3428 564.982C99.8582 568.196 102.097 569.648 104.868 571.155ZM84.1115 539.817C83.8568 539.029 83.517 538.264 82.8755 538.383C82.0855 538.513 81.9755 539.824 82.504 540.381C85.1603 543.112 85.1757 547.339 88.6362 550.702C88.6319 550.694 88.6276 550.687 88.6234 550.68C86.5253 546.515 85.2185 543.178 84.1115 539.817ZM509.811 440.724C502.731 436.317 495.216 432.844 487.861 428.952C480.813 425.243 472.992 422.71 467.067 417.941C481.315 425.554 497.071 431.254 509.811 440.724ZM541.508 561.315C541.695 561.457 541.882 561.599 542.069 561.741C535.689 569.417 527.862 575.806 519.242 580.45C519.119 580.241 518.996 580.033 518.873 579.824C527.415 575.234 535.176 568.914 541.508 561.315ZM409.335 398.562C409.303 398.561 409.269 398.557 409.237 398.556C409.237 398.556 409.33 398.554 409.387 398.55C409.395 398.548 409.401 398.546 409.409 398.544C409.412 398.545 409.415 398.546 409.417 398.547C409.43 398.545 409.435 398.542 409.428 398.54C409.439 398.543 409.451 398.547 409.463 398.55C409.472 398.557 409.479 398.563 409.488 398.57C409.46 398.569 409.432 398.567 409.405 398.566C409.36 398.569 409.315 398.573 409.27 398.577C409.292 398.572 409.313 398.567 409.335 398.562ZM466.123 419.142C461.642 416.7 456.27 415.761 452.17 412.724C457.182 414.387 462.359 415.844 466.123 419.142ZM304.74 585.737C305.852 585.695 307.119 585.835 306.928 586.692C306.774 587.508 305.622 587.55 304.432 587.471C301.362 587.252 298.33 587.034 295.26 586.819C295.272 586.819 295.285 586.819 295.297 586.819C295.374 586.574 295.413 586.35 295.452 586.105C298.522 585.974 301.631 585.824 304.74 585.737ZM483.258 588.052C488.397 586.903 493.546 587.803 498.618 586.629C493.766 588.757 488.375 588.207 483.258 588.052ZM535.56 456.751C535.312 457.236 534.295 457.107 533.6 456.496C529.398 452.738 524.466 449.991 519.546 447.078C519 446.765 518.593 446.111 517.615 445.092C524.05 447.241 528.977 451.647 534.227 454.595C535.367 455.227 535.847 456.202 535.56 456.751ZM560.253 476.784C553.676 471.015 546.743 465.4 539.431 460.204C537.937 459.139 537.106 458.37 537.376 457.788C537.844 456.812 539.345 458.425 540.241 459.09C547.064 464.088 553.574 469.352 559.796 474.825C559.787 474.817 559.778 474.81 559.77 474.803C559.932 475.447 560.082 476.105 560.253 476.784ZM175.052 582.791C182.037 582.484 188.869 583.082 197.044 583.738C192.746 584.603 189.905 585.187 186.95 585.792C188.485 587.283 191.555 586.039 193.781 587.285C185.261 587.25 177.546 587.71 169.602 587.292C165.266 587.063 160.855 586.964 156.435 586.992C153.275 587.024 150.162 587.02 147.049 586.973C147.031 586.985 147.014 586.996 146.996 587.008C144.426 586.941 143.732 586.022 142.896 584.721C142.905 584.712 142.914 584.703 142.924 584.694C145.315 583.528 147.41 582.25 149.71 584.941C150.467 585.791 151.202 584.861 151.92 584.783C153.448 584.619 154.933 584.268 156.435 583.964C160.514 583.466 164.624 583.213 168.911 584.214C171.022 584.71 172.826 582.892 175.052 582.791ZM559.632 467.851C559.242 464.807 559.06 461.774 559.053 458.748L572.578 487.854C568.036 484.04 563.855 479.625 559.844 474.88C564.701 478.493 569.223 482.619 573.418 486.858L560.357 458.748C560.12 461.782 559.868 464.817 559.632 467.851ZM559.796 474.825C559.812 474.843 559.828 474.862 559.844 474.88C559.825 474.866 559.806 474.852 559.787 474.838C559.79 474.833 559.793 474.829 559.796 474.825ZM552.097 536.774C551.668 535.476 550.495 534.771 551.61 533.164C555.163 527.929 554.521 521.641 555.015 515.663C555.021 515.538 555.028 515.414 555.035 515.289C555.081 514.636 555.144 513.984 555.195 513.216C555.857 513.634 555.677 514.643 555.649 515.663C555.631 516.099 555.674 516.534 556.058 516.877C556.128 516.472 556.194 516.067 556.257 515.663C556.69 511.395 557.058 507.317 556.821 503.122C556.779 502.508 556.316 501.779 556.377 501.549C557.085 499.016 556.367 494.219 557.77 493.873C559.157 493.489 558.535 498.172 558.404 500.052C558.404 500.065 558.403 500.078 558.402 500.091C558.063 505.274 557.774 510.46 557.485 515.663C556.871 523.023 555.222 530.185 552.097 536.774ZM194.471 410.056C186.27 413.289 178.969 417.639 170.533 420.561C169.481 420.921 167.882 421.899 167.473 421.376C167.08 420.901 168.489 420.145 169.69 419.642C169.688 419.638 169.687 419.634 169.686 419.63C177.81 416.216 186.084 413.022 194.471 410.056ZM130.59 440.323C125.042 442.303 121.347 446.928 116.109 449.249C116.101 449.259 116.093 449.27 116.085 449.28C113.929 450.225 111.672 451.627 109.309 451.788C115.923 446.568 122.902 443.475 129.369 439.632C130.195 439.144 131.349 438.85 131.474 439.372C131.507 439.529 130.824 440.241 130.59 440.323ZM99.8655 458.33C96.4622 460.729 95.0392 465.672 89.9283 465.187C92.5621 461.848 96.477 460.558 99.8655 458.33ZM86.7116 467.412C82.6046 472.088 78.2658 474.22 74.8519 477.339C77.8536 473.857 81.2983 470.708 86.7116 467.412ZM142.855 584.659C142.861 584.669 142.868 584.678 142.874 584.688C142.879 584.659 142.885 584.63 142.89 584.601C142.879 584.621 142.866 584.64 142.855 584.659ZM150.553 429.9C146.287 431.737 142.238 434.722 136.546 436.374C141.332 432.465 146.291 431.441 150.433 429.021C150.589 428.931 151.235 428.919 151.2 429.024C151.14 429.26 150.804 429.764 150.58 429.872C150.571 429.881 150.562 429.891 150.553 429.9ZM241.105 580.902C245.941 580.509 248.205 582.636 252.427 581.525C252.44 581.518 252.453 581.511 252.465 581.505C252.427 581.951 252.349 582.398 252.311 582.845C251.237 582.935 250.2 583.106 249.125 583.135C233.735 583.594 218.345 584.074 202.955 584.652C201.113 584.719 199.424 584.663 199.155 583.706C198.733 582.251 200.959 582.357 202.839 582.309C211.321 582.083 219.842 581.465 228.247 581.77C232.776 581.94 237.113 581.226 241.105 580.902ZM547.191 544.737C548.247 541.761 548.664 539.228 549.96 536.831C551.722 538.427 550.665 542.635 547.191 544.737ZM532.058 563.41C532.599 561.296 534.486 560.577 535.935 559.574C535.93 559.58 535.925 559.586 535.92 559.591C538.803 557.609 541.178 555.119 542.428 551.857C541.525 557.189 537.087 560.961 533.448 564.715C532.826 565.341 532.023 565.823 531.371 565.177C530.657 564.439 531.927 563.928 532.058 563.41ZM503.003 580.727C504.076 579.442 503.265 577.495 505.145 578.122C507.777 578.977 509.594 577.559 511.151 576.312C513.342 574.533 516.23 575.385 518.444 573.495C521.18 571.156 525.477 570.378 527.658 567.042C528.107 566.34 528.986 565.837 529.583 566.56C530.178 567.284 529.333 567.91 528.674 568.445C525.241 571.172 521.674 573.893 517.662 575.49C517.652 575.488 517.642 575.486 517.631 575.484C512.969 577.339 508.661 579.924 503.003 580.727ZM303.473 578.379C304.778 577.765 305.277 578.375 305.507 578.578C307.695 580.389 310.918 580.528 313.912 579.669C316.714 578.872 316.676 580.259 316.945 580.667C317.674 581.747 315.294 581.687 314.526 581.688C304.548 581.898 294.377 582.617 284.551 581.968C278.219 581.548 272.5 582.821 266.474 582.474C266.461 582.468 266.448 582.461 266.435 582.454C261.676 582.181 256.073 583.461 252.964 580.852C253.885 579.22 257.723 583.084 256.687 579.481C256.495 578.792 258.798 578.732 260.18 578.701C268.892 578.448 277.412 578.638 286.009 579.802C291.574 580.551 298.292 580.837 303.473 578.379ZM482.028 582.74C485.082 580.517 488.255 581.857 490.715 582.151C494.178 582.553 496.401 580.44 499.346 580.061C500.032 579.961 500.843 579.034 501.297 579.894C501.743 580.716 500.857 581.419 499.82 581.664C499.815 581.672 499.809 581.68 499.803 581.688C494.228 582.987 488.355 584.689 482.028 582.74ZM351.986 579.574C352.562 579.8 353.406 577.829 354.366 579.483C354.672 580.034 354.25 580.623 352.676 580.779C342.199 581.834 331.643 581.892 321.05 581.319C320.705 581.298 320.437 580.808 319.593 580.034C328.535 579.932 336.518 578.765 345 579.181C347.303 579.29 349.683 578.688 351.986 579.574ZM368.72 578.302C372.711 577.74 373.057 580.039 375.82 580.384C370.063 582.333 365.111 582.388 361.081 578.397C364.228 579.493 366.494 578.612 368.72 578.302ZM421.218 578.149C422.981 577.956 426.315 576.811 425.906 579.772C425.791 580.494 426.827 580.488 427.671 580.139C428.132 579.945 428.401 579.607 428.785 579.332C434.311 581.4 440.415 579.969 446.21 580.469C447.208 580.545 448.742 580.592 448.435 581.485C448.244 582.02 447.514 582.148 446.402 582.13C429.86 581.94 413.356 581.825 396.814 581.742C396.814 581.728 396.814 581.715 396.814 581.701C396.277 581.696 395.739 581.428 394.665 581.154C397.543 579.845 401.189 579.117 403.607 579.751C408.98 581.144 414.162 579.41 419.305 580.305C420.418 580.501 422.683 581.095 422.836 579.568C422.944 578.572 422.02 578.257 421.218 578.149ZM420.341 578.085C420.549 578.094 420.872 578.102 421.218 578.149C420.831 578.191 420.521 578.188 420.341 578.085Z" fill="var(--stroke-0, #FDEEC2)"/>
</g>
</svg>
