<svg preserveAspectRatio="none" width="100%" height="100%" overflow="visible" style="display: block;" viewBox="0 0 642.802 677.369" fill="none" xmlns="http://www.w3.org/2000/svg">
<g id="Group 43896">
<path id="l" d="M20.7522 252.564C19.4288 257.137 17.4684 261.56 15.2572 266.11C16.5338 261.459 18.4976 256.937 20.7522 252.564ZM20.7522 252.564C20.7744 252.488 20.7975 252.41 20.8193 252.333C20.8193 252.333 20.8184 252.41 20.8029 252.442C20.8063 252.443 20.8097 252.444 20.8131 252.446C20.7927 252.485 20.7725 252.525 20.7522 252.564ZM20.8342 252.377C20.8611 252.347 20.8882 252.313 20.9148 252.283C20.8875 252.34 20.8603 252.396 20.8331 252.453C20.8334 252.428 20.8338 252.402 20.8342 252.377ZM85.132 512.494C84.1878 513.325 83.6962 514.442 83.4798 515.726C82.952 517.722 84.1409 520.26 84.5137 522.33C85.4159 527.241 86.8168 531.915 88.4432 536.522C90.11 541.25 92.7056 545.763 95.8652 549.657C96.4333 550.339 96.9715 550.77 95.4828 550.809C95.4721 550.807 95.4613 550.804 95.4506 550.801C95.4491 550.805 95.448 550.808 95.4465 550.811C95.4319 550.811 95.4169 550.812 95.4019 550.813C95.4114 550.807 95.4209 550.802 95.4304 550.796C95.4147 550.792 95.399 550.788 95.3833 550.784C95.393 550.778 95.4028 550.773 95.4125 550.767C91.8754 551.686 92.5747 548.213 91.5183 546.895C89.0933 543.865 88.6552 539.58 86.3375 536.603C83.8239 533.266 84.6522 528.929 80.7416 524.997C82.769 539.159 88.5205 551.999 97.8986 561.54C98.821 560.866 97.3022 560.491 98.1102 559.517C105.523 570.933 116.134 582.644 130.532 584.492C126.61 581.473 121.113 581.519 117.721 577.496C119.93 578.224 122.33 578.452 124.294 579.41C130.304 582.364 136.787 583.791 143.115 585.784C145.37 586.484 147.538 584.712 149.738 585.514C150.411 585.757 151.534 585.422 151.837 585.886C153.13 587.823 154.739 588.452 156.447 588.544C159.821 588.661 163.367 588.016 166.769 588.239C168.878 588.38 170.982 588.452 173.081 588.479C181.434 588.584 189.725 587.967 198.071 588.074C207.951 588.185 217.848 588.028 227.724 588.205L186.228 618.667C187.002 616.381 187.778 614.031 188.557 611.673C190.506 605.821 192.892 599.478 193.788 593.445C194.815 586.486 196.118 579.49 197.063 572.445C198.367 562.847 197.33 552.819 200.839 543.238C198.717 535.909 200.344 528.217 199.985 520.629C199.183 502.858 198.499 484.848 195.784 466.8C192.471 444.741 187.497 422.651 181.25 400.822C177.094 386.349 171.901 372.116 166.262 358.024C166.033 357.475 165.974 356.841 165.804 356.139C167.092 356.555 166.966 358.791 168.036 359.377C167.714 357.521 167.094 355.069 166.019 354.485C164.25 353.529 163.728 351.466 163.017 349.775C159.853 342.127 156.444 334.541 152.933 326.98C151.668 324.255 150.342 321.545 148.968 318.845C144.368 309.809 139.296 300.982 134.155 292.193C128.394 282.357 122.458 272.58 116.001 263.126C109.077 252.992 101.631 243.147 93.779 233.609C103.571 246.087 112.679 258.973 121.118 272.237C120.966 272.321 120.805 272.413 120.638 272.474C110.396 257.402 100.182 241.684 87.7303 228.336C87.6276 228.438 87.5249 228.54 87.4222 228.641C92.3977 234.947 97.2301 241.374 101.827 247.919C103.236 249.919 104.936 251.807 105.912 254C104.578 253.68 103.635 251.359 102.449 250.193C102.48 250.79 103.834 251.788 103.624 252.409C103.469 252.29 103.277 252.203 103.149 252.024C98.8261 246.343 94.5086 240.606 90.4314 234.679C89.4813 233.305 88.6086 232.421 87.6169 231.584C84.7025 229.127 80.966 224.356 79.5584 221.362C78.8414 219.838 79.6916 219.866 80.7148 220.442C82.2979 221.311 82.6684 220.898 81.7869 219.051C81.263 217.952 81.405 217.723 82.3121 218.187C84.7979 219.46 84.7698 219.261 81.2072 215.068C85.4656 218.893 84.8043 217.023 84.9302 215.307C85.1504 212.866 83.4122 208.336 89.1391 211.307C89.8735 211.694 91.1645 211.383 91.1222 209.992C91.0792 208.475 91.174 206.539 93.8667 207.359C94.2652 207.484 95.1192 208.009 95.6038 208.462C100.396 213.037 100.693 211.326 100.826 210.162C101.169 207.141 104.005 206.703 107.418 206.497C109.241 206.383 110.319 205.438 112.179 205.269C114.237 205.064 118.381 208.472 121.419 210.888C127.416 215.641 132.917 220.99 138.09 226.596C140.405 229.096 143.077 231.696 145.676 234.009C150.223 238.027 153.121 242.661 157.274 246.911C158.838 248.508 160.182 249.707 161.693 250.675C162.082 253.54 165.721 255.84 167.692 258.426C169.681 261.037 171.811 263.865 174.576 265.755C176.551 267.101 176.086 268.556 177.389 270.184C182.955 277.121 188.104 284.439 193.341 291.637C194.71 293.519 196.084 295.388 197.474 297.235C201.012 301.937 204.139 306.794 206.846 311.615C216.153 328.185 226.514 344.534 234.445 362.054C237.899 369.68 240.672 378.161 245.559 385.588C247.494 388.521 248.457 392.276 249.556 395.788C251.366 401.535 253.073 407.191 255.78 412.833C258.378 418.246 258.817 424.415 261.056 430.163C264.006 437.722 265.763 445.615 267.504 453.536C268.331 457.278 269.013 461.067 271.684 463.822C273.452 465.63 270.652 465.696 271.398 467.932C272.827 472.214 273.884 476.74 274.873 481.201C276.918 490.369 277.643 499.665 277.627 508.96C277.619 513.536 278.243 518.355 279.034 522.971C279.576 526.125 278.277 529.458 280.134 532.313C278.948 533.848 277.602 536.428 278.796 538.234C280.715 541.123 280.047 544.033 280.237 547.142C280.615 553.236 281.48 559.414 279.884 565.491C279.521 566.888 281.05 567.105 280.881 568.838C280.591 572.066 280.443 575.678 280.454 578.615C280.51 586.123 277.164 593.445 278.9 601.198C279.506 603.814 277.94 606.809 277.521 609.766C276.496 616.956 275.819 624.646 272.55 631.346C270.51 635.469 269.246 639.982 268.153 644.397L258.247 674.493L227.724 674.076C224.858 674.283 222.013 674.631 219.215 674.829C215.495 675.087 210.888 674.269 207.512 676.468C205.624 674.245 201.161 676.327 199.101 673.833C197.813 672.271 194.895 673.363 193.493 674C188.457 676.323 184.909 676.212 179.415 675.954C177.343 675.857 175.225 675.569 173.081 675.405C169.543 675.134 165.934 675.199 162.335 677.006C160.997 677.679 158.797 677.292 156.447 676.839C154.195 676.528 151.872 676.134 149.776 675.998C146.443 675.799 142.262 675.522 139.549 673.678C138.664 673.069 137.632 672.863 136.616 673.408C131.737 675.945 126.762 673.091 122.457 671.221C118.572 669.533 115.731 667.028 111.5 668.914C110.138 669.508 106.965 668.29 105.12 667.209C100.158 664.293 100.304 664.255 94.9374 663.309C94.1074 663.152 93.1312 662.703 92.3347 662.256C83.7232 657.549 74.3644 653.886 67.063 646.654C61.8573 641.566 54.7487 635.267 49.0605 631.895C42.2479 627.886 38.6782 621.775 33.9052 616.543C28.2283 610.329 23.2576 603.034 19.5825 595.448C11.4993 578.903 3.90347 561.642 2.44596 543.296C2.30706 541.514 2.32667 539.168 0.910116 538.208C0.0423751 537.63 -0.11526 535.369 0.0678687 534.642C1.67638 528.33 0.898199 522.082 0.604215 515.726C0.48406 513.819 0.377767 511.922 0.465436 510.061C1.32548 492.265 1.47899 474.44 2.37629 456.643C2.8822 446.372 2.82099 436.158 3.55724 425.915C4.35558 414.785 4.52849 403.712 5.17761 392.639C5.63346 384.857 6.28775 376.903 5.9483 369.121C5.81509 366.26 4.72595 362.397 7.30586 360.051C7.34405 360.022 6.57257 351.982 6.58013 351.81C6.55889 351.009 6.48205 350.208 6.58753 349.435C7.96466 337.762 7.76864 326.289 8.45723 314.759C8.67864 310.959 8.93316 307.156 9.20758 303.351C10.1125 287.369 13.8512 271.713 19.7577 257.218C22.1343 251.395 25.5791 246.004 28.6877 239.984C25.4393 243.766 23.7123 249.052 20.9148 252.283C25.1736 243.384 30.3978 234.802 36.6299 227.76C42.2432 221.287 48.6476 213.762 55.1751 210.474C56.1334 209.975 56.9672 208.9 57.7051 208.156C58.402 207.457 59.0468 206.911 59.6046 206.508C60.7956 205.699 61.5497 205.618 61.5269 206.17C61.4861 207.869 63.1674 206.556 65.6177 204.475C66.4697 203.749 67.6238 202.677 68.2495 202.736C68.7604 202.761 67.9854 203.565 67.2563 204.292C65.9347 205.601 63.7916 207.504 65.208 207.383C66.214 207.297 68.0734 206.606 70.1113 204.314C70.2102 204.211 70.5769 204.052 70.9143 203.864C70.8263 204.788 69.1861 206.061 67.8431 207.308C70.4844 206.388 72.5068 205.862 71.6182 208.332C71.4188 208.86 71.9405 208.775 70.7507 209.851C68.2836 212.077 68.5338 212.287 70.2322 211.922C72.3908 211.451 75.5324 210.1 73.8732 213.458C73.7502 213.7 73.8897 213.88 74.1337 213.8C76.5118 213.063 77.2741 213.542 76.435 216.102C75.8766 217.769 79.4675 215.451 81.7576 213.776C86.8744 210.035 90.9171 208.813 92.2816 210.177C92.2817 210.177 92.2817 210.178 92.2818 210.178C92.7398 210.636 92.9048 211.387 92.7238 212.442C92.2799 214.911 90.7999 218.894 95.0825 216.541C91.3554 221.316 87.6531 226.093 83.9657 230.869C69.1049 250.742 63.0528 274.708 64.5284 296.869C64.6668 299.046 64.8731 301.206 65.1461 303.351C68.2756 334.183 70.0661 365.119 72.9413 395.958C73.3825 391.008 72.2298 386.001 72.6287 381.109C72.663 380.708 72.919 380.422 73.4041 379.306C73.9239 386.955 74.4259 394.604 74.9101 402.253C74.9554 402.968 75.0231 403.797 74.384 403.225C72.5238 401.595 73.7401 404.399 73.9086 404.542C75.6384 406.03 75.5289 408.49 75.2657 410.779C74.9331 413.783 75.7288 416.559 75.9851 419.448C77.167 432.638 78.1894 445.857 79.169 459.076C79.5491 464.226 79.375 469.462 80.437 474.755C81.0542 477.845 82.8807 475.385 83.1783 477.988C83.5135 480.963 80.7444 479.104 81.0202 482.165C81.3025 485.341 80.9341 488.546 81.4938 492.008C82.0735 491.264 82.5161 490.692 83.3971 489.547C81.5725 497.959 83.3956 504.969 85.132 512.494ZM92.6244 658.794C86.2184 654.443 79.0625 651.808 72.7577 647.457C78.4713 652.651 85.7091 655.658 92.6244 658.794ZM49.2584 628.074C53.6076 634.751 60.4438 639.336 67.0468 643.743C60.9428 638.753 54.2804 634.21 49.2584 628.074ZM113.616 666.368C126.168 670.027 139.197 672.058 152.193 672.438C152.161 672.172 152.131 671.906 152.1 671.64C139.208 671.255 126.284 669.236 113.832 665.608C113.76 665.861 113.688 666.115 113.616 666.368ZM172.463 671.552C167.713 671.552 162.964 671.913 158.215 672.042C162.993 672.361 167.799 672.939 172.463 671.552ZM46.4842 265.815C52.5893 253.561 57.1195 242.861 63.3331 233.012C55.0254 241.778 49.6871 253.063 46.4842 265.815ZM148.885 306.869C150.378 310.675 151.487 313.61 153.944 315.794C154.265 316.079 154.609 316.352 154.98 316.612C154.789 316.237 154.603 315.868 154.419 315.503C152.857 312.406 151.455 309.657 148.885 306.869ZM175.056 360.332C176.278 367.808 179.047 373.432 182.452 378.718C180.67 372.53 178.222 366.697 175.056 360.332ZM153.551 325.13C153.924 325.955 154.293 326.811 154.766 326.913C155.157 326.999 155.42 326.531 155.672 326.193C155.82 325.949 155.686 325.33 155.302 325.08C152.692 323.426 152.45 320.115 151.119 317.526C150.946 317.187 150.755 316.861 150.539 316.553C150.825 316.794 151.065 317.091 151.284 317.425C152.097 318.668 152.595 320.416 154.037 321.692C153.325 320.071 152.494 318.604 151.617 317.22C148.893 312.938 145.792 309.477 144.025 304.707C144.024 304.697 144.023 304.686 144.022 304.676C143.926 307.232 145.595 308.72 146.525 310.568C147.772 313.065 149.012 315.562 150.228 318.072C151.366 320.419 152.479 322.769 153.551 325.13ZM132.719 285.56C135.005 290.19 137.356 293.8 139.775 297.374C137.384 293.792 136.438 289.267 132.719 285.56ZM205.371 551.855C205.231 551.931 204.98 553.036 205.548 553.388C206.155 553.768 206.666 553.395 207.052 552.702C208.402 550.258 208.071 547.396 208.951 543.579C208.944 543.579 208.937 543.579 208.931 543.579C208.039 544.421 207.684 544.576 207.579 544.89C206.782 547.187 208.249 550.606 205.371 551.855ZM164.804 348.104C163.119 343.939 161.92 339.403 159.114 335.808C161.055 339.864 162.972 344.001 164.804 348.104ZM167.203 354.253C168.6 358.149 169.716 362.104 172.13 365.446C170.636 361.612 169.877 357.387 167.203 354.253ZM196.741 447.138C197.605 449.412 195.851 451.909 196.643 452.832C199.321 455.976 198.364 459.999 199.112 463.491C199.612 457.971 199.716 452.376 196.741 447.138ZM176.472 377.583C177.749 380.688 176.034 383.35 177.851 386.798C179.954 383.965 177.702 380.664 176.472 377.583ZM199.142 475.003C199.183 475.155 199.241 475.305 199.278 475.432C200.67 479.669 200.809 484.05 200.948 488.453C200.995 490.312 201.947 491.23 202.86 491.23C203.94 491.232 203.471 489.537 203.41 488.553C203.108 482.233 201.405 476.109 200.947 469.742C200.803 467.746 199.778 465.734 199.139 463.779C197.613 463.983 198.762 465.486 198.673 466.459C198.426 468.904 199.871 470.203 200.451 472.036C201.24 474.527 200.783 475.2 199.142 475.003ZM201.846 538.446C200.388 539.035 201.485 539.321 201.97 539.289C202.532 539.255 202.527 540.741 203.353 539.936C203.324 539.372 203.235 538.756 203.281 538.137C203.306 537.596 203.177 536.875 203.738 536.603C203.738 536.612 203.738 536.621 203.738 536.629C205.527 542.63 201.891 548.785 203.393 554.791C204.824 542.448 205.628 529.8 204.206 517.192C204.107 516.279 203.609 515.426 203.957 514.472C205.837 509.185 203.985 503.637 203.95 498.244C203.939 496.54 203.139 495.862 201.794 494.909C202.941 500.956 203.549 506.441 202.413 511.896C202.235 512.749 202.365 513.748 202.412 514.658C202.851 521.782 203.273 528.835 202.777 535.876C202.695 536.938 203.012 537.989 201.846 538.446ZM97.0098 219.196C95.9404 220.881 91.9377 226.298 86.5838 233.487C71.8606 251.151 68.1653 286.449 68.5856 288.509C67.9976 273.58 72.2355 257.884 79.4636 243.326C81.2587 239.705 83.283 236.082 85.7252 232.629C88.8979 228.35 92.2755 224.136 96.0289 220.077C96.3166 219.758 96.6232 219.537 97.0098 219.196ZM200.424 566.185C199.68 574.744 198.53 583.162 197.023 591.389C196.62 593.542 195.967 595.684 197.141 597.547C197.142 597.54 197.144 597.533 197.145 597.526C198.249 596.868 198.233 595.556 198.455 594.436C200.344 585.318 201.718 575.946 202.738 566.452C202.856 565.22 203.342 563.717 202.118 563.463C200.661 563.171 200.547 564.71 200.424 566.185ZM138.134 301.561C133.392 293.809 128.717 285.921 124.279 277.836C129.556 285.32 134.08 293.315 138.134 301.561ZM172.463 592.723C168.657 591.724 164.823 593.074 160.989 592.471C164.852 594.522 168.657 593.315 172.463 592.723ZM218.756 591.691C220.902 593.191 223.278 593.554 226.196 592.974C226.7 592.875 227.209 592.794 227.724 592.732L190.546 620.023C190.908 617.743 191.778 615.474 192.995 613.348C193.296 612.815 194.214 612.464 193.349 611.812C192.482 611.162 192.037 611.859 191.768 612.79C191.089 615.147 190.374 617.473 189.632 619.736L227.724 591.774C224.735 591.744 221.746 591.716 218.756 591.691ZM192.29 609.655C194.855 606.142 196.526 602.153 197.117 597.719C193.063 600.726 194.486 605.938 192.29 609.655ZM197.218 597.666C197.22 597.658 197.221 597.65 197.223 597.642C197.218 597.645 197.213 597.648 197.208 597.652C197.212 597.656 197.215 597.661 197.218 597.666ZM151.333 328.452C151.512 328.347 151.69 328.242 151.869 328.138C158.193 339.783 162.578 352.331 167.359 364.585C162.497 352.391 157.152 340.335 151.333 328.452ZM194.285 465.747C189.825 445.105 186.177 424.01 179.707 403.483C179.712 403.481 179.717 403.479 179.722 403.477C180.048 403.383 180.383 403.258 180.702 403.139C186.695 423.861 191.243 444.817 194.285 465.747ZM168.987 370.899C169.148 370.855 169.313 370.779 169.478 370.702C173.274 380.597 176.736 390.537 179.894 400.595C179.72 400.632 179.523 400.65 179.342 400.719C176.203 390.687 172.761 380.771 168.987 370.899ZM77.2508 474.412C76.8368 468.032 77.611 461.679 75.3575 455.27C75.6693 461.651 75.9697 468.031 76.2586 474.412C76.5893 474.412 76.92 474.412 77.2508 474.412ZM118.959 274.981C118.342 273.836 117.886 274.991 117.498 273.823C115.574 268.051 111.194 263.913 107.962 259.071C106.205 256.448 105.775 255.313 105.941 254.055C109.879 259.588 114.047 265.039 117.115 271.067C117.714 272.263 118.484 272.6 119.074 273.593C119.991 275.151 119.643 275.244 118.959 274.981ZM105.942 253.989C105.945 253.987 105.947 253.984 105.95 253.982C105.948 253.991 105.948 254.001 105.947 254.009C105.944 254.009 105.941 254.008 105.938 254.007C105.939 254.001 105.941 253.995 105.942 253.989ZM105.947 254.009C105.951 254.01 105.954 254.01 105.958 254.011C105.954 254.015 105.949 254.019 105.945 254.023C105.945 254.018 105.946 254.014 105.947 254.009ZM105.912 254C105.92 254.002 105.929 254.005 105.938 254.007C105.935 254.017 105.932 254.027 105.929 254.037C105.923 254.025 105.917 254.013 105.912 254ZM105.945 254.023C105.943 254.033 105.943 254.045 105.941 254.055C105.937 254.049 105.933 254.043 105.929 254.037C105.934 254.032 105.939 254.028 105.945 254.023ZM133.479 584.605C132.97 584.383 132.054 584.1 131.756 584.981C131.459 585.863 132.319 585.897 132.968 586.079C136.407 587.1 139.888 587.973 143.425 588.558C140.5 585.895 136.785 586.028 133.479 584.605ZM130.344 295.207C126.656 288.886 122.474 282.909 119.106 276.298C118.911 275.909 119.01 275.456 118.988 275.036C120.852 276.668 122.418 278.836 123.908 281.471C126.204 285.542 128.569 289.577 130.808 293.686C131.254 294.5 131.87 295.497 131.386 295.901C131.134 296.11 130.695 295.821 130.344 295.207ZM69.9643 345.287C71.4608 348.749 72.3696 358.076 71.6593 363.913C70.4507 357.161 70.9586 351.152 69.9643 345.287ZM81.1327 523.948C82.2678 521.706 82.3324 520.005 81.0313 517.762C79.3703 519.872 80.1094 521.778 81.1327 523.948ZM80.2283 485.055C80.2373 484.111 80.1381 483.167 79.4899 483.081C78.6975 482.967 78.2033 484.312 78.5251 485.084C80.1783 488.975 78.6235 493.353 80.1537 498.474C80.1533 498.465 80.1528 498.455 80.1524 498.445C80.1929 493.152 80.204 489.09 80.2283 485.055ZM156.183 348.082C154.002 342.114 151.073 336.622 148.63 330.814C147.332 327.733 145.633 324.771 144.278 321.72C143.213 319.324 142.365 316.881 142.056 314.282C142.943 316.652 143.933 318.98 144.979 321.291C148.983 330.174 153.873 338.71 156.183 348.082ZM195.926 493.222C196.158 493.188 196.391 493.154 196.623 493.121C197.646 503.309 198.294 513.454 198.544 523.546C198.302 523.561 198.061 523.576 197.819 523.591C197.577 513.519 196.938 503.393 195.926 493.222ZM118.902 274.96C118.884 274.944 118.865 274.926 118.847 274.911C118.847 274.911 118.904 274.952 118.942 274.975C118.948 274.977 118.953 274.978 118.959 274.981C118.96 274.983 118.961 274.984 118.962 274.986C118.971 274.991 118.976 274.991 118.973 274.987C118.978 274.994 118.983 275.002 118.988 275.01C118.988 275.019 118.988 275.027 118.988 275.036C118.973 275.022 118.957 275.008 118.941 274.994C118.912 274.976 118.883 274.959 118.853 274.941C118.87 274.947 118.886 274.953 118.902 274.96ZM140.636 314.737C139.325 311.085 136.48 308.115 135.901 304.175C137.989 307.53 140.365 310.778 140.636 314.737ZM162.106 585.801C162.936 585.758 163.88 585.899 163.737 586.755C163.623 587.571 162.764 587.614 161.877 587.534C160.059 587.36 158.258 587.187 156.447 587.015C156.154 586.971 155.861 586.925 155.569 586.877C155.574 586.877 155.58 586.877 155.586 586.877C155.624 586.633 155.645 586.409 155.665 586.164C155.925 586.143 156.186 586.12 156.447 586.095C158.323 585.985 160.215 585.872 162.106 585.801ZM195.979 562.012C195.289 556.589 197.028 551.365 197.115 545.983C198.001 551.392 196.58 556.735 195.979 562.012ZM164.767 369.537C164.286 369.792 163.611 369.316 163.472 368.615C162.656 364.295 160.782 360.456 159.082 356.456C158.886 356.016 159.003 355.386 158.944 354.27C162.203 358.349 163.013 363.34 165.103 367.487C165.556 368.369 165.315 369.25 164.767 369.537ZM171.791 393.126C169.886 386.557 167.885 379.972 165.551 373.481C165.078 372.152 164.928 371.283 165.483 370.966C166.426 370.438 166.564 372.168 166.833 372.98C168.919 379.139 170.783 385.3 172.549 391.53C172.546 391.522 172.543 391.513 172.54 391.505C172.3 392.033 172.042 392.568 171.791 393.126ZM109.009 563.221C111.368 565.134 113.156 567.528 115.631 570.216C113.602 569.77 112.248 569.409 110.839 569.001C110.402 570.595 112.275 570.532 112.306 572.136C109.245 569.685 106.289 567.57 104.076 564.595C101.505 561.123 98.7321 557.742 95.8454 554.468C95.8275 554.465 95.8096 554.463 95.7917 554.46C94.5299 552.992 94.8768 552.067 95.4465 550.811C95.4587 550.811 95.4709 550.81 95.4828 550.809C97.6602 551.385 99.7453 551.751 98.7698 554.694C98.4787 555.645 99.5669 555.486 99.9731 555.843C102.264 557.867 105.25 558.956 106.118 562.27C106.396 563.299 108.262 562.617 109.009 563.221ZM178.237 411.287C174.727 405.25 173.197 398.662 172.554 391.588C175.092 397.915 176.67 404.611 178.237 411.287ZM172.549 391.53C172.551 391.549 172.553 391.569 172.554 391.588C172.548 391.571 172.541 391.553 172.534 391.536C172.539 391.534 172.544 391.532 172.549 391.53ZM189.242 465.829C188.23 464.83 186.845 464.719 187.077 462.625C187.814 455.83 184.806 449.913 183.637 443.57C183.564 443.131 183.506 442.687 183.415 442.172C184.596 442.331 183.85 444.16 185.032 444.753C184.638 441.388 184.257 438.152 183.074 435.117C182.915 434.729 182.329 434.386 182.343 434.218C182.53 432.363 180.874 429.441 182.14 428.796C183.387 428.13 183.748 431.389 183.99 432.657C183.992 432.666 183.994 432.674 183.996 432.683C186.181 443.607 188.442 454.44 189.242 465.829ZM68.7057 293.189C68.9283 296.684 69.8068 300.034 70.502 303.351C70.8714 305.737 71.1337 308.153 71.1497 310.639C71.1528 311.526 71.5546 312.985 70.9257 313.156C70.3479 313.328 70.0974 312.069 70.0081 311.039C70.0038 311.039 69.9995 311.039 69.9952 311.039C69.7728 308.477 69.5482 305.914 69.3215 303.351C68.9273 300.001 68.7197 296.607 68.7057 293.189ZM74.6216 346.432C74.0619 351.181 76.5652 355.559 76.1876 360.251C76.1932 360.261 76.1989 360.271 76.2045 360.28C76.0393 362.197 76.2033 364.4 75.2033 366.145C73.8201 359.336 74.2 353.184 73.4779 347.089C73.3882 346.317 73.6072 345.374 74.1332 345.459C74.2898 345.488 74.647 346.232 74.6216 346.432ZM76.1856 375.558C76.5041 378.963 79.9534 382.196 76.7708 385.544C75.3985 382.225 76.3662 378.905 76.1856 375.558ZM76.8671 388.805C78.4831 393.812 77.6999 397.847 78.1708 401.738C77.1609 397.933 76.6088 394.07 76.8671 388.805ZM95.4729 550.751C95.4687 550.76 95.4652 550.769 95.461 550.779C95.4864 550.764 95.5117 550.749 95.5371 550.735C95.5158 550.741 95.494 550.745 95.4729 550.751ZM72.9902 328.264C73.1092 332.012 74.3091 335.96 73.5031 340.71C71.8782 335.903 72.8391 331.925 72.1291 328.091C72.1041 327.948 72.3308 327.462 72.4159 327.519C72.6135 327.634 72.9566 328.035 72.9741 328.235C72.9795 328.245 72.9848 328.254 72.9902 328.264ZM133.447 576.81C135.45 577.135 135.706 579.456 137.743 578.908C137.75 578.903 137.757 578.898 137.764 578.893C137.623 579.317 137.464 579.736 137.322 580.16C136.854 580.115 136.38 580.148 135.927 580.035C129.463 578.458 123.16 575.907 117.212 572.485C116.501 572.073 115.924 571.583 116.394 570.742C117.106 569.46 117.814 570.111 118.506 570.531C121.636 572.43 125.064 573.698 128.137 575.495C129.801 576.474 131.78 576.529 133.447 576.81ZM189.4 475.861C188.533 472.576 187.509 469.926 187.412 466.965C189.737 467.607 190.988 471.922 189.4 475.861ZM191.192 502.126C189.89 500.165 190.58 498.036 190.822 496.146C190.823 496.155 190.824 496.163 190.825 496.172C191.317 492.42 191.284 488.732 190.084 485.153C192.898 490.216 192.459 496.239 193.084 501.893C193.174 502.836 193.057 503.826 192.145 503.933C191.121 504.028 191.508 502.601 191.192 502.126ZM192.631 539.707C191.738 538.151 189.632 538.275 190.842 536.506C192.523 534.035 191.877 531.647 191.354 529.475C190.599 526.388 192.626 523.913 192.012 520.807C191.246 516.847 192.859 512.469 191.413 508.391C191.101 507.529 191.22 506.412 192.157 506.384C193.095 506.357 193.093 507.494 193.147 508.413C193.37 513.156 193.836 517.95 193.408 522.604C193.402 522.613 193.396 522.622 193.389 522.631C192.899 528.107 193.589 533.515 192.631 539.707ZM161.162 578.442C162.134 577.828 162.506 578.438 162.678 578.642C164.309 580.452 166.712 580.591 168.944 579.733C171.032 578.935 171.004 580.322 171.204 580.73C171.748 581.811 169.974 581.751 169.402 581.751C165.106 581.873 160.762 582.164 156.447 582.263C154.597 582.335 152.782 582.231 151.025 581.815C148.384 581.18 145.782 582.097 143.301 581.254C143.297 581.247 143.293 581.239 143.289 581.231C141.368 580.58 138.678 581.205 138.148 578.325C138.95 576.866 139.482 581.011 139.995 577.417C140.098 576.733 141.01 576.91 141.557 577.008C145.036 577.585 148.332 578.287 151.801 579.701C153.216 580.273 154.863 580.622 156.447 580.169C158.109 579.898 159.716 579.363 161.162 578.442ZM190.581 562.874C188.606 559.347 190.375 555.934 191.09 553.327C192.09 549.616 190.532 546.758 190.949 543.396C191.035 542.622 190.375 541.437 191.331 541.233C192.248 541.026 192.661 542.185 192.621 543.366C192.627 543.374 192.633 543.383 192.639 543.391C192.394 549.762 193.03 556.208 190.581 562.874ZM197.327 579.637C197.756 579.863 198.386 577.893 199.101 579.546C199.33 580.098 199.014 580.686 197.842 580.842C190.031 581.897 182.162 581.956 174.265 581.382C174.008 581.361 173.808 580.872 173.179 580.097C179.845 579.996 185.796 578.828 192.119 579.244C193.836 579.354 195.61 578.751 197.327 579.637ZM209.802 578.365C212.777 577.804 213.035 580.103 215.095 580.448C210.803 582.396 207.111 582.452 204.107 578.461C206.453 579.557 208.142 578.676 209.802 578.365ZM180.928 599.71C180.968 598.649 180.251 596.469 183.101 597.305C183.793 597.521 183.916 596.897 183.673 596.334C183.537 596.026 183.238 595.802 183.012 595.524C185.686 592.677 184.927 588.709 185.943 585.294C186.111 584.699 186.292 583.766 187.149 584.081C187.662 584.276 187.724 584.744 187.603 585.423C185.899 595.514 183.662 605.275 180.81 614.506C180.797 614.502 180.784 614.499 180.771 614.495C180.676 614.793 180.329 615.016 179.886 615.528C179.124 613.557 179.009 611.338 179.997 610.133C182.17 607.499 181.248 604.032 182.785 601.288C183.123 600.688 183.994 599.482 182.52 599.07C181.56 598.798 181.136 599.27 180.928 599.71ZM180.753 600.202C180.789 600.084 180.838 599.899 180.928 599.71C180.92 599.942 180.877 600.121 180.753 600.202Z" fill="var(--stroke-0, #C6EDD1)"/>
<path id="t" d="M190.459 135.414C192.508 139.616 193.832 144.196 194.836 149.018C193.033 144.687 191.682 140.089 190.459 135.414ZM190.459 135.414C190.424 135.343 190.39 135.272 190.355 135.202C190.355 135.202 190.405 135.258 190.415 135.291C190.419 135.29 190.422 135.289 190.425 135.287C190.436 135.329 190.448 135.372 190.459 135.414ZM190.396 135.224C190.396 135.184 190.394 135.142 190.393 135.102C190.41 135.161 190.428 135.22 190.445 135.28C190.429 135.261 190.412 135.242 190.396 135.224ZM420.07 310.725C420.656 315.056 427.194 316.997 431.499 319.444C438.747 323.558 446.009 327.371 453.357 331.247C460.853 335.2 468.897 338.693 476.879 341.562C478.294 342.058 479.406 342.31 477.743 342.971C477.728 342.972 477.712 342.974 477.697 342.976C477.699 342.98 477.701 342.984 477.703 342.988C477.687 342.994 477.671 343.002 477.654 343.008C477.659 342.998 477.664 342.988 477.668 342.979C477.646 342.981 477.623 342.983 477.601 342.985C477.606 342.975 477.61 342.965 477.615 342.954C474.654 345.447 471.668 341.485 468.98 340.572C463.01 338.55 457.385 334.274 451.578 332.587C445.309 330.735 440.287 325.732 432.453 324.829C452.044 336.779 471.351 346.694 491.552 353.504C492.047 352.472 489.856 352.607 489.902 351.29C510.263 360.842 531 370.57 553.039 371.349C545.936 368.542 537.791 369.19 530.647 365.551C534.264 365.969 537.959 365.905 541.417 366.69C551.914 369.094 562.502 370.201 572.672 372.047C576.199 372.686 579.39 370.877 582.822 371.655C583.891 371.892 585.585 371.548 586.07 372.01C589.017 374.788 592.715 374.848 596.274 374.529L553.891 417.762C553.75 415.166 553.526 412.541 553.672 409.985C553.813 407.556 553.885 405.133 553.911 402.715C554.017 393.095 553.4 383.547 553.507 373.935C553.652 359.074 553.341 344.18 553.91 329.352C554.245 320.754 555.189 311.736 555.038 303.51C555.036 303.448 555.034 303.386 555.032 303.325C554.797 297.244 554.39 291.185 553.174 285.255C551.495 277.087 546.889 270.199 545.423 261.497C541.153 258.131 538.702 253.514 535.281 249.387C534.145 248.101 532.996 246.833 531.812 245.605C516.047 229.216 501.374 211.874 486.063 195.031C467.293 174.376 448.621 153.577 430.281 132.54C418.117 118.607 405.707 104.873 393.513 90.9713C393.028 90.4314 392.677 89.7563 392.186 89.0357C393.684 89.169 394.579 91.6287 395.939 91.9934C394.75 90.0601 393.013 87.5572 391.659 87.1867C389.425 86.5781 387.989 84.4717 386.51 82.7821C385.063 81.1128 383.615 79.4445 382.167 77.7762C378.243 73.0684 373.844 68.7411 369.038 64.8186C359.334 56.8938 347.508 51.4073 334.991 48.1219C324.188 45.2816 312.697 44.1091 301.22 45.2037C288.917 46.3698 276.674 50.0487 265.449 56.0251C280.024 48.6805 296.045 45.1948 311.657 45.572C311.642 45.7457 311.629 45.9303 311.588 46.1036C293.656 46.1664 274.413 50.3316 259.053 61.2204C259.14 61.3361 259.226 61.4517 259.313 61.5673C266.371 57.3965 273.879 54.139 281.549 51.9513C283.893 51.2775 286.26 50.3664 288.644 50.3138C287.849 51.4128 285.378 51.4219 283.888 52.1341C284.452 52.3103 285.847 51.405 286.346 51.83C286.182 51.9308 286.034 52.0771 285.825 52.1308C279.08 54.0905 272.433 56.6298 265.824 59.5315C264.288 60.2129 263.268 60.9279 262.278 61.784C259.372 64.262 254.256 67.5309 251.158 68.862C249.578 69.5293 249.648 68.6757 250.302 67.6567C251.296 66.0906 250.919 65.681 248.963 66.5197C247.802 67.0251 247.574 66.8811 248.118 65.9597C249.633 63.472 249.414 63.3926 244.824 67.0796C249.084 62.6838 247.147 63.3721 245.363 63.2107C242.867 62.9348 237.83 64.9607 241.592 58.7931C242.085 58.014 241.928 56.6367 240.432 56.6977C238.81 56.7607 236.703 56.7403 237.968 53.799C238.162 53.3629 238.859 52.4309 239.439 51.897C245.266 46.7266 243.575 46.4471 242.294 46.2569C239.043 45.838 239.109 42.7658 239.782 38.9965C240.136 36.9903 239.361 35.7827 239.713 33.7254C240.082 31.4224 245.401 26.9765 249.436 23.9933C257.343 18.0337 266.368 13.3876 275.793 10.0488C280.001 8.54446 284.599 6.91654 288.925 5.43503C296.469 2.83734 303.701 2.50956 311.449 1.41178C314.371 1.00125 316.711 0.619059 318.954 3.57636e-07C322.297 1.40927 327.666 0.0715011 332.015 0.420597C336.381 0.753903 341.058 1.32788 345.415 0.952639C348.528 0.688006 349.514 2.14208 352.26 2.63559C367.086 5.3191 381.46 10.9633 394.954 17.9179C402.088 21.5856 408.599 26.0571 414.33 30.9858C416.965 33.2475 419.495 35.5319 422.01 37.9321C435.081 50.2782 449.074 61.8096 462.121 74.1823C468.677 80.3948 475.15 87.576 483.191 92.6767C486.359 94.6806 489.085 97.8744 491.802 100.703C496.283 105.355 500.717 109.915 506.094 113.904C511.257 117.735 514.948 123.178 520.096 127.304C526.854 132.709 532.873 138.853 539.042 144.893C541.942 147.726 544.839 150.699 548.721 151.571C551.281 152.133 548.998 153.765 550.989 155.269C554.814 158.154 558.49 161.374 562.127 164.54C569.61 171.038 576.238 178.157 582.572 185.617C585.002 188.485 587.924 191.24 590.913 193.755C591.959 194.674 592.994 195.587 594.012 196.492C597.348 199.454 599.306 203.903 603.195 205.935C603.549 208.338 604.561 211.983 606.984 213.374C610.9 215.622 612.56 219.37 614.976 222.972C619.739 230.068 624.494 237.312 626.482 245.734C626.932 247.655 628.436 247.267 629.215 249.561C630.688 253.836 632.304 258.578 633.613 262.408C637.042 272.326 636.344 283.096 639.908 292.951C641.007 295.961 640.416 299.837 640.33 303.51C640.32 303.833 640.32 304.154 640.333 304.473C640.621 311.755 641.61 319.236 640.138 326.353C638.509 334.13 639.795 342.005 640.262 349.584C640.52 353.868 639.701 359.173 641.901 363.062C639.677 365.237 641.76 370.376 639.265 372.749C637.704 374.232 638.796 377.593 639.433 379.208C641.755 385.007 641.644 389.094 641.387 395.42C641.289 397.807 641.002 400.246 640.838 402.715C640.567 406.79 640.632 410.947 642.439 415.092C642.748 415.799 642.833 416.715 642.792 417.762L642.665 462.653L598.038 463.412C594.671 463.373 590.128 462.343 586.393 462.162C583.09 462.017 578.911 461.875 576.162 460.161C575.271 459.594 574.245 459.44 573.273 460.04C568.582 462.832 563.648 460.373 559.27 458.945C555.321 457.653 552.327 455.516 548.467 457.96C547.215 458.728 544.066 457.994 542.166 457.234C537.033 455.192 537.101 455.12 531.922 455.253C531.114 455.266 530.124 455.029 529.295 454.762C520.312 451.981 510.95 450.969 502.293 446.507C496.166 443.366 487.696 440.141 481.464 439.445C474.097 438.635 468.671 434.884 462.382 432.706C454.964 430.145 447.545 426.784 440.743 422.875C425.824 414.332 410.188 407.258 396.645 396.949C395.334 395.943 393.71 394.494 392.126 395.003C391.17 395.32 389.473 394.094 389.066 393.524C384.156 386.536 375.868 383.53 369.422 378.629C351.688 365.159 334.499 351.181 318.735 335.65C309.666 326.727 300.527 317.889 292.329 308.237C285.365 300.038 278.43 291.966 271.821 283.563C269.951 281.187 268.127 278.808 266.326 276.382C260.6 268.667 255.129 260.532 249.2 253.002C247.015 250.25 243.348 246.987 243.813 243.145C243.805 243.106 237.578 235.395 237.482 235.199C236.915 234.394 236.304 233.618 235.867 232.769C229.072 220.045 221.605 208.117 215.349 195.382C206.47 177.332 199.131 158.481 192.759 139.484C190.799 133.626 189.643 127.413 187.468 121.043C187.937 125.944 190.333 130.89 190.393 135.102C187.655 125.82 185.095 116.303 183.661 107.029C183.186 103.98 182.545 100.783 181.978 97.6125L178.756 80.7802L188.099 73.2136C192.386 69.8641 196.704 66.6206 200.846 64.7669C201.807 64.3299 202.648 63.3064 203.381 62.5939C205.777 60.2837 207.438 59.6619 207.343 60.499C207.171 62.3297 209.079 60.7902 211.873 58.3652C212.845 57.5196 214.168 56.2784 214.836 56.2945C215.384 56.2831 214.489 57.206 213.65 58.044C212.129 59.5519 209.679 61.7622 211.212 61.5249C212.301 61.3556 214.353 60.4716 216.72 57.8515C216.834 57.7323 217.24 57.5339 217.618 57.306C217.453 58.3063 215.592 59.8009 214.052 61.2439C216.964 60.0544 219.179 59.3345 218.036 62.0591C217.781 62.6428 218.349 62.5116 216.988 63.7592C214.165 66.3417 214.418 66.5487 216.273 66.0272C218.631 65.3562 222.113 63.665 220.073 67.4037C219.923 67.6724 220.059 67.8559 220.328 67.7517C222.942 66.778 223.726 67.2355 222.629 70.053C221.902 71.8887 225.941 69.1234 228.532 67.1474C234.32 62.7345 238.762 61.1134 240.127 62.4776C240.127 62.4777 240.127 62.4777 240.127 62.4778C240.585 62.9359 240.705 63.732 240.431 64.88C239.766 67.5704 237.872 71.9674 242.657 69.111C233.89 79.9792 225.231 90.849 216.591 101.706L220.546 85.9433C230.198 108.059 241.69 129.076 254.299 149.382C273.772 180.639 295.513 210.385 321.043 236.225C317.978 231.847 313.702 228.361 310.783 223.943C310.546 223.581 310.558 223.179 310.211 221.933C315.097 227.523 320.098 232.998 325.21 238.355C325.778 238.951 326.347 239.545 326.918 240.137C327.452 240.692 328.085 241.323 327.2 241.274C324.644 241.153 327.536 242.653 327.765 242.657C330.12 242.736 331.764 244.786 333.194 246.786C335.094 249.419 337.691 251.094 339.974 253.181C350.436 262.732 361.199 271.897 372.293 280.545C376.602 283.904 380.711 287.696 385.679 290.455C388.58 292.063 387.748 289.003 390.055 290.519C392.693 292.242 389.424 293.154 392.111 294.972C394.889 296.845 397.331 299.237 400.569 301.015C400.301 300.078 400.092 299.36 399.681 297.926C405.547 304.781 412.617 307.675 420.07 310.725ZM528.915 451.324C521.994 448.444 514.688 447.735 507.733 445.497C514.374 448.711 521.75 449.736 528.915 451.324ZM480.25 435.913C486.554 440.117 494.117 441.767 501.453 443.772C494.404 441.058 486.946 439.35 480.25 435.913ZM550.198 455.153C562.778 457.11 575.637 458.328 588.768 458.568C588.733 458.302 588.699 458.037 588.664 457.771C575.612 457.528 562.827 456.316 550.314 454.371C550.275 454.632 550.237 454.893 550.198 455.153ZM636.985 403.428C636.985 408.206 637.26 412.984 637.416 417.762L637.304 457.367L597.932 458.037C597.118 458.076 596.304 458.108 595.488 458.133C596.304 458.165 597.12 458.197 597.935 458.224L637.49 457.551L637.603 417.762C637.908 412.946 638.197 408.124 636.985 403.428ZM218.598 128.502C214.623 114.166 209.378 102.411 204.878 90.6838L204.805 90.3025L205.016 90.131C205.512 89.5562 206.007 88.9826 206.502 88.4103C205.915 88.8926 205.333 89.3791 204.755 89.8698L204.402 90.1554L204.524 90.7909C207.259 103.527 212.295 115.667 218.598 128.502ZM355.601 49.8119C359.516 52.3751 362.166 54.4297 366.095 54.7824C362.723 52.5915 359.791 50.7172 355.601 49.8119ZM403.466 91.1784C408.132 98.8607 413.666 104.092 419.689 108.646C414.809 102.622 409.572 97.1416 403.466 91.1784ZM368.808 62.9127C369.489 63.4659 370.167 64.0569 370.628 63.9366C371.01 63.8405 371.052 63.3092 371.135 62.8978C371.165 62.6145 370.785 62.1241 370.334 62.0739C366.936 61.7522 365.192 58.2824 362.252 56.99C363.972 57.2553 365.386 59.1299 367.716 59.6739C362.018 55.2443 355.945 54.5184 350.408 50.9567C350.401 50.9491 350.394 50.9416 350.387 50.934C351.828 53.0073 354 53.2115 355.773 54.192C360.388 56.7598 364.775 59.6433 368.808 62.9127ZM329.242 44.6061C334.224 46.0158 338.38 46.9614 342.539 48.0236C338.429 46.9447 334.537 44.3402 329.242 44.6061ZM553.2 265.627C553.111 265.754 553.368 266.733 554.018 266.742C554.715 266.755 555.008 266.22 555.044 265.484C555.163 262.909 553.539 260.744 552.395 257.342C552.39 257.346 552.384 257.349 552.379 257.353C552.046 258.485 551.817 258.791 551.882 259.088C552.315 261.247 555.183 263.259 553.2 265.627ZM387.61 80.5494C386.348 79.0739 385.148 77.5356 383.927 76.0158C382.208 73.7523 380.311 71.6254 377.862 70.165C379.9 72.1024 381.841 74.12 383.707 76.2359C385.007 77.6743 386.308 79.1121 387.61 80.5494ZM392.76 86.6448C395.922 90.5199 398.902 94.5303 402.909 97.4664C399.592 93.7472 396.877 89.378 392.76 86.6448ZM473.295 174.572C475.58 176.48 475.7 179.856 477.043 180.423C481.597 182.359 483.474 186.839 486.62 190.004C483.152 184.179 479.463 178.523 473.295 174.572ZM413.194 109.27C416.032 112.21 415.712 115.606 419.315 118.714C419.893 115.013 415.98 112.216 413.194 109.27ZM494.936 201.535C495.084 201.667 495.245 201.786 495.371 201.894C499.65 205.35 503.089 209.647 506.552 213.873C508.014 215.672 509.519 216.031 510.274 215.509C511.169 214.894 509.479 213.508 508.681 212.582C503.628 206.59 497.658 201.469 492.663 195.326C491.102 193.405 488.808 191.945 486.848 190.28C485.651 191.254 487.738 192.203 488.344 193.215C489.866 195.793 492.061 196.349 493.89 197.875C496.382 199.949 496.494 200.862 494.936 201.535ZM543.955 257.518C543.055 258.775 544.089 258.344 544.472 258.045C544.916 257.697 545.645 258.77 545.928 257.721C545.624 257.329 545.245 256.937 544.97 256.468C544.718 256.066 544.248 255.633 544.562 255.108C544.566 255.114 544.57 255.12 544.575 255.127C549.166 258.431 548.946 264.966 552.704 268.848C549.601 260.523 545.033 252.496 538.656 246.012C536.53 243.86 534.372 241.737 532.172 239.652C531.337 238.856 530.244 238.365 529.731 237.247C526.807 231.037 520.913 226.912 516.626 221.693C515.281 220.055 514.111 219.874 512.259 219.723C517.905 224.934 522.79 229.835 526.383 235.749C526.948 236.675 527.885 237.556 528.678 238.394C531.556 241.383 534.463 244.343 537.335 247.334C539.613 249.75 541.69 252.35 543.415 255.166C543.891 255.956 544.679 256.52 543.955 257.518ZM244.53 71.8211C242.471 74.8598 231.558 88.861 219.396 104.511L224.342 84.7946C235.006 108.995 250.783 134.465 251.771 137.007C241.14 120.702 232.072 102.875 223.58 85.0251L218.833 103.948C219.705 102.784 220.572 101.62 221.435 100.455C228.238 91.2268 235.065 81.7436 243.407 72.8438C243.741 72.4786 244.088 72.2181 244.53 71.8211ZM554.316 279.092C556.552 286.205 557.708 293.619 557.826 301.029C557.835 301.862 557.791 302.703 557.854 303.51C557.937 305.105 558.226 306.602 559.083 307.83C559.082 307.82 559.083 307.81 559.082 307.801C560.021 306.67 559.79 305.002 559.799 303.51C559.799 303.489 559.8 303.469 559.8 303.448C560.037 295.039 558.904 286.581 556.552 278.442C556.234 277.385 556.133 275.97 554.918 276.253C553.476 276.601 553.925 277.86 554.316 279.092ZM343.985 52.2481C335.682 49.4935 326.987 47.5108 317.984 46.2259C327.015 46.475 335.896 48.6697 343.985 52.2481ZM558.155 403.428C557.157 407.81 558.507 412.226 557.903 416.641C559.954 412.193 558.747 407.81 558.155 403.428ZM557.124 350.112C558.624 347.64 558.987 344.905 558.407 341.543C557.769 337.82 557.908 333.8 558.632 329.978C558.781 329.154 559.577 328.364 558.573 327.803C557.569 327.243 557.315 328.33 557.302 329.681C557.233 336.491 557.173 343.301 557.124 350.112ZM557.004 325.299C558.616 319.778 559.363 314.033 559.092 308.063C555.684 313.089 558.202 319.68 557.004 325.299ZM559.18 307.966C559.18 307.955 559.18 307.944 559.181 307.933C559.177 307.939 559.172 307.945 559.168 307.951C559.172 307.956 559.176 307.961 559.18 307.966ZM368.224 66.8281C368.339 66.656 368.454 66.4839 368.569 66.3118C373.392 69.7857 377.635 74.0004 381.332 78.6103C386.757 85.0276 392.107 91.521 397.691 97.8194C392.089 91.5655 386.497 85.3012 380.916 79.0265C377.101 74.577 372.858 70.4872 368.224 66.8281ZM483.993 194.724C465.204 175.952 448.247 155.488 430.296 135.925C430.3 135.921 430.304 135.918 430.308 135.914C430.571 135.697 430.823 135.445 431.064 135.204C448.649 155.133 466.273 174.976 483.993 194.724ZM402.386 104.233C402.526 104.14 402.654 104.011 402.783 103.883C411.442 113.538 420.127 123.168 428.836 132.773C428.688 132.874 428.507 132.962 428.37 133.099C419.683 123.502 411.022 113.88 402.386 104.233ZM383.358 292.669C377.876 288.627 373.31 283.61 366.72 280.638C371.986 285.031 377.317 289.291 382.722 293.43C382.934 293.176 383.146 292.923 383.358 292.669ZM312.709 48.897C311.457 48.7658 312.143 49.7887 311 49.4644C305.302 47.8843 299.613 49.6673 294.029 50.5087C290.976 50.9822 289.799 50.9519 288.705 50.3076C295.252 48.8177 301.977 47.6553 308.554 48.2884C309.849 48.424 310.526 47.965 311.652 48.0253C313.41 48.1349 313.289 48.483 312.709 48.897ZM288.645 50.2813C288.644 50.2782 288.643 50.2751 288.642 50.272C288.649 50.2764 288.658 50.2803 288.665 50.2847C288.664 50.2873 288.662 50.2899 288.66 50.2924C288.655 50.2887 288.65 50.285 288.645 50.2813ZM288.665 50.2847C288.668 50.2816 288.669 50.2784 288.671 50.2753C288.673 50.2809 288.675 50.2865 288.677 50.2922C288.673 50.2897 288.669 50.2871 288.665 50.2847ZM288.644 50.3138C288.649 50.3067 288.655 50.2996 288.66 50.2924C288.668 50.2991 288.676 50.3058 288.684 50.3124C288.67 50.3129 288.657 50.3133 288.644 50.3138ZM288.677 50.2922C288.686 50.2975 288.696 50.3023 288.705 50.3076C288.698 50.3092 288.691 50.3108 288.684 50.3124C288.682 50.3057 288.679 50.2989 288.677 50.2922ZM557.551 371.263C556.707 371.069 555.207 370.839 555.068 371.759C554.93 372.681 556.232 372.654 557.261 372.796C562.749 373.609 568.222 374.342 573.629 374.83C568.757 372.23 563.01 372.502 557.551 371.263ZM334.415 52.9463C327.752 51.1462 320.875 50.5341 313.835 49.5233C313.422 49.461 313.117 49.1231 312.769 48.9037C315.08 48.2855 317.692 48.2806 320.583 48.728C325.04 49.4238 329.445 50.2967 333.715 51.5531C334.565 51.7992 335.644 52.0688 335.577 52.6959C335.541 53.0211 335.055 53.1256 334.415 52.9463ZM286.193 193.95C289.478 196.299 295.832 204.116 298.935 209.639C293.713 204.397 290.489 198.73 286.193 193.95ZM431.37 323.544C429.228 320.565 426.977 318.881 423.222 317.86C425.035 321.139 427.849 322.238 431.37 323.544ZM393.998 297.493C393.224 296.868 392.384 296.322 391.908 296.771C391.317 297.313 392.122 298.591 392.963 298.846C397.22 300.113 399.937 304.185 405.204 306.192C405.195 306.187 405.187 306.181 405.178 306.175C400.716 302.806 397.329 300.164 393.998 297.493ZM378.735 82.4482C378.552 82.2178 378.368 81.9882 378.183 81.7595C374.9 77.3602 370.809 73.7879 366.771 70.1004C362.716 66.4228 357.65 64.0898 354.143 59.7644C363.047 66.3212 372.743 72.3016 378.24 81.7032C378.406 81.9507 378.571 82.199 378.735 82.4482ZM506.081 221.427C506.247 221.261 506.413 221.095 506.579 220.929C515.434 230.42 524.315 239.883 533.223 249.32C533.052 249.492 532.881 249.663 532.709 249.834C523.806 240.392 514.93 230.923 506.081 221.427ZM312.661 48.9327C312.639 48.9388 312.615 48.9439 312.592 48.9502C312.592 48.9502 312.656 48.9259 312.695 48.9079C312.7 48.9043 312.704 48.9005 312.709 48.897C312.711 48.8972 312.713 48.8974 312.715 48.8976C312.724 48.8928 312.726 48.8893 312.721 48.889C312.73 48.8893 312.739 48.8896 312.748 48.8899C312.755 48.8944 312.761 48.8992 312.769 48.9037C312.749 48.9089 312.73 48.9141 312.71 48.9194C312.68 48.9336 312.65 48.9478 312.62 48.962C312.634 48.9522 312.647 48.9423 312.661 48.9327ZM353.251 60.9512C350.381 58.7868 346.631 58.2492 343.913 55.6732C347.401 56.8281 351.057 57.941 353.251 60.9512ZM551.233 415.355C551.191 414.4 551.332 413.312 552.188 413.477C553.004 413.609 553.047 414.598 552.967 415.619C552.908 416.335 552.848 417.049 552.789 417.762L596.252 373.427C594.751 373.298 593.241 373.15 591.703 372.983C591.712 372.983 591.72 372.983 591.729 372.983C591.783 372.739 591.811 372.514 591.839 372.27C593.31 372.187 594.775 372.076 596.223 371.965L551.327 417.762C551.291 416.96 551.259 416.158 551.233 415.355ZM548.777 277.58C546.265 273.832 545.789 269.291 543.504 265.428C546.628 268.79 547.498 273.413 548.777 277.58ZM397.456 103.898C397.095 104.306 396.176 103.966 395.694 103.236C392.776 98.7447 389.03 94.9882 385.465 91.0041C385.063 90.5674 384.896 89.8486 384.334 88.6401C389.493 92.3352 392.69 97.6197 396.798 101.573C397.683 102.413 397.87 103.437 397.456 103.898ZM416.75 127.478C411.262 120.988 405.801 114.425 400.208 107.995C399.061 106.673 398.48 105.763 398.884 105.266C399.576 104.434 400.57 106.282 401.249 107.094C406.41 113.211 411.499 119.353 416.623 125.506C416.615 125.498 416.608 125.49 416.601 125.482C416.651 126.13 416.69 126.792 416.75 127.478ZM507.557 352.045C512.55 353.553 517.171 355.782 522.772 358.217C519.43 358.081 517.278 357.984 514.968 357.844C515.59 359.63 518.168 359.173 519.367 360.863C513.303 358.882 507.63 357.363 502.115 354.809C495.727 351.84 488.896 349.102 482.121 346.754C482.097 346.758 482.073 346.762 482.05 346.767C479.055 345.707 478.46 344.587 477.703 342.988C477.717 342.982 477.729 342.976 477.743 342.971C480.848 342.672 483.864 342.317 485.814 345.872C486.462 347.007 487.617 346.44 488.496 346.688C493.379 348.061 498.485 348.389 502.732 351.749C504.026 352.777 505.965 351.565 507.557 352.045ZM433.412 144.786C426.47 139.644 421.158 133.013 416.66 125.567C422.62 131.597 427.962 138.246 433.412 144.786ZM416.623 125.506C416.635 125.527 416.648 125.547 416.66 125.567C416.644 125.551 416.628 125.534 416.611 125.518C416.615 125.514 416.619 125.51 416.623 125.506ZM479.611 197.336C477.991 196.812 476.676 197.38 475.369 195.099C471.162 187.749 464.342 183.011 458.961 176.836C458.597 176.408 458.245 175.967 457.815 175.465C459.009 175.111 459.553 177.362 461.042 177.457C458.393 174.096 455.941 170.908 452.837 168.187C452.435 167.844 451.664 167.729 451.568 167.546C450.531 165.508 447.111 163.103 447.893 161.9C448.641 160.687 451.044 163.97 452.093 165.204C452.1 165.212 452.108 165.22 452.115 165.229C461.195 175.814 470.661 186.061 479.611 197.336ZM255.257 142.61C259.352 148.987 264.375 154.397 268.086 161.152C268.545 161.997 269.649 163.181 269.187 163.645C268.769 164.085 267.898 163.017 267.288 162.077C267.284 162.079 267.28 162.081 267.276 162.083C263.126 155.696 259.117 149.204 255.257 142.61ZM290.767 192.439C293.098 197.022 297.797 199.493 300.362 203.814C300.373 203.819 300.383 203.825 300.394 203.83C301.434 205.602 302.93 207.422 303.216 209.526C297.821 204.408 294.393 198.729 290.198 193.656C289.666 193.011 289.297 192.042 289.789 191.832C289.937 191.773 290.671 192.245 290.767 192.439ZM309.988 217.049C312.445 219.775 317.268 220.372 316.979 225.136C313.703 223.208 312.287 219.794 309.988 217.049ZM319.228 227.801C323.136 230.475 325.274 233.601 327.702 236.245C328.134 236.715 328.576 237.169 329.038 237.599C328.511 237.222 327.992 236.836 327.478 236.434C324.674 234.247 322.035 231.639 319.228 227.801ZM477.666 342.912C477.671 342.923 477.678 342.935 477.683 342.947C477.696 342.92 477.708 342.894 477.721 342.867C477.703 342.883 477.683 342.896 477.666 342.912ZM279.054 176.755C281.219 180.158 284.448 183.148 286.499 187.882C282.356 184.387 280.934 180.211 278.219 177.036C278.119 176.917 278.047 176.351 278.151 176.36C278.384 176.366 278.899 176.562 279.024 176.737C279.034 176.743 279.044 176.749 279.054 176.755ZM554.586 363.279C558.06 363.524 559.253 365.88 562.403 365.248C562.413 365.242 562.423 365.237 562.434 365.231C562.339 365.668 562.216 366.102 562.121 366.539C561.348 366.511 560.585 366.563 559.832 366.469C548.919 365.146 537.829 363.049 526.706 360.366C525.381 360.044 524.192 359.623 524.282 358.649C524.409 357.167 525.952 357.751 527.289 358.095C533.349 359.653 539.54 360.631 545.363 362.256C548.553 363.15 551.725 363.071 554.586 363.279ZM487.172 207.53C483.934 204.617 481.087 202.43 478.828 199.423C481.362 198.94 485.558 202.666 487.172 207.53ZM509.358 233.014C506.68 231.824 505.52 229.303 504.197 227.271C504.205 227.279 504.212 227.287 504.22 227.295C501.575 223.229 498.686 219.594 494.868 216.608C501.174 220.181 505.582 226.445 510.707 231.666C511.55 232.546 512.272 233.597 511.623 234.246C510.872 234.95 510.005 233.299 509.358 233.014ZM537.007 263.67C535.58 263.176 533.939 264.5 534.131 262.689C534.379 260.156 532.711 259.044 531.269 258.085C530.231 257.4 529.799 256.375 529.342 255.326C528.372 253.77 527.416 252.198 525.83 250.888C521.783 247.526 519.299 242.227 514.742 239.095C513.771 238.435 512.94 237.263 513.671 236.671C514.402 236.08 515.337 237.195 516.146 238.064C520.285 242.593 524.729 246.957 528.476 251.737C528.479 251.75 528.482 251.762 528.485 251.775C529.131 252.596 529.797 253.398 530.48 254.189C532.732 257.082 535.336 259.79 537.007 263.67ZM543.875 416.443C543.261 415.323 543.871 414.894 544.075 414.697C545.885 412.818 546.024 410.051 545.165 407.481C544.368 405.075 545.755 405.107 546.163 404.877C547.244 404.251 547.183 406.294 547.184 406.953C547.272 410.538 547.449 414.152 547.578 417.762L596.149 368.217C592.338 368.472 588.382 368.497 584.525 367.94C580.262 367.32 576.198 368.27 572.071 367.475C572.063 367.468 572.055 367.46 572.046 367.452C568.764 366.827 564.681 367.557 562.882 364.639C563.765 363.128 565.882 367.331 565.665 363.661C565.63 362.961 567.219 363.122 568.162 363.21C574.202 363.734 579.887 364.418 585.605 365.819C588.92 366.639 592.969 366.981 596.088 365.15L544.511 417.762C544.323 417.311 544.112 416.871 543.875 416.443ZM544.116 280.347C541.162 278.65 541.584 275.619 541.234 273.492C540.732 270.505 538.218 269.345 537.196 266.988C536.947 266.442 535.9 266.058 536.602 265.39C537.27 264.741 538.121 265.265 538.585 266.059C538.594 266.061 538.603 266.063 538.612 266.065C541.086 270.338 544.177 274.634 544.116 280.347ZM545.07 374.792C545.296 374.297 543.325 373.572 544.979 372.749C545.53 372.485 546.119 372.848 546.275 374.199C547.33 383.195 547.388 392.257 546.815 401.352C546.794 401.648 546.305 401.879 545.53 402.603C545.428 394.925 544.261 388.072 544.677 380.789C544.786 378.812 544.184 376.769 545.07 374.792ZM543.798 360.425C543.236 356.998 545.536 356.701 545.88 354.329C547.829 359.272 547.885 363.523 543.893 366.983C544.99 364.281 544.108 362.336 543.798 360.425ZM543.645 315.352C543.452 313.838 542.307 310.976 545.268 311.327C545.99 311.426 545.984 310.537 545.635 309.812C545.441 309.417 545.103 309.185 544.828 308.856C545.582 307.127 545.87 305.333 545.957 303.51C546.109 301.722 545.573 299.921 545.742 298.141C545.78 297.657 545.753 296.92 546.656 296.977C547.198 297.017 547.362 297.362 547.39 297.909C547.504 299.775 547.543 301.643 547.506 303.51C547.385 314.442 547.302 325.363 547.238 336.304C547.225 336.304 547.211 336.304 547.197 336.304C547.192 336.765 546.924 337.227 546.65 338.15C545.342 335.678 544.613 332.548 545.247 330.472C546.64 325.859 544.907 321.41 545.801 316.995C545.997 316.039 546.591 314.095 545.065 313.963C544.068 313.871 543.754 314.664 543.645 315.352ZM543.581 316.105C543.59 315.926 543.598 315.649 543.645 315.352C543.687 315.684 543.685 315.951 543.581 316.105Z" fill="var(--stroke-0, #C6EDD1)"/>
<path id="r" d="M218.508 346.455C213.262 347.829 207.771 348.44 202.08 348.719C207.412 347.569 212.931 346.934 218.508 346.455ZM218.508 346.455C218.596 346.432 218.686 346.409 218.774 346.386C218.774 346.386 218.698 346.427 218.657 346.431C218.658 346.435 218.658 346.439 218.659 346.442C218.609 346.446 218.558 346.451 218.508 346.455ZM218.739 346.422C218.784 346.429 218.832 346.433 218.877 346.439C218.806 346.447 218.735 346.455 218.663 346.463C218.688 346.45 218.714 346.436 218.739 346.422ZM99.1883 558.206C98.0008 562.059 103.015 564.887 106.051 567.419C111.154 571.747 116.75 575.27 122.629 578.219C128.659 581.25 135.392 583.069 142.038 583.596C143.214 583.679 144.105 583.59 142.924 584.696C142.912 584.702 142.901 584.708 142.889 584.714C142.891 584.717 142.893 584.721 142.896 584.724C142.884 584.735 142.873 584.746 142.861 584.757C142.863 584.746 142.865 584.736 142.867 584.725C142.85 584.733 142.833 584.742 142.815 584.75C142.818 584.739 142.82 584.728 142.822 584.717C140.874 587.935 137.834 584.901 135.624 584.62C130.524 584.001 125.819 580.767 121.02 579.663C115.712 578.382 112.167 573.827 105.514 572.434C120.116 585.121 138.312 591.479 156.236 590.003C156.29 588.863 154.616 589.816 154.26 588.572C154.981 588.625 155.706 588.671 156.435 588.709C184.751 589.652 212.802 592.314 241.066 589.122C230.78 587.675 220.417 590.16 209.939 588.556C214.737 587.996 219.535 587.014 224.332 586.981C238.878 586.904 253.501 586.171 268.009 586.96C273.075 587.235 277.297 585.179 282.363 585.767C283.899 585.943 286.317 585.527 287.047 585.972C294.032 590.162 302.82 587.779 310.995 588.179C313.824 588.319 316.646 588.392 319.462 588.418C330.667 588.523 341.789 587.906 352.984 588.013C370.293 588.158 387.641 587.848 404.912 588.416C415.045 588.755 425.677 589.718 435.349 589.538C446.479 589.318 457.57 589.68 468.547 589.957C472.727 590.07 476.941 590.033 481.161 590.002C488.227 589.913 494.882 588.959 502.147 589.55C508.508 585.574 515.969 584.327 522.452 580.393C537.409 571.394 550.575 557.858 557.331 540.785C560.467 532.888 562.37 524.438 562.936 515.666C563.81 496.685 564.774 477.706 565.871 458.751L576.975 482.646C576.215 481.916 575.448 481.186 574.672 480.457C560.601 467.258 544.548 455.535 527.616 444.918C526.949 444.509 526.369 443.934 525.628 443.352C527.193 443.094 528.905 445.289 530.402 445.319C528.573 443.696 525.963 441.675 524.457 441.667C521.969 441.647 519.816 439.996 517.696 438.759C508.268 433.192 498.529 428.035 488.59 423.152C472.923 415.461 456.39 409.235 439.686 403.588C425.261 398.722 410.573 394.345 395.659 390.885C379.66 387.174 363.321 384.393 346.867 382.474C367.941 385.305 388.677 389.486 408.965 395.004C408.896 395.166 408.825 395.338 408.72 395.491C385.04 389.62 360.587 384.08 336.109 382.599C336.103 382.744 336.098 382.888 336.092 383.033C346.78 384.345 357.424 385.993 367.92 388.038C371.146 388.662 374.539 389.026 377.495 390.103C375.92 390.708 372.86 389.517 370.634 389.385C371.216 389.825 373.451 389.723 373.821 390.338C373.561 390.347 373.295 390.403 373.006 390.346C363.564 388.74 354.069 387.212 344.616 385.503C342.42 385.111 340.754 385.038 339.008 385.082C333.91 385.209 325.838 384.245 321.699 383.036C319.588 382.419 320.443 381.856 321.972 381.574C324.319 381.123 324.296 380.568 321.727 379.826C320.199 379.386 320.125 379.122 321.438 378.837C325.033 378.065 324.834 377.924 317.464 377.331C325.172 377.18 322.778 376.284 321.318 374.945C319.271 373.018 313.373 370.926 321.709 369.148C322.778 368.926 323.748 367.815 322.418 366.83C320.975 365.756 319.277 364.282 322.649 363.032C323.153 362.85 324.469 362.649 325.356 362.649C334.236 362.732 332.946 361.294 331.997 360.342C329.535 357.89 331.882 355.64 335.002 353.181C336.662 351.866 336.833 350.441 338.473 349.063C340.282 347.522 347.444 347.276 352.62 347.083C362.804 346.68 373.099 347.186 383.248 348.23C387.821 348.694 392.75 349.027 397.422 349.222C405.507 349.534 412.556 351.438 420.48 352.343C423.452 352.679 425.835 352.837 428.188 352.714C431.203 354.821 436.791 354.516 441.066 355.493C445.347 356.469 450.005 357.584 454.37 357.553C457.473 357.526 458.385 359.04 461.109 359.665C475.808 363.024 490.317 367.624 504.747 372.018C512.389 374.346 519.628 377.093 526.509 380.17C550.033 390.699 574.06 401.599 596.043 416.551C603.516 421.642 610.924 427.656 618.744 433.137L631.407 445.086L630.647 458.751C630.889 461.158 631.22 463.556 631.679 465.934C632.503 470.195 632.172 475.07 632.092 479.637C631.972 487.16 631.883 494.567 632.864 502.281C633.423 506.701 633.215 511.163 633.102 515.666C633.026 519.66 632.844 523.612 632.821 527.671C632.755 540.835 629.915 553.986 625.584 566.535C623.557 572.458 621.003 578.253 620.606 583.881C620.329 587.606 618.194 585.721 616.698 589.245C613.769 596.029 609.93 602.625 605.697 608.828C596.998 621.605 585.719 632.255 573.031 640.604C566.859 644.674 560.234 649.194 553.835 653.194C549.435 655.958 543.916 656.935 540.249 660.343C537.522 660.138 533.186 660.273 530.752 662.317C526.802 665.63 522.081 666.287 517.218 667.657C507.624 670.361 497.816 672.756 487.831 671.912C485.563 671.713 485.402 673.263 482.587 673.238C482.116 673.234 481.64 673.23 481.161 673.226C477.572 673.181 473.727 673.313 470.582 673.563C461.716 674.29 452.619 671.851 443.984 674.766C441.067 675.766 437.344 674.716 433.89 674.84C425.408 675.128 416.695 676.117 408.405 674.644C399.347 673.016 390.174 674.301 381.347 674.768C376.357 675.027 370.178 674.208 365.649 676.408C363.116 674.184 357.129 676.266 354.366 673.772C352.639 672.211 348.723 673.303 346.843 673.94C340.088 676.262 335.328 676.151 327.959 675.893C325.179 675.796 322.338 675.509 319.462 675.344C314.716 675.073 309.874 675.138 305.047 676.946C302.015 678.083 295.682 676.193 290.654 676.075C287.392 676.003 283.361 676.048 280.521 674.509C279.6 673.997 278.564 673.91 277.643 674.578C273.229 677.691 268.163 675.709 263.634 674.808C259.604 673.99 256.188 672.285 252.734 675.282C251.621 676.227 248.358 675.998 246.324 675.576C240.836 674.457 240.913 674.379 235.731 675.523C234.925 675.698 233.889 675.667 233.006 675.578C223.449 674.719 213.855 676.037 203.991 674.185C196.968 672.872 187.449 672.43 181.077 673.865C173.517 675.557 166.838 673.995 159.853 674.346C158.719 674.405 157.579 674.453 156.435 674.492C146.65 674.744 136.546 673.662 127.083 671.315C103.082 665.462 79.3272 656.008 61.0103 639.626C59.227 638.033 57.085 635.79 55.08 635.751C53.8621 635.743 51.6671 633.646 51.154 632.819C44.903 622.801 35.2229 615.061 28.7255 605.241C11.1186 578.87 1.36289 546.984 2.33655 515.666C2.34564 515.419 2.35481 515.171 2.36405 514.924C2.86995 501.146 2.80875 487.444 3.54499 473.704C3.85556 467.922 4.06926 462.151 4.25438 456.388L5.32573 437.312L17.4645 428.422C25.5473 422.154 33.7931 416.27 42.3052 410.902C52.0731 404.743 62.3412 399.145 72.0883 393.253C75.6523 391.079 80.1291 387.419 84.3559 388.125C84.4073 388.099 94.4586 382.14 94.7222 382.061C95.7641 381.528 96.7661 380.957 97.8227 380.567C113.682 374.49 128.92 368.017 144.769 363.143C167.275 356.212 190.336 351.497 213.351 348.105C220.442 347.066 227.749 346.911 235.463 345.806C229.825 345.46 223.642 347.044 218.877 346.439C230.021 345.185 241.381 344.225 252.211 344.39C262.082 344.493 273.502 343.811 281.698 345.816C282.921 346.104 284.522 345.871 285.752 345.811C289.781 345.63 291.779 346.28 291.006 346.842C289.352 348.104 292.317 348.194 296.778 348.277C298.327 348.304 300.515 348.288 301.086 348.756C301.574 349.12 300.026 349.187 298.601 349.238C296.034 349.317 292.046 349.336 293.599 350.181C294.707 350.783 297.219 351.49 301.439 351.179C301.637 351.169 302.155 351.3 302.671 351.391C301.699 352.009 298.85 351.838 296.329 351.875C299.844 352.952 302.343 353.938 299.128 355.164C298.432 355.422 299.029 355.706 296.838 355.711C292.284 355.732 292.337 356.068 294.379 356.915C296.989 357.99 301.318 359.101 296.565 360.485C296.22 360.583 296.191 360.811 296.505 360.914C299.53 361.956 299.817 362.823 296.639 364.166C294.563 365.038 300.194 365.695 303.973 366.037C312.406 366.792 317.38 368.835 317.379 370.755C317.379 370.756 317.379 370.756 317.379 370.756C317.379 371.404 316.826 372.051 315.669 372.672C312.931 374.112 307.897 375.945 314.068 377.247C269.719 381.726 227.364 392.725 187.074 408.179C147.187 423.558 108.896 443.008 77.3837 469.05C82.5033 465.97 86.9613 461.634 92.2469 458.81C92.6796 458.581 93.1107 458.612 94.5254 458.312C86.8499 463.636 79.4537 469.233 72.411 475.094C71.7488 475.644 70.9974 476.298 71.1604 475.374C71.6124 472.707 69.6419 475.71 69.6145 475.948C69.2498 478.399 66.8765 480.101 64.5974 481.602C63.8489 482.098 63.163 482.641 62.5193 483.212L75.19 456.388C75.2857 459.311 75.7817 462.127 75.9728 465.029C77.0987 481.884 78.0801 498.775 79.0171 515.666C79.0638 516.236 79.1164 516.803 79.1749 517.367C79.6514 521.979 79.9967 526.691 81.9729 531.043C83.1451 533.558 84.4642 531.078 85.2569 533.158C86.2021 535.502 83.1127 534.692 84.1078 537.174C85.1606 539.727 85.7503 542.489 87.4407 545.03C87.7233 544.212 87.9414 543.589 88.4067 542.368C89.342 549.681 94.1254 554.3 99.1883 558.206ZM231.893 672.295C224.293 670.934 216.732 672.007 209.133 671.718C216.694 673.031 224.332 672.247 231.893 672.295ZM178.621 670.944C186.374 672.768 194.396 671.965 202.341 671.799C194.473 671.204 186.489 671.915 178.621 670.944ZM254.039 672.248C266.998 672.336 279.958 672.398 292.918 672.434C292.879 672.169 292.842 671.904 292.803 671.639C279.882 671.604 266.96 671.544 254.039 671.458C254.039 671.721 254.039 671.985 254.039 672.248ZM318.632 671.492C312.262 671.491 305.891 671.852 299.52 671.982C305.93 672.3 312.377 672.878 318.632 671.492ZM219.442 375.514C237.689 373.676 253.067 370.171 268.327 367.718C252.284 367.941 236.457 370.982 219.442 375.514ZM466.965 407.615C472.398 410.396 476.384 412.545 481.421 412.757C476.563 410.606 472.46 408.689 466.965 407.615ZM537.823 442.736C545.085 449.376 552.146 453.598 559.464 457.33C552.983 451.932 546.016 447.334 537.823 442.736ZM487.553 421.148C488.634 421.686 489.735 422.257 490.274 422.091C490.72 421.956 490.56 421.39 490.503 420.948C490.43 420.646 489.76 420.161 489.175 420.146C484.707 420.063 481.296 416.484 477.149 415.176C479.432 415.425 481.847 417.365 484.993 417.8C476.316 413.48 468.271 412.636 460.392 408.509C460.382 408.501 460.372 408.492 460.362 408.484C462.559 410.746 465.496 411.093 468.015 412.175C474.624 415.027 481.153 417.971 487.553 421.148ZM432.282 398.895C438.687 401.383 444.205 403.043 449.744 404.678C444.224 403.021 439.22 399.763 432.282 398.895ZM494.651 595.952C494.548 595.83 493.373 595.792 493.113 596.412C492.829 597.076 493.296 597.516 494.088 597.766C496.862 598.632 499.847 597.683 503.979 597.46C503.977 597.453 503.976 597.447 503.974 597.441C502.872 596.818 502.627 596.513 502.278 596.496C499.775 596.347 496.468 598.55 494.651 595.952ZM517.975 436.261C512.853 433.206 507.903 429.648 502.102 427.828C507.48 430.534 512.765 433.34 517.975 436.261ZM525.383 440.843C529.937 443.838 534.245 447.09 539.209 449.147C534.717 446.159 530.511 442.462 525.383 440.843ZM566.485 522.76C566.542 525.344 563.966 527.154 564.343 528.336C565.587 532.5 562.94 535.915 561.874 539.48C565.028 534.676 567.542 529.071 566.485 522.76ZM552.935 459.005C556.544 461.495 557.002 464.987 561.27 467.608C561.156 463.792 556.486 461.482 552.935 459.005ZM555.673 549.605C555.616 549.757 555.575 549.917 555.529 550.045C554.165 554.377 551.368 558.065 548.423 561.421C547.165 562.839 547.171 564.172 547.814 564.824C548.575 565.596 549.485 563.991 550.138 563.195C554.444 558.127 557.034 551.976 560.176 546.072C561.168 544.207 561.341 541.879 561.755 539.757C560.325 539.194 560.577 541.134 559.996 541.952C558.526 543.985 559.036 545.885 558.471 547.813C557.686 550.432 556.883 550.73 555.673 549.605ZM507.008 589.118C505.993 587.918 506.066 589.046 506.243 589.498C506.452 590.024 505.012 590.473 506.039 591.015C506.579 590.814 507.147 590.537 507.756 590.38C508.284 590.231 508.931 589.869 509.378 590.307C509.37 590.309 509.361 590.312 509.353 590.315C504.05 594.078 497.042 592.1 491.324 594.525C504.029 593.977 517.037 590.228 527.542 582.36C528.301 581.796 528.786 580.919 529.794 580.699C535.469 579.363 539.097 574.365 543.254 570.641C544.575 569.457 544.558 568.375 544.355 566.721C540.652 571.783 536.435 575.842 531.186 577.962C530.366 578.294 529.579 578.957 528.819 579.486C522.961 583.663 516.596 587.215 509.749 589.154C508.718 589.439 507.809 590.081 507.008 589.118ZM313.419 380.492C302.82 379.366 205.978 403.861 201.645 407.352C224.167 398.438 248.394 392.029 272.473 386.484C284.966 383.596 297.904 380.996 311.702 380.438C312.261 380.41 312.747 380.465 313.419 380.492ZM478.527 592.79C465.477 592.657 452.427 592.492 439.378 592.373C435.995 592.332 432.502 592.079 429.98 593.589C429.991 593.589 430.003 593.589 430.014 593.589C431.357 594.546 433.352 594.287 435.117 594.307C449.548 594.548 463.98 594.779 478.372 595.117C479.297 595.131 480.324 595.232 481.161 595.185C481.764 595.136 482.221 594.921 482.305 594.291C482.415 593.42 481.907 593.067 481.161 592.912C480.395 592.804 479.454 592.797 478.527 592.79ZM451.945 409.198C440.441 405.319 428.795 401.512 417.132 397.614C429.051 400.512 440.653 404.499 451.945 409.198ZM318.632 592.662C313.528 591.663 308.385 593.013 303.242 592.41C308.423 594.461 313.528 593.254 318.632 592.662ZM380.732 591.63C383.611 593.13 386.797 593.494 390.712 592.913C395.049 592.275 399.731 592.414 404.183 593.139C405.143 593.288 406.063 594.084 406.716 593.08C407.368 592.076 406.102 591.822 404.529 591.808C396.597 591.739 388.664 591.68 380.732 591.63ZM409.633 591.51C416.063 593.122 422.755 593.869 429.708 593.598C423.854 590.19 416.178 592.709 409.633 591.51ZM429.821 593.687C429.834 593.687 429.847 593.687 429.859 593.687C429.853 593.683 429.846 593.679 429.839 593.675C429.833 593.679 429.827 593.683 429.821 593.687ZM488.361 425.351C488.439 425.159 488.517 424.967 488.595 424.775C504.728 431.795 519.579 441.21 534.016 450.675C519.547 441.306 504.217 432.857 488.361 425.351ZM556.552 539.129C558.885 531.575 560.433 523.772 560.936 515.666C561.757 496.693 562.943 477.736 563.667 458.751L575.553 484.331C575.389 484.18 575.225 484.029 575.06 483.878C575.063 483.874 575.067 483.87 575.07 483.866C575.314 483.628 575.543 483.355 575.762 483.094C575.917 483.241 576.071 483.387 576.226 483.534L564.709 458.751C563.692 477.734 562.708 496.703 561.768 515.666C561.192 523.858 559.415 531.744 556.552 539.129ZM540.62 456.008C540.735 455.886 540.83 455.731 540.925 455.576C552.372 463.394 563.192 471.788 573.23 480.809C573.092 480.924 572.918 481.027 572.796 481.177C562.802 472.185 552.022 463.81 540.62 456.008ZM78.7894 531.376C77.3871 526.268 77.4596 521.041 75.9352 515.666C75.7658 514.805 75.5705 513.944 75.3452 513.082C75.3766 513.943 75.4079 514.805 75.439 515.666C75.7172 521.094 76.5166 526.416 77.8166 531.571C78.1409 531.506 78.4651 531.441 78.7894 531.376ZM409.41 398.547C407.763 398 408.386 399.213 406.936 398.509C399.801 395.045 391.756 394.492 384.168 392.752C380.052 391.815 378.579 391.212 377.574 390.127C386.518 391.907 395.529 393.585 404.041 396.53C405.713 397.119 406.757 396.915 408.243 397.355C410.561 398.05 410.309 398.34 409.41 398.547ZM377.513 390.075C377.514 390.072 377.514 390.068 377.515 390.065C377.521 390.072 377.53 390.08 377.537 390.088C377.534 390.089 377.53 390.09 377.526 390.092C377.522 390.086 377.518 390.08 377.513 390.075ZM377.537 390.088C377.541 390.086 377.545 390.084 377.55 390.082C377.549 390.088 377.548 390.094 377.548 390.1C377.544 390.096 377.541 390.092 377.537 390.088ZM377.495 390.103C377.505 390.099 377.516 390.096 377.526 390.092C377.532 390.102 377.539 390.111 377.545 390.121C377.528 390.115 377.512 390.109 377.495 390.103ZM377.548 390.1C377.556 390.109 377.566 390.118 377.574 390.127C377.564 390.125 377.554 390.123 377.545 390.121C377.546 390.114 377.547 390.107 377.548 390.1ZM247.092 588.242C245.902 588.19 243.83 588.228 243.867 589.158C243.906 590.089 245.633 589.833 247.053 589.802C254.614 589.682 262.176 589.673 269.737 589.633C262.598 587.516 254.729 588.546 247.092 588.242ZM438.775 408.367C429.509 405.225 420.059 402.813 410.76 399.522C410.216 399.327 409.896 398.9 409.489 398.573C412.778 398.749 416.257 399.552 420.108 400.813C426.015 402.756 431.957 404.686 437.839 406.816C439.006 407.236 440.493 407.711 440.396 408.336C440.345 408.66 439.667 408.676 438.775 408.367ZM129.916 435.502C126.584 438.654 116.66 444.528 110.022 447.364C116.785 442.336 123.702 439.48 129.916 435.502ZM104.868 571.157C103.721 568.217 102.281 566.476 99.3427 564.984C99.8581 568.199 102.097 569.65 104.868 571.157ZM84.1114 539.82C83.8567 539.031 83.5169 538.266 82.8754 538.385C82.0854 538.516 81.9754 539.826 82.5039 540.384C85.1602 543.115 85.1756 547.341 88.6361 550.704C88.6318 550.697 88.6275 550.689 88.6233 550.682C86.5253 546.518 85.2184 543.18 84.1114 539.82ZM509.812 440.727C502.733 436.32 495.217 432.847 487.862 428.955C480.814 425.246 472.993 422.713 467.068 417.944C481.316 425.557 497.072 431.257 509.812 440.727ZM541.509 561.318C541.696 561.46 541.883 561.602 542.07 561.744C535.689 569.42 527.862 575.809 519.243 580.453C519.12 580.244 518.997 580.036 518.874 579.827C527.415 575.237 535.177 568.917 541.509 561.318ZM409.336 398.565C409.304 398.564 409.27 398.56 409.238 398.559C409.238 398.559 409.331 398.557 409.388 398.552C409.396 398.551 409.402 398.548 409.41 398.547C409.413 398.548 409.416 398.548 409.418 398.549C409.431 398.548 409.436 398.545 409.429 398.543C409.441 398.546 409.452 398.55 409.464 398.553C409.473 398.56 409.48 398.566 409.489 398.573C409.461 398.572 409.433 398.57 409.406 398.569C409.361 398.572 409.316 398.576 409.272 398.579C409.294 398.575 409.314 398.57 409.336 398.565ZM466.124 419.145C461.643 416.703 456.271 415.764 452.171 412.727C457.183 414.39 462.36 415.847 466.124 419.145ZM304.74 585.74C305.852 585.697 307.119 585.838 306.928 586.695C306.774 587.51 305.622 587.553 304.432 587.474C301.362 587.255 298.33 587.037 295.26 586.822C295.272 586.822 295.285 586.821 295.297 586.821C295.374 586.577 295.413 586.352 295.452 586.108C298.522 585.977 301.631 585.827 304.74 585.74ZM483.258 588.055C488.398 586.906 493.546 587.806 498.619 586.632C493.767 588.76 488.375 588.21 483.258 588.055ZM535.562 456.754C535.313 457.239 534.297 457.11 533.601 456.499C529.399 452.741 524.467 449.994 519.547 447.081C519.001 446.768 518.594 446.114 517.616 445.095C524.051 447.244 528.978 451.65 534.229 454.598C535.369 455.229 535.848 456.205 535.562 456.754ZM560.255 476.787C553.677 471.018 546.744 465.403 539.432 460.207C537.939 459.142 537.108 458.373 537.377 457.791C537.845 456.815 539.346 458.428 540.242 459.093C547.066 464.091 553.575 469.355 559.797 474.828C559.789 474.82 559.78 474.813 559.771 474.806C559.933 475.45 560.084 476.108 560.255 476.787ZM175.052 582.794C182.037 582.487 188.869 583.084 197.044 583.741C192.746 584.606 189.905 585.19 186.95 585.795C188.485 587.286 191.555 586.042 193.781 587.288C185.261 587.252 177.546 587.713 169.601 587.295C165.266 587.065 160.855 586.967 156.435 586.995C153.275 587.027 150.162 587.023 147.049 586.976C147.031 586.988 147.014 586.999 146.996 587.011C144.425 586.943 143.732 586.025 142.896 584.724C142.905 584.715 142.914 584.705 142.924 584.696C145.315 583.53 147.41 582.253 149.71 584.944C150.467 585.794 151.202 584.864 151.92 584.786C153.448 584.621 154.933 584.271 156.435 583.967C160.514 583.469 164.624 583.216 168.911 584.217C171.022 584.713 172.826 582.895 175.052 582.794ZM559.633 467.854C559.243 464.81 559.061 461.777 559.054 458.751L572.579 487.857C568.037 484.043 563.857 479.628 559.845 474.883C564.702 478.496 569.224 482.622 573.419 486.86L560.358 458.751C560.121 461.785 559.869 464.82 559.633 467.854ZM559.797 474.828C559.813 474.846 559.829 474.865 559.845 474.883C559.826 474.869 559.807 474.855 559.788 474.841C559.791 474.836 559.794 474.832 559.797 474.828ZM552.098 536.777C551.669 535.479 550.496 534.775 551.61 533.167C555.164 527.932 554.522 521.644 555.016 515.666C555.022 515.541 555.029 515.417 555.036 515.292C555.082 514.639 555.145 513.987 555.196 513.22C555.857 513.638 555.678 514.646 555.65 515.666C555.632 516.102 555.675 516.537 556.059 516.88C556.129 516.475 556.195 516.07 556.258 515.666C556.691 511.398 557.058 507.32 556.822 503.125C556.78 502.511 556.317 501.782 556.378 501.552C557.086 499.019 556.368 494.222 557.771 493.876C559.158 493.492 558.536 498.175 558.405 500.056C558.405 500.068 558.404 500.081 558.403 500.094C558.064 505.277 557.775 510.463 557.486 515.666C556.872 523.026 555.223 530.188 552.098 536.777ZM194.472 410.059C186.271 413.292 178.969 417.642 170.533 420.564C169.481 420.923 167.883 421.902 167.474 421.379C167.08 420.904 168.49 420.148 169.69 419.645C169.689 419.641 169.688 419.637 169.686 419.633C177.811 416.218 186.085 413.024 194.472 410.059ZM130.59 440.325C125.043 442.305 121.348 446.931 116.109 449.252C116.101 449.262 116.094 449.272 116.086 449.283C113.929 450.227 111.672 451.629 109.31 451.791C115.924 446.571 122.902 443.478 129.369 439.635C130.195 439.147 131.349 438.853 131.474 439.375C131.507 439.532 130.824 440.244 130.59 440.325ZM99.866 458.332C96.4626 460.731 95.0396 465.674 89.9288 465.189C92.5626 461.851 96.4774 460.561 99.866 458.332ZM86.712 467.414C82.6051 472.09 78.2662 474.223 74.8523 477.341C77.854 473.859 81.2987 470.711 86.712 467.414ZM142.854 584.662C142.861 584.671 142.867 584.681 142.874 584.69C142.879 584.661 142.885 584.633 142.89 584.604C142.879 584.624 142.866 584.642 142.854 584.662ZM150.554 429.903C146.287 431.739 142.238 434.725 136.546 436.376C141.333 432.467 146.292 431.444 150.433 429.024C150.59 428.934 151.236 428.921 151.201 429.027C151.141 429.263 150.805 429.766 150.581 429.875C150.572 429.884 150.563 429.893 150.554 429.903ZM241.105 580.905C245.941 580.512 248.205 582.639 252.427 581.528C252.44 581.521 252.452 581.514 252.465 581.507C252.427 581.954 252.349 582.401 252.311 582.847C251.237 582.937 250.2 583.108 249.125 583.138C233.735 583.596 218.345 584.076 202.955 584.655C201.113 584.721 199.424 584.666 199.155 583.709C198.733 582.254 200.959 582.36 202.839 582.312C211.321 582.086 219.842 581.468 228.247 581.773C232.776 581.942 237.113 581.229 241.105 580.905ZM547.192 544.74C548.247 541.764 548.665 539.231 549.961 536.834C551.723 538.43 550.665 542.638 547.192 544.74ZM532.059 563.413C532.6 561.299 534.487 560.58 535.936 559.577C535.931 559.583 535.926 559.589 535.92 559.594C538.804 557.612 541.178 555.122 542.428 551.86C541.525 557.193 537.088 560.964 533.449 564.718C532.827 565.344 532.024 565.826 531.372 565.18C530.658 564.442 531.928 563.931 532.059 563.413ZM503.003 580.73C504.077 579.445 503.266 577.498 505.146 578.125C507.778 578.98 509.595 577.562 511.152 576.315C513.342 574.536 516.23 575.388 518.445 573.498C521.181 571.159 525.478 570.381 527.659 567.045C528.108 566.343 528.987 565.84 529.583 566.563C530.179 567.288 529.334 567.913 528.674 568.448C525.242 571.175 521.675 573.896 517.663 575.493C517.652 575.491 517.642 575.489 517.632 575.487C512.97 577.342 508.661 579.927 503.003 580.73ZM303.473 578.382C304.778 577.768 305.277 578.377 305.507 578.581C307.695 580.392 310.918 580.531 313.912 579.672C316.714 578.875 316.676 580.262 316.945 580.67C317.674 581.75 315.294 581.69 314.526 581.691C304.548 581.901 294.377 582.62 284.551 581.97C278.219 581.551 272.5 582.824 266.474 582.477C266.461 582.47 266.448 582.464 266.435 582.457C261.676 582.184 256.073 583.464 252.964 580.854C253.885 579.223 257.723 583.087 256.687 579.484C256.495 578.795 258.798 578.735 260.18 578.704C268.892 578.451 277.412 578.641 286.009 579.804C291.574 580.553 298.292 580.839 303.473 578.382ZM482.028 582.743C485.083 580.52 488.255 581.86 490.715 582.154C494.179 582.556 496.402 580.443 499.346 580.064C500.032 579.964 500.843 579.037 501.297 579.897C501.744 580.719 500.857 581.422 499.821 581.667C499.815 581.675 499.81 581.683 499.804 581.691C494.228 582.99 488.355 584.692 482.028 582.743ZM351.986 579.577C352.562 579.802 353.406 577.832 354.366 579.486C354.672 580.037 354.25 580.625 352.676 580.782C342.199 581.837 331.644 581.895 321.051 581.322C320.705 581.301 320.437 580.811 319.593 580.037C328.535 579.935 336.518 578.767 345 579.183C347.303 579.293 349.683 578.691 351.986 579.577ZM368.72 578.305C372.711 577.743 373.057 580.042 375.82 580.387C370.063 582.335 365.111 582.391 361.081 578.4C364.228 579.496 366.494 578.615 368.72 578.305ZM421.218 578.151C422.982 577.959 426.315 576.814 425.906 579.775C425.791 580.496 426.827 580.491 427.671 580.142C428.132 579.947 428.401 579.61 428.785 579.334C434.311 581.403 440.415 579.972 446.211 580.471C447.208 580.548 448.743 580.594 448.436 581.487C448.244 582.023 447.515 582.151 446.402 582.132C429.86 581.943 413.356 581.827 396.815 581.745C396.815 581.731 396.815 581.718 396.815 581.704C396.277 581.699 395.74 581.431 394.665 581.157C397.544 579.848 401.189 579.12 403.607 579.754C408.98 581.147 414.162 579.413 419.305 580.308C420.418 580.504 422.683 581.097 422.837 579.571C422.944 578.575 422.02 578.26 421.218 578.151ZM420.341 578.087C420.549 578.096 420.873 578.105 421.218 578.151C420.832 578.194 420.521 578.191 420.341 578.087Z" fill="var(--stroke-0, #C6EDD1)"/>
</g>
</svg>
