<svg preserveAspectRatio="none" width="100%" height="100%" overflow="visible" style="display: block;" viewBox="0 0 642.796 677.364" fill="none" xmlns="http://www.w3.org/2000/svg">
<g id="Group 43896">
<path id="l" d="M20.7522 252.561C19.4287 257.134 17.4683 261.557 15.2572 266.106C16.5338 261.456 18.4975 256.933 20.7522 252.561ZM20.7522 252.561C20.7744 252.484 20.7974 252.406 20.8193 252.329C20.8193 252.329 20.8184 252.406 20.8028 252.438C20.8062 252.44 20.8096 252.441 20.813 252.442C20.7927 252.482 20.7725 252.521 20.7522 252.561ZM20.8342 252.373C20.861 252.343 20.8882 252.31 20.9148 252.279C20.8875 252.336 20.8602 252.393 20.833 252.45C20.8334 252.424 20.8338 252.399 20.8342 252.373ZM85.1322 512.489C84.1878 513.32 83.6962 514.437 83.4798 515.721C82.9523 517.717 84.141 520.255 84.5138 522.325C85.416 527.236 86.8168 531.91 88.4432 536.517C90.1099 541.245 92.7054 545.758 95.865 549.652C96.433 550.334 96.9713 550.765 95.4825 550.805C95.4718 550.802 95.461 550.799 95.4503 550.797C95.4489 550.8 95.4477 550.803 95.4463 550.806C95.4316 550.806 95.4166 550.808 95.4016 550.808C95.4111 550.802 95.4206 550.797 95.4301 550.791C95.4144 550.787 95.3987 550.783 95.383 550.779C95.3928 550.773 95.4025 550.768 95.4123 550.762C91.8751 551.681 92.5745 548.208 91.5181 546.89C89.0931 543.86 88.6551 539.575 86.3375 536.598C83.8239 533.261 84.6522 528.924 80.7417 524.992C82.769 539.154 88.5202 551.994 97.8981 561.535C98.8205 560.861 97.3017 560.486 98.1098 559.512C105.522 570.928 116.133 582.639 130.531 584.488C126.608 581.468 121.112 581.514 117.72 577.492C119.929 578.219 122.329 578.447 124.293 579.405C130.303 582.359 136.786 583.787 143.113 585.779C145.368 586.479 147.537 584.707 149.736 585.509C150.41 585.752 151.533 585.417 151.835 585.881C153.128 587.819 154.738 588.448 156.447 588.54C159.82 588.656 163.365 588.011 166.767 588.235C168.876 588.376 170.979 588.448 173.079 588.474C181.432 588.58 189.723 587.962 198.068 588.069C207.948 588.181 217.845 588.024 227.72 588.2L186.224 618.662C186.998 616.376 187.775 614.026 188.554 611.667C190.503 605.815 192.889 599.472 193.785 593.44C194.811 586.481 196.114 579.485 197.059 572.44C198.364 562.842 197.326 552.814 200.836 543.233C198.713 535.905 200.34 528.212 199.982 520.624C199.18 502.854 198.495 484.844 195.781 466.795C192.468 444.737 187.494 422.647 181.247 400.818C177.091 386.345 171.898 372.113 166.259 358.021C166.03 357.472 165.971 356.837 165.801 356.136C167.089 356.552 166.963 358.787 168.033 359.373C167.711 357.518 167.091 355.065 166.017 354.482C164.248 353.526 163.725 351.462 163.014 349.772C159.85 342.124 156.442 334.537 152.93 326.976C151.665 324.251 150.339 321.54 148.964 318.839C144.365 309.804 139.293 300.978 134.153 292.189C128.392 282.354 122.456 272.576 115.999 263.122C109.076 252.989 101.629 243.144 93.7778 233.605C103.569 246.083 112.677 258.97 121.117 272.233C120.964 272.318 120.803 272.409 120.636 272.471C110.395 257.399 100.181 241.68 87.7293 228.333C87.6266 228.434 87.5238 228.536 87.4211 228.638C92.3965 234.944 97.2288 241.371 101.826 247.915C103.234 249.916 104.934 251.803 105.91 253.997C104.577 253.676 103.633 251.355 102.448 250.19C102.478 250.786 103.833 251.785 103.623 252.405C103.467 252.286 103.275 252.199 103.148 252.02C98.8247 246.34 94.5073 240.602 90.4302 234.675C89.4802 233.301 88.6074 232.418 87.6158 231.58C84.7015 229.123 80.965 224.352 79.5575 221.358C78.8405 219.834 79.6907 219.862 80.7139 220.439C82.2969 221.308 82.6675 220.895 81.786 219.048C81.2622 217.948 81.4041 217.719 82.3112 218.183C84.797 219.456 84.7688 219.258 81.2063 215.064C85.4647 218.889 84.8034 217.019 84.9293 215.304C85.1495 212.862 83.4114 208.332 89.1383 211.304C89.8726 211.69 91.1636 211.38 91.1214 209.988C91.0784 208.472 91.1732 206.536 93.8659 207.355C94.2643 207.48 95.1184 208.006 95.6029 208.459C100.395 213.034 100.692 211.323 100.825 210.158C101.168 207.138 104.004 206.7 107.417 206.493C109.24 206.379 110.318 205.434 112.178 205.266C114.236 205.061 118.38 208.469 121.418 210.885C127.415 215.637 132.916 220.987 138.088 226.593C140.404 229.093 143.076 231.692 145.675 234.006C150.221 238.024 153.12 242.658 157.272 246.908C158.836 248.504 160.18 249.704 161.691 250.672C162.08 253.536 165.72 255.837 167.691 258.423C169.679 261.034 171.809 263.862 174.574 265.752C176.549 267.098 176.084 268.553 177.387 270.181C182.953 277.117 188.101 284.434 193.337 291.632C194.706 293.514 196.081 295.384 197.472 297.232C201.01 301.933 204.136 306.791 206.844 311.612C216.15 328.181 226.511 344.53 234.442 362.051C237.896 369.676 240.669 378.157 245.556 385.584C247.491 388.517 248.454 392.272 249.553 395.784C251.363 401.531 253.07 407.187 255.777 412.829C258.375 418.242 258.814 424.411 261.053 430.158C264.003 437.717 265.76 445.611 267.5 453.532C268.328 457.273 269.009 461.062 271.681 463.818C273.449 465.625 270.649 465.692 271.394 467.927C272.823 472.209 273.881 476.736 274.87 481.196C276.915 490.365 277.64 499.66 277.623 508.955C277.616 513.531 278.24 518.35 279.03 522.966C279.573 526.12 278.273 529.454 280.131 532.309C278.945 533.844 277.598 536.423 278.792 538.229C280.712 541.118 280.044 544.028 280.234 547.137C280.612 553.231 281.476 559.409 279.88 565.486C279.517 566.883 281.047 567.1 280.878 568.833C280.587 572.061 280.44 575.673 280.45 578.61C280.507 586.117 277.161 593.44 278.897 601.193C279.503 603.809 277.936 606.804 277.517 609.761C276.492 616.951 275.815 624.641 272.546 631.34C270.507 635.464 269.243 639.977 268.149 644.393L258.243 674.488L227.72 674.071C224.855 674.279 222.01 674.626 219.212 674.825C215.492 675.083 210.886 674.264 207.51 676.464C205.621 674.24 201.158 676.322 199.098 673.828C197.811 672.267 194.892 673.359 193.49 673.996C188.455 676.318 184.907 676.207 179.413 675.95C177.34 675.852 175.223 675.565 173.079 675.401C169.541 675.129 165.931 675.194 162.333 677.002C160.995 677.674 158.796 677.288 156.447 676.835C154.194 676.523 151.87 676.129 149.773 675.994C146.44 675.794 142.259 675.517 139.546 673.673C138.662 673.064 137.63 672.858 136.613 673.404C131.734 675.94 126.759 673.086 122.455 671.216C118.569 669.528 115.728 667.023 111.497 668.909C110.135 669.503 106.963 668.284 105.118 667.204C100.156 664.288 100.302 664.25 94.9351 663.304C94.1052 663.147 93.1289 662.697 92.3325 662.25C83.721 657.544 74.3622 653.88 67.061 646.649C61.8554 641.561 54.747 635.261 49.0588 631.889C42.2463 627.88 38.6767 621.769 33.9039 616.537C28.2271 610.323 23.2565 603.028 19.5815 595.442C11.4986 578.897 3.90315 561.636 2.44587 543.291C2.30699 541.508 2.32663 539.162 0.910086 538.202C0.0423527 537.624 -0.115259 535.363 0.0678768 534.637C1.67637 528.324 0.898409 522.077 0.604429 515.721C0.484259 513.814 0.377924 511.917 0.465605 510.056C1.32565 492.26 1.47916 474.435 2.37646 456.639C2.88237 446.367 2.82116 436.153 3.55741 425.911C4.35575 414.781 4.52866 403.708 5.17778 392.635C5.63363 384.853 6.28792 376.899 5.94847 369.117C5.81526 366.255 4.72612 362.393 7.30603 360.047C7.34422 360.018 6.57274 351.978 6.58029 351.806C6.55906 351.005 6.48222 350.204 6.5877 349.431C7.96483 337.758 7.76881 326.285 8.4574 314.755C8.67882 310.955 8.93336 307.151 9.20781 303.346C10.1127 287.365 13.8513 271.709 19.7576 257.215C22.1343 251.391 25.5791 246.001 28.6876 239.981C25.4392 243.763 23.7122 249.048 20.9148 252.279C25.1735 243.38 30.3978 234.799 36.6298 227.757C42.2431 221.284 48.6475 213.759 55.1748 210.47C56.1331 209.972 56.9669 208.897 57.7048 208.153C58.402 207.454 59.0469 206.908 59.6049 206.505C60.795 205.697 61.5489 205.615 61.5262 206.167C61.4854 207.866 63.1666 206.554 65.6169 204.472C66.4689 203.746 67.6229 202.674 68.2486 202.733C68.7595 202.758 67.9845 203.562 67.2555 204.289C65.9339 205.598 63.7909 207.501 65.2073 207.38C66.2133 207.294 68.0727 206.603 70.1104 204.312C70.2094 204.208 70.576 204.049 70.9135 203.861C70.8255 204.785 69.1853 206.058 67.8424 207.305C70.4836 206.385 72.506 205.859 71.6175 208.329C71.4181 208.857 71.9398 208.772 70.7501 209.848C68.2831 212.074 68.5333 212.284 70.2316 211.919C72.3902 211.448 75.5318 210.097 73.8727 213.455C73.7497 213.696 73.8892 213.877 74.1332 213.797C76.5113 213.06 77.2736 213.539 76.4346 216.098C75.8762 217.765 79.467 215.448 81.7571 213.773C86.8737 210.032 90.9164 208.81 92.2809 210.174C92.281 210.174 92.281 210.174 92.2811 210.174C92.7391 210.632 92.9042 211.384 92.7232 212.438C92.2794 214.907 90.7995 218.89 95.0821 216.537C91.3552 221.312 87.6532 226.089 83.9662 230.865C69.1049 250.738 63.0528 274.704 64.5285 296.866C64.6669 299.042 64.8732 301.202 65.1462 303.346C68.2757 334.179 70.0663 365.115 72.9415 395.954C73.3826 391.004 72.2299 385.997 72.6288 381.104C72.6632 380.704 72.9192 380.417 73.4043 379.302C73.924 386.95 74.426 394.599 74.9102 402.248C74.9556 402.963 75.0233 403.793 74.3842 403.221C72.5239 401.59 73.7402 404.394 73.9088 404.538C75.6386 406.025 75.529 408.486 75.2659 410.774C74.9333 413.778 75.729 416.554 75.9852 419.444C77.1672 432.633 78.1896 445.852 79.1691 459.071C79.5492 464.221 79.3752 469.457 80.4372 474.75C81.0544 477.84 82.8809 475.38 83.1785 477.983C83.5137 480.958 80.7446 479.099 81.0203 482.16C81.3027 485.336 80.9343 488.541 81.494 492.003C82.0737 491.259 82.5163 490.687 83.3972 489.542C81.5727 497.954 83.3958 504.964 85.1322 512.489ZM92.6222 658.789C86.2163 654.438 79.0605 651.803 72.7557 647.452C78.4692 652.645 85.707 655.653 92.6222 658.789ZM49.2568 628.069C53.6059 634.746 60.442 639.33 67.0449 643.737C60.941 638.747 54.2787 634.204 49.2568 628.069ZM113.614 666.363C126.166 670.022 139.195 672.053 152.19 672.433C152.159 672.167 152.128 671.901 152.097 671.636C139.205 671.25 126.281 669.231 113.83 665.603C113.758 665.856 113.686 666.11 113.614 666.363ZM172.46 671.548C167.711 671.547 162.962 671.908 158.213 672.038C162.991 672.357 167.797 672.934 172.46 671.548ZM46.4842 265.812C52.5892 253.557 57.1194 242.857 63.3329 233.009C55.0253 241.775 49.687 253.06 46.4842 265.812ZM148.882 306.865C150.375 310.671 151.484 313.605 153.94 315.788C154.261 316.075 154.606 316.348 154.978 316.609C154.786 316.233 154.6 315.863 154.415 315.497C152.854 312.401 151.452 309.652 148.882 306.865ZM175.053 360.328C176.275 367.804 179.044 373.429 182.449 378.714C180.667 372.527 178.219 366.693 175.053 360.328ZM153.549 325.127C153.922 325.951 154.29 326.808 154.764 326.909C155.155 326.996 155.418 326.527 155.67 326.19C155.818 325.945 155.684 325.326 155.3 325.077C152.689 323.422 152.448 320.11 151.115 317.52C150.943 317.182 150.752 316.856 150.537 316.549C150.822 316.79 151.062 317.086 151.28 317.42C152.094 318.663 152.592 320.411 154.035 321.688C153.322 320.067 152.491 318.599 151.614 317.215C148.89 312.933 145.79 309.473 144.023 304.704C144.022 304.693 144.021 304.683 144.02 304.673C143.923 307.229 145.592 308.717 146.522 310.565C147.77 313.061 149.009 315.557 150.225 318.066C151.363 320.414 152.476 322.765 153.549 325.127ZM132.717 285.556C135.003 290.186 137.354 293.797 139.773 297.371C137.381 293.789 136.436 289.264 132.717 285.556ZM205.367 551.85C205.227 551.926 204.976 553.031 205.545 553.383C206.152 553.763 206.662 553.39 207.049 552.697C208.398 550.253 208.067 547.391 208.947 543.574C208.941 543.574 208.934 543.574 208.928 543.574C208.035 544.416 207.68 544.571 207.575 544.885C206.779 547.182 208.246 550.601 205.367 551.85ZM164.802 348.101C163.116 343.936 161.917 339.399 159.112 335.804C161.052 339.861 162.969 343.998 164.802 348.101ZM167.2 354.25C168.597 358.145 169.713 362.1 172.127 365.442C170.633 361.608 169.874 357.383 167.2 354.25ZM196.737 447.133C197.602 449.408 195.848 451.905 196.64 452.828C199.318 455.971 198.36 459.994 199.109 463.487C199.608 457.967 199.712 452.372 196.737 447.133ZM176.469 377.579C177.746 380.684 176.031 383.346 177.848 386.795C179.951 383.961 177.7 380.66 176.469 377.579ZM199.139 474.998C199.179 475.151 199.238 475.301 199.275 475.428C200.667 479.664 200.806 484.045 200.944 488.448C200.992 490.308 201.944 491.226 202.856 491.226C203.936 491.227 203.467 489.533 203.406 488.549C203.104 482.228 201.402 476.104 200.943 469.738C200.8 467.742 199.775 465.73 199.135 463.774C197.61 463.979 198.759 465.482 198.67 466.455C198.423 468.9 199.867 470.199 200.447 472.031C201.236 474.522 200.78 475.195 199.139 474.998ZM201.843 538.441C200.384 539.03 201.482 539.316 201.967 539.284C202.528 539.25 202.524 540.736 203.35 539.931C203.32 539.367 203.232 538.751 203.277 538.132C203.303 537.591 203.173 536.87 203.735 536.598C203.735 536.607 203.735 536.616 203.735 536.624C205.524 542.625 201.887 548.78 203.389 554.786C204.821 542.443 205.624 529.795 204.203 517.187C204.103 516.275 203.605 515.421 203.953 514.468C205.834 509.181 203.982 503.633 203.947 498.239C203.935 496.536 203.136 495.857 201.791 494.905C202.938 500.951 203.546 506.437 202.409 511.891C202.232 512.744 202.362 513.743 202.408 514.653C202.848 521.777 203.269 528.83 202.773 535.871C202.691 536.933 203.009 537.984 201.843 538.441ZM97.0094 219.192C95.9401 220.877 91.9377 226.294 86.5843 233.483C71.8606 251.147 68.1653 286.445 68.5857 288.505C67.9976 273.576 72.2353 257.88 79.4634 243.323C81.2586 239.702 83.283 236.078 85.7253 232.625C88.8981 228.346 92.2754 224.132 96.0285 220.073C96.3163 219.754 96.6228 219.533 97.0094 219.192ZM200.421 566.18C199.676 574.739 198.527 583.157 197.02 591.383C196.616 593.537 195.963 595.678 197.138 597.542C197.139 597.535 197.141 597.528 197.142 597.521C198.246 596.862 198.23 595.55 198.451 594.431C200.34 585.312 201.714 575.94 202.734 566.447C202.852 565.215 203.338 563.711 202.114 563.458C200.657 563.166 200.544 564.705 200.421 566.18ZM138.132 301.558C133.39 293.805 128.715 285.917 124.277 277.832C129.554 285.316 134.077 293.312 138.132 301.558ZM172.46 592.718C168.655 591.719 164.821 593.07 160.987 592.466C164.85 594.517 168.655 593.31 172.46 592.718ZM218.754 591.686C220.9 593.186 223.275 593.55 226.194 592.969C226.697 592.87 227.206 592.79 227.72 592.727L190.543 620.018C190.904 617.738 191.775 615.469 192.991 613.342C193.293 612.81 194.211 612.459 193.345 611.807C192.479 611.156 192.033 611.854 191.765 612.785C191.086 615.142 190.371 617.468 189.629 619.731L227.72 591.769C224.731 591.739 221.743 591.712 218.754 591.686ZM192.287 609.65C194.852 606.136 196.523 602.148 197.114 597.714C193.06 600.721 194.483 605.932 192.287 609.65ZM197.214 597.66C197.216 597.652 197.218 597.644 197.22 597.636C197.215 597.64 197.21 597.643 197.205 597.646C197.208 597.651 197.211 597.656 197.214 597.66ZM151.331 328.448C151.509 328.343 151.688 328.239 151.866 328.134C158.19 339.78 162.576 352.328 167.356 364.581C162.494 352.387 157.149 340.332 151.331 328.448ZM194.281 465.743C189.822 445.101 186.174 424.006 179.703 403.479C179.709 403.477 179.714 403.475 179.719 403.473C180.045 403.379 180.38 403.254 180.699 403.135C186.692 423.857 191.24 444.812 194.281 465.743ZM168.984 370.896C169.145 370.851 169.31 370.775 169.475 370.699C173.271 380.593 176.733 390.533 179.891 400.591C179.717 400.628 179.52 400.646 179.339 400.715C176.2 390.683 172.758 380.767 168.984 370.896ZM77.2509 474.407C76.837 468.027 77.6112 461.674 75.3576 455.265C75.6695 461.646 75.9699 468.027 76.2587 474.407C76.5895 474.407 76.9202 474.407 77.2509 474.407ZM118.957 274.977C118.34 273.832 117.884 274.987 117.496 273.82C115.572 268.047 111.192 263.909 107.96 259.067C106.203 256.445 105.774 255.309 105.94 254.051C109.877 259.585 114.045 265.036 117.113 271.064C117.712 272.26 118.482 272.596 119.072 273.589C119.989 275.147 119.641 275.24 118.957 274.977ZM105.941 253.985C105.943 253.983 105.946 253.981 105.948 253.979C105.947 253.987 105.947 253.997 105.945 254.006C105.942 254.005 105.939 254.004 105.936 254.003C105.938 253.997 105.939 253.991 105.941 253.985ZM105.945 254.006C105.949 254.006 105.953 254.007 105.957 254.008C105.952 254.011 105.948 254.015 105.943 254.019C105.944 254.015 105.945 254.01 105.945 254.006ZM105.91 253.997C105.919 253.999 105.928 254.002 105.936 254.003C105.933 254.013 105.93 254.023 105.927 254.033C105.921 254.021 105.916 254.009 105.91 253.997ZM105.943 254.019C105.942 254.03 105.941 254.041 105.94 254.051C105.936 254.045 105.931 254.039 105.927 254.033C105.932 254.029 105.938 254.024 105.943 254.019ZM133.477 584.6C132.968 584.379 132.053 584.095 131.755 584.976C131.458 585.859 132.318 585.892 132.967 586.075C136.405 587.096 139.886 587.969 143.424 588.554C140.498 585.89 136.783 586.023 133.477 584.6ZM130.342 295.204C126.654 288.883 122.472 282.906 119.104 276.294C118.909 275.905 119.008 275.452 118.986 275.032C120.85 276.664 122.416 278.832 123.906 281.468C126.201 285.539 128.567 289.574 130.805 293.682C131.251 294.497 131.867 295.493 131.384 295.898C131.132 296.107 130.693 295.818 130.342 295.204ZM69.9645 345.283C71.461 348.745 72.3698 358.072 71.6595 363.909C70.4508 357.157 70.9588 351.148 69.9645 345.283ZM81.1328 523.943C82.2679 521.701 82.3325 520 81.0315 517.757C79.3704 519.867 80.1095 521.773 81.1328 523.943ZM80.2285 485.05C80.2375 484.106 80.1383 483.162 79.4901 483.076C78.6977 482.962 78.2035 484.307 78.5252 485.079C80.1785 488.97 78.6236 493.348 80.1539 498.469C80.1534 498.459 80.153 498.45 80.1526 498.44C80.1931 493.147 80.2042 489.085 80.2285 485.05ZM156.18 348.078C154 342.111 151.07 336.619 148.627 330.811C147.329 327.729 145.63 324.766 144.275 321.715C143.21 319.319 142.362 316.876 142.054 314.278C142.94 316.648 143.93 318.975 144.975 321.285C148.98 330.169 153.87 338.706 156.18 348.078ZM195.923 493.217C196.155 493.183 196.387 493.15 196.62 493.116C197.643 503.305 198.291 513.449 198.54 523.542C198.299 523.556 198.057 523.571 197.816 523.586C197.574 513.514 196.935 503.388 195.923 493.217ZM118.9 274.956C118.882 274.941 118.863 274.923 118.845 274.907C118.845 274.907 118.902 274.948 118.94 274.971C118.946 274.973 118.951 274.975 118.957 274.977C118.958 274.979 118.959 274.981 118.96 274.983C118.969 274.987 118.974 274.988 118.971 274.983C118.976 274.991 118.981 274.998 118.986 275.006C118.986 275.015 118.986 275.023 118.986 275.032C118.971 275.018 118.955 275.004 118.939 274.991C118.91 274.973 118.881 274.955 118.851 274.937C118.868 274.944 118.884 274.95 118.9 274.956ZM140.633 314.734C139.322 311.082 136.477 308.112 135.898 304.172C137.987 307.527 140.363 310.775 140.633 314.734ZM162.104 585.796C162.933 585.753 163.878 585.894 163.735 586.751C163.62 587.567 162.762 587.609 161.875 587.53C160.057 587.356 158.257 587.183 156.447 587.011C156.153 586.966 155.86 586.92 155.567 586.872C155.573 586.872 155.578 586.872 155.584 586.873C155.623 586.628 155.643 586.404 155.664 586.16C155.924 586.138 156.185 586.115 156.447 586.09C158.322 585.98 160.213 585.867 162.104 585.796ZM195.975 562.007C195.285 556.584 197.025 551.36 197.111 545.978C197.997 551.387 196.577 556.73 195.975 562.007ZM164.764 369.533C164.283 369.788 163.608 369.312 163.469 368.611C162.654 364.291 160.779 360.453 159.079 356.453C158.883 356.012 159.001 355.382 158.942 354.266C162.2 358.345 163.011 363.337 165.101 367.484C165.553 368.365 165.313 369.246 164.764 369.533ZM171.788 393.122C169.883 386.553 167.882 379.969 165.548 373.477C165.075 372.148 164.925 371.28 165.48 370.962C166.423 370.435 166.562 372.164 166.83 372.976C168.916 379.135 170.78 385.296 172.546 391.527C172.543 391.518 172.54 391.51 172.537 391.501C172.297 392.029 172.039 392.564 171.788 393.122ZM109.008 563.217C111.367 565.13 113.156 567.523 115.631 570.212C113.601 569.766 112.247 569.404 110.838 568.997C110.401 570.59 112.274 570.527 112.305 572.131C109.244 569.68 106.288 567.565 104.076 564.59C101.505 561.118 98.7317 557.737 95.8451 554.463C95.8272 554.46 95.8093 554.458 95.7913 554.455C94.5296 552.987 94.8765 552.062 95.4463 550.806C95.4585 550.806 95.4706 550.805 95.4825 550.805C97.6599 551.38 99.7451 551.746 98.7694 554.689C98.4783 555.64 99.5665 555.481 99.9728 555.839C102.264 557.862 105.25 558.951 106.118 562.266C106.395 563.294 108.261 562.612 109.008 563.217ZM178.234 411.283C174.724 405.246 173.194 398.658 172.551 391.584C175.089 397.911 176.667 404.607 178.234 411.283ZM172.546 391.527C172.548 391.546 172.55 391.565 172.551 391.584C172.545 391.567 172.538 391.55 172.531 391.533C172.536 391.531 172.541 391.529 172.546 391.527ZM189.239 465.824C188.227 464.826 186.842 464.715 187.074 462.621C187.81 455.826 184.803 449.908 183.634 443.565C183.56 443.127 183.503 442.683 183.412 442.167C184.593 442.326 183.847 444.156 185.029 444.749C184.635 441.384 184.254 438.148 183.071 435.113C182.912 434.725 182.326 434.382 182.34 434.214C182.527 432.359 180.871 429.437 182.137 428.792C183.384 428.126 183.745 431.385 183.987 432.653C183.989 432.662 183.991 432.67 183.993 432.679C186.178 443.603 188.439 454.436 189.239 465.824ZM68.7058 293.185C68.9285 296.68 69.8069 300.03 70.502 303.346C70.8715 305.733 71.1338 308.149 71.1498 310.635C71.153 311.522 71.5547 312.981 70.9259 313.153C70.3481 313.324 70.0976 312.066 70.0083 311.036C70.004 311.036 69.9997 311.036 69.9954 311.036C69.7729 308.473 69.5483 305.909 69.3216 303.346C68.9274 299.996 68.7198 296.603 68.7058 293.185ZM74.6217 346.428C74.062 351.177 76.5653 355.555 76.1877 360.247C76.1934 360.257 76.1991 360.266 76.2047 360.276C76.0395 362.193 76.2035 364.396 75.2035 366.141C73.8203 359.331 74.2002 353.18 73.4781 347.085C73.3884 346.313 73.6073 345.37 74.1333 345.455C74.29 345.484 74.6472 346.228 74.6217 346.428ZM76.1858 375.554C76.5043 378.958 79.9535 382.192 76.771 385.54C75.3987 382.221 76.3664 378.901 76.1858 375.554ZM76.8673 388.801C78.4833 393.808 77.7001 397.842 78.1709 401.734C77.1611 397.928 76.609 394.065 76.8673 388.801ZM95.4726 550.746C95.4684 550.755 95.4649 550.764 95.4607 550.774C95.4861 550.759 95.5115 550.744 95.5368 550.73C95.5155 550.736 95.4937 550.74 95.4726 550.746ZM72.9903 328.26C73.1094 332.008 74.3093 335.957 73.5033 340.706C71.8784 335.899 72.8393 331.921 72.1292 328.087C72.1043 327.944 72.3309 327.458 72.4161 327.515C72.6136 327.63 72.9568 328.031 72.9743 328.231C72.9797 328.241 72.985 328.25 72.9903 328.26ZM133.446 576.805C135.449 577.131 135.705 579.451 137.742 578.904C137.749 578.899 137.756 578.894 137.763 578.888C137.621 579.312 137.463 579.732 137.32 580.155C136.853 580.111 136.378 580.143 135.926 580.03C129.462 578.453 123.159 575.902 117.211 572.48C116.5 572.069 115.923 571.578 116.393 570.737C117.106 569.455 117.814 570.107 118.505 570.527C121.636 572.425 125.063 573.693 128.136 575.49C129.8 576.469 131.779 576.524 133.446 576.805ZM189.397 475.857C188.529 472.571 187.506 469.922 187.409 466.96C189.734 467.602 190.985 471.917 189.397 475.857ZM191.189 502.122C189.886 500.16 190.576 498.032 190.819 496.142C190.82 496.15 190.82 496.159 190.821 496.167C191.314 492.416 191.281 488.728 190.081 485.148C192.895 490.211 192.455 496.234 193.081 501.889C193.171 502.831 193.053 503.821 192.142 503.928C191.117 504.024 191.505 502.597 191.189 502.122ZM192.628 539.702C191.734 538.146 189.629 538.27 190.839 536.501C192.52 534.03 191.873 531.642 191.351 529.47C190.596 526.383 192.623 523.908 192.008 520.803C191.243 516.842 192.855 512.465 191.41 508.386C191.097 507.524 191.216 506.407 192.154 506.38C193.092 506.352 193.089 507.489 193.143 508.409C193.367 513.151 193.833 517.945 193.405 522.6C193.398 522.608 193.392 522.617 193.386 522.626C192.895 528.102 193.585 533.51 192.628 539.702ZM161.16 578.438C162.132 577.824 162.504 578.434 162.676 578.637C164.307 580.448 166.71 580.587 168.941 579.728C171.03 578.931 171.002 580.318 171.202 580.726C171.746 581.806 169.972 581.746 169.4 581.747C165.104 581.868 160.761 582.159 156.447 582.258C154.596 582.331 152.781 582.226 151.023 581.81C148.382 581.176 145.781 582.093 143.3 581.25C143.296 581.242 143.292 581.234 143.288 581.227C141.367 580.576 138.677 581.2 138.147 578.321C138.948 576.861 139.48 581.006 139.993 577.412C140.097 576.728 141.009 576.906 141.556 577.003C145.035 577.58 148.331 578.282 151.799 579.697C153.214 580.268 154.862 580.617 156.447 580.164C158.108 579.893 159.714 579.358 161.16 578.438ZM190.578 562.869C188.603 559.342 190.372 555.929 191.087 553.322C192.087 549.611 190.528 546.753 190.946 543.391C191.032 542.617 190.372 541.432 191.328 541.228C192.244 541.021 192.658 542.18 192.617 543.361C192.623 543.369 192.63 543.378 192.636 543.386C192.39 549.757 193.026 556.203 190.578 562.869ZM197.325 579.633C197.754 579.858 198.383 577.888 199.098 579.542C199.327 580.093 199.012 580.682 197.839 580.838C190.028 581.893 182.16 581.951 174.263 581.378C174.006 581.357 173.806 580.867 173.176 580.093C179.843 579.991 185.794 578.823 192.117 579.239C193.834 579.349 195.608 578.747 197.325 579.633ZM209.799 578.361C212.774 577.799 213.032 580.098 215.092 580.443C210.8 582.392 207.109 582.447 204.105 578.456C206.451 579.552 208.14 578.671 209.799 578.361ZM180.924 599.704C180.964 598.643 180.247 596.464 183.097 597.3C183.79 597.516 183.913 596.892 183.67 596.329C183.534 596.021 183.234 595.797 183.008 595.519C185.683 592.672 184.924 588.704 185.94 585.288C186.107 584.693 186.289 583.761 187.145 584.076C187.658 584.27 187.72 584.739 187.6 585.418C185.896 595.508 183.659 605.269 180.807 614.501C180.794 614.497 180.781 614.493 180.768 614.489C180.673 614.787 180.326 615.01 179.883 615.522C179.121 613.552 179.005 611.333 179.994 610.128C182.166 607.494 181.244 604.026 182.782 601.283C183.12 600.683 183.99 599.477 182.517 599.065C181.556 598.793 181.133 599.264 180.924 599.704ZM180.75 600.197C180.785 600.079 180.835 599.894 180.924 599.704C180.916 599.937 180.874 600.116 180.75 600.197Z" fill="var(--stroke-0, #DADAF5)"/>
<path id="t" d="M190.453 135.414C192.502 139.616 193.826 144.196 194.831 149.018C193.027 144.687 191.677 140.089 190.453 135.414ZM190.453 135.414C190.419 135.344 190.384 135.272 190.349 135.202C190.349 135.202 190.4 135.258 190.41 135.292C190.413 135.29 190.416 135.289 190.42 135.288C190.431 135.33 190.442 135.372 190.453 135.414ZM190.39 135.224C190.39 135.184 190.388 135.142 190.387 135.102C190.405 135.161 190.422 135.221 190.44 135.28C190.423 135.261 190.406 135.242 190.39 135.224ZM420.064 310.727C420.65 315.058 427.188 316.999 431.493 319.446C438.741 323.56 446.003 327.372 453.351 331.248C460.847 335.201 468.891 338.694 476.873 341.564C478.288 342.06 479.4 342.312 477.737 342.973C477.722 342.974 477.706 342.976 477.691 342.977C477.693 342.981 477.695 342.986 477.697 342.99C477.681 342.996 477.665 343.004 477.648 343.01C477.653 343 477.658 342.99 477.662 342.98C477.64 342.982 477.617 342.984 477.595 342.987C477.6 342.977 477.604 342.966 477.609 342.956C474.648 345.449 471.662 341.487 468.974 340.573C463.004 338.552 457.379 334.275 451.572 332.588C445.303 330.737 440.281 325.734 432.446 324.831C452.038 336.78 471.345 346.695 491.546 353.505C492.041 352.473 489.85 352.608 489.896 351.292C510.257 360.844 530.995 370.572 553.034 371.35C545.93 368.543 537.786 369.192 530.641 365.552C534.258 365.971 537.954 365.907 541.411 366.691C551.908 369.096 562.496 370.203 572.667 372.049C576.193 372.688 579.385 370.879 582.816 371.657C583.885 371.894 585.58 371.55 586.064 372.012C589.012 374.79 592.709 374.85 596.269 374.531L553.885 417.764C553.744 415.168 553.521 412.543 553.666 409.987C553.807 407.558 553.879 405.135 553.906 402.717C554.011 393.097 553.394 383.549 553.501 373.937C553.646 359.076 553.335 344.182 553.904 329.354C554.239 320.755 555.183 311.736 555.032 303.51C555.03 303.448 555.028 303.387 555.026 303.326C554.791 297.245 554.385 291.186 553.168 285.257C551.49 277.089 546.883 270.201 545.417 261.498C541.147 258.132 538.697 253.515 535.275 249.388C534.14 248.102 532.99 246.834 531.807 245.606C516.041 229.217 501.368 211.875 486.057 195.032C467.288 174.377 448.616 153.577 430.275 132.54C418.112 118.607 405.702 104.873 393.508 90.9711C393.022 90.4311 392.672 89.7561 392.181 89.0355C393.678 89.1688 394.574 91.6285 395.933 91.9932C394.745 90.06 393.008 87.5569 391.654 87.1865C389.42 86.5779 387.984 84.4714 386.505 82.7818C385.058 81.1126 383.61 79.4444 382.162 77.7762C378.238 73.0683 373.839 68.741 369.033 64.8185C359.329 56.8936 347.503 51.4072 334.986 48.1219C324.182 45.2816 312.692 44.1091 301.214 45.2037C288.911 46.3699 276.669 50.0487 265.443 56.0251C280.018 48.6806 296.04 45.1948 311.651 45.572C311.637 45.7458 311.624 45.9303 311.582 46.1037C293.65 46.1665 274.408 50.3316 259.047 61.2205C259.134 61.3361 259.221 61.4517 259.308 61.5674C266.365 57.3965 273.874 54.1391 281.543 51.9513C283.888 51.2776 286.254 50.3664 288.638 50.3139C287.844 51.4128 285.373 51.422 283.883 52.1341C284.446 52.3104 285.841 51.4051 286.34 51.83C286.176 51.9308 286.029 52.0771 285.819 52.1308C279.074 54.0905 272.427 56.6298 265.819 59.5315C264.282 60.2129 263.263 60.9279 262.273 61.7841C259.366 64.262 254.25 67.531 251.152 68.8621C249.572 69.5294 249.642 68.6758 250.297 67.6568C251.291 66.0907 250.913 65.681 248.957 66.5197C247.797 67.0251 247.568 66.8812 248.112 65.9597C249.628 63.4721 249.408 63.3927 244.819 67.0797C249.078 62.6838 247.142 63.3721 245.357 63.2108C242.862 62.9349 237.824 64.9608 241.587 58.7932C242.079 58.014 241.922 56.6367 240.426 56.6978C238.804 56.7608 236.697 56.7404 237.962 53.799C238.156 53.363 238.854 52.4309 239.434 51.8971C245.261 46.7266 243.57 46.4471 242.288 46.2569C239.038 45.8381 239.103 42.7658 239.776 38.9965C240.13 36.9904 239.355 35.7828 239.708 33.7254C240.076 31.4224 245.396 26.9765 249.431 23.9933C257.337 18.0337 266.362 13.3876 275.787 10.0488C279.995 8.54449 284.593 6.91658 288.92 5.43506C296.463 2.83737 303.695 2.50958 311.443 1.4118C314.366 1.00125 316.706 0.619062 318.949 -4.76837e-07C322.292 1.40926 327.661 0.0714812 332.01 0.420564C336.376 0.753852 341.052 1.32783 345.409 0.952558C348.523 0.687915 349.509 2.14199 352.255 2.63548C367.08 5.31893 381.455 10.9631 394.949 17.9176C402.083 21.5854 408.594 26.0569 414.325 30.9855C416.96 33.2474 419.49 35.5319 422.006 37.9322C435.077 50.2784 449.07 61.8098 462.116 74.1825C468.672 80.3951 475.145 87.5764 483.186 92.6771C486.354 94.6811 489.08 97.875 491.797 100.704C496.278 105.356 500.712 109.915 506.089 113.905C511.252 117.736 514.943 123.179 520.091 127.304C526.849 132.71 532.868 138.854 539.037 144.894C541.936 147.727 544.834 150.7 548.715 151.572C551.276 152.134 548.993 153.766 550.984 155.27C554.809 158.155 558.485 161.376 562.122 164.541C569.605 171.039 576.233 178.159 582.567 185.618C584.997 188.487 587.919 191.242 590.908 193.756C591.953 194.676 592.988 195.589 594.006 196.493C597.343 199.455 599.3 203.904 603.189 205.936C603.543 208.34 604.556 211.985 606.979 213.375C610.894 215.623 612.555 219.371 614.971 222.974C619.734 230.07 624.488 237.314 626.477 245.736C626.926 247.656 628.431 247.269 629.21 249.562C630.682 253.838 632.298 258.579 633.608 262.409C637.036 272.328 636.338 283.098 639.903 292.953C641.001 295.962 640.411 299.838 640.324 303.509C640.315 303.833 640.314 304.155 640.328 304.475C640.615 311.757 641.604 319.237 640.132 326.355C638.503 334.131 639.789 342.007 640.256 349.586C640.514 353.87 639.696 359.175 641.895 363.063C639.672 365.238 641.754 370.378 639.26 372.751C637.698 374.233 638.79 377.595 639.427 379.21C641.75 385.009 641.639 389.095 641.381 395.422C641.284 397.809 640.996 400.248 640.832 402.717C640.561 406.792 640.626 410.949 642.433 415.094C642.742 415.801 642.828 416.717 642.786 417.764L642.659 462.655L598.033 463.414C594.665 463.375 590.122 462.345 586.388 462.164C583.084 462.019 578.906 461.877 576.157 460.163C575.266 459.595 574.239 459.442 573.268 460.042C568.576 462.834 563.642 460.375 559.264 458.947C555.315 457.655 552.321 455.518 548.462 457.962C547.21 458.73 544.06 457.996 542.16 457.236C537.028 455.194 537.095 455.122 531.917 455.255C531.109 455.268 530.118 455.031 529.289 454.764C520.306 451.983 510.945 450.971 502.287 446.509C496.16 443.368 487.69 440.143 481.458 439.446C474.091 438.637 468.665 434.886 462.377 432.707C454.958 430.147 447.539 426.785 440.737 422.876C425.818 414.334 410.182 407.259 396.639 396.95C395.328 395.944 393.704 394.496 392.12 395.005C391.164 395.321 389.467 394.095 389.06 393.525C384.15 386.538 375.862 383.532 369.415 378.63C351.682 365.16 334.493 351.182 318.729 335.651C309.66 326.729 300.52 317.891 292.323 308.238C285.359 300.039 278.424 291.968 271.815 283.565C269.945 281.189 268.121 278.809 266.32 276.383C260.593 268.668 255.123 260.533 249.194 253.003C247.009 250.251 243.342 246.987 243.806 243.146C243.799 243.106 237.572 235.396 237.476 235.2C236.908 234.394 236.298 233.618 235.861 232.769C229.066 220.046 221.599 208.118 215.343 195.383C206.464 177.333 199.126 158.481 192.753 139.484C190.793 133.626 189.637 127.413 187.463 121.043C187.931 125.944 190.327 130.89 190.387 135.102C187.65 125.82 185.089 116.303 183.655 107.029C183.18 103.98 182.54 100.783 181.972 97.6124L178.75 80.7803L188.093 73.2137C192.38 69.8642 196.698 66.6207 200.84 64.7671C201.801 64.33 202.643 63.3065 203.375 62.594C205.771 60.2838 207.433 59.662 207.338 60.4991C207.165 62.3299 209.073 60.7903 211.867 58.3653C212.839 57.5197 214.162 56.2785 214.831 56.2946C215.378 56.2832 214.484 57.2061 213.644 58.0441C212.123 59.552 209.673 61.7623 211.206 61.525C212.295 61.3557 214.348 60.4717 216.714 57.8516C216.828 57.7324 217.235 57.534 217.612 57.3061C217.447 58.3063 215.586 59.801 214.047 61.244C216.958 60.0545 219.174 59.3346 218.03 62.0592C217.776 62.6429 218.344 62.5117 216.982 63.7593C214.159 66.3418 214.412 66.5488 216.267 66.0273C218.625 65.3563 222.107 63.6651 220.068 67.4038C219.917 67.6725 220.053 67.856 220.322 67.7518C222.936 66.7781 223.72 67.2356 222.623 70.0531C221.896 71.8888 225.935 69.1235 228.526 67.1475C234.315 62.7346 238.757 61.1135 240.121 62.4777C240.121 62.4777 240.121 62.4778 240.121 62.4779C240.579 62.936 240.7 63.7321 240.425 64.88C239.76 67.5705 237.866 71.9674 242.652 69.1111C233.884 79.9793 225.225 90.849 216.586 101.706L220.54 85.9435C230.193 108.059 241.684 129.077 254.293 149.383C273.766 180.64 295.507 210.386 321.037 236.226C317.971 231.849 313.696 228.362 310.777 223.945C310.54 223.582 310.552 223.181 310.205 221.934C315.091 227.524 320.093 233 325.204 238.357C325.772 238.953 326.341 239.546 326.911 240.138C327.446 240.693 328.079 241.324 327.193 241.275C324.637 241.154 327.53 242.655 327.759 242.658C330.113 242.738 331.758 244.787 333.187 246.787C335.087 249.421 337.685 251.095 339.967 253.182C350.43 262.734 361.193 271.898 372.287 280.546C376.595 283.906 380.705 287.697 385.672 290.457C388.574 292.064 387.742 289.004 390.049 290.52C392.686 292.244 389.418 293.156 392.105 294.973C394.883 296.846 397.325 299.238 400.563 301.017C400.295 300.08 400.086 299.361 399.675 297.927C405.541 304.782 412.611 307.676 420.064 310.727ZM528.909 451.326C521.988 448.446 514.682 447.736 507.727 445.499C514.368 448.713 521.744 449.737 528.909 451.326ZM480.244 435.914C486.548 440.119 494.111 441.769 501.447 443.774C494.398 441.06 486.94 439.352 480.244 435.914ZM550.192 455.155C562.773 457.112 575.631 458.33 588.762 458.57C588.727 458.304 588.693 458.039 588.658 457.773C575.607 457.53 562.821 456.318 550.308 454.373C550.27 454.634 550.231 454.894 550.192 455.155ZM636.979 403.43C636.979 408.208 637.254 412.986 637.41 417.764L637.298 457.369L597.926 458.039C597.113 458.078 596.298 458.11 595.482 458.135C596.298 458.167 597.114 458.199 597.93 458.226L637.485 457.553L637.597 417.764C637.902 412.948 638.191 408.126 636.979 403.43ZM218.592 128.502C214.617 114.166 209.372 102.411 204.872 90.6839L204.799 90.3025L205.011 90.1311C205.507 89.5563 206.001 88.9827 206.496 88.4105C205.91 88.8927 205.328 89.3792 204.75 89.8698L204.397 90.1555L204.518 90.7909C207.253 103.527 212.289 115.667 218.592 128.502ZM355.596 49.8118C359.511 52.375 362.161 54.4296 366.09 54.7823C362.718 52.5913 359.786 50.717 355.596 49.8118ZM403.46 91.1783C408.127 98.8606 413.661 104.092 419.684 108.646C414.804 102.622 409.567 97.1415 403.46 91.1783ZM368.803 62.9126C369.484 63.4658 370.162 64.0567 370.623 63.9365C371.005 63.8403 371.047 63.3091 371.13 62.8976C371.16 62.6143 370.78 62.1239 370.329 62.0738C366.931 61.752 365.187 58.2823 362.247 56.9899C363.967 57.2552 365.381 59.1298 367.711 59.6738C362.013 55.2441 355.94 54.5183 350.402 50.9566C350.395 50.949 350.388 50.9415 350.381 50.9339C351.823 53.0072 353.995 53.2114 355.768 54.1919C360.383 56.7597 364.77 59.6432 368.803 62.9126ZM329.237 44.6061C334.219 46.0158 338.375 46.9613 342.534 48.0236C338.424 46.9446 334.532 44.3402 329.237 44.6061ZM553.194 265.628C553.106 265.755 553.362 266.734 554.013 266.743C554.71 266.756 555.003 266.221 555.038 265.485C555.157 262.91 553.534 260.746 552.39 257.343C552.384 257.347 552.379 257.35 552.373 257.354C552.04 258.486 551.812 258.792 551.876 259.09C552.309 261.248 555.177 263.261 553.194 265.628ZM387.605 80.5492C386.343 79.0737 385.143 77.5355 383.922 76.0158C382.203 73.7523 380.306 71.6252 377.857 70.1649C379.895 72.1023 381.836 74.12 383.702 76.236C385.002 77.6741 386.303 79.1119 387.605 80.5492ZM392.755 86.6445C395.917 90.5197 398.897 94.5301 402.904 97.4663C399.586 93.747 396.872 89.3778 392.755 86.6445ZM473.29 174.572C475.575 176.481 475.694 179.856 477.038 180.423C481.592 182.359 483.469 186.839 486.615 190.004C483.147 184.18 479.458 178.523 473.29 174.572ZM413.189 109.27C416.026 112.21 415.707 115.606 419.31 118.714C419.888 115.013 415.975 112.216 413.189 109.27ZM494.931 201.536C495.079 201.667 495.24 201.787 495.365 201.894C499.645 205.35 503.084 209.648 506.547 213.873C508.009 215.672 509.514 216.031 510.268 215.51C511.163 214.895 509.473 213.509 508.675 212.583C503.623 206.591 497.652 201.47 492.658 195.327C491.096 193.405 488.802 191.946 486.842 190.281C485.645 191.255 487.732 192.203 488.338 193.215C489.861 195.794 492.056 196.35 493.885 197.876C496.377 199.95 496.489 200.863 494.931 201.536ZM543.949 257.52C543.049 258.777 544.084 258.345 544.467 258.046C544.911 257.698 545.639 258.771 545.923 257.722C545.619 257.331 545.239 256.938 544.964 256.47C544.712 256.067 544.243 255.634 544.556 255.109C544.561 255.116 544.565 255.122 544.569 255.128C549.161 258.432 548.941 264.967 552.698 268.849C549.595 260.525 545.028 252.498 538.65 246.013C536.525 243.861 534.366 241.738 532.167 239.653C531.332 238.857 530.238 238.366 529.725 237.248C526.802 231.038 520.908 226.913 516.62 221.694C515.276 220.056 514.105 219.875 512.253 219.723C517.9 224.935 522.784 229.836 526.377 235.75C526.942 236.676 527.879 237.557 528.672 238.395C531.55 241.384 534.457 244.344 537.329 247.335C539.607 249.751 541.685 252.351 543.41 255.167C543.886 255.957 544.674 256.521 543.949 257.52ZM244.524 71.8212C242.466 74.8599 231.553 88.8611 219.391 104.511L224.337 84.7947C235 108.995 250.778 134.465 251.765 137.008C241.134 120.702 232.066 102.876 223.575 85.0253L218.828 103.948C219.699 102.785 220.566 101.62 221.429 100.455C228.232 91.2269 235.059 81.7437 243.402 72.8439C243.736 72.4787 244.082 72.2182 244.524 71.8212ZM554.311 279.094C556.546 286.206 557.702 293.62 557.821 301.03C557.83 301.863 557.786 302.703 557.848 303.51C557.931 305.106 558.22 306.603 559.077 307.831C559.076 307.822 559.077 307.812 559.076 307.802C560.016 306.672 559.784 305.003 559.794 303.51C559.794 303.49 559.794 303.469 559.794 303.449C560.031 295.04 558.899 286.582 556.546 278.443C556.228 277.386 556.128 275.971 554.912 276.255C553.471 276.603 553.92 277.861 554.311 279.094ZM343.98 52.248C335.676 49.4935 326.982 47.5107 317.979 46.2259C327.01 46.475 335.891 48.6697 343.98 52.248ZM558.15 403.43C557.151 407.812 558.501 412.228 557.898 416.643C559.949 412.195 558.742 407.812 558.15 403.43ZM557.118 350.113C558.618 347.642 558.981 344.906 558.401 341.545C557.763 337.822 557.902 333.802 558.626 329.979C558.776 329.156 559.571 328.365 558.567 327.805C557.563 327.245 557.31 328.332 557.296 329.682C557.227 336.493 557.168 343.303 557.118 350.113ZM556.998 325.301C558.61 319.78 559.357 314.034 559.086 308.065C555.678 313.09 558.196 319.681 556.998 325.301ZM559.175 307.968C559.175 307.957 559.175 307.946 559.175 307.935C559.171 307.941 559.167 307.946 559.163 307.952C559.167 307.957 559.171 307.963 559.175 307.968ZM368.219 66.828C368.334 66.6559 368.449 66.4838 368.564 66.3117C373.387 69.7856 377.63 74.0004 381.328 78.6104C386.752 85.0276 392.102 91.5208 397.686 97.8193C392.084 91.5654 386.492 85.3011 380.911 79.0265C377.096 74.5769 372.853 70.4871 368.219 66.828ZM483.987 194.724C465.198 175.953 448.241 155.489 430.291 135.925C430.295 135.922 430.299 135.918 430.302 135.914C430.565 135.698 430.818 135.445 431.059 135.205C448.644 155.133 466.268 174.977 483.987 194.724ZM402.381 104.233C402.521 104.14 402.649 104.011 402.778 103.883C411.437 113.538 420.121 123.168 428.831 132.773C428.683 132.874 428.502 132.962 428.365 133.099C419.678 123.502 411.017 113.88 402.381 104.233ZM383.352 292.67C377.87 288.629 373.304 283.612 366.714 280.64C371.98 285.032 377.311 289.293 382.716 293.432C382.928 293.178 383.14 292.924 383.352 292.67ZM312.703 48.897C311.452 48.7658 312.138 49.7887 310.995 49.4644C305.296 47.8843 299.607 49.6674 294.023 50.5088C290.97 50.9823 289.794 50.952 288.7 50.3076C295.247 48.8177 301.972 47.6553 308.549 48.2884C309.843 48.424 310.52 47.965 311.647 48.0253C313.405 48.1349 313.283 48.483 312.703 48.897ZM288.639 50.2814C288.638 50.2783 288.637 50.2751 288.636 50.272C288.643 50.2765 288.653 50.2803 288.66 50.2848C288.658 50.2873 288.656 50.2899 288.654 50.2925C288.649 50.2888 288.644 50.2851 288.639 50.2814ZM288.66 50.2848C288.662 50.2816 288.664 50.2785 288.666 50.2753C288.668 50.2809 288.67 50.2866 288.672 50.2922C288.668 50.2898 288.664 50.2872 288.66 50.2848ZM288.638 50.3139C288.644 50.3068 288.649 50.2996 288.654 50.2925C288.662 50.2991 288.67 50.3058 288.678 50.3125C288.665 50.3129 288.652 50.3134 288.638 50.3139ZM288.672 50.2922C288.681 50.2975 288.691 50.3024 288.7 50.3076C288.693 50.3092 288.685 50.3109 288.678 50.3125C288.676 50.3057 288.674 50.299 288.672 50.2922ZM557.545 371.265C556.701 371.071 555.201 370.841 555.062 371.761C554.925 372.682 556.226 372.655 557.256 372.798C562.743 373.611 568.217 374.343 573.623 374.832C568.751 372.232 563.005 372.504 557.545 371.265ZM334.41 52.9462C327.747 51.1462 320.869 50.5341 313.83 49.5233C313.417 49.461 313.111 49.1232 312.763 48.9038C315.074 48.2855 317.686 48.2806 320.577 48.728C325.035 49.4237 329.44 50.2966 333.71 51.5531C334.56 51.7991 335.639 52.0687 335.572 52.6959C335.536 53.0211 335.05 53.1256 334.41 52.9462ZM286.187 193.951C289.472 196.3 295.826 204.117 298.929 209.64C293.707 204.398 290.483 198.731 286.187 193.951ZM431.364 323.546C429.222 320.566 426.971 318.882 423.216 317.862C425.029 321.14 427.843 322.239 431.364 323.546ZM393.991 297.494C393.218 296.869 392.378 296.324 391.902 296.772C391.311 297.315 392.116 298.592 392.956 298.848C397.214 300.115 399.931 304.187 405.198 306.194C405.189 306.188 405.181 306.182 405.172 306.177C400.71 302.807 397.323 300.166 393.991 297.494ZM378.73 82.4479C378.547 82.2176 378.363 81.9881 378.178 81.7594C374.895 77.3602 370.804 73.7878 366.766 70.1003C362.712 66.4227 357.645 64.0897 354.138 59.7643C363.043 66.3212 372.738 72.3016 378.235 81.7033C378.401 81.9506 378.566 82.1988 378.73 82.4479ZM506.076 221.428C506.242 221.262 506.408 221.096 506.574 220.93C515.428 230.42 524.309 239.884 533.217 249.322C533.046 249.493 532.875 249.664 532.704 249.835C523.8 240.393 514.924 230.924 506.076 221.428ZM312.656 48.9327C312.634 48.9388 312.609 48.9439 312.587 48.9502C312.587 48.9502 312.651 48.9259 312.689 48.9079C312.694 48.9043 312.699 48.9005 312.703 48.897C312.706 48.8972 312.708 48.8974 312.71 48.8976C312.718 48.8928 312.721 48.8893 312.716 48.889C312.725 48.8893 312.733 48.8896 312.742 48.8899C312.75 48.8944 312.756 48.8992 312.763 48.9038C312.744 48.909 312.724 48.9141 312.705 48.9194C312.675 48.9336 312.645 48.9478 312.614 48.962C312.629 48.9522 312.642 48.9423 312.656 48.9327ZM353.246 60.9511C350.376 58.7867 346.626 58.2492 343.908 55.6731C347.396 56.828 351.052 57.9409 353.246 60.9511ZM551.228 415.357C551.185 414.402 551.326 413.314 552.182 413.479C552.998 413.611 553.041 414.6 552.961 415.621C552.902 416.337 552.842 417.051 552.783 417.764L596.247 373.429C594.745 373.3 593.236 373.152 591.698 372.985C591.706 372.985 591.715 372.985 591.723 372.985C591.778 372.741 591.806 372.516 591.834 372.272C593.305 372.189 594.77 372.078 596.218 371.967L551.321 417.764C551.286 416.962 551.254 416.16 551.228 415.357ZM548.771 277.581C546.26 273.833 545.784 269.292 543.499 265.429C546.623 268.792 547.493 273.414 548.771 277.581ZM397.451 103.898C397.09 104.306 396.171 103.965 395.689 103.236C392.771 98.7445 389.025 94.9879 385.46 91.0038C385.058 90.5671 384.891 89.8483 384.329 88.6398C389.488 92.335 392.685 97.6194 396.793 101.573C397.678 102.412 397.865 103.437 397.451 103.898ZM416.744 127.478C411.257 120.988 405.796 114.425 400.203 107.995C399.056 106.673 398.475 105.763 398.879 105.265C399.57 104.434 400.565 106.282 401.244 107.094C406.405 113.211 411.494 119.353 416.618 125.506C416.61 125.498 416.603 125.49 416.595 125.482C416.646 126.13 416.685 126.792 416.744 127.478ZM507.551 352.046C512.544 353.555 517.165 355.784 522.766 358.219C519.424 358.083 517.272 357.985 514.963 357.846C515.584 359.632 518.163 359.175 519.361 360.864C513.297 358.884 507.624 357.365 502.109 354.81C495.721 351.842 488.89 349.104 482.115 346.755C482.091 346.76 482.068 346.764 482.044 346.768C479.049 345.709 478.454 344.589 477.697 342.99C477.711 342.984 477.724 342.978 477.737 342.973C480.842 342.674 483.858 342.319 485.808 345.874C486.456 347.009 487.611 346.442 488.49 346.689C493.374 348.063 498.479 348.39 502.726 351.751C504.02 352.779 505.959 351.567 507.551 352.046ZM433.406 144.787C426.465 139.645 421.152 133.013 416.654 125.567C422.615 131.597 427.957 138.246 433.406 144.787ZM416.618 125.506C416.63 125.527 416.642 125.547 416.654 125.567C416.638 125.551 416.622 125.534 416.606 125.518C416.61 125.514 416.614 125.51 416.618 125.506ZM479.605 197.336C477.985 196.812 476.671 197.381 475.364 195.1C471.157 187.75 464.337 183.012 458.955 176.836C458.591 176.408 458.24 175.967 457.81 175.465C459.003 175.111 459.548 177.363 461.037 177.458C458.387 174.096 455.936 170.908 452.832 168.187C452.429 167.844 451.659 167.729 451.563 167.546C450.525 165.508 447.105 163.103 447.888 161.901C448.636 160.687 451.039 163.97 452.088 165.204C452.095 165.212 452.102 165.221 452.11 165.229C461.189 175.815 470.656 186.061 479.605 197.336ZM255.251 142.611C259.346 148.987 264.369 154.398 268.08 161.153C268.539 161.998 269.643 163.182 269.181 163.646C268.763 164.085 267.892 163.018 267.282 162.077C267.278 162.079 267.274 162.081 267.27 162.084C263.121 155.697 259.111 149.205 255.251 142.611ZM290.761 192.44C293.092 197.023 297.79 199.494 300.356 203.815C300.367 203.821 300.377 203.826 300.388 203.831C301.427 205.603 302.924 207.423 303.21 209.528C297.815 204.41 294.387 198.73 290.191 193.657C289.66 193.012 289.291 192.043 289.782 191.833C289.93 191.774 290.665 192.247 290.761 192.44ZM309.982 217.05C312.439 219.776 317.262 220.373 316.972 225.137C313.697 223.21 312.28 219.796 309.982 217.05ZM319.222 227.803C323.131 230.477 325.268 233.602 327.696 236.247C328.129 236.717 328.57 237.17 329.032 237.6C328.505 237.224 327.986 236.837 327.472 236.436C324.668 234.249 322.03 231.641 319.222 227.803ZM477.66 342.913C477.665 342.925 477.672 342.937 477.677 342.948C477.69 342.922 477.702 342.895 477.715 342.869C477.697 342.884 477.677 342.898 477.66 342.913ZM279.048 176.756C281.213 180.159 284.442 183.149 286.493 187.883C282.35 184.388 280.928 180.212 278.213 177.037C278.113 176.918 278.041 176.352 278.145 176.361C278.378 176.367 278.893 176.563 279.018 176.738C279.028 176.744 279.038 176.75 279.048 176.756ZM554.581 363.281C558.054 363.526 559.247 365.882 562.398 365.25C562.408 365.244 562.418 365.239 562.428 365.233C562.333 365.67 562.211 366.104 562.116 366.541C561.342 366.513 560.579 366.565 559.827 366.471C548.913 365.148 537.824 363.051 526.701 360.368C525.375 360.046 524.187 359.625 524.276 358.651C524.403 357.169 525.946 357.753 527.283 358.097C533.343 359.654 539.534 360.633 545.358 362.258C548.547 363.151 551.72 363.073 554.581 363.281ZM487.166 207.53C483.928 204.617 481.081 202.431 478.823 199.423C481.356 198.94 485.553 202.667 487.166 207.53ZM509.353 233.015C506.674 231.825 505.515 229.303 504.192 227.271C504.199 227.28 504.207 227.288 504.214 227.296C501.57 223.23 498.68 219.594 494.862 216.609C501.169 220.182 505.577 226.446 510.701 231.666C511.545 232.547 512.266 233.598 511.617 234.247C510.866 234.951 509.999 233.3 509.353 233.015ZM537.002 263.671C535.575 263.177 533.934 264.502 534.126 262.69C534.373 260.158 532.705 259.045 531.263 258.086C530.225 257.401 529.793 256.376 529.337 255.327C528.367 253.771 527.411 252.199 525.824 250.889C521.777 247.527 519.293 242.228 514.737 239.096C513.765 238.436 512.934 237.263 513.665 236.672C514.396 236.081 515.332 237.196 516.14 238.065C520.279 242.594 524.723 246.958 528.47 251.738C528.473 251.751 528.476 251.763 528.479 251.776C529.125 252.597 529.792 253.398 530.474 254.19C532.727 257.083 535.331 259.791 537.002 263.671ZM543.87 416.444C543.256 415.325 543.865 414.896 544.069 414.698C545.879 412.82 546.018 410.053 545.16 407.482C544.362 405.077 545.75 405.109 546.157 404.879C547.238 404.253 547.178 406.296 547.178 406.955C547.266 410.54 547.443 414.154 547.572 417.764L596.143 368.219C592.332 368.474 588.377 368.499 584.519 367.942C580.257 367.322 576.193 368.272 572.065 367.477C572.057 367.47 572.049 367.462 572.041 367.454C568.758 366.829 564.675 367.559 562.876 364.641C563.759 363.13 565.876 367.333 565.66 363.663C565.625 362.963 567.213 363.124 568.156 363.212C574.196 363.736 579.881 364.42 585.599 365.821C588.915 366.641 592.964 366.983 596.082 365.152L544.505 417.764C544.317 417.313 544.106 416.873 543.87 416.444ZM544.111 280.349C541.156 278.651 541.579 275.62 541.229 273.493C540.727 270.506 538.213 269.347 537.19 266.989C536.941 266.444 535.895 266.059 536.597 265.392C537.265 264.743 538.116 265.266 538.58 266.06C538.589 266.062 538.597 266.064 538.606 266.066C541.081 270.339 544.172 274.636 544.111 280.349ZM545.064 374.794C545.29 374.299 543.32 373.574 544.973 372.751C545.525 372.487 546.113 372.85 546.269 374.201C547.324 383.197 547.383 392.259 546.809 401.353C546.788 401.65 546.299 401.88 545.524 402.605C545.423 394.927 544.255 388.073 544.671 380.791C544.781 378.814 544.179 376.771 545.064 374.794ZM543.792 360.426C543.231 357 545.53 356.703 545.875 354.331C547.823 359.273 547.879 363.525 543.888 366.985C544.984 364.283 544.103 362.338 543.792 360.426ZM543.639 315.354C543.447 313.84 542.301 310.978 545.262 311.329C545.984 311.428 545.979 310.538 545.629 309.813C545.435 309.418 545.098 309.187 544.822 308.858C545.577 307.128 545.865 305.333 545.952 303.51C546.103 301.723 545.568 299.921 545.737 298.142C545.775 297.658 545.748 296.921 546.651 296.978C547.193 297.018 547.356 297.363 547.384 297.91C547.498 299.776 547.537 301.643 547.501 303.51C547.379 314.442 547.296 325.364 547.233 336.306C547.219 336.306 547.205 336.306 547.192 336.306C547.187 336.767 546.918 337.229 546.645 338.151C545.336 335.68 544.608 332.55 545.241 330.474C546.634 325.861 544.901 321.412 545.796 316.996C545.992 316.041 546.585 314.096 545.059 313.964C544.062 313.872 543.748 314.665 543.639 315.354ZM543.575 316.107C543.584 315.928 543.592 315.651 543.639 315.354C543.681 315.686 543.679 315.953 543.575 316.107Z" fill="var(--stroke-0, #DADAF5)"/>
<path id="r" d="M218.507 346.45C213.261 347.824 207.77 348.435 202.079 348.714C207.411 347.564 212.93 346.929 218.507 346.45ZM218.507 346.45C218.595 346.427 218.685 346.404 218.773 346.381C218.773 346.381 218.697 346.422 218.656 346.427C218.657 346.43 218.658 346.434 218.658 346.437C218.608 346.442 218.557 346.446 218.507 346.45ZM218.738 346.418C218.783 346.424 218.831 346.428 218.876 346.434C218.805 346.442 218.734 346.45 218.662 346.458C218.688 346.445 218.713 346.431 218.738 346.418ZM99.1884 558.202C98.0009 562.054 103.015 564.883 106.051 567.414C111.154 571.743 116.75 575.266 122.629 578.215C128.659 581.245 135.392 583.064 142.038 583.592C143.214 583.674 144.104 583.585 142.923 584.692C142.912 584.697 142.9 584.703 142.889 584.709C142.891 584.712 142.893 584.716 142.895 584.719C142.884 584.73 142.873 584.741 142.86 584.752C142.862 584.742 142.865 584.731 142.867 584.72C142.85 584.728 142.832 584.737 142.815 584.745C142.817 584.734 142.82 584.723 142.822 584.712C140.874 587.931 137.834 584.896 135.624 584.615C130.524 583.996 125.819 580.762 121.02 579.658C115.712 578.377 112.167 573.822 105.514 572.43C120.116 585.116 138.312 591.474 156.236 589.998C156.29 588.858 154.616 589.811 154.26 588.567C154.98 588.62 155.705 588.666 156.434 588.704C184.75 589.647 212.802 592.309 241.066 589.117C230.78 587.67 220.417 590.155 209.939 588.551C214.737 587.991 219.535 587.009 224.332 586.976C238.878 586.899 253.501 586.166 268.009 586.955C273.075 587.23 277.297 585.174 282.363 585.762C283.898 585.938 286.317 585.522 287.047 585.967C294.032 590.157 302.82 587.774 310.995 588.174C313.824 588.314 316.646 588.387 319.462 588.413C330.667 588.518 341.789 587.901 352.984 588.008C370.293 588.153 387.641 587.843 404.912 588.411C415.044 588.75 425.677 589.713 435.349 589.533C446.479 589.313 457.57 589.675 468.546 589.952C472.727 590.065 476.941 590.028 481.16 589.997C488.226 589.908 494.881 588.954 502.146 589.545C508.507 585.569 515.968 584.322 522.451 580.388C537.408 571.389 550.574 557.853 557.33 540.78C560.466 532.882 562.369 524.433 562.935 515.661C563.809 496.68 564.773 477.701 565.87 458.746L576.974 482.641C576.214 481.911 575.446 481.181 574.671 480.452C560.6 467.253 544.547 455.53 527.615 444.913C526.948 444.504 526.368 443.929 525.627 443.347C527.192 443.089 528.904 445.284 530.401 445.314C528.571 443.691 525.961 441.67 524.456 441.662C521.968 441.642 519.815 439.991 517.695 438.754C508.267 433.187 498.528 428.03 488.589 423.147C472.922 415.456 456.389 409.23 439.685 403.583C425.26 398.717 410.572 394.34 395.658 390.88C379.659 387.169 363.32 384.388 346.866 382.469C367.94 385.3 388.676 389.481 408.964 394.999C408.895 395.161 408.824 395.333 408.719 395.486C385.039 389.615 360.586 384.075 336.108 382.594C336.103 382.739 336.097 382.883 336.091 383.028C346.779 384.34 357.423 385.988 367.919 388.033C371.145 388.657 374.538 389.021 377.494 390.098C375.919 390.703 372.859 389.512 370.633 389.38C371.215 389.82 373.45 389.718 373.82 390.333C373.56 390.342 373.294 390.398 373.005 390.341C363.563 388.735 354.068 387.207 344.615 385.498C342.419 385.106 340.753 385.033 339.007 385.077C333.909 385.204 325.837 384.24 321.698 383.031C319.587 382.414 320.442 381.851 321.971 381.569C324.318 381.118 324.295 380.563 321.726 379.821C320.198 379.381 320.124 379.117 321.437 378.832C325.032 378.06 324.833 377.919 317.463 377.326C325.171 377.175 322.777 376.279 321.317 374.941C319.27 373.013 313.372 370.921 321.708 369.143C322.777 368.921 323.747 367.81 322.417 366.825C320.974 365.751 319.276 364.277 322.648 363.027C323.152 362.845 324.468 362.644 325.355 362.644C334.235 362.727 332.945 361.29 331.996 360.337C329.534 357.885 331.881 355.635 335.001 353.176C336.661 351.861 336.832 350.436 338.472 349.058C340.281 347.517 347.443 347.271 352.619 347.078C362.803 346.675 373.098 347.181 383.247 348.225C387.82 348.689 392.749 349.022 397.421 349.217C405.506 349.529 412.555 351.433 420.479 352.338C423.451 352.674 425.834 352.832 428.187 352.709C431.202 354.816 436.79 354.511 441.064 355.488C445.346 356.464 450.004 357.579 454.369 357.548C457.472 357.521 458.384 359.035 461.108 359.66C475.807 363.019 490.316 367.619 504.746 372.013C512.387 374.341 519.627 377.088 526.508 380.165C550.032 390.694 574.059 401.594 596.041 416.546C603.515 421.637 610.923 427.651 618.744 433.132L631.406 445.081L630.646 458.746C630.888 461.153 631.22 463.551 631.678 465.929C632.502 470.189 632.171 475.065 632.091 479.632C631.971 487.154 631.882 494.561 632.863 502.275C633.422 506.696 633.214 511.158 633.101 515.661C633.025 519.655 632.843 523.607 632.821 527.665C632.754 540.829 629.914 553.981 625.583 566.529C623.556 572.452 621.002 578.247 620.605 583.876C620.329 587.6 618.193 585.715 616.697 589.239C613.769 596.024 609.93 602.619 605.696 608.823C596.998 621.6 585.719 632.249 573.03 640.599C566.859 644.668 560.234 649.189 553.834 653.189C549.434 655.953 543.916 656.93 540.248 660.338C537.522 660.132 533.186 660.268 530.752 662.312C526.802 665.624 522.081 666.282 517.218 667.651C507.624 670.356 497.816 672.751 487.831 671.907C485.563 671.708 485.402 673.258 482.587 673.233C482.116 673.23 481.64 673.225 481.16 673.221C477.571 673.176 473.726 673.308 470.582 673.558C461.716 674.285 452.619 671.846 443.984 674.761C441.067 675.761 437.344 674.711 433.889 674.835C425.407 675.123 416.695 676.112 408.405 674.639C399.347 673.011 390.174 674.296 381.347 674.763C376.357 675.022 370.178 674.203 365.649 676.403C363.115 674.179 357.129 676.261 354.366 673.767C352.638 672.206 348.723 673.298 346.842 673.935C340.088 676.257 335.328 676.146 327.959 675.888C325.179 675.791 322.338 675.504 319.462 675.339C314.716 675.068 309.874 675.133 305.047 676.941C302.015 678.078 295.682 676.188 290.654 676.07C287.392 675.998 283.361 676.043 280.521 674.504C279.6 673.992 278.564 673.905 277.643 674.573C273.229 677.686 268.163 675.704 263.634 674.803C259.604 673.985 256.188 672.28 252.734 675.277C251.621 676.222 248.358 675.993 246.324 675.571C240.836 674.452 240.913 674.374 235.731 675.519C234.925 675.693 233.889 675.662 233.006 675.573C223.449 674.715 213.855 676.032 203.991 674.18C196.968 672.867 187.449 672.425 181.078 673.86C173.517 675.553 166.838 673.99 159.853 674.341C158.719 674.4 157.579 674.448 156.434 674.487C146.65 674.739 136.546 673.657 127.084 671.31C103.082 665.457 79.3275 656.003 61.0104 639.622C59.2271 638.029 57.0851 635.786 55.0801 635.746C53.8623 635.739 51.6672 633.641 51.1541 632.814C44.9031 622.796 35.223 615.056 28.7256 605.236C11.1186 578.866 1.36294 546.979 2.33661 515.661C2.3457 515.414 2.35485 515.167 2.36409 514.919C2.87 501.141 2.80879 487.44 3.54504 473.7C3.85561 467.917 4.06932 462.147 4.25444 456.383L5.3258 437.307L17.4647 428.417C25.5473 422.149 33.7928 416.265 42.3047 410.898C52.0727 404.738 62.3406 399.14 72.0877 393.249C75.6517 391.075 80.1285 387.415 84.3552 388.12C84.4067 388.094 94.4579 382.135 94.7215 382.057C95.7634 381.523 96.7654 380.952 97.8221 380.563C113.681 374.486 128.919 368.012 144.768 363.138C167.274 356.207 190.336 351.492 213.35 348.1C220.441 347.061 227.748 346.906 235.462 345.802C229.824 345.455 223.641 347.039 218.876 346.434C230.02 345.18 241.38 344.22 252.21 344.385C262.081 344.488 273.501 343.806 281.697 345.811C282.92 346.099 284.521 345.866 285.752 345.806C289.78 345.625 291.778 346.275 291.005 346.837C289.351 348.099 292.316 348.189 296.777 348.272C298.326 348.299 300.514 348.283 301.085 348.751C301.573 349.115 300.025 349.182 298.6 349.233C296.033 349.312 292.046 349.331 293.598 350.176C294.706 350.778 297.218 351.485 301.438 351.174C301.636 351.164 302.154 351.295 302.67 351.386C301.698 352.004 298.849 351.833 296.328 351.87C299.843 352.947 302.342 353.933 299.127 355.159C298.431 355.417 299.028 355.701 296.838 355.706C292.283 355.727 292.336 356.063 294.378 356.91C296.988 357.985 301.317 359.096 296.564 360.48C296.22 360.578 296.19 360.806 296.504 360.909C299.529 361.951 299.816 362.818 296.638 364.161C294.562 365.033 300.193 365.69 303.972 366.032C312.405 366.787 317.379 368.83 317.378 370.751C317.378 370.751 317.378 370.751 317.378 370.751C317.378 371.399 316.825 372.046 315.668 372.667C312.93 374.107 307.896 375.94 314.067 377.242C269.718 381.721 227.363 392.72 187.073 408.174C147.186 423.553 108.895 443.004 77.3832 469.045C82.5029 465.966 86.9608 461.63 92.2465 458.805C92.6792 458.577 93.1103 458.608 94.525 458.307C86.8494 463.632 79.4533 469.228 72.4106 475.089C71.7484 475.64 70.997 476.293 71.16 475.369C71.6119 472.703 69.6415 475.706 69.6141 475.944C69.2493 478.394 66.8761 480.096 64.597 481.598C63.8486 482.094 63.1629 482.636 62.5193 483.207L75.1901 456.383C75.2856 459.306 75.7817 462.123 75.9729 465.025C77.0987 481.88 78.0801 498.77 79.0172 515.661C79.0638 516.231 79.1164 516.799 79.175 517.363C79.6514 521.975 79.9968 526.686 81.973 531.038C83.1453 533.553 84.4643 531.073 85.257 533.153C86.2022 535.497 83.1129 534.687 84.1079 537.169C85.1607 539.722 85.7505 542.485 87.4408 545.026C87.7234 544.208 87.9415 543.584 88.4068 542.363C89.3422 549.676 94.1255 554.296 99.1884 558.202ZM231.893 672.29C224.293 670.929 216.732 672.002 209.133 671.713C216.694 673.026 224.332 672.242 231.893 672.29ZM178.621 670.939C186.374 672.763 194.396 671.96 202.341 671.794C194.473 671.199 186.489 671.91 178.621 670.939ZM254.039 672.243C266.998 672.331 279.958 672.393 292.918 672.429C292.879 672.164 292.842 671.899 292.803 671.634C279.882 671.599 266.96 671.539 254.039 671.453C254.039 671.716 254.039 671.98 254.039 672.243ZM318.632 671.487C312.262 671.486 305.891 671.847 299.52 671.977C305.929 672.296 312.377 672.873 318.632 671.487ZM219.441 375.509C237.688 373.671 253.066 370.166 268.326 367.713C252.283 367.936 236.456 370.977 219.441 375.509ZM466.964 407.61C472.397 410.391 476.383 412.54 481.42 412.752C476.562 410.601 472.459 408.684 466.964 407.61ZM537.821 442.731C545.084 449.371 552.145 453.592 559.463 457.325C552.982 451.927 546.015 447.329 537.821 442.731ZM487.552 421.143C488.633 421.681 489.734 422.252 490.272 422.086C490.719 421.951 490.559 421.385 490.502 420.943C490.429 420.641 489.758 420.156 489.174 420.141C484.706 420.058 481.295 416.479 477.148 415.171C479.431 415.42 481.846 417.36 484.992 417.795C476.315 413.475 468.269 412.631 460.391 408.504C460.381 408.496 460.371 408.487 460.36 408.479C462.558 410.741 465.494 411.088 468.014 412.17C474.622 415.022 481.152 417.966 487.552 421.143ZM432.281 398.89C438.686 401.378 444.204 403.038 449.743 404.673C444.223 403.016 439.219 399.758 432.281 398.89ZM494.651 595.947C494.547 595.825 493.372 595.787 493.113 596.407C492.828 597.071 493.296 597.511 494.087 597.761C496.862 598.627 499.846 597.678 503.979 597.454C503.977 597.448 503.975 597.442 503.973 597.436C502.872 596.813 502.626 596.508 502.278 596.491C499.774 596.342 496.467 598.545 494.651 595.947ZM517.974 436.255C512.852 433.201 507.902 429.643 502.101 427.823C507.479 430.529 512.764 433.335 517.974 436.255ZM525.382 440.838C529.936 443.833 534.244 447.085 539.208 449.142C534.716 446.153 530.509 442.457 525.382 440.838ZM566.484 522.755C566.541 525.339 563.965 527.149 564.342 528.33C565.586 532.494 562.939 535.91 561.873 539.474C565.027 534.67 567.541 529.065 566.484 522.755ZM552.934 459C556.543 461.49 557 464.982 561.269 467.603C561.155 463.787 556.485 461.477 552.934 459ZM555.672 549.599C555.615 549.752 555.574 549.912 555.529 550.04C554.164 554.371 551.368 558.06 548.422 561.416C547.164 562.834 547.17 564.167 547.813 564.819C548.574 565.591 549.484 563.986 550.137 563.19C554.444 558.122 557.033 551.97 560.175 546.067C561.167 544.202 561.341 541.874 561.754 539.752C560.324 539.188 560.577 541.129 559.995 541.946C558.525 543.98 559.035 545.879 558.47 547.808C557.686 550.427 556.882 550.725 555.672 549.599ZM507.007 589.113C505.993 587.913 506.065 589.041 506.243 589.493C506.451 590.019 505.012 590.467 506.039 591.01C506.579 590.809 507.147 590.532 507.755 590.375C508.284 590.226 508.93 589.864 509.377 590.302C509.369 590.304 509.361 590.307 509.352 590.31C504.049 594.073 497.042 592.095 491.324 594.52C504.029 593.972 517.037 590.223 527.541 582.354C528.3 581.791 528.785 580.914 529.794 580.694C535.469 579.358 539.096 574.36 543.254 570.636C544.575 569.452 544.557 568.37 544.354 566.716C540.651 571.777 536.434 575.837 531.186 577.957C530.366 578.289 529.579 578.952 528.818 579.481C522.96 583.658 516.596 587.21 509.748 589.149C508.718 589.434 507.808 590.076 507.007 589.113ZM313.418 380.487C302.819 379.361 205.978 403.856 201.644 407.347C224.167 398.433 248.394 392.025 272.472 386.479C284.965 383.591 297.903 380.991 311.701 380.433C312.26 380.405 312.746 380.46 313.418 380.487ZM478.526 592.785C465.477 592.652 452.427 592.487 439.377 592.368C435.995 592.327 432.502 592.074 429.98 593.584C429.991 593.584 430.003 593.584 430.014 593.584C431.357 594.542 433.352 594.282 435.117 594.302C449.548 594.543 463.979 594.774 478.372 595.112C479.296 595.126 480.323 595.227 481.16 595.18C481.763 595.131 482.22 594.916 482.304 594.286C482.415 593.414 481.907 593.062 481.16 592.907C480.394 592.799 479.453 592.792 478.526 592.785ZM451.944 409.193C440.44 405.314 428.794 401.507 417.131 397.609C429.05 400.507 440.651 404.494 451.944 409.193ZM318.632 592.657C313.528 591.658 308.384 593.008 303.242 592.405C308.423 594.456 313.528 593.249 318.632 592.657ZM380.732 591.625C383.61 593.125 386.797 593.489 390.712 592.908C395.049 592.27 399.731 592.409 404.183 593.134C405.142 593.283 406.063 594.079 406.715 593.075C407.368 592.071 406.102 591.817 404.529 591.803C396.597 591.734 388.664 591.675 380.732 591.625ZM409.632 591.505C416.063 593.117 422.755 593.864 429.708 593.593C423.854 590.185 416.177 592.704 409.632 591.505ZM429.821 593.682C429.834 593.682 429.846 593.682 429.859 593.682C429.852 593.678 429.846 593.674 429.839 593.67C429.833 593.674 429.827 593.678 429.821 593.682ZM488.36 425.345C488.438 425.154 488.516 424.962 488.594 424.77C504.727 431.79 519.578 441.205 534.015 450.67C519.546 441.301 504.216 432.852 488.36 425.345ZM556.551 539.123C558.885 531.569 560.432 523.767 560.935 515.661C561.756 496.688 562.942 477.731 563.666 458.746L575.552 484.326C575.388 484.175 575.224 484.024 575.058 483.873C575.062 483.869 575.065 483.865 575.069 483.86C575.313 483.623 575.542 483.349 575.761 483.089C575.916 483.235 576.071 483.382 576.225 483.529L564.709 458.746C563.691 477.729 562.707 496.698 561.768 515.661C561.191 523.853 559.414 531.739 556.551 539.123ZM540.619 456.003C540.734 455.881 540.829 455.726 540.924 455.571C552.371 463.389 563.191 471.782 573.229 480.804C573.091 480.918 572.917 481.022 572.795 481.172C562.801 472.18 552.021 463.805 540.619 456.003ZM78.7895 531.372C77.3871 526.263 77.4596 521.036 75.9351 515.661C75.7658 514.801 75.5705 513.939 75.3452 513.077C75.3766 513.939 75.4079 514.8 75.4391 515.661C75.7173 521.089 76.5167 526.411 77.8167 531.567C78.141 531.502 78.4652 531.437 78.7895 531.372ZM409.409 398.542C407.762 397.995 408.385 399.208 406.935 398.504C399.8 395.04 391.755 394.487 384.167 392.747C380.051 391.81 378.578 391.207 377.573 390.122C386.517 391.902 395.528 393.58 404.04 396.525C405.712 397.114 406.756 396.91 408.242 397.35C410.56 398.045 410.308 398.335 409.409 398.542ZM377.512 390.07C377.513 390.067 377.513 390.063 377.514 390.06C377.52 390.067 377.529 390.075 377.536 390.083C377.533 390.084 377.529 390.085 377.525 390.087C377.521 390.081 377.517 390.076 377.512 390.07ZM377.536 390.083C377.54 390.081 377.544 390.079 377.549 390.077C377.548 390.083 377.547 390.089 377.547 390.095C377.543 390.091 377.54 390.087 377.536 390.083ZM377.494 390.098C377.504 390.094 377.515 390.091 377.525 390.087C377.531 390.097 377.538 390.106 377.544 390.116C377.527 390.11 377.511 390.104 377.494 390.098ZM377.547 390.095C377.555 390.104 377.565 390.113 377.573 390.122C377.563 390.12 377.553 390.118 377.544 390.116C377.545 390.109 377.546 390.102 377.547 390.095ZM247.092 588.237C245.902 588.185 243.83 588.223 243.868 589.153C243.906 590.084 245.633 589.828 247.053 589.797C254.614 589.677 262.176 589.668 269.737 589.628C262.598 587.512 254.729 588.541 247.092 588.237ZM438.774 408.362C429.508 405.22 420.058 402.808 410.758 399.517C410.215 399.322 409.895 398.895 409.488 398.568C412.777 398.744 416.256 399.548 420.107 400.808C426.014 402.751 431.956 404.681 437.838 406.811C439.005 407.231 440.492 407.706 440.395 408.331C440.344 408.655 439.666 408.671 438.774 408.362ZM129.915 435.498C126.584 438.65 116.66 444.523 110.021 447.36C116.785 442.331 123.702 439.475 129.915 435.498ZM104.868 571.153C103.721 568.212 102.281 566.472 99.3428 564.98C99.8582 568.194 102.097 569.646 104.868 571.153ZM84.1115 539.815C83.8569 539.027 83.517 538.262 82.8756 538.381C82.0855 538.511 81.9755 539.822 82.5041 540.379C85.1603 543.11 85.1757 547.337 88.6362 550.7C88.6319 550.692 88.6277 550.685 88.6234 550.678C86.5254 546.513 85.2185 543.176 84.1115 539.815ZM509.811 440.722C502.731 436.315 495.216 432.842 487.861 428.95C480.813 425.241 472.992 422.708 467.067 417.939C481.315 425.552 497.071 431.252 509.811 440.722ZM541.508 561.313C541.695 561.455 541.882 561.597 542.069 561.738C535.689 569.415 527.862 575.804 519.242 580.448C519.119 580.239 518.996 580.031 518.873 579.822C527.414 575.232 535.176 568.912 541.508 561.313ZM409.335 398.56C409.303 398.559 409.269 398.555 409.237 398.554C409.237 398.554 409.33 398.552 409.387 398.547C409.395 398.546 409.401 398.543 409.409 398.542C409.412 398.543 409.415 398.543 409.417 398.544C409.43 398.543 409.435 398.54 409.428 398.538C409.44 398.541 409.451 398.545 409.463 398.548C409.472 398.555 409.479 398.561 409.488 398.568C409.46 398.567 409.432 398.565 409.405 398.564C409.36 398.567 409.315 398.571 409.271 398.574C409.293 398.57 409.313 398.565 409.335 398.56ZM466.123 419.14C461.642 416.698 456.27 415.759 452.17 412.722C457.182 414.385 462.359 415.842 466.123 419.14ZM304.74 585.735C305.852 585.692 307.119 585.833 306.928 586.69C306.774 587.505 305.622 587.548 304.432 587.469C301.362 587.25 298.33 587.032 295.26 586.817C295.272 586.817 295.285 586.817 295.297 586.816C295.374 586.572 295.413 586.347 295.451 586.103C298.522 585.972 301.631 585.822 304.74 585.735ZM483.258 588.05C488.397 586.901 493.546 587.8 498.618 586.627C493.766 588.755 488.375 588.205 483.258 588.05ZM535.56 456.749C535.312 457.234 534.295 457.105 533.6 456.494C529.398 452.736 524.466 449.989 519.546 447.076C519 446.763 518.593 446.109 517.615 445.09C524.05 447.239 528.977 451.645 534.227 454.593C535.367 455.224 535.847 456.2 535.56 456.749ZM560.253 476.782C553.676 471.013 546.743 465.398 539.431 460.202C537.938 459.137 537.106 458.368 537.376 457.786C537.844 456.81 539.345 458.423 540.241 459.088C547.065 464.085 553.574 469.35 559.796 474.823C559.787 474.815 559.779 474.808 559.77 474.801C559.932 475.445 560.082 476.103 560.253 476.782ZM175.052 582.789C182.037 582.482 188.869 583.079 197.044 583.736C192.746 584.601 189.905 585.185 186.95 585.79C188.485 587.281 191.555 586.037 193.781 587.283C185.261 587.247 177.546 587.708 169.601 587.29C165.266 587.06 160.854 586.962 156.434 586.99C153.275 587.022 150.162 587.018 147.049 586.971C147.031 586.983 147.013 586.994 146.996 587.006C144.425 586.939 143.732 586.02 142.895 584.719C142.905 584.71 142.914 584.7 142.923 584.692C145.315 583.525 147.409 582.248 149.709 584.939C150.467 585.789 151.202 584.859 151.92 584.781C153.448 584.616 154.932 584.266 156.434 583.962C160.514 583.464 164.624 583.211 168.911 584.212C171.022 584.708 172.826 582.89 175.052 582.789ZM559.632 467.848C559.242 464.805 559.06 461.772 559.053 458.746L572.578 487.852C568.036 484.038 563.855 479.623 559.844 474.878C564.701 478.491 569.223 482.617 573.418 486.855L560.357 458.746C560.12 461.78 559.868 464.814 559.632 467.848ZM559.796 474.823C559.812 474.841 559.828 474.86 559.844 474.878C559.825 474.864 559.806 474.85 559.787 474.835C559.79 474.831 559.793 474.827 559.796 474.823ZM552.097 536.772C551.668 535.474 550.495 534.769 551.61 533.162C555.163 527.927 554.521 521.639 555.015 515.661C555.021 515.536 555.028 515.411 555.035 515.286C555.081 514.634 555.144 513.981 555.195 513.214C555.857 513.632 555.677 514.641 555.649 515.661C555.631 516.097 555.674 516.532 556.058 516.875C556.128 516.47 556.194 516.065 556.257 515.661C556.69 511.393 557.058 507.315 556.821 503.12C556.779 502.506 556.316 501.777 556.377 501.547C557.085 499.014 556.367 494.217 557.77 493.871C559.158 493.487 558.535 498.17 558.404 500.05C558.404 500.063 558.403 500.076 558.403 500.089C558.063 505.271 557.774 510.458 557.485 515.661C556.871 523.021 555.222 530.183 552.097 536.772ZM194.471 410.054C186.27 413.287 178.969 417.637 170.533 420.559C169.481 420.918 167.882 421.897 167.473 421.374C167.08 420.899 168.489 420.143 169.69 419.64C169.688 419.636 169.687 419.632 169.686 419.628C177.81 416.213 186.084 413.02 194.471 410.054ZM130.59 440.321C125.042 442.301 121.347 446.926 116.109 449.247C116.101 449.257 116.093 449.268 116.085 449.278C113.929 450.223 111.672 451.625 109.309 451.786C115.923 446.566 122.902 443.473 129.369 439.63C130.195 439.142 131.349 438.848 131.474 439.37C131.507 439.527 130.824 440.239 130.59 440.321ZM99.8656 458.328C96.4622 460.727 95.0392 465.669 89.9283 465.184C92.5621 461.846 96.4769 460.556 99.8656 458.328ZM86.7116 467.41C82.6046 472.086 78.2658 474.218 74.8519 477.337C77.8536 473.855 81.2982 470.706 86.7116 467.41ZM142.854 584.657C142.86 584.667 142.867 584.676 142.873 584.685C142.879 584.657 142.885 584.628 142.89 584.599C142.879 584.619 142.866 584.638 142.854 584.657ZM150.553 429.898C146.287 431.734 142.238 434.72 136.546 436.372C141.332 432.463 146.291 431.439 150.433 429.019C150.589 428.929 151.235 428.916 151.2 429.022C151.141 429.258 150.804 429.761 150.58 429.87C150.571 429.879 150.562 429.889 150.553 429.898ZM241.105 580.9C245.941 580.507 248.205 582.634 252.427 581.523C252.44 581.516 252.452 581.509 252.465 581.502C252.427 581.949 252.349 582.396 252.311 582.842C251.237 582.932 250.2 583.103 249.125 583.133C233.735 583.591 218.345 584.071 202.955 584.65C201.113 584.716 199.424 584.661 199.155 583.704C198.733 582.249 200.959 582.355 202.839 582.307C211.321 582.081 219.842 581.463 228.247 581.768C232.776 581.937 237.113 581.224 241.105 580.9ZM547.191 544.734C548.247 541.759 548.664 539.226 549.96 536.828C551.722 538.425 550.665 542.633 547.191 544.734ZM532.058 563.408C532.599 561.294 534.486 560.575 535.935 559.572C535.93 559.578 535.925 559.583 535.92 559.589C538.803 557.607 541.178 555.117 542.428 551.855C541.525 557.187 537.087 560.959 533.448 564.713C532.826 565.339 532.023 565.821 531.371 565.175C530.657 564.437 531.927 563.925 532.058 563.408ZM503.003 580.725C504.076 579.439 503.265 577.493 505.145 578.12C507.777 578.975 509.594 577.557 511.151 576.31C513.342 574.531 516.23 575.383 518.444 573.493C521.18 571.153 525.477 570.376 527.658 567.04C528.107 566.338 528.986 565.835 529.583 566.557C530.178 567.282 529.333 567.907 528.674 568.442C525.241 571.17 521.674 573.891 517.662 575.487C517.652 575.486 517.642 575.484 517.631 575.482C512.969 577.337 508.661 579.922 503.003 580.725ZM303.473 578.377C304.778 577.763 305.277 578.372 305.507 578.576C307.695 580.387 310.918 580.526 313.912 579.667C316.714 578.87 316.676 580.257 316.945 580.665C317.674 581.745 315.294 581.685 314.526 581.686C304.548 581.896 294.377 582.615 284.551 581.965C278.219 581.546 272.5 582.819 266.474 582.472C266.461 582.465 266.448 582.459 266.435 582.452C261.676 582.179 256.073 583.459 252.964 580.849C253.885 579.218 257.723 583.082 256.687 579.479C256.495 578.79 258.798 578.73 260.18 578.699C268.892 578.446 277.412 578.636 286.009 579.799C291.574 580.548 298.292 580.834 303.473 578.377ZM482.028 582.738C485.082 580.515 488.254 581.855 490.715 582.149C494.178 582.551 496.401 580.438 499.346 580.059C500.032 579.959 500.843 579.032 501.297 579.892C501.743 580.714 500.857 581.417 499.82 581.661C499.815 581.669 499.809 581.677 499.803 581.686C494.228 582.985 488.355 584.687 482.028 582.738ZM351.986 579.572C352.562 579.797 353.406 577.827 354.366 579.481C354.672 580.032 354.25 580.621 352.676 580.777C342.198 581.832 331.643 581.89 321.05 581.317C320.705 581.296 320.437 580.806 319.593 580.032C328.535 579.93 336.518 578.762 345 579.178C347.303 579.288 349.683 578.686 351.986 579.572ZM368.72 578.3C372.711 577.738 373.057 580.037 375.82 580.382C370.063 582.33 365.111 582.386 361.081 578.395C364.228 579.491 366.494 578.61 368.72 578.3ZM421.218 578.146C422.981 577.954 426.315 576.809 425.906 579.77C425.791 580.492 426.827 580.486 427.671 580.137C428.132 579.943 428.401 579.605 428.784 579.33C434.311 581.398 440.415 579.967 446.21 580.466C447.208 580.543 448.742 580.589 448.435 581.482C448.243 582.018 447.514 582.146 446.402 582.128C429.86 581.938 413.356 581.822 396.814 581.74C396.814 581.726 396.814 581.713 396.814 581.699C396.277 581.694 395.739 581.426 394.665 581.152C397.543 579.843 401.189 579.115 403.607 579.749C408.98 581.142 414.162 579.408 419.305 580.303C420.418 580.499 422.683 581.092 422.836 579.566C422.944 578.57 422.02 578.255 421.218 578.146ZM420.341 578.082C420.549 578.091 420.872 578.1 421.218 578.146C420.831 578.189 420.521 578.186 420.341 578.082Z" fill="var(--stroke-0, #DADAF5)"/>
</g>
</svg>
