<svg preserveAspectRatio="none" width="100%" height="100%" overflow="visible" style="display: block;" viewBox="0 0 642.803 677.363" fill="none" xmlns="http://www.w3.org/2000/svg">
<g id="Group 43896">
<path id="l" d="M20.7521 252.559C19.4286 257.132 17.4682 261.555 15.257 266.104C16.5337 261.454 18.4974 256.932 20.7521 252.559ZM20.7521 252.559C20.7743 252.482 20.7973 252.404 20.8192 252.328C20.8192 252.328 20.8183 252.404 20.8027 252.437C20.8061 252.438 20.8095 252.439 20.8129 252.441C20.7926 252.48 20.7724 252.52 20.7521 252.559ZM20.8341 252.372C20.8609 252.342 20.8881 252.308 20.9147 252.278C20.8874 252.334 20.8602 252.391 20.8329 252.448C20.8333 252.423 20.8337 252.397 20.8341 252.372ZM85.1319 512.489C84.1879 513.32 83.6963 514.436 83.4798 515.72C82.9517 517.716 84.1408 520.254 84.5136 522.324C85.4159 527.235 86.8167 531.909 88.4432 536.517C90.11 541.244 92.7056 545.758 95.8653 549.651C96.4334 550.333 96.9716 550.764 95.4829 550.804C95.4722 550.801 95.4614 550.799 95.4507 550.796C95.4492 550.799 95.448 550.802 95.4466 550.805C95.4319 550.806 95.417 550.807 95.4019 550.807C95.4114 550.802 95.421 550.796 95.4305 550.791C95.4148 550.787 95.3991 550.782 95.3834 550.778C95.3931 550.773 95.4029 550.767 95.4126 550.761C91.8755 551.681 92.5748 548.207 91.5184 546.89C89.0933 543.86 88.6552 539.575 86.3375 536.597C83.8238 533.26 84.6521 528.923 80.7416 524.992C82.769 539.153 88.5205 551.993 97.8987 561.535C98.8211 560.86 97.3023 560.485 98.1103 559.512C105.523 570.927 116.134 582.639 130.532 584.487C126.61 581.467 121.113 581.513 117.721 577.491C119.93 578.218 122.33 578.446 124.294 579.404C130.304 582.358 136.787 583.786 143.115 585.778C145.37 586.478 147.538 584.706 149.738 585.508C150.412 585.751 151.535 585.416 151.837 585.88C153.13 587.817 154.739 588.446 156.447 588.538C159.822 588.655 163.367 588.01 166.77 588.233C168.879 588.374 170.982 588.446 173.082 588.473C181.434 588.578 189.725 587.961 198.071 588.068C207.952 588.179 217.849 588.022 227.725 588.199L186.228 618.661C187.003 616.376 187.779 614.026 188.558 611.667C190.507 605.815 192.893 599.472 193.789 593.44C194.815 586.481 196.118 579.485 197.063 572.44C198.368 562.842 197.33 552.814 200.84 543.233C198.717 535.904 200.344 528.211 199.985 520.624C199.183 502.853 198.499 484.843 195.784 466.794C192.471 444.736 187.497 422.646 181.25 400.817C177.094 386.343 171.901 372.111 166.262 358.019C166.033 357.47 165.974 356.836 165.804 356.134C167.092 356.55 166.966 358.786 168.036 359.372C167.714 357.516 167.094 355.063 166.019 354.48C164.25 353.524 163.728 351.461 163.017 349.77C159.853 342.122 156.444 334.536 152.932 326.975C151.668 324.25 150.342 321.54 148.967 318.84C144.368 309.804 139.296 300.977 134.155 292.188C128.394 282.352 122.457 272.575 116.001 263.121C109.077 252.987 101.63 243.142 93.7789 233.604C103.571 246.082 112.679 258.968 121.118 272.232C120.966 272.316 120.805 272.408 120.637 272.469C110.396 257.397 100.182 241.679 87.7302 228.331C87.6275 228.433 87.5248 228.535 87.4221 228.636C92.3976 234.942 97.23 241.369 101.827 247.914C103.236 249.914 104.936 251.802 105.912 253.995C104.578 253.675 103.634 251.354 102.449 250.188C102.48 250.785 103.834 251.783 103.624 252.404C103.469 252.285 103.277 252.198 103.149 252.019C98.826 246.338 94.5085 240.601 90.4313 234.674C89.4812 233.3 88.6084 232.416 87.6168 231.579C84.7024 229.122 80.9659 224.351 79.5583 221.357C78.8413 219.833 79.6915 219.861 80.7147 220.437C82.2978 221.306 82.6683 220.893 81.7868 219.046C81.263 217.947 81.4049 217.718 82.312 218.182C84.7978 219.455 84.7697 219.256 81.2071 215.063C85.4655 218.888 84.8042 217.018 84.9301 215.302C85.1502 212.861 83.4121 208.331 89.139 211.302C89.8734 211.689 91.1644 211.378 91.1221 209.987C91.0791 208.47 91.1739 206.534 93.8666 207.354C94.2651 207.479 95.1191 208.004 95.6036 208.457C100.396 213.032 100.693 211.321 100.826 210.157C101.169 207.136 104.004 206.698 107.418 206.492C109.241 206.378 110.318 205.433 112.179 205.264C114.237 205.059 118.38 208.467 121.419 210.883C127.416 215.636 132.917 220.985 138.089 226.591C140.405 229.091 143.077 231.691 145.676 234.004C150.222 238.022 153.121 242.656 157.274 246.906C158.838 248.503 160.182 249.702 161.693 250.67C162.082 253.535 165.721 255.835 167.692 258.421C169.681 261.032 171.81 263.86 174.575 265.75C176.551 267.096 176.086 268.551 177.388 270.179C182.955 277.116 188.104 284.434 193.341 291.632C194.71 293.514 196.083 295.382 197.474 297.23C201.012 301.932 204.138 306.789 206.846 311.61C216.152 328.18 226.514 344.529 234.445 362.049C237.899 369.675 240.672 378.155 245.559 385.582C247.494 388.516 248.457 392.27 249.556 395.782C251.366 401.529 253.073 407.186 255.78 412.828C258.378 418.241 258.817 424.41 261.056 430.157C264.006 437.716 265.764 445.61 267.504 453.531C268.331 457.272 269.013 461.061 271.684 463.817C273.452 465.624 270.652 465.69 271.398 467.926C272.827 472.208 273.884 476.735 274.873 481.195C276.918 490.364 277.644 499.659 277.627 508.954C277.619 513.53 278.243 518.349 279.034 522.966C279.577 526.119 278.277 529.453 280.134 532.308C278.949 533.843 277.602 536.422 278.796 538.228C280.715 541.117 280.048 544.027 280.238 547.137C280.616 553.23 281.48 559.408 279.884 565.485C279.521 566.882 281.05 567.1 280.882 568.832C280.591 572.061 280.444 575.672 280.454 578.61C280.511 586.117 277.165 593.44 278.901 601.193C279.507 603.809 277.94 606.803 277.521 609.761C276.497 616.951 275.819 624.641 272.55 631.34C270.511 635.463 269.247 639.976 268.154 644.391L258.248 674.487L227.725 674.07C224.859 674.278 222.014 674.625 219.215 674.823C215.495 675.081 210.889 674.263 207.513 676.462C205.624 674.239 201.161 676.321 199.101 673.827C197.814 672.265 194.895 673.357 193.493 673.994C188.457 676.317 184.909 676.206 179.416 675.948C177.343 675.851 175.226 675.563 173.082 675.399C169.544 675.128 165.934 675.193 162.335 677C160.998 677.673 158.797 677.286 156.447 676.833C154.196 676.522 151.873 676.128 149.777 675.992C146.443 675.793 142.263 675.516 139.549 673.672C138.665 673.063 137.633 672.857 136.617 673.403C131.737 675.939 126.762 673.085 122.458 671.215C118.572 669.527 115.731 667.023 111.5 668.909C110.138 669.502 106.966 668.284 105.121 667.203C100.159 664.287 100.305 664.249 94.938 663.304C94.108 663.147 93.1318 662.697 92.3353 662.25C83.7237 657.544 74.3649 653.88 67.0635 646.649C61.8578 641.561 54.7492 635.261 49.0609 631.89C42.2483 627.881 38.6786 621.77 33.9056 616.538C28.2286 610.324 23.2579 603.028 19.5827 595.443C11.4995 578.898 3.9036 561.637 2.446 543.291C2.30709 541.509 2.32669 539.163 0.910129 538.203C0.0423886 537.625 -0.115258 535.364 0.067867 534.637C1.67642 528.324 0.898052 522.076 0.604061 515.72C0.483928 513.813 0.37767 511.917 0.465328 510.056C1.32537 492.26 1.47889 474.434 2.37619 456.638C2.88209 446.367 2.82088 436.153 3.55713 425.91C4.35548 414.78 4.52838 403.707 5.17751 392.634C5.63335 384.852 6.28764 376.898 5.94819 369.116C5.81498 366.255 4.72584 362.392 7.30575 360.046C7.34394 360.017 6.57246 351.977 6.58002 351.805C6.55878 351.004 6.48194 350.203 6.58742 349.43C7.96455 337.757 7.76854 326.284 8.45712 314.754C8.67855 310.953 8.93309 307.15 9.20754 303.345C10.1124 287.364 13.8511 271.708 19.7575 257.213C22.1342 251.389 25.579 245.999 28.6876 239.979C25.4392 243.761 23.7121 249.047 20.9147 252.278C25.1735 243.378 30.3978 234.797 36.6298 227.755C42.2432 221.282 48.6475 213.757 55.1749 210.469C56.1332 209.97 56.967 208.895 57.7049 208.151C58.4019 207.452 59.0466 206.906 59.6045 206.503C60.7955 205.694 61.5496 205.613 61.5268 206.165C61.486 207.864 63.1673 206.551 65.6176 204.47C66.4696 203.744 67.6237 202.672 68.2494 202.731C68.7603 202.756 67.9853 203.56 67.2562 204.287C65.9346 205.596 63.7915 207.499 65.2079 207.378C66.2139 207.292 68.0733 206.601 70.1112 204.309C70.2101 204.206 70.5768 204.047 70.9142 203.859C70.8262 204.783 69.186 206.056 67.843 207.303C70.4843 206.383 72.5067 205.857 71.6181 208.327C71.4187 208.855 71.9404 208.77 70.7506 209.846C68.2835 212.072 68.5337 212.282 70.2321 211.917C72.3907 211.446 75.5323 210.095 73.8731 213.453C73.7501 213.695 73.8896 213.875 74.1336 213.795C76.5117 213.058 77.274 213.537 76.4349 216.097C75.8765 217.764 79.4674 215.446 81.7575 213.771C86.8743 210.03 90.917 208.808 92.2815 210.172C92.2816 210.172 92.2816 210.173 92.2817 210.173C92.7397 210.631 92.9047 211.382 92.7237 212.437C92.2798 214.906 90.7998 218.889 95.0824 216.536C91.3552 221.311 87.653 226.088 83.9656 230.864C69.1048 250.737 63.0526 274.703 64.5283 296.864C64.6666 299.041 64.8729 301.2 65.1459 303.345C68.2755 334.178 70.066 365.114 72.9412 395.953C73.3824 391.003 72.2296 385.996 72.6286 381.103C72.6629 380.703 72.9189 380.416 73.404 379.301C73.9238 386.95 74.4258 394.599 74.9099 402.247C74.9553 402.963 75.023 403.792 74.3839 403.22C72.5236 401.59 73.7399 404.394 73.9085 404.537C75.6383 406.025 75.5288 408.485 75.2656 410.774C74.933 413.778 75.7287 416.553 75.9849 419.443C77.1669 432.633 78.1893 445.852 79.1689 459.07C79.549 464.221 79.3749 469.457 80.4369 474.75C81.0541 477.84 82.8806 475.379 83.1782 477.982C83.5134 480.958 80.7443 479.099 81.0201 482.16C81.3024 485.336 80.934 488.541 81.4937 492.003C82.0734 491.259 82.516 490.686 83.397 489.542C81.5724 497.954 83.3955 504.964 85.1319 512.489ZM92.6249 658.789C86.219 654.437 79.0631 651.803 72.7582 647.452C78.4718 652.645 85.7097 655.652 92.6249 658.789ZM49.2588 628.069C53.608 634.746 60.4443 639.33 67.0473 643.738C60.9433 638.747 54.2808 634.205 49.2588 628.069ZM113.617 666.362C126.169 670.021 139.198 672.052 152.193 672.432C152.162 672.166 152.132 671.9 152.101 671.634C139.208 671.249 126.285 669.23 113.833 665.602C113.761 665.855 113.689 666.109 113.617 666.362ZM172.463 671.546C167.714 671.546 162.965 671.907 158.216 672.036C162.993 672.355 167.8 672.933 172.463 671.546ZM46.484 265.81C52.5891 253.556 57.1194 242.856 63.333 233.007C55.0253 241.773 49.6869 253.058 46.484 265.81ZM148.885 306.864C150.378 310.67 151.486 313.605 153.944 315.789C154.265 316.074 154.609 316.347 154.98 316.607C154.789 316.232 154.603 315.863 154.418 315.498C152.857 312.401 151.455 309.651 148.885 306.864ZM175.056 360.327C176.277 367.802 179.047 373.427 182.451 378.712C180.67 372.525 178.222 366.692 175.056 360.327ZM153.551 325.125C153.924 325.95 154.293 326.806 154.766 326.908C155.157 326.994 155.42 326.526 155.672 326.188C155.82 325.943 155.686 325.325 155.302 325.075C152.692 323.421 152.45 320.11 151.119 317.521C150.946 317.182 150.755 316.856 150.539 316.547C150.825 316.789 151.065 317.086 151.283 317.42C152.097 318.663 152.595 320.411 154.037 321.687C153.325 320.066 152.494 318.599 151.617 317.215C148.893 312.933 145.792 309.472 144.025 304.702C144.024 304.692 144.023 304.681 144.022 304.671C143.925 307.227 145.594 308.715 146.524 310.563C147.772 313.06 149.012 315.557 150.228 318.067C151.366 320.414 152.479 322.764 153.551 325.125ZM132.719 285.555C135.005 290.185 137.356 293.795 139.775 297.369C137.384 293.787 136.438 289.262 132.719 285.555ZM205.371 551.849C205.231 551.925 204.98 553.031 205.549 553.383C206.155 553.763 206.666 553.39 207.052 552.696C208.402 550.253 208.071 547.391 208.951 543.573C208.944 543.574 208.938 543.574 208.931 543.574C208.039 544.416 207.684 544.571 207.579 544.884C206.783 547.181 208.25 550.601 205.371 551.849ZM164.804 348.099C163.119 343.934 161.92 339.398 159.114 335.803C161.054 339.859 162.972 343.996 164.804 348.099ZM167.203 354.248C168.6 358.144 169.716 362.099 172.13 365.441C170.636 361.607 169.877 357.382 167.203 354.248ZM196.741 447.132C197.605 449.407 195.851 451.904 196.643 452.827C199.321 455.97 198.364 459.993 199.112 463.486C199.612 457.966 199.716 452.371 196.741 447.132ZM176.472 377.578C177.749 380.683 176.034 383.345 177.851 386.793C179.953 383.96 177.702 380.658 176.472 377.578ZM199.142 474.997C199.183 475.15 199.241 475.3 199.278 475.427C200.67 479.663 200.809 484.044 200.948 488.448C200.995 490.307 201.947 491.225 202.86 491.225C203.94 491.227 203.471 489.532 203.41 488.548C203.108 482.228 201.405 476.104 200.947 469.737C200.803 467.741 199.778 465.729 199.139 463.773C197.613 463.978 198.762 465.481 198.673 466.454C198.426 468.899 199.871 470.198 200.451 472.03C201.24 474.521 200.783 475.194 199.142 474.997ZM201.847 538.44C200.388 539.029 201.486 539.316 201.97 539.284C202.532 539.25 202.528 540.736 203.354 539.931C203.324 539.367 203.236 538.751 203.281 538.132C203.306 537.59 203.177 536.87 203.739 536.598C203.738 536.607 203.738 536.615 203.738 536.624C205.527 542.624 201.891 548.78 203.393 554.786C204.824 542.443 205.628 529.795 204.206 517.186C204.107 516.274 203.609 515.421 203.957 514.467C205.837 509.18 203.985 503.632 203.95 498.239C203.939 496.535 203.139 495.857 201.794 494.904C202.942 500.95 203.55 506.436 202.413 511.891C202.235 512.743 202.365 513.742 202.412 514.653C202.852 521.777 203.273 528.83 202.777 535.871C202.695 536.932 203.013 537.983 201.847 538.44ZM97.0097 219.191C95.9403 220.876 91.9375 226.293 86.5837 233.482C71.8604 251.146 68.1651 286.444 68.5855 288.504C67.9974 273.575 72.2353 257.879 79.4635 243.321C81.2586 239.7 83.2829 236.077 85.7251 232.624C88.8977 228.345 92.2754 224.131 96.0287 220.072C96.3165 219.753 96.6231 219.532 97.0097 219.191ZM200.425 566.179C199.68 574.739 198.531 583.157 197.024 591.383C196.62 593.537 195.967 595.678 197.142 597.542C197.143 597.535 197.145 597.528 197.146 597.521C198.25 596.862 198.234 595.55 198.455 594.431C200.344 585.312 201.718 575.94 202.738 566.447C202.856 565.215 203.342 563.711 202.118 563.458C200.661 563.166 200.548 564.705 200.425 566.179ZM138.134 301.556C133.392 293.804 128.717 285.916 124.279 277.831C129.556 285.315 134.079 293.31 138.134 301.556ZM172.463 592.717C168.658 591.718 164.824 593.068 160.99 592.465C164.852 594.516 168.658 593.309 172.463 592.717ZM218.757 591.685C220.903 593.185 223.278 593.548 226.197 592.968C226.7 592.869 227.21 592.788 227.725 592.726L190.547 620.017C190.909 617.738 191.779 615.468 192.996 613.343C193.297 612.81 194.215 612.459 193.349 611.807C192.483 611.156 192.037 611.854 191.769 612.785C191.09 615.142 190.375 617.467 189.633 619.73L227.725 591.768C224.735 591.738 221.746 591.71 218.757 591.685ZM192.291 609.65C194.856 606.136 196.527 602.148 197.118 597.714C193.064 600.721 194.487 605.932 192.291 609.65ZM197.218 597.66C197.22 597.652 197.222 597.644 197.224 597.636C197.219 597.64 197.214 597.643 197.209 597.646C197.212 597.651 197.215 597.656 197.218 597.66ZM151.333 328.446C151.512 328.342 151.69 328.237 151.869 328.133C158.193 339.778 162.578 352.326 167.359 364.58C162.497 352.386 157.152 340.33 151.333 328.446ZM194.285 465.742C189.825 445.1 186.177 424.005 179.706 403.478C179.712 403.476 179.717 403.474 179.722 403.472C180.048 403.378 180.383 403.253 180.701 403.133C186.695 423.856 191.243 444.811 194.285 465.742ZM168.987 370.894C169.148 370.85 169.313 370.773 169.478 370.697C173.273 380.592 176.736 390.532 179.894 400.589C179.72 400.627 179.523 400.645 179.342 400.714C176.203 390.682 172.761 380.766 168.987 370.894ZM77.2507 474.407C76.8367 468.027 77.6109 461.674 75.3573 455.265C75.6692 461.646 75.9696 468.026 76.2585 474.407C76.5892 474.407 76.9199 474.407 77.2507 474.407ZM118.959 274.976C118.342 273.831 117.886 274.986 117.498 273.818C115.574 268.046 111.194 263.908 107.962 259.066C106.204 256.443 105.775 255.308 105.941 254.05C109.879 259.583 114.047 265.034 117.115 271.062C117.714 272.258 118.484 272.595 119.073 273.588C119.991 275.145 119.643 275.239 118.959 274.976ZM105.942 253.984C105.944 253.981 105.947 253.979 105.949 253.977C105.948 253.986 105.948 253.996 105.947 254.004C105.944 254.004 105.941 254.003 105.938 254.002C105.939 253.996 105.941 253.99 105.942 253.984ZM105.947 254.004C105.951 254.005 105.954 254.005 105.958 254.006C105.954 254.01 105.949 254.014 105.945 254.018C105.945 254.013 105.946 254.009 105.947 254.004ZM105.912 253.995C105.92 253.997 105.929 254 105.938 254.002C105.935 254.012 105.931 254.022 105.928 254.032C105.923 254.02 105.917 254.007 105.912 253.995ZM105.945 254.018C105.943 254.028 105.943 254.04 105.941 254.05C105.937 254.044 105.933 254.038 105.928 254.032C105.934 254.027 105.939 254.023 105.945 254.018ZM133.479 584.599C132.97 584.378 132.054 584.094 131.756 584.975C131.459 585.858 132.319 585.891 132.968 586.073C136.407 587.095 139.888 587.968 143.426 588.552C140.5 585.889 136.785 586.022 133.479 584.599ZM130.344 295.202C126.656 288.881 122.474 282.904 119.106 276.293C118.911 275.904 119.01 275.451 118.988 275.031C120.852 276.663 122.418 278.831 123.908 281.466C126.203 285.537 128.569 289.572 130.807 293.681C131.254 294.495 131.869 295.492 131.386 295.896C131.134 296.105 130.695 295.816 130.344 295.202ZM69.9642 345.282C71.4607 348.744 72.3695 358.071 71.6592 363.908C70.4506 357.156 70.9585 351.147 69.9642 345.282ZM81.1327 523.943C82.2677 521.701 82.3323 519.999 81.0312 517.757C79.3702 519.867 80.1093 521.773 81.1327 523.943ZM80.2282 485.05C80.2372 484.106 80.138 483.162 79.4898 483.076C78.6974 482.962 78.2032 484.307 78.5249 485.079C80.1782 488.97 78.6234 493.348 80.1536 498.469C80.1532 498.459 80.1527 498.45 80.1523 498.44C80.1928 493.147 80.2039 489.084 80.2282 485.05ZM156.183 348.077C154.002 342.109 151.073 336.617 148.63 330.809C147.332 327.728 145.633 324.766 144.278 321.715C143.213 319.319 142.365 316.876 142.056 314.277C142.943 316.647 143.932 318.975 144.978 321.286C148.983 330.169 153.873 338.705 156.183 348.077ZM195.926 493.216C196.158 493.183 196.391 493.149 196.623 493.115C197.646 503.304 198.294 513.449 198.544 523.541C198.302 523.556 198.061 523.571 197.819 523.586C197.578 513.514 196.939 503.388 195.926 493.216ZM118.902 274.955C118.884 274.939 118.865 274.921 118.847 274.906C118.847 274.906 118.904 274.947 118.942 274.97C118.948 274.972 118.953 274.973 118.959 274.976C118.96 274.977 118.961 274.979 118.962 274.981C118.971 274.986 118.976 274.986 118.973 274.982C118.978 274.989 118.982 274.997 118.987 275.005C118.988 275.014 118.988 275.022 118.988 275.031C118.973 275.017 118.957 275.003 118.941 274.989C118.912 274.971 118.882 274.954 118.853 274.936C118.87 274.942 118.886 274.948 118.902 274.955ZM140.636 314.732C139.325 311.08 136.48 308.11 135.9 304.17C137.989 307.525 140.365 310.773 140.636 314.732ZM162.106 585.795C162.936 585.752 163.88 585.893 163.737 586.749C163.623 587.565 162.764 587.608 161.877 587.528C160.059 587.354 158.258 587.181 156.447 587.009C156.154 586.965 155.861 586.919 155.569 586.871C155.574 586.871 155.58 586.871 155.586 586.871C155.624 586.627 155.645 586.403 155.665 586.158C155.925 586.137 156.186 586.114 156.447 586.089C158.323 585.979 160.215 585.866 162.106 585.795ZM195.979 562.007C195.289 556.584 197.028 551.36 197.115 545.977C198.001 551.387 196.581 556.73 195.979 562.007ZM164.767 369.532C164.286 369.787 163.61 369.31 163.472 368.61C162.656 364.289 160.782 360.451 159.082 356.451C158.886 356.011 159.003 355.381 158.944 354.264C162.202 358.344 163.013 363.335 165.103 367.482C165.556 368.364 165.315 369.245 164.767 369.532ZM171.791 393.121C169.886 386.552 167.884 379.967 165.551 373.475C165.077 372.147 164.928 371.278 165.483 370.961C166.426 370.433 166.564 372.163 166.833 372.975C168.919 379.134 170.783 385.295 172.549 391.525C172.546 391.517 172.543 391.508 172.54 391.5C172.299 392.028 172.042 392.563 171.791 393.121ZM109.009 563.216C111.368 565.129 113.157 567.522 115.632 570.211C113.602 569.765 112.248 569.403 110.839 568.996C110.402 570.589 112.275 570.526 112.306 572.13C109.245 569.68 106.289 567.564 104.077 564.589C101.506 561.117 98.7322 557.736 95.8455 554.462C95.8276 554.46 95.8097 554.457 95.7918 554.454C94.53 552.986 94.8768 552.061 95.4466 550.805C95.4588 550.805 95.4709 550.804 95.4829 550.804C97.6603 551.38 99.7454 551.745 98.7699 554.689C98.4788 555.639 99.567 555.48 99.9732 555.838C102.264 557.861 105.251 558.95 106.118 562.265C106.396 563.294 108.262 562.612 109.009 563.216ZM178.237 411.282C174.727 405.245 173.197 398.657 172.554 391.583C175.091 397.91 176.67 404.606 178.237 411.282ZM172.549 391.525C172.55 391.544 172.553 391.564 172.554 391.583C172.547 391.566 172.541 391.548 172.534 391.531C172.539 391.529 172.544 391.527 172.549 391.525ZM189.242 465.824C188.23 464.825 186.845 464.714 187.077 462.62C187.814 455.825 184.806 449.908 183.637 443.564C183.564 443.126 183.506 442.682 183.415 442.166C184.596 442.326 183.85 444.154 185.032 444.748C184.638 441.383 184.257 438.147 183.074 435.112C182.915 434.724 182.329 434.381 182.343 434.213C182.53 432.358 180.874 429.436 182.14 428.791C183.387 428.125 183.748 431.384 183.99 432.652C183.992 432.661 183.994 432.669 183.996 432.678C186.181 443.602 188.442 454.435 189.242 465.824ZM68.7056 293.184C68.9282 296.678 69.8066 300.028 70.5017 303.345C70.8712 305.731 71.1335 308.148 71.1496 310.634C71.1527 311.521 71.5545 312.98 70.9256 313.151C70.3478 313.323 70.0973 312.064 70.008 311.034C70.0037 311.034 69.9994 311.034 69.9951 311.034C69.7726 308.471 69.548 305.908 69.3213 303.345C68.9271 299.995 68.7196 296.602 68.7056 293.184ZM74.6215 346.427C74.0617 351.176 76.5651 355.554 76.1875 360.246C76.1931 360.256 76.1988 360.265 76.2044 360.275C76.0392 362.192 76.2032 364.395 75.2032 366.14C73.82 359.33 74.1999 353.179 73.4778 347.084C73.3881 346.312 73.6071 345.369 74.1331 345.454C74.2897 345.483 74.6469 346.227 74.6215 346.427ZM76.1855 375.553C76.504 378.958 79.9533 382.191 76.7707 385.539C75.3984 382.22 76.3661 378.9 76.1855 375.553ZM76.867 388.8C78.483 393.807 77.6998 397.842 78.1707 401.733C77.1608 397.927 76.6087 394.064 76.867 388.8ZM95.473 550.745C95.4688 550.754 95.4652 550.764 95.4611 550.773C95.4864 550.758 95.5118 550.744 95.5372 550.729C95.5158 550.735 95.494 550.739 95.473 550.745ZM72.9901 328.259C73.1091 332.007 74.309 335.955 73.503 340.705C71.8781 335.898 72.839 331.92 72.129 328.086C72.104 327.942 72.3306 327.457 72.4158 327.514C72.6133 327.628 72.9565 328.03 72.974 328.23C72.9794 328.24 72.9847 328.249 72.9901 328.259ZM133.447 576.804C135.45 577.13 135.706 579.45 137.743 578.903C137.75 578.898 137.757 578.892 137.764 578.887C137.623 579.311 137.464 579.73 137.322 580.154C136.854 580.109 136.38 580.142 135.927 580.029C129.463 578.452 123.16 575.901 117.212 572.479C116.501 572.068 115.924 571.577 116.394 570.736C117.107 569.455 117.814 570.106 118.506 570.526C121.637 572.424 125.064 573.692 128.137 575.489C129.802 576.468 131.78 576.523 133.447 576.804ZM189.4 475.856C188.533 472.571 187.509 469.921 187.412 466.959C189.737 467.601 190.988 471.917 189.4 475.856ZM191.192 502.121C189.89 500.16 190.58 498.031 190.822 496.141C190.823 496.15 190.824 496.158 190.825 496.167C191.317 492.415 191.284 488.727 190.084 485.147C192.899 490.211 192.459 496.234 193.085 501.888C193.175 502.831 193.057 503.82 192.145 503.927C191.121 504.023 191.509 502.596 191.192 502.121ZM192.631 539.701C191.738 538.146 189.632 538.27 190.842 536.501C192.524 534.03 191.877 531.642 191.355 529.47C190.599 526.383 192.626 523.908 192.012 520.802C191.247 516.842 192.859 512.464 191.414 508.386C191.101 507.524 191.22 506.407 192.157 506.379C193.095 506.352 193.093 507.489 193.147 508.408C193.371 513.15 193.836 517.944 193.408 522.599C193.402 522.608 193.396 522.617 193.39 522.626C192.899 528.102 193.589 533.51 192.631 539.701ZM161.162 578.436C162.135 577.822 162.507 578.432 162.678 578.636C164.309 580.446 166.712 580.585 168.944 579.727C171.033 578.929 171.005 580.317 171.205 580.724C171.748 581.805 169.975 581.745 169.402 581.745C165.106 581.867 160.762 582.158 156.447 582.257C154.597 582.329 152.782 582.225 151.025 581.809C148.384 581.175 145.782 582.091 143.301 581.249C143.297 581.241 143.293 581.233 143.289 581.226C141.368 580.575 138.678 581.199 138.148 578.32C138.95 576.86 139.482 581.005 139.995 577.411C140.098 576.727 141.01 576.904 141.558 577.002C145.036 577.579 148.332 578.281 151.801 579.696C153.216 580.267 154.863 580.616 156.447 580.163C158.109 579.892 159.716 579.357 161.162 578.436ZM190.581 562.869C188.607 559.342 190.376 555.929 191.09 553.322C192.09 549.611 190.532 546.752 190.949 543.391C191.036 542.617 190.376 541.432 191.331 541.228C192.248 541.021 192.662 542.179 192.621 543.361C192.627 543.369 192.633 543.377 192.64 543.386C192.394 549.757 193.03 556.203 190.581 562.869ZM197.327 579.631C197.757 579.857 198.386 577.887 199.101 579.54C199.33 580.092 199.015 580.68 197.842 580.836C190.031 581.891 182.162 581.95 174.266 581.376C174.008 581.355 173.808 580.866 173.179 580.091C179.845 579.99 185.797 578.822 192.12 579.238C193.836 579.348 195.611 578.746 197.327 579.631ZM209.802 578.359C212.777 577.798 213.035 580.097 215.095 580.442C210.803 582.39 207.112 582.446 204.108 578.455C206.454 579.551 208.143 578.67 209.802 578.359ZM180.928 599.704C180.968 598.643 180.251 596.464 183.101 597.3C183.794 597.516 183.917 596.892 183.674 596.329C183.538 596.021 183.238 595.797 183.012 595.519C185.687 592.672 184.928 588.704 185.944 585.288C186.111 584.693 186.293 583.761 187.149 584.076C187.662 584.27 187.724 584.739 187.604 585.418C185.9 595.508 183.663 605.27 180.811 614.501C180.798 614.497 180.785 614.493 180.772 614.489C180.677 614.787 180.33 615.01 179.887 615.522C179.125 613.552 179.01 611.333 179.998 610.128C182.17 607.494 181.248 604.026 182.786 601.283C183.124 600.683 183.994 599.477 182.521 599.065C181.56 598.793 181.137 599.265 180.928 599.704ZM180.754 600.197C180.789 600.079 180.839 599.894 180.928 599.704C180.92 599.937 180.878 600.116 180.754 600.197Z" fill="var(--stroke-0, #C6EDD1)"/>
<path id="t" d="M190.456 135.412C192.505 139.615 193.83 144.195 194.834 149.016C193.03 144.686 191.68 140.088 190.456 135.412ZM190.456 135.412C190.422 135.342 190.387 135.27 190.353 135.2C190.353 135.2 190.403 135.256 190.413 135.29C190.416 135.289 190.419 135.288 190.423 135.286C190.434 135.328 190.445 135.37 190.456 135.412ZM190.393 135.222C190.393 135.183 190.391 135.14 190.39 135.101C190.408 135.16 190.425 135.219 190.443 135.278C190.426 135.26 190.409 135.241 190.393 135.222ZM420.068 310.724C420.654 315.055 427.192 316.995 431.497 319.443C438.745 323.557 446.007 327.369 453.355 331.245C460.851 335.198 468.895 338.691 476.877 341.56C478.292 342.056 479.404 342.308 477.741 342.969C477.726 342.971 477.71 342.973 477.695 342.974C477.697 342.978 477.699 342.982 477.701 342.986C477.685 342.992 477.669 343 477.652 343.007C477.657 342.997 477.662 342.987 477.666 342.977C477.644 342.979 477.621 342.981 477.599 342.983C477.604 342.973 477.608 342.963 477.613 342.953C474.652 345.445 471.666 341.484 468.978 340.57C463.008 338.548 457.383 334.272 451.576 332.585C445.307 330.733 440.285 325.731 432.451 324.828C452.042 336.777 471.349 346.692 491.55 353.502C492.045 352.47 489.854 352.605 489.9 351.288C510.261 360.84 530.998 370.568 553.038 371.347C545.934 368.54 537.79 369.189 530.645 365.549C534.262 365.968 537.958 365.903 541.415 366.688C551.912 369.092 562.5 370.199 572.671 372.045C576.197 372.685 579.389 370.876 582.82 371.654C583.889 371.89 585.584 371.546 586.068 372.008C589.017 374.786 592.714 374.846 596.275 374.526L553.892 417.76C553.751 415.165 553.528 412.54 553.673 409.986C553.814 407.556 553.886 405.134 553.913 402.716C554.018 393.096 553.401 383.547 553.508 373.936C553.653 359.075 553.342 344.181 553.911 329.353C554.246 320.754 555.19 311.736 555.039 303.51C555.037 303.448 555.035 303.387 555.033 303.325C554.798 297.244 554.391 291.185 553.175 285.256C551.497 277.088 546.89 270.2 545.424 261.497C541.154 258.131 538.704 253.514 535.282 249.387C534.147 248.101 532.997 246.833 531.814 245.605C516.048 229.216 501.375 211.874 486.064 195.031C467.294 174.377 448.622 153.577 430.282 132.54C418.118 118.607 405.709 104.873 393.514 90.9714C393.029 90.4315 392.678 89.7565 392.187 89.0359C393.685 89.1692 394.58 91.6289 395.94 91.9935C394.751 90.0603 393.015 87.5573 391.661 87.1869C389.427 86.5783 387.99 84.4719 386.511 82.7823C385.064 81.1129 383.616 79.4446 382.168 77.7762C378.244 73.0684 373.845 68.7411 369.039 64.8187C359.335 56.8938 347.509 51.4073 334.993 48.1219C324.189 45.2817 312.698 44.1091 301.221 45.2037C288.918 46.3698 276.675 50.0487 265.45 56.0251C280.025 48.6805 296.046 45.1948 311.658 45.572C311.643 45.7457 311.63 45.9303 311.589 46.1036C293.657 46.1664 274.415 50.3316 259.054 61.2204C259.141 61.336 259.228 61.4517 259.314 61.5673C266.372 57.3965 273.88 54.139 281.55 51.9513C283.894 51.2775 286.261 50.3664 288.645 50.3138C287.85 51.4128 285.379 51.4219 283.889 52.1341C284.453 52.3103 285.848 51.405 286.347 51.8299C286.183 51.9308 286.035 52.0771 285.826 52.1308C279.081 54.0904 272.434 56.6298 265.825 59.5315C264.289 60.2129 263.27 60.9278 262.279 61.784C259.373 64.262 254.257 67.5309 251.159 68.862C249.579 69.5293 249.649 68.6757 250.304 67.6567C251.297 66.0906 250.92 65.681 248.964 66.5197C247.803 67.025 247.575 66.8811 248.119 65.9597C249.634 63.472 249.415 63.3926 244.825 67.0796C249.085 62.6837 247.148 63.3721 245.364 63.2107C242.869 62.9348 237.831 64.9607 241.593 58.7931C242.086 58.014 241.929 56.6366 240.433 56.6977C238.811 56.7607 236.704 56.7403 237.969 53.799C238.163 53.3629 238.86 52.4309 239.44 51.897C245.267 46.7266 243.576 46.4471 242.295 46.2569C239.044 45.838 239.11 42.7658 239.783 38.9965C240.137 36.9904 239.362 35.7827 239.714 33.7254C240.083 31.4224 245.402 26.9764 249.438 23.9933C257.344 18.0336 266.369 13.3876 275.794 10.0488C280.002 8.54445 284.6 6.91652 288.926 5.43502C296.47 2.83733 303.702 2.50955 311.45 1.41178C314.373 1.00124 316.712 0.619056 318.955 -4.76837e-07C322.298 1.40927 327.668 0.0715079 332.016 0.420608C336.383 0.753917 341.059 1.32791 345.416 0.952663C348.529 0.688039 349.515 2.14211 352.262 2.63562C367.087 5.31915 381.462 10.9634 394.955 17.918C402.09 21.5858 408.6 26.0573 414.331 30.986C416.967 33.2477 419.496 35.532 422.012 37.9321C435.082 50.2783 449.076 61.8097 462.123 74.1824C468.678 80.395 475.151 87.5762 483.192 92.6769C486.361 94.6808 489.086 97.8747 491.803 100.704C496.284 105.355 500.719 109.915 506.095 113.905C511.258 117.735 514.95 123.178 520.097 127.304C526.855 132.709 532.874 138.854 539.043 144.894C541.943 147.726 544.841 150.7 548.722 151.572C551.282 152.133 548.999 153.765 550.99 155.269C554.816 158.154 558.491 161.375 562.129 164.541C569.611 171.038 576.239 178.158 582.573 185.617C585.004 188.485 587.925 191.241 590.914 193.755C591.96 194.675 592.995 195.588 594.013 196.492C597.349 199.454 599.307 203.904 603.196 205.935C603.55 208.339 604.563 211.984 606.986 213.374C610.901 215.623 612.562 219.37 614.978 222.973C619.74 230.069 624.495 237.313 626.484 245.735C626.933 247.655 628.437 247.268 629.217 249.561C630.689 253.837 632.305 258.578 633.615 262.408C637.043 272.327 636.345 283.097 639.91 292.951C641.008 295.961 640.417 299.837 640.331 303.51C640.321 303.833 640.321 304.155 640.334 304.474C640.622 311.756 641.611 319.236 640.139 326.354C638.51 334.13 639.796 342.006 640.263 349.585C640.521 353.868 639.702 359.174 641.902 363.062C639.678 365.237 641.761 370.377 639.266 372.749C637.705 374.232 638.797 377.594 639.434 379.208C641.756 385.008 641.646 389.094 641.388 395.421C641.291 397.808 641.003 400.247 640.839 402.716C640.568 406.791 640.633 410.948 642.44 415.092C642.749 415.799 642.834 416.714 642.793 417.76L642.666 462.65L598.04 463.41C594.672 463.371 590.127 462.341 586.392 462.16C583.088 462.015 578.91 461.873 576.161 460.159C575.27 459.592 574.243 459.438 573.272 460.038C568.58 462.83 563.646 460.371 559.268 458.943C555.32 457.651 552.325 455.514 548.466 457.958C547.214 458.726 544.065 457.992 542.164 457.232C537.032 455.19 537.099 455.118 531.921 455.251C531.113 455.264 530.123 455.028 529.293 454.76C520.311 451.979 510.949 450.967 502.291 446.505C496.165 443.364 487.694 440.14 481.462 439.443C474.095 438.633 468.67 434.883 462.381 432.704C454.963 430.144 447.543 426.782 440.741 422.873C425.822 414.331 410.186 407.256 396.644 396.947C395.333 395.941 393.708 394.493 392.124 395.002C391.168 395.318 389.471 394.092 389.065 393.522C384.154 386.535 375.866 383.529 369.42 378.627C351.686 365.158 334.497 351.179 318.733 335.648C309.664 326.726 300.524 317.888 292.327 308.235C285.363 300.036 278.428 291.965 271.819 283.562C269.949 281.186 268.125 278.806 266.324 276.381C260.598 268.666 255.127 260.531 249.198 253.001C247.013 250.249 243.346 246.985 243.81 243.143C243.803 243.104 237.576 235.394 237.48 235.198C236.913 234.392 236.302 233.616 235.865 232.767C229.07 220.044 221.603 208.116 215.347 195.381C206.467 177.331 199.129 158.48 192.757 139.483C190.796 133.624 189.64 127.412 187.466 121.041C187.934 125.943 190.33 130.888 190.39 135.101C187.653 125.818 185.092 116.302 183.658 107.027C183.183 103.979 182.543 100.784 181.976 97.6147L178.754 80.7819L188.097 73.215C192.385 69.8648 196.704 66.6204 200.847 64.7664C201.808 64.3293 202.649 63.3059 203.382 62.5934C205.778 60.2833 207.439 59.6615 207.344 60.4985C207.172 62.3293 209.08 60.7898 211.874 58.3649C212.846 57.5193 214.169 56.2781 214.837 56.2941C215.385 56.2828 214.49 57.2057 213.651 58.0437C212.13 59.5515 209.68 61.7618 211.213 61.5246C212.302 61.3552 214.354 60.4712 216.721 57.8512C216.835 57.732 217.242 57.5336 217.619 57.3057C217.454 58.306 215.593 59.8006 214.053 61.2435C216.965 60.0541 219.18 59.3343 218.037 62.0588C217.783 62.6425 218.35 62.5113 216.989 63.7589C214.166 66.3413 214.419 66.5484 216.274 66.0269C218.632 65.356 222.114 63.6648 220.074 67.4034C219.924 67.6722 220.06 67.8557 220.329 67.7515C222.943 66.7778 223.727 67.2353 222.63 70.0528C221.903 71.8885 225.942 69.1233 228.533 67.1473C234.321 62.7345 238.763 61.1135 240.128 62.4777C240.128 62.4777 240.128 62.4778 240.128 62.4779C240.586 62.936 240.706 63.7321 240.432 64.88C239.767 67.5705 237.872 71.9674 242.658 69.1111C233.89 79.9801 225.23 90.8506 216.59 101.708L220.544 85.9451C230.197 108.059 241.688 129.076 254.296 149.38C273.769 180.637 295.511 210.383 321.041 236.224C317.975 231.846 313.7 228.36 310.781 223.942C310.544 223.579 310.556 223.178 310.209 221.931C315.095 227.521 320.096 232.997 325.208 238.354C325.776 238.95 326.345 239.544 326.915 240.136C327.45 240.691 328.083 241.322 327.197 241.272C324.642 241.152 327.534 242.652 327.763 242.656C330.117 242.735 331.762 244.785 333.191 246.784C335.091 249.418 337.689 251.092 339.972 253.179C350.434 262.731 361.197 271.896 372.291 280.544C376.599 283.903 380.709 287.694 385.676 290.454C388.578 292.061 387.746 289.001 390.053 290.517C392.69 292.241 389.422 293.153 392.109 294.97C394.887 296.843 397.329 299.235 400.567 301.014C400.299 300.077 400.09 299.358 399.679 297.925C405.545 304.779 412.615 307.673 420.068 310.724ZM528.914 451.323C521.993 448.442 514.687 447.733 507.731 445.495C514.372 448.709 521.749 449.734 528.914 451.323ZM480.249 435.911C486.553 440.115 494.115 441.765 501.452 443.771C494.403 441.056 486.944 439.348 480.249 435.911ZM550.196 455.151C562.777 457.108 575.636 458.326 588.766 458.566C588.731 458.3 588.697 458.035 588.662 457.769C575.611 457.526 562.825 456.314 550.313 454.369C550.274 454.63 550.235 454.891 550.196 455.151ZM636.986 403.428C636.986 408.205 637.261 412.982 637.417 417.76L637.305 457.365L597.933 458.035C597.119 458.074 596.303 458.106 595.486 458.131C596.303 458.163 597.12 458.195 597.937 458.222L637.492 457.549L637.604 417.76C637.909 412.945 638.198 408.124 636.986 403.428ZM218.595 128.501C214.62 114.166 209.376 102.412 204.876 90.6857L204.803 90.3045L205.015 90.1332C205.511 89.5574 206.007 88.983 206.502 88.4099C205.915 88.8929 205.332 89.3801 204.753 89.8715L204.4 90.1572L204.522 90.7929C207.257 103.528 212.293 115.666 218.595 128.501ZM355.602 49.8119C359.517 52.3752 362.168 54.4298 366.096 54.7825C362.724 52.5915 359.792 50.7172 355.602 49.8119ZM403.467 91.1786C408.133 98.8608 413.667 104.092 419.69 108.647C414.81 102.623 409.573 97.1417 403.467 91.1786ZM368.809 62.9128C369.49 63.466 370.168 64.0569 370.629 63.9367C371.011 63.8405 371.053 63.3093 371.136 62.8978C371.166 62.6146 370.786 62.1242 370.335 62.074C366.937 61.7522 365.193 58.2825 362.253 56.9901C363.973 57.2554 365.387 59.13 367.717 59.674C362.019 55.2443 355.946 54.5185 350.409 50.9567C350.402 50.9492 350.395 50.9416 350.388 50.9341C351.829 53.0074 354.001 53.2116 355.774 54.1921C360.389 56.7598 364.776 59.6434 368.809 62.9128ZM329.244 44.6062C334.225 46.0158 338.381 46.9614 342.54 48.0236C338.43 46.9447 334.538 44.3402 329.244 44.6062ZM553.201 265.627C553.113 265.754 553.369 266.733 554.019 266.742C554.717 266.755 555.009 266.22 555.045 265.484C555.164 262.909 553.54 260.744 552.396 257.342C552.391 257.346 552.385 257.349 552.38 257.353C552.047 258.485 551.819 258.791 551.883 259.089C552.316 261.247 555.184 263.26 553.201 265.627ZM387.611 80.5496C386.349 79.074 385.149 77.5356 383.928 76.0158C382.209 73.7523 380.312 71.6254 377.863 70.1651C379.901 72.1025 381.842 74.1201 383.708 76.2359C385.009 77.6743 386.31 79.1122 387.611 80.5496ZM392.761 86.6449C395.923 90.52 398.903 94.5304 402.91 97.4666C399.593 93.7474 396.879 89.3782 392.761 86.6449ZM473.296 174.572C475.582 176.48 475.701 179.856 477.045 180.423C481.598 182.359 483.476 186.839 486.622 190.004C483.154 184.179 479.464 178.523 473.296 174.572ZM413.195 109.27C416.033 112.21 415.713 115.606 419.316 118.714C419.895 115.013 415.981 112.216 413.195 109.27ZM494.938 201.535C495.086 201.667 495.247 201.786 495.372 201.894C499.651 205.35 503.09 209.647 506.554 213.873C508.016 215.672 509.521 216.031 510.275 215.509C511.17 214.894 509.48 213.509 508.682 212.582C503.63 206.59 497.659 201.469 492.665 195.326C491.103 193.405 488.809 191.946 486.849 190.281C485.652 191.254 487.739 192.203 488.345 193.215C489.868 195.793 492.062 196.349 493.892 197.875C496.384 199.949 496.495 200.863 494.938 201.535ZM543.956 257.519C543.056 258.776 544.091 258.344 544.473 258.045C544.918 257.697 545.646 258.77 545.93 257.721C545.625 257.33 545.246 256.937 544.971 256.469C544.719 256.066 544.249 255.633 544.563 255.108C544.567 255.115 544.572 255.121 544.576 255.127C549.168 258.431 548.948 264.966 552.705 268.848C549.602 260.523 545.035 252.497 538.657 246.012C536.531 243.86 534.373 241.737 532.174 239.653C531.339 238.857 530.245 238.366 529.732 237.247C526.809 231.037 520.914 226.912 516.627 221.693C515.283 220.055 514.112 219.875 512.26 219.723C517.907 224.934 522.791 229.836 526.384 235.749C526.949 236.676 527.886 237.556 528.679 238.394C531.557 241.383 534.464 244.343 537.336 247.334C539.614 249.75 541.691 252.35 543.417 255.166C543.893 255.956 544.68 256.52 543.956 257.519ZM244.53 71.8212C242.472 74.8601 231.558 88.8626 219.394 104.513L224.341 84.7963C235.005 108.996 250.781 134.463 251.769 137.006C241.137 120.701 232.07 102.876 223.579 85.0268L218.832 103.95C219.704 102.786 220.572 101.621 221.435 100.454C228.238 91.2267 235.066 81.7436 243.408 72.8439C243.742 72.4787 244.089 72.2182 244.53 71.8212ZM554.317 279.093C556.553 286.205 557.709 293.619 557.827 301.029C557.837 301.863 557.792 302.703 557.855 303.51C557.938 305.105 558.227 306.602 559.084 307.83C559.083 307.821 559.084 307.811 559.083 307.801C560.022 306.671 559.791 305.003 559.8 303.51C559.801 303.489 559.801 303.469 559.801 303.448C560.038 295.039 558.906 286.581 556.553 278.442C556.235 277.385 556.134 275.97 554.919 276.254C553.478 276.602 553.927 277.86 554.317 279.093ZM343.986 52.2481C335.683 49.4935 326.989 47.5108 317.986 46.2259C327.017 46.475 335.897 48.6698 343.986 52.2481ZM558.156 403.428C557.158 407.811 558.508 412.227 557.904 416.642C559.955 412.194 558.748 407.811 558.156 403.428ZM557.125 350.112C558.625 347.641 558.988 344.905 558.408 341.544C557.77 337.821 557.909 333.801 558.633 329.978C558.783 329.155 559.578 328.364 558.574 327.804C557.57 327.244 557.317 328.331 557.303 329.681C557.234 336.492 557.174 343.302 557.125 350.112ZM557.005 325.3C558.617 319.779 559.364 314.033 559.093 308.064C555.685 313.089 558.203 319.68 557.005 325.3ZM559.181 307.967C559.181 307.956 559.182 307.945 559.182 307.934C559.178 307.94 559.173 307.945 559.169 307.951C559.173 307.956 559.177 307.962 559.181 307.967ZM368.226 66.8282C368.34 66.6561 368.455 66.484 368.57 66.3119C373.393 69.7857 377.636 74.0005 381.333 78.6103C386.758 85.0277 392.108 91.521 397.692 97.8196C392.09 91.5656 386.498 85.3013 380.917 79.0265C377.102 74.577 372.86 70.4873 368.226 66.8282ZM483.994 194.724C465.205 175.953 448.248 155.489 430.297 135.925C430.301 135.922 430.305 135.918 430.309 135.914C430.572 135.698 430.824 135.445 431.065 135.205C448.65 155.133 466.274 174.976 483.994 194.724ZM402.387 104.233C402.527 104.14 402.656 104.012 402.784 103.883C411.443 113.538 420.128 123.168 428.837 132.773C428.69 132.874 428.508 132.962 428.371 133.099C419.685 123.502 411.023 113.88 402.387 104.233ZM383.356 292.667C377.874 288.626 373.308 283.609 366.718 280.637C371.984 285.029 377.315 289.29 382.72 293.429C382.932 293.175 383.144 292.921 383.356 292.667ZM312.71 48.897C311.458 48.7658 312.144 49.7887 311.001 49.4644C305.303 47.8843 299.614 49.6673 294.03 50.5087C290.977 50.9822 289.801 50.9519 288.706 50.3076C295.254 48.8177 301.978 47.6553 308.555 48.2884C309.85 48.4239 310.527 47.965 311.653 48.0253C313.411 48.1349 313.29 48.483 312.71 48.897ZM288.646 50.2813C288.645 50.2782 288.644 50.2751 288.643 50.2719C288.65 50.2764 288.659 50.2803 288.667 50.2847C288.665 50.2873 288.663 50.2899 288.661 50.2924C288.656 50.2887 288.651 50.285 288.646 50.2813ZM288.667 50.2847C288.669 50.2816 288.671 50.2784 288.673 50.2752C288.675 50.2809 288.676 50.2865 288.678 50.2921C288.674 50.2897 288.671 50.2871 288.667 50.2847ZM288.645 50.3138C288.65 50.3067 288.656 50.2996 288.661 50.2924C288.669 50.2991 288.677 50.3057 288.685 50.3124C288.672 50.3129 288.658 50.3133 288.645 50.3138ZM288.678 50.2921C288.687 50.2975 288.697 50.3023 288.706 50.3076C288.699 50.3092 288.692 50.3108 288.685 50.3124C288.683 50.3057 288.68 50.2989 288.678 50.2921ZM557.549 371.261C556.705 371.067 555.205 370.837 555.066 371.757C554.929 372.679 556.23 372.652 557.26 372.794C562.748 373.607 568.221 374.34 573.627 374.828C568.755 372.228 563.009 372.5 557.549 371.261ZM334.416 52.9463C327.753 51.1462 320.876 50.5341 313.836 49.5233C313.423 49.4609 313.118 49.1231 312.77 48.9037C315.081 48.2855 317.693 48.2806 320.584 48.728C325.041 49.4238 329.446 50.2967 333.717 51.5531C334.566 51.7992 335.645 52.0688 335.578 52.696C335.542 53.0212 335.056 53.1256 334.416 52.9463ZM286.19 193.948C289.476 196.298 295.83 204.115 298.933 209.637C293.71 204.395 290.487 198.728 286.19 193.948ZM431.368 323.542C429.226 320.563 426.975 318.879 423.22 317.859C425.033 321.137 427.847 322.236 431.368 323.542ZM393.995 297.491C393.222 296.866 392.382 296.321 391.906 296.77C391.315 297.312 392.12 298.589 392.961 298.845C397.218 300.112 399.935 304.184 405.202 306.191C405.193 306.185 405.185 306.179 405.176 306.174C400.714 302.804 397.327 300.163 393.995 297.491ZM378.736 82.4483C378.553 82.2179 378.369 81.9883 378.184 81.7595C374.901 77.3602 370.81 73.7879 366.772 70.1005C362.718 66.4229 357.652 64.0899 354.145 59.7644C363.049 66.3213 372.744 72.3016 378.241 81.7032C378.407 81.9507 378.572 82.1991 378.736 82.4483ZM506.083 221.427C506.249 221.261 506.415 221.095 506.581 220.929C515.435 230.42 524.316 239.884 533.224 249.321C533.053 249.492 532.882 249.663 532.711 249.834C523.807 240.392 514.931 230.923 506.083 221.427ZM312.662 48.9326C312.64 48.9388 312.616 48.9439 312.594 48.9502C312.594 48.9502 312.657 48.9259 312.696 48.9079C312.701 48.9043 312.705 48.9005 312.71 48.897C312.712 48.8972 312.714 48.8974 312.716 48.8976C312.725 48.8928 312.728 48.8893 312.722 48.889C312.731 48.8893 312.74 48.8896 312.749 48.8899C312.756 48.8944 312.763 48.8991 312.77 48.9037C312.75 48.9089 312.731 48.9141 312.711 48.9193C312.681 48.9335 312.651 48.9478 312.621 48.962C312.635 48.9522 312.649 48.9423 312.662 48.9326ZM353.252 60.9512C350.382 58.7869 346.632 58.2493 343.914 55.6732C347.402 56.8281 351.058 57.941 353.252 60.9512ZM551.234 415.356C551.192 414.401 551.333 413.313 552.189 413.478C553.005 413.609 553.048 414.598 552.968 415.62C552.909 416.335 552.849 417.048 552.79 417.76L596.253 373.425C594.751 373.296 593.24 373.148 591.702 372.981C591.71 372.981 591.719 372.981 591.727 372.981C591.782 372.737 591.81 372.513 591.837 372.268C593.31 372.185 594.775 372.074 596.224 371.963L551.328 417.76C551.292 416.959 551.261 416.158 551.234 415.356ZM548.778 277.58C546.266 273.832 545.79 269.291 543.505 265.428C546.63 268.791 547.499 273.413 548.778 277.58ZM397.457 103.898C397.096 104.306 396.177 103.966 395.695 103.236C392.777 98.7449 389.031 94.9883 385.466 91.0043C385.064 90.5675 384.897 89.8487 384.335 88.6402C389.494 92.3353 392.691 97.6198 396.8 101.573C397.684 102.413 397.871 103.438 397.457 103.898ZM416.751 127.478C411.264 120.988 405.802 114.425 400.209 107.996C399.063 106.673 398.481 105.763 398.885 105.266C399.577 104.434 400.572 106.282 401.251 107.094C406.411 113.211 411.5 119.353 416.624 125.507C416.617 125.498 416.609 125.49 416.602 125.482C416.652 126.131 416.691 126.792 416.751 127.478ZM507.555 352.043C512.548 353.551 517.169 355.781 522.77 358.215C519.428 358.079 517.276 357.982 514.966 357.842C515.588 359.628 518.167 359.171 519.365 360.861C513.301 358.88 507.628 357.361 502.113 354.807C495.725 351.838 488.894 349.1 482.119 346.752C482.095 346.756 482.072 346.761 482.048 346.765C479.053 345.706 478.458 344.585 477.701 342.986C477.715 342.981 477.728 342.974 477.741 342.969C480.846 342.67 483.862 342.316 485.812 345.87C486.46 347.005 487.615 346.438 488.494 346.686C493.378 348.059 498.483 348.387 502.73 351.747C504.024 352.775 505.963 351.563 507.555 352.043ZM433.413 144.787C426.471 139.645 421.159 133.013 416.661 125.567C422.621 131.597 427.963 138.246 433.413 144.787ZM416.624 125.507C416.636 125.527 416.649 125.547 416.661 125.567C416.645 125.551 416.629 125.534 416.613 125.518C416.617 125.514 416.62 125.51 416.624 125.507ZM479.612 197.336C477.992 196.812 476.678 197.38 475.371 195.1C471.164 187.749 464.344 183.011 458.962 176.836C458.598 176.408 458.247 175.967 457.817 175.465C459.01 175.111 459.554 177.363 461.044 177.458C458.394 174.096 455.942 170.908 452.838 168.187C452.436 167.844 451.666 167.729 451.569 167.546C450.532 165.508 447.112 163.103 447.895 161.901C448.642 160.687 451.045 163.97 452.094 165.204C452.102 165.212 452.109 165.221 452.117 165.229C461.196 175.815 470.662 186.061 479.612 197.336ZM255.254 142.609C259.35 148.985 264.372 154.396 268.083 161.151C268.542 161.995 269.646 163.179 269.184 163.644C268.766 164.083 267.896 163.016 267.285 162.075C267.281 162.077 267.278 162.079 267.274 162.081C263.124 155.695 259.114 149.203 255.254 142.609ZM290.765 192.437C293.096 197.021 297.794 199.491 300.36 203.813C300.37 203.818 300.381 203.823 300.392 203.828C301.431 205.601 302.928 207.421 303.214 209.525C297.819 204.407 294.39 198.728 290.195 193.654C289.664 193.009 289.295 192.041 289.786 191.831C289.934 191.771 290.669 192.244 290.765 192.437ZM309.986 217.047C312.443 219.773 317.266 220.371 316.976 225.134C313.701 223.207 312.284 219.793 309.986 217.047ZM319.226 227.8C323.134 230.474 325.272 233.599 327.7 236.244C328.132 236.714 328.574 237.167 329.036 237.598C328.509 237.221 327.99 236.834 327.476 236.433C324.672 234.246 322.033 231.638 319.226 227.8ZM477.664 342.91C477.669 342.922 477.676 342.933 477.681 342.945C477.694 342.918 477.706 342.892 477.719 342.865C477.701 342.881 477.681 342.895 477.664 342.91ZM279.051 176.754C281.216 180.156 284.446 183.147 286.497 187.88C282.353 184.385 280.932 180.21 278.217 177.035C278.116 176.915 278.044 176.349 278.149 176.359C278.382 176.365 278.897 176.56 279.022 176.736C279.032 176.742 279.042 176.748 279.051 176.754ZM554.585 363.277C558.058 363.523 559.252 365.878 562.402 365.246C562.412 365.24 562.422 365.235 562.432 365.229C562.337 365.667 562.215 366.1 562.119 366.537C561.346 366.509 560.583 366.561 559.83 366.468C548.917 365.144 537.828 363.047 526.705 360.364C525.379 360.042 524.191 359.621 524.28 358.648C524.407 357.165 525.95 357.749 527.287 358.093C533.347 359.651 539.538 360.629 545.362 362.255C548.551 363.148 551.724 363.069 554.585 363.277ZM487.173 207.53C483.935 204.617 481.088 202.431 478.83 199.423C481.363 198.94 485.559 202.666 487.173 207.53ZM509.36 233.014C506.681 231.825 505.522 229.303 504.199 227.271C504.206 227.279 504.214 227.287 504.221 227.295C501.577 223.229 498.687 219.594 494.869 216.609C501.175 220.181 505.584 226.445 510.708 231.666C511.552 232.546 512.273 233.597 511.624 234.246C510.873 234.95 510.006 233.3 509.36 233.014ZM537.008 263.67C535.582 263.176 533.941 264.5 534.132 262.689C534.38 260.156 532.712 259.044 531.27 258.085C530.232 257.4 529.8 256.375 529.343 255.326C528.374 253.77 527.418 252.199 525.831 250.889C521.784 247.526 519.3 242.227 514.744 239.095C513.772 238.436 512.941 237.263 513.672 236.672C514.403 236.08 515.339 237.196 516.147 238.064C520.286 242.593 524.73 246.957 528.477 251.737C528.48 251.75 528.483 251.763 528.486 251.775C529.132 252.596 529.799 253.398 530.481 254.189C532.734 257.082 535.338 259.79 537.008 263.67ZM543.876 416.443C543.262 415.323 543.872 414.895 544.076 414.697C545.886 412.819 546.025 410.051 545.166 407.481C544.369 405.076 545.756 405.108 546.164 404.877C547.245 404.252 547.184 406.294 547.185 406.954C547.273 410.538 547.45 414.151 547.579 417.76L596.149 368.215C592.338 368.47 588.382 368.496 584.523 367.938C580.261 367.319 576.197 368.269 572.069 367.473C572.061 367.466 572.053 367.458 572.045 367.45C568.762 366.825 564.679 367.555 562.88 364.637C563.763 363.126 565.88 367.329 565.664 363.659C565.629 362.959 567.217 363.12 568.16 363.208C574.2 363.732 579.885 364.416 585.603 365.817C588.919 366.637 592.969 366.979 596.088 365.147L544.511 417.76C544.323 417.31 544.112 416.871 543.876 416.443ZM544.117 280.348C541.163 278.65 541.586 275.619 541.235 273.492C540.733 270.505 538.22 269.346 537.197 266.988C536.948 266.442 535.901 266.058 536.604 265.391C537.272 264.741 538.123 265.265 538.587 266.059C538.595 266.061 538.604 266.063 538.613 266.065C541.088 270.338 544.179 274.635 544.117 280.348ZM545.071 374.792C545.297 374.298 543.326 373.573 544.98 372.749C545.531 372.486 546.12 372.849 546.276 374.2C547.331 383.196 547.39 392.258 546.816 401.352C546.795 401.649 546.306 401.879 545.531 402.604C545.429 394.926 544.262 388.072 544.678 380.79C544.788 378.813 544.185 376.769 545.071 374.792ZM543.799 360.425C543.237 356.999 545.537 356.702 545.882 354.33C547.83 359.272 547.886 363.524 543.894 366.984C544.991 364.282 544.11 362.336 543.799 360.425ZM543.646 315.353C543.454 313.839 542.308 310.977 545.269 311.328C545.991 311.427 545.986 310.537 545.636 309.812C545.442 309.417 545.104 309.186 544.829 308.857C545.583 307.128 545.872 305.333 545.959 303.51C546.11 301.722 545.574 299.921 545.743 298.141C545.781 297.658 545.754 296.92 546.657 296.978C547.199 297.017 547.363 297.362 547.391 297.91C547.505 299.775 547.544 301.643 547.507 303.51C547.386 314.442 547.303 325.364 547.239 336.305C547.226 336.305 547.212 336.305 547.199 336.305C547.193 336.766 546.925 337.228 546.651 338.15C545.343 335.679 544.615 332.549 545.248 330.473C546.641 325.86 544.908 321.411 545.803 316.995C545.998 316.04 546.592 314.095 545.066 313.963C544.069 313.871 543.755 314.664 543.646 315.353ZM543.582 316.106C543.591 315.927 543.599 315.649 543.646 315.353C543.688 315.685 543.686 315.951 543.582 316.106Z" fill="var(--stroke-0, #C6EDD1)"/>
<path id="r" d="M218.511 346.453C213.265 347.827 207.774 348.438 202.083 348.716C207.415 347.567 212.934 346.932 218.511 346.453ZM218.511 346.453C218.599 346.43 218.689 346.407 218.777 346.384C218.777 346.384 218.701 346.425 218.66 346.429C218.661 346.433 218.662 346.436 218.662 346.44C218.612 346.444 218.561 346.449 218.511 346.453ZM218.742 346.42C218.787 346.426 218.835 346.431 218.88 346.437C218.809 346.445 218.738 346.453 218.666 346.461C218.691 346.447 218.717 346.434 218.742 346.42ZM99.1913 558.202C98.0038 562.055 103.018 564.883 106.054 567.415C111.157 571.743 116.753 575.266 122.632 578.215C128.662 581.246 135.395 583.065 142.041 583.592C143.217 583.675 144.107 583.586 142.926 584.692C142.915 584.698 142.903 584.704 142.892 584.71C142.894 584.713 142.896 584.716 142.898 584.72C142.887 584.73 142.876 584.742 142.863 584.753C142.865 584.742 142.868 584.732 142.87 584.721C142.853 584.729 142.835 584.738 142.818 584.746C142.82 584.735 142.823 584.724 142.825 584.713C140.877 587.931 137.837 584.897 135.627 584.616C130.527 583.997 125.822 580.763 121.023 579.659C115.715 578.378 112.17 573.823 105.517 572.43C120.119 585.117 138.315 591.475 156.239 589.999C156.293 588.859 154.619 589.812 154.263 588.568C154.983 588.621 155.708 588.667 156.438 588.705C184.753 589.648 212.805 592.31 241.069 589.117C230.783 587.671 220.42 590.156 209.942 588.552C214.739 587.992 219.537 587.01 224.335 586.977C238.881 586.9 253.503 586.167 268.011 586.955C273.077 587.231 277.299 585.174 282.366 585.763C283.901 585.939 286.32 585.523 287.049 585.968C294.034 590.158 302.822 587.775 310.997 588.175C313.826 588.315 316.648 588.387 319.464 588.414C330.669 588.519 341.791 587.902 352.986 588.009C370.295 588.154 387.643 587.843 404.914 588.412C415.046 588.751 425.679 589.714 435.351 589.534C446.48 589.314 457.572 589.676 468.548 589.953C472.729 590.066 476.944 590.028 481.163 589.998C488.229 589.909 494.884 588.955 502.149 589.546C508.509 585.57 515.97 584.323 522.453 580.39C537.41 571.39 550.576 557.854 557.332 540.782C560.468 532.884 562.372 524.433 562.938 515.661C563.811 496.681 564.776 477.702 565.873 458.748L576.977 482.643C576.217 481.913 575.449 481.183 574.674 480.454C560.603 467.255 544.55 455.532 527.618 444.915C526.951 444.507 526.371 443.932 525.63 443.349C527.195 443.092 528.907 445.287 530.404 445.316C528.574 443.694 525.964 441.673 524.459 441.664C521.971 441.645 519.818 439.994 517.698 438.757C508.27 433.19 498.531 428.032 488.593 423.149C472.925 415.458 456.392 409.232 439.689 403.586C425.264 398.72 410.575 394.343 395.661 390.882C379.662 387.172 363.324 384.39 346.87 382.471C367.943 385.302 388.679 389.483 408.968 395.001C408.898 395.163 408.828 395.336 408.723 395.488C385.042 389.617 360.589 384.077 336.112 382.597C336.106 382.742 336.1 382.886 336.095 383.031C346.783 384.343 357.426 385.991 367.922 388.036C371.149 388.66 374.541 389.024 377.497 390.101C375.922 390.706 372.863 389.515 370.637 389.383C371.219 389.823 373.453 389.721 373.824 390.336C373.564 390.344 373.298 390.401 373.009 390.344C363.567 388.737 354.071 387.21 344.618 385.501C342.422 385.109 340.756 385.036 339.011 385.08C333.913 385.207 325.841 384.242 321.701 383.034C319.59 382.417 320.446 381.854 321.975 381.572C324.322 381.121 324.299 380.566 321.73 379.824C320.202 379.383 320.128 379.12 321.44 378.835C325.036 378.063 324.837 377.922 317.467 377.329C325.174 377.178 322.781 376.281 321.321 374.943C319.274 373.015 313.376 370.924 321.711 369.145C322.781 368.923 323.751 367.813 322.421 366.828C320.977 365.754 319.28 364.28 322.652 363.03C323.155 362.848 324.471 362.647 325.359 362.647C334.239 362.73 332.949 361.292 332 360.34C329.538 357.887 331.884 355.638 335.004 353.179C336.665 351.864 336.836 350.438 338.476 349.061C340.285 347.52 347.447 347.274 352.623 347.081C362.806 346.678 373.101 347.184 383.251 348.228C387.824 348.692 392.753 349.025 397.425 349.22C405.509 349.532 412.559 351.436 420.482 352.34C423.454 352.677 425.838 352.834 428.19 352.712C431.206 354.818 436.793 354.513 441.068 355.49C445.35 356.467 450.008 357.582 454.372 357.551C457.476 357.523 458.387 359.038 461.111 359.663C475.81 363.022 490.319 367.622 504.749 372.016C512.391 374.343 519.63 377.09 526.511 380.168C550.035 390.697 574.062 401.597 596.044 416.548C603.518 421.639 610.926 427.653 618.746 433.134L631.409 445.083L630.649 458.748C630.891 461.155 631.222 463.553 631.681 465.931C632.504 470.192 632.173 475.067 632.094 479.634C631.973 487.156 631.885 494.563 632.865 502.278C633.425 506.698 633.217 511.159 633.104 515.661C633.028 519.655 632.846 523.609 632.823 527.668C632.756 540.832 629.916 553.983 625.585 566.531C623.558 572.455 621.004 578.25 620.607 583.878C620.33 587.602 618.195 585.717 616.699 589.241C613.771 596.026 609.932 602.621 605.698 608.825C596.999 621.602 585.72 632.251 573.032 640.601C566.861 644.67 560.236 649.19 553.836 653.191C549.436 655.954 543.917 656.931 540.25 660.339C537.523 660.134 533.187 660.27 530.753 662.314C526.804 665.626 522.082 666.283 517.219 667.653C507.625 670.357 497.818 672.752 487.832 671.908C485.564 671.709 485.404 673.259 482.588 673.234C482.118 673.23 481.642 673.226 481.163 673.222C477.574 673.177 473.729 673.308 470.583 673.559C461.718 674.285 452.621 671.847 443.985 674.761C441.069 675.762 437.345 674.712 433.891 674.836C425.409 675.124 416.697 676.113 408.407 674.64C399.349 673.012 390.176 674.297 381.349 674.764C376.359 675.022 370.18 674.204 365.651 676.403C363.118 674.18 357.131 676.262 354.368 673.768C352.641 672.206 348.725 673.298 346.845 673.936C340.09 676.258 335.33 676.147 327.961 675.889C325.181 675.792 322.34 675.505 319.464 675.34C314.718 675.069 309.876 675.134 305.049 676.941C302.017 678.079 295.684 676.189 290.656 676.07C287.394 675.999 283.363 676.044 280.523 674.505C279.602 673.992 278.566 673.906 277.645 674.574C273.231 677.687 268.165 675.705 263.637 674.804C259.607 673.986 256.191 672.281 252.736 675.277C251.623 676.223 248.361 675.994 246.327 675.572C240.838 674.453 240.915 674.374 235.734 675.519C234.928 675.694 233.891 675.663 233.008 675.574C223.452 674.715 213.857 676.033 203.994 674.18C196.97 672.868 187.451 672.426 181.08 673.86C173.519 675.553 166.841 673.991 159.856 674.342C158.722 674.401 157.582 674.449 156.438 674.488C146.653 674.74 136.549 673.658 127.086 671.311C103.084 665.458 79.3302 656.004 61.0133 639.622C59.23 638.029 57.088 635.786 55.083 635.747C53.8652 635.739 51.6702 633.642 51.157 632.815C44.9061 622.797 35.226 615.057 28.7287 605.237C11.1214 578.866 1.36547 546.979 2.33927 515.661C2.34834 515.414 2.35749 515.167 2.36671 514.92C2.87262 501.142 2.81141 487.441 3.54766 473.701C3.8582 467.919 4.07189 462.149 4.25701 456.386L5.32836 437.309L17.4672 428.42C25.5504 422.152 33.7963 416.267 42.3088 410.899C52.0767 404.74 62.3447 399.142 72.0919 393.251C75.6558 391.077 80.1326 387.417 84.3593 388.122C84.4109 388.096 94.462 382.138 94.7257 382.059C95.7676 381.525 96.7695 380.955 97.8262 380.565C113.685 374.488 128.923 368.015 144.772 363.141C167.278 356.209 190.34 351.494 213.354 348.103C220.445 347.063 227.752 346.909 235.466 345.804C229.828 345.458 223.645 347.042 218.88 346.437C230.024 345.183 241.384 344.223 252.213 344.388C262.085 344.491 273.505 343.809 281.7 345.814C282.924 346.101 284.525 345.869 285.755 345.809C289.783 345.628 291.782 346.278 291.009 346.84C289.355 348.102 292.32 348.192 296.781 348.275C298.33 348.302 300.517 348.286 301.089 348.754C301.577 349.118 300.029 349.185 298.604 349.236C296.037 349.315 292.049 349.334 293.602 350.179C294.71 350.781 297.222 351.488 301.442 351.176C301.64 351.167 302.157 351.298 302.674 351.389C301.702 352.007 298.853 351.836 296.332 351.872C299.846 352.95 302.346 353.936 299.13 355.161C298.435 355.42 299.032 355.704 296.841 355.709C292.287 355.73 292.34 356.066 294.382 356.913C296.991 357.988 301.321 359.098 296.568 360.483C296.223 360.581 296.194 360.809 296.508 360.912C299.533 361.953 299.82 362.821 296.642 364.164C294.566 365.035 300.197 365.692 303.976 366.035C312.409 366.79 317.383 368.832 317.382 370.753C317.382 370.753 317.382 370.754 317.382 370.754C317.382 371.402 316.829 372.049 315.672 372.67C312.934 374.109 307.9 375.942 314.071 377.244C269.721 381.724 227.367 392.723 187.077 408.177C147.19 423.556 108.899 443.006 77.3871 469.047C82.5068 465.967 86.9647 461.632 92.2503 458.807C92.6831 458.579 93.1141 458.61 94.5289 458.309C86.8533 463.634 79.4571 469.23 72.4144 475.091C71.7522 475.642 71.0009 476.295 71.1638 475.371C71.6158 472.704 69.6454 475.707 69.6179 475.946C69.2532 478.396 66.8799 480.098 64.6008 481.599C63.852 482.096 63.166 482.638 62.522 483.21L75.1927 456.386C75.2885 459.309 75.7844 462.124 75.9755 465.026C77.1013 481.88 78.0827 498.77 79.0197 515.661C79.0664 516.232 79.119 516.799 79.1776 517.363C79.6541 521.975 79.9995 526.687 81.9757 531.039C83.148 533.554 84.467 531.074 85.2597 533.154C86.205 535.498 83.1156 534.688 84.1106 537.17C85.1635 539.723 85.7532 542.485 87.4436 545.026C87.7262 544.208 87.9443 543.585 88.4096 542.364C89.345 549.677 94.1284 554.296 99.1913 558.202ZM231.895 672.291C224.296 670.93 216.735 672.003 209.136 671.714C216.697 673.027 224.334 672.243 231.895 672.291ZM178.623 670.94C186.376 672.764 194.398 671.96 202.343 671.795C194.475 671.2 186.491 671.91 178.623 670.94ZM254.041 672.244C267.001 672.332 279.96 672.394 292.92 672.43C292.881 672.165 292.844 671.9 292.806 671.635C279.884 671.6 266.963 671.54 254.041 671.454C254.041 671.717 254.041 671.981 254.041 672.244ZM318.634 671.487C312.264 671.487 305.893 671.848 299.523 671.977C305.932 672.296 312.379 672.874 318.634 671.487ZM219.445 375.512C237.692 373.674 253.07 370.169 268.33 367.716C252.287 367.938 236.46 370.98 219.445 375.512ZM466.967 407.613C472.4 410.394 476.386 412.542 481.423 412.755C476.565 410.604 472.462 408.687 466.967 407.613ZM537.824 442.733C545.087 449.373 552.148 453.595 559.466 457.327C552.985 451.929 546.018 447.331 537.824 442.733ZM487.555 421.146C488.636 421.684 489.737 422.255 490.276 422.088C490.722 421.954 490.562 421.387 490.505 420.946C490.432 420.644 489.762 420.159 489.177 420.144C484.709 420.061 481.298 416.482 477.151 415.174C479.435 415.422 481.849 417.362 484.996 417.797C476.318 413.477 468.273 412.634 460.394 408.507C460.384 408.498 460.374 408.49 460.364 408.482C462.561 410.743 465.498 411.09 468.017 412.173C474.626 415.024 481.155 417.969 487.555 421.146ZM432.284 398.893C438.69 401.381 444.207 403.041 449.747 404.675C444.227 403.019 439.222 399.76 432.284 398.893ZM494.653 595.948C494.549 595.826 493.374 595.788 493.115 596.408C492.83 597.072 493.298 597.512 494.089 597.762C496.864 598.628 499.848 597.679 503.981 597.456C503.979 597.449 503.977 597.443 503.975 597.437C502.874 596.814 502.628 596.509 502.28 596.492C499.776 596.343 496.469 598.546 494.653 595.948ZM517.977 436.258C512.855 433.204 507.905 429.646 502.104 427.825C507.482 430.531 512.767 433.338 517.977 436.258ZM525.385 440.841C529.939 443.835 534.247 447.087 539.211 449.144C534.719 446.156 530.513 442.46 525.385 440.841ZM566.487 522.757C566.544 525.34 563.968 527.151 564.344 528.332C565.589 532.496 562.942 535.912 561.875 539.476C565.03 534.672 567.543 529.067 566.487 522.757ZM552.937 459.002C556.546 461.493 557.004 464.984 561.272 467.605C561.158 463.789 556.488 461.479 552.937 459.002ZM555.674 549.601C555.617 549.753 555.576 549.913 555.531 550.041C554.166 554.373 551.37 558.061 548.424 561.418C547.166 562.836 547.172 564.169 547.815 564.821C548.576 565.592 549.486 563.987 550.139 563.192C554.446 558.124 557.036 551.972 560.177 546.069C561.169 544.203 561.343 541.876 561.757 539.754C560.326 539.19 560.579 541.131 559.998 541.948C558.527 543.982 559.037 545.881 558.472 547.81C557.688 550.428 556.884 550.727 555.674 549.601ZM507.009 589.114C505.995 587.914 506.068 589.042 506.245 589.494C506.453 590.02 505.014 590.469 506.041 591.011C506.581 590.81 507.149 590.533 507.757 590.377C508.286 590.227 508.932 589.865 509.379 590.303C509.371 590.306 509.363 590.308 509.354 590.311C504.051 594.074 497.044 592.096 491.326 594.521C504.031 593.973 517.039 590.224 527.543 582.356C528.302 581.793 528.787 580.916 529.796 580.695C535.47 579.359 539.098 574.361 543.255 570.637C544.576 569.453 544.559 568.372 544.356 566.717C540.653 571.779 536.436 575.838 531.188 577.959C530.368 578.291 529.581 578.954 528.82 579.483C522.962 583.659 516.598 587.211 509.75 589.15C508.72 589.435 507.81 590.077 507.009 589.114ZM313.421 380.489C302.823 379.364 205.982 403.858 201.648 407.349C224.17 398.436 248.397 392.027 272.476 386.481C284.969 383.593 297.906 380.993 311.704 380.436C312.263 380.407 312.75 380.463 313.421 380.489ZM478.528 592.786C465.479 592.653 452.429 592.488 439.379 592.369C435.996 592.328 432.504 592.075 429.982 593.585C429.993 593.585 430.005 593.585 430.016 593.585C431.359 594.542 433.354 594.283 435.119 594.303C449.55 594.544 463.981 594.775 478.374 595.113C479.299 595.127 480.326 595.228 481.163 595.181C481.766 595.132 482.222 594.917 482.307 594.287C482.417 593.416 481.909 593.063 481.163 592.908C480.397 592.8 479.456 592.793 478.528 592.786ZM451.948 409.196C440.444 405.317 428.798 401.51 417.134 397.612C429.053 400.51 440.655 404.497 451.948 409.196ZM318.634 592.658C313.53 591.659 308.387 593.009 303.244 592.406C308.425 594.457 313.53 593.25 318.634 592.658ZM380.734 591.626C383.612 593.126 386.799 593.49 390.714 592.909C395.051 592.271 399.733 592.41 404.185 593.134C405.144 593.284 406.065 594.079 406.717 593.075C407.37 592.071 406.104 591.818 404.531 591.804C396.599 591.735 388.666 591.676 380.734 591.626ZM409.634 591.506C416.065 593.118 422.757 593.865 429.71 593.594C423.856 590.186 416.179 592.704 409.634 591.506ZM429.823 593.683C429.835 593.683 429.848 593.683 429.861 593.683C429.854 593.679 429.848 593.675 429.841 593.671C429.835 593.675 429.829 593.679 429.823 593.683ZM488.363 425.348C488.441 425.156 488.519 424.965 488.597 424.773C504.73 431.792 519.581 441.208 534.018 450.672C519.549 441.303 504.219 432.854 488.363 425.348ZM556.554 539.125C558.887 531.571 560.435 523.767 560.938 515.661C561.759 496.689 562.945 477.733 563.668 458.748L575.555 484.328C575.391 484.177 575.227 484.026 575.062 483.875C575.065 483.871 575.069 483.867 575.072 483.863C575.316 483.625 575.545 483.352 575.764 483.091C575.919 483.238 576.073 483.384 576.227 483.531L564.711 458.748C563.694 477.73 562.71 496.699 561.77 515.661C561.193 523.853 559.416 531.74 556.554 539.125ZM540.622 456.005C540.737 455.883 540.832 455.728 540.927 455.573C552.374 463.391 563.194 471.785 573.232 480.806C573.094 480.921 572.92 481.024 572.798 481.174C562.804 472.182 552.024 463.807 540.622 456.005ZM78.7922 531.372C77.3897 526.264 77.4623 521.036 75.9375 515.661C75.7683 514.801 75.573 513.94 75.3479 513.078C75.3792 513.939 75.4105 514.8 75.4416 515.661C75.7198 521.089 76.5193 526.412 77.8194 531.567C78.1437 531.502 78.4679 531.437 78.7922 531.372ZM409.412 398.544C407.765 397.998 408.389 399.211 406.939 398.507C399.803 395.042 391.758 394.49 384.171 392.75C380.054 391.813 378.582 391.21 377.576 390.125C386.521 391.905 395.532 393.583 404.044 396.528C405.715 397.117 406.759 396.913 408.246 397.353C410.563 398.048 410.311 398.338 409.412 398.544ZM377.516 390.073C377.516 390.069 377.517 390.066 377.517 390.063C377.524 390.07 377.533 390.078 377.54 390.085C377.536 390.087 377.532 390.088 377.529 390.09C377.524 390.084 377.52 390.078 377.516 390.073ZM377.54 390.085C377.544 390.084 377.548 390.082 377.552 390.08C377.551 390.086 377.551 390.092 377.55 390.098C377.546 390.093 377.543 390.089 377.54 390.085ZM377.497 390.101C377.508 390.097 377.519 390.094 377.529 390.09C377.535 390.099 377.541 390.109 377.547 390.119C377.531 390.113 377.514 390.107 377.497 390.101ZM377.55 390.098C377.558 390.106 377.568 390.116 377.576 390.125C377.567 390.123 377.557 390.121 377.547 390.119C377.548 390.112 377.549 390.105 377.55 390.098ZM247.094 588.237C245.904 588.186 243.832 588.224 243.87 589.154C243.908 590.085 245.635 589.829 247.055 589.798C254.616 589.678 262.178 589.669 269.739 589.629C262.6 587.512 254.732 588.542 247.094 588.237ZM438.778 408.365C429.512 405.223 420.061 402.811 410.762 399.52C410.218 399.324 409.898 398.898 409.491 398.571C412.781 398.747 416.26 399.55 420.111 400.811C426.018 402.754 431.959 404.684 437.842 406.814C439.009 407.234 440.495 407.709 440.399 408.334C440.347 408.658 439.669 408.673 438.778 408.365ZM129.919 435.5C126.588 438.652 116.664 444.525 110.025 447.362C116.788 442.333 123.706 439.477 129.919 435.5ZM104.871 571.153C103.724 568.213 102.284 566.472 99.3457 564.98C99.8611 568.195 102.1 569.646 104.871 571.153ZM84.1143 539.816C83.8596 539.027 83.5198 538.262 82.8783 538.381C82.0883 538.512 81.9783 539.822 82.5068 540.38C85.1631 543.111 85.1785 547.337 88.639 550.7C88.6348 550.693 88.6305 550.685 88.6262 550.678C86.5282 546.514 85.2213 543.176 84.1143 539.816ZM509.814 440.725C502.735 436.317 495.219 432.844 487.864 428.953C480.816 425.244 472.995 422.71 467.07 417.941C481.318 425.555 497.074 431.254 509.814 440.725ZM541.51 561.314C541.697 561.456 541.884 561.598 542.071 561.74C535.691 569.416 527.864 575.805 519.244 580.449C519.121 580.24 518.998 580.032 518.875 579.823C527.416 575.234 535.178 568.913 541.51 561.314ZM409.338 398.563C409.306 398.561 409.272 398.558 409.24 398.557C409.24 398.557 409.333 398.555 409.39 398.55C409.398 398.548 409.405 398.546 409.412 398.544C409.415 398.545 409.418 398.546 409.421 398.547C409.434 398.545 409.438 398.543 409.431 398.541C409.443 398.544 409.455 398.547 409.467 398.551C409.475 398.557 409.483 398.564 409.491 398.571C409.463 398.569 409.436 398.568 409.408 398.566C409.363 398.57 409.319 398.574 409.274 398.577C409.296 398.572 409.317 398.567 409.338 398.563ZM466.126 419.143C461.645 416.701 456.274 415.762 452.173 412.724C457.185 414.388 462.362 415.844 466.126 419.143ZM304.742 585.736C305.855 585.693 307.121 585.834 306.93 586.69C306.776 587.506 305.624 587.549 304.434 587.47C301.364 587.25 298.332 587.033 295.262 586.817C295.275 586.817 295.287 586.817 295.299 586.817C295.376 586.573 295.415 586.348 295.454 586.104C298.524 585.973 301.633 585.823 304.742 585.736ZM483.26 588.051C488.4 586.902 493.548 587.802 498.62 586.628C493.768 588.756 488.377 588.206 483.26 588.051ZM535.564 456.752C535.315 457.236 534.298 457.107 533.603 456.496C529.401 452.739 524.469 449.992 519.549 447.079C519.003 446.765 518.596 446.111 517.618 445.093C524.053 447.242 528.98 451.648 534.231 454.596C535.371 455.227 535.85 456.202 535.564 456.752ZM560.257 476.784C553.679 471.015 546.746 465.4 539.434 460.205C537.941 459.14 537.11 458.371 537.379 457.788C537.847 456.812 539.348 458.425 540.244 459.09C547.068 464.088 553.577 469.352 559.799 474.825C559.79 474.818 559.782 474.81 559.773 474.803C559.935 475.448 560.086 476.105 560.257 476.784ZM175.055 582.79C182.04 582.482 188.872 583.08 197.047 583.736C192.748 584.602 189.908 585.186 186.953 585.791C188.488 587.282 191.558 586.038 193.784 587.284C185.263 587.248 177.549 587.709 169.604 587.291C165.268 587.061 160.858 586.963 156.438 586.991C153.278 587.023 150.165 587.018 147.051 586.972C147.034 586.984 147.016 586.995 146.999 587.007C144.428 586.939 143.735 586.021 142.898 584.72C142.908 584.711 142.917 584.701 142.926 584.692C145.318 583.526 147.412 582.249 149.712 584.94C150.47 585.789 151.205 584.86 151.923 584.782C153.451 584.617 154.936 584.267 156.438 583.963C160.517 583.465 164.627 583.212 168.914 584.213C171.025 584.709 172.829 582.891 175.055 582.79ZM559.635 467.851C559.245 464.807 559.062 461.774 559.056 458.748L572.581 487.854C568.039 484.04 563.858 479.625 559.847 474.881C564.704 478.493 569.226 482.619 573.421 486.857L560.359 458.748C560.123 461.782 559.871 464.817 559.635 467.851ZM559.799 474.825C559.815 474.843 559.831 474.862 559.847 474.881C559.828 474.867 559.809 474.852 559.79 474.838C559.793 474.833 559.796 474.829 559.799 474.825ZM552.099 536.774C551.67 535.475 550.497 534.771 551.612 533.163C555.166 527.928 554.524 521.64 555.017 515.661C555.024 515.537 555.031 515.413 555.038 515.289C555.084 514.636 555.147 513.984 555.198 513.216C555.859 513.634 555.68 514.642 555.652 515.661C555.634 516.097 555.676 516.533 556.061 516.876C556.13 516.471 556.197 516.066 556.26 515.661C556.693 511.394 557.06 507.316 556.824 503.122C556.782 502.508 556.318 501.779 556.38 501.549C557.087 499.016 556.369 494.219 557.773 493.873C559.16 493.489 558.538 498.172 558.407 500.052C558.406 500.065 558.406 500.078 558.405 500.091C558.066 505.273 557.776 510.459 557.487 515.661C556.874 523.021 555.225 530.184 552.099 536.774ZM194.475 410.057C186.274 413.29 178.973 417.639 170.536 420.561C169.485 420.921 167.886 421.899 167.477 421.377C167.084 420.902 168.493 420.145 169.694 419.642C169.692 419.638 169.691 419.634 169.689 419.63C177.814 416.216 186.088 413.022 194.475 410.057ZM130.594 440.323C125.046 442.303 121.351 446.929 116.112 449.249C116.105 449.259 116.097 449.27 116.089 449.28C113.933 450.225 111.676 451.627 109.313 451.788C115.927 446.568 122.906 443.475 129.373 439.632C130.199 439.144 131.353 438.85 131.478 439.372C131.511 439.529 130.828 440.241 130.594 440.323ZM99.8694 458.33C96.466 460.729 95.043 465.671 89.9322 465.186C92.5659 461.848 96.4809 460.558 99.8694 458.33ZM86.7154 467.412C82.6084 472.088 78.2696 474.22 74.8558 477.339C77.8574 473.857 81.3021 470.708 86.7154 467.412ZM142.857 584.658C142.863 584.667 142.87 584.677 142.876 584.686C142.882 584.657 142.888 584.629 142.893 584.6C142.882 584.62 142.868 584.638 142.857 584.658ZM150.557 429.9C146.291 431.737 142.242 434.722 136.549 436.374C141.336 432.465 146.295 431.441 150.437 429.021C150.593 428.932 151.239 428.919 151.204 429.024C151.144 429.26 150.808 429.764 150.584 429.872C150.575 429.882 150.566 429.891 150.557 429.9ZM241.107 580.901C245.943 580.507 248.207 582.635 252.429 581.524C252.442 581.517 252.455 581.51 252.468 581.503C252.429 581.95 252.352 582.397 252.313 582.843C251.239 582.933 250.202 583.104 249.128 583.134C233.738 583.592 218.348 584.072 202.958 584.651C201.115 584.717 199.426 584.662 199.157 583.705C198.735 582.25 200.961 582.356 202.842 582.308C211.324 582.082 219.844 581.464 228.249 581.769C232.778 581.938 237.116 581.225 241.107 580.901ZM547.194 544.736C548.249 541.76 548.667 539.228 549.963 536.83C551.725 538.426 550.667 542.634 547.194 544.736ZM532.06 563.409C532.601 561.295 534.488 560.576 535.937 559.573C535.932 559.579 535.927 559.585 535.922 559.591C538.805 557.608 541.18 555.118 542.43 551.856C541.527 557.189 537.09 560.96 533.45 564.714C532.828 565.341 532.025 565.822 531.373 565.176C530.659 564.438 531.929 563.927 532.06 563.409ZM503.005 580.726C504.078 579.441 503.267 577.494 505.147 578.121C507.779 578.976 509.596 577.558 511.153 576.311C513.344 574.532 516.232 575.385 518.446 573.494C521.182 571.155 525.479 570.377 527.66 567.042C528.109 566.339 528.988 565.836 529.585 566.559C530.18 567.284 529.335 567.909 528.676 568.444C525.243 571.171 521.676 573.892 517.664 575.489C517.654 575.487 517.644 575.485 517.633 575.484C512.971 577.338 508.663 579.923 503.005 580.726ZM303.476 578.378C304.78 577.764 305.279 578.373 305.509 578.577C307.697 580.388 310.92 580.526 313.914 579.668C316.716 578.87 316.678 580.258 316.947 580.665C317.676 581.746 315.296 581.686 314.529 581.686C304.55 581.897 294.379 582.615 284.554 581.966C278.221 581.547 272.502 582.82 266.476 582.473C266.463 582.466 266.45 582.46 266.438 582.453C261.679 582.18 256.075 583.46 252.966 580.85C253.888 579.219 257.726 583.083 256.689 579.479C256.498 578.791 258.801 578.731 260.182 578.7C268.894 578.447 277.414 578.637 286.011 579.8C291.576 580.549 298.294 580.835 303.476 578.378ZM482.03 582.739C485.084 580.516 488.257 581.856 490.717 582.15C494.18 582.552 496.403 580.439 499.348 580.06C500.034 579.96 500.845 579.033 501.299 579.893C501.745 580.715 500.859 581.418 499.822 581.663C499.817 581.671 499.811 581.679 499.806 581.687C494.23 582.986 488.357 584.688 482.03 582.739ZM351.988 579.573C352.564 579.798 353.408 577.828 354.368 579.482C354.674 580.033 354.252 580.621 352.678 580.777C342.201 581.832 331.646 581.891 321.053 581.317C320.707 581.297 320.439 580.807 319.595 580.032C328.537 579.931 336.52 578.763 345.002 579.179C347.305 579.289 349.685 578.687 351.988 579.573ZM368.722 578.301C372.713 577.739 373.059 580.038 375.822 580.383C370.065 582.331 365.113 582.387 361.083 578.396C364.23 579.492 366.496 578.611 368.722 578.301ZM421.22 578.147C422.983 577.955 426.317 576.81 425.908 579.77C425.793 580.492 426.829 580.487 427.673 580.138C428.134 579.943 428.403 579.606 428.786 579.33C434.313 581.399 440.417 579.968 446.212 580.467C447.21 580.544 448.744 580.59 448.437 581.483C448.245 582.019 447.516 582.146 446.404 582.128C429.862 581.939 413.358 581.823 396.816 581.741C396.816 581.727 396.816 581.714 396.816 581.7C396.279 581.695 395.741 581.426 394.667 581.153C397.545 579.844 401.191 579.116 403.609 579.75C408.982 581.142 414.164 579.409 419.307 580.304C420.42 580.5 422.684 581.093 422.838 579.567C422.946 578.571 422.022 578.256 421.22 578.147ZM420.343 578.083C420.551 578.092 420.874 578.1 421.22 578.147C420.833 578.189 420.523 578.187 420.343 578.083Z" fill="var(--stroke-0, #C6EDD1)"/>
</g>
</svg>
