<svg preserveAspectRatio="none" width="100%" height="100%" overflow="visible" style="display: block;" viewBox="0 0 642.801 681.167" fill="none" xmlns="http://www.w3.org/2000/svg">
<g id="Group 43896">
<path id="l" d="M20.7526 252.556C19.4291 257.129 17.4687 261.552 15.2575 266.102C16.5342 261.451 18.498 256.929 20.7526 252.556ZM20.7526 252.556C20.7748 252.48 20.7979 252.402 20.8197 252.325C20.8197 252.325 20.8188 252.402 20.8033 252.434C20.8067 252.435 20.8101 252.437 20.8135 252.438C20.7931 252.477 20.7729 252.517 20.7526 252.556ZM20.8346 252.369C20.8615 252.339 20.8886 252.305 20.9152 252.275C20.8879 252.332 20.8607 252.389 20.8335 252.445C20.8338 252.42 20.8342 252.394 20.8346 252.369ZM85.1321 512.486C84.1878 513.317 83.6961 514.435 83.4798 515.719C82.9522 517.715 84.141 520.253 84.5138 522.322C85.416 527.234 86.8168 531.907 88.4432 536.515C90.11 541.242 92.7055 545.756 95.8651 549.649C96.4332 550.331 96.9715 550.763 95.4827 550.802C95.472 550.799 95.4612 550.797 95.4505 550.794C95.4491 550.797 95.4479 550.801 95.4464 550.804C95.4318 550.804 95.4168 550.805 95.4018 550.805C95.4113 550.8 95.4208 550.794 95.4303 550.789C95.4146 550.785 95.3989 550.781 95.3832 550.777C95.393 550.771 95.4027 550.765 95.4125 550.76C91.8753 551.679 92.5747 548.206 91.5182 546.888C89.0932 543.858 88.6552 539.573 86.3375 536.595C83.8239 533.258 84.6522 528.921 80.7417 524.99C82.769 539.151 88.5204 551.991 97.8985 561.533C98.8209 560.858 97.302 560.483 98.1101 559.51C105.522 570.925 116.134 582.637 130.532 584.485C126.609 581.465 121.113 581.512 117.721 577.489C119.93 578.216 122.33 578.445 124.294 579.403C130.304 582.356 136.787 583.784 143.114 585.777C145.369 586.477 147.538 584.705 149.737 585.506C150.411 585.749 151.534 585.415 151.836 585.879C153.13 587.816 154.739 588.445 156.447 588.537C159.821 588.654 163.366 588.009 166.769 588.232C168.878 588.373 170.981 588.445 173.081 588.472C181.434 588.577 189.725 587.96 198.07 588.067C207.95 588.178 217.848 588.021 227.723 588.198L186.227 618.659C187.001 616.374 187.778 614.024 188.557 611.665C190.505 605.813 192.892 599.47 193.787 593.438C194.814 586.478 196.117 579.482 197.062 572.437C198.367 562.84 197.329 552.812 200.839 543.231C198.716 535.902 200.343 528.209 199.985 520.622C199.183 502.851 198.498 484.84 195.784 466.792C192.471 444.733 187.497 422.643 181.25 400.814C177.094 386.341 171.901 372.109 166.262 358.017C166.033 357.467 165.973 356.833 165.804 356.131C167.092 356.548 166.966 358.783 168.036 359.369C167.714 357.514 167.094 355.061 166.019 354.477C164.25 353.522 163.728 351.458 163.017 349.768C159.853 342.119 156.444 334.533 152.932 326.972C151.668 324.247 150.342 321.536 148.967 318.836C144.367 309.801 139.296 300.974 134.155 292.185C128.394 282.349 122.458 272.572 116.001 263.118C109.077 252.984 101.631 243.139 93.779 233.601C103.571 246.079 112.679 258.965 121.118 272.229C120.966 272.313 120.805 272.405 120.638 272.466C110.396 257.394 100.182 241.676 87.7304 228.328C87.6277 228.43 87.5249 228.532 87.4222 228.633C92.3977 234.939 97.2301 241.366 101.827 247.911C103.236 249.911 104.936 251.799 105.912 253.992C104.578 253.672 103.635 251.351 102.449 250.185C102.48 250.782 103.834 251.78 103.624 252.401C103.469 252.282 103.277 252.195 103.149 252.016C98.8261 246.335 94.5086 240.598 90.4314 234.671C89.4814 233.297 88.6086 232.413 87.6169 231.576C84.7026 229.119 80.966 224.348 79.5584 221.354C78.8415 219.83 79.6917 219.858 80.7149 220.434C82.2979 221.303 82.6685 220.89 81.787 219.043C81.2631 217.944 81.4051 217.715 82.3121 218.179C84.798 219.452 84.7698 219.253 81.2073 215.06C85.4657 218.885 84.8044 217.015 84.9303 215.299C85.1504 212.858 83.4123 208.327 89.1392 211.299C89.8736 211.686 91.1646 211.375 91.1223 209.984C91.0793 208.467 91.1741 206.531 93.8668 207.351C94.2653 207.476 95.1193 208.001 95.6039 208.454C100.396 213.029 100.693 211.318 100.826 210.154C101.169 207.133 104.005 206.695 107.418 206.489C109.241 206.375 110.319 205.43 112.179 205.261C114.237 205.056 118.381 208.464 121.419 210.88C127.416 215.633 132.918 220.982 138.09 226.588C140.405 229.088 143.077 231.688 145.677 234.001C150.223 238.019 153.121 242.653 157.274 246.903C158.838 248.5 160.182 249.699 161.693 250.667C162.082 253.532 165.721 255.832 167.692 258.418C169.681 261.03 171.811 263.858 174.576 265.747C176.551 267.093 176.086 268.548 177.389 270.177C182.955 277.113 188.103 284.43 193.34 291.628C194.709 293.51 196.083 295.379 197.474 297.227C201.012 301.929 204.138 306.786 206.846 311.607C216.153 328.177 226.514 344.526 234.445 362.047C237.899 369.672 240.672 378.153 245.559 385.58C247.494 388.514 248.457 392.268 249.556 395.78C251.366 401.527 253.073 407.184 255.78 412.826C258.378 418.239 258.817 424.407 261.055 430.155C264.006 437.714 265.763 445.608 267.503 453.529C268.331 457.27 269.012 461.059 271.684 463.815C273.452 465.622 270.651 465.688 271.397 467.924C272.826 472.206 273.884 476.733 274.873 481.193C276.918 490.362 277.643 499.657 277.626 508.952C277.619 513.528 278.243 518.347 279.033 522.964C279.576 526.117 278.276 529.451 280.134 532.306C278.948 533.841 277.601 536.42 278.795 538.226C280.715 541.115 280.047 544.025 280.237 547.135C280.615 553.228 281.479 559.406 279.883 565.484C279.52 566.88 281.049 567.098 280.881 568.83C280.59 572.059 280.443 575.671 280.453 578.608C280.51 586.115 277.164 593.438 278.9 601.191C279.505 603.807 277.939 606.802 277.52 609.759C276.495 616.949 275.818 624.639 272.549 631.338C270.51 635.462 269.245 639.975 268.152 644.391L258.246 674.485L227.723 674.069C224.858 674.276 222.013 674.624 219.214 674.822C215.495 675.08 210.888 674.262 207.512 676.461C205.623 674.237 201.161 676.32 199.101 673.826C197.813 672.264 194.894 673.356 193.492 673.993C188.457 676.315 184.908 676.205 179.415 675.947C177.342 675.85 175.225 675.562 173.081 675.398C169.543 675.127 165.933 675.192 162.335 676.999C160.997 677.672 158.797 677.285 156.447 676.832C154.195 676.521 151.872 676.127 149.775 675.991C146.442 675.791 142.261 675.515 139.548 673.671C138.664 673.062 137.632 672.856 136.615 673.401C131.736 675.938 126.761 673.083 122.457 671.214C118.571 669.526 115.73 667.021 111.499 668.907C110.137 669.501 106.964 668.282 105.119 667.202C100.158 664.286 100.304 664.248 94.9368 663.302C94.1069 663.145 93.1305 662.695 92.3342 662.248C83.7225 657.542 74.3638 653.878 67.0624 646.647C61.8568 641.559 54.7482 635.259 49.06 631.887C42.2474 627.878 38.6777 621.767 33.9048 616.536C28.2279 610.322 23.2573 603.026 19.5821 595.441C11.499 578.895 3.90332 561.634 2.44592 543.289C2.30703 541.506 2.32665 539.16 0.910103 538.2C0.0423662 537.622 -0.115261 535.361 0.0678713 534.635C1.67636 528.322 0.898327 522.075 0.604347 515.719C0.484181 513.811 0.377857 511.915 0.465534 510.054C1.32558 492.257 1.47909 474.432 2.37639 456.636C2.8823 446.364 2.82109 436.15 3.55734 425.907C4.35568 414.778 4.52859 403.705 5.17771 392.632C5.63356 384.85 6.28785 376.895 5.94839 369.113C5.81519 366.252 4.72605 362.39 7.30596 360.043C7.34415 360.015 6.57267 351.974 6.58022 351.802C6.55899 351.002 6.48215 350.2 6.58763 349.428C7.96476 337.754 7.76874 326.281 8.45733 314.751C8.67872 310.951 8.93323 307.148 9.20763 303.344C10.1126 287.362 13.8514 271.705 19.7581 257.21C22.1347 251.387 25.5796 245.997 28.6882 239.976C25.4397 243.759 23.7127 249.044 20.9152 252.275C25.174 243.376 30.3983 234.795 36.6304 227.752C42.2438 221.279 48.6482 213.755 55.1757 210.466C56.134 209.968 56.9678 208.893 57.7057 208.149C58.4024 207.45 59.0469 206.904 59.6046 206.501C60.7954 205.692 61.5497 205.61 61.527 206.163C61.4862 207.862 63.1674 206.549 65.6177 204.468C66.4697 203.742 67.6237 202.67 68.2494 202.729C68.7604 202.754 67.9854 203.557 67.2563 204.285C65.9348 205.593 63.7917 207.497 65.2081 207.376C66.2141 207.289 68.0735 206.599 70.1113 204.307C70.2102 204.203 70.5769 204.045 70.9143 203.857C70.8263 204.78 69.1862 206.054 67.8432 207.3C70.4845 206.381 72.5068 205.854 71.6183 208.324C71.4189 208.853 71.9407 208.767 70.7509 209.843C68.2839 212.07 68.5341 212.28 70.2324 211.915C72.391 211.443 75.5326 210.093 73.8736 213.451C73.7505 213.692 73.89 213.872 74.134 213.793C76.5121 213.055 77.2744 213.534 76.4354 216.094C75.877 217.761 79.4679 215.444 81.7579 213.768C86.8746 210.027 90.9173 208.805 92.2818 210.169C92.2819 210.169 92.2819 210.169 92.282 210.169C92.74 210.628 92.9051 211.379 92.7241 212.433C92.2803 214.903 90.8004 218.886 95.083 216.532C91.3558 221.308 87.6535 226.085 83.9662 230.862C69.1052 250.734 63.0531 274.7 64.5285 296.862C64.6669 299.039 64.8732 301.199 65.1462 303.344C68.2757 334.176 70.0663 365.112 72.9414 395.951C73.3826 391.001 72.2299 385.994 72.6288 381.101C72.6631 380.701 72.9191 380.414 73.4042 379.298C73.924 386.947 74.426 394.596 74.9102 402.245C74.9555 402.96 75.0232 403.79 74.3841 403.218C72.5238 401.587 73.7401 404.391 73.9087 404.534C75.6385 406.022 75.529 408.482 75.2658 410.771C74.9332 413.775 75.7289 416.551 75.9852 419.44C77.1671 432.63 78.1895 445.849 79.1691 459.068C79.5492 464.218 79.3751 469.454 80.4371 474.748C81.0543 477.837 82.8808 475.377 83.1784 477.98C83.5136 480.955 80.7445 479.096 81.0203 482.157C81.3026 485.333 80.9342 488.539 81.4939 492.001C82.0736 491.257 82.5162 490.684 83.3972 489.54C81.5726 497.951 83.3957 504.961 85.1321 512.486ZM92.6238 658.787C86.2178 654.436 79.062 651.801 72.7572 647.45C78.4708 652.644 85.7086 655.651 92.6238 658.787ZM49.2579 628.067C53.6071 634.744 60.4433 639.328 67.0463 643.736C60.9423 638.745 54.2799 634.203 49.2579 628.067ZM113.616 666.361C126.168 670.02 139.197 672.051 152.192 672.431C152.161 672.165 152.13 671.899 152.099 671.633C139.207 671.247 126.283 669.229 113.832 665.6C113.76 665.854 113.688 666.107 113.616 666.361ZM172.462 671.545C167.713 671.545 162.964 671.906 158.215 672.035C162.993 672.354 167.799 672.931 172.462 671.545ZM46.4845 265.807C52.5896 253.553 57.1199 242.853 63.3336 233.004C55.0259 241.77 49.6875 253.056 46.4845 265.807ZM148.885 306.861C150.378 310.667 151.486 313.601 153.943 315.785C154.264 316.071 154.609 316.344 154.98 316.604C154.789 316.229 154.602 315.859 154.418 315.494C152.857 312.397 151.455 309.648 148.885 306.861ZM175.056 360.324C176.277 367.8 179.047 373.425 182.451 378.71C180.67 372.523 178.222 366.689 175.056 360.324ZM153.551 325.122C153.924 325.947 154.293 326.803 154.766 326.905C155.157 326.992 155.42 326.523 155.672 326.186C155.82 325.941 155.686 325.322 155.302 325.072C152.692 323.418 152.45 320.106 151.118 317.517C150.945 317.178 150.754 316.852 150.539 316.545C150.824 316.785 151.064 317.082 151.283 317.416C152.097 318.659 152.594 320.407 154.037 321.684C153.324 320.063 152.493 318.595 151.617 317.211C148.893 312.929 145.792 309.469 144.025 304.699C144.024 304.689 144.023 304.679 144.022 304.668C143.925 307.224 145.594 308.712 146.525 310.561C147.772 313.057 149.011 315.553 150.227 318.063C151.366 320.411 152.479 322.761 153.551 325.122ZM132.719 285.552C135.005 290.182 137.356 293.792 139.775 297.366C137.384 293.784 136.438 289.259 132.719 285.552ZM205.37 551.847C205.23 551.923 204.979 553.029 205.548 553.381C206.154 553.76 206.665 553.388 207.052 552.694C208.401 550.251 208.07 547.389 208.95 543.571C208.944 543.571 208.937 543.571 208.931 543.571C208.038 544.414 207.683 544.568 207.578 544.882C206.782 547.179 208.249 550.599 205.37 551.847ZM164.804 348.097C163.119 343.931 161.92 339.395 159.114 335.8C161.054 339.857 162.972 343.993 164.804 348.097ZM167.203 354.245C168.6 358.141 169.716 362.096 172.13 365.438C170.636 361.604 169.877 357.379 167.203 354.245ZM196.74 447.13C197.605 449.405 195.851 451.901 196.643 452.825C199.321 455.968 198.363 459.991 199.111 463.483C199.611 457.964 199.715 452.369 196.74 447.13ZM176.471 377.576C177.749 380.68 176.034 383.342 177.851 386.791C179.953 383.957 177.702 380.656 176.471 377.576ZM199.142 474.995C199.182 475.148 199.241 475.298 199.278 475.424C200.67 479.661 200.808 484.042 200.947 488.445C200.995 490.305 201.947 491.223 202.859 491.223C203.939 491.224 203.47 489.53 203.409 488.546C203.107 482.225 201.405 476.101 200.946 469.735C200.803 467.739 199.778 465.727 199.138 463.771C197.613 463.976 198.762 465.479 198.673 466.451C198.426 468.897 199.87 470.195 200.45 472.028C201.239 474.519 200.783 475.192 199.142 474.995ZM201.846 538.438C200.387 539.027 201.485 539.314 201.97 539.281C202.531 539.248 202.527 540.733 203.353 539.929C203.323 539.364 203.235 538.749 203.28 538.13C203.306 537.588 203.176 536.868 203.738 536.596C203.738 536.604 203.738 536.613 203.738 536.622C205.527 542.622 201.89 548.777 203.392 554.784C204.824 542.44 205.627 529.793 204.206 517.184C204.106 516.272 203.608 515.419 203.956 514.465C205.837 509.178 203.985 503.63 203.95 498.236C203.938 496.533 203.139 495.854 201.794 494.902C202.941 500.948 203.549 506.434 202.412 511.888C202.235 512.741 202.365 513.74 202.411 514.651C202.851 521.774 203.272 528.827 202.776 535.869C202.694 536.93 203.012 537.981 201.846 538.438ZM97.0103 219.187C95.9409 220.872 91.9382 226.29 86.5844 233.48C71.8608 251.144 68.1655 286.442 68.5858 288.501C67.9979 273.572 72.2358 257.876 79.464 243.318C81.2591 239.698 83.2833 236.074 85.7253 232.622C88.8984 228.342 92.276 224.128 96.0294 220.069C96.3172 219.75 96.6237 219.529 97.0103 219.187ZM200.424 566.177C199.679 574.736 198.53 583.154 197.023 591.381C196.619 593.535 195.966 595.676 197.141 597.54C197.142 597.533 197.144 597.525 197.145 597.518C198.249 596.86 198.233 595.548 198.454 594.428C200.343 585.31 201.717 575.938 202.737 566.444C202.855 565.212 203.341 563.709 202.117 563.455C200.66 563.163 200.547 564.703 200.424 566.177ZM138.134 301.553C133.392 293.801 128.717 285.913 124.279 277.828C129.556 285.312 134.08 293.308 138.134 301.553ZM172.462 592.715C168.657 591.717 164.823 593.067 160.989 592.464C164.851 594.515 168.657 593.308 172.462 592.715ZM218.756 591.684C220.902 593.184 223.277 593.547 226.196 592.967C226.699 592.868 227.209 592.787 227.723 592.725L190.546 620.016C190.907 617.736 191.777 615.466 192.994 613.34C193.296 612.807 194.213 612.457 193.348 611.804C192.481 611.154 192.036 611.852 191.768 612.783C191.089 615.139 190.373 617.465 189.632 619.729L227.723 591.767C224.734 591.737 221.745 591.709 218.756 591.684ZM192.29 609.647C194.854 606.134 196.526 602.146 197.117 597.712C193.062 600.718 194.486 605.93 192.29 609.647ZM197.217 597.658C197.219 597.65 197.221 597.642 197.222 597.634C197.218 597.637 197.213 597.641 197.208 597.644C197.211 597.649 197.214 597.653 197.217 597.658ZM151.333 328.444C151.512 328.339 151.69 328.234 151.869 328.13C158.193 339.775 162.578 352.323 167.359 364.577C162.497 352.383 157.152 340.327 151.333 328.444ZM194.284 465.739C189.825 445.097 186.176 424.003 179.706 403.475C179.711 403.473 179.716 403.471 179.722 403.469C180.048 403.375 180.382 403.25 180.701 403.131C186.695 423.854 191.243 444.809 194.284 465.739ZM168.987 370.892C169.148 370.847 169.313 370.771 169.477 370.695C173.273 380.589 176.736 390.529 179.894 400.587C179.72 400.625 179.523 400.642 179.342 400.711C176.203 390.68 172.761 380.763 168.987 370.892ZM77.2509 474.405C76.8369 468.024 77.6111 461.671 75.3576 455.262C75.6694 461.643 75.9698 468.024 76.2587 474.405C76.5894 474.405 76.9201 474.405 77.2509 474.405ZM118.959 274.973C118.342 273.828 117.886 274.983 117.498 273.815C115.574 268.043 111.194 263.905 107.962 259.063C106.205 256.44 105.775 255.305 105.941 254.047C109.879 259.58 114.047 265.031 117.115 271.059C117.714 272.255 118.484 272.592 119.074 273.585C119.991 275.143 119.643 275.236 118.959 274.973ZM105.942 253.981C105.945 253.979 105.947 253.976 105.95 253.974C105.948 253.983 105.948 253.993 105.947 254.001C105.944 254.001 105.941 254 105.938 253.999C105.939 253.993 105.941 253.987 105.942 253.981ZM105.947 254.001C105.951 254.002 105.954 254.002 105.958 254.003C105.954 254.007 105.949 254.011 105.945 254.015C105.945 254.01 105.946 254.006 105.947 254.001ZM105.912 253.992C105.92 253.994 105.929 253.997 105.938 253.999C105.935 254.009 105.932 254.019 105.929 254.029C105.923 254.017 105.917 254.005 105.912 253.992ZM105.945 254.015C105.943 254.025 105.943 254.037 105.941 254.047C105.937 254.041 105.933 254.035 105.929 254.029C105.934 254.024 105.939 254.02 105.945 254.015ZM133.478 584.598C132.969 584.376 132.054 584.092 131.756 584.973C131.459 585.856 132.319 585.89 132.968 586.072C136.407 587.093 139.888 587.966 143.425 588.551C140.499 585.888 136.784 586.021 133.478 584.598ZM130.344 295.2C126.656 288.878 122.474 282.901 119.106 276.29C118.911 275.901 119.01 275.448 118.988 275.028C120.852 276.66 122.418 278.828 123.908 281.464C126.203 285.534 128.569 289.569 130.807 293.678C131.254 294.493 131.869 295.489 131.386 295.893C131.134 296.102 130.695 295.813 130.344 295.2ZM69.9644 345.279C71.4609 348.741 72.3697 358.069 71.6594 363.905C70.4508 357.153 70.9587 351.144 69.9644 345.279ZM81.1328 523.941C82.2678 521.699 82.3325 519.997 81.0314 517.755C79.3704 519.865 80.1095 521.771 81.1328 523.941ZM80.2284 485.048C80.2374 484.104 80.1382 483.16 79.49 483.074C78.6976 482.959 78.2034 484.304 78.5252 485.077C80.1784 488.968 78.6236 493.345 80.1538 498.467C80.1534 498.457 80.1529 498.447 80.1525 498.438C80.193 493.145 80.2041 489.082 80.2284 485.048ZM156.183 348.074C154.002 342.106 151.073 336.614 148.63 330.806C147.332 327.725 145.633 324.763 144.277 321.711C143.213 319.315 142.365 316.872 142.056 314.274C142.943 316.643 143.932 318.972 144.978 321.282C148.983 330.165 153.873 338.702 156.183 348.074ZM195.926 493.214C196.158 493.18 196.39 493.147 196.623 493.113C197.646 503.302 198.294 513.446 198.543 523.539C198.302 523.554 198.06 523.569 197.819 523.584C197.577 513.512 196.938 503.385 195.926 493.214ZM118.902 274.952C118.884 274.936 118.865 274.918 118.847 274.903C118.847 274.903 118.904 274.944 118.942 274.967C118.948 274.969 118.953 274.97 118.959 274.973C118.96 274.975 118.961 274.977 118.962 274.978C118.971 274.983 118.976 274.984 118.973 274.979C118.978 274.986 118.983 274.994 118.988 275.002C118.988 275.011 118.988 275.019 118.988 275.028C118.973 275.014 118.957 275 118.941 274.986C118.912 274.969 118.883 274.951 118.853 274.933C118.87 274.94 118.886 274.945 118.902 274.952ZM140.636 314.729C139.325 311.078 136.48 308.107 135.9 304.167C137.989 307.522 140.365 310.77 140.636 314.729ZM162.106 585.794C162.935 585.751 163.879 585.892 163.737 586.748C163.622 587.564 162.763 587.607 161.876 587.527C160.058 587.353 158.258 587.18 156.447 587.008C156.154 586.964 155.861 586.918 155.568 586.87C155.574 586.87 155.58 586.87 155.586 586.87C155.624 586.626 155.645 586.401 155.665 586.157C155.925 586.136 156.186 586.113 156.447 586.088C158.323 585.977 160.214 585.864 162.106 585.794ZM195.978 562.004C195.288 556.582 197.028 551.358 197.114 545.975C198 551.384 196.58 556.727 195.978 562.004ZM164.767 369.529C164.286 369.784 163.61 369.308 163.472 368.607C162.656 364.287 160.782 360.448 159.082 356.448C158.885 356.008 159.003 355.378 158.944 354.262C162.202 358.341 163.013 363.332 165.103 367.48C165.556 368.361 165.315 369.242 164.767 369.529ZM171.791 393.118C169.886 386.55 167.884 379.965 165.551 373.473C165.077 372.144 164.928 371.276 165.483 370.958C166.425 370.431 166.564 372.16 166.833 372.972C168.919 379.132 170.783 385.292 172.549 391.523C172.546 391.514 172.543 391.506 172.54 391.497C172.299 392.026 172.042 392.56 171.791 393.118ZM109.008 563.214C111.368 565.127 113.156 567.52 115.631 570.209C113.602 569.763 112.247 569.402 110.838 568.994C110.402 570.588 112.275 570.525 112.306 572.129C109.245 569.678 106.289 567.563 104.076 564.588C101.505 561.115 98.732 557.735 95.8453 554.461C95.8274 554.458 95.8095 554.455 95.7916 554.453C94.5298 552.985 94.8767 552.06 95.4464 550.804C95.4587 550.804 95.4708 550.802 95.4827 550.802C97.6601 551.378 99.7453 551.744 98.7697 554.687C98.4786 555.638 99.5668 555.478 99.973 555.836C102.264 557.86 105.25 558.949 106.118 562.263C106.396 563.292 108.261 562.61 109.008 563.214ZM178.237 411.279C174.727 405.242 173.197 398.655 172.554 391.58C175.091 397.907 176.67 404.603 178.237 411.279ZM172.549 391.523C172.55 391.542 172.552 391.561 172.554 391.58C172.547 391.563 172.541 391.546 172.534 391.529C172.539 391.527 172.544 391.525 172.549 391.523ZM189.242 465.821C188.23 464.823 186.845 464.712 187.077 462.618C187.813 455.822 184.806 449.905 183.637 443.562C183.563 443.123 183.506 442.68 183.414 442.164C184.595 442.323 183.849 444.152 185.032 444.746C184.638 441.381 184.257 438.145 183.074 435.11C182.915 434.721 182.329 434.378 182.343 434.211C182.53 432.356 180.873 429.434 182.14 428.788C183.387 428.122 183.748 431.382 183.99 432.65C183.992 432.658 183.994 432.667 183.996 432.675C186.18 443.599 188.442 454.433 189.242 465.821ZM68.7059 293.182C68.9285 296.676 69.807 300.027 70.5022 303.344C70.8715 305.73 71.1338 308.146 71.1498 310.631C71.1529 311.518 71.5547 312.977 70.9258 313.149C70.348 313.32 70.0975 312.062 70.0082 311.032C70.0039 311.032 69.9996 311.032 69.9953 311.032C69.7729 308.469 69.5483 305.906 69.3217 303.344C68.9274 299.993 68.7199 296.6 68.7059 293.182ZM74.6217 346.424C74.062 351.174 76.5653 355.552 76.1877 360.244C76.1933 360.253 76.199 360.263 76.2046 360.272C76.0394 362.189 76.2034 364.392 75.2034 366.137C73.8202 359.328 74.2001 353.176 73.478 347.082C73.3883 346.309 73.6073 345.366 74.1333 345.452C74.2899 345.48 74.6471 346.224 74.6217 346.424ZM76.1857 375.55C76.5042 378.955 79.9535 382.189 76.7709 385.536C75.3986 382.217 76.3663 378.898 76.1857 375.55ZM76.8672 388.797C78.4832 393.804 77.7 397.839 78.1709 401.73C77.161 397.925 76.6089 394.062 76.8672 388.797ZM95.4728 550.743C95.4686 550.753 95.4651 550.762 95.4609 550.771C95.4863 550.757 95.5117 550.742 95.537 550.727C95.5157 550.733 95.4939 550.738 95.4728 550.743ZM72.9903 328.256C73.1093 332.004 74.3092 335.953 73.5032 340.702C71.8783 335.895 72.8392 331.917 72.1292 328.083C72.1042 327.94 72.3309 327.454 72.416 327.511C72.6136 327.626 72.9567 328.027 72.9742 328.227C72.9796 328.237 72.9849 328.247 72.9903 328.256ZM133.447 576.803C135.45 577.128 135.706 579.449 137.743 578.901C137.75 578.896 137.757 578.891 137.764 578.886C137.622 579.31 137.464 579.729 137.321 580.153C136.854 580.108 136.379 580.141 135.927 580.028C129.463 578.45 123.16 575.899 117.212 572.478C116.501 572.066 115.923 571.576 116.394 570.734C117.106 569.453 117.814 570.104 118.506 570.524C121.636 572.423 125.064 573.691 128.137 575.488C129.801 576.467 131.78 576.522 133.447 576.803ZM189.4 475.854C188.532 472.568 187.509 469.919 187.412 466.957C189.737 467.599 190.988 471.914 189.4 475.854ZM191.192 502.119C189.889 500.157 190.579 498.029 190.822 496.139C190.823 496.147 190.823 496.156 190.824 496.164C191.317 492.413 191.284 488.725 190.084 485.145C192.898 490.208 192.458 496.231 193.084 501.886C193.174 502.828 193.056 503.818 192.145 503.925C191.12 504.021 191.508 502.594 191.192 502.119ZM192.631 539.699C191.737 538.143 189.632 538.267 190.842 536.498C192.523 534.027 191.876 531.64 191.354 529.467C190.599 526.38 192.626 523.906 192.011 520.8C191.246 516.839 192.858 512.462 191.413 508.383C191.1 507.521 191.219 506.404 192.157 506.377C193.095 506.349 193.092 507.486 193.146 508.406C193.37 513.148 193.836 517.942 193.408 522.597C193.401 522.606 193.395 522.614 193.389 522.623C192.898 528.1 193.588 533.507 192.631 539.699ZM161.162 578.435C162.134 577.821 162.506 578.431 162.678 578.635C164.308 580.445 166.712 580.584 168.943 579.725C171.032 578.928 171.004 580.315 171.204 580.723C171.747 581.804 169.974 581.744 169.401 581.744C165.105 581.866 160.762 582.157 156.447 582.256C154.597 582.328 152.782 582.224 151.024 581.808C148.384 581.173 145.782 582.09 143.301 581.247C143.297 581.24 143.293 581.232 143.289 581.224C141.368 580.573 138.678 581.198 138.148 578.318C138.949 576.859 139.481 581.004 139.994 577.409C140.098 576.725 141.01 576.903 141.557 577.001C145.036 577.578 148.332 578.28 151.8 579.694C153.215 580.266 154.863 580.615 156.447 580.161C158.109 579.891 159.716 579.355 161.162 578.435ZM190.581 562.867C188.606 559.34 190.375 555.927 191.09 553.32C192.09 549.608 190.531 546.75 190.949 543.388C191.035 542.614 190.375 541.429 191.331 541.226C192.247 541.018 192.661 542.177 192.62 543.358C192.626 543.367 192.633 543.375 192.639 543.383C192.393 549.755 193.029 556.201 190.581 562.867ZM197.327 579.63C197.756 579.856 198.385 577.886 199.101 579.539C199.329 580.091 199.014 580.679 197.841 580.835C190.03 581.89 182.162 581.949 174.265 581.375C174.008 581.354 173.807 580.865 173.178 580.09C179.845 579.989 185.796 578.821 192.119 579.237C193.836 579.347 195.61 578.744 197.327 579.63ZM209.801 578.358C212.777 577.796 213.034 580.096 215.094 580.441C210.803 582.389 207.111 582.445 204.107 578.454C206.453 579.55 208.142 578.669 209.801 578.358ZM180.927 599.702C180.967 598.641 180.25 596.462 183.1 597.297C183.793 597.514 183.916 596.89 183.673 596.326C183.537 596.018 183.237 595.794 183.011 595.516C185.686 592.669 184.927 588.702 185.943 585.286C186.11 584.691 186.292 583.758 187.148 584.074C187.661 584.268 187.723 584.736 187.603 585.416C185.899 595.506 183.662 605.267 180.81 614.499C180.797 614.495 180.784 614.491 180.771 614.487C180.676 614.785 180.329 615.008 179.885 615.52C179.124 613.55 179.008 611.33 179.996 610.125C182.169 607.491 181.247 604.024 182.785 601.28C183.123 600.68 183.993 599.475 182.52 599.063C181.559 598.79 181.136 599.262 180.927 599.702ZM180.752 600.194C180.788 600.076 180.837 599.892 180.927 599.702C180.919 599.935 180.877 600.113 180.752 600.194Z" fill="var(--stroke-0, #FDEEC2)"/>
<path id="t" d="M190.455 135.413C192.504 139.616 193.829 144.196 194.833 149.017C193.029 144.687 191.679 140.088 190.455 135.413ZM190.455 135.413C190.421 135.343 190.386 135.271 190.352 135.201C190.352 135.201 190.402 135.257 190.412 135.291C190.415 135.29 190.419 135.288 190.422 135.287C190.433 135.329 190.444 135.371 190.455 135.413ZM190.392 135.223C190.392 135.184 190.39 135.141 190.39 135.102C190.407 135.161 190.424 135.22 190.442 135.279C190.425 135.261 190.409 135.242 190.392 135.223ZM420.067 310.727C420.653 315.058 427.191 316.999 431.496 319.446C438.744 323.56 446.006 327.372 453.354 331.248C460.85 335.201 468.894 338.695 476.876 341.564C478.291 342.06 479.403 342.312 477.74 342.973C477.724 342.974 477.709 342.976 477.694 342.978C477.696 342.982 477.698 342.986 477.7 342.99C477.684 342.996 477.668 343.004 477.651 343.01C477.656 343 477.66 342.99 477.665 342.98C477.643 342.983 477.62 342.985 477.598 342.987C477.602 342.977 477.607 342.967 477.612 342.956C474.651 345.449 471.665 341.487 468.976 340.574C463.007 338.552 457.382 334.276 451.575 332.588C445.305 330.737 440.284 325.734 432.449 324.831C452.04 336.781 471.348 346.696 491.549 353.506C492.044 352.473 489.853 352.609 489.898 351.292C510.26 360.844 530.998 370.572 553.037 371.351C545.933 368.544 537.789 369.192 530.644 365.553C534.261 365.971 537.957 365.907 541.414 366.692C551.911 369.096 562.499 370.203 572.67 372.049C576.196 372.688 579.388 370.879 582.819 371.657C583.888 371.894 585.583 371.55 586.068 372.012C589.016 374.79 592.713 374.85 596.273 374.53L553.89 417.763C553.749 415.169 553.526 412.544 553.672 409.988C553.812 407.559 553.884 405.137 553.911 402.719C554.016 393.099 553.399 383.55 553.506 373.939C553.651 359.077 553.34 344.183 553.909 329.355C554.244 320.756 555.189 311.737 555.037 303.51C555.035 303.449 555.033 303.388 555.031 303.327C554.796 297.246 554.39 291.187 553.174 285.257C551.495 277.089 546.889 270.201 545.423 261.498C541.153 258.132 538.703 253.514 535.281 249.387C534.146 248.102 532.996 246.834 531.814 245.607C516.048 229.218 501.375 211.875 486.063 195.032C467.294 174.378 448.622 153.578 430.281 132.541C418.117 118.608 405.708 104.874 393.513 90.9721C393.028 90.4322 392.677 89.7571 392.186 89.0366C393.684 89.1699 394.579 91.6295 395.939 91.9942C394.75 90.061 393.014 87.558 391.66 87.1875C389.426 86.5789 387.989 84.4725 386.51 82.7829C385.063 81.1133 383.614 79.4448 382.166 77.7762C378.242 73.0685 373.844 68.7414 369.038 64.819C359.334 56.894 347.508 51.4075 334.991 48.122C324.187 45.2817 312.697 44.1091 301.219 45.2036C288.917 46.3698 276.674 50.0486 265.448 56.025C280.023 48.6804 296.045 45.1947 311.657 45.572C311.642 45.7457 311.629 45.9303 311.588 46.1036C293.655 46.1663 274.413 50.3315 259.053 61.2204C259.139 61.336 259.226 61.4517 259.313 61.5673C266.37 57.3964 273.879 54.139 281.549 51.9512C283.893 51.2774 286.259 50.3663 288.644 50.3137C287.849 51.4127 285.378 51.4218 283.888 52.134C284.451 52.3103 285.847 51.405 286.345 51.8299C286.181 51.9307 286.034 52.077 285.824 52.1307C279.08 54.0904 272.432 56.6297 265.824 59.5314C264.287 60.2128 263.268 60.9278 262.278 61.784C259.371 64.2619 254.255 67.5309 251.157 68.862C249.578 69.5293 249.647 68.6758 250.302 67.6567C251.296 66.0906 250.918 65.681 248.963 66.5197C247.802 67.025 247.573 66.8812 248.117 65.9597C249.633 63.472 249.414 63.3926 244.824 67.0796C249.083 62.6837 247.147 63.3721 245.362 63.2107C242.867 62.9348 237.829 64.9607 241.592 58.7931C242.084 58.0139 241.928 56.6367 240.431 56.6977C238.809 56.7607 236.702 56.7403 237.967 53.799C238.161 53.363 238.859 52.4309 239.439 51.897C245.266 46.7266 243.575 46.447 242.293 46.2569C239.043 45.838 239.109 42.7658 239.781 38.9965C240.136 36.9903 239.36 35.7827 239.713 33.7253C240.081 31.4224 245.401 26.9764 249.436 23.9932C257.343 18.0335 266.367 13.3875 275.793 10.0487C280.001 8.54436 284.599 6.91644 288.925 5.43494C296.468 2.83726 303.701 2.5095 311.449 1.41175C314.371 1.00122 316.711 0.619049 318.954 2.06433e-07C322.297 1.40928 327.666 0.071541 332.015 0.42066C336.382 0.753988 341.058 1.328 345.415 0.952782C348.528 0.688174 349.514 2.14225 352.261 2.63578C367.086 5.3194 381.461 10.9637 394.954 17.9185C402.089 21.5863 408.599 26.0579 414.33 30.9867C416.965 33.2481 419.495 35.5323 422.01 37.9321C435.081 50.2786 449.075 61.8102 462.122 74.1832C468.678 80.3958 475.151 87.5771 483.191 92.6778C486.36 94.6817 489.086 97.8756 491.802 100.704C496.284 105.356 500.718 109.916 506.095 113.906C511.258 117.736 514.949 123.179 520.097 127.305C526.854 132.71 532.874 138.855 539.043 144.895C541.942 147.727 544.84 150.701 548.722 151.573C551.282 152.134 548.999 153.766 550.99 155.271C554.815 158.155 558.491 161.376 562.128 164.542C569.611 171.039 576.239 178.159 582.573 185.619C585.003 188.486 587.924 191.241 590.912 193.755C591.959 194.675 592.995 195.589 594.013 196.494C597.35 199.456 599.307 203.906 603.196 205.937C603.55 208.341 604.563 211.986 606.986 213.377C610.901 215.625 612.561 219.373 614.978 222.975C619.74 230.071 624.495 237.316 626.483 245.738C626.932 247.658 628.437 247.27 629.216 249.564C630.688 253.84 632.304 258.581 633.614 262.411C637.042 272.33 636.344 283.1 639.908 292.955C641.006 295.964 640.416 299.838 640.33 303.51C640.32 303.834 640.319 304.156 640.333 304.476C640.621 311.758 641.61 319.239 640.137 326.356C638.509 334.133 639.794 342.008 640.261 349.587C640.519 353.871 639.701 359.177 641.9 363.065C639.677 365.24 641.759 370.38 639.265 372.752C637.703 374.235 638.795 377.597 639.433 379.211C641.755 385.011 641.644 389.097 641.386 395.424C641.289 397.811 641.001 400.25 640.837 402.719C640.566 406.793 640.631 410.951 642.438 415.095C642.747 415.802 642.833 416.718 642.791 417.763L642.664 462.654L598.038 463.414C594.67 463.375 590.126 462.345 586.391 462.164C583.087 462.019 578.909 461.877 576.16 460.163C575.269 459.596 574.242 459.442 573.271 460.042C568.58 462.834 563.645 460.375 559.267 458.947C555.319 457.655 552.324 455.518 548.465 457.962C547.213 458.73 544.064 457.996 542.163 457.236C537.031 455.194 537.098 455.122 531.92 455.255C531.112 455.268 530.122 455.031 529.292 454.764C520.31 451.983 510.948 450.971 502.29 446.509C496.164 443.368 487.693 440.144 481.461 439.447C474.094 438.637 468.668 434.887 462.38 432.708C454.961 430.147 447.542 426.786 440.74 422.877C425.821 414.334 410.185 407.26 396.642 396.951C395.331 395.945 393.706 394.496 392.123 395.005C391.166 395.322 389.47 394.096 389.063 393.526C384.153 386.538 375.865 383.532 369.418 378.63C351.684 365.161 334.495 351.182 318.732 335.651C309.663 326.729 300.523 317.891 292.325 308.238C285.361 300.04 278.427 291.969 271.818 283.566C269.948 281.19 268.123 278.809 266.322 276.383C260.596 268.668 255.125 260.533 249.196 253.003C247.011 250.251 243.344 246.987 243.809 243.145C243.801 243.106 237.574 235.396 237.478 235.2C236.911 234.394 236.3 233.618 235.863 232.769C229.068 220.045 221.601 208.117 215.346 195.382C206.466 177.332 199.128 158.481 192.756 139.484C190.795 133.625 189.64 127.412 187.465 121.042C187.933 125.944 190.329 130.889 190.39 135.102C187.652 125.819 185.092 116.303 183.657 107.028C183.183 103.98 182.543 100.784 181.975 97.6145L178.753 80.7821L188.096 73.2153C192.384 69.8653 196.702 66.621 200.845 64.7671C201.806 64.33 202.648 63.3065 203.38 62.594C205.776 60.2838 207.438 59.662 207.343 60.4991C207.17 62.3299 209.078 60.7903 211.872 58.3653C212.844 57.5197 214.167 56.2785 214.836 56.2945C215.383 56.2831 214.489 57.2061 213.649 58.0441C212.128 59.552 209.678 61.7623 211.211 61.525C212.3 61.3557 214.353 60.4716 216.719 57.8516C216.833 57.7324 217.24 57.5339 217.617 57.306C217.452 58.3063 215.591 59.801 214.052 61.244C216.963 60.0545 219.179 59.3346 218.035 62.0592C217.781 62.6428 218.349 62.5116 216.987 63.7593C214.164 66.3418 214.417 66.5488 216.272 66.0273C218.63 65.3563 222.112 63.665 220.073 67.4037C219.922 67.6725 220.058 67.856 220.327 67.7518C222.941 66.7781 223.725 67.2355 222.628 70.0531C221.901 71.8888 225.94 69.1235 228.531 67.1475C234.32 62.7346 238.762 61.1134 240.126 62.4776C240.126 62.4777 240.126 62.4778 240.126 62.4778C240.584 62.9359 240.705 63.7321 240.43 64.88C239.765 67.5704 237.871 71.9674 242.657 69.111C233.889 79.98 225.229 90.8504 216.589 101.708L220.543 85.9452C230.196 108.06 241.687 129.077 254.295 149.382C273.768 180.64 295.509 210.386 321.039 236.226C317.974 231.849 313.698 228.362 310.78 223.945C310.542 223.582 310.554 223.181 310.207 221.934C315.094 227.525 320.095 233 325.207 238.358C325.775 238.953 326.344 239.547 326.914 240.138C327.448 240.693 328.082 241.324 327.196 241.275C324.64 241.154 327.532 242.655 327.761 242.658C330.116 242.738 331.76 244.787 333.19 246.787C335.09 249.421 337.687 251.095 339.97 253.182C350.432 262.734 361.195 271.899 372.289 280.547C376.598 283.906 380.707 287.697 385.675 290.457C388.576 292.065 387.745 289.005 390.051 290.52C392.689 292.244 389.421 293.156 392.108 294.974C394.886 296.847 397.328 299.239 400.566 301.017C400.297 300.08 400.089 299.362 399.678 297.928C405.544 304.783 412.613 307.677 420.067 310.727ZM528.913 451.326C521.992 448.446 514.685 447.737 507.73 445.499C514.371 448.713 521.748 449.738 528.913 451.326ZM480.248 435.915C486.551 440.119 494.114 441.769 501.45 443.774C494.401 441.06 486.943 439.352 480.248 435.915ZM550.196 455.155C562.776 457.112 575.635 458.33 588.766 458.57C588.731 458.304 588.697 458.039 588.662 457.773C575.61 457.53 562.825 456.318 550.312 454.373C550.273 454.634 550.234 454.894 550.196 455.155ZM636.984 403.431C636.984 408.209 637.259 412.986 637.415 417.763L637.303 457.369L597.932 458.039C597.117 458.078 596.302 458.11 595.485 458.135C596.302 458.167 597.119 458.199 597.935 458.226L637.49 457.553L637.603 417.763C637.907 412.948 638.196 408.127 636.984 403.431ZM218.594 128.502C214.619 114.167 209.375 102.413 204.875 90.6858L204.803 90.3045L205.014 90.1331C205.51 89.5576 206.006 88.9834 206.501 88.4105C205.914 88.8933 205.331 89.3804 204.753 89.8716L204.4 90.1573L204.521 90.7929C207.256 103.528 212.292 115.667 218.594 128.502ZM355.601 49.8121C359.516 52.3754 362.167 54.43 366.095 54.7828C362.723 52.5918 359.791 50.7174 355.601 49.8121ZM403.466 91.1793C408.133 98.8616 413.666 104.093 419.69 108.647C414.809 102.623 409.572 97.1425 403.466 91.1793ZM368.808 62.9131C369.489 63.4663 370.167 64.0573 370.628 63.9371C371.01 63.8409 371.052 63.3096 371.135 62.8982C371.165 62.6149 370.785 62.1245 370.334 62.0744C366.936 61.7525 365.192 58.2827 362.252 56.9903C363.972 57.2556 365.386 59.1303 367.716 59.6743C362.018 55.2446 355.945 54.5187 350.408 50.9569C350.401 50.9493 350.394 50.9418 350.387 50.9342C351.828 53.0075 354 53.2118 355.773 54.1923C360.388 56.7601 364.775 59.6437 368.808 62.9131ZM329.242 44.6062C334.224 46.0159 338.38 46.9615 342.539 48.0238C338.429 46.9448 334.537 44.3403 329.242 44.6062ZM553.2 265.629C553.112 265.755 553.368 266.734 554.019 266.743C554.716 266.756 555.008 266.222 555.044 265.486C555.163 262.911 553.539 260.746 552.396 257.344C552.39 257.347 552.385 257.351 552.379 257.354C552.046 258.487 551.818 258.792 551.882 259.09C552.315 261.249 555.183 263.261 553.2 265.629ZM387.61 80.5502C386.348 79.0744 385.147 77.5358 383.927 76.0157C382.207 73.7524 380.311 71.6258 377.862 70.1655C379.9 72.1028 381.841 74.1202 383.706 76.2359C385.007 77.6745 386.308 79.1126 387.61 80.5502ZM392.76 86.6456C395.922 90.5207 398.902 94.5311 402.909 97.4673C399.592 93.7481 396.878 89.3789 392.76 86.6456ZM473.296 174.573C475.581 176.481 475.7 179.857 477.044 180.424C481.598 182.36 483.475 186.84 486.621 190.005C483.153 184.18 479.464 178.524 473.296 174.573ZM413.194 109.271C416.032 112.211 415.712 115.607 419.315 118.715C419.894 115.014 415.98 112.217 413.194 109.271ZM494.937 201.536C495.085 201.668 495.246 201.787 495.372 201.895C499.651 205.351 503.09 209.648 506.553 213.874C508.015 215.673 509.52 216.032 510.275 215.511C511.17 214.896 509.48 213.51 508.682 212.584C503.629 206.591 497.659 201.471 492.664 195.327C491.103 193.406 488.808 191.947 486.849 190.282C485.652 191.255 487.739 192.204 488.345 193.216C489.867 195.794 492.062 196.35 493.891 197.876C496.383 199.951 496.495 200.864 494.937 201.536ZM543.955 257.52C543.055 258.777 544.09 258.345 544.473 258.046C544.917 257.698 545.645 258.771 545.929 257.723C545.625 257.331 545.245 256.938 544.97 256.47C544.718 256.067 544.249 255.634 544.562 255.109C544.566 255.116 544.571 255.122 544.575 255.128C549.167 258.432 548.947 264.967 552.704 268.849C549.601 260.524 545.033 252.497 538.655 246.012C536.53 243.86 534.372 241.738 532.174 239.654C531.338 238.858 530.245 238.367 529.732 237.249C526.809 231.038 520.914 226.914 516.627 221.695C515.282 220.056 514.112 219.876 512.26 219.724C517.907 224.935 522.791 229.837 526.384 235.75C526.949 236.677 527.886 237.558 528.679 238.395C531.557 241.384 534.463 244.344 537.334 247.334C539.613 249.75 541.69 252.35 543.416 255.167C543.892 255.957 544.68 256.521 543.955 257.52ZM244.529 71.8211C242.471 74.86 231.557 88.8623 219.394 104.513L224.34 84.7965C235.004 108.996 250.78 134.465 251.768 137.007C241.137 120.703 232.069 102.877 223.578 85.027L218.831 103.95C219.703 102.786 220.571 101.621 221.434 100.455C228.237 91.2269 235.064 81.7437 243.407 72.8438C243.741 72.4786 244.087 72.2181 244.529 71.8211ZM554.316 279.094C556.551 286.206 557.707 293.621 557.826 301.031C557.835 301.864 557.791 302.704 557.853 303.51C557.936 305.106 558.225 306.604 559.082 307.833C559.082 307.823 559.082 307.813 559.082 307.804C560.021 306.673 559.789 305.003 559.799 303.51C559.799 303.49 559.799 303.47 559.8 303.45C560.036 295.041 558.904 286.583 556.552 278.444C556.234 277.386 556.133 275.971 554.918 276.255C553.476 276.603 553.925 277.862 554.316 279.094ZM343.985 52.2482C335.682 49.4936 326.987 47.5108 317.984 46.2259C327.015 46.475 335.896 48.6698 343.985 52.2482ZM558.155 403.431C557.156 407.814 558.506 412.23 557.903 416.645C559.954 412.197 558.747 407.814 558.155 403.431ZM557.123 350.115C558.623 347.644 558.987 344.908 558.406 341.547C557.768 337.823 557.907 333.803 558.631 329.981C558.781 329.157 559.576 328.367 558.572 327.807C557.568 327.246 557.315 328.333 557.301 329.684C557.232 336.494 557.173 343.305 557.123 350.115ZM557.003 325.302C558.615 319.781 559.362 314.036 559.091 308.066C555.683 313.092 558.201 319.683 557.003 325.302ZM559.18 307.969C559.18 307.958 559.18 307.947 559.18 307.936C559.176 307.942 559.172 307.948 559.168 307.953C559.172 307.959 559.176 307.964 559.18 307.969ZM368.224 66.8285C368.339 66.6564 368.454 66.4843 368.569 66.3122C373.392 69.7859 377.634 74.0006 381.332 78.6103C386.757 85.0279 392.107 91.5215 397.691 97.8203C392.089 91.5661 386.497 85.3015 380.916 79.0265C377.1 74.5771 372.858 70.4875 368.224 66.8285ZM483.993 194.725C465.204 175.954 448.247 155.49 430.297 135.926C430.3 135.923 430.304 135.919 430.308 135.915C430.571 135.699 430.823 135.446 431.064 135.206C448.65 155.134 466.274 174.977 483.993 194.725ZM402.386 104.234C402.526 104.141 402.655 104.012 402.783 103.884C411.443 113.539 420.127 123.169 428.837 132.774C428.689 132.875 428.507 132.963 428.37 133.1C419.684 123.503 411.022 113.881 402.386 104.234ZM383.355 292.671C377.872 288.629 373.307 283.612 366.716 280.64C371.982 285.033 377.313 289.293 382.718 293.432C382.931 293.178 383.143 292.924 383.355 292.671ZM312.709 48.8969C311.457 48.7658 312.143 49.7886 311 49.4644C305.301 47.8842 299.612 49.6673 294.028 50.5087C290.975 50.9822 289.799 50.9519 288.705 50.3075C295.252 48.8176 301.977 47.6552 308.554 48.2883C309.849 48.4239 310.526 47.965 311.652 48.0253C313.41 48.1349 313.288 48.483 312.709 48.8969ZM288.644 50.2813C288.643 50.2781 288.642 50.275 288.641 50.2719C288.649 50.2764 288.658 50.2802 288.665 50.2846C288.663 50.2872 288.661 50.2898 288.66 50.2924C288.655 50.2887 288.649 50.285 288.644 50.2813ZM288.665 50.2846C288.667 50.2815 288.669 50.2784 288.671 50.2752C288.673 50.2808 288.675 50.2864 288.677 50.2921C288.673 50.2897 288.669 50.2871 288.665 50.2846ZM288.644 50.3137C288.649 50.3067 288.655 50.2995 288.66 50.2924C288.668 50.299 288.676 50.3057 288.683 50.3124C288.67 50.3128 288.657 50.3133 288.644 50.3137ZM288.677 50.2921C288.686 50.2974 288.696 50.3023 288.705 50.3075C288.698 50.3091 288.691 50.3108 288.683 50.3124C288.681 50.3056 288.679 50.2988 288.677 50.2921ZM557.548 371.265C556.704 371.071 555.204 370.841 555.065 371.761C554.928 372.683 556.229 372.656 557.259 372.798C562.747 373.611 568.22 374.344 573.626 374.832C568.754 372.232 563.008 372.504 557.548 371.265ZM334.415 52.9463C327.752 51.1462 320.875 50.5341 313.835 49.5233C313.422 49.4609 313.116 49.1231 312.768 48.9037C315.079 48.2855 317.691 48.2806 320.582 48.7281C325.04 49.4238 329.445 50.2967 333.715 51.5532C334.565 51.7992 335.644 52.0689 335.577 52.696C335.541 53.0212 335.055 53.1257 334.415 52.9463ZM286.189 193.951C289.474 196.3 295.829 204.117 298.931 209.64C293.709 204.398 290.485 198.731 286.189 193.951ZM431.367 323.546C429.224 320.566 426.973 318.883 423.219 317.862C425.032 321.14 427.846 322.24 431.367 323.546ZM393.994 297.495C393.22 296.869 392.381 296.324 391.904 296.773C391.313 297.315 392.118 298.592 392.959 298.848C397.217 300.115 399.933 304.187 405.2 306.194C405.192 306.188 405.183 306.183 405.175 306.177C400.712 302.808 397.325 300.166 393.994 297.495ZM378.735 82.449C378.552 82.2183 378.368 81.9885 378.183 81.7594C374.9 77.3603 370.809 73.7881 366.771 70.1008C362.717 66.4232 357.65 64.0901 354.143 59.7646C363.047 66.3214 372.742 72.3018 378.239 81.7031C378.406 81.9509 378.571 82.1995 378.735 82.449ZM506.082 221.428C506.248 221.262 506.414 221.096 506.58 220.93C515.435 230.421 524.316 239.885 533.224 249.322C533.053 249.493 532.882 249.664 532.711 249.836C523.807 240.394 514.931 230.925 506.082 221.428ZM312.661 48.9326C312.639 48.9388 312.615 48.9439 312.592 48.9501C312.592 48.9501 312.656 48.9259 312.694 48.9079C312.7 48.9043 312.704 48.9005 312.709 48.8969C312.711 48.8972 312.713 48.8974 312.715 48.8976C312.724 48.8928 312.726 48.8893 312.721 48.889C312.73 48.8893 312.739 48.8896 312.747 48.8899C312.755 48.8944 312.761 48.8991 312.768 48.9037C312.749 48.9089 312.729 48.914 312.71 48.9193C312.68 48.9335 312.65 48.9477 312.62 48.962C312.634 48.9522 312.647 48.9423 312.661 48.9326ZM353.251 60.9514C350.381 58.787 346.631 58.2494 343.913 55.6733C347.401 56.8283 351.057 57.9412 353.251 60.9514ZM551.233 415.359C551.19 414.404 551.331 413.316 552.187 413.48C553.003 413.612 553.046 414.601 552.966 415.623C552.907 416.338 552.848 417.051 552.788 417.763L596.251 373.429C594.75 373.3 593.239 373.152 591.701 372.985C591.71 372.985 591.718 372.985 591.727 372.985C591.781 372.741 591.809 372.516 591.837 372.272C593.309 372.189 594.774 372.078 596.222 371.967L551.326 417.763C551.291 416.963 551.259 416.161 551.233 415.359ZM548.777 277.582C546.265 273.834 545.789 269.292 543.505 265.429C546.629 268.792 547.498 273.415 548.777 277.582ZM397.456 103.899C397.095 104.307 396.176 103.966 395.694 103.237C392.776 98.7456 389.03 94.989 385.465 91.0049C385.063 90.5682 384.896 89.8494 384.334 88.6409C389.493 92.336 392.69 97.6205 396.799 101.574C397.683 102.414 397.87 103.438 397.456 103.899ZM416.75 127.479C411.263 120.989 405.801 114.426 400.208 107.996C399.062 106.674 398.481 105.764 398.884 105.266C399.576 104.435 400.571 106.283 401.25 107.095C406.41 113.212 411.499 119.354 416.623 125.507C416.616 125.499 416.608 125.491 416.601 125.483C416.651 126.131 416.69 126.793 416.75 127.479ZM507.554 352.046C512.547 353.555 517.168 355.784 522.769 358.219C519.427 358.083 517.275 357.986 514.965 357.846C515.587 359.632 518.166 359.175 519.364 360.864C513.3 358.884 507.627 357.365 502.112 354.811C495.724 351.842 488.893 349.104 482.118 346.756C482.094 346.76 482.07 346.764 482.047 346.769C479.052 345.709 478.456 344.589 477.7 342.99C477.714 342.984 477.726 342.978 477.74 342.973C480.845 342.674 483.861 342.319 485.811 345.874C486.459 347.009 487.614 346.442 488.493 346.69C493.376 348.063 498.482 348.391 502.729 351.751C504.023 352.779 505.962 351.567 507.554 352.046ZM433.412 144.788C426.471 139.646 421.158 133.014 416.66 125.568C422.621 131.598 427.963 138.247 433.412 144.788ZM416.623 125.507C416.635 125.528 416.648 125.548 416.66 125.568C416.644 125.552 416.628 125.535 416.612 125.519C416.616 125.515 416.619 125.511 416.623 125.507ZM479.611 197.337C477.992 196.813 476.677 197.381 475.37 195.101C471.163 187.751 464.343 183.012 458.961 176.837C458.598 176.409 458.246 175.968 457.816 175.466C459.009 175.112 459.554 177.364 461.043 177.459C458.394 174.097 455.942 170.909 452.838 168.188C452.435 167.845 451.665 167.73 451.569 167.547C450.531 165.509 447.111 163.104 447.894 161.902C448.642 160.688 451.045 163.971 452.094 165.205C452.101 165.213 452.108 165.222 452.116 165.23C461.195 175.816 470.662 186.062 479.611 197.337ZM255.253 142.611C259.349 148.987 264.371 154.398 268.082 161.153C268.541 161.998 269.645 163.181 269.183 163.646C268.765 164.085 267.894 163.018 267.284 162.077C267.28 162.079 267.277 162.081 267.273 162.083C263.123 155.697 259.113 149.205 255.253 142.611ZM290.764 192.44C293.095 197.023 297.793 199.494 300.358 203.815C300.369 203.82 300.38 203.826 300.39 203.831C301.43 205.603 302.927 207.423 303.212 209.527C297.817 204.409 294.389 198.73 290.194 193.657C289.663 193.012 289.294 192.043 289.785 191.833C289.933 191.774 290.667 192.246 290.764 192.44ZM309.984 217.05C312.442 219.776 317.264 220.373 316.975 225.137C313.699 223.21 312.283 219.796 309.984 217.05ZM319.224 227.803C323.133 230.477 325.271 233.603 327.699 236.248C328.132 236.717 328.573 237.17 329.034 237.6C328.508 237.224 327.989 236.838 327.476 236.437C324.671 234.25 322.032 231.641 319.224 227.803ZM477.663 342.913C477.668 342.925 477.675 342.937 477.68 342.949C477.693 342.922 477.705 342.896 477.718 342.869C477.7 342.885 477.68 342.898 477.663 342.913ZM279.05 176.756C281.215 180.159 284.445 183.149 286.495 187.883C282.352 184.387 280.931 180.212 278.215 177.037C278.115 176.917 278.043 176.351 278.148 176.361C278.381 176.367 278.896 176.562 279.021 176.738C279.031 176.744 279.04 176.75 279.05 176.756ZM554.584 363.281C558.057 363.526 559.251 365.882 562.401 365.25C562.411 365.244 562.421 365.239 562.431 365.233C562.336 365.67 562.214 366.104 562.119 366.541C561.345 366.513 560.582 366.565 559.83 366.471C548.916 365.148 537.827 363.051 526.704 360.368C525.378 360.046 524.19 359.625 524.279 358.651C524.406 357.169 525.949 357.753 527.286 358.097C533.346 359.654 539.537 360.633 545.361 362.258C548.55 363.151 551.723 363.073 554.584 363.281ZM487.172 207.531C483.935 204.618 481.087 202.432 478.829 199.424C481.363 198.941 485.559 202.667 487.172 207.531ZM509.359 233.015C506.681 231.826 505.521 229.304 504.198 227.272C504.206 227.28 504.213 227.288 504.221 227.297C501.576 223.231 498.687 219.595 494.869 216.61C501.175 220.183 505.583 226.446 510.708 231.667C511.551 232.548 512.273 233.598 511.624 234.247C510.873 234.952 510.006 233.301 509.359 233.015ZM537.008 263.671C535.581 263.177 533.94 264.501 534.132 262.69C534.379 260.157 532.711 259.045 531.269 258.086C530.231 257.401 529.799 256.376 529.342 255.326C528.373 253.77 527.417 252.2 525.831 250.89C521.784 247.527 519.3 242.229 514.743 239.096C513.772 238.437 512.941 237.264 513.672 236.673C514.403 236.082 515.338 237.197 516.147 238.066C520.286 242.594 524.73 246.958 528.477 251.739C528.48 251.751 528.483 251.764 528.486 251.777C529.132 252.597 529.798 253.398 530.479 254.189C532.732 257.082 535.337 259.79 537.008 263.671ZM543.875 416.446C543.261 415.326 543.87 414.898 544.074 414.7C545.884 412.822 546.023 410.054 545.165 407.484C544.367 405.079 545.755 405.111 546.162 404.88C547.243 404.254 547.183 406.297 547.183 406.956C547.271 410.541 547.448 414.155 547.577 417.763L596.148 368.218C592.337 368.474 588.381 368.499 584.522 367.942C580.26 367.322 576.196 368.272 572.069 367.477C572.06 367.47 572.052 367.462 572.044 367.454C568.761 366.829 564.678 367.559 562.879 364.641C563.762 363.13 565.879 367.333 565.663 363.663C565.628 362.963 567.216 363.124 568.16 363.212C574.199 363.736 579.885 364.42 585.603 365.821C588.918 366.641 592.968 366.983 596.087 365.151L544.509 417.763C544.322 417.314 544.111 416.874 543.875 416.446ZM544.116 280.349C541.162 278.651 541.584 275.62 541.234 273.493C540.732 270.506 538.219 269.347 537.196 266.989C536.947 266.443 535.9 266.059 536.603 265.392C537.271 264.742 538.122 265.266 538.586 266.06C538.594 266.062 538.603 266.064 538.612 266.066C541.087 270.339 544.178 274.636 544.116 280.349ZM545.07 374.795C545.295 374.301 543.325 373.576 544.979 372.752C545.53 372.489 546.118 372.852 546.274 374.202C547.329 383.198 547.388 392.26 546.814 401.355C546.794 401.652 546.304 401.882 545.529 402.607C545.428 394.929 544.26 388.075 544.676 380.793C544.786 378.816 544.184 376.772 545.07 374.795ZM543.798 360.428C543.236 357.002 545.535 356.705 545.88 354.332C547.828 359.275 547.884 363.526 543.893 366.986C544.989 364.284 544.108 362.339 543.798 360.428ZM543.644 315.355C543.452 313.841 542.307 310.979 545.267 311.33C545.989 311.429 545.984 310.54 545.635 309.815C545.44 309.419 545.103 309.188 544.827 308.859C545.582 307.129 545.87 305.334 545.957 303.51C546.108 301.723 545.573 299.922 545.742 298.142C545.78 297.659 545.753 296.921 546.656 296.979C547.198 297.019 547.361 297.364 547.389 297.911C547.503 299.776 547.542 301.643 547.506 303.51C547.384 314.443 547.301 325.365 547.238 336.307C547.224 336.307 547.211 336.307 547.197 336.307C547.192 336.769 546.923 337.23 546.65 338.153C545.341 335.681 544.613 332.551 545.247 330.475C546.639 325.862 544.906 321.413 545.801 316.998C545.997 316.042 546.59 314.098 545.064 313.966C544.067 313.874 543.753 314.667 543.644 315.355ZM543.58 316.108C543.589 315.929 543.597 315.652 543.644 315.355C543.686 315.687 543.684 315.954 543.58 316.108Z" fill="var(--stroke-0, #FDEEC2)"/>
<path id="r" d="M217.97 346.552C212.705 347.935 207.171 348.562 201.461 348.852C206.81 347.691 212.372 347.041 217.97 346.552ZM217.97 346.552C218.058 346.529 218.148 346.506 218.237 346.482C218.237 346.482 218.16 346.523 218.12 346.528C218.12 346.531 218.121 346.535 218.122 346.539C218.071 346.543 218.02 346.548 217.97 346.552ZM218.202 346.519C218.247 346.525 218.295 346.529 218.341 346.535C218.269 346.543 218.197 346.551 218.126 346.56C218.151 346.546 218.176 346.532 218.202 346.519ZM99.8627 561.566C98.6488 565.418 103.658 568.311 106.69 570.882C111.786 575.275 117.387 578.861 123.28 581.864C129.325 584.951 136.087 586.821 142.763 587.387C143.948 587.477 144.84 587.392 143.65 588.493C143.638 588.499 143.627 588.505 143.615 588.51C143.617 588.514 143.62 588.517 143.622 588.52C143.61 588.531 143.599 588.542 143.586 588.553C143.589 588.543 143.591 588.532 143.593 588.521C143.576 588.529 143.558 588.538 143.541 588.546C143.543 588.535 143.546 588.524 143.548 588.513C141.575 591.721 138.532 588.667 136.314 588.371C131.191 587.718 126.473 584.443 121.659 583.295C116.333 581.966 112.794 577.369 106.127 575.904C120.711 588.773 138.994 595.275 157.01 593.86C157.067 592.72 155.383 593.667 155.03 592.422C155.84 592.484 156.656 592.538 157.477 592.582C185.809 593.535 213.88 596.157 242.163 592.98C231.821 591.533 221.401 594.018 210.865 592.415C215.689 591.854 220.513 590.872 225.337 590.84C239.963 590.762 254.667 590.03 269.254 590.818C274.348 591.094 278.594 589.037 283.688 589.625C285.231 589.802 287.663 589.385 288.397 589.831C295.42 594.021 304.257 591.637 312.477 592.037C315.322 592.178 318.159 592.25 320.991 592.276C332.257 592.382 343.44 591.765 354.697 591.872C372.101 592.017 389.545 591.706 406.911 592.275C417.099 592.614 427.79 593.576 437.515 593.397C448.706 593.177 459.859 593.539 470.895 593.816C474.644 593.916 478.42 593.897 482.202 593.87C489.61 593.778 496.566 592.618 504.171 593.123C510.519 589.049 517.999 587.677 524.458 583.624C539.367 574.342 552.366 560.511 558.828 543.213C561.634 535.731 563.344 527.768 563.869 519.524C564.775 499.548 565.78 479.573 566.929 459.625L577.914 483.412C577.216 482.735 576.511 482.058 575.8 481.382C561.736 468.05 545.646 456.205 528.659 445.481C527.99 445.069 527.409 444.49 526.665 443.903C528.237 443.654 529.951 445.859 531.457 445.899C529.619 444.262 527.003 442.226 525.491 442.21C522.995 442.177 520.832 440.512 518.705 439.263C509.243 433.642 499.464 428.434 489.482 423.505C473.745 415.742 457.133 409.455 440.344 403.758C425.847 398.849 411.081 394.437 396.088 390.948C380.003 387.208 363.576 384.407 347.031 382.477C368.22 385.322 389.069 389.532 409.464 395.094C409.395 395.256 409.324 395.429 409.218 395.581C385.413 389.658 360.826 384.087 336.214 382.597C336.208 382.741 336.203 382.885 336.197 383.03C346.944 384.346 357.646 386.004 368.199 388.061C371.443 388.688 374.853 389.057 377.826 390.138C376.242 390.74 373.166 389.546 370.928 389.411C371.513 389.851 373.76 389.753 374.132 390.368C373.871 390.376 373.604 390.432 373.313 390.375C363.82 388.756 354.272 387.22 344.767 385.505C342.559 385.111 340.884 385.038 339.129 385.081C334.003 385.205 325.887 384.238 321.724 383.029C319.602 382.412 320.462 381.849 321.999 381.567C324.36 381.117 324.336 380.561 321.753 379.82C320.217 379.379 320.142 379.115 321.462 378.83C325.077 378.059 324.877 377.918 317.467 377.324C325.217 377.174 322.81 376.277 321.342 374.939C319.284 373.011 313.353 370.919 321.734 369.141C322.81 368.919 323.785 367.809 322.448 366.824C320.997 365.749 319.29 364.275 322.68 363.025C323.187 362.843 324.51 362.642 325.402 362.643C334.331 362.728 333.034 361.29 332.08 360.338C329.604 357.884 331.964 355.635 335.101 353.178C336.771 351.863 336.942 350.438 338.591 349.061C340.41 347.521 347.611 347.278 352.816 347.09C363.055 346.694 373.406 347.211 383.611 348.269C388.209 348.739 393.164 349.08 397.861 349.283C405.989 349.609 413.076 351.527 421.042 352.449C424.029 352.793 426.426 352.956 428.791 352.838C431.822 354.953 437.439 354.661 441.736 355.65C446.04 356.638 450.722 357.767 455.109 357.749C458.229 357.73 459.145 359.248 461.883 359.882C476.656 363.288 491.236 367.943 505.736 372.401C513.413 374.763 520.686 377.544 527.598 380.658C551.227 391.311 575.353 402.365 597.398 417.512C604.809 422.613 612.151 428.622 619.887 434.135L632.411 446.058L631.659 459.625C631.904 462.143 632.243 464.652 632.72 467.139C633.544 471.423 633.213 476.325 633.133 480.918C633.013 488.481 632.924 495.929 633.905 503.686C634.563 508.908 634.158 514.187 634.099 519.524C634.074 522.509 634.028 525.467 634.071 528.482C634.26 541.73 631.672 554.97 627.55 567.686C625.627 573.669 623.163 579.553 622.855 585.215C622.641 588.954 620.471 587.112 619.027 590.683C616.202 597.553 612.456 604.25 608.301 610.561C599.771 623.552 588.601 634.445 575.978 643.037C569.841 647.222 563.243 651.868 556.868 655.979C552.487 658.819 546.96 659.887 543.311 663.358C540.573 663.196 536.215 663.401 533.795 665.483C529.876 668.855 525.14 669.585 520.256 671.029C510.645 673.873 500.802 676.402 490.754 675.68C488.464 675.509 488.33 677.061 485.502 677.069C484.423 677.073 483.318 677.076 482.202 677.076C479.005 677.074 475.705 677.203 472.942 677.421C464.027 678.148 454.881 675.709 446.197 678.624C443.265 679.625 439.521 678.575 436.048 678.698C427.519 678.986 418.759 679.975 410.423 678.503C401.315 676.874 392.092 678.16 383.216 678.627C378.199 678.885 371.985 678.066 367.431 680.266C364.884 678.042 358.865 680.125 356.086 677.63C354.35 676.069 350.413 677.161 348.522 677.798C341.73 680.12 336.944 680.009 329.534 679.752C326.739 679.654 323.882 679.367 320.991 679.203C316.219 678.932 311.35 678.996 306.496 680.804C303.447 681.941 297.079 680.051 292.024 679.933C288.744 679.861 284.691 679.907 281.835 678.368C280.909 677.855 279.867 677.769 278.941 678.436C274.503 681.549 269.409 679.567 264.855 678.666C260.803 677.848 257.368 676.143 253.895 679.14C252.776 680.085 249.496 679.857 247.45 679.435C241.932 678.315 242.009 678.237 236.799 679.382C235.989 679.556 234.946 679.526 234.059 679.436C224.449 678.578 214.802 679.895 204.884 678.043C197.822 676.731 188.251 676.288 181.844 677.723C174.242 679.416 167.527 677.853 160.503 678.205C159.499 678.256 158.49 678.3 157.477 678.336C147.463 678.608 137.101 677.485 127.415 675.038C103.296 669.047 79.4788 659.395 61.1694 642.799C59.388 641.186 57.2482 638.916 55.2377 638.856C54.016 638.837 51.8246 636.712 51.3138 635.878C45.0921 625.771 35.4304 617.902 28.9819 607.97C11.8541 581.82 2.40353 550.401 3.32776 519.524C3.35325 518.804 3.37934 518.084 3.40606 517.365C3.91197 503.511 3.85075 489.734 4.58701 475.918C4.9507 469.109 5.18178 462.315 5.38924 455.53L6.46558 436.399L18.6921 427.532C25.9401 421.948 33.3407 416.679 40.9661 411.821C50.7644 405.578 61.0762 399.901 70.8551 393.947C74.413 391.759 78.9417 388.05 83.1651 388.745C83.2018 388.726 93.3175 382.695 93.5678 382.622C94.6088 382.085 95.639 381.497 96.6971 381.103C112.606 374.948 127.942 368.392 143.857 363.46C166.484 356.436 189.643 351.658 212.79 348.213C219.91 347.159 227.258 346.989 235.018 345.87C229.341 345.535 223.145 347.128 218.341 346.535C229.545 345.257 240.974 344.277 251.854 344.428C261.779 344.517 273.267 343.823 281.503 345.823C282.733 346.109 284.342 345.876 285.582 345.815C289.631 345.631 291.64 346.28 290.863 346.842C289.201 348.106 292.179 348.194 296.668 348.275C298.225 348.301 300.424 348.284 300.998 348.752C301.489 349.116 299.933 349.183 298.5 349.235C295.921 349.315 291.908 349.336 293.47 350.181C294.583 350.782 297.112 351.487 301.353 351.174C301.552 351.165 302.073 351.296 302.592 351.387C301.615 352.005 298.751 351.835 296.216 351.872C299.749 352.948 302.262 353.933 299.03 355.16C298.33 355.419 298.931 355.703 296.728 355.709C292.146 355.732 292.202 356.068 294.254 356.914C296.881 357.987 301.232 359.096 296.453 360.483C296.107 360.581 296.077 360.809 296.393 360.912C299.434 361.952 299.723 362.819 296.527 364.164C294.438 365.036 300.103 365.691 303.901 366.033C312.381 366.784 317.382 368.828 317.381 370.749C317.381 370.749 317.381 370.749 317.381 370.749C317.381 371.397 316.825 372.044 315.662 372.665C312.909 374.105 307.847 375.938 314.052 377.24C269.462 381.722 226.862 392.792 186.384 408.374C146.297 423.883 107.818 443.538 76.2712 469.834C81.4289 466.694 85.8504 462.352 91.1787 459.473C91.6109 459.242 92.0425 459.272 93.4572 458.965C85.7602 464.345 78.3488 470 71.3004 475.922C70.6413 476.475 69.8937 477.131 70.0518 476.207C70.4897 473.539 68.5355 476.551 68.5095 476.789C68.1461 479.249 65.7599 480.981 63.4982 482.487C63.4916 482.492 63.4849 482.496 63.4783 482.501L76.2933 455.53C75.9664 459.571 76.7591 463.307 77.0148 467.195C78.172 484.613 79.1763 502.068 80.137 519.524C80.1576 519.777 80.1794 520.03 80.2024 520.282C80.6241 524.927 80.9182 529.679 82.8516 534.08C83.9974 536.615 85.3422 534.143 86.1151 536.246C87.0383 538.613 83.9544 537.757 84.9277 540.268C85.9563 542.843 86.5229 545.629 88.1943 548.202C88.4843 547.386 88.707 546.76 89.1826 545.539C90.0586 552.899 94.8138 557.589 99.8627 561.566ZM232.939 676.154C225.298 674.793 217.696 675.866 210.055 675.577C217.657 676.889 225.337 676.106 232.939 676.154ZM179.374 674.803C187.17 676.626 195.236 675.823 203.224 675.657C195.313 675.062 187.285 675.773 179.374 674.803ZM255.207 676.107C268.238 676.195 281.269 676.257 294.3 676.292C294.261 676.027 294.224 675.762 294.185 675.498C281.192 675.463 268.2 675.402 255.207 675.316C255.207 675.58 255.207 675.843 255.207 676.107ZM320.156 675.35C313.75 675.349 307.345 675.71 300.939 675.84C307.383 676.159 313.866 676.736 320.156 675.35ZM218.913 375.614C237.25 373.737 252.722 370.207 268.061 367.737C251.935 367.977 236.011 371.045 218.913 375.614ZM467.759 407.875C473.218 410.677 477.221 412.841 482.283 413.074C477.402 410.902 473.281 408.969 467.759 407.875ZM538.908 443.355C546.191 450.045 553.271 454.318 560.608 458.106C554.115 452.655 547.128 448.006 538.908 443.355ZM488.441 421.496C489.526 422.039 490.632 422.615 491.173 422.451C491.622 422.318 491.461 421.751 491.404 421.308C491.33 421.006 490.657 420.518 490.07 420.5C485.582 420.399 482.157 416.803 477.99 415.478C480.285 415.736 482.709 417.686 485.87 418.135C477.154 413.776 469.069 412.903 461.153 408.746C461.143 408.738 461.132 408.73 461.122 408.721C463.331 410.992 466.281 411.349 468.812 412.441C475.453 415.319 482.011 418.29 488.441 421.496ZM432.903 399.043C439.341 401.549 444.886 403.226 450.453 404.878C444.906 403.204 439.876 399.929 432.903 399.043ZM496.717 599.633C496.612 599.513 495.435 599.49 495.176 600.114C494.895 600.783 495.376 601.216 496.175 601.455C498.966 602.284 501.954 601.294 506.108 601.007C506.106 601.001 506.104 600.995 506.103 600.989C504.989 600.381 504.739 600.08 504.39 600.068C501.865 599.958 498.569 602.208 496.717 599.633ZM518.987 436.763C513.846 433.679 508.877 430.094 503.052 428.245C508.452 430.978 513.757 433.813 518.987 436.763ZM526.422 441.39C530.99 444.412 535.311 447.693 540.293 449.782C535.787 446.763 531.568 443.038 526.422 441.39ZM567.649 524.898C567.755 527.513 565.216 529.365 565.614 530.558C566.939 534.708 564.35 538.216 563.349 541.81C566.419 536.916 568.829 531.229 567.649 524.898ZM554.052 459.74C557.666 462.256 558.121 465.758 562.396 468.413C562.29 464.589 557.608 462.242 554.052 459.74ZM557.318 552.107C557.263 552.262 557.224 552.423 557.181 552.553C555.887 556.929 553.145 560.688 550.244 564.114C549.007 565.56 549.03 566.9 549.684 567.541C550.457 568.3 551.347 566.67 551.988 565.86C556.224 560.693 558.722 554.462 561.765 548.467C562.723 546.581 562.859 544.231 563.235 542.092C561.794 541.556 562.081 543.501 561.515 544.33C560.076 546.412 560.623 548.298 560.087 550.253C559.348 552.894 558.546 553.214 557.318 552.107ZM509.05 592.616C508.015 591.431 508.103 592.559 508.287 593.008C508.502 593.531 507.063 594.002 508.101 594.529C508.641 594.319 509.205 594.035 509.818 593.867C510.349 593.708 510.994 593.337 511.448 593.767C511.439 593.77 511.431 593.773 511.423 593.776C506.145 597.625 499.066 595.752 493.355 598.251C506.118 597.535 519.146 593.574 529.593 585.502C530.347 584.925 530.823 584.037 531.833 583.797C537.51 582.356 541.083 577.278 545.198 573.463C546.506 572.25 546.472 571.167 546.246 569.511C542.608 574.66 538.433 578.808 533.194 581.03C532.376 581.378 531.595 582.057 530.839 582.6C525.011 586.893 518.662 590.559 511.806 592.608C510.775 592.909 509.869 593.567 509.05 592.616ZM313.399 380.485C302.741 379.331 205.371 403.972 201.023 407.505C223.66 398.526 248.018 392.071 272.229 386.5C284.79 383.599 297.799 380.991 311.673 380.432C312.235 380.403 312.724 380.459 313.399 380.485ZM480.93 596.648C467.809 596.516 454.687 596.35 441.566 596.231C438.165 596.19 434.652 595.937 432.116 597.448C432.127 597.447 432.14 597.448 432.151 597.447C433.501 598.405 435.507 598.145 437.282 598.165C451.792 598.406 466.303 598.637 480.775 598.975C481.237 598.982 481.725 599.011 482.202 599.032C483.229 599.098 484.181 599.068 484.295 598.131C484.43 596.929 483.414 596.725 482.202 596.668C481.787 596.655 481.357 596.652 480.93 596.648ZM452.665 409.408C441.104 405.49 429.398 401.65 417.674 397.724C429.655 400.65 441.316 404.671 452.665 409.408ZM320.156 596.52C315.024 595.522 309.852 596.872 304.681 596.268C309.891 598.319 315.024 597.112 320.156 596.52ZM382.598 595.489C385.492 596.989 388.696 597.352 392.632 596.772C396.993 596.134 401.701 596.272 406.178 596.997C407.143 597.146 408.068 597.942 408.724 596.938C409.38 595.934 408.108 595.68 406.526 595.667C398.55 595.598 390.574 595.538 382.598 595.489ZM411.657 595.369C418.123 596.981 424.852 597.728 431.843 597.457C425.957 594.049 418.238 596.567 411.657 595.369ZM431.956 597.545C431.969 597.545 431.982 597.545 431.995 597.546C431.989 597.541 431.982 597.537 431.975 597.533C431.969 597.537 431.963 597.541 431.956 597.545ZM489.25 425.705C489.329 425.513 489.407 425.322 489.485 425.13C505.689 432.223 520.599 441.723 535.077 451.282C520.567 441.818 505.176 433.284 489.25 425.705ZM558.019 541.569C560.074 534.438 561.427 527.115 561.877 519.524C562.702 499.555 563.967 479.606 564.719 459.625L576.481 485.095C576.379 485 576.277 484.906 576.175 484.811C576.179 484.807 576.182 484.803 576.186 484.799C576.431 484.563 576.662 484.291 576.883 484.031C576.975 484.12 577.068 484.209 577.16 484.297L565.766 459.625C564.701 479.604 563.672 499.567 562.692 519.524C562.156 527.194 560.57 534.587 558.019 541.569ZM541.697 456.661C541.813 456.539 541.909 456.384 542.004 456.23C553.483 464.13 564.319 472.609 574.353 481.724C574.215 481.838 574.04 481.94 573.917 482.089C563.924 473.002 553.132 464.545 541.697 456.661ZM79.6642 534.376C78.3944 529.541 78.4342 524.588 77.2312 519.524C77.0115 518.188 76.7351 516.851 76.3872 515.512C76.4357 516.849 76.4839 518.187 76.5318 519.524C76.792 524.648 77.5169 529.677 78.6893 534.561C79.0143 534.499 79.3392 534.438 79.6642 534.376ZM409.911 398.639C408.255 398.089 408.882 399.304 407.425 398.597C400.251 395.116 392.164 394.549 384.535 392.797C380.397 391.854 378.916 391.248 377.905 390.162C386.898 391.955 395.958 393.648 404.514 396.611C406.194 397.204 407.244 397.002 408.739 397.445C411.068 398.145 410.815 398.435 409.911 398.639ZM377.844 390.11C377.845 390.106 377.845 390.103 377.846 390.1C377.852 390.107 377.861 390.115 377.868 390.122C377.865 390.124 377.861 390.125 377.857 390.127C377.853 390.121 377.849 390.115 377.844 390.11ZM377.868 390.122C377.873 390.121 377.877 390.119 377.881 390.117C377.88 390.123 377.879 390.129 377.879 390.135C377.875 390.131 377.872 390.127 377.868 390.122ZM377.826 390.138C377.836 390.134 377.847 390.131 377.857 390.127C377.863 390.136 377.87 390.146 377.876 390.156C377.859 390.15 377.843 390.144 377.826 390.138ZM377.879 390.135C377.887 390.144 377.897 390.153 377.905 390.162C377.896 390.16 377.886 390.158 377.876 390.156C377.877 390.149 377.878 390.142 377.879 390.135ZM248.222 592.1C247.026 592.049 244.942 592.086 244.98 593.017C245.018 593.948 246.755 593.691 248.183 593.66C255.786 593.541 263.389 593.532 270.991 593.491C263.813 591.375 255.902 592.404 248.222 592.1ZM439.428 408.536C430.115 405.366 420.616 402.93 411.268 399.618C410.722 399.421 410.4 398.994 409.991 398.666C413.297 398.849 416.795 399.66 420.666 400.931C426.604 402.888 432.575 404.834 438.488 406.982C439.66 407.406 441.154 407.885 441.057 408.51C441.005 408.834 440.324 408.847 439.428 408.536ZM128.957 435.942C125.641 439.099 115.645 445.045 108.992 447.917C115.766 442.852 122.755 439.936 128.957 435.942ZM105.485 574.617C104.349 571.657 102.914 569.896 99.9777 568.368C100.477 571.598 102.713 573.078 105.485 574.617ZM84.907 542.926C84.6582 542.127 84.3277 541.363 83.6841 541.472C82.8933 541.596 82.7689 542.903 83.2937 543.473C85.9271 546.25 85.9077 550.497 89.3462 553.914C89.342 553.907 89.3378 553.899 89.3336 553.892C87.2649 549.686 85.9848 546.317 84.907 542.926ZM510.787 441.193C503.679 436.746 496.135 433.236 488.747 429.31C481.667 425.568 473.812 423.003 467.859 418.21C482.174 425.879 498.001 431.651 510.787 441.193ZM543.317 564.146C543.507 564.284 543.696 564.423 543.886 564.562C537.605 572.387 529.836 578.938 521.236 583.739C521.11 583.533 520.984 583.326 520.858 583.12C529.38 578.374 537.085 571.892 543.317 564.146ZM409.837 398.657C409.805 398.656 409.77 398.652 409.739 398.651C409.739 398.651 409.832 398.649 409.889 398.645C409.897 398.643 409.904 398.641 409.911 398.639C409.914 398.64 409.917 398.641 409.92 398.642C409.933 398.64 409.938 398.638 409.93 398.636C409.942 398.639 409.954 398.642 409.966 398.645C409.975 398.652 409.982 398.659 409.991 398.666C409.963 398.664 409.935 398.663 409.907 398.661C409.862 398.665 409.817 398.668 409.772 398.671C409.794 398.667 409.815 398.662 409.837 398.657ZM466.91 419.408C462.409 416.949 457.01 415.99 452.891 412.939C457.927 414.619 463.13 416.095 466.91 419.408ZM306.187 589.598C307.306 589.556 308.58 589.697 308.387 590.553C308.233 591.369 307.074 591.412 305.878 591.332C302.791 591.113 299.742 590.896 296.655 590.68C296.668 590.68 296.68 590.68 296.693 590.68C296.77 590.435 296.809 590.211 296.848 589.966C299.935 589.835 303.061 589.685 306.187 589.598ZM485.176 591.883C490.323 590.673 495.505 591.504 500.589 590.256C495.738 592.455 490.315 591.977 485.176 591.883ZM536.62 457.378C536.37 457.862 535.35 457.727 534.654 457.111C530.439 453.323 525.493 450.546 520.556 447.604C520.007 447.287 519.6 446.63 518.619 445.606C525.08 447.791 530.018 452.229 535.286 455.212C536.429 455.85 536.908 456.83 536.62 457.378ZM561.354 477.599C554.773 471.775 547.826 466.104 540.5 460.859C539 459.782 538.17 459.009 538.44 458.427C538.912 457.453 540.413 459.075 541.315 459.748C548.151 464.792 554.675 470.109 560.901 475.634C560.892 475.627 560.883 475.619 560.874 475.612C561.035 476.258 561.184 476.918 561.354 477.599ZM175.786 586.652C182.809 586.345 189.679 586.943 197.899 587.599C193.577 588.465 190.721 589.048 187.749 589.653C189.293 591.145 192.38 589.901 194.618 591.146C186.051 591.111 178.294 591.571 170.305 591.154C166.08 590.931 161.784 590.831 157.477 590.851C154.215 590.875 151.003 590.858 147.787 590.795C147.77 590.806 147.752 590.817 147.734 590.829C145.147 590.748 144.458 589.826 143.622 588.52C143.632 588.511 143.64 588.502 143.65 588.493C146.056 587.339 148.166 586.073 150.47 588.775C151.228 589.628 151.969 588.701 152.691 588.627C154.315 588.46 155.884 588.086 157.477 587.776C161.444 587.312 165.444 587.108 169.611 588.075C171.734 588.571 173.548 586.754 175.786 586.652ZM560.674 469.069C560.272 465.911 560.09 462.764 560.095 459.625L573.483 488.615C569.02 484.799 564.904 480.404 560.948 475.69C565.743 479.291 570.205 483.391 574.343 487.605L561.421 459.625C561.178 462.773 560.918 465.921 560.674 469.069ZM560.901 475.634C560.916 475.653 560.933 475.671 560.948 475.69C560.929 475.676 560.91 475.661 560.891 475.647C560.894 475.642 560.898 475.638 560.901 475.634ZM553.523 539.295C553.072 537.995 551.884 537.318 552.971 535.677C556.14 530.804 555.768 525.039 555.968 519.524C555.99 518.605 556.024 517.687 556.077 516.768C556.123 516.112 556.186 515.456 556.237 514.685C557.331 515.379 556.124 517.695 557.11 519.007C557.613 514.029 558.134 509.359 557.863 504.535C557.821 503.918 557.358 503.184 557.419 502.953C558.127 500.406 557.409 495.582 558.812 495.235C560.2 494.849 559.577 499.557 559.446 501.448C559.446 501.461 559.445 501.474 559.445 501.487C559.054 507.488 558.729 513.493 558.395 519.524C557.823 526.395 556.319 533.081 553.523 539.295ZM193.811 410.234C185.59 413.487 178.229 417.869 169.757 420.822C168.697 421.187 167.097 422.169 166.686 421.648C166.29 421.174 167.704 420.413 168.908 419.906C168.907 419.902 168.905 419.898 168.904 419.894C177.068 416.448 185.403 413.22 193.811 410.234ZM129.641 440.765C124.09 442.764 120.368 447.421 115.11 449.772C115.103 449.782 115.095 449.793 115.087 449.803C112.942 450.75 110.638 452.187 108.285 452.351C114.937 447.079 121.904 443.966 128.417 440.079C129.243 439.587 130.399 439.289 130.525 439.81C130.559 439.967 129.876 440.682 129.641 440.765ZM98.8207 458.951C95.395 461.382 93.9686 466.345 88.8569 465.88C91.4759 462.532 95.4095 461.21 98.8207 458.951ZM85.6281 468.133C81.5307 472.833 77.1955 474.989 73.7525 478.157C76.7815 474.627 80.2184 471.459 85.6281 468.133ZM143.581 588.458C143.587 588.468 143.594 588.477 143.6 588.486C143.606 588.458 143.611 588.429 143.617 588.4C143.606 588.42 143.592 588.439 143.581 588.458ZM149.692 430.242C145.391 432.104 141.346 435.101 135.623 436.783C140.435 432.846 145.398 431.808 149.571 429.363C149.728 429.273 150.375 429.258 150.34 429.363C150.281 429.6 149.944 430.105 149.719 430.214C149.71 430.223 149.701 430.233 149.692 430.242ZM242.202 584.763C247.064 584.37 249.341 586.497 253.586 585.386C253.599 585.379 253.612 585.373 253.625 585.366C253.586 585.812 253.508 586.259 253.47 586.706C252.39 586.796 251.347 586.967 250.267 586.996C234.792 587.455 219.317 587.935 203.842 588.514C201.99 588.58 200.291 588.524 200.021 587.567C199.597 586.112 201.835 586.218 203.726 586.17C212.255 585.945 220.822 585.327 229.273 585.631C233.827 585.801 238.189 585.087 242.202 584.763ZM548.752 547.393C549.757 544.387 550.134 541.826 551.386 539.398C553.179 540.959 552.192 545.214 548.752 547.393ZM533.878 566.428C534.391 564.298 536.272 563.541 537.71 562.507C537.705 562.513 537.7 562.519 537.695 562.525C540.554 560.482 542.897 557.934 544.097 554.638C543.275 560.008 538.886 563.877 535.289 567.711C534.674 568.351 533.875 568.849 533.213 568.213C532.487 567.487 533.753 566.95 533.878 566.428ZM504.925 584.286C505.984 582.985 505.154 581.047 507.047 581.646C509.702 582.459 511.509 581.011 513.06 579.735C515.238 577.918 518.153 578.719 520.35 576.788C523.069 574.396 527.371 573.537 529.515 570.153C529.956 569.441 530.831 568.92 531.438 569.633C532.045 570.349 531.206 570.991 530.552 571.54C527.145 574.338 523.6 577.129 519.59 578.799C519.58 578.797 519.57 578.796 519.559 578.794C514.902 580.733 510.599 583.396 504.925 584.286ZM304.914 582.24C306.225 581.626 306.727 582.236 306.959 582.439C309.158 584.25 312.4 584.389 315.41 583.53C318.227 582.733 318.189 584.12 318.459 584.528C319.192 585.608 316.8 585.548 316.028 585.549C305.994 585.759 295.767 586.478 285.888 585.829C279.52 585.409 273.77 586.682 267.711 586.335C267.698 586.329 267.685 586.322 267.672 586.315C262.887 586.043 257.253 587.322 254.127 584.713C255.053 583.082 258.912 586.945 257.87 583.342C257.677 582.654 259.993 582.593 261.382 582.562C270.142 582.31 278.709 582.499 287.353 583.663C292.949 584.412 299.704 584.698 304.914 582.24ZM483.882 586.586C486.919 584.328 490.126 585.626 492.594 585.889C496.081 586.243 498.285 584.099 501.242 583.675C501.927 583.566 502.736 582.625 503.203 583.478C503.664 584.293 502.772 585.012 501.738 585.272C501.733 585.28 501.727 585.288 501.722 585.296C496.14 586.678 490.247 588.461 483.882 586.586ZM353.694 583.435C354.272 583.661 355.122 581.69 356.086 583.344C356.395 583.895 355.97 584.484 354.388 584.64C343.852 585.695 333.239 585.753 322.588 585.18C322.241 585.159 321.971 584.67 321.122 583.895C330.114 583.793 338.141 582.626 346.669 583.042C348.985 583.151 351.378 582.549 353.694 583.435ZM370.52 582.163C374.532 581.601 374.88 583.901 377.659 584.245C371.87 586.194 366.891 586.25 362.839 582.258C366.003 583.355 368.281 582.473 370.52 582.163ZM423.307 582.01C425.08 581.817 428.432 580.672 428.021 583.633C427.905 584.355 428.946 584.349 429.795 584C430.258 583.806 430.529 583.468 430.915 583.193C436.472 585.261 442.609 583.831 448.436 584.33C449.44 584.406 450.982 584.453 450.674 585.346C450.481 585.881 449.748 586.009 448.629 585.991C431.996 585.801 415.401 585.686 398.769 585.603C398.769 585.59 398.769 585.576 398.769 585.562C398.228 585.557 397.688 585.289 396.607 585.015C399.502 583.707 403.167 582.978 405.599 583.612C411.001 585.005 416.212 583.272 421.383 584.166C422.502 584.362 424.779 584.956 424.934 583.43C425.042 582.433 424.113 582.119 423.307 582.01ZM422.425 581.946C422.634 581.955 422.959 581.963 423.307 582.01C422.918 582.052 422.605 582.05 422.425 581.946Z" fill="var(--stroke-0, #FDEEC2)"/>
</g>
</svg>
